M48
; DRILL file {KiCad (5.1.2)-2} date 07/04/2021 22:22:01
; FORMAT={-:-/ absolute / metric / decimal}
; #@! TF.CreationDate,2021-04-07T22:22:01-04:00
; #@! TF.GenerationSoftware,Kicad,Pcbnew,(5.1.2)-2
FMAT,2
METRIC
T1C0.400
T2C0.500
T3C1.000
T4C3.200
%
G90
G05
T1
X51.4Y-82.8
X52.2Y-82.1
X67.3Y-82.1
X68.5Y-86.7
X71.1Y-86.0
X72.8Y-86.8
X74.6Y-86.7
X76.0Y-83.5
X109.75Y-104.3
T2
X117.5Y-111.5
X118.75Y-111.5
X120.0Y-111.5
X121.25Y-111.5
X55.5Y-51.05
X55.5Y-52.3
X55.5Y-53.55
X55.5Y-54.8
X55.5Y-56.05
X55.5Y-57.3
X117.5Y-38.5
X118.75Y-38.5
X120.0Y-38.5
X121.25Y-38.5
X54.5Y-98.3
X54.5Y-99.55
X54.5Y-100.8
X54.5Y-102.05
X55.5Y-62.55
X55.5Y-63.8
X55.5Y-65.05
X55.5Y-66.3
X55.5Y-89.95
X55.5Y-91.2
X55.5Y-92.45
X55.5Y-93.7
T3
X66.09Y-77.13
X68.63Y-77.13
X71.17Y-77.13
X73.71Y-77.13
X76.25Y-77.13
X78.79Y-77.13
X69.6Y-37.19
X72.14Y-37.19
X74.68Y-37.19
X77.22Y-37.19
X79.76Y-37.19
X82.3Y-37.19
X84.84Y-37.19
X69.58Y-60.1
X72.12Y-60.1
X74.66Y-60.1
X77.2Y-60.1
X79.74Y-60.1
X82.28Y-60.1
X84.82Y-60.1
T4
X133.86Y-44.11
X133.86Y-105.11
X42.21Y-105.11
X42.26Y-44.11
T0
M30
