G04 #@! TF.GenerationSoftware,KiCad,Pcbnew,(5.1.2)-2*
G04 #@! TF.CreationDate,2021-05-04T11:05:58-04:00*
G04 #@! TF.ProjectId,Magnetometer_A,4d61676e-6574-46f6-9d65-7465725f412e,rev?*
G04 #@! TF.SameCoordinates,Original*
G04 #@! TF.FileFunction,Copper,L2,Bot*
G04 #@! TF.FilePolarity,Positive*
%FSLAX46Y46*%
G04 Gerber Fmt 4.6, Leading zero omitted, Abs format (unit mm)*
G04 Created by KiCad (PCBNEW (5.1.2)-2) date 2021-05-04 11:05:58*
%MOMM*%
%LPD*%
G04 APERTURE LIST*
%ADD10R,1.700000X1.700000*%
%ADD11O,1.700000X1.700000*%
%ADD12C,5.000000*%
%ADD13R,0.850000X0.850000*%
%ADD14C,0.850000*%
%ADD15C,0.800000*%
%ADD16C,0.250000*%
%ADD17C,0.254000*%
G04 APERTURE END LIST*
D10*
X95100000Y-59000000D03*
D11*
X95100000Y-56460000D03*
X95100000Y-53920000D03*
X95100000Y-51380000D03*
D12*
X38900000Y-36175000D03*
X115100000Y-127750000D03*
X115100000Y-36150000D03*
X38900000Y-127750000D03*
D13*
X110000000Y-46000000D03*
D14*
X110000000Y-44750000D03*
X110000000Y-43500000D03*
X110000000Y-42250000D03*
X45000000Y-42350000D03*
X45000000Y-43600000D03*
X45000000Y-44850000D03*
D13*
X45000000Y-46100000D03*
D14*
X76750000Y-114600000D03*
X78000000Y-114600000D03*
X79250000Y-114600000D03*
D13*
X80500000Y-114600000D03*
D10*
X87220000Y-85070000D03*
D11*
X87220000Y-87610000D03*
X87220000Y-90150000D03*
X87220000Y-92690000D03*
X87220000Y-95230000D03*
X87220000Y-97770000D03*
X87220000Y-100310000D03*
X110120000Y-85040000D03*
X110120000Y-87580000D03*
X110120000Y-90120000D03*
X110120000Y-92660000D03*
X110120000Y-95200000D03*
X110120000Y-97740000D03*
D10*
X110120000Y-100280000D03*
X70350000Y-91130000D03*
D11*
X70350000Y-93670000D03*
X70350000Y-96210000D03*
X70350000Y-98750000D03*
X70350000Y-101290000D03*
X70350000Y-103830000D03*
D14*
X102750000Y-114600000D03*
X104000000Y-114600000D03*
X105250000Y-114600000D03*
X106500000Y-114600000D03*
X107750000Y-114600000D03*
D13*
X109000000Y-114600000D03*
X97700000Y-114600000D03*
D14*
X96450000Y-114600000D03*
X95200000Y-114600000D03*
X93950000Y-114600000D03*
D11*
X110000000Y-51380000D03*
X110000000Y-53920000D03*
X110000000Y-56460000D03*
D10*
X110000000Y-59000000D03*
D15*
X55700000Y-102700000D03*
X62600000Y-97500000D03*
X65600000Y-94400000D03*
X60300000Y-102600000D03*
X67100000Y-103300000D03*
X66100000Y-92300002D03*
X60800000Y-94599999D03*
X56799999Y-101100001D03*
D16*
X104000000Y-114600000D02*
X103800000Y-114400000D01*
X103800000Y-114400000D02*
X103800000Y-95800000D01*
X104000000Y-114600000D02*
X104200000Y-114400000D01*
X104200000Y-114400000D02*
X104200000Y-96000000D01*
X69250000Y-91130000D02*
X70350000Y-91130000D01*
X57073002Y-102700000D02*
X58125001Y-101648001D01*
X55700000Y-102700000D02*
X57073002Y-102700000D01*
X58125001Y-101648001D02*
X58125001Y-99874999D01*
X58125001Y-99874999D02*
X64800000Y-93200000D01*
X64800000Y-93200000D02*
X67180000Y-93200000D01*
X67180000Y-93200000D02*
X69250000Y-91130000D01*
X96450000Y-113998960D02*
X96450000Y-114600000D01*
X95351040Y-112900000D02*
X96450000Y-113998960D01*
X93400000Y-112900000D02*
X95351040Y-112900000D01*
X70350000Y-91130000D02*
X71630000Y-91130000D01*
X71630000Y-91130000D02*
X93400000Y-112900000D01*
X105680000Y-90120000D02*
X110120000Y-90120000D01*
X104200000Y-95900000D02*
X104200000Y-91600000D01*
X104200000Y-91600000D02*
X105680000Y-90120000D01*
X107620000Y-87580000D02*
X110120000Y-87580000D01*
X103800000Y-95800000D02*
X103800000Y-91400000D01*
X103800000Y-91400000D02*
X107620000Y-87580000D01*
X115600000Y-85900000D02*
X115600000Y-84400000D01*
X110120000Y-87580000D02*
X113920000Y-87580000D01*
X113920000Y-87580000D02*
X115600000Y-85900000D01*
X112860000Y-56460000D02*
X110000000Y-56460000D01*
X115600000Y-84700000D02*
X115600000Y-59200000D01*
X115600000Y-59200000D02*
X112860000Y-56460000D01*
X106500000Y-114600000D02*
X106500000Y-115736410D01*
X106500000Y-115736410D02*
X106500000Y-116400000D01*
X106500000Y-116400000D02*
X103900000Y-119000000D01*
X103900000Y-119000000D02*
X91400000Y-119000000D01*
X91400000Y-119000000D02*
X82000000Y-109600000D01*
X67100000Y-109600000D02*
X73700000Y-109600000D01*
X62600000Y-105100000D02*
X67100000Y-109600000D01*
X62600000Y-97500000D02*
X62600000Y-105100000D01*
X82000000Y-109600000D02*
X73700000Y-109600000D01*
X73700000Y-109600000D02*
X73500000Y-109600000D01*
X74450000Y-98750000D02*
X70350000Y-98750000D01*
X91700000Y-116000000D02*
X74450000Y-98750000D01*
X94401040Y-116000000D02*
X91700000Y-116000000D01*
X95200000Y-114600000D02*
X95200000Y-115201040D01*
X95200000Y-115201040D02*
X94401040Y-116000000D01*
X93000000Y-114600000D02*
X93950000Y-114600000D01*
X70350000Y-96210000D02*
X74610000Y-96210000D01*
X74610000Y-96210000D02*
X93000000Y-114600000D01*
X107750000Y-116550000D02*
X104400000Y-119900000D01*
X107750000Y-114600000D02*
X107750000Y-116550000D01*
X104400000Y-119900000D02*
X90900000Y-119900000D01*
X90900000Y-119900000D02*
X81500000Y-110500000D01*
X66000000Y-110500000D02*
X73300000Y-110500000D01*
X81500000Y-110500000D02*
X73300000Y-110500000D01*
X73300000Y-110500000D02*
X73100000Y-110500000D01*
X64626998Y-94400000D02*
X61600000Y-97426998D01*
X61600000Y-97426998D02*
X61600000Y-106100000D01*
X65600000Y-94400000D02*
X64626998Y-94400000D01*
X61600000Y-106100000D02*
X66000000Y-110500000D01*
X109000000Y-116700000D02*
X105000000Y-120700000D01*
X109000000Y-114600000D02*
X109000000Y-116700000D01*
X105000000Y-120700000D02*
X90200000Y-120700000D01*
X90200000Y-120700000D02*
X80900000Y-111400000D01*
X80900000Y-111400000D02*
X72500000Y-111400000D01*
X64400000Y-111400000D02*
X67800000Y-111400000D01*
X60300000Y-107300000D02*
X64400000Y-111400000D01*
X60300000Y-102600000D02*
X60300000Y-107300000D01*
X72500000Y-111400000D02*
X67800000Y-111400000D01*
X67800000Y-111400000D02*
X67600000Y-111400000D01*
X67100000Y-105900000D02*
X67100000Y-103300000D01*
X67100000Y-106600000D02*
X67100000Y-105900000D01*
X105250000Y-116350000D02*
X103500000Y-118100000D01*
X91900000Y-118100000D02*
X82500000Y-108700000D01*
X103500000Y-118100000D02*
X91900000Y-118100000D01*
X82500000Y-108700000D02*
X69200000Y-108700000D01*
X105250000Y-114600000D02*
X105250000Y-116350000D01*
X69200000Y-108700000D02*
X67100000Y-106600000D01*
X70790002Y-87610000D02*
X66499999Y-91900003D01*
X66499999Y-91900003D02*
X66100000Y-92300002D01*
X87220000Y-87610000D02*
X70790002Y-87610000D01*
X87220000Y-90150000D02*
X90100000Y-87270000D01*
X90100000Y-87270000D02*
X90100000Y-84500000D01*
X61199999Y-94200000D02*
X60800000Y-94599999D01*
X88400000Y-82800000D02*
X72599999Y-82800000D01*
X72599999Y-82800000D02*
X61199999Y-94200000D01*
X90100000Y-84500000D02*
X88400000Y-82800000D01*
X56799999Y-100117158D02*
X56799999Y-101100001D01*
X87220000Y-85070000D02*
X71847157Y-85070000D01*
X71847157Y-85070000D02*
X56799999Y-100117158D01*
D17*
G36*
X113101554Y-33714886D02*
G01*
X112664886Y-34151554D01*
X112321799Y-34665021D01*
X112085476Y-35235554D01*
X111965000Y-35841229D01*
X111965000Y-36458771D01*
X112085476Y-37064446D01*
X112321799Y-37634979D01*
X112664886Y-38148446D01*
X113101554Y-38585114D01*
X113615021Y-38928201D01*
X114185554Y-39164524D01*
X114791229Y-39285000D01*
X115408771Y-39285000D01*
X116014446Y-39164524D01*
X116584979Y-38928201D01*
X117098446Y-38585114D01*
X117535114Y-38148446D01*
X117640000Y-37991473D01*
X117640001Y-125908529D01*
X117535114Y-125751554D01*
X117098446Y-125314886D01*
X116584979Y-124971799D01*
X116014446Y-124735476D01*
X115408771Y-124615000D01*
X114791229Y-124615000D01*
X114185554Y-124735476D01*
X113615021Y-124971799D01*
X113101554Y-125314886D01*
X112664886Y-125751554D01*
X112321799Y-126265021D01*
X112085476Y-126835554D01*
X111965000Y-127441229D01*
X111965000Y-128058771D01*
X112085476Y-128664446D01*
X112321799Y-129234979D01*
X112664886Y-129748446D01*
X113101554Y-130185114D01*
X113258527Y-130290000D01*
X40741473Y-130290000D01*
X40898446Y-130185114D01*
X41335114Y-129748446D01*
X41678201Y-129234979D01*
X41914524Y-128664446D01*
X42035000Y-128058771D01*
X42035000Y-127441229D01*
X41914524Y-126835554D01*
X41678201Y-126265021D01*
X41335114Y-125751554D01*
X40898446Y-125314886D01*
X40384979Y-124971799D01*
X39814446Y-124735476D01*
X39208771Y-124615000D01*
X38591229Y-124615000D01*
X37985554Y-124735476D01*
X37415021Y-124971799D01*
X36901554Y-125314886D01*
X36464886Y-125751554D01*
X36360000Y-125908527D01*
X36360000Y-114495599D01*
X75690000Y-114495599D01*
X75690000Y-114704401D01*
X75730735Y-114909191D01*
X75810640Y-115102098D01*
X75926644Y-115275711D01*
X76074289Y-115423356D01*
X76247902Y-115539360D01*
X76440809Y-115619265D01*
X76645599Y-115660000D01*
X76854401Y-115660000D01*
X77059191Y-115619265D01*
X77252098Y-115539360D01*
X77375000Y-115457240D01*
X77497902Y-115539360D01*
X77690809Y-115619265D01*
X77895599Y-115660000D01*
X78104401Y-115660000D01*
X78309191Y-115619265D01*
X78502098Y-115539360D01*
X78625000Y-115457240D01*
X78747902Y-115539360D01*
X78940809Y-115619265D01*
X79145599Y-115660000D01*
X79354401Y-115660000D01*
X79559191Y-115619265D01*
X79718003Y-115553483D01*
X79720506Y-115555537D01*
X79830820Y-115614502D01*
X79950518Y-115650812D01*
X80075000Y-115663072D01*
X80214250Y-115660000D01*
X80373000Y-115501250D01*
X80373000Y-114727000D01*
X80627000Y-114727000D01*
X80627000Y-115501250D01*
X80785750Y-115660000D01*
X80925000Y-115663072D01*
X81049482Y-115650812D01*
X81169180Y-115614502D01*
X81279494Y-115555537D01*
X81376185Y-115476185D01*
X81455537Y-115379494D01*
X81514502Y-115269180D01*
X81550812Y-115149482D01*
X81563072Y-115025000D01*
X81560000Y-114885750D01*
X81401250Y-114727000D01*
X80627000Y-114727000D01*
X80373000Y-114727000D01*
X80353000Y-114727000D01*
X80353000Y-114473000D01*
X80373000Y-114473000D01*
X80373000Y-113698750D01*
X80627000Y-113698750D01*
X80627000Y-114473000D01*
X81401250Y-114473000D01*
X81560000Y-114314250D01*
X81563072Y-114175000D01*
X81550812Y-114050518D01*
X81514502Y-113930820D01*
X81455537Y-113820506D01*
X81376185Y-113723815D01*
X81279494Y-113644463D01*
X81169180Y-113585498D01*
X81049482Y-113549188D01*
X80925000Y-113536928D01*
X80785750Y-113540000D01*
X80627000Y-113698750D01*
X80373000Y-113698750D01*
X80214250Y-113540000D01*
X80075000Y-113536928D01*
X79950518Y-113549188D01*
X79830820Y-113585498D01*
X79720506Y-113644463D01*
X79718003Y-113646517D01*
X79559191Y-113580735D01*
X79354401Y-113540000D01*
X79145599Y-113540000D01*
X78940809Y-113580735D01*
X78747902Y-113660640D01*
X78625000Y-113742760D01*
X78502098Y-113660640D01*
X78309191Y-113580735D01*
X78104401Y-113540000D01*
X77895599Y-113540000D01*
X77690809Y-113580735D01*
X77497902Y-113660640D01*
X77375000Y-113742760D01*
X77252098Y-113660640D01*
X77059191Y-113580735D01*
X76854401Y-113540000D01*
X76645599Y-113540000D01*
X76440809Y-113580735D01*
X76247902Y-113660640D01*
X76074289Y-113776644D01*
X75926644Y-113924289D01*
X75810640Y-114097902D01*
X75730735Y-114290809D01*
X75690000Y-114495599D01*
X36360000Y-114495599D01*
X36360000Y-102598061D01*
X54665000Y-102598061D01*
X54665000Y-102801939D01*
X54704774Y-103001898D01*
X54782795Y-103190256D01*
X54896063Y-103359774D01*
X55040226Y-103503937D01*
X55209744Y-103617205D01*
X55398102Y-103695226D01*
X55598061Y-103735000D01*
X55801939Y-103735000D01*
X56001898Y-103695226D01*
X56190256Y-103617205D01*
X56359774Y-103503937D01*
X56403711Y-103460000D01*
X57035680Y-103460000D01*
X57073002Y-103463676D01*
X57110324Y-103460000D01*
X57110335Y-103460000D01*
X57221988Y-103449003D01*
X57365249Y-103405546D01*
X57497278Y-103334974D01*
X57613003Y-103240001D01*
X57636806Y-103210998D01*
X58636005Y-102211799D01*
X58665002Y-102188002D01*
X58759975Y-102072277D01*
X58830547Y-101940248D01*
X58874004Y-101796987D01*
X58885001Y-101685334D01*
X58885001Y-101685325D01*
X58888677Y-101648002D01*
X58885001Y-101610679D01*
X58885001Y-100189800D01*
X60840000Y-98234801D01*
X60840000Y-101716033D01*
X60790256Y-101682795D01*
X60601898Y-101604774D01*
X60401939Y-101565000D01*
X60198061Y-101565000D01*
X59998102Y-101604774D01*
X59809744Y-101682795D01*
X59640226Y-101796063D01*
X59496063Y-101940226D01*
X59382795Y-102109744D01*
X59304774Y-102298102D01*
X59265000Y-102498061D01*
X59265000Y-102701939D01*
X59304774Y-102901898D01*
X59382795Y-103090256D01*
X59496063Y-103259774D01*
X59540000Y-103303711D01*
X59540001Y-107262668D01*
X59536324Y-107300000D01*
X59550998Y-107448985D01*
X59594454Y-107592246D01*
X59665026Y-107724276D01*
X59736201Y-107811002D01*
X59760000Y-107840001D01*
X59788998Y-107863799D01*
X63836200Y-111911002D01*
X63859999Y-111940001D01*
X63888997Y-111963799D01*
X63975724Y-112034974D01*
X64107753Y-112105546D01*
X64251014Y-112149003D01*
X64400000Y-112163677D01*
X64437333Y-112160000D01*
X80585199Y-112160000D01*
X89636201Y-121211003D01*
X89659999Y-121240001D01*
X89688997Y-121263799D01*
X89775723Y-121334974D01*
X89907753Y-121405546D01*
X90051014Y-121449003D01*
X90162667Y-121460000D01*
X90162676Y-121460000D01*
X90199999Y-121463676D01*
X90237322Y-121460000D01*
X104962678Y-121460000D01*
X105000000Y-121463676D01*
X105037322Y-121460000D01*
X105037333Y-121460000D01*
X105148986Y-121449003D01*
X105292247Y-121405546D01*
X105424276Y-121334974D01*
X105540001Y-121240001D01*
X105563804Y-121210997D01*
X109511003Y-117263799D01*
X109540001Y-117240001D01*
X109634974Y-117124276D01*
X109705546Y-116992247D01*
X109749003Y-116848986D01*
X109760000Y-116737333D01*
X109760000Y-116737324D01*
X109763676Y-116700001D01*
X109760000Y-116662678D01*
X109760000Y-115565957D01*
X109779494Y-115555537D01*
X109876185Y-115476185D01*
X109955537Y-115379494D01*
X110014502Y-115269180D01*
X110050812Y-115149482D01*
X110063072Y-115025000D01*
X110063072Y-114175000D01*
X110050812Y-114050518D01*
X110014502Y-113930820D01*
X109955537Y-113820506D01*
X109876185Y-113723815D01*
X109779494Y-113644463D01*
X109669180Y-113585498D01*
X109549482Y-113549188D01*
X109425000Y-113536928D01*
X108575000Y-113536928D01*
X108450518Y-113549188D01*
X108330820Y-113585498D01*
X108220506Y-113644463D01*
X108218003Y-113646517D01*
X108059191Y-113580735D01*
X107854401Y-113540000D01*
X107645599Y-113540000D01*
X107440809Y-113580735D01*
X107247902Y-113660640D01*
X107125000Y-113742760D01*
X107002098Y-113660640D01*
X106809191Y-113580735D01*
X106604401Y-113540000D01*
X106395599Y-113540000D01*
X106190809Y-113580735D01*
X105997902Y-113660640D01*
X105875000Y-113742760D01*
X105752098Y-113660640D01*
X105559191Y-113580735D01*
X105354401Y-113540000D01*
X105145599Y-113540000D01*
X104960000Y-113576918D01*
X104960000Y-95962667D01*
X104958752Y-95950000D01*
X104960000Y-95937333D01*
X104960000Y-91914801D01*
X105994802Y-90880000D01*
X108842405Y-90880000D01*
X108879294Y-90949014D01*
X109064866Y-91175134D01*
X109290986Y-91360706D01*
X109345791Y-91390000D01*
X109290986Y-91419294D01*
X109064866Y-91604866D01*
X108879294Y-91830986D01*
X108741401Y-92088966D01*
X108656487Y-92368889D01*
X108627815Y-92660000D01*
X108656487Y-92951111D01*
X108741401Y-93231034D01*
X108879294Y-93489014D01*
X109064866Y-93715134D01*
X109290986Y-93900706D01*
X109345791Y-93930000D01*
X109290986Y-93959294D01*
X109064866Y-94144866D01*
X108879294Y-94370986D01*
X108741401Y-94628966D01*
X108656487Y-94908889D01*
X108627815Y-95200000D01*
X108656487Y-95491111D01*
X108741401Y-95771034D01*
X108879294Y-96029014D01*
X109064866Y-96255134D01*
X109290986Y-96440706D01*
X109345791Y-96470000D01*
X109290986Y-96499294D01*
X109064866Y-96684866D01*
X108879294Y-96910986D01*
X108741401Y-97168966D01*
X108656487Y-97448889D01*
X108627815Y-97740000D01*
X108656487Y-98031111D01*
X108741401Y-98311034D01*
X108879294Y-98569014D01*
X109064866Y-98795134D01*
X109094687Y-98819607D01*
X109025820Y-98840498D01*
X108915506Y-98899463D01*
X108818815Y-98978815D01*
X108739463Y-99075506D01*
X108680498Y-99185820D01*
X108644188Y-99305518D01*
X108631928Y-99430000D01*
X108631928Y-101130000D01*
X108644188Y-101254482D01*
X108680498Y-101374180D01*
X108739463Y-101484494D01*
X108818815Y-101581185D01*
X108915506Y-101660537D01*
X109025820Y-101719502D01*
X109145518Y-101755812D01*
X109270000Y-101768072D01*
X110970000Y-101768072D01*
X111094482Y-101755812D01*
X111214180Y-101719502D01*
X111324494Y-101660537D01*
X111421185Y-101581185D01*
X111500537Y-101484494D01*
X111559502Y-101374180D01*
X111595812Y-101254482D01*
X111608072Y-101130000D01*
X111608072Y-99430000D01*
X111595812Y-99305518D01*
X111559502Y-99185820D01*
X111500537Y-99075506D01*
X111421185Y-98978815D01*
X111324494Y-98899463D01*
X111214180Y-98840498D01*
X111145313Y-98819607D01*
X111175134Y-98795134D01*
X111360706Y-98569014D01*
X111498599Y-98311034D01*
X111583513Y-98031111D01*
X111612185Y-97740000D01*
X111583513Y-97448889D01*
X111498599Y-97168966D01*
X111360706Y-96910986D01*
X111175134Y-96684866D01*
X110949014Y-96499294D01*
X110894209Y-96470000D01*
X110949014Y-96440706D01*
X111175134Y-96255134D01*
X111360706Y-96029014D01*
X111498599Y-95771034D01*
X111583513Y-95491111D01*
X111612185Y-95200000D01*
X111583513Y-94908889D01*
X111498599Y-94628966D01*
X111360706Y-94370986D01*
X111175134Y-94144866D01*
X110949014Y-93959294D01*
X110894209Y-93930000D01*
X110949014Y-93900706D01*
X111175134Y-93715134D01*
X111360706Y-93489014D01*
X111498599Y-93231034D01*
X111583513Y-92951111D01*
X111612185Y-92660000D01*
X111583513Y-92368889D01*
X111498599Y-92088966D01*
X111360706Y-91830986D01*
X111175134Y-91604866D01*
X110949014Y-91419294D01*
X110894209Y-91390000D01*
X110949014Y-91360706D01*
X111175134Y-91175134D01*
X111360706Y-90949014D01*
X111498599Y-90691034D01*
X111583513Y-90411111D01*
X111612185Y-90120000D01*
X111583513Y-89828889D01*
X111498599Y-89548966D01*
X111360706Y-89290986D01*
X111175134Y-89064866D01*
X110949014Y-88879294D01*
X110894209Y-88850000D01*
X110949014Y-88820706D01*
X111175134Y-88635134D01*
X111360706Y-88409014D01*
X111397595Y-88340000D01*
X113882678Y-88340000D01*
X113920000Y-88343676D01*
X113957322Y-88340000D01*
X113957333Y-88340000D01*
X114068986Y-88329003D01*
X114212247Y-88285546D01*
X114344276Y-88214974D01*
X114460001Y-88120001D01*
X114483804Y-88090997D01*
X116111004Y-86463798D01*
X116140001Y-86440001D01*
X116234974Y-86324276D01*
X116305546Y-86192247D01*
X116349003Y-86048986D01*
X116360000Y-85937333D01*
X116360000Y-85937325D01*
X116363676Y-85900000D01*
X116360000Y-85862675D01*
X116360000Y-59237322D01*
X116363676Y-59199999D01*
X116360000Y-59162676D01*
X116360000Y-59162667D01*
X116349003Y-59051014D01*
X116305546Y-58907753D01*
X116234974Y-58775724D01*
X116140001Y-58659999D01*
X116111003Y-58636201D01*
X113423804Y-55949003D01*
X113400001Y-55919999D01*
X113284276Y-55825026D01*
X113152247Y-55754454D01*
X113008986Y-55710997D01*
X112897333Y-55700000D01*
X112897322Y-55700000D01*
X112860000Y-55696324D01*
X112822678Y-55700000D01*
X111277595Y-55700000D01*
X111240706Y-55630986D01*
X111055134Y-55404866D01*
X110829014Y-55219294D01*
X110774209Y-55190000D01*
X110829014Y-55160706D01*
X111055134Y-54975134D01*
X111240706Y-54749014D01*
X111378599Y-54491034D01*
X111463513Y-54211111D01*
X111492185Y-53920000D01*
X111463513Y-53628889D01*
X111378599Y-53348966D01*
X111240706Y-53090986D01*
X111055134Y-52864866D01*
X110829014Y-52679294D01*
X110774209Y-52650000D01*
X110829014Y-52620706D01*
X111055134Y-52435134D01*
X111240706Y-52209014D01*
X111378599Y-51951034D01*
X111463513Y-51671111D01*
X111492185Y-51380000D01*
X111463513Y-51088889D01*
X111378599Y-50808966D01*
X111240706Y-50550986D01*
X111055134Y-50324866D01*
X110829014Y-50139294D01*
X110571034Y-50001401D01*
X110291111Y-49916487D01*
X110072950Y-49895000D01*
X109927050Y-49895000D01*
X109708889Y-49916487D01*
X109428966Y-50001401D01*
X109170986Y-50139294D01*
X108944866Y-50324866D01*
X108759294Y-50550986D01*
X108621401Y-50808966D01*
X108536487Y-51088889D01*
X108507815Y-51380000D01*
X108536487Y-51671111D01*
X108621401Y-51951034D01*
X108759294Y-52209014D01*
X108944866Y-52435134D01*
X109170986Y-52620706D01*
X109225791Y-52650000D01*
X109170986Y-52679294D01*
X108944866Y-52864866D01*
X108759294Y-53090986D01*
X108621401Y-53348966D01*
X108536487Y-53628889D01*
X108507815Y-53920000D01*
X108536487Y-54211111D01*
X108621401Y-54491034D01*
X108759294Y-54749014D01*
X108944866Y-54975134D01*
X109170986Y-55160706D01*
X109225791Y-55190000D01*
X109170986Y-55219294D01*
X108944866Y-55404866D01*
X108759294Y-55630986D01*
X108621401Y-55888966D01*
X108536487Y-56168889D01*
X108507815Y-56460000D01*
X108536487Y-56751111D01*
X108621401Y-57031034D01*
X108759294Y-57289014D01*
X108944866Y-57515134D01*
X108974687Y-57539607D01*
X108905820Y-57560498D01*
X108795506Y-57619463D01*
X108698815Y-57698815D01*
X108619463Y-57795506D01*
X108560498Y-57905820D01*
X108524188Y-58025518D01*
X108511928Y-58150000D01*
X108515000Y-58714250D01*
X108673750Y-58873000D01*
X109873000Y-58873000D01*
X109873000Y-58853000D01*
X110127000Y-58853000D01*
X110127000Y-58873000D01*
X111326250Y-58873000D01*
X111485000Y-58714250D01*
X111488072Y-58150000D01*
X111475812Y-58025518D01*
X111439502Y-57905820D01*
X111380537Y-57795506D01*
X111301185Y-57698815D01*
X111204494Y-57619463D01*
X111094180Y-57560498D01*
X111025313Y-57539607D01*
X111055134Y-57515134D01*
X111240706Y-57289014D01*
X111277595Y-57220000D01*
X112545199Y-57220000D01*
X114840001Y-59514803D01*
X114840000Y-84737332D01*
X114840001Y-84737340D01*
X114840000Y-85585198D01*
X113605199Y-86820000D01*
X111397595Y-86820000D01*
X111360706Y-86750986D01*
X111175134Y-86524866D01*
X110949014Y-86339294D01*
X110884477Y-86304799D01*
X111001355Y-86235178D01*
X111217588Y-86040269D01*
X111391641Y-85806920D01*
X111516825Y-85544099D01*
X111561476Y-85396890D01*
X111440155Y-85167000D01*
X110247000Y-85167000D01*
X110247000Y-85187000D01*
X109993000Y-85187000D01*
X109993000Y-85167000D01*
X108799845Y-85167000D01*
X108678524Y-85396890D01*
X108723175Y-85544099D01*
X108848359Y-85806920D01*
X109022412Y-86040269D01*
X109238645Y-86235178D01*
X109355523Y-86304799D01*
X109290986Y-86339294D01*
X109064866Y-86524866D01*
X108879294Y-86750986D01*
X108842405Y-86820000D01*
X107657323Y-86820000D01*
X107620000Y-86816324D01*
X107582677Y-86820000D01*
X107582667Y-86820000D01*
X107471014Y-86830997D01*
X107327753Y-86874454D01*
X107195724Y-86945026D01*
X107079999Y-87039999D01*
X107056201Y-87068997D01*
X103288998Y-90836201D01*
X103260000Y-90859999D01*
X103236202Y-90888997D01*
X103236201Y-90888998D01*
X103165026Y-90975724D01*
X103094454Y-91107754D01*
X103068154Y-91194457D01*
X103050998Y-91251014D01*
X103040194Y-91360706D01*
X103036324Y-91400000D01*
X103040001Y-91437332D01*
X103040000Y-95837332D01*
X103040001Y-95837342D01*
X103040000Y-113578299D01*
X102873384Y-113542041D01*
X102664616Y-113538298D01*
X102459130Y-113575356D01*
X102264821Y-113651790D01*
X102231144Y-113669790D01*
X102205219Y-113875614D01*
X102750000Y-114420395D01*
X102764143Y-114406253D01*
X102940000Y-114582110D01*
X102940000Y-114589605D01*
X102929605Y-114600000D01*
X102940000Y-114610395D01*
X102940000Y-114617890D01*
X102764143Y-114793748D01*
X102750000Y-114779605D01*
X102205219Y-115324386D01*
X102231144Y-115530210D01*
X102422588Y-115613560D01*
X102626616Y-115657959D01*
X102835384Y-115661702D01*
X103040870Y-115624644D01*
X103235179Y-115548210D01*
X103268856Y-115530210D01*
X103287011Y-115386078D01*
X103324289Y-115423356D01*
X103497902Y-115539360D01*
X103690809Y-115619265D01*
X103895599Y-115660000D01*
X104104401Y-115660000D01*
X104309191Y-115619265D01*
X104490001Y-115544371D01*
X104490001Y-116035197D01*
X103185199Y-117340000D01*
X92214803Y-117340000D01*
X91631759Y-116756956D01*
X91662667Y-116760000D01*
X91662677Y-116760000D01*
X91700000Y-116763676D01*
X91737323Y-116760000D01*
X94363718Y-116760000D01*
X94401040Y-116763676D01*
X94438362Y-116760000D01*
X94438373Y-116760000D01*
X94550026Y-116749003D01*
X94693287Y-116705546D01*
X94825316Y-116634974D01*
X94941041Y-116540001D01*
X94964843Y-116510998D01*
X95711002Y-115764839D01*
X95740001Y-115741041D01*
X95778234Y-115694454D01*
X95834974Y-115625317D01*
X95898547Y-115506382D01*
X95947902Y-115539360D01*
X96140809Y-115619265D01*
X96345599Y-115660000D01*
X96554401Y-115660000D01*
X96759191Y-115619265D01*
X96918003Y-115553483D01*
X96920506Y-115555537D01*
X97030820Y-115614502D01*
X97150518Y-115650812D01*
X97275000Y-115663072D01*
X97414250Y-115660000D01*
X97573000Y-115501250D01*
X97573000Y-114727000D01*
X97827000Y-114727000D01*
X97827000Y-115501250D01*
X97985750Y-115660000D01*
X98125000Y-115663072D01*
X98249482Y-115650812D01*
X98369180Y-115614502D01*
X98479494Y-115555537D01*
X98576185Y-115476185D01*
X98655537Y-115379494D01*
X98714502Y-115269180D01*
X98750812Y-115149482D01*
X98763072Y-115025000D01*
X98760000Y-114885750D01*
X98601250Y-114727000D01*
X97827000Y-114727000D01*
X97573000Y-114727000D01*
X97553000Y-114727000D01*
X97553000Y-114685384D01*
X101688298Y-114685384D01*
X101725356Y-114890870D01*
X101801790Y-115085179D01*
X101819790Y-115118856D01*
X102025614Y-115144781D01*
X102570395Y-114600000D01*
X102025614Y-114055219D01*
X101819790Y-114081144D01*
X101736440Y-114272588D01*
X101692041Y-114476616D01*
X101688298Y-114685384D01*
X97553000Y-114685384D01*
X97553000Y-114473000D01*
X97573000Y-114473000D01*
X97573000Y-113698750D01*
X97827000Y-113698750D01*
X97827000Y-114473000D01*
X98601250Y-114473000D01*
X98760000Y-114314250D01*
X98763072Y-114175000D01*
X98750812Y-114050518D01*
X98714502Y-113930820D01*
X98655537Y-113820506D01*
X98576185Y-113723815D01*
X98479494Y-113644463D01*
X98369180Y-113585498D01*
X98249482Y-113549188D01*
X98125000Y-113536928D01*
X97985750Y-113540000D01*
X97827000Y-113698750D01*
X97573000Y-113698750D01*
X97414250Y-113540000D01*
X97275000Y-113536928D01*
X97150518Y-113549188D01*
X97081286Y-113570189D01*
X97013799Y-113487957D01*
X96990001Y-113458959D01*
X96961004Y-113435162D01*
X95914844Y-112389002D01*
X95891041Y-112359999D01*
X95775316Y-112265026D01*
X95643287Y-112194454D01*
X95500026Y-112150997D01*
X95388373Y-112140000D01*
X95388362Y-112140000D01*
X95351040Y-112136324D01*
X95313718Y-112140000D01*
X93714802Y-112140000D01*
X82241692Y-100666890D01*
X85778524Y-100666890D01*
X85823175Y-100814099D01*
X85948359Y-101076920D01*
X86122412Y-101310269D01*
X86338645Y-101505178D01*
X86588748Y-101654157D01*
X86863109Y-101751481D01*
X87093000Y-101630814D01*
X87093000Y-100437000D01*
X87347000Y-100437000D01*
X87347000Y-101630814D01*
X87576891Y-101751481D01*
X87851252Y-101654157D01*
X88101355Y-101505178D01*
X88317588Y-101310269D01*
X88491641Y-101076920D01*
X88616825Y-100814099D01*
X88661476Y-100666890D01*
X88540155Y-100437000D01*
X87347000Y-100437000D01*
X87093000Y-100437000D01*
X85899845Y-100437000D01*
X85778524Y-100666890D01*
X82241692Y-100666890D01*
X72193804Y-90619003D01*
X72170001Y-90589999D01*
X72054276Y-90495026D01*
X71922247Y-90424454D01*
X71838072Y-90398920D01*
X71838072Y-90280000D01*
X71825812Y-90155518D01*
X71789502Y-90035820D01*
X71730537Y-89925506D01*
X71651185Y-89828815D01*
X71554494Y-89749463D01*
X71444180Y-89690498D01*
X71324482Y-89654188D01*
X71200000Y-89641928D01*
X69832876Y-89641928D01*
X71104805Y-88370000D01*
X85942405Y-88370000D01*
X85979294Y-88439014D01*
X86164866Y-88665134D01*
X86390986Y-88850706D01*
X86445791Y-88880000D01*
X86390986Y-88909294D01*
X86164866Y-89094866D01*
X85979294Y-89320986D01*
X85841401Y-89578966D01*
X85756487Y-89858889D01*
X85727815Y-90150000D01*
X85756487Y-90441111D01*
X85841401Y-90721034D01*
X85979294Y-90979014D01*
X86164866Y-91205134D01*
X86390986Y-91390706D01*
X86445791Y-91420000D01*
X86390986Y-91449294D01*
X86164866Y-91634866D01*
X85979294Y-91860986D01*
X85841401Y-92118966D01*
X85756487Y-92398889D01*
X85727815Y-92690000D01*
X85756487Y-92981111D01*
X85841401Y-93261034D01*
X85979294Y-93519014D01*
X86164866Y-93745134D01*
X86390986Y-93930706D01*
X86445791Y-93960000D01*
X86390986Y-93989294D01*
X86164866Y-94174866D01*
X85979294Y-94400986D01*
X85841401Y-94658966D01*
X85756487Y-94938889D01*
X85727815Y-95230000D01*
X85756487Y-95521111D01*
X85841401Y-95801034D01*
X85979294Y-96059014D01*
X86164866Y-96285134D01*
X86390986Y-96470706D01*
X86445791Y-96500000D01*
X86390986Y-96529294D01*
X86164866Y-96714866D01*
X85979294Y-96940986D01*
X85841401Y-97198966D01*
X85756487Y-97478889D01*
X85727815Y-97770000D01*
X85756487Y-98061111D01*
X85841401Y-98341034D01*
X85979294Y-98599014D01*
X86164866Y-98825134D01*
X86390986Y-99010706D01*
X86455523Y-99045201D01*
X86338645Y-99114822D01*
X86122412Y-99309731D01*
X85948359Y-99543080D01*
X85823175Y-99805901D01*
X85778524Y-99953110D01*
X85899845Y-100183000D01*
X87093000Y-100183000D01*
X87093000Y-100163000D01*
X87347000Y-100163000D01*
X87347000Y-100183000D01*
X88540155Y-100183000D01*
X88661476Y-99953110D01*
X88616825Y-99805901D01*
X88491641Y-99543080D01*
X88317588Y-99309731D01*
X88101355Y-99114822D01*
X87984477Y-99045201D01*
X88049014Y-99010706D01*
X88275134Y-98825134D01*
X88460706Y-98599014D01*
X88598599Y-98341034D01*
X88683513Y-98061111D01*
X88712185Y-97770000D01*
X88683513Y-97478889D01*
X88598599Y-97198966D01*
X88460706Y-96940986D01*
X88275134Y-96714866D01*
X88049014Y-96529294D01*
X87994209Y-96500000D01*
X88049014Y-96470706D01*
X88275134Y-96285134D01*
X88460706Y-96059014D01*
X88598599Y-95801034D01*
X88683513Y-95521111D01*
X88712185Y-95230000D01*
X88683513Y-94938889D01*
X88598599Y-94658966D01*
X88460706Y-94400986D01*
X88275134Y-94174866D01*
X88049014Y-93989294D01*
X87994209Y-93960000D01*
X88049014Y-93930706D01*
X88275134Y-93745134D01*
X88460706Y-93519014D01*
X88598599Y-93261034D01*
X88683513Y-92981111D01*
X88712185Y-92690000D01*
X88683513Y-92398889D01*
X88598599Y-92118966D01*
X88460706Y-91860986D01*
X88275134Y-91634866D01*
X88049014Y-91449294D01*
X87994209Y-91420000D01*
X88049014Y-91390706D01*
X88275134Y-91205134D01*
X88460706Y-90979014D01*
X88598599Y-90721034D01*
X88683513Y-90441111D01*
X88712185Y-90150000D01*
X88683513Y-89858889D01*
X88660797Y-89784004D01*
X90611004Y-87833798D01*
X90640001Y-87810001D01*
X90681868Y-87758986D01*
X90734974Y-87694277D01*
X90805546Y-87562247D01*
X90805546Y-87562246D01*
X90849003Y-87418986D01*
X90860000Y-87307333D01*
X90860000Y-87307324D01*
X90863676Y-87270001D01*
X90860000Y-87232678D01*
X90860000Y-84683110D01*
X108678524Y-84683110D01*
X108799845Y-84913000D01*
X109993000Y-84913000D01*
X109993000Y-83719186D01*
X110247000Y-83719186D01*
X110247000Y-84913000D01*
X111440155Y-84913000D01*
X111561476Y-84683110D01*
X111516825Y-84535901D01*
X111391641Y-84273080D01*
X111217588Y-84039731D01*
X111001355Y-83844822D01*
X110751252Y-83695843D01*
X110476891Y-83598519D01*
X110247000Y-83719186D01*
X109993000Y-83719186D01*
X109763109Y-83598519D01*
X109488748Y-83695843D01*
X109238645Y-83844822D01*
X109022412Y-84039731D01*
X108848359Y-84273080D01*
X108723175Y-84535901D01*
X108678524Y-84683110D01*
X90860000Y-84683110D01*
X90860000Y-84537322D01*
X90863676Y-84499999D01*
X90860000Y-84462676D01*
X90860000Y-84462667D01*
X90849003Y-84351014D01*
X90805546Y-84207753D01*
X90734974Y-84075723D01*
X90663799Y-83988997D01*
X90640001Y-83959999D01*
X90611003Y-83936201D01*
X88963804Y-82289003D01*
X88940001Y-82259999D01*
X88824276Y-82165026D01*
X88692247Y-82094454D01*
X88548986Y-82050997D01*
X88437333Y-82040000D01*
X88437322Y-82040000D01*
X88400000Y-82036324D01*
X88362678Y-82040000D01*
X72637332Y-82040000D01*
X72599999Y-82036323D01*
X72562666Y-82040000D01*
X72451013Y-82050997D01*
X72307752Y-82094454D01*
X72175723Y-82165026D01*
X72059998Y-82259999D01*
X72036200Y-82288997D01*
X60760199Y-93564999D01*
X60698061Y-93564999D01*
X60498102Y-93604773D01*
X60309744Y-93682794D01*
X60140226Y-93796062D01*
X59996063Y-93940225D01*
X59882795Y-94109743D01*
X59804774Y-94298101D01*
X59765000Y-94498060D01*
X59765000Y-94701938D01*
X59804774Y-94901897D01*
X59882795Y-95090255D01*
X59996063Y-95259773D01*
X60140226Y-95403936D01*
X60309744Y-95517204D01*
X60320639Y-95521717D01*
X56289002Y-99553354D01*
X56259998Y-99577157D01*
X56204870Y-99644332D01*
X56165025Y-99692882D01*
X56105096Y-99805000D01*
X56094453Y-99824912D01*
X56050996Y-99968173D01*
X56039999Y-100079826D01*
X56039999Y-100079836D01*
X56036323Y-100117158D01*
X56039999Y-100154481D01*
X56039999Y-100396290D01*
X55996062Y-100440227D01*
X55882794Y-100609745D01*
X55804773Y-100798103D01*
X55764999Y-100998062D01*
X55764999Y-101201940D01*
X55804773Y-101401899D01*
X55882794Y-101590257D01*
X55952784Y-101695005D01*
X55801939Y-101665000D01*
X55598061Y-101665000D01*
X55398102Y-101704774D01*
X55209744Y-101782795D01*
X55040226Y-101896063D01*
X54896063Y-102040226D01*
X54782795Y-102209744D01*
X54704774Y-102398102D01*
X54665000Y-102598061D01*
X36360000Y-102598061D01*
X36360000Y-68350000D01*
X43236807Y-68350000D01*
X43240001Y-68382429D01*
X43240000Y-78517581D01*
X43236807Y-78550000D01*
X43249550Y-78679383D01*
X43287290Y-78803793D01*
X43348575Y-78918450D01*
X43431052Y-79018948D01*
X43531550Y-79101425D01*
X43646207Y-79162710D01*
X43770617Y-79200450D01*
X43900000Y-79213193D01*
X43932419Y-79210000D01*
X110067581Y-79210000D01*
X110100000Y-79213193D01*
X110132419Y-79210000D01*
X110229383Y-79200450D01*
X110353793Y-79162710D01*
X110468450Y-79101425D01*
X110568948Y-79018948D01*
X110651425Y-78918450D01*
X110712710Y-78803793D01*
X110750450Y-78679383D01*
X110763193Y-78550000D01*
X110760000Y-78517581D01*
X110760000Y-68382419D01*
X110763193Y-68350000D01*
X110750450Y-68220617D01*
X110712710Y-68096207D01*
X110651425Y-67981550D01*
X110568948Y-67881052D01*
X110468450Y-67798575D01*
X110353793Y-67737290D01*
X110229383Y-67699550D01*
X110132419Y-67690000D01*
X110100000Y-67686807D01*
X110067581Y-67690000D01*
X43932419Y-67690000D01*
X43900000Y-67686807D01*
X43867581Y-67690000D01*
X43770617Y-67699550D01*
X43646207Y-67737290D01*
X43531550Y-67798575D01*
X43431052Y-67881052D01*
X43348575Y-67981550D01*
X43287290Y-68096207D01*
X43249550Y-68220617D01*
X43236807Y-68350000D01*
X36360000Y-68350000D01*
X36360000Y-51380000D01*
X93607815Y-51380000D01*
X93636487Y-51671111D01*
X93721401Y-51951034D01*
X93859294Y-52209014D01*
X94044866Y-52435134D01*
X94270986Y-52620706D01*
X94325791Y-52650000D01*
X94270986Y-52679294D01*
X94044866Y-52864866D01*
X93859294Y-53090986D01*
X93721401Y-53348966D01*
X93636487Y-53628889D01*
X93607815Y-53920000D01*
X93636487Y-54211111D01*
X93721401Y-54491034D01*
X93859294Y-54749014D01*
X94044866Y-54975134D01*
X94270986Y-55160706D01*
X94325791Y-55190000D01*
X94270986Y-55219294D01*
X94044866Y-55404866D01*
X93859294Y-55630986D01*
X93721401Y-55888966D01*
X93636487Y-56168889D01*
X93607815Y-56460000D01*
X93636487Y-56751111D01*
X93721401Y-57031034D01*
X93859294Y-57289014D01*
X94044866Y-57515134D01*
X94074687Y-57539607D01*
X94005820Y-57560498D01*
X93895506Y-57619463D01*
X93798815Y-57698815D01*
X93719463Y-57795506D01*
X93660498Y-57905820D01*
X93624188Y-58025518D01*
X93611928Y-58150000D01*
X93611928Y-59850000D01*
X93624188Y-59974482D01*
X93660498Y-60094180D01*
X93719463Y-60204494D01*
X93798815Y-60301185D01*
X93895506Y-60380537D01*
X94005820Y-60439502D01*
X94125518Y-60475812D01*
X94250000Y-60488072D01*
X95950000Y-60488072D01*
X96074482Y-60475812D01*
X96194180Y-60439502D01*
X96304494Y-60380537D01*
X96401185Y-60301185D01*
X96480537Y-60204494D01*
X96539502Y-60094180D01*
X96575812Y-59974482D01*
X96588072Y-59850000D01*
X108511928Y-59850000D01*
X108524188Y-59974482D01*
X108560498Y-60094180D01*
X108619463Y-60204494D01*
X108698815Y-60301185D01*
X108795506Y-60380537D01*
X108905820Y-60439502D01*
X109025518Y-60475812D01*
X109150000Y-60488072D01*
X109714250Y-60485000D01*
X109873000Y-60326250D01*
X109873000Y-59127000D01*
X110127000Y-59127000D01*
X110127000Y-60326250D01*
X110285750Y-60485000D01*
X110850000Y-60488072D01*
X110974482Y-60475812D01*
X111094180Y-60439502D01*
X111204494Y-60380537D01*
X111301185Y-60301185D01*
X111380537Y-60204494D01*
X111439502Y-60094180D01*
X111475812Y-59974482D01*
X111488072Y-59850000D01*
X111485000Y-59285750D01*
X111326250Y-59127000D01*
X110127000Y-59127000D01*
X109873000Y-59127000D01*
X108673750Y-59127000D01*
X108515000Y-59285750D01*
X108511928Y-59850000D01*
X96588072Y-59850000D01*
X96588072Y-58150000D01*
X96575812Y-58025518D01*
X96539502Y-57905820D01*
X96480537Y-57795506D01*
X96401185Y-57698815D01*
X96304494Y-57619463D01*
X96194180Y-57560498D01*
X96125313Y-57539607D01*
X96155134Y-57515134D01*
X96340706Y-57289014D01*
X96478599Y-57031034D01*
X96563513Y-56751111D01*
X96592185Y-56460000D01*
X96563513Y-56168889D01*
X96478599Y-55888966D01*
X96340706Y-55630986D01*
X96155134Y-55404866D01*
X95929014Y-55219294D01*
X95874209Y-55190000D01*
X95929014Y-55160706D01*
X96155134Y-54975134D01*
X96340706Y-54749014D01*
X96478599Y-54491034D01*
X96563513Y-54211111D01*
X96592185Y-53920000D01*
X96563513Y-53628889D01*
X96478599Y-53348966D01*
X96340706Y-53090986D01*
X96155134Y-52864866D01*
X95929014Y-52679294D01*
X95874209Y-52650000D01*
X95929014Y-52620706D01*
X96155134Y-52435134D01*
X96340706Y-52209014D01*
X96478599Y-51951034D01*
X96563513Y-51671111D01*
X96592185Y-51380000D01*
X96563513Y-51088889D01*
X96478599Y-50808966D01*
X96340706Y-50550986D01*
X96155134Y-50324866D01*
X95929014Y-50139294D01*
X95671034Y-50001401D01*
X95391111Y-49916487D01*
X95172950Y-49895000D01*
X95027050Y-49895000D01*
X94808889Y-49916487D01*
X94528966Y-50001401D01*
X94270986Y-50139294D01*
X94044866Y-50324866D01*
X93859294Y-50550986D01*
X93721401Y-50808966D01*
X93636487Y-51088889D01*
X93607815Y-51380000D01*
X36360000Y-51380000D01*
X36360000Y-46525000D01*
X43936928Y-46525000D01*
X43949188Y-46649482D01*
X43985498Y-46769180D01*
X44044463Y-46879494D01*
X44123815Y-46976185D01*
X44220506Y-47055537D01*
X44330820Y-47114502D01*
X44450518Y-47150812D01*
X44575000Y-47163072D01*
X44714250Y-47160000D01*
X44873000Y-47001250D01*
X44873000Y-46227000D01*
X45127000Y-46227000D01*
X45127000Y-47001250D01*
X45285750Y-47160000D01*
X45425000Y-47163072D01*
X45549482Y-47150812D01*
X45669180Y-47114502D01*
X45779494Y-47055537D01*
X45876185Y-46976185D01*
X45955537Y-46879494D01*
X46014502Y-46769180D01*
X46050812Y-46649482D01*
X46063072Y-46525000D01*
X46060866Y-46425000D01*
X108936928Y-46425000D01*
X108949188Y-46549482D01*
X108985498Y-46669180D01*
X109044463Y-46779494D01*
X109123815Y-46876185D01*
X109220506Y-46955537D01*
X109330820Y-47014502D01*
X109450518Y-47050812D01*
X109575000Y-47063072D01*
X109714250Y-47060000D01*
X109873000Y-46901250D01*
X109873000Y-46127000D01*
X110127000Y-46127000D01*
X110127000Y-46901250D01*
X110285750Y-47060000D01*
X110425000Y-47063072D01*
X110549482Y-47050812D01*
X110669180Y-47014502D01*
X110779494Y-46955537D01*
X110876185Y-46876185D01*
X110955537Y-46779494D01*
X111014502Y-46669180D01*
X111050812Y-46549482D01*
X111063072Y-46425000D01*
X111060000Y-46285750D01*
X110901250Y-46127000D01*
X110127000Y-46127000D01*
X109873000Y-46127000D01*
X109098750Y-46127000D01*
X108940000Y-46285750D01*
X108936928Y-46425000D01*
X46060866Y-46425000D01*
X46060000Y-46385750D01*
X45901250Y-46227000D01*
X45127000Y-46227000D01*
X44873000Y-46227000D01*
X44098750Y-46227000D01*
X43940000Y-46385750D01*
X43936928Y-46525000D01*
X36360000Y-46525000D01*
X36360000Y-45675000D01*
X43936928Y-45675000D01*
X43940000Y-45814250D01*
X44098750Y-45973000D01*
X44873000Y-45973000D01*
X44873000Y-45953000D01*
X45127000Y-45953000D01*
X45127000Y-45973000D01*
X45901250Y-45973000D01*
X46060000Y-45814250D01*
X46063072Y-45675000D01*
X46053224Y-45575000D01*
X108936928Y-45575000D01*
X108940000Y-45714250D01*
X109098750Y-45873000D01*
X109873000Y-45873000D01*
X109873000Y-45853000D01*
X110127000Y-45853000D01*
X110127000Y-45873000D01*
X110901250Y-45873000D01*
X111060000Y-45714250D01*
X111063072Y-45575000D01*
X111050812Y-45450518D01*
X111014502Y-45330820D01*
X110955537Y-45220506D01*
X110953483Y-45218003D01*
X111019265Y-45059191D01*
X111060000Y-44854401D01*
X111060000Y-44645599D01*
X111019265Y-44440809D01*
X110939360Y-44247902D01*
X110857240Y-44125000D01*
X110939360Y-44002098D01*
X111019265Y-43809191D01*
X111060000Y-43604401D01*
X111060000Y-43395599D01*
X111019265Y-43190809D01*
X110939360Y-42997902D01*
X110857240Y-42875000D01*
X110939360Y-42752098D01*
X111019265Y-42559191D01*
X111060000Y-42354401D01*
X111060000Y-42145599D01*
X111019265Y-41940809D01*
X110939360Y-41747902D01*
X110823356Y-41574289D01*
X110675711Y-41426644D01*
X110502098Y-41310640D01*
X110309191Y-41230735D01*
X110104401Y-41190000D01*
X109895599Y-41190000D01*
X109690809Y-41230735D01*
X109497902Y-41310640D01*
X109324289Y-41426644D01*
X109176644Y-41574289D01*
X109060640Y-41747902D01*
X108980735Y-41940809D01*
X108940000Y-42145599D01*
X108940000Y-42354401D01*
X108980735Y-42559191D01*
X109060640Y-42752098D01*
X109142760Y-42875000D01*
X109060640Y-42997902D01*
X108980735Y-43190809D01*
X108940000Y-43395599D01*
X108940000Y-43604401D01*
X108980735Y-43809191D01*
X109060640Y-44002098D01*
X109142760Y-44125000D01*
X109060640Y-44247902D01*
X108980735Y-44440809D01*
X108940000Y-44645599D01*
X108940000Y-44854401D01*
X108980735Y-45059191D01*
X109046517Y-45218003D01*
X109044463Y-45220506D01*
X108985498Y-45330820D01*
X108949188Y-45450518D01*
X108936928Y-45575000D01*
X46053224Y-45575000D01*
X46050812Y-45550518D01*
X46014502Y-45430820D01*
X45955537Y-45320506D01*
X45953483Y-45318003D01*
X46019265Y-45159191D01*
X46060000Y-44954401D01*
X46060000Y-44745599D01*
X46019265Y-44540809D01*
X45939360Y-44347902D01*
X45857240Y-44225000D01*
X45939360Y-44102098D01*
X46019265Y-43909191D01*
X46060000Y-43704401D01*
X46060000Y-43495599D01*
X46019265Y-43290809D01*
X45939360Y-43097902D01*
X45857240Y-42975000D01*
X45939360Y-42852098D01*
X46019265Y-42659191D01*
X46060000Y-42454401D01*
X46060000Y-42245599D01*
X46019265Y-42040809D01*
X45939360Y-41847902D01*
X45823356Y-41674289D01*
X45675711Y-41526644D01*
X45502098Y-41410640D01*
X45309191Y-41330735D01*
X45104401Y-41290000D01*
X44895599Y-41290000D01*
X44690809Y-41330735D01*
X44497902Y-41410640D01*
X44324289Y-41526644D01*
X44176644Y-41674289D01*
X44060640Y-41847902D01*
X43980735Y-42040809D01*
X43940000Y-42245599D01*
X43940000Y-42454401D01*
X43980735Y-42659191D01*
X44060640Y-42852098D01*
X44142760Y-42975000D01*
X44060640Y-43097902D01*
X43980735Y-43290809D01*
X43940000Y-43495599D01*
X43940000Y-43704401D01*
X43980735Y-43909191D01*
X44060640Y-44102098D01*
X44142760Y-44225000D01*
X44060640Y-44347902D01*
X43980735Y-44540809D01*
X43940000Y-44745599D01*
X43940000Y-44954401D01*
X43980735Y-45159191D01*
X44046517Y-45318003D01*
X44044463Y-45320506D01*
X43985498Y-45430820D01*
X43949188Y-45550518D01*
X43936928Y-45675000D01*
X36360000Y-45675000D01*
X36360000Y-38016473D01*
X36464886Y-38173446D01*
X36901554Y-38610114D01*
X37415021Y-38953201D01*
X37985554Y-39189524D01*
X38591229Y-39310000D01*
X39208771Y-39310000D01*
X39814446Y-39189524D01*
X40384979Y-38953201D01*
X40898446Y-38610114D01*
X41335114Y-38173446D01*
X41678201Y-37659979D01*
X41914524Y-37089446D01*
X42035000Y-36483771D01*
X42035000Y-35866229D01*
X41914524Y-35260554D01*
X41678201Y-34690021D01*
X41335114Y-34176554D01*
X40898446Y-33739886D01*
X40704057Y-33610000D01*
X113258527Y-33610000D01*
X113101554Y-33714886D01*
X113101554Y-33714886D01*
G37*
X113101554Y-33714886D02*
X112664886Y-34151554D01*
X112321799Y-34665021D01*
X112085476Y-35235554D01*
X111965000Y-35841229D01*
X111965000Y-36458771D01*
X112085476Y-37064446D01*
X112321799Y-37634979D01*
X112664886Y-38148446D01*
X113101554Y-38585114D01*
X113615021Y-38928201D01*
X114185554Y-39164524D01*
X114791229Y-39285000D01*
X115408771Y-39285000D01*
X116014446Y-39164524D01*
X116584979Y-38928201D01*
X117098446Y-38585114D01*
X117535114Y-38148446D01*
X117640000Y-37991473D01*
X117640001Y-125908529D01*
X117535114Y-125751554D01*
X117098446Y-125314886D01*
X116584979Y-124971799D01*
X116014446Y-124735476D01*
X115408771Y-124615000D01*
X114791229Y-124615000D01*
X114185554Y-124735476D01*
X113615021Y-124971799D01*
X113101554Y-125314886D01*
X112664886Y-125751554D01*
X112321799Y-126265021D01*
X112085476Y-126835554D01*
X111965000Y-127441229D01*
X111965000Y-128058771D01*
X112085476Y-128664446D01*
X112321799Y-129234979D01*
X112664886Y-129748446D01*
X113101554Y-130185114D01*
X113258527Y-130290000D01*
X40741473Y-130290000D01*
X40898446Y-130185114D01*
X41335114Y-129748446D01*
X41678201Y-129234979D01*
X41914524Y-128664446D01*
X42035000Y-128058771D01*
X42035000Y-127441229D01*
X41914524Y-126835554D01*
X41678201Y-126265021D01*
X41335114Y-125751554D01*
X40898446Y-125314886D01*
X40384979Y-124971799D01*
X39814446Y-124735476D01*
X39208771Y-124615000D01*
X38591229Y-124615000D01*
X37985554Y-124735476D01*
X37415021Y-124971799D01*
X36901554Y-125314886D01*
X36464886Y-125751554D01*
X36360000Y-125908527D01*
X36360000Y-114495599D01*
X75690000Y-114495599D01*
X75690000Y-114704401D01*
X75730735Y-114909191D01*
X75810640Y-115102098D01*
X75926644Y-115275711D01*
X76074289Y-115423356D01*
X76247902Y-115539360D01*
X76440809Y-115619265D01*
X76645599Y-115660000D01*
X76854401Y-115660000D01*
X77059191Y-115619265D01*
X77252098Y-115539360D01*
X77375000Y-115457240D01*
X77497902Y-115539360D01*
X77690809Y-115619265D01*
X77895599Y-115660000D01*
X78104401Y-115660000D01*
X78309191Y-115619265D01*
X78502098Y-115539360D01*
X78625000Y-115457240D01*
X78747902Y-115539360D01*
X78940809Y-115619265D01*
X79145599Y-115660000D01*
X79354401Y-115660000D01*
X79559191Y-115619265D01*
X79718003Y-115553483D01*
X79720506Y-115555537D01*
X79830820Y-115614502D01*
X79950518Y-115650812D01*
X80075000Y-115663072D01*
X80214250Y-115660000D01*
X80373000Y-115501250D01*
X80373000Y-114727000D01*
X80627000Y-114727000D01*
X80627000Y-115501250D01*
X80785750Y-115660000D01*
X80925000Y-115663072D01*
X81049482Y-115650812D01*
X81169180Y-115614502D01*
X81279494Y-115555537D01*
X81376185Y-115476185D01*
X81455537Y-115379494D01*
X81514502Y-115269180D01*
X81550812Y-115149482D01*
X81563072Y-115025000D01*
X81560000Y-114885750D01*
X81401250Y-114727000D01*
X80627000Y-114727000D01*
X80373000Y-114727000D01*
X80353000Y-114727000D01*
X80353000Y-114473000D01*
X80373000Y-114473000D01*
X80373000Y-113698750D01*
X80627000Y-113698750D01*
X80627000Y-114473000D01*
X81401250Y-114473000D01*
X81560000Y-114314250D01*
X81563072Y-114175000D01*
X81550812Y-114050518D01*
X81514502Y-113930820D01*
X81455537Y-113820506D01*
X81376185Y-113723815D01*
X81279494Y-113644463D01*
X81169180Y-113585498D01*
X81049482Y-113549188D01*
X80925000Y-113536928D01*
X80785750Y-113540000D01*
X80627000Y-113698750D01*
X80373000Y-113698750D01*
X80214250Y-113540000D01*
X80075000Y-113536928D01*
X79950518Y-113549188D01*
X79830820Y-113585498D01*
X79720506Y-113644463D01*
X79718003Y-113646517D01*
X79559191Y-113580735D01*
X79354401Y-113540000D01*
X79145599Y-113540000D01*
X78940809Y-113580735D01*
X78747902Y-113660640D01*
X78625000Y-113742760D01*
X78502098Y-113660640D01*
X78309191Y-113580735D01*
X78104401Y-113540000D01*
X77895599Y-113540000D01*
X77690809Y-113580735D01*
X77497902Y-113660640D01*
X77375000Y-113742760D01*
X77252098Y-113660640D01*
X77059191Y-113580735D01*
X76854401Y-113540000D01*
X76645599Y-113540000D01*
X76440809Y-113580735D01*
X76247902Y-113660640D01*
X76074289Y-113776644D01*
X75926644Y-113924289D01*
X75810640Y-114097902D01*
X75730735Y-114290809D01*
X75690000Y-114495599D01*
X36360000Y-114495599D01*
X36360000Y-102598061D01*
X54665000Y-102598061D01*
X54665000Y-102801939D01*
X54704774Y-103001898D01*
X54782795Y-103190256D01*
X54896063Y-103359774D01*
X55040226Y-103503937D01*
X55209744Y-103617205D01*
X55398102Y-103695226D01*
X55598061Y-103735000D01*
X55801939Y-103735000D01*
X56001898Y-103695226D01*
X56190256Y-103617205D01*
X56359774Y-103503937D01*
X56403711Y-103460000D01*
X57035680Y-103460000D01*
X57073002Y-103463676D01*
X57110324Y-103460000D01*
X57110335Y-103460000D01*
X57221988Y-103449003D01*
X57365249Y-103405546D01*
X57497278Y-103334974D01*
X57613003Y-103240001D01*
X57636806Y-103210998D01*
X58636005Y-102211799D01*
X58665002Y-102188002D01*
X58759975Y-102072277D01*
X58830547Y-101940248D01*
X58874004Y-101796987D01*
X58885001Y-101685334D01*
X58885001Y-101685325D01*
X58888677Y-101648002D01*
X58885001Y-101610679D01*
X58885001Y-100189800D01*
X60840000Y-98234801D01*
X60840000Y-101716033D01*
X60790256Y-101682795D01*
X60601898Y-101604774D01*
X60401939Y-101565000D01*
X60198061Y-101565000D01*
X59998102Y-101604774D01*
X59809744Y-101682795D01*
X59640226Y-101796063D01*
X59496063Y-101940226D01*
X59382795Y-102109744D01*
X59304774Y-102298102D01*
X59265000Y-102498061D01*
X59265000Y-102701939D01*
X59304774Y-102901898D01*
X59382795Y-103090256D01*
X59496063Y-103259774D01*
X59540000Y-103303711D01*
X59540001Y-107262668D01*
X59536324Y-107300000D01*
X59550998Y-107448985D01*
X59594454Y-107592246D01*
X59665026Y-107724276D01*
X59736201Y-107811002D01*
X59760000Y-107840001D01*
X59788998Y-107863799D01*
X63836200Y-111911002D01*
X63859999Y-111940001D01*
X63888997Y-111963799D01*
X63975724Y-112034974D01*
X64107753Y-112105546D01*
X64251014Y-112149003D01*
X64400000Y-112163677D01*
X64437333Y-112160000D01*
X80585199Y-112160000D01*
X89636201Y-121211003D01*
X89659999Y-121240001D01*
X89688997Y-121263799D01*
X89775723Y-121334974D01*
X89907753Y-121405546D01*
X90051014Y-121449003D01*
X90162667Y-121460000D01*
X90162676Y-121460000D01*
X90199999Y-121463676D01*
X90237322Y-121460000D01*
X104962678Y-121460000D01*
X105000000Y-121463676D01*
X105037322Y-121460000D01*
X105037333Y-121460000D01*
X105148986Y-121449003D01*
X105292247Y-121405546D01*
X105424276Y-121334974D01*
X105540001Y-121240001D01*
X105563804Y-121210997D01*
X109511003Y-117263799D01*
X109540001Y-117240001D01*
X109634974Y-117124276D01*
X109705546Y-116992247D01*
X109749003Y-116848986D01*
X109760000Y-116737333D01*
X109760000Y-116737324D01*
X109763676Y-116700001D01*
X109760000Y-116662678D01*
X109760000Y-115565957D01*
X109779494Y-115555537D01*
X109876185Y-115476185D01*
X109955537Y-115379494D01*
X110014502Y-115269180D01*
X110050812Y-115149482D01*
X110063072Y-115025000D01*
X110063072Y-114175000D01*
X110050812Y-114050518D01*
X110014502Y-113930820D01*
X109955537Y-113820506D01*
X109876185Y-113723815D01*
X109779494Y-113644463D01*
X109669180Y-113585498D01*
X109549482Y-113549188D01*
X109425000Y-113536928D01*
X108575000Y-113536928D01*
X108450518Y-113549188D01*
X108330820Y-113585498D01*
X108220506Y-113644463D01*
X108218003Y-113646517D01*
X108059191Y-113580735D01*
X107854401Y-113540000D01*
X107645599Y-113540000D01*
X107440809Y-113580735D01*
X107247902Y-113660640D01*
X107125000Y-113742760D01*
X107002098Y-113660640D01*
X106809191Y-113580735D01*
X106604401Y-113540000D01*
X106395599Y-113540000D01*
X106190809Y-113580735D01*
X105997902Y-113660640D01*
X105875000Y-113742760D01*
X105752098Y-113660640D01*
X105559191Y-113580735D01*
X105354401Y-113540000D01*
X105145599Y-113540000D01*
X104960000Y-113576918D01*
X104960000Y-95962667D01*
X104958752Y-95950000D01*
X104960000Y-95937333D01*
X104960000Y-91914801D01*
X105994802Y-90880000D01*
X108842405Y-90880000D01*
X108879294Y-90949014D01*
X109064866Y-91175134D01*
X109290986Y-91360706D01*
X109345791Y-91390000D01*
X109290986Y-91419294D01*
X109064866Y-91604866D01*
X108879294Y-91830986D01*
X108741401Y-92088966D01*
X108656487Y-92368889D01*
X108627815Y-92660000D01*
X108656487Y-92951111D01*
X108741401Y-93231034D01*
X108879294Y-93489014D01*
X109064866Y-93715134D01*
X109290986Y-93900706D01*
X109345791Y-93930000D01*
X109290986Y-93959294D01*
X109064866Y-94144866D01*
X108879294Y-94370986D01*
X108741401Y-94628966D01*
X108656487Y-94908889D01*
X108627815Y-95200000D01*
X108656487Y-95491111D01*
X108741401Y-95771034D01*
X108879294Y-96029014D01*
X109064866Y-96255134D01*
X109290986Y-96440706D01*
X109345791Y-96470000D01*
X109290986Y-96499294D01*
X109064866Y-96684866D01*
X108879294Y-96910986D01*
X108741401Y-97168966D01*
X108656487Y-97448889D01*
X108627815Y-97740000D01*
X108656487Y-98031111D01*
X108741401Y-98311034D01*
X108879294Y-98569014D01*
X109064866Y-98795134D01*
X109094687Y-98819607D01*
X109025820Y-98840498D01*
X108915506Y-98899463D01*
X108818815Y-98978815D01*
X108739463Y-99075506D01*
X108680498Y-99185820D01*
X108644188Y-99305518D01*
X108631928Y-99430000D01*
X108631928Y-101130000D01*
X108644188Y-101254482D01*
X108680498Y-101374180D01*
X108739463Y-101484494D01*
X108818815Y-101581185D01*
X108915506Y-101660537D01*
X109025820Y-101719502D01*
X109145518Y-101755812D01*
X109270000Y-101768072D01*
X110970000Y-101768072D01*
X111094482Y-101755812D01*
X111214180Y-101719502D01*
X111324494Y-101660537D01*
X111421185Y-101581185D01*
X111500537Y-101484494D01*
X111559502Y-101374180D01*
X111595812Y-101254482D01*
X111608072Y-101130000D01*
X111608072Y-99430000D01*
X111595812Y-99305518D01*
X111559502Y-99185820D01*
X111500537Y-99075506D01*
X111421185Y-98978815D01*
X111324494Y-98899463D01*
X111214180Y-98840498D01*
X111145313Y-98819607D01*
X111175134Y-98795134D01*
X111360706Y-98569014D01*
X111498599Y-98311034D01*
X111583513Y-98031111D01*
X111612185Y-97740000D01*
X111583513Y-97448889D01*
X111498599Y-97168966D01*
X111360706Y-96910986D01*
X111175134Y-96684866D01*
X110949014Y-96499294D01*
X110894209Y-96470000D01*
X110949014Y-96440706D01*
X111175134Y-96255134D01*
X111360706Y-96029014D01*
X111498599Y-95771034D01*
X111583513Y-95491111D01*
X111612185Y-95200000D01*
X111583513Y-94908889D01*
X111498599Y-94628966D01*
X111360706Y-94370986D01*
X111175134Y-94144866D01*
X110949014Y-93959294D01*
X110894209Y-93930000D01*
X110949014Y-93900706D01*
X111175134Y-93715134D01*
X111360706Y-93489014D01*
X111498599Y-93231034D01*
X111583513Y-92951111D01*
X111612185Y-92660000D01*
X111583513Y-92368889D01*
X111498599Y-92088966D01*
X111360706Y-91830986D01*
X111175134Y-91604866D01*
X110949014Y-91419294D01*
X110894209Y-91390000D01*
X110949014Y-91360706D01*
X111175134Y-91175134D01*
X111360706Y-90949014D01*
X111498599Y-90691034D01*
X111583513Y-90411111D01*
X111612185Y-90120000D01*
X111583513Y-89828889D01*
X111498599Y-89548966D01*
X111360706Y-89290986D01*
X111175134Y-89064866D01*
X110949014Y-88879294D01*
X110894209Y-88850000D01*
X110949014Y-88820706D01*
X111175134Y-88635134D01*
X111360706Y-88409014D01*
X111397595Y-88340000D01*
X113882678Y-88340000D01*
X113920000Y-88343676D01*
X113957322Y-88340000D01*
X113957333Y-88340000D01*
X114068986Y-88329003D01*
X114212247Y-88285546D01*
X114344276Y-88214974D01*
X114460001Y-88120001D01*
X114483804Y-88090997D01*
X116111004Y-86463798D01*
X116140001Y-86440001D01*
X116234974Y-86324276D01*
X116305546Y-86192247D01*
X116349003Y-86048986D01*
X116360000Y-85937333D01*
X116360000Y-85937325D01*
X116363676Y-85900000D01*
X116360000Y-85862675D01*
X116360000Y-59237322D01*
X116363676Y-59199999D01*
X116360000Y-59162676D01*
X116360000Y-59162667D01*
X116349003Y-59051014D01*
X116305546Y-58907753D01*
X116234974Y-58775724D01*
X116140001Y-58659999D01*
X116111003Y-58636201D01*
X113423804Y-55949003D01*
X113400001Y-55919999D01*
X113284276Y-55825026D01*
X113152247Y-55754454D01*
X113008986Y-55710997D01*
X112897333Y-55700000D01*
X112897322Y-55700000D01*
X112860000Y-55696324D01*
X112822678Y-55700000D01*
X111277595Y-55700000D01*
X111240706Y-55630986D01*
X111055134Y-55404866D01*
X110829014Y-55219294D01*
X110774209Y-55190000D01*
X110829014Y-55160706D01*
X111055134Y-54975134D01*
X111240706Y-54749014D01*
X111378599Y-54491034D01*
X111463513Y-54211111D01*
X111492185Y-53920000D01*
X111463513Y-53628889D01*
X111378599Y-53348966D01*
X111240706Y-53090986D01*
X111055134Y-52864866D01*
X110829014Y-52679294D01*
X110774209Y-52650000D01*
X110829014Y-52620706D01*
X111055134Y-52435134D01*
X111240706Y-52209014D01*
X111378599Y-51951034D01*
X111463513Y-51671111D01*
X111492185Y-51380000D01*
X111463513Y-51088889D01*
X111378599Y-50808966D01*
X111240706Y-50550986D01*
X111055134Y-50324866D01*
X110829014Y-50139294D01*
X110571034Y-50001401D01*
X110291111Y-49916487D01*
X110072950Y-49895000D01*
X109927050Y-49895000D01*
X109708889Y-49916487D01*
X109428966Y-50001401D01*
X109170986Y-50139294D01*
X108944866Y-50324866D01*
X108759294Y-50550986D01*
X108621401Y-50808966D01*
X108536487Y-51088889D01*
X108507815Y-51380000D01*
X108536487Y-51671111D01*
X108621401Y-51951034D01*
X108759294Y-52209014D01*
X108944866Y-52435134D01*
X109170986Y-52620706D01*
X109225791Y-52650000D01*
X109170986Y-52679294D01*
X108944866Y-52864866D01*
X108759294Y-53090986D01*
X108621401Y-53348966D01*
X108536487Y-53628889D01*
X108507815Y-53920000D01*
X108536487Y-54211111D01*
X108621401Y-54491034D01*
X108759294Y-54749014D01*
X108944866Y-54975134D01*
X109170986Y-55160706D01*
X109225791Y-55190000D01*
X109170986Y-55219294D01*
X108944866Y-55404866D01*
X108759294Y-55630986D01*
X108621401Y-55888966D01*
X108536487Y-56168889D01*
X108507815Y-56460000D01*
X108536487Y-56751111D01*
X108621401Y-57031034D01*
X108759294Y-57289014D01*
X108944866Y-57515134D01*
X108974687Y-57539607D01*
X108905820Y-57560498D01*
X108795506Y-57619463D01*
X108698815Y-57698815D01*
X108619463Y-57795506D01*
X108560498Y-57905820D01*
X108524188Y-58025518D01*
X108511928Y-58150000D01*
X108515000Y-58714250D01*
X108673750Y-58873000D01*
X109873000Y-58873000D01*
X109873000Y-58853000D01*
X110127000Y-58853000D01*
X110127000Y-58873000D01*
X111326250Y-58873000D01*
X111485000Y-58714250D01*
X111488072Y-58150000D01*
X111475812Y-58025518D01*
X111439502Y-57905820D01*
X111380537Y-57795506D01*
X111301185Y-57698815D01*
X111204494Y-57619463D01*
X111094180Y-57560498D01*
X111025313Y-57539607D01*
X111055134Y-57515134D01*
X111240706Y-57289014D01*
X111277595Y-57220000D01*
X112545199Y-57220000D01*
X114840001Y-59514803D01*
X114840000Y-84737332D01*
X114840001Y-84737340D01*
X114840000Y-85585198D01*
X113605199Y-86820000D01*
X111397595Y-86820000D01*
X111360706Y-86750986D01*
X111175134Y-86524866D01*
X110949014Y-86339294D01*
X110884477Y-86304799D01*
X111001355Y-86235178D01*
X111217588Y-86040269D01*
X111391641Y-85806920D01*
X111516825Y-85544099D01*
X111561476Y-85396890D01*
X111440155Y-85167000D01*
X110247000Y-85167000D01*
X110247000Y-85187000D01*
X109993000Y-85187000D01*
X109993000Y-85167000D01*
X108799845Y-85167000D01*
X108678524Y-85396890D01*
X108723175Y-85544099D01*
X108848359Y-85806920D01*
X109022412Y-86040269D01*
X109238645Y-86235178D01*
X109355523Y-86304799D01*
X109290986Y-86339294D01*
X109064866Y-86524866D01*
X108879294Y-86750986D01*
X108842405Y-86820000D01*
X107657323Y-86820000D01*
X107620000Y-86816324D01*
X107582677Y-86820000D01*
X107582667Y-86820000D01*
X107471014Y-86830997D01*
X107327753Y-86874454D01*
X107195724Y-86945026D01*
X107079999Y-87039999D01*
X107056201Y-87068997D01*
X103288998Y-90836201D01*
X103260000Y-90859999D01*
X103236202Y-90888997D01*
X103236201Y-90888998D01*
X103165026Y-90975724D01*
X103094454Y-91107754D01*
X103068154Y-91194457D01*
X103050998Y-91251014D01*
X103040194Y-91360706D01*
X103036324Y-91400000D01*
X103040001Y-91437332D01*
X103040000Y-95837332D01*
X103040001Y-95837342D01*
X103040000Y-113578299D01*
X102873384Y-113542041D01*
X102664616Y-113538298D01*
X102459130Y-113575356D01*
X102264821Y-113651790D01*
X102231144Y-113669790D01*
X102205219Y-113875614D01*
X102750000Y-114420395D01*
X102764143Y-114406253D01*
X102940000Y-114582110D01*
X102940000Y-114589605D01*
X102929605Y-114600000D01*
X102940000Y-114610395D01*
X102940000Y-114617890D01*
X102764143Y-114793748D01*
X102750000Y-114779605D01*
X102205219Y-115324386D01*
X102231144Y-115530210D01*
X102422588Y-115613560D01*
X102626616Y-115657959D01*
X102835384Y-115661702D01*
X103040870Y-115624644D01*
X103235179Y-115548210D01*
X103268856Y-115530210D01*
X103287011Y-115386078D01*
X103324289Y-115423356D01*
X103497902Y-115539360D01*
X103690809Y-115619265D01*
X103895599Y-115660000D01*
X104104401Y-115660000D01*
X104309191Y-115619265D01*
X104490001Y-115544371D01*
X104490001Y-116035197D01*
X103185199Y-117340000D01*
X92214803Y-117340000D01*
X91631759Y-116756956D01*
X91662667Y-116760000D01*
X91662677Y-116760000D01*
X91700000Y-116763676D01*
X91737323Y-116760000D01*
X94363718Y-116760000D01*
X94401040Y-116763676D01*
X94438362Y-116760000D01*
X94438373Y-116760000D01*
X94550026Y-116749003D01*
X94693287Y-116705546D01*
X94825316Y-116634974D01*
X94941041Y-116540001D01*
X94964843Y-116510998D01*
X95711002Y-115764839D01*
X95740001Y-115741041D01*
X95778234Y-115694454D01*
X95834974Y-115625317D01*
X95898547Y-115506382D01*
X95947902Y-115539360D01*
X96140809Y-115619265D01*
X96345599Y-115660000D01*
X96554401Y-115660000D01*
X96759191Y-115619265D01*
X96918003Y-115553483D01*
X96920506Y-115555537D01*
X97030820Y-115614502D01*
X97150518Y-115650812D01*
X97275000Y-115663072D01*
X97414250Y-115660000D01*
X97573000Y-115501250D01*
X97573000Y-114727000D01*
X97827000Y-114727000D01*
X97827000Y-115501250D01*
X97985750Y-115660000D01*
X98125000Y-115663072D01*
X98249482Y-115650812D01*
X98369180Y-115614502D01*
X98479494Y-115555537D01*
X98576185Y-115476185D01*
X98655537Y-115379494D01*
X98714502Y-115269180D01*
X98750812Y-115149482D01*
X98763072Y-115025000D01*
X98760000Y-114885750D01*
X98601250Y-114727000D01*
X97827000Y-114727000D01*
X97573000Y-114727000D01*
X97553000Y-114727000D01*
X97553000Y-114685384D01*
X101688298Y-114685384D01*
X101725356Y-114890870D01*
X101801790Y-115085179D01*
X101819790Y-115118856D01*
X102025614Y-115144781D01*
X102570395Y-114600000D01*
X102025614Y-114055219D01*
X101819790Y-114081144D01*
X101736440Y-114272588D01*
X101692041Y-114476616D01*
X101688298Y-114685384D01*
X97553000Y-114685384D01*
X97553000Y-114473000D01*
X97573000Y-114473000D01*
X97573000Y-113698750D01*
X97827000Y-113698750D01*
X97827000Y-114473000D01*
X98601250Y-114473000D01*
X98760000Y-114314250D01*
X98763072Y-114175000D01*
X98750812Y-114050518D01*
X98714502Y-113930820D01*
X98655537Y-113820506D01*
X98576185Y-113723815D01*
X98479494Y-113644463D01*
X98369180Y-113585498D01*
X98249482Y-113549188D01*
X98125000Y-113536928D01*
X97985750Y-113540000D01*
X97827000Y-113698750D01*
X97573000Y-113698750D01*
X97414250Y-113540000D01*
X97275000Y-113536928D01*
X97150518Y-113549188D01*
X97081286Y-113570189D01*
X97013799Y-113487957D01*
X96990001Y-113458959D01*
X96961004Y-113435162D01*
X95914844Y-112389002D01*
X95891041Y-112359999D01*
X95775316Y-112265026D01*
X95643287Y-112194454D01*
X95500026Y-112150997D01*
X95388373Y-112140000D01*
X95388362Y-112140000D01*
X95351040Y-112136324D01*
X95313718Y-112140000D01*
X93714802Y-112140000D01*
X82241692Y-100666890D01*
X85778524Y-100666890D01*
X85823175Y-100814099D01*
X85948359Y-101076920D01*
X86122412Y-101310269D01*
X86338645Y-101505178D01*
X86588748Y-101654157D01*
X86863109Y-101751481D01*
X87093000Y-101630814D01*
X87093000Y-100437000D01*
X87347000Y-100437000D01*
X87347000Y-101630814D01*
X87576891Y-101751481D01*
X87851252Y-101654157D01*
X88101355Y-101505178D01*
X88317588Y-101310269D01*
X88491641Y-101076920D01*
X88616825Y-100814099D01*
X88661476Y-100666890D01*
X88540155Y-100437000D01*
X87347000Y-100437000D01*
X87093000Y-100437000D01*
X85899845Y-100437000D01*
X85778524Y-100666890D01*
X82241692Y-100666890D01*
X72193804Y-90619003D01*
X72170001Y-90589999D01*
X72054276Y-90495026D01*
X71922247Y-90424454D01*
X71838072Y-90398920D01*
X71838072Y-90280000D01*
X71825812Y-90155518D01*
X71789502Y-90035820D01*
X71730537Y-89925506D01*
X71651185Y-89828815D01*
X71554494Y-89749463D01*
X71444180Y-89690498D01*
X71324482Y-89654188D01*
X71200000Y-89641928D01*
X69832876Y-89641928D01*
X71104805Y-88370000D01*
X85942405Y-88370000D01*
X85979294Y-88439014D01*
X86164866Y-88665134D01*
X86390986Y-88850706D01*
X86445791Y-88880000D01*
X86390986Y-88909294D01*
X86164866Y-89094866D01*
X85979294Y-89320986D01*
X85841401Y-89578966D01*
X85756487Y-89858889D01*
X85727815Y-90150000D01*
X85756487Y-90441111D01*
X85841401Y-90721034D01*
X85979294Y-90979014D01*
X86164866Y-91205134D01*
X86390986Y-91390706D01*
X86445791Y-91420000D01*
X86390986Y-91449294D01*
X86164866Y-91634866D01*
X85979294Y-91860986D01*
X85841401Y-92118966D01*
X85756487Y-92398889D01*
X85727815Y-92690000D01*
X85756487Y-92981111D01*
X85841401Y-93261034D01*
X85979294Y-93519014D01*
X86164866Y-93745134D01*
X86390986Y-93930706D01*
X86445791Y-93960000D01*
X86390986Y-93989294D01*
X86164866Y-94174866D01*
X85979294Y-94400986D01*
X85841401Y-94658966D01*
X85756487Y-94938889D01*
X85727815Y-95230000D01*
X85756487Y-95521111D01*
X85841401Y-95801034D01*
X85979294Y-96059014D01*
X86164866Y-96285134D01*
X86390986Y-96470706D01*
X86445791Y-96500000D01*
X86390986Y-96529294D01*
X86164866Y-96714866D01*
X85979294Y-96940986D01*
X85841401Y-97198966D01*
X85756487Y-97478889D01*
X85727815Y-97770000D01*
X85756487Y-98061111D01*
X85841401Y-98341034D01*
X85979294Y-98599014D01*
X86164866Y-98825134D01*
X86390986Y-99010706D01*
X86455523Y-99045201D01*
X86338645Y-99114822D01*
X86122412Y-99309731D01*
X85948359Y-99543080D01*
X85823175Y-99805901D01*
X85778524Y-99953110D01*
X85899845Y-100183000D01*
X87093000Y-100183000D01*
X87093000Y-100163000D01*
X87347000Y-100163000D01*
X87347000Y-100183000D01*
X88540155Y-100183000D01*
X88661476Y-99953110D01*
X88616825Y-99805901D01*
X88491641Y-99543080D01*
X88317588Y-99309731D01*
X88101355Y-99114822D01*
X87984477Y-99045201D01*
X88049014Y-99010706D01*
X88275134Y-98825134D01*
X88460706Y-98599014D01*
X88598599Y-98341034D01*
X88683513Y-98061111D01*
X88712185Y-97770000D01*
X88683513Y-97478889D01*
X88598599Y-97198966D01*
X88460706Y-96940986D01*
X88275134Y-96714866D01*
X88049014Y-96529294D01*
X87994209Y-96500000D01*
X88049014Y-96470706D01*
X88275134Y-96285134D01*
X88460706Y-96059014D01*
X88598599Y-95801034D01*
X88683513Y-95521111D01*
X88712185Y-95230000D01*
X88683513Y-94938889D01*
X88598599Y-94658966D01*
X88460706Y-94400986D01*
X88275134Y-94174866D01*
X88049014Y-93989294D01*
X87994209Y-93960000D01*
X88049014Y-93930706D01*
X88275134Y-93745134D01*
X88460706Y-93519014D01*
X88598599Y-93261034D01*
X88683513Y-92981111D01*
X88712185Y-92690000D01*
X88683513Y-92398889D01*
X88598599Y-92118966D01*
X88460706Y-91860986D01*
X88275134Y-91634866D01*
X88049014Y-91449294D01*
X87994209Y-91420000D01*
X88049014Y-91390706D01*
X88275134Y-91205134D01*
X88460706Y-90979014D01*
X88598599Y-90721034D01*
X88683513Y-90441111D01*
X88712185Y-90150000D01*
X88683513Y-89858889D01*
X88660797Y-89784004D01*
X90611004Y-87833798D01*
X90640001Y-87810001D01*
X90681868Y-87758986D01*
X90734974Y-87694277D01*
X90805546Y-87562247D01*
X90805546Y-87562246D01*
X90849003Y-87418986D01*
X90860000Y-87307333D01*
X90860000Y-87307324D01*
X90863676Y-87270001D01*
X90860000Y-87232678D01*
X90860000Y-84683110D01*
X108678524Y-84683110D01*
X108799845Y-84913000D01*
X109993000Y-84913000D01*
X109993000Y-83719186D01*
X110247000Y-83719186D01*
X110247000Y-84913000D01*
X111440155Y-84913000D01*
X111561476Y-84683110D01*
X111516825Y-84535901D01*
X111391641Y-84273080D01*
X111217588Y-84039731D01*
X111001355Y-83844822D01*
X110751252Y-83695843D01*
X110476891Y-83598519D01*
X110247000Y-83719186D01*
X109993000Y-83719186D01*
X109763109Y-83598519D01*
X109488748Y-83695843D01*
X109238645Y-83844822D01*
X109022412Y-84039731D01*
X108848359Y-84273080D01*
X108723175Y-84535901D01*
X108678524Y-84683110D01*
X90860000Y-84683110D01*
X90860000Y-84537322D01*
X90863676Y-84499999D01*
X90860000Y-84462676D01*
X90860000Y-84462667D01*
X90849003Y-84351014D01*
X90805546Y-84207753D01*
X90734974Y-84075723D01*
X90663799Y-83988997D01*
X90640001Y-83959999D01*
X90611003Y-83936201D01*
X88963804Y-82289003D01*
X88940001Y-82259999D01*
X88824276Y-82165026D01*
X88692247Y-82094454D01*
X88548986Y-82050997D01*
X88437333Y-82040000D01*
X88437322Y-82040000D01*
X88400000Y-82036324D01*
X88362678Y-82040000D01*
X72637332Y-82040000D01*
X72599999Y-82036323D01*
X72562666Y-82040000D01*
X72451013Y-82050997D01*
X72307752Y-82094454D01*
X72175723Y-82165026D01*
X72059998Y-82259999D01*
X72036200Y-82288997D01*
X60760199Y-93564999D01*
X60698061Y-93564999D01*
X60498102Y-93604773D01*
X60309744Y-93682794D01*
X60140226Y-93796062D01*
X59996063Y-93940225D01*
X59882795Y-94109743D01*
X59804774Y-94298101D01*
X59765000Y-94498060D01*
X59765000Y-94701938D01*
X59804774Y-94901897D01*
X59882795Y-95090255D01*
X59996063Y-95259773D01*
X60140226Y-95403936D01*
X60309744Y-95517204D01*
X60320639Y-95521717D01*
X56289002Y-99553354D01*
X56259998Y-99577157D01*
X56204870Y-99644332D01*
X56165025Y-99692882D01*
X56105096Y-99805000D01*
X56094453Y-99824912D01*
X56050996Y-99968173D01*
X56039999Y-100079826D01*
X56039999Y-100079836D01*
X56036323Y-100117158D01*
X56039999Y-100154481D01*
X56039999Y-100396290D01*
X55996062Y-100440227D01*
X55882794Y-100609745D01*
X55804773Y-100798103D01*
X55764999Y-100998062D01*
X55764999Y-101201940D01*
X55804773Y-101401899D01*
X55882794Y-101590257D01*
X55952784Y-101695005D01*
X55801939Y-101665000D01*
X55598061Y-101665000D01*
X55398102Y-101704774D01*
X55209744Y-101782795D01*
X55040226Y-101896063D01*
X54896063Y-102040226D01*
X54782795Y-102209744D01*
X54704774Y-102398102D01*
X54665000Y-102598061D01*
X36360000Y-102598061D01*
X36360000Y-68350000D01*
X43236807Y-68350000D01*
X43240001Y-68382429D01*
X43240000Y-78517581D01*
X43236807Y-78550000D01*
X43249550Y-78679383D01*
X43287290Y-78803793D01*
X43348575Y-78918450D01*
X43431052Y-79018948D01*
X43531550Y-79101425D01*
X43646207Y-79162710D01*
X43770617Y-79200450D01*
X43900000Y-79213193D01*
X43932419Y-79210000D01*
X110067581Y-79210000D01*
X110100000Y-79213193D01*
X110132419Y-79210000D01*
X110229383Y-79200450D01*
X110353793Y-79162710D01*
X110468450Y-79101425D01*
X110568948Y-79018948D01*
X110651425Y-78918450D01*
X110712710Y-78803793D01*
X110750450Y-78679383D01*
X110763193Y-78550000D01*
X110760000Y-78517581D01*
X110760000Y-68382419D01*
X110763193Y-68350000D01*
X110750450Y-68220617D01*
X110712710Y-68096207D01*
X110651425Y-67981550D01*
X110568948Y-67881052D01*
X110468450Y-67798575D01*
X110353793Y-67737290D01*
X110229383Y-67699550D01*
X110132419Y-67690000D01*
X110100000Y-67686807D01*
X110067581Y-67690000D01*
X43932419Y-67690000D01*
X43900000Y-67686807D01*
X43867581Y-67690000D01*
X43770617Y-67699550D01*
X43646207Y-67737290D01*
X43531550Y-67798575D01*
X43431052Y-67881052D01*
X43348575Y-67981550D01*
X43287290Y-68096207D01*
X43249550Y-68220617D01*
X43236807Y-68350000D01*
X36360000Y-68350000D01*
X36360000Y-51380000D01*
X93607815Y-51380000D01*
X93636487Y-51671111D01*
X93721401Y-51951034D01*
X93859294Y-52209014D01*
X94044866Y-52435134D01*
X94270986Y-52620706D01*
X94325791Y-52650000D01*
X94270986Y-52679294D01*
X94044866Y-52864866D01*
X93859294Y-53090986D01*
X93721401Y-53348966D01*
X93636487Y-53628889D01*
X93607815Y-53920000D01*
X93636487Y-54211111D01*
X93721401Y-54491034D01*
X93859294Y-54749014D01*
X94044866Y-54975134D01*
X94270986Y-55160706D01*
X94325791Y-55190000D01*
X94270986Y-55219294D01*
X94044866Y-55404866D01*
X93859294Y-55630986D01*
X93721401Y-55888966D01*
X93636487Y-56168889D01*
X93607815Y-56460000D01*
X93636487Y-56751111D01*
X93721401Y-57031034D01*
X93859294Y-57289014D01*
X94044866Y-57515134D01*
X94074687Y-57539607D01*
X94005820Y-57560498D01*
X93895506Y-57619463D01*
X93798815Y-57698815D01*
X93719463Y-57795506D01*
X93660498Y-57905820D01*
X93624188Y-58025518D01*
X93611928Y-58150000D01*
X93611928Y-59850000D01*
X93624188Y-59974482D01*
X93660498Y-60094180D01*
X93719463Y-60204494D01*
X93798815Y-60301185D01*
X93895506Y-60380537D01*
X94005820Y-60439502D01*
X94125518Y-60475812D01*
X94250000Y-60488072D01*
X95950000Y-60488072D01*
X96074482Y-60475812D01*
X96194180Y-60439502D01*
X96304494Y-60380537D01*
X96401185Y-60301185D01*
X96480537Y-60204494D01*
X96539502Y-60094180D01*
X96575812Y-59974482D01*
X96588072Y-59850000D01*
X108511928Y-59850000D01*
X108524188Y-59974482D01*
X108560498Y-60094180D01*
X108619463Y-60204494D01*
X108698815Y-60301185D01*
X108795506Y-60380537D01*
X108905820Y-60439502D01*
X109025518Y-60475812D01*
X109150000Y-60488072D01*
X109714250Y-60485000D01*
X109873000Y-60326250D01*
X109873000Y-59127000D01*
X110127000Y-59127000D01*
X110127000Y-60326250D01*
X110285750Y-60485000D01*
X110850000Y-60488072D01*
X110974482Y-60475812D01*
X111094180Y-60439502D01*
X111204494Y-60380537D01*
X111301185Y-60301185D01*
X111380537Y-60204494D01*
X111439502Y-60094180D01*
X111475812Y-59974482D01*
X111488072Y-59850000D01*
X111485000Y-59285750D01*
X111326250Y-59127000D01*
X110127000Y-59127000D01*
X109873000Y-59127000D01*
X108673750Y-59127000D01*
X108515000Y-59285750D01*
X108511928Y-59850000D01*
X96588072Y-59850000D01*
X96588072Y-58150000D01*
X96575812Y-58025518D01*
X96539502Y-57905820D01*
X96480537Y-57795506D01*
X96401185Y-57698815D01*
X96304494Y-57619463D01*
X96194180Y-57560498D01*
X96125313Y-57539607D01*
X96155134Y-57515134D01*
X96340706Y-57289014D01*
X96478599Y-57031034D01*
X96563513Y-56751111D01*
X96592185Y-56460000D01*
X96563513Y-56168889D01*
X96478599Y-55888966D01*
X96340706Y-55630986D01*
X96155134Y-55404866D01*
X95929014Y-55219294D01*
X95874209Y-55190000D01*
X95929014Y-55160706D01*
X96155134Y-54975134D01*
X96340706Y-54749014D01*
X96478599Y-54491034D01*
X96563513Y-54211111D01*
X96592185Y-53920000D01*
X96563513Y-53628889D01*
X96478599Y-53348966D01*
X96340706Y-53090986D01*
X96155134Y-52864866D01*
X95929014Y-52679294D01*
X95874209Y-52650000D01*
X95929014Y-52620706D01*
X96155134Y-52435134D01*
X96340706Y-52209014D01*
X96478599Y-51951034D01*
X96563513Y-51671111D01*
X96592185Y-51380000D01*
X96563513Y-51088889D01*
X96478599Y-50808966D01*
X96340706Y-50550986D01*
X96155134Y-50324866D01*
X95929014Y-50139294D01*
X95671034Y-50001401D01*
X95391111Y-49916487D01*
X95172950Y-49895000D01*
X95027050Y-49895000D01*
X94808889Y-49916487D01*
X94528966Y-50001401D01*
X94270986Y-50139294D01*
X94044866Y-50324866D01*
X93859294Y-50550986D01*
X93721401Y-50808966D01*
X93636487Y-51088889D01*
X93607815Y-51380000D01*
X36360000Y-51380000D01*
X36360000Y-46525000D01*
X43936928Y-46525000D01*
X43949188Y-46649482D01*
X43985498Y-46769180D01*
X44044463Y-46879494D01*
X44123815Y-46976185D01*
X44220506Y-47055537D01*
X44330820Y-47114502D01*
X44450518Y-47150812D01*
X44575000Y-47163072D01*
X44714250Y-47160000D01*
X44873000Y-47001250D01*
X44873000Y-46227000D01*
X45127000Y-46227000D01*
X45127000Y-47001250D01*
X45285750Y-47160000D01*
X45425000Y-47163072D01*
X45549482Y-47150812D01*
X45669180Y-47114502D01*
X45779494Y-47055537D01*
X45876185Y-46976185D01*
X45955537Y-46879494D01*
X46014502Y-46769180D01*
X46050812Y-46649482D01*
X46063072Y-46525000D01*
X46060866Y-46425000D01*
X108936928Y-46425000D01*
X108949188Y-46549482D01*
X108985498Y-46669180D01*
X109044463Y-46779494D01*
X109123815Y-46876185D01*
X109220506Y-46955537D01*
X109330820Y-47014502D01*
X109450518Y-47050812D01*
X109575000Y-47063072D01*
X109714250Y-47060000D01*
X109873000Y-46901250D01*
X109873000Y-46127000D01*
X110127000Y-46127000D01*
X110127000Y-46901250D01*
X110285750Y-47060000D01*
X110425000Y-47063072D01*
X110549482Y-47050812D01*
X110669180Y-47014502D01*
X110779494Y-46955537D01*
X110876185Y-46876185D01*
X110955537Y-46779494D01*
X111014502Y-46669180D01*
X111050812Y-46549482D01*
X111063072Y-46425000D01*
X111060000Y-46285750D01*
X110901250Y-46127000D01*
X110127000Y-46127000D01*
X109873000Y-46127000D01*
X109098750Y-46127000D01*
X108940000Y-46285750D01*
X108936928Y-46425000D01*
X46060866Y-46425000D01*
X46060000Y-46385750D01*
X45901250Y-46227000D01*
X45127000Y-46227000D01*
X44873000Y-46227000D01*
X44098750Y-46227000D01*
X43940000Y-46385750D01*
X43936928Y-46525000D01*
X36360000Y-46525000D01*
X36360000Y-45675000D01*
X43936928Y-45675000D01*
X43940000Y-45814250D01*
X44098750Y-45973000D01*
X44873000Y-45973000D01*
X44873000Y-45953000D01*
X45127000Y-45953000D01*
X45127000Y-45973000D01*
X45901250Y-45973000D01*
X46060000Y-45814250D01*
X46063072Y-45675000D01*
X46053224Y-45575000D01*
X108936928Y-45575000D01*
X108940000Y-45714250D01*
X109098750Y-45873000D01*
X109873000Y-45873000D01*
X109873000Y-45853000D01*
X110127000Y-45853000D01*
X110127000Y-45873000D01*
X110901250Y-45873000D01*
X111060000Y-45714250D01*
X111063072Y-45575000D01*
X111050812Y-45450518D01*
X111014502Y-45330820D01*
X110955537Y-45220506D01*
X110953483Y-45218003D01*
X111019265Y-45059191D01*
X111060000Y-44854401D01*
X111060000Y-44645599D01*
X111019265Y-44440809D01*
X110939360Y-44247902D01*
X110857240Y-44125000D01*
X110939360Y-44002098D01*
X111019265Y-43809191D01*
X111060000Y-43604401D01*
X111060000Y-43395599D01*
X111019265Y-43190809D01*
X110939360Y-42997902D01*
X110857240Y-42875000D01*
X110939360Y-42752098D01*
X111019265Y-42559191D01*
X111060000Y-42354401D01*
X111060000Y-42145599D01*
X111019265Y-41940809D01*
X110939360Y-41747902D01*
X110823356Y-41574289D01*
X110675711Y-41426644D01*
X110502098Y-41310640D01*
X110309191Y-41230735D01*
X110104401Y-41190000D01*
X109895599Y-41190000D01*
X109690809Y-41230735D01*
X109497902Y-41310640D01*
X109324289Y-41426644D01*
X109176644Y-41574289D01*
X109060640Y-41747902D01*
X108980735Y-41940809D01*
X108940000Y-42145599D01*
X108940000Y-42354401D01*
X108980735Y-42559191D01*
X109060640Y-42752098D01*
X109142760Y-42875000D01*
X109060640Y-42997902D01*
X108980735Y-43190809D01*
X108940000Y-43395599D01*
X108940000Y-43604401D01*
X108980735Y-43809191D01*
X109060640Y-44002098D01*
X109142760Y-44125000D01*
X109060640Y-44247902D01*
X108980735Y-44440809D01*
X108940000Y-44645599D01*
X108940000Y-44854401D01*
X108980735Y-45059191D01*
X109046517Y-45218003D01*
X109044463Y-45220506D01*
X108985498Y-45330820D01*
X108949188Y-45450518D01*
X108936928Y-45575000D01*
X46053224Y-45575000D01*
X46050812Y-45550518D01*
X46014502Y-45430820D01*
X45955537Y-45320506D01*
X45953483Y-45318003D01*
X46019265Y-45159191D01*
X46060000Y-44954401D01*
X46060000Y-44745599D01*
X46019265Y-44540809D01*
X45939360Y-44347902D01*
X45857240Y-44225000D01*
X45939360Y-44102098D01*
X46019265Y-43909191D01*
X46060000Y-43704401D01*
X46060000Y-43495599D01*
X46019265Y-43290809D01*
X45939360Y-43097902D01*
X45857240Y-42975000D01*
X45939360Y-42852098D01*
X46019265Y-42659191D01*
X46060000Y-42454401D01*
X46060000Y-42245599D01*
X46019265Y-42040809D01*
X45939360Y-41847902D01*
X45823356Y-41674289D01*
X45675711Y-41526644D01*
X45502098Y-41410640D01*
X45309191Y-41330735D01*
X45104401Y-41290000D01*
X44895599Y-41290000D01*
X44690809Y-41330735D01*
X44497902Y-41410640D01*
X44324289Y-41526644D01*
X44176644Y-41674289D01*
X44060640Y-41847902D01*
X43980735Y-42040809D01*
X43940000Y-42245599D01*
X43940000Y-42454401D01*
X43980735Y-42659191D01*
X44060640Y-42852098D01*
X44142760Y-42975000D01*
X44060640Y-43097902D01*
X43980735Y-43290809D01*
X43940000Y-43495599D01*
X43940000Y-43704401D01*
X43980735Y-43909191D01*
X44060640Y-44102098D01*
X44142760Y-44225000D01*
X44060640Y-44347902D01*
X43980735Y-44540809D01*
X43940000Y-44745599D01*
X43940000Y-44954401D01*
X43980735Y-45159191D01*
X44046517Y-45318003D01*
X44044463Y-45320506D01*
X43985498Y-45430820D01*
X43949188Y-45550518D01*
X43936928Y-45675000D01*
X36360000Y-45675000D01*
X36360000Y-38016473D01*
X36464886Y-38173446D01*
X36901554Y-38610114D01*
X37415021Y-38953201D01*
X37985554Y-39189524D01*
X38591229Y-39310000D01*
X39208771Y-39310000D01*
X39814446Y-39189524D01*
X40384979Y-38953201D01*
X40898446Y-38610114D01*
X41335114Y-38173446D01*
X41678201Y-37659979D01*
X41914524Y-37089446D01*
X42035000Y-36483771D01*
X42035000Y-35866229D01*
X41914524Y-35260554D01*
X41678201Y-34690021D01*
X41335114Y-34176554D01*
X40898446Y-33739886D01*
X40704057Y-33610000D01*
X113258527Y-33610000D01*
X113101554Y-33714886D01*
G36*
X74961123Y-95535925D02*
G01*
X74902247Y-95504454D01*
X74758986Y-95460997D01*
X74647333Y-95450000D01*
X74647322Y-95450000D01*
X74610000Y-95446324D01*
X74572678Y-95450000D01*
X71627595Y-95450000D01*
X71590706Y-95380986D01*
X71405134Y-95154866D01*
X71179014Y-94969294D01*
X71114477Y-94934799D01*
X71231355Y-94865178D01*
X71447588Y-94670269D01*
X71621641Y-94436920D01*
X71746825Y-94174099D01*
X71791476Y-94026890D01*
X71670155Y-93797000D01*
X70477000Y-93797000D01*
X70477000Y-93817000D01*
X70223000Y-93817000D01*
X70223000Y-93797000D01*
X69029845Y-93797000D01*
X68908524Y-94026890D01*
X68953175Y-94174099D01*
X69078359Y-94436920D01*
X69252412Y-94670269D01*
X69468645Y-94865178D01*
X69585523Y-94934799D01*
X69520986Y-94969294D01*
X69294866Y-95154866D01*
X69109294Y-95380986D01*
X68971401Y-95638966D01*
X68886487Y-95918889D01*
X68857815Y-96210000D01*
X68886487Y-96501111D01*
X68971401Y-96781034D01*
X69109294Y-97039014D01*
X69294866Y-97265134D01*
X69520986Y-97450706D01*
X69575791Y-97480000D01*
X69520986Y-97509294D01*
X69294866Y-97694866D01*
X69109294Y-97920986D01*
X68971401Y-98178966D01*
X68886487Y-98458889D01*
X68857815Y-98750000D01*
X68886487Y-99041111D01*
X68971401Y-99321034D01*
X69109294Y-99579014D01*
X69294866Y-99805134D01*
X69520986Y-99990706D01*
X69575791Y-100020000D01*
X69520986Y-100049294D01*
X69294866Y-100234866D01*
X69109294Y-100460986D01*
X68971401Y-100718966D01*
X68886487Y-100998889D01*
X68857815Y-101290000D01*
X68886487Y-101581111D01*
X68971401Y-101861034D01*
X69109294Y-102119014D01*
X69294866Y-102345134D01*
X69520986Y-102530706D01*
X69575791Y-102560000D01*
X69520986Y-102589294D01*
X69294866Y-102774866D01*
X69109294Y-103000986D01*
X68971401Y-103258966D01*
X68886487Y-103538889D01*
X68857815Y-103830000D01*
X68886487Y-104121111D01*
X68971401Y-104401034D01*
X69109294Y-104659014D01*
X69294866Y-104885134D01*
X69520986Y-105070706D01*
X69778966Y-105208599D01*
X70058889Y-105293513D01*
X70277050Y-105315000D01*
X70422950Y-105315000D01*
X70641111Y-105293513D01*
X70921034Y-105208599D01*
X71179014Y-105070706D01*
X71405134Y-104885134D01*
X71590706Y-104659014D01*
X71728599Y-104401034D01*
X71813513Y-104121111D01*
X71842185Y-103830000D01*
X71813513Y-103538889D01*
X71728599Y-103258966D01*
X71590706Y-103000986D01*
X71405134Y-102774866D01*
X71179014Y-102589294D01*
X71124209Y-102560000D01*
X71179014Y-102530706D01*
X71405134Y-102345134D01*
X71590706Y-102119014D01*
X71728599Y-101861034D01*
X71813513Y-101581111D01*
X71842185Y-101290000D01*
X71813513Y-100998889D01*
X71728599Y-100718966D01*
X71590706Y-100460986D01*
X71405134Y-100234866D01*
X71179014Y-100049294D01*
X71124209Y-100020000D01*
X71179014Y-99990706D01*
X71405134Y-99805134D01*
X71590706Y-99579014D01*
X71627595Y-99510000D01*
X74135199Y-99510000D01*
X82568243Y-107943044D01*
X82537333Y-107940000D01*
X82537322Y-107940000D01*
X82500000Y-107936324D01*
X82462678Y-107940000D01*
X69514803Y-107940000D01*
X67860000Y-106285199D01*
X67860000Y-104003711D01*
X67903937Y-103959774D01*
X68017205Y-103790256D01*
X68095226Y-103601898D01*
X68135000Y-103401939D01*
X68135000Y-103198061D01*
X68095226Y-102998102D01*
X68017205Y-102809744D01*
X67903937Y-102640226D01*
X67759774Y-102496063D01*
X67590256Y-102382795D01*
X67401898Y-102304774D01*
X67201939Y-102265000D01*
X66998061Y-102265000D01*
X66798102Y-102304774D01*
X66609744Y-102382795D01*
X66440226Y-102496063D01*
X66296063Y-102640226D01*
X66182795Y-102809744D01*
X66104774Y-102998102D01*
X66065000Y-103198061D01*
X66065000Y-103401939D01*
X66104774Y-103601898D01*
X66182795Y-103790256D01*
X66296063Y-103959774D01*
X66340001Y-104003712D01*
X66340000Y-105862667D01*
X66340000Y-106562678D01*
X66336324Y-106600000D01*
X66340000Y-106637322D01*
X66340000Y-106637332D01*
X66350997Y-106748985D01*
X66381337Y-106849003D01*
X66394454Y-106892246D01*
X66465026Y-107024276D01*
X66504871Y-107072826D01*
X66559999Y-107140001D01*
X66589002Y-107163804D01*
X68265197Y-108840000D01*
X67414802Y-108840000D01*
X63360000Y-104785199D01*
X63360000Y-98203711D01*
X63403937Y-98159774D01*
X63517205Y-97990256D01*
X63595226Y-97801898D01*
X63635000Y-97601939D01*
X63635000Y-97398061D01*
X63595226Y-97198102D01*
X63517205Y-97009744D01*
X63403937Y-96840226D01*
X63332755Y-96769044D01*
X64919044Y-95182755D01*
X64940226Y-95203937D01*
X65109744Y-95317205D01*
X65298102Y-95395226D01*
X65498061Y-95435000D01*
X65701939Y-95435000D01*
X65901898Y-95395226D01*
X66090256Y-95317205D01*
X66259774Y-95203937D01*
X66403937Y-95059774D01*
X66517205Y-94890256D01*
X66595226Y-94701898D01*
X66635000Y-94501939D01*
X66635000Y-94298061D01*
X66595226Y-94098102D01*
X66538022Y-93960000D01*
X67142678Y-93960000D01*
X67180000Y-93963676D01*
X67217322Y-93960000D01*
X67217333Y-93960000D01*
X67328986Y-93949003D01*
X67472247Y-93905546D01*
X67604276Y-93834974D01*
X67720001Y-93740001D01*
X67743804Y-93710997D01*
X69037457Y-92417345D01*
X69048815Y-92431185D01*
X69145506Y-92510537D01*
X69255820Y-92569502D01*
X69336466Y-92593966D01*
X69252412Y-92669731D01*
X69078359Y-92903080D01*
X68953175Y-93165901D01*
X68908524Y-93313110D01*
X69029845Y-93543000D01*
X70223000Y-93543000D01*
X70223000Y-93523000D01*
X70477000Y-93523000D01*
X70477000Y-93543000D01*
X71670155Y-93543000D01*
X71791476Y-93313110D01*
X71746825Y-93165901D01*
X71621641Y-92903080D01*
X71447588Y-92669731D01*
X71363534Y-92593966D01*
X71444180Y-92569502D01*
X71554494Y-92510537D01*
X71651185Y-92431185D01*
X71730537Y-92334494D01*
X71740693Y-92315494D01*
X74961123Y-95535925D01*
X74961123Y-95535925D01*
G37*
X74961123Y-95535925D02*
X74902247Y-95504454D01*
X74758986Y-95460997D01*
X74647333Y-95450000D01*
X74647322Y-95450000D01*
X74610000Y-95446324D01*
X74572678Y-95450000D01*
X71627595Y-95450000D01*
X71590706Y-95380986D01*
X71405134Y-95154866D01*
X71179014Y-94969294D01*
X71114477Y-94934799D01*
X71231355Y-94865178D01*
X71447588Y-94670269D01*
X71621641Y-94436920D01*
X71746825Y-94174099D01*
X71791476Y-94026890D01*
X71670155Y-93797000D01*
X70477000Y-93797000D01*
X70477000Y-93817000D01*
X70223000Y-93817000D01*
X70223000Y-93797000D01*
X69029845Y-93797000D01*
X68908524Y-94026890D01*
X68953175Y-94174099D01*
X69078359Y-94436920D01*
X69252412Y-94670269D01*
X69468645Y-94865178D01*
X69585523Y-94934799D01*
X69520986Y-94969294D01*
X69294866Y-95154866D01*
X69109294Y-95380986D01*
X68971401Y-95638966D01*
X68886487Y-95918889D01*
X68857815Y-96210000D01*
X68886487Y-96501111D01*
X68971401Y-96781034D01*
X69109294Y-97039014D01*
X69294866Y-97265134D01*
X69520986Y-97450706D01*
X69575791Y-97480000D01*
X69520986Y-97509294D01*
X69294866Y-97694866D01*
X69109294Y-97920986D01*
X68971401Y-98178966D01*
X68886487Y-98458889D01*
X68857815Y-98750000D01*
X68886487Y-99041111D01*
X68971401Y-99321034D01*
X69109294Y-99579014D01*
X69294866Y-99805134D01*
X69520986Y-99990706D01*
X69575791Y-100020000D01*
X69520986Y-100049294D01*
X69294866Y-100234866D01*
X69109294Y-100460986D01*
X68971401Y-100718966D01*
X68886487Y-100998889D01*
X68857815Y-101290000D01*
X68886487Y-101581111D01*
X68971401Y-101861034D01*
X69109294Y-102119014D01*
X69294866Y-102345134D01*
X69520986Y-102530706D01*
X69575791Y-102560000D01*
X69520986Y-102589294D01*
X69294866Y-102774866D01*
X69109294Y-103000986D01*
X68971401Y-103258966D01*
X68886487Y-103538889D01*
X68857815Y-103830000D01*
X68886487Y-104121111D01*
X68971401Y-104401034D01*
X69109294Y-104659014D01*
X69294866Y-104885134D01*
X69520986Y-105070706D01*
X69778966Y-105208599D01*
X70058889Y-105293513D01*
X70277050Y-105315000D01*
X70422950Y-105315000D01*
X70641111Y-105293513D01*
X70921034Y-105208599D01*
X71179014Y-105070706D01*
X71405134Y-104885134D01*
X71590706Y-104659014D01*
X71728599Y-104401034D01*
X71813513Y-104121111D01*
X71842185Y-103830000D01*
X71813513Y-103538889D01*
X71728599Y-103258966D01*
X71590706Y-103000986D01*
X71405134Y-102774866D01*
X71179014Y-102589294D01*
X71124209Y-102560000D01*
X71179014Y-102530706D01*
X71405134Y-102345134D01*
X71590706Y-102119014D01*
X71728599Y-101861034D01*
X71813513Y-101581111D01*
X71842185Y-101290000D01*
X71813513Y-100998889D01*
X71728599Y-100718966D01*
X71590706Y-100460986D01*
X71405134Y-100234866D01*
X71179014Y-100049294D01*
X71124209Y-100020000D01*
X71179014Y-99990706D01*
X71405134Y-99805134D01*
X71590706Y-99579014D01*
X71627595Y-99510000D01*
X74135199Y-99510000D01*
X82568243Y-107943044D01*
X82537333Y-107940000D01*
X82537322Y-107940000D01*
X82500000Y-107936324D01*
X82462678Y-107940000D01*
X69514803Y-107940000D01*
X67860000Y-106285199D01*
X67860000Y-104003711D01*
X67903937Y-103959774D01*
X68017205Y-103790256D01*
X68095226Y-103601898D01*
X68135000Y-103401939D01*
X68135000Y-103198061D01*
X68095226Y-102998102D01*
X68017205Y-102809744D01*
X67903937Y-102640226D01*
X67759774Y-102496063D01*
X67590256Y-102382795D01*
X67401898Y-102304774D01*
X67201939Y-102265000D01*
X66998061Y-102265000D01*
X66798102Y-102304774D01*
X66609744Y-102382795D01*
X66440226Y-102496063D01*
X66296063Y-102640226D01*
X66182795Y-102809744D01*
X66104774Y-102998102D01*
X66065000Y-103198061D01*
X66065000Y-103401939D01*
X66104774Y-103601898D01*
X66182795Y-103790256D01*
X66296063Y-103959774D01*
X66340001Y-104003712D01*
X66340000Y-105862667D01*
X66340000Y-106562678D01*
X66336324Y-106600000D01*
X66340000Y-106637322D01*
X66340000Y-106637332D01*
X66350997Y-106748985D01*
X66381337Y-106849003D01*
X66394454Y-106892246D01*
X66465026Y-107024276D01*
X66504871Y-107072826D01*
X66559999Y-107140001D01*
X66589002Y-107163804D01*
X68265197Y-108840000D01*
X67414802Y-108840000D01*
X63360000Y-104785199D01*
X63360000Y-98203711D01*
X63403937Y-98159774D01*
X63517205Y-97990256D01*
X63595226Y-97801898D01*
X63635000Y-97601939D01*
X63635000Y-97398061D01*
X63595226Y-97198102D01*
X63517205Y-97009744D01*
X63403937Y-96840226D01*
X63332755Y-96769044D01*
X64919044Y-95182755D01*
X64940226Y-95203937D01*
X65109744Y-95317205D01*
X65298102Y-95395226D01*
X65498061Y-95435000D01*
X65701939Y-95435000D01*
X65901898Y-95395226D01*
X66090256Y-95317205D01*
X66259774Y-95203937D01*
X66403937Y-95059774D01*
X66517205Y-94890256D01*
X66595226Y-94701898D01*
X66635000Y-94501939D01*
X66635000Y-94298061D01*
X66595226Y-94098102D01*
X66538022Y-93960000D01*
X67142678Y-93960000D01*
X67180000Y-93963676D01*
X67217322Y-93960000D01*
X67217333Y-93960000D01*
X67328986Y-93949003D01*
X67472247Y-93905546D01*
X67604276Y-93834974D01*
X67720001Y-93740001D01*
X67743804Y-93710997D01*
X69037457Y-92417345D01*
X69048815Y-92431185D01*
X69145506Y-92510537D01*
X69255820Y-92569502D01*
X69336466Y-92593966D01*
X69252412Y-92669731D01*
X69078359Y-92903080D01*
X68953175Y-93165901D01*
X68908524Y-93313110D01*
X69029845Y-93543000D01*
X70223000Y-93543000D01*
X70223000Y-93523000D01*
X70477000Y-93523000D01*
X70477000Y-93543000D01*
X71670155Y-93543000D01*
X71791476Y-93313110D01*
X71746825Y-93165901D01*
X71621641Y-92903080D01*
X71447588Y-92669731D01*
X71363534Y-92593966D01*
X71444180Y-92569502D01*
X71554494Y-92510537D01*
X71651185Y-92431185D01*
X71730537Y-92334494D01*
X71740693Y-92315494D01*
X74961123Y-95535925D01*
M02*
