G04 #@! TF.GenerationSoftware,KiCad,Pcbnew,(5.1.2)-2*
G04 #@! TF.CreationDate,2021-05-04T11:05:57-04:00*
G04 #@! TF.ProjectId,Magnetometer_A,4d61676e-6574-46f6-9d65-7465725f412e,rev?*
G04 #@! TF.SameCoordinates,Original*
G04 #@! TF.FileFunction,Copper,L1,Top*
G04 #@! TF.FilePolarity,Positive*
%FSLAX46Y46*%
G04 Gerber Fmt 4.6, Leading zero omitted, Abs format (unit mm)*
G04 Created by KiCad (PCBNEW (5.1.2)-2) date 2021-05-04 11:05:58*
%MOMM*%
%LPD*%
G04 APERTURE LIST*
%ADD10R,1.700000X1.700000*%
%ADD11O,1.700000X1.700000*%
%ADD12C,5.000000*%
%ADD13R,0.850000X0.850000*%
%ADD14C,0.850000*%
%ADD15R,1.000000X1.500000*%
%ADD16C,0.800000*%
%ADD17C,0.250000*%
%ADD18C,0.254000*%
G04 APERTURE END LIST*
D10*
X95100000Y-59000000D03*
D11*
X95100000Y-56460000D03*
X95100000Y-53920000D03*
X95100000Y-51380000D03*
D12*
X38900000Y-36175000D03*
X115100000Y-127750000D03*
X115100000Y-36150000D03*
X38900000Y-127750000D03*
D13*
X110000000Y-46000000D03*
D14*
X110000000Y-44750000D03*
X110000000Y-43500000D03*
X110000000Y-42250000D03*
X45000000Y-42350000D03*
X45000000Y-43600000D03*
X45000000Y-44850000D03*
D13*
X45000000Y-46100000D03*
D14*
X76750000Y-114600000D03*
X78000000Y-114600000D03*
X79250000Y-114600000D03*
D13*
X80500000Y-114600000D03*
D15*
X65450000Y-96500000D03*
X64150000Y-96500000D03*
X52500000Y-96500000D03*
X53800000Y-96500000D03*
X55100000Y-96500000D03*
X58600000Y-96500000D03*
X59900000Y-96500000D03*
X61200000Y-96500000D03*
X61100000Y-100500000D03*
X59800000Y-100500000D03*
X58500000Y-100500000D03*
X65450000Y-100500000D03*
X64150000Y-100500000D03*
D10*
X87220000Y-85070000D03*
D11*
X87220000Y-87610000D03*
X87220000Y-90150000D03*
X87220000Y-92690000D03*
X87220000Y-95230000D03*
X87220000Y-97770000D03*
X87220000Y-100310000D03*
D15*
X55100000Y-100500000D03*
X53800000Y-100500000D03*
X52500000Y-100500000D03*
D11*
X110120000Y-85040000D03*
X110120000Y-87580000D03*
X110120000Y-90120000D03*
X110120000Y-92660000D03*
X110120000Y-95200000D03*
X110120000Y-97740000D03*
D10*
X110120000Y-100280000D03*
D15*
X58500000Y-92500000D03*
X59800000Y-92500000D03*
X61100000Y-92500000D03*
D10*
X70350000Y-91130000D03*
D11*
X70350000Y-93670000D03*
X70350000Y-96210000D03*
X70350000Y-98750000D03*
X70350000Y-101290000D03*
X70350000Y-103830000D03*
D14*
X102750000Y-114600000D03*
X104000000Y-114600000D03*
X105250000Y-114600000D03*
X106500000Y-114600000D03*
X107750000Y-114600000D03*
D13*
X109000000Y-114600000D03*
X97700000Y-114600000D03*
D14*
X96450000Y-114600000D03*
X95200000Y-114600000D03*
X93950000Y-114600000D03*
D11*
X110000000Y-51380000D03*
X110000000Y-53920000D03*
X110000000Y-56460000D03*
D10*
X110000000Y-59000000D03*
D16*
X55700000Y-102700000D03*
X62600000Y-97500000D03*
X65600000Y-94400000D03*
X60300000Y-102600000D03*
X67100000Y-103300000D03*
X66100000Y-92300002D03*
X60800000Y-94599999D03*
X56799999Y-101100001D03*
D17*
X55100000Y-100500000D02*
X55100000Y-96500000D01*
X104000000Y-113800000D02*
X104000000Y-114600000D01*
X103000000Y-112800000D02*
X104000000Y-113800000D01*
X97400000Y-112800000D02*
X103000000Y-112800000D01*
X96450000Y-114600000D02*
X96450000Y-113750000D01*
X96450000Y-113750000D02*
X97400000Y-112800000D01*
X58500000Y-91500000D02*
X59800000Y-90200000D01*
X58500000Y-92500000D02*
X58500000Y-91500000D01*
X59800000Y-90200000D02*
X67700000Y-90200000D01*
X68630000Y-91130000D02*
X70350000Y-91130000D01*
X67700000Y-90200000D02*
X68630000Y-91130000D01*
X55100000Y-100500000D02*
X55100000Y-101500000D01*
X55100000Y-101500000D02*
X55100000Y-102100000D01*
X55100000Y-102100000D02*
X55700000Y-102700000D01*
X79250000Y-113250000D02*
X79250000Y-114600000D01*
X76500000Y-110500000D02*
X79250000Y-113250000D01*
X51400000Y-110500000D02*
X76500000Y-110500000D01*
X41950000Y-44850000D02*
X39700000Y-47100000D01*
X42900000Y-102000000D02*
X51400000Y-110500000D01*
X39700000Y-47100000D02*
X39700000Y-66700000D01*
X39700000Y-66700000D02*
X42900000Y-69900000D01*
X42900000Y-69900000D02*
X42900000Y-102000000D01*
X109900000Y-44850000D02*
X110000000Y-44750000D01*
X45000000Y-44850000D02*
X109900000Y-44850000D01*
X41950000Y-44850000D02*
X45000000Y-44850000D01*
X61600000Y-96500000D02*
X61200000Y-96500000D01*
X62600000Y-97500000D02*
X61600000Y-96500000D01*
X58500000Y-99700000D02*
X58500000Y-100500000D01*
X59400000Y-98800000D02*
X58500000Y-99700000D01*
X70350000Y-98750000D02*
X70300000Y-98800000D01*
X70300000Y-98800000D02*
X59400000Y-98800000D01*
X86000000Y-82200000D02*
X112000000Y-82200000D01*
X70350000Y-98750000D02*
X74650000Y-98750000D01*
X79800000Y-93600000D02*
X79800000Y-88400000D01*
X74650000Y-98750000D02*
X79800000Y-93600000D01*
X79800000Y-88400000D02*
X86000000Y-82200000D01*
X112000000Y-82200000D02*
X111400000Y-82200000D01*
X112600000Y-53980000D02*
X110000000Y-51380000D01*
X116600000Y-57980000D02*
X112600000Y-53980000D01*
X116600000Y-77800000D02*
X116600000Y-57980000D01*
X112000000Y-82200000D02*
X112200000Y-82200000D01*
X112200000Y-82200000D02*
X116600000Y-77800000D01*
X58600000Y-97300000D02*
X58600000Y-96500000D01*
X59600000Y-98300000D02*
X58600000Y-97300000D01*
X68300000Y-98300000D02*
X59600000Y-98300000D01*
X70350000Y-96210000D02*
X70350000Y-96250000D01*
X70350000Y-96250000D02*
X68300000Y-98300000D01*
X108680000Y-53920000D02*
X110000000Y-53920000D01*
X106800000Y-55800000D02*
X108680000Y-53920000D01*
X113000000Y-66100000D02*
X106800000Y-59900000D01*
X113000000Y-78600000D02*
X113000000Y-66100000D01*
X74990000Y-96210000D02*
X78400000Y-92800000D01*
X106800000Y-59900000D02*
X106800000Y-55800000D01*
X70350000Y-96210000D02*
X74990000Y-96210000D01*
X78400000Y-92800000D02*
X78400000Y-87100000D01*
X78400000Y-87100000D02*
X85100000Y-80400000D01*
X85100000Y-80400000D02*
X111200000Y-80400000D01*
X111200000Y-80400000D02*
X113000000Y-78600000D01*
X66400000Y-96500000D02*
X65450000Y-96500000D01*
X66700000Y-96200000D02*
X66400000Y-96500000D01*
X66700000Y-94900000D02*
X66700000Y-96200000D01*
X65600000Y-94400000D02*
X66200000Y-94400000D01*
X66200000Y-94400000D02*
X66700000Y-94900000D01*
X60699999Y-102200001D02*
X60300000Y-102600000D01*
X61100000Y-101800000D02*
X60699999Y-102200001D01*
X61100000Y-100500000D02*
X61100000Y-101800000D01*
X65450000Y-100500000D02*
X65450000Y-101650000D01*
X65450000Y-101650000D02*
X67100000Y-103300000D01*
X45050000Y-42300000D02*
X45000000Y-42350000D01*
X110000000Y-42250000D02*
X109950000Y-42300000D01*
X109950000Y-42300000D02*
X45050000Y-42300000D01*
X41050000Y-42350000D02*
X45000000Y-42350000D01*
X41000000Y-42400000D02*
X41050000Y-42350000D01*
X75200000Y-112100000D02*
X76750000Y-113650000D01*
X38200000Y-45200000D02*
X38200000Y-67400000D01*
X41050000Y-42350000D02*
X38200000Y-45200000D01*
X38200000Y-67400000D02*
X41200000Y-70400000D01*
X41200000Y-70400000D02*
X41200000Y-102800000D01*
X41200000Y-102800000D02*
X50500000Y-112100000D01*
X76750000Y-113650000D02*
X76750000Y-114600000D01*
X50500000Y-112100000D02*
X75200000Y-112100000D01*
X45100000Y-43500000D02*
X45000000Y-43600000D01*
X110000000Y-43500000D02*
X45100000Y-43500000D01*
X41700000Y-43600000D02*
X45000000Y-43600000D01*
X39000000Y-46300000D02*
X41700000Y-43600000D01*
X39000000Y-67000000D02*
X39000000Y-46300000D01*
X78000000Y-113500000D02*
X75900000Y-111400000D01*
X78000000Y-114600000D02*
X78000000Y-113500000D01*
X75900000Y-111400000D02*
X51000000Y-111400000D01*
X51000000Y-111400000D02*
X42000000Y-102400000D01*
X42000000Y-102400000D02*
X42000000Y-70000000D01*
X42000000Y-70000000D02*
X39000000Y-67000000D01*
X65700001Y-92700001D02*
X66100000Y-92300002D01*
X64150000Y-96500000D02*
X64150000Y-94250002D01*
X64150000Y-94250002D02*
X65700001Y-92700001D01*
X53800000Y-95500000D02*
X53800000Y-96500000D01*
X54500000Y-94800000D02*
X53800000Y-95500000D01*
X59300000Y-94800000D02*
X54500000Y-94800000D01*
X63100000Y-96500000D02*
X62400000Y-95800000D01*
X64150000Y-96500000D02*
X63100000Y-96500000D01*
X62400000Y-95800000D02*
X62400000Y-94900000D01*
X62400000Y-94900000D02*
X61374998Y-93874998D01*
X61374998Y-93874998D02*
X60225002Y-93874998D01*
X60225002Y-93874998D02*
X59300000Y-94800000D01*
X59900000Y-95499999D02*
X60400001Y-94999998D01*
X60400001Y-94999998D02*
X60800000Y-94599999D01*
X59900000Y-96500000D02*
X59900000Y-95499999D01*
X59800000Y-100500000D02*
X59800000Y-101500000D01*
X57699998Y-102000000D02*
X57199998Y-101500000D01*
X59300000Y-102000000D02*
X57699998Y-102000000D01*
X57199998Y-101500000D02*
X56799999Y-101100001D01*
X59800000Y-101500000D02*
X59300000Y-102000000D01*
X53800000Y-102400000D02*
X53800000Y-100500000D01*
X63200000Y-100500000D02*
X62600000Y-101100000D01*
X64150000Y-100500000D02*
X63200000Y-100500000D01*
X62600000Y-101100000D02*
X62600000Y-102700000D01*
X61874999Y-103425001D02*
X54825001Y-103425001D01*
X62600000Y-102700000D02*
X61874999Y-103425001D01*
X54825001Y-103425001D02*
X53800000Y-102400000D01*
X64150000Y-103350000D02*
X64150000Y-100500000D01*
X66800000Y-106000000D02*
X64150000Y-103350000D01*
X74100000Y-106000000D02*
X66800000Y-106000000D01*
X87220000Y-92690000D02*
X87220000Y-92880000D01*
X87220000Y-92880000D02*
X74100000Y-106000000D01*
X109270001Y-96049999D02*
X110120000Y-95200000D01*
X96320000Y-109000000D02*
X109270001Y-96049999D01*
X55600000Y-109000000D02*
X96320000Y-109000000D01*
X59800000Y-93500000D02*
X59150011Y-94149989D01*
X59800000Y-92500000D02*
X59800000Y-93500000D01*
X59150011Y-94149989D02*
X52350011Y-94149989D01*
X52350011Y-94149989D02*
X50500000Y-96000000D01*
X50500000Y-96000000D02*
X50500000Y-103900000D01*
X50500000Y-103900000D02*
X55600000Y-109000000D01*
D18*
G36*
X113101554Y-33714886D02*
G01*
X112664886Y-34151554D01*
X112321799Y-34665021D01*
X112085476Y-35235554D01*
X111965000Y-35841229D01*
X111965000Y-36458771D01*
X112085476Y-37064446D01*
X112321799Y-37634979D01*
X112664886Y-38148446D01*
X113101554Y-38585114D01*
X113615021Y-38928201D01*
X114185554Y-39164524D01*
X114791229Y-39285000D01*
X115408771Y-39285000D01*
X116014446Y-39164524D01*
X116584979Y-38928201D01*
X117098446Y-38585114D01*
X117535114Y-38148446D01*
X117640000Y-37991473D01*
X117640001Y-125908529D01*
X117535114Y-125751554D01*
X117098446Y-125314886D01*
X116584979Y-124971799D01*
X116014446Y-124735476D01*
X115408771Y-124615000D01*
X114791229Y-124615000D01*
X114185554Y-124735476D01*
X113615021Y-124971799D01*
X113101554Y-125314886D01*
X112664886Y-125751554D01*
X112321799Y-126265021D01*
X112085476Y-126835554D01*
X111965000Y-127441229D01*
X111965000Y-128058771D01*
X112085476Y-128664446D01*
X112321799Y-129234979D01*
X112664886Y-129748446D01*
X113101554Y-130185114D01*
X113258527Y-130290000D01*
X40741473Y-130290000D01*
X40898446Y-130185114D01*
X41335114Y-129748446D01*
X41678201Y-129234979D01*
X41914524Y-128664446D01*
X42035000Y-128058771D01*
X42035000Y-127441229D01*
X41914524Y-126835554D01*
X41678201Y-126265021D01*
X41335114Y-125751554D01*
X40898446Y-125314886D01*
X40384979Y-124971799D01*
X39814446Y-124735476D01*
X39208771Y-124615000D01*
X38591229Y-124615000D01*
X37985554Y-124735476D01*
X37415021Y-124971799D01*
X36901554Y-125314886D01*
X36464886Y-125751554D01*
X36360000Y-125908527D01*
X36360000Y-45200000D01*
X37436324Y-45200000D01*
X37440000Y-45237322D01*
X37440001Y-67362667D01*
X37436324Y-67400000D01*
X37450998Y-67548985D01*
X37494454Y-67692246D01*
X37565026Y-67824276D01*
X37636201Y-67911002D01*
X37660000Y-67940001D01*
X37688998Y-67963799D01*
X40440000Y-70714802D01*
X40440001Y-102762667D01*
X40436324Y-102800000D01*
X40440001Y-102837333D01*
X40450998Y-102948986D01*
X40464121Y-102992246D01*
X40494454Y-103092246D01*
X40565026Y-103224276D01*
X40636201Y-103311002D01*
X40660000Y-103340001D01*
X40688998Y-103363799D01*
X49936200Y-112611002D01*
X49959999Y-112640001D01*
X49988997Y-112663799D01*
X50075723Y-112734974D01*
X50197377Y-112800000D01*
X50207753Y-112805546D01*
X50351014Y-112849003D01*
X50462667Y-112860000D01*
X50462676Y-112860000D01*
X50499999Y-112863676D01*
X50537322Y-112860000D01*
X74885199Y-112860000D01*
X75938066Y-113912867D01*
X75926644Y-113924289D01*
X75810640Y-114097902D01*
X75730735Y-114290809D01*
X75690000Y-114495599D01*
X75690000Y-114704401D01*
X75730735Y-114909191D01*
X75810640Y-115102098D01*
X75926644Y-115275711D01*
X76074289Y-115423356D01*
X76247902Y-115539360D01*
X76440809Y-115619265D01*
X76645599Y-115660000D01*
X76854401Y-115660000D01*
X77059191Y-115619265D01*
X77252098Y-115539360D01*
X77375000Y-115457240D01*
X77497902Y-115539360D01*
X77690809Y-115619265D01*
X77895599Y-115660000D01*
X78104401Y-115660000D01*
X78309191Y-115619265D01*
X78502098Y-115539360D01*
X78625000Y-115457240D01*
X78747902Y-115539360D01*
X78940809Y-115619265D01*
X79145599Y-115660000D01*
X79354401Y-115660000D01*
X79559191Y-115619265D01*
X79718003Y-115553483D01*
X79720506Y-115555537D01*
X79830820Y-115614502D01*
X79950518Y-115650812D01*
X80075000Y-115663072D01*
X80214250Y-115660000D01*
X80373000Y-115501250D01*
X80373000Y-114727000D01*
X80627000Y-114727000D01*
X80627000Y-115501250D01*
X80785750Y-115660000D01*
X80925000Y-115663072D01*
X81049482Y-115650812D01*
X81169180Y-115614502D01*
X81279494Y-115555537D01*
X81376185Y-115476185D01*
X81455537Y-115379494D01*
X81514502Y-115269180D01*
X81550812Y-115149482D01*
X81563072Y-115025000D01*
X81560000Y-114885750D01*
X81401250Y-114727000D01*
X80627000Y-114727000D01*
X80373000Y-114727000D01*
X80353000Y-114727000D01*
X80353000Y-114495599D01*
X92890000Y-114495599D01*
X92890000Y-114704401D01*
X92930735Y-114909191D01*
X93010640Y-115102098D01*
X93126644Y-115275711D01*
X93274289Y-115423356D01*
X93447902Y-115539360D01*
X93640809Y-115619265D01*
X93845599Y-115660000D01*
X94054401Y-115660000D01*
X94259191Y-115619265D01*
X94452098Y-115539360D01*
X94575000Y-115457240D01*
X94697902Y-115539360D01*
X94890809Y-115619265D01*
X95095599Y-115660000D01*
X95304401Y-115660000D01*
X95509191Y-115619265D01*
X95702098Y-115539360D01*
X95825000Y-115457240D01*
X95947902Y-115539360D01*
X96140809Y-115619265D01*
X96345599Y-115660000D01*
X96554401Y-115660000D01*
X96759191Y-115619265D01*
X96918003Y-115553483D01*
X96920506Y-115555537D01*
X97030820Y-115614502D01*
X97150518Y-115650812D01*
X97275000Y-115663072D01*
X97414250Y-115660000D01*
X97573000Y-115501250D01*
X97573000Y-114727000D01*
X97827000Y-114727000D01*
X97827000Y-115501250D01*
X97985750Y-115660000D01*
X98125000Y-115663072D01*
X98249482Y-115650812D01*
X98369180Y-115614502D01*
X98479494Y-115555537D01*
X98576185Y-115476185D01*
X98655537Y-115379494D01*
X98714502Y-115269180D01*
X98750812Y-115149482D01*
X98763072Y-115025000D01*
X98760000Y-114885750D01*
X98601250Y-114727000D01*
X97827000Y-114727000D01*
X97573000Y-114727000D01*
X97553000Y-114727000D01*
X97553000Y-114685384D01*
X101688298Y-114685384D01*
X101725356Y-114890870D01*
X101801790Y-115085179D01*
X101819790Y-115118856D01*
X102025614Y-115144781D01*
X102570395Y-114600000D01*
X102025614Y-114055219D01*
X101819790Y-114081144D01*
X101736440Y-114272588D01*
X101692041Y-114476616D01*
X101688298Y-114685384D01*
X97553000Y-114685384D01*
X97553000Y-114473000D01*
X97573000Y-114473000D01*
X97573000Y-114453000D01*
X97827000Y-114453000D01*
X97827000Y-114473000D01*
X98601250Y-114473000D01*
X98760000Y-114314250D01*
X98763072Y-114175000D01*
X98750812Y-114050518D01*
X98714502Y-113930820D01*
X98655537Y-113820506D01*
X98576185Y-113723815D01*
X98479494Y-113644463D01*
X98369180Y-113585498D01*
X98285124Y-113560000D01*
X102544279Y-113560000D01*
X102459130Y-113575356D01*
X102264821Y-113651790D01*
X102231144Y-113669790D01*
X102205219Y-113875614D01*
X102750000Y-114420395D01*
X102764143Y-114406253D01*
X102940000Y-114582110D01*
X102940000Y-114589605D01*
X102929605Y-114600000D01*
X102940000Y-114610395D01*
X102940000Y-114617890D01*
X102764143Y-114793748D01*
X102750000Y-114779605D01*
X102205219Y-115324386D01*
X102231144Y-115530210D01*
X102422588Y-115613560D01*
X102626616Y-115657959D01*
X102835384Y-115661702D01*
X103040870Y-115624644D01*
X103235179Y-115548210D01*
X103268856Y-115530210D01*
X103287011Y-115386078D01*
X103324289Y-115423356D01*
X103497902Y-115539360D01*
X103690809Y-115619265D01*
X103895599Y-115660000D01*
X104104401Y-115660000D01*
X104309191Y-115619265D01*
X104502098Y-115539360D01*
X104625000Y-115457240D01*
X104747902Y-115539360D01*
X104940809Y-115619265D01*
X105145599Y-115660000D01*
X105354401Y-115660000D01*
X105559191Y-115619265D01*
X105752098Y-115539360D01*
X105875000Y-115457240D01*
X105997902Y-115539360D01*
X106190809Y-115619265D01*
X106395599Y-115660000D01*
X106604401Y-115660000D01*
X106809191Y-115619265D01*
X107002098Y-115539360D01*
X107125000Y-115457240D01*
X107247902Y-115539360D01*
X107440809Y-115619265D01*
X107645599Y-115660000D01*
X107854401Y-115660000D01*
X108059191Y-115619265D01*
X108218003Y-115553483D01*
X108220506Y-115555537D01*
X108330820Y-115614502D01*
X108450518Y-115650812D01*
X108575000Y-115663072D01*
X109425000Y-115663072D01*
X109549482Y-115650812D01*
X109669180Y-115614502D01*
X109779494Y-115555537D01*
X109876185Y-115476185D01*
X109955537Y-115379494D01*
X110014502Y-115269180D01*
X110050812Y-115149482D01*
X110063072Y-115025000D01*
X110063072Y-114175000D01*
X110050812Y-114050518D01*
X110014502Y-113930820D01*
X109955537Y-113820506D01*
X109876185Y-113723815D01*
X109779494Y-113644463D01*
X109669180Y-113585498D01*
X109549482Y-113549188D01*
X109425000Y-113536928D01*
X108575000Y-113536928D01*
X108450518Y-113549188D01*
X108330820Y-113585498D01*
X108220506Y-113644463D01*
X108218003Y-113646517D01*
X108059191Y-113580735D01*
X107854401Y-113540000D01*
X107645599Y-113540000D01*
X107440809Y-113580735D01*
X107247902Y-113660640D01*
X107125000Y-113742760D01*
X107002098Y-113660640D01*
X106809191Y-113580735D01*
X106604401Y-113540000D01*
X106395599Y-113540000D01*
X106190809Y-113580735D01*
X105997902Y-113660640D01*
X105875000Y-113742760D01*
X105752098Y-113660640D01*
X105559191Y-113580735D01*
X105354401Y-113540000D01*
X105145599Y-113540000D01*
X104940809Y-113580735D01*
X104749871Y-113659825D01*
X104749003Y-113651014D01*
X104705546Y-113507753D01*
X104634974Y-113375724D01*
X104563799Y-113288997D01*
X104540001Y-113259999D01*
X104511004Y-113236202D01*
X103563804Y-112289002D01*
X103540001Y-112259999D01*
X103424276Y-112165026D01*
X103292247Y-112094454D01*
X103148986Y-112050997D01*
X103037333Y-112040000D01*
X103037322Y-112040000D01*
X103000000Y-112036324D01*
X102962678Y-112040000D01*
X97437323Y-112040000D01*
X97400000Y-112036324D01*
X97362677Y-112040000D01*
X97362667Y-112040000D01*
X97251014Y-112050997D01*
X97107753Y-112094454D01*
X96975723Y-112165026D01*
X96892083Y-112233668D01*
X96859999Y-112259999D01*
X96836201Y-112288997D01*
X95938998Y-113186201D01*
X95910000Y-113209999D01*
X95886202Y-113238997D01*
X95886201Y-113238998D01*
X95815026Y-113325724D01*
X95744454Y-113457754D01*
X95720438Y-113536928D01*
X95700998Y-113601014D01*
X95695398Y-113657865D01*
X95509191Y-113580735D01*
X95304401Y-113540000D01*
X95095599Y-113540000D01*
X94890809Y-113580735D01*
X94697902Y-113660640D01*
X94575000Y-113742760D01*
X94452098Y-113660640D01*
X94259191Y-113580735D01*
X94054401Y-113540000D01*
X93845599Y-113540000D01*
X93640809Y-113580735D01*
X93447902Y-113660640D01*
X93274289Y-113776644D01*
X93126644Y-113924289D01*
X93010640Y-114097902D01*
X92930735Y-114290809D01*
X92890000Y-114495599D01*
X80353000Y-114495599D01*
X80353000Y-114473000D01*
X80373000Y-114473000D01*
X80373000Y-113698750D01*
X80627000Y-113698750D01*
X80627000Y-114473000D01*
X81401250Y-114473000D01*
X81560000Y-114314250D01*
X81563072Y-114175000D01*
X81550812Y-114050518D01*
X81514502Y-113930820D01*
X81455537Y-113820506D01*
X81376185Y-113723815D01*
X81279494Y-113644463D01*
X81169180Y-113585498D01*
X81049482Y-113549188D01*
X80925000Y-113536928D01*
X80785750Y-113540000D01*
X80627000Y-113698750D01*
X80373000Y-113698750D01*
X80214250Y-113540000D01*
X80075000Y-113536928D01*
X80010000Y-113543330D01*
X80010000Y-113287322D01*
X80013676Y-113249999D01*
X80010000Y-113212676D01*
X80010000Y-113212667D01*
X79999003Y-113101014D01*
X79955546Y-112957753D01*
X79884974Y-112825724D01*
X79790001Y-112709999D01*
X79761004Y-112686202D01*
X77063804Y-109989003D01*
X77040001Y-109959999D01*
X76924276Y-109865026D01*
X76792247Y-109794454D01*
X76678665Y-109760000D01*
X96282678Y-109760000D01*
X96320000Y-109763676D01*
X96357322Y-109760000D01*
X96357333Y-109760000D01*
X96468986Y-109749003D01*
X96612247Y-109705546D01*
X96744276Y-109634974D01*
X96860001Y-109540001D01*
X96883804Y-109510997D01*
X108630235Y-97764567D01*
X108656487Y-98031111D01*
X108741401Y-98311034D01*
X108879294Y-98569014D01*
X109064866Y-98795134D01*
X109094687Y-98819607D01*
X109025820Y-98840498D01*
X108915506Y-98899463D01*
X108818815Y-98978815D01*
X108739463Y-99075506D01*
X108680498Y-99185820D01*
X108644188Y-99305518D01*
X108631928Y-99430000D01*
X108631928Y-101130000D01*
X108644188Y-101254482D01*
X108680498Y-101374180D01*
X108739463Y-101484494D01*
X108818815Y-101581185D01*
X108915506Y-101660537D01*
X109025820Y-101719502D01*
X109145518Y-101755812D01*
X109270000Y-101768072D01*
X110970000Y-101768072D01*
X111094482Y-101755812D01*
X111214180Y-101719502D01*
X111324494Y-101660537D01*
X111421185Y-101581185D01*
X111500537Y-101484494D01*
X111559502Y-101374180D01*
X111595812Y-101254482D01*
X111608072Y-101130000D01*
X111608072Y-99430000D01*
X111595812Y-99305518D01*
X111559502Y-99185820D01*
X111500537Y-99075506D01*
X111421185Y-98978815D01*
X111324494Y-98899463D01*
X111214180Y-98840498D01*
X111145313Y-98819607D01*
X111175134Y-98795134D01*
X111360706Y-98569014D01*
X111498599Y-98311034D01*
X111583513Y-98031111D01*
X111612185Y-97740000D01*
X111583513Y-97448889D01*
X111498599Y-97168966D01*
X111360706Y-96910986D01*
X111175134Y-96684866D01*
X110949014Y-96499294D01*
X110894209Y-96470000D01*
X110949014Y-96440706D01*
X111175134Y-96255134D01*
X111360706Y-96029014D01*
X111498599Y-95771034D01*
X111583513Y-95491111D01*
X111612185Y-95200000D01*
X111583513Y-94908889D01*
X111498599Y-94628966D01*
X111360706Y-94370986D01*
X111175134Y-94144866D01*
X110949014Y-93959294D01*
X110894209Y-93930000D01*
X110949014Y-93900706D01*
X111175134Y-93715134D01*
X111360706Y-93489014D01*
X111498599Y-93231034D01*
X111583513Y-92951111D01*
X111612185Y-92660000D01*
X111583513Y-92368889D01*
X111498599Y-92088966D01*
X111360706Y-91830986D01*
X111175134Y-91604866D01*
X110949014Y-91419294D01*
X110894209Y-91390000D01*
X110949014Y-91360706D01*
X111175134Y-91175134D01*
X111360706Y-90949014D01*
X111498599Y-90691034D01*
X111583513Y-90411111D01*
X111612185Y-90120000D01*
X111583513Y-89828889D01*
X111498599Y-89548966D01*
X111360706Y-89290986D01*
X111175134Y-89064866D01*
X110949014Y-88879294D01*
X110894209Y-88850000D01*
X110949014Y-88820706D01*
X111175134Y-88635134D01*
X111360706Y-88409014D01*
X111498599Y-88151034D01*
X111583513Y-87871111D01*
X111612185Y-87580000D01*
X111583513Y-87288889D01*
X111498599Y-87008966D01*
X111360706Y-86750986D01*
X111175134Y-86524866D01*
X110949014Y-86339294D01*
X110884477Y-86304799D01*
X111001355Y-86235178D01*
X111217588Y-86040269D01*
X111391641Y-85806920D01*
X111516825Y-85544099D01*
X111561476Y-85396890D01*
X111440155Y-85167000D01*
X110247000Y-85167000D01*
X110247000Y-85187000D01*
X109993000Y-85187000D01*
X109993000Y-85167000D01*
X108799845Y-85167000D01*
X108678524Y-85396890D01*
X108723175Y-85544099D01*
X108848359Y-85806920D01*
X109022412Y-86040269D01*
X109238645Y-86235178D01*
X109355523Y-86304799D01*
X109290986Y-86339294D01*
X109064866Y-86524866D01*
X108879294Y-86750986D01*
X108741401Y-87008966D01*
X108656487Y-87288889D01*
X108627815Y-87580000D01*
X108656487Y-87871111D01*
X108741401Y-88151034D01*
X108879294Y-88409014D01*
X109064866Y-88635134D01*
X109290986Y-88820706D01*
X109345791Y-88850000D01*
X109290986Y-88879294D01*
X109064866Y-89064866D01*
X108879294Y-89290986D01*
X108741401Y-89548966D01*
X108656487Y-89828889D01*
X108627815Y-90120000D01*
X108656487Y-90411111D01*
X108741401Y-90691034D01*
X108879294Y-90949014D01*
X109064866Y-91175134D01*
X109290986Y-91360706D01*
X109345791Y-91390000D01*
X109290986Y-91419294D01*
X109064866Y-91604866D01*
X108879294Y-91830986D01*
X108741401Y-92088966D01*
X108656487Y-92368889D01*
X108627815Y-92660000D01*
X108656487Y-92951111D01*
X108741401Y-93231034D01*
X108879294Y-93489014D01*
X109064866Y-93715134D01*
X109290986Y-93900706D01*
X109345791Y-93930000D01*
X109290986Y-93959294D01*
X109064866Y-94144866D01*
X108879294Y-94370986D01*
X108741401Y-94628966D01*
X108656487Y-94908889D01*
X108627815Y-95200000D01*
X108656487Y-95491111D01*
X108679203Y-95565995D01*
X96005199Y-108240000D01*
X55914802Y-108240000D01*
X51260000Y-103585199D01*
X51260000Y-101250000D01*
X51361928Y-101250000D01*
X51374188Y-101374482D01*
X51410498Y-101494180D01*
X51469463Y-101604494D01*
X51548815Y-101701185D01*
X51645506Y-101780537D01*
X51755820Y-101839502D01*
X51875518Y-101875812D01*
X52000000Y-101888072D01*
X52214250Y-101885000D01*
X52373000Y-101726250D01*
X52373000Y-100627000D01*
X51523750Y-100627000D01*
X51365000Y-100785750D01*
X51361928Y-101250000D01*
X51260000Y-101250000D01*
X51260000Y-99750000D01*
X51361928Y-99750000D01*
X51365000Y-100214250D01*
X51523750Y-100373000D01*
X52373000Y-100373000D01*
X52373000Y-99273750D01*
X52214250Y-99115000D01*
X52000000Y-99111928D01*
X51875518Y-99124188D01*
X51755820Y-99160498D01*
X51645506Y-99219463D01*
X51548815Y-99298815D01*
X51469463Y-99395506D01*
X51410498Y-99505820D01*
X51374188Y-99625518D01*
X51361928Y-99750000D01*
X51260000Y-99750000D01*
X51260000Y-97250000D01*
X51361928Y-97250000D01*
X51374188Y-97374482D01*
X51410498Y-97494180D01*
X51469463Y-97604494D01*
X51548815Y-97701185D01*
X51645506Y-97780537D01*
X51755820Y-97839502D01*
X51875518Y-97875812D01*
X52000000Y-97888072D01*
X52214250Y-97885000D01*
X52373000Y-97726250D01*
X52373000Y-96627000D01*
X51523750Y-96627000D01*
X51365000Y-96785750D01*
X51361928Y-97250000D01*
X51260000Y-97250000D01*
X51260000Y-96314801D01*
X51364971Y-96209830D01*
X51365000Y-96214250D01*
X51523750Y-96373000D01*
X52373000Y-96373000D01*
X52373000Y-95273750D01*
X52337026Y-95237776D01*
X52664813Y-94909989D01*
X53315210Y-94909989D01*
X53289002Y-94936197D01*
X53259999Y-94959999D01*
X53215946Y-95013678D01*
X53165026Y-95075724D01*
X53137079Y-95128009D01*
X53124482Y-95124188D01*
X53000000Y-95111928D01*
X52785750Y-95115000D01*
X52627000Y-95273750D01*
X52627000Y-96373000D01*
X52647000Y-96373000D01*
X52647000Y-96627000D01*
X52627000Y-96627000D01*
X52627000Y-97726250D01*
X52785750Y-97885000D01*
X53000000Y-97888072D01*
X53124482Y-97875812D01*
X53150000Y-97868071D01*
X53175518Y-97875812D01*
X53300000Y-97888072D01*
X54300000Y-97888072D01*
X54340001Y-97884132D01*
X54340000Y-99115868D01*
X54300000Y-99111928D01*
X53300000Y-99111928D01*
X53175518Y-99124188D01*
X53150000Y-99131929D01*
X53124482Y-99124188D01*
X53000000Y-99111928D01*
X52785750Y-99115000D01*
X52627000Y-99273750D01*
X52627000Y-100373000D01*
X52647000Y-100373000D01*
X52647000Y-100627000D01*
X52627000Y-100627000D01*
X52627000Y-101726250D01*
X52785750Y-101885000D01*
X53000000Y-101888072D01*
X53040000Y-101884132D01*
X53040000Y-102362677D01*
X53036324Y-102400000D01*
X53040000Y-102437322D01*
X53040000Y-102437332D01*
X53050997Y-102548985D01*
X53087281Y-102668599D01*
X53094454Y-102692246D01*
X53165026Y-102824276D01*
X53197362Y-102863677D01*
X53259999Y-102940001D01*
X53289002Y-102963804D01*
X54261202Y-103936004D01*
X54285000Y-103965002D01*
X54400725Y-104059975D01*
X54532754Y-104130547D01*
X54676015Y-104174004D01*
X54787668Y-104185001D01*
X54787677Y-104185001D01*
X54825000Y-104188677D01*
X54862323Y-104185001D01*
X61837677Y-104185001D01*
X61874999Y-104188677D01*
X61912321Y-104185001D01*
X61912332Y-104185001D01*
X62023985Y-104174004D01*
X62167246Y-104130547D01*
X62299275Y-104059975D01*
X62415000Y-103965002D01*
X62438802Y-103935999D01*
X63111002Y-103263799D01*
X63140001Y-103240001D01*
X63234974Y-103124276D01*
X63305546Y-102992247D01*
X63349003Y-102848986D01*
X63360000Y-102737333D01*
X63360000Y-102737324D01*
X63363676Y-102700001D01*
X63360000Y-102662678D01*
X63360000Y-101815010D01*
X63390001Y-101831046D01*
X63390000Y-103312677D01*
X63386324Y-103350000D01*
X63390000Y-103387322D01*
X63390000Y-103387332D01*
X63400997Y-103498985D01*
X63429287Y-103592246D01*
X63444454Y-103642246D01*
X63515026Y-103774276D01*
X63528141Y-103790256D01*
X63609999Y-103890001D01*
X63639003Y-103913804D01*
X66236201Y-106511003D01*
X66259999Y-106540001D01*
X66288997Y-106563799D01*
X66375723Y-106634974D01*
X66507753Y-106705546D01*
X66651014Y-106749003D01*
X66762667Y-106760000D01*
X66762677Y-106760000D01*
X66800000Y-106763676D01*
X66837323Y-106760000D01*
X74062678Y-106760000D01*
X74100000Y-106763676D01*
X74137322Y-106760000D01*
X74137333Y-106760000D01*
X74248986Y-106749003D01*
X74392247Y-106705546D01*
X74524276Y-106634974D01*
X74640001Y-106540001D01*
X74663804Y-106510997D01*
X80507911Y-100666890D01*
X85778524Y-100666890D01*
X85823175Y-100814099D01*
X85948359Y-101076920D01*
X86122412Y-101310269D01*
X86338645Y-101505178D01*
X86588748Y-101654157D01*
X86863109Y-101751481D01*
X87093000Y-101630814D01*
X87093000Y-100437000D01*
X87347000Y-100437000D01*
X87347000Y-101630814D01*
X87576891Y-101751481D01*
X87851252Y-101654157D01*
X88101355Y-101505178D01*
X88317588Y-101310269D01*
X88491641Y-101076920D01*
X88616825Y-100814099D01*
X88661476Y-100666890D01*
X88540155Y-100437000D01*
X87347000Y-100437000D01*
X87093000Y-100437000D01*
X85899845Y-100437000D01*
X85778524Y-100666890D01*
X80507911Y-100666890D01*
X85747270Y-95427532D01*
X85756487Y-95521111D01*
X85841401Y-95801034D01*
X85979294Y-96059014D01*
X86164866Y-96285134D01*
X86390986Y-96470706D01*
X86445791Y-96500000D01*
X86390986Y-96529294D01*
X86164866Y-96714866D01*
X85979294Y-96940986D01*
X85841401Y-97198966D01*
X85756487Y-97478889D01*
X85727815Y-97770000D01*
X85756487Y-98061111D01*
X85841401Y-98341034D01*
X85979294Y-98599014D01*
X86164866Y-98825134D01*
X86390986Y-99010706D01*
X86455523Y-99045201D01*
X86338645Y-99114822D01*
X86122412Y-99309731D01*
X85948359Y-99543080D01*
X85823175Y-99805901D01*
X85778524Y-99953110D01*
X85899845Y-100183000D01*
X87093000Y-100183000D01*
X87093000Y-100163000D01*
X87347000Y-100163000D01*
X87347000Y-100183000D01*
X88540155Y-100183000D01*
X88661476Y-99953110D01*
X88616825Y-99805901D01*
X88491641Y-99543080D01*
X88317588Y-99309731D01*
X88101355Y-99114822D01*
X87984477Y-99045201D01*
X88049014Y-99010706D01*
X88275134Y-98825134D01*
X88460706Y-98599014D01*
X88598599Y-98341034D01*
X88683513Y-98061111D01*
X88712185Y-97770000D01*
X88683513Y-97478889D01*
X88598599Y-97198966D01*
X88460706Y-96940986D01*
X88275134Y-96714866D01*
X88049014Y-96529294D01*
X87994209Y-96500000D01*
X88049014Y-96470706D01*
X88275134Y-96285134D01*
X88460706Y-96059014D01*
X88598599Y-95801034D01*
X88683513Y-95521111D01*
X88712185Y-95230000D01*
X88683513Y-94938889D01*
X88598599Y-94658966D01*
X88460706Y-94400986D01*
X88275134Y-94174866D01*
X88049014Y-93989294D01*
X87994209Y-93960000D01*
X88049014Y-93930706D01*
X88275134Y-93745134D01*
X88460706Y-93519014D01*
X88598599Y-93261034D01*
X88683513Y-92981111D01*
X88712185Y-92690000D01*
X88683513Y-92398889D01*
X88598599Y-92118966D01*
X88460706Y-91860986D01*
X88275134Y-91634866D01*
X88049014Y-91449294D01*
X87994209Y-91420000D01*
X88049014Y-91390706D01*
X88275134Y-91205134D01*
X88460706Y-90979014D01*
X88598599Y-90721034D01*
X88683513Y-90441111D01*
X88712185Y-90150000D01*
X88683513Y-89858889D01*
X88598599Y-89578966D01*
X88460706Y-89320986D01*
X88275134Y-89094866D01*
X88049014Y-88909294D01*
X87994209Y-88880000D01*
X88049014Y-88850706D01*
X88275134Y-88665134D01*
X88460706Y-88439014D01*
X88598599Y-88181034D01*
X88683513Y-87901111D01*
X88712185Y-87610000D01*
X88683513Y-87318889D01*
X88598599Y-87038966D01*
X88460706Y-86780986D01*
X88275134Y-86554866D01*
X88245313Y-86530393D01*
X88314180Y-86509502D01*
X88424494Y-86450537D01*
X88521185Y-86371185D01*
X88600537Y-86274494D01*
X88659502Y-86164180D01*
X88695812Y-86044482D01*
X88708072Y-85920000D01*
X88708072Y-84683110D01*
X108678524Y-84683110D01*
X108799845Y-84913000D01*
X109993000Y-84913000D01*
X109993000Y-83719186D01*
X110247000Y-83719186D01*
X110247000Y-84913000D01*
X111440155Y-84913000D01*
X111561476Y-84683110D01*
X111516825Y-84535901D01*
X111391641Y-84273080D01*
X111217588Y-84039731D01*
X111001355Y-83844822D01*
X110751252Y-83695843D01*
X110476891Y-83598519D01*
X110247000Y-83719186D01*
X109993000Y-83719186D01*
X109763109Y-83598519D01*
X109488748Y-83695843D01*
X109238645Y-83844822D01*
X109022412Y-84039731D01*
X108848359Y-84273080D01*
X108723175Y-84535901D01*
X108678524Y-84683110D01*
X88708072Y-84683110D01*
X88708072Y-84220000D01*
X88695812Y-84095518D01*
X88659502Y-83975820D01*
X88600537Y-83865506D01*
X88521185Y-83768815D01*
X88424494Y-83689463D01*
X88314180Y-83630498D01*
X88194482Y-83594188D01*
X88070000Y-83581928D01*
X86370000Y-83581928D01*
X86245518Y-83594188D01*
X86125820Y-83630498D01*
X86015506Y-83689463D01*
X85918815Y-83768815D01*
X85839463Y-83865506D01*
X85780498Y-83975820D01*
X85744188Y-84095518D01*
X85731928Y-84220000D01*
X85731928Y-85920000D01*
X85744188Y-86044482D01*
X85780498Y-86164180D01*
X85839463Y-86274494D01*
X85918815Y-86371185D01*
X86015506Y-86450537D01*
X86125820Y-86509502D01*
X86194687Y-86530393D01*
X86164866Y-86554866D01*
X85979294Y-86780986D01*
X85841401Y-87038966D01*
X85756487Y-87318889D01*
X85727815Y-87610000D01*
X85756487Y-87901111D01*
X85841401Y-88181034D01*
X85979294Y-88439014D01*
X86164866Y-88665134D01*
X86390986Y-88850706D01*
X86445791Y-88880000D01*
X86390986Y-88909294D01*
X86164866Y-89094866D01*
X85979294Y-89320986D01*
X85841401Y-89578966D01*
X85756487Y-89858889D01*
X85727815Y-90150000D01*
X85756487Y-90441111D01*
X85841401Y-90721034D01*
X85979294Y-90979014D01*
X86164866Y-91205134D01*
X86390986Y-91390706D01*
X86445791Y-91420000D01*
X86390986Y-91449294D01*
X86164866Y-91634866D01*
X85979294Y-91860986D01*
X85841401Y-92118966D01*
X85756487Y-92398889D01*
X85727815Y-92690000D01*
X85756487Y-92981111D01*
X85823424Y-93201774D01*
X73785199Y-105240000D01*
X70817519Y-105240000D01*
X70921034Y-105208599D01*
X71179014Y-105070706D01*
X71405134Y-104885134D01*
X71590706Y-104659014D01*
X71728599Y-104401034D01*
X71813513Y-104121111D01*
X71842185Y-103830000D01*
X71813513Y-103538889D01*
X71728599Y-103258966D01*
X71590706Y-103000986D01*
X71405134Y-102774866D01*
X71179014Y-102589294D01*
X71124209Y-102560000D01*
X71179014Y-102530706D01*
X71405134Y-102345134D01*
X71590706Y-102119014D01*
X71728599Y-101861034D01*
X71813513Y-101581111D01*
X71842185Y-101290000D01*
X71813513Y-100998889D01*
X71728599Y-100718966D01*
X71590706Y-100460986D01*
X71405134Y-100234866D01*
X71179014Y-100049294D01*
X71124209Y-100020000D01*
X71179014Y-99990706D01*
X71405134Y-99805134D01*
X71590706Y-99579014D01*
X71627595Y-99510000D01*
X74612678Y-99510000D01*
X74650000Y-99513676D01*
X74687322Y-99510000D01*
X74687333Y-99510000D01*
X74798986Y-99499003D01*
X74942247Y-99455546D01*
X75074276Y-99384974D01*
X75190001Y-99290001D01*
X75213804Y-99260997D01*
X80311004Y-94163798D01*
X80340001Y-94140001D01*
X80434974Y-94024276D01*
X80505546Y-93892247D01*
X80549003Y-93748986D01*
X80560000Y-93637333D01*
X80560000Y-93637323D01*
X80563676Y-93600000D01*
X80560000Y-93562677D01*
X80560000Y-88714801D01*
X86314802Y-82960000D01*
X112162678Y-82960000D01*
X112200000Y-82963676D01*
X112237322Y-82960000D01*
X112237333Y-82960000D01*
X112348986Y-82949003D01*
X112492247Y-82905546D01*
X112624276Y-82834974D01*
X112740001Y-82740001D01*
X112763804Y-82710997D01*
X117111004Y-78363798D01*
X117140001Y-78340001D01*
X117234974Y-78224276D01*
X117305546Y-78092247D01*
X117349003Y-77948986D01*
X117360000Y-77837333D01*
X117360000Y-77837325D01*
X117363676Y-77800000D01*
X117360000Y-77762675D01*
X117360000Y-58017322D01*
X117363676Y-57979999D01*
X117360000Y-57942676D01*
X117360000Y-57942667D01*
X117349003Y-57831014D01*
X117305546Y-57687753D01*
X117234974Y-57555724D01*
X117140001Y-57439999D01*
X117111003Y-57416201D01*
X113163804Y-53469003D01*
X113163799Y-53468997D01*
X111440797Y-51745996D01*
X111463513Y-51671111D01*
X111492185Y-51380000D01*
X111463513Y-51088889D01*
X111378599Y-50808966D01*
X111240706Y-50550986D01*
X111055134Y-50324866D01*
X110829014Y-50139294D01*
X110571034Y-50001401D01*
X110291111Y-49916487D01*
X110072950Y-49895000D01*
X109927050Y-49895000D01*
X109708889Y-49916487D01*
X109428966Y-50001401D01*
X109170986Y-50139294D01*
X108944866Y-50324866D01*
X108759294Y-50550986D01*
X108621401Y-50808966D01*
X108536487Y-51088889D01*
X108507815Y-51380000D01*
X108536487Y-51671111D01*
X108621401Y-51951034D01*
X108759294Y-52209014D01*
X108944866Y-52435134D01*
X109170986Y-52620706D01*
X109225791Y-52650000D01*
X109170986Y-52679294D01*
X108944866Y-52864866D01*
X108759294Y-53090986D01*
X108722405Y-53160000D01*
X108717322Y-53160000D01*
X108679999Y-53156324D01*
X108642676Y-53160000D01*
X108642667Y-53160000D01*
X108531014Y-53170997D01*
X108387753Y-53214454D01*
X108255724Y-53285026D01*
X108255722Y-53285027D01*
X108255723Y-53285027D01*
X108168996Y-53356201D01*
X108168992Y-53356205D01*
X108139999Y-53379999D01*
X108116205Y-53408992D01*
X106288998Y-55236201D01*
X106260000Y-55259999D01*
X106236202Y-55288997D01*
X106236201Y-55288998D01*
X106165026Y-55375724D01*
X106094454Y-55507754D01*
X106050998Y-55651015D01*
X106036324Y-55800000D01*
X106040001Y-55837332D01*
X106040000Y-59862677D01*
X106036324Y-59900000D01*
X106040000Y-59937322D01*
X106040000Y-59937332D01*
X106050997Y-60048985D01*
X106064707Y-60094180D01*
X106094454Y-60192246D01*
X106165026Y-60324276D01*
X106204871Y-60372826D01*
X106259999Y-60440001D01*
X106289003Y-60463804D01*
X112240001Y-66414803D01*
X112240000Y-78285197D01*
X110885199Y-79640000D01*
X85137323Y-79640000D01*
X85100000Y-79636324D01*
X85062677Y-79640000D01*
X85062667Y-79640000D01*
X84951014Y-79650997D01*
X84807753Y-79694454D01*
X84675724Y-79765026D01*
X84559999Y-79859999D01*
X84536201Y-79888997D01*
X77888998Y-86536201D01*
X77860000Y-86559999D01*
X77836202Y-86588997D01*
X77836201Y-86588998D01*
X77765026Y-86675724D01*
X77694454Y-86807754D01*
X77650998Y-86951015D01*
X77636324Y-87100000D01*
X77640001Y-87137332D01*
X77640000Y-92485198D01*
X74675199Y-95450000D01*
X71627595Y-95450000D01*
X71590706Y-95380986D01*
X71405134Y-95154866D01*
X71179014Y-94969294D01*
X71114477Y-94934799D01*
X71231355Y-94865178D01*
X71447588Y-94670269D01*
X71621641Y-94436920D01*
X71746825Y-94174099D01*
X71791476Y-94026890D01*
X71670155Y-93797000D01*
X70477000Y-93797000D01*
X70477000Y-93817000D01*
X70223000Y-93817000D01*
X70223000Y-93797000D01*
X69029845Y-93797000D01*
X68908524Y-94026890D01*
X68953175Y-94174099D01*
X69078359Y-94436920D01*
X69252412Y-94670269D01*
X69468645Y-94865178D01*
X69585523Y-94934799D01*
X69520986Y-94969294D01*
X69294866Y-95154866D01*
X69109294Y-95380986D01*
X68971401Y-95638966D01*
X68886487Y-95918889D01*
X68857815Y-96210000D01*
X68886487Y-96501111D01*
X68918513Y-96606686D01*
X67985199Y-97540000D01*
X66515010Y-97540000D01*
X66539502Y-97494180D01*
X66575812Y-97374482D01*
X66588072Y-97250000D01*
X66588072Y-97237147D01*
X66692247Y-97205546D01*
X66824276Y-97134974D01*
X66940001Y-97040001D01*
X66963804Y-97010997D01*
X67210997Y-96763804D01*
X67240001Y-96740001D01*
X67334974Y-96624276D01*
X67405546Y-96492247D01*
X67449003Y-96348986D01*
X67460000Y-96237333D01*
X67460000Y-96237324D01*
X67463676Y-96200001D01*
X67460000Y-96162678D01*
X67460000Y-94937325D01*
X67463676Y-94900000D01*
X67460000Y-94862675D01*
X67460000Y-94862667D01*
X67449003Y-94751014D01*
X67405546Y-94607753D01*
X67334974Y-94475724D01*
X67240001Y-94359999D01*
X67210998Y-94336197D01*
X66763804Y-93889003D01*
X66740001Y-93859999D01*
X66624276Y-93765026D01*
X66492247Y-93694454D01*
X66348986Y-93650997D01*
X66310963Y-93647252D01*
X66259774Y-93596063D01*
X66090256Y-93482795D01*
X66020786Y-93454019D01*
X66139803Y-93335002D01*
X66201939Y-93335002D01*
X66401898Y-93295228D01*
X66590256Y-93217207D01*
X66759774Y-93103939D01*
X66903937Y-92959776D01*
X67017205Y-92790258D01*
X67095226Y-92601900D01*
X67135000Y-92401941D01*
X67135000Y-92198063D01*
X67095226Y-91998104D01*
X67017205Y-91809746D01*
X66903937Y-91640228D01*
X66759774Y-91496065D01*
X66590256Y-91382797D01*
X66401898Y-91304776D01*
X66201939Y-91265002D01*
X65998061Y-91265002D01*
X65798102Y-91304776D01*
X65609744Y-91382797D01*
X65440226Y-91496065D01*
X65296063Y-91640228D01*
X65182795Y-91809746D01*
X65104774Y-91998104D01*
X65065000Y-92198063D01*
X65065000Y-92260199D01*
X63638998Y-93686203D01*
X63610000Y-93710001D01*
X63586202Y-93738999D01*
X63586201Y-93739000D01*
X63515026Y-93825726D01*
X63444454Y-93957756D01*
X63414180Y-94057560D01*
X63400998Y-94101016D01*
X63394693Y-94165027D01*
X63386324Y-94250002D01*
X63390001Y-94287334D01*
X63390001Y-95168954D01*
X63295506Y-95219463D01*
X63198815Y-95298815D01*
X63160000Y-95346111D01*
X63160000Y-94937325D01*
X63163676Y-94900000D01*
X63160000Y-94862675D01*
X63160000Y-94862667D01*
X63149003Y-94751014D01*
X63105546Y-94607753D01*
X63034974Y-94475724D01*
X62940001Y-94359999D01*
X62911003Y-94336201D01*
X62147521Y-93572720D01*
X62189502Y-93494180D01*
X62225812Y-93374482D01*
X62238072Y-93250000D01*
X62235000Y-92785750D01*
X62076250Y-92627000D01*
X61227000Y-92627000D01*
X61227000Y-92647000D01*
X60973000Y-92647000D01*
X60973000Y-92627000D01*
X60953000Y-92627000D01*
X60953000Y-92373000D01*
X60973000Y-92373000D01*
X60973000Y-91273750D01*
X61227000Y-91273750D01*
X61227000Y-92373000D01*
X62076250Y-92373000D01*
X62235000Y-92214250D01*
X62238072Y-91750000D01*
X62225812Y-91625518D01*
X62189502Y-91505820D01*
X62130537Y-91395506D01*
X62051185Y-91298815D01*
X61954494Y-91219463D01*
X61844180Y-91160498D01*
X61724482Y-91124188D01*
X61600000Y-91111928D01*
X61385750Y-91115000D01*
X61227000Y-91273750D01*
X60973000Y-91273750D01*
X60814250Y-91115000D01*
X60600000Y-91111928D01*
X60475518Y-91124188D01*
X60450000Y-91131929D01*
X60424482Y-91124188D01*
X60300000Y-91111928D01*
X59962874Y-91111928D01*
X60114802Y-90960000D01*
X67385199Y-90960000D01*
X68066201Y-91641003D01*
X68089999Y-91670001D01*
X68118997Y-91693799D01*
X68205724Y-91764974D01*
X68337753Y-91835546D01*
X68481014Y-91879003D01*
X68630000Y-91893677D01*
X68667333Y-91890000D01*
X68861928Y-91890000D01*
X68861928Y-91980000D01*
X68874188Y-92104482D01*
X68910498Y-92224180D01*
X68969463Y-92334494D01*
X69048815Y-92431185D01*
X69145506Y-92510537D01*
X69255820Y-92569502D01*
X69336466Y-92593966D01*
X69252412Y-92669731D01*
X69078359Y-92903080D01*
X68953175Y-93165901D01*
X68908524Y-93313110D01*
X69029845Y-93543000D01*
X70223000Y-93543000D01*
X70223000Y-93523000D01*
X70477000Y-93523000D01*
X70477000Y-93543000D01*
X71670155Y-93543000D01*
X71791476Y-93313110D01*
X71746825Y-93165901D01*
X71621641Y-92903080D01*
X71447588Y-92669731D01*
X71363534Y-92593966D01*
X71444180Y-92569502D01*
X71554494Y-92510537D01*
X71651185Y-92431185D01*
X71730537Y-92334494D01*
X71789502Y-92224180D01*
X71825812Y-92104482D01*
X71838072Y-91980000D01*
X71838072Y-90280000D01*
X71825812Y-90155518D01*
X71789502Y-90035820D01*
X71730537Y-89925506D01*
X71651185Y-89828815D01*
X71554494Y-89749463D01*
X71444180Y-89690498D01*
X71324482Y-89654188D01*
X71200000Y-89641928D01*
X69500000Y-89641928D01*
X69375518Y-89654188D01*
X69255820Y-89690498D01*
X69145506Y-89749463D01*
X69048815Y-89828815D01*
X68969463Y-89925506D01*
X68910498Y-90035820D01*
X68874188Y-90155518D01*
X68861928Y-90280000D01*
X68861928Y-90287126D01*
X68263803Y-89689002D01*
X68240001Y-89659999D01*
X68124276Y-89565026D01*
X67992247Y-89494454D01*
X67848986Y-89450997D01*
X67737333Y-89440000D01*
X67737322Y-89440000D01*
X67700000Y-89436324D01*
X67662678Y-89440000D01*
X59837325Y-89440000D01*
X59800000Y-89436324D01*
X59762675Y-89440000D01*
X59762667Y-89440000D01*
X59651014Y-89450997D01*
X59507753Y-89494454D01*
X59375724Y-89565026D01*
X59259999Y-89659999D01*
X59236201Y-89688997D01*
X57988998Y-90936201D01*
X57960000Y-90959999D01*
X57936202Y-90988997D01*
X57936201Y-90988998D01*
X57865026Y-91075724D01*
X57832078Y-91137365D01*
X57755820Y-91160498D01*
X57645506Y-91219463D01*
X57548815Y-91298815D01*
X57469463Y-91395506D01*
X57410498Y-91505820D01*
X57374188Y-91625518D01*
X57361928Y-91750000D01*
X57361928Y-93250000D01*
X57374188Y-93374482D01*
X57378892Y-93389989D01*
X52387336Y-93389989D01*
X52350011Y-93386313D01*
X52312686Y-93389989D01*
X52312678Y-93389989D01*
X52201025Y-93400986D01*
X52057764Y-93444443D01*
X51925735Y-93515015D01*
X51810010Y-93609988D01*
X51786212Y-93638986D01*
X49989003Y-95436196D01*
X49959999Y-95459999D01*
X49918144Y-95511000D01*
X49865026Y-95575724D01*
X49814635Y-95669999D01*
X49794454Y-95707754D01*
X49750997Y-95851015D01*
X49740000Y-95962668D01*
X49740000Y-95962678D01*
X49736324Y-96000000D01*
X49740000Y-96037322D01*
X49740001Y-103862668D01*
X49736324Y-103900000D01*
X49740001Y-103937333D01*
X49750998Y-104048986D01*
X49755454Y-104063676D01*
X49794454Y-104192246D01*
X49865026Y-104324276D01*
X49936201Y-104411002D01*
X49960000Y-104440001D01*
X49988998Y-104463799D01*
X55036201Y-109511003D01*
X55059999Y-109540001D01*
X55175724Y-109634974D01*
X55307753Y-109705546D01*
X55421335Y-109740000D01*
X51714802Y-109740000D01*
X43660000Y-101685199D01*
X43660000Y-79166894D01*
X43770617Y-79200450D01*
X43900000Y-79213193D01*
X43932419Y-79210000D01*
X110067581Y-79210000D01*
X110100000Y-79213193D01*
X110132419Y-79210000D01*
X110229383Y-79200450D01*
X110353793Y-79162710D01*
X110468450Y-79101425D01*
X110568948Y-79018948D01*
X110651425Y-78918450D01*
X110712710Y-78803793D01*
X110750450Y-78679383D01*
X110763193Y-78550000D01*
X110760000Y-78517581D01*
X110760000Y-68382419D01*
X110763193Y-68350000D01*
X110750450Y-68220617D01*
X110712710Y-68096207D01*
X110651425Y-67981550D01*
X110568948Y-67881052D01*
X110468450Y-67798575D01*
X110353793Y-67737290D01*
X110229383Y-67699550D01*
X110132419Y-67690000D01*
X110100000Y-67686807D01*
X110067581Y-67690000D01*
X43932419Y-67690000D01*
X43900000Y-67686807D01*
X43867581Y-67690000D01*
X43770617Y-67699550D01*
X43646207Y-67737290D01*
X43531550Y-67798575D01*
X43431052Y-67881052D01*
X43348575Y-67981550D01*
X43287290Y-68096207D01*
X43249550Y-68220617D01*
X43236807Y-68350000D01*
X43240001Y-68382429D01*
X43240001Y-69165198D01*
X40460000Y-66385199D01*
X40460000Y-51380000D01*
X93607815Y-51380000D01*
X93636487Y-51671111D01*
X93721401Y-51951034D01*
X93859294Y-52209014D01*
X94044866Y-52435134D01*
X94270986Y-52620706D01*
X94325791Y-52650000D01*
X94270986Y-52679294D01*
X94044866Y-52864866D01*
X93859294Y-53090986D01*
X93721401Y-53348966D01*
X93636487Y-53628889D01*
X93607815Y-53920000D01*
X93636487Y-54211111D01*
X93721401Y-54491034D01*
X93859294Y-54749014D01*
X94044866Y-54975134D01*
X94270986Y-55160706D01*
X94325791Y-55190000D01*
X94270986Y-55219294D01*
X94044866Y-55404866D01*
X93859294Y-55630986D01*
X93721401Y-55888966D01*
X93636487Y-56168889D01*
X93607815Y-56460000D01*
X93636487Y-56751111D01*
X93721401Y-57031034D01*
X93859294Y-57289014D01*
X94044866Y-57515134D01*
X94074687Y-57539607D01*
X94005820Y-57560498D01*
X93895506Y-57619463D01*
X93798815Y-57698815D01*
X93719463Y-57795506D01*
X93660498Y-57905820D01*
X93624188Y-58025518D01*
X93611928Y-58150000D01*
X93611928Y-59850000D01*
X93624188Y-59974482D01*
X93660498Y-60094180D01*
X93719463Y-60204494D01*
X93798815Y-60301185D01*
X93895506Y-60380537D01*
X94005820Y-60439502D01*
X94125518Y-60475812D01*
X94250000Y-60488072D01*
X95950000Y-60488072D01*
X96074482Y-60475812D01*
X96194180Y-60439502D01*
X96304494Y-60380537D01*
X96401185Y-60301185D01*
X96480537Y-60204494D01*
X96539502Y-60094180D01*
X96575812Y-59974482D01*
X96588072Y-59850000D01*
X96588072Y-58150000D01*
X96575812Y-58025518D01*
X96539502Y-57905820D01*
X96480537Y-57795506D01*
X96401185Y-57698815D01*
X96304494Y-57619463D01*
X96194180Y-57560498D01*
X96125313Y-57539607D01*
X96155134Y-57515134D01*
X96340706Y-57289014D01*
X96478599Y-57031034D01*
X96563513Y-56751111D01*
X96592185Y-56460000D01*
X96563513Y-56168889D01*
X96478599Y-55888966D01*
X96340706Y-55630986D01*
X96155134Y-55404866D01*
X95929014Y-55219294D01*
X95874209Y-55190000D01*
X95929014Y-55160706D01*
X96155134Y-54975134D01*
X96340706Y-54749014D01*
X96478599Y-54491034D01*
X96563513Y-54211111D01*
X96592185Y-53920000D01*
X96563513Y-53628889D01*
X96478599Y-53348966D01*
X96340706Y-53090986D01*
X96155134Y-52864866D01*
X95929014Y-52679294D01*
X95874209Y-52650000D01*
X95929014Y-52620706D01*
X96155134Y-52435134D01*
X96340706Y-52209014D01*
X96478599Y-51951034D01*
X96563513Y-51671111D01*
X96592185Y-51380000D01*
X96563513Y-51088889D01*
X96478599Y-50808966D01*
X96340706Y-50550986D01*
X96155134Y-50324866D01*
X95929014Y-50139294D01*
X95671034Y-50001401D01*
X95391111Y-49916487D01*
X95172950Y-49895000D01*
X95027050Y-49895000D01*
X94808889Y-49916487D01*
X94528966Y-50001401D01*
X94270986Y-50139294D01*
X94044866Y-50324866D01*
X93859294Y-50550986D01*
X93721401Y-50808966D01*
X93636487Y-51088889D01*
X93607815Y-51380000D01*
X40460000Y-51380000D01*
X40460000Y-47414801D01*
X41349801Y-46525000D01*
X43936928Y-46525000D01*
X43949188Y-46649482D01*
X43985498Y-46769180D01*
X44044463Y-46879494D01*
X44123815Y-46976185D01*
X44220506Y-47055537D01*
X44330820Y-47114502D01*
X44450518Y-47150812D01*
X44575000Y-47163072D01*
X44714250Y-47160000D01*
X44873000Y-47001250D01*
X44873000Y-46227000D01*
X45127000Y-46227000D01*
X45127000Y-47001250D01*
X45285750Y-47160000D01*
X45425000Y-47163072D01*
X45549482Y-47150812D01*
X45669180Y-47114502D01*
X45779494Y-47055537D01*
X45876185Y-46976185D01*
X45955537Y-46879494D01*
X46014502Y-46769180D01*
X46050812Y-46649482D01*
X46063072Y-46525000D01*
X46060866Y-46425000D01*
X108936928Y-46425000D01*
X108949188Y-46549482D01*
X108985498Y-46669180D01*
X109044463Y-46779494D01*
X109123815Y-46876185D01*
X109220506Y-46955537D01*
X109330820Y-47014502D01*
X109450518Y-47050812D01*
X109575000Y-47063072D01*
X109714250Y-47060000D01*
X109873000Y-46901250D01*
X109873000Y-46127000D01*
X110127000Y-46127000D01*
X110127000Y-46901250D01*
X110285750Y-47060000D01*
X110425000Y-47063072D01*
X110549482Y-47050812D01*
X110669180Y-47014502D01*
X110779494Y-46955537D01*
X110876185Y-46876185D01*
X110955537Y-46779494D01*
X111014502Y-46669180D01*
X111050812Y-46549482D01*
X111063072Y-46425000D01*
X111060000Y-46285750D01*
X110901250Y-46127000D01*
X110127000Y-46127000D01*
X109873000Y-46127000D01*
X109098750Y-46127000D01*
X108940000Y-46285750D01*
X108936928Y-46425000D01*
X46060866Y-46425000D01*
X46060000Y-46385750D01*
X45901250Y-46227000D01*
X45127000Y-46227000D01*
X44873000Y-46227000D01*
X44098750Y-46227000D01*
X43940000Y-46385750D01*
X43936928Y-46525000D01*
X41349801Y-46525000D01*
X42264802Y-45610000D01*
X43943330Y-45610000D01*
X43936928Y-45675000D01*
X43940000Y-45814250D01*
X44098750Y-45973000D01*
X44873000Y-45973000D01*
X44873000Y-45953000D01*
X45127000Y-45953000D01*
X45127000Y-45973000D01*
X45901250Y-45973000D01*
X46060000Y-45814250D01*
X46063072Y-45675000D01*
X46056670Y-45610000D01*
X108937700Y-45610000D01*
X108940000Y-45714250D01*
X109098750Y-45873000D01*
X109873000Y-45873000D01*
X109873000Y-45853000D01*
X110127000Y-45853000D01*
X110127000Y-45873000D01*
X110901250Y-45873000D01*
X111060000Y-45714250D01*
X111063072Y-45575000D01*
X111050812Y-45450518D01*
X111014502Y-45330820D01*
X110955537Y-45220506D01*
X110953483Y-45218003D01*
X111019265Y-45059191D01*
X111060000Y-44854401D01*
X111060000Y-44645599D01*
X111019265Y-44440809D01*
X110939360Y-44247902D01*
X110857240Y-44125000D01*
X110939360Y-44002098D01*
X111019265Y-43809191D01*
X111060000Y-43604401D01*
X111060000Y-43395599D01*
X111019265Y-43190809D01*
X110939360Y-42997902D01*
X110857240Y-42875000D01*
X110939360Y-42752098D01*
X111019265Y-42559191D01*
X111060000Y-42354401D01*
X111060000Y-42145599D01*
X111019265Y-41940809D01*
X110939360Y-41747902D01*
X110823356Y-41574289D01*
X110675711Y-41426644D01*
X110502098Y-41310640D01*
X110309191Y-41230735D01*
X110104401Y-41190000D01*
X109895599Y-41190000D01*
X109690809Y-41230735D01*
X109497902Y-41310640D01*
X109324289Y-41426644D01*
X109210933Y-41540000D01*
X45689067Y-41540000D01*
X45675711Y-41526644D01*
X45502098Y-41410640D01*
X45309191Y-41330735D01*
X45104401Y-41290000D01*
X44895599Y-41290000D01*
X44690809Y-41330735D01*
X44497902Y-41410640D01*
X44324289Y-41526644D01*
X44260933Y-41590000D01*
X41087325Y-41590000D01*
X41050000Y-41586324D01*
X41012675Y-41590000D01*
X41012667Y-41590000D01*
X40901014Y-41600997D01*
X40757753Y-41644454D01*
X40625724Y-41715026D01*
X40509999Y-41809999D01*
X40486201Y-41838997D01*
X37689003Y-44636196D01*
X37659999Y-44659999D01*
X37604871Y-44727174D01*
X37565026Y-44775724D01*
X37522972Y-44854401D01*
X37494454Y-44907754D01*
X37450997Y-45051015D01*
X37440000Y-45162668D01*
X37440000Y-45162678D01*
X37436324Y-45200000D01*
X36360000Y-45200000D01*
X36360000Y-38016473D01*
X36464886Y-38173446D01*
X36901554Y-38610114D01*
X37415021Y-38953201D01*
X37985554Y-39189524D01*
X38591229Y-39310000D01*
X39208771Y-39310000D01*
X39814446Y-39189524D01*
X40384979Y-38953201D01*
X40898446Y-38610114D01*
X41335114Y-38173446D01*
X41678201Y-37659979D01*
X41914524Y-37089446D01*
X42035000Y-36483771D01*
X42035000Y-35866229D01*
X41914524Y-35260554D01*
X41678201Y-34690021D01*
X41335114Y-34176554D01*
X40898446Y-33739886D01*
X40704057Y-33610000D01*
X113258527Y-33610000D01*
X113101554Y-33714886D01*
X113101554Y-33714886D01*
G37*
X113101554Y-33714886D02*
X112664886Y-34151554D01*
X112321799Y-34665021D01*
X112085476Y-35235554D01*
X111965000Y-35841229D01*
X111965000Y-36458771D01*
X112085476Y-37064446D01*
X112321799Y-37634979D01*
X112664886Y-38148446D01*
X113101554Y-38585114D01*
X113615021Y-38928201D01*
X114185554Y-39164524D01*
X114791229Y-39285000D01*
X115408771Y-39285000D01*
X116014446Y-39164524D01*
X116584979Y-38928201D01*
X117098446Y-38585114D01*
X117535114Y-38148446D01*
X117640000Y-37991473D01*
X117640001Y-125908529D01*
X117535114Y-125751554D01*
X117098446Y-125314886D01*
X116584979Y-124971799D01*
X116014446Y-124735476D01*
X115408771Y-124615000D01*
X114791229Y-124615000D01*
X114185554Y-124735476D01*
X113615021Y-124971799D01*
X113101554Y-125314886D01*
X112664886Y-125751554D01*
X112321799Y-126265021D01*
X112085476Y-126835554D01*
X111965000Y-127441229D01*
X111965000Y-128058771D01*
X112085476Y-128664446D01*
X112321799Y-129234979D01*
X112664886Y-129748446D01*
X113101554Y-130185114D01*
X113258527Y-130290000D01*
X40741473Y-130290000D01*
X40898446Y-130185114D01*
X41335114Y-129748446D01*
X41678201Y-129234979D01*
X41914524Y-128664446D01*
X42035000Y-128058771D01*
X42035000Y-127441229D01*
X41914524Y-126835554D01*
X41678201Y-126265021D01*
X41335114Y-125751554D01*
X40898446Y-125314886D01*
X40384979Y-124971799D01*
X39814446Y-124735476D01*
X39208771Y-124615000D01*
X38591229Y-124615000D01*
X37985554Y-124735476D01*
X37415021Y-124971799D01*
X36901554Y-125314886D01*
X36464886Y-125751554D01*
X36360000Y-125908527D01*
X36360000Y-45200000D01*
X37436324Y-45200000D01*
X37440000Y-45237322D01*
X37440001Y-67362667D01*
X37436324Y-67400000D01*
X37450998Y-67548985D01*
X37494454Y-67692246D01*
X37565026Y-67824276D01*
X37636201Y-67911002D01*
X37660000Y-67940001D01*
X37688998Y-67963799D01*
X40440000Y-70714802D01*
X40440001Y-102762667D01*
X40436324Y-102800000D01*
X40440001Y-102837333D01*
X40450998Y-102948986D01*
X40464121Y-102992246D01*
X40494454Y-103092246D01*
X40565026Y-103224276D01*
X40636201Y-103311002D01*
X40660000Y-103340001D01*
X40688998Y-103363799D01*
X49936200Y-112611002D01*
X49959999Y-112640001D01*
X49988997Y-112663799D01*
X50075723Y-112734974D01*
X50197377Y-112800000D01*
X50207753Y-112805546D01*
X50351014Y-112849003D01*
X50462667Y-112860000D01*
X50462676Y-112860000D01*
X50499999Y-112863676D01*
X50537322Y-112860000D01*
X74885199Y-112860000D01*
X75938066Y-113912867D01*
X75926644Y-113924289D01*
X75810640Y-114097902D01*
X75730735Y-114290809D01*
X75690000Y-114495599D01*
X75690000Y-114704401D01*
X75730735Y-114909191D01*
X75810640Y-115102098D01*
X75926644Y-115275711D01*
X76074289Y-115423356D01*
X76247902Y-115539360D01*
X76440809Y-115619265D01*
X76645599Y-115660000D01*
X76854401Y-115660000D01*
X77059191Y-115619265D01*
X77252098Y-115539360D01*
X77375000Y-115457240D01*
X77497902Y-115539360D01*
X77690809Y-115619265D01*
X77895599Y-115660000D01*
X78104401Y-115660000D01*
X78309191Y-115619265D01*
X78502098Y-115539360D01*
X78625000Y-115457240D01*
X78747902Y-115539360D01*
X78940809Y-115619265D01*
X79145599Y-115660000D01*
X79354401Y-115660000D01*
X79559191Y-115619265D01*
X79718003Y-115553483D01*
X79720506Y-115555537D01*
X79830820Y-115614502D01*
X79950518Y-115650812D01*
X80075000Y-115663072D01*
X80214250Y-115660000D01*
X80373000Y-115501250D01*
X80373000Y-114727000D01*
X80627000Y-114727000D01*
X80627000Y-115501250D01*
X80785750Y-115660000D01*
X80925000Y-115663072D01*
X81049482Y-115650812D01*
X81169180Y-115614502D01*
X81279494Y-115555537D01*
X81376185Y-115476185D01*
X81455537Y-115379494D01*
X81514502Y-115269180D01*
X81550812Y-115149482D01*
X81563072Y-115025000D01*
X81560000Y-114885750D01*
X81401250Y-114727000D01*
X80627000Y-114727000D01*
X80373000Y-114727000D01*
X80353000Y-114727000D01*
X80353000Y-114495599D01*
X92890000Y-114495599D01*
X92890000Y-114704401D01*
X92930735Y-114909191D01*
X93010640Y-115102098D01*
X93126644Y-115275711D01*
X93274289Y-115423356D01*
X93447902Y-115539360D01*
X93640809Y-115619265D01*
X93845599Y-115660000D01*
X94054401Y-115660000D01*
X94259191Y-115619265D01*
X94452098Y-115539360D01*
X94575000Y-115457240D01*
X94697902Y-115539360D01*
X94890809Y-115619265D01*
X95095599Y-115660000D01*
X95304401Y-115660000D01*
X95509191Y-115619265D01*
X95702098Y-115539360D01*
X95825000Y-115457240D01*
X95947902Y-115539360D01*
X96140809Y-115619265D01*
X96345599Y-115660000D01*
X96554401Y-115660000D01*
X96759191Y-115619265D01*
X96918003Y-115553483D01*
X96920506Y-115555537D01*
X97030820Y-115614502D01*
X97150518Y-115650812D01*
X97275000Y-115663072D01*
X97414250Y-115660000D01*
X97573000Y-115501250D01*
X97573000Y-114727000D01*
X97827000Y-114727000D01*
X97827000Y-115501250D01*
X97985750Y-115660000D01*
X98125000Y-115663072D01*
X98249482Y-115650812D01*
X98369180Y-115614502D01*
X98479494Y-115555537D01*
X98576185Y-115476185D01*
X98655537Y-115379494D01*
X98714502Y-115269180D01*
X98750812Y-115149482D01*
X98763072Y-115025000D01*
X98760000Y-114885750D01*
X98601250Y-114727000D01*
X97827000Y-114727000D01*
X97573000Y-114727000D01*
X97553000Y-114727000D01*
X97553000Y-114685384D01*
X101688298Y-114685384D01*
X101725356Y-114890870D01*
X101801790Y-115085179D01*
X101819790Y-115118856D01*
X102025614Y-115144781D01*
X102570395Y-114600000D01*
X102025614Y-114055219D01*
X101819790Y-114081144D01*
X101736440Y-114272588D01*
X101692041Y-114476616D01*
X101688298Y-114685384D01*
X97553000Y-114685384D01*
X97553000Y-114473000D01*
X97573000Y-114473000D01*
X97573000Y-114453000D01*
X97827000Y-114453000D01*
X97827000Y-114473000D01*
X98601250Y-114473000D01*
X98760000Y-114314250D01*
X98763072Y-114175000D01*
X98750812Y-114050518D01*
X98714502Y-113930820D01*
X98655537Y-113820506D01*
X98576185Y-113723815D01*
X98479494Y-113644463D01*
X98369180Y-113585498D01*
X98285124Y-113560000D01*
X102544279Y-113560000D01*
X102459130Y-113575356D01*
X102264821Y-113651790D01*
X102231144Y-113669790D01*
X102205219Y-113875614D01*
X102750000Y-114420395D01*
X102764143Y-114406253D01*
X102940000Y-114582110D01*
X102940000Y-114589605D01*
X102929605Y-114600000D01*
X102940000Y-114610395D01*
X102940000Y-114617890D01*
X102764143Y-114793748D01*
X102750000Y-114779605D01*
X102205219Y-115324386D01*
X102231144Y-115530210D01*
X102422588Y-115613560D01*
X102626616Y-115657959D01*
X102835384Y-115661702D01*
X103040870Y-115624644D01*
X103235179Y-115548210D01*
X103268856Y-115530210D01*
X103287011Y-115386078D01*
X103324289Y-115423356D01*
X103497902Y-115539360D01*
X103690809Y-115619265D01*
X103895599Y-115660000D01*
X104104401Y-115660000D01*
X104309191Y-115619265D01*
X104502098Y-115539360D01*
X104625000Y-115457240D01*
X104747902Y-115539360D01*
X104940809Y-115619265D01*
X105145599Y-115660000D01*
X105354401Y-115660000D01*
X105559191Y-115619265D01*
X105752098Y-115539360D01*
X105875000Y-115457240D01*
X105997902Y-115539360D01*
X106190809Y-115619265D01*
X106395599Y-115660000D01*
X106604401Y-115660000D01*
X106809191Y-115619265D01*
X107002098Y-115539360D01*
X107125000Y-115457240D01*
X107247902Y-115539360D01*
X107440809Y-115619265D01*
X107645599Y-115660000D01*
X107854401Y-115660000D01*
X108059191Y-115619265D01*
X108218003Y-115553483D01*
X108220506Y-115555537D01*
X108330820Y-115614502D01*
X108450518Y-115650812D01*
X108575000Y-115663072D01*
X109425000Y-115663072D01*
X109549482Y-115650812D01*
X109669180Y-115614502D01*
X109779494Y-115555537D01*
X109876185Y-115476185D01*
X109955537Y-115379494D01*
X110014502Y-115269180D01*
X110050812Y-115149482D01*
X110063072Y-115025000D01*
X110063072Y-114175000D01*
X110050812Y-114050518D01*
X110014502Y-113930820D01*
X109955537Y-113820506D01*
X109876185Y-113723815D01*
X109779494Y-113644463D01*
X109669180Y-113585498D01*
X109549482Y-113549188D01*
X109425000Y-113536928D01*
X108575000Y-113536928D01*
X108450518Y-113549188D01*
X108330820Y-113585498D01*
X108220506Y-113644463D01*
X108218003Y-113646517D01*
X108059191Y-113580735D01*
X107854401Y-113540000D01*
X107645599Y-113540000D01*
X107440809Y-113580735D01*
X107247902Y-113660640D01*
X107125000Y-113742760D01*
X107002098Y-113660640D01*
X106809191Y-113580735D01*
X106604401Y-113540000D01*
X106395599Y-113540000D01*
X106190809Y-113580735D01*
X105997902Y-113660640D01*
X105875000Y-113742760D01*
X105752098Y-113660640D01*
X105559191Y-113580735D01*
X105354401Y-113540000D01*
X105145599Y-113540000D01*
X104940809Y-113580735D01*
X104749871Y-113659825D01*
X104749003Y-113651014D01*
X104705546Y-113507753D01*
X104634974Y-113375724D01*
X104563799Y-113288997D01*
X104540001Y-113259999D01*
X104511004Y-113236202D01*
X103563804Y-112289002D01*
X103540001Y-112259999D01*
X103424276Y-112165026D01*
X103292247Y-112094454D01*
X103148986Y-112050997D01*
X103037333Y-112040000D01*
X103037322Y-112040000D01*
X103000000Y-112036324D01*
X102962678Y-112040000D01*
X97437323Y-112040000D01*
X97400000Y-112036324D01*
X97362677Y-112040000D01*
X97362667Y-112040000D01*
X97251014Y-112050997D01*
X97107753Y-112094454D01*
X96975723Y-112165026D01*
X96892083Y-112233668D01*
X96859999Y-112259999D01*
X96836201Y-112288997D01*
X95938998Y-113186201D01*
X95910000Y-113209999D01*
X95886202Y-113238997D01*
X95886201Y-113238998D01*
X95815026Y-113325724D01*
X95744454Y-113457754D01*
X95720438Y-113536928D01*
X95700998Y-113601014D01*
X95695398Y-113657865D01*
X95509191Y-113580735D01*
X95304401Y-113540000D01*
X95095599Y-113540000D01*
X94890809Y-113580735D01*
X94697902Y-113660640D01*
X94575000Y-113742760D01*
X94452098Y-113660640D01*
X94259191Y-113580735D01*
X94054401Y-113540000D01*
X93845599Y-113540000D01*
X93640809Y-113580735D01*
X93447902Y-113660640D01*
X93274289Y-113776644D01*
X93126644Y-113924289D01*
X93010640Y-114097902D01*
X92930735Y-114290809D01*
X92890000Y-114495599D01*
X80353000Y-114495599D01*
X80353000Y-114473000D01*
X80373000Y-114473000D01*
X80373000Y-113698750D01*
X80627000Y-113698750D01*
X80627000Y-114473000D01*
X81401250Y-114473000D01*
X81560000Y-114314250D01*
X81563072Y-114175000D01*
X81550812Y-114050518D01*
X81514502Y-113930820D01*
X81455537Y-113820506D01*
X81376185Y-113723815D01*
X81279494Y-113644463D01*
X81169180Y-113585498D01*
X81049482Y-113549188D01*
X80925000Y-113536928D01*
X80785750Y-113540000D01*
X80627000Y-113698750D01*
X80373000Y-113698750D01*
X80214250Y-113540000D01*
X80075000Y-113536928D01*
X80010000Y-113543330D01*
X80010000Y-113287322D01*
X80013676Y-113249999D01*
X80010000Y-113212676D01*
X80010000Y-113212667D01*
X79999003Y-113101014D01*
X79955546Y-112957753D01*
X79884974Y-112825724D01*
X79790001Y-112709999D01*
X79761004Y-112686202D01*
X77063804Y-109989003D01*
X77040001Y-109959999D01*
X76924276Y-109865026D01*
X76792247Y-109794454D01*
X76678665Y-109760000D01*
X96282678Y-109760000D01*
X96320000Y-109763676D01*
X96357322Y-109760000D01*
X96357333Y-109760000D01*
X96468986Y-109749003D01*
X96612247Y-109705546D01*
X96744276Y-109634974D01*
X96860001Y-109540001D01*
X96883804Y-109510997D01*
X108630235Y-97764567D01*
X108656487Y-98031111D01*
X108741401Y-98311034D01*
X108879294Y-98569014D01*
X109064866Y-98795134D01*
X109094687Y-98819607D01*
X109025820Y-98840498D01*
X108915506Y-98899463D01*
X108818815Y-98978815D01*
X108739463Y-99075506D01*
X108680498Y-99185820D01*
X108644188Y-99305518D01*
X108631928Y-99430000D01*
X108631928Y-101130000D01*
X108644188Y-101254482D01*
X108680498Y-101374180D01*
X108739463Y-101484494D01*
X108818815Y-101581185D01*
X108915506Y-101660537D01*
X109025820Y-101719502D01*
X109145518Y-101755812D01*
X109270000Y-101768072D01*
X110970000Y-101768072D01*
X111094482Y-101755812D01*
X111214180Y-101719502D01*
X111324494Y-101660537D01*
X111421185Y-101581185D01*
X111500537Y-101484494D01*
X111559502Y-101374180D01*
X111595812Y-101254482D01*
X111608072Y-101130000D01*
X111608072Y-99430000D01*
X111595812Y-99305518D01*
X111559502Y-99185820D01*
X111500537Y-99075506D01*
X111421185Y-98978815D01*
X111324494Y-98899463D01*
X111214180Y-98840498D01*
X111145313Y-98819607D01*
X111175134Y-98795134D01*
X111360706Y-98569014D01*
X111498599Y-98311034D01*
X111583513Y-98031111D01*
X111612185Y-97740000D01*
X111583513Y-97448889D01*
X111498599Y-97168966D01*
X111360706Y-96910986D01*
X111175134Y-96684866D01*
X110949014Y-96499294D01*
X110894209Y-96470000D01*
X110949014Y-96440706D01*
X111175134Y-96255134D01*
X111360706Y-96029014D01*
X111498599Y-95771034D01*
X111583513Y-95491111D01*
X111612185Y-95200000D01*
X111583513Y-94908889D01*
X111498599Y-94628966D01*
X111360706Y-94370986D01*
X111175134Y-94144866D01*
X110949014Y-93959294D01*
X110894209Y-93930000D01*
X110949014Y-93900706D01*
X111175134Y-93715134D01*
X111360706Y-93489014D01*
X111498599Y-93231034D01*
X111583513Y-92951111D01*
X111612185Y-92660000D01*
X111583513Y-92368889D01*
X111498599Y-92088966D01*
X111360706Y-91830986D01*
X111175134Y-91604866D01*
X110949014Y-91419294D01*
X110894209Y-91390000D01*
X110949014Y-91360706D01*
X111175134Y-91175134D01*
X111360706Y-90949014D01*
X111498599Y-90691034D01*
X111583513Y-90411111D01*
X111612185Y-90120000D01*
X111583513Y-89828889D01*
X111498599Y-89548966D01*
X111360706Y-89290986D01*
X111175134Y-89064866D01*
X110949014Y-88879294D01*
X110894209Y-88850000D01*
X110949014Y-88820706D01*
X111175134Y-88635134D01*
X111360706Y-88409014D01*
X111498599Y-88151034D01*
X111583513Y-87871111D01*
X111612185Y-87580000D01*
X111583513Y-87288889D01*
X111498599Y-87008966D01*
X111360706Y-86750986D01*
X111175134Y-86524866D01*
X110949014Y-86339294D01*
X110884477Y-86304799D01*
X111001355Y-86235178D01*
X111217588Y-86040269D01*
X111391641Y-85806920D01*
X111516825Y-85544099D01*
X111561476Y-85396890D01*
X111440155Y-85167000D01*
X110247000Y-85167000D01*
X110247000Y-85187000D01*
X109993000Y-85187000D01*
X109993000Y-85167000D01*
X108799845Y-85167000D01*
X108678524Y-85396890D01*
X108723175Y-85544099D01*
X108848359Y-85806920D01*
X109022412Y-86040269D01*
X109238645Y-86235178D01*
X109355523Y-86304799D01*
X109290986Y-86339294D01*
X109064866Y-86524866D01*
X108879294Y-86750986D01*
X108741401Y-87008966D01*
X108656487Y-87288889D01*
X108627815Y-87580000D01*
X108656487Y-87871111D01*
X108741401Y-88151034D01*
X108879294Y-88409014D01*
X109064866Y-88635134D01*
X109290986Y-88820706D01*
X109345791Y-88850000D01*
X109290986Y-88879294D01*
X109064866Y-89064866D01*
X108879294Y-89290986D01*
X108741401Y-89548966D01*
X108656487Y-89828889D01*
X108627815Y-90120000D01*
X108656487Y-90411111D01*
X108741401Y-90691034D01*
X108879294Y-90949014D01*
X109064866Y-91175134D01*
X109290986Y-91360706D01*
X109345791Y-91390000D01*
X109290986Y-91419294D01*
X109064866Y-91604866D01*
X108879294Y-91830986D01*
X108741401Y-92088966D01*
X108656487Y-92368889D01*
X108627815Y-92660000D01*
X108656487Y-92951111D01*
X108741401Y-93231034D01*
X108879294Y-93489014D01*
X109064866Y-93715134D01*
X109290986Y-93900706D01*
X109345791Y-93930000D01*
X109290986Y-93959294D01*
X109064866Y-94144866D01*
X108879294Y-94370986D01*
X108741401Y-94628966D01*
X108656487Y-94908889D01*
X108627815Y-95200000D01*
X108656487Y-95491111D01*
X108679203Y-95565995D01*
X96005199Y-108240000D01*
X55914802Y-108240000D01*
X51260000Y-103585199D01*
X51260000Y-101250000D01*
X51361928Y-101250000D01*
X51374188Y-101374482D01*
X51410498Y-101494180D01*
X51469463Y-101604494D01*
X51548815Y-101701185D01*
X51645506Y-101780537D01*
X51755820Y-101839502D01*
X51875518Y-101875812D01*
X52000000Y-101888072D01*
X52214250Y-101885000D01*
X52373000Y-101726250D01*
X52373000Y-100627000D01*
X51523750Y-100627000D01*
X51365000Y-100785750D01*
X51361928Y-101250000D01*
X51260000Y-101250000D01*
X51260000Y-99750000D01*
X51361928Y-99750000D01*
X51365000Y-100214250D01*
X51523750Y-100373000D01*
X52373000Y-100373000D01*
X52373000Y-99273750D01*
X52214250Y-99115000D01*
X52000000Y-99111928D01*
X51875518Y-99124188D01*
X51755820Y-99160498D01*
X51645506Y-99219463D01*
X51548815Y-99298815D01*
X51469463Y-99395506D01*
X51410498Y-99505820D01*
X51374188Y-99625518D01*
X51361928Y-99750000D01*
X51260000Y-99750000D01*
X51260000Y-97250000D01*
X51361928Y-97250000D01*
X51374188Y-97374482D01*
X51410498Y-97494180D01*
X51469463Y-97604494D01*
X51548815Y-97701185D01*
X51645506Y-97780537D01*
X51755820Y-97839502D01*
X51875518Y-97875812D01*
X52000000Y-97888072D01*
X52214250Y-97885000D01*
X52373000Y-97726250D01*
X52373000Y-96627000D01*
X51523750Y-96627000D01*
X51365000Y-96785750D01*
X51361928Y-97250000D01*
X51260000Y-97250000D01*
X51260000Y-96314801D01*
X51364971Y-96209830D01*
X51365000Y-96214250D01*
X51523750Y-96373000D01*
X52373000Y-96373000D01*
X52373000Y-95273750D01*
X52337026Y-95237776D01*
X52664813Y-94909989D01*
X53315210Y-94909989D01*
X53289002Y-94936197D01*
X53259999Y-94959999D01*
X53215946Y-95013678D01*
X53165026Y-95075724D01*
X53137079Y-95128009D01*
X53124482Y-95124188D01*
X53000000Y-95111928D01*
X52785750Y-95115000D01*
X52627000Y-95273750D01*
X52627000Y-96373000D01*
X52647000Y-96373000D01*
X52647000Y-96627000D01*
X52627000Y-96627000D01*
X52627000Y-97726250D01*
X52785750Y-97885000D01*
X53000000Y-97888072D01*
X53124482Y-97875812D01*
X53150000Y-97868071D01*
X53175518Y-97875812D01*
X53300000Y-97888072D01*
X54300000Y-97888072D01*
X54340001Y-97884132D01*
X54340000Y-99115868D01*
X54300000Y-99111928D01*
X53300000Y-99111928D01*
X53175518Y-99124188D01*
X53150000Y-99131929D01*
X53124482Y-99124188D01*
X53000000Y-99111928D01*
X52785750Y-99115000D01*
X52627000Y-99273750D01*
X52627000Y-100373000D01*
X52647000Y-100373000D01*
X52647000Y-100627000D01*
X52627000Y-100627000D01*
X52627000Y-101726250D01*
X52785750Y-101885000D01*
X53000000Y-101888072D01*
X53040000Y-101884132D01*
X53040000Y-102362677D01*
X53036324Y-102400000D01*
X53040000Y-102437322D01*
X53040000Y-102437332D01*
X53050997Y-102548985D01*
X53087281Y-102668599D01*
X53094454Y-102692246D01*
X53165026Y-102824276D01*
X53197362Y-102863677D01*
X53259999Y-102940001D01*
X53289002Y-102963804D01*
X54261202Y-103936004D01*
X54285000Y-103965002D01*
X54400725Y-104059975D01*
X54532754Y-104130547D01*
X54676015Y-104174004D01*
X54787668Y-104185001D01*
X54787677Y-104185001D01*
X54825000Y-104188677D01*
X54862323Y-104185001D01*
X61837677Y-104185001D01*
X61874999Y-104188677D01*
X61912321Y-104185001D01*
X61912332Y-104185001D01*
X62023985Y-104174004D01*
X62167246Y-104130547D01*
X62299275Y-104059975D01*
X62415000Y-103965002D01*
X62438802Y-103935999D01*
X63111002Y-103263799D01*
X63140001Y-103240001D01*
X63234974Y-103124276D01*
X63305546Y-102992247D01*
X63349003Y-102848986D01*
X63360000Y-102737333D01*
X63360000Y-102737324D01*
X63363676Y-102700001D01*
X63360000Y-102662678D01*
X63360000Y-101815010D01*
X63390001Y-101831046D01*
X63390000Y-103312677D01*
X63386324Y-103350000D01*
X63390000Y-103387322D01*
X63390000Y-103387332D01*
X63400997Y-103498985D01*
X63429287Y-103592246D01*
X63444454Y-103642246D01*
X63515026Y-103774276D01*
X63528141Y-103790256D01*
X63609999Y-103890001D01*
X63639003Y-103913804D01*
X66236201Y-106511003D01*
X66259999Y-106540001D01*
X66288997Y-106563799D01*
X66375723Y-106634974D01*
X66507753Y-106705546D01*
X66651014Y-106749003D01*
X66762667Y-106760000D01*
X66762677Y-106760000D01*
X66800000Y-106763676D01*
X66837323Y-106760000D01*
X74062678Y-106760000D01*
X74100000Y-106763676D01*
X74137322Y-106760000D01*
X74137333Y-106760000D01*
X74248986Y-106749003D01*
X74392247Y-106705546D01*
X74524276Y-106634974D01*
X74640001Y-106540001D01*
X74663804Y-106510997D01*
X80507911Y-100666890D01*
X85778524Y-100666890D01*
X85823175Y-100814099D01*
X85948359Y-101076920D01*
X86122412Y-101310269D01*
X86338645Y-101505178D01*
X86588748Y-101654157D01*
X86863109Y-101751481D01*
X87093000Y-101630814D01*
X87093000Y-100437000D01*
X87347000Y-100437000D01*
X87347000Y-101630814D01*
X87576891Y-101751481D01*
X87851252Y-101654157D01*
X88101355Y-101505178D01*
X88317588Y-101310269D01*
X88491641Y-101076920D01*
X88616825Y-100814099D01*
X88661476Y-100666890D01*
X88540155Y-100437000D01*
X87347000Y-100437000D01*
X87093000Y-100437000D01*
X85899845Y-100437000D01*
X85778524Y-100666890D01*
X80507911Y-100666890D01*
X85747270Y-95427532D01*
X85756487Y-95521111D01*
X85841401Y-95801034D01*
X85979294Y-96059014D01*
X86164866Y-96285134D01*
X86390986Y-96470706D01*
X86445791Y-96500000D01*
X86390986Y-96529294D01*
X86164866Y-96714866D01*
X85979294Y-96940986D01*
X85841401Y-97198966D01*
X85756487Y-97478889D01*
X85727815Y-97770000D01*
X85756487Y-98061111D01*
X85841401Y-98341034D01*
X85979294Y-98599014D01*
X86164866Y-98825134D01*
X86390986Y-99010706D01*
X86455523Y-99045201D01*
X86338645Y-99114822D01*
X86122412Y-99309731D01*
X85948359Y-99543080D01*
X85823175Y-99805901D01*
X85778524Y-99953110D01*
X85899845Y-100183000D01*
X87093000Y-100183000D01*
X87093000Y-100163000D01*
X87347000Y-100163000D01*
X87347000Y-100183000D01*
X88540155Y-100183000D01*
X88661476Y-99953110D01*
X88616825Y-99805901D01*
X88491641Y-99543080D01*
X88317588Y-99309731D01*
X88101355Y-99114822D01*
X87984477Y-99045201D01*
X88049014Y-99010706D01*
X88275134Y-98825134D01*
X88460706Y-98599014D01*
X88598599Y-98341034D01*
X88683513Y-98061111D01*
X88712185Y-97770000D01*
X88683513Y-97478889D01*
X88598599Y-97198966D01*
X88460706Y-96940986D01*
X88275134Y-96714866D01*
X88049014Y-96529294D01*
X87994209Y-96500000D01*
X88049014Y-96470706D01*
X88275134Y-96285134D01*
X88460706Y-96059014D01*
X88598599Y-95801034D01*
X88683513Y-95521111D01*
X88712185Y-95230000D01*
X88683513Y-94938889D01*
X88598599Y-94658966D01*
X88460706Y-94400986D01*
X88275134Y-94174866D01*
X88049014Y-93989294D01*
X87994209Y-93960000D01*
X88049014Y-93930706D01*
X88275134Y-93745134D01*
X88460706Y-93519014D01*
X88598599Y-93261034D01*
X88683513Y-92981111D01*
X88712185Y-92690000D01*
X88683513Y-92398889D01*
X88598599Y-92118966D01*
X88460706Y-91860986D01*
X88275134Y-91634866D01*
X88049014Y-91449294D01*
X87994209Y-91420000D01*
X88049014Y-91390706D01*
X88275134Y-91205134D01*
X88460706Y-90979014D01*
X88598599Y-90721034D01*
X88683513Y-90441111D01*
X88712185Y-90150000D01*
X88683513Y-89858889D01*
X88598599Y-89578966D01*
X88460706Y-89320986D01*
X88275134Y-89094866D01*
X88049014Y-88909294D01*
X87994209Y-88880000D01*
X88049014Y-88850706D01*
X88275134Y-88665134D01*
X88460706Y-88439014D01*
X88598599Y-88181034D01*
X88683513Y-87901111D01*
X88712185Y-87610000D01*
X88683513Y-87318889D01*
X88598599Y-87038966D01*
X88460706Y-86780986D01*
X88275134Y-86554866D01*
X88245313Y-86530393D01*
X88314180Y-86509502D01*
X88424494Y-86450537D01*
X88521185Y-86371185D01*
X88600537Y-86274494D01*
X88659502Y-86164180D01*
X88695812Y-86044482D01*
X88708072Y-85920000D01*
X88708072Y-84683110D01*
X108678524Y-84683110D01*
X108799845Y-84913000D01*
X109993000Y-84913000D01*
X109993000Y-83719186D01*
X110247000Y-83719186D01*
X110247000Y-84913000D01*
X111440155Y-84913000D01*
X111561476Y-84683110D01*
X111516825Y-84535901D01*
X111391641Y-84273080D01*
X111217588Y-84039731D01*
X111001355Y-83844822D01*
X110751252Y-83695843D01*
X110476891Y-83598519D01*
X110247000Y-83719186D01*
X109993000Y-83719186D01*
X109763109Y-83598519D01*
X109488748Y-83695843D01*
X109238645Y-83844822D01*
X109022412Y-84039731D01*
X108848359Y-84273080D01*
X108723175Y-84535901D01*
X108678524Y-84683110D01*
X88708072Y-84683110D01*
X88708072Y-84220000D01*
X88695812Y-84095518D01*
X88659502Y-83975820D01*
X88600537Y-83865506D01*
X88521185Y-83768815D01*
X88424494Y-83689463D01*
X88314180Y-83630498D01*
X88194482Y-83594188D01*
X88070000Y-83581928D01*
X86370000Y-83581928D01*
X86245518Y-83594188D01*
X86125820Y-83630498D01*
X86015506Y-83689463D01*
X85918815Y-83768815D01*
X85839463Y-83865506D01*
X85780498Y-83975820D01*
X85744188Y-84095518D01*
X85731928Y-84220000D01*
X85731928Y-85920000D01*
X85744188Y-86044482D01*
X85780498Y-86164180D01*
X85839463Y-86274494D01*
X85918815Y-86371185D01*
X86015506Y-86450537D01*
X86125820Y-86509502D01*
X86194687Y-86530393D01*
X86164866Y-86554866D01*
X85979294Y-86780986D01*
X85841401Y-87038966D01*
X85756487Y-87318889D01*
X85727815Y-87610000D01*
X85756487Y-87901111D01*
X85841401Y-88181034D01*
X85979294Y-88439014D01*
X86164866Y-88665134D01*
X86390986Y-88850706D01*
X86445791Y-88880000D01*
X86390986Y-88909294D01*
X86164866Y-89094866D01*
X85979294Y-89320986D01*
X85841401Y-89578966D01*
X85756487Y-89858889D01*
X85727815Y-90150000D01*
X85756487Y-90441111D01*
X85841401Y-90721034D01*
X85979294Y-90979014D01*
X86164866Y-91205134D01*
X86390986Y-91390706D01*
X86445791Y-91420000D01*
X86390986Y-91449294D01*
X86164866Y-91634866D01*
X85979294Y-91860986D01*
X85841401Y-92118966D01*
X85756487Y-92398889D01*
X85727815Y-92690000D01*
X85756487Y-92981111D01*
X85823424Y-93201774D01*
X73785199Y-105240000D01*
X70817519Y-105240000D01*
X70921034Y-105208599D01*
X71179014Y-105070706D01*
X71405134Y-104885134D01*
X71590706Y-104659014D01*
X71728599Y-104401034D01*
X71813513Y-104121111D01*
X71842185Y-103830000D01*
X71813513Y-103538889D01*
X71728599Y-103258966D01*
X71590706Y-103000986D01*
X71405134Y-102774866D01*
X71179014Y-102589294D01*
X71124209Y-102560000D01*
X71179014Y-102530706D01*
X71405134Y-102345134D01*
X71590706Y-102119014D01*
X71728599Y-101861034D01*
X71813513Y-101581111D01*
X71842185Y-101290000D01*
X71813513Y-100998889D01*
X71728599Y-100718966D01*
X71590706Y-100460986D01*
X71405134Y-100234866D01*
X71179014Y-100049294D01*
X71124209Y-100020000D01*
X71179014Y-99990706D01*
X71405134Y-99805134D01*
X71590706Y-99579014D01*
X71627595Y-99510000D01*
X74612678Y-99510000D01*
X74650000Y-99513676D01*
X74687322Y-99510000D01*
X74687333Y-99510000D01*
X74798986Y-99499003D01*
X74942247Y-99455546D01*
X75074276Y-99384974D01*
X75190001Y-99290001D01*
X75213804Y-99260997D01*
X80311004Y-94163798D01*
X80340001Y-94140001D01*
X80434974Y-94024276D01*
X80505546Y-93892247D01*
X80549003Y-93748986D01*
X80560000Y-93637333D01*
X80560000Y-93637323D01*
X80563676Y-93600000D01*
X80560000Y-93562677D01*
X80560000Y-88714801D01*
X86314802Y-82960000D01*
X112162678Y-82960000D01*
X112200000Y-82963676D01*
X112237322Y-82960000D01*
X112237333Y-82960000D01*
X112348986Y-82949003D01*
X112492247Y-82905546D01*
X112624276Y-82834974D01*
X112740001Y-82740001D01*
X112763804Y-82710997D01*
X117111004Y-78363798D01*
X117140001Y-78340001D01*
X117234974Y-78224276D01*
X117305546Y-78092247D01*
X117349003Y-77948986D01*
X117360000Y-77837333D01*
X117360000Y-77837325D01*
X117363676Y-77800000D01*
X117360000Y-77762675D01*
X117360000Y-58017322D01*
X117363676Y-57979999D01*
X117360000Y-57942676D01*
X117360000Y-57942667D01*
X117349003Y-57831014D01*
X117305546Y-57687753D01*
X117234974Y-57555724D01*
X117140001Y-57439999D01*
X117111003Y-57416201D01*
X113163804Y-53469003D01*
X113163799Y-53468997D01*
X111440797Y-51745996D01*
X111463513Y-51671111D01*
X111492185Y-51380000D01*
X111463513Y-51088889D01*
X111378599Y-50808966D01*
X111240706Y-50550986D01*
X111055134Y-50324866D01*
X110829014Y-50139294D01*
X110571034Y-50001401D01*
X110291111Y-49916487D01*
X110072950Y-49895000D01*
X109927050Y-49895000D01*
X109708889Y-49916487D01*
X109428966Y-50001401D01*
X109170986Y-50139294D01*
X108944866Y-50324866D01*
X108759294Y-50550986D01*
X108621401Y-50808966D01*
X108536487Y-51088889D01*
X108507815Y-51380000D01*
X108536487Y-51671111D01*
X108621401Y-51951034D01*
X108759294Y-52209014D01*
X108944866Y-52435134D01*
X109170986Y-52620706D01*
X109225791Y-52650000D01*
X109170986Y-52679294D01*
X108944866Y-52864866D01*
X108759294Y-53090986D01*
X108722405Y-53160000D01*
X108717322Y-53160000D01*
X108679999Y-53156324D01*
X108642676Y-53160000D01*
X108642667Y-53160000D01*
X108531014Y-53170997D01*
X108387753Y-53214454D01*
X108255724Y-53285026D01*
X108255722Y-53285027D01*
X108255723Y-53285027D01*
X108168996Y-53356201D01*
X108168992Y-53356205D01*
X108139999Y-53379999D01*
X108116205Y-53408992D01*
X106288998Y-55236201D01*
X106260000Y-55259999D01*
X106236202Y-55288997D01*
X106236201Y-55288998D01*
X106165026Y-55375724D01*
X106094454Y-55507754D01*
X106050998Y-55651015D01*
X106036324Y-55800000D01*
X106040001Y-55837332D01*
X106040000Y-59862677D01*
X106036324Y-59900000D01*
X106040000Y-59937322D01*
X106040000Y-59937332D01*
X106050997Y-60048985D01*
X106064707Y-60094180D01*
X106094454Y-60192246D01*
X106165026Y-60324276D01*
X106204871Y-60372826D01*
X106259999Y-60440001D01*
X106289003Y-60463804D01*
X112240001Y-66414803D01*
X112240000Y-78285197D01*
X110885199Y-79640000D01*
X85137323Y-79640000D01*
X85100000Y-79636324D01*
X85062677Y-79640000D01*
X85062667Y-79640000D01*
X84951014Y-79650997D01*
X84807753Y-79694454D01*
X84675724Y-79765026D01*
X84559999Y-79859999D01*
X84536201Y-79888997D01*
X77888998Y-86536201D01*
X77860000Y-86559999D01*
X77836202Y-86588997D01*
X77836201Y-86588998D01*
X77765026Y-86675724D01*
X77694454Y-86807754D01*
X77650998Y-86951015D01*
X77636324Y-87100000D01*
X77640001Y-87137332D01*
X77640000Y-92485198D01*
X74675199Y-95450000D01*
X71627595Y-95450000D01*
X71590706Y-95380986D01*
X71405134Y-95154866D01*
X71179014Y-94969294D01*
X71114477Y-94934799D01*
X71231355Y-94865178D01*
X71447588Y-94670269D01*
X71621641Y-94436920D01*
X71746825Y-94174099D01*
X71791476Y-94026890D01*
X71670155Y-93797000D01*
X70477000Y-93797000D01*
X70477000Y-93817000D01*
X70223000Y-93817000D01*
X70223000Y-93797000D01*
X69029845Y-93797000D01*
X68908524Y-94026890D01*
X68953175Y-94174099D01*
X69078359Y-94436920D01*
X69252412Y-94670269D01*
X69468645Y-94865178D01*
X69585523Y-94934799D01*
X69520986Y-94969294D01*
X69294866Y-95154866D01*
X69109294Y-95380986D01*
X68971401Y-95638966D01*
X68886487Y-95918889D01*
X68857815Y-96210000D01*
X68886487Y-96501111D01*
X68918513Y-96606686D01*
X67985199Y-97540000D01*
X66515010Y-97540000D01*
X66539502Y-97494180D01*
X66575812Y-97374482D01*
X66588072Y-97250000D01*
X66588072Y-97237147D01*
X66692247Y-97205546D01*
X66824276Y-97134974D01*
X66940001Y-97040001D01*
X66963804Y-97010997D01*
X67210997Y-96763804D01*
X67240001Y-96740001D01*
X67334974Y-96624276D01*
X67405546Y-96492247D01*
X67449003Y-96348986D01*
X67460000Y-96237333D01*
X67460000Y-96237324D01*
X67463676Y-96200001D01*
X67460000Y-96162678D01*
X67460000Y-94937325D01*
X67463676Y-94900000D01*
X67460000Y-94862675D01*
X67460000Y-94862667D01*
X67449003Y-94751014D01*
X67405546Y-94607753D01*
X67334974Y-94475724D01*
X67240001Y-94359999D01*
X67210998Y-94336197D01*
X66763804Y-93889003D01*
X66740001Y-93859999D01*
X66624276Y-93765026D01*
X66492247Y-93694454D01*
X66348986Y-93650997D01*
X66310963Y-93647252D01*
X66259774Y-93596063D01*
X66090256Y-93482795D01*
X66020786Y-93454019D01*
X66139803Y-93335002D01*
X66201939Y-93335002D01*
X66401898Y-93295228D01*
X66590256Y-93217207D01*
X66759774Y-93103939D01*
X66903937Y-92959776D01*
X67017205Y-92790258D01*
X67095226Y-92601900D01*
X67135000Y-92401941D01*
X67135000Y-92198063D01*
X67095226Y-91998104D01*
X67017205Y-91809746D01*
X66903937Y-91640228D01*
X66759774Y-91496065D01*
X66590256Y-91382797D01*
X66401898Y-91304776D01*
X66201939Y-91265002D01*
X65998061Y-91265002D01*
X65798102Y-91304776D01*
X65609744Y-91382797D01*
X65440226Y-91496065D01*
X65296063Y-91640228D01*
X65182795Y-91809746D01*
X65104774Y-91998104D01*
X65065000Y-92198063D01*
X65065000Y-92260199D01*
X63638998Y-93686203D01*
X63610000Y-93710001D01*
X63586202Y-93738999D01*
X63586201Y-93739000D01*
X63515026Y-93825726D01*
X63444454Y-93957756D01*
X63414180Y-94057560D01*
X63400998Y-94101016D01*
X63394693Y-94165027D01*
X63386324Y-94250002D01*
X63390001Y-94287334D01*
X63390001Y-95168954D01*
X63295506Y-95219463D01*
X63198815Y-95298815D01*
X63160000Y-95346111D01*
X63160000Y-94937325D01*
X63163676Y-94900000D01*
X63160000Y-94862675D01*
X63160000Y-94862667D01*
X63149003Y-94751014D01*
X63105546Y-94607753D01*
X63034974Y-94475724D01*
X62940001Y-94359999D01*
X62911003Y-94336201D01*
X62147521Y-93572720D01*
X62189502Y-93494180D01*
X62225812Y-93374482D01*
X62238072Y-93250000D01*
X62235000Y-92785750D01*
X62076250Y-92627000D01*
X61227000Y-92627000D01*
X61227000Y-92647000D01*
X60973000Y-92647000D01*
X60973000Y-92627000D01*
X60953000Y-92627000D01*
X60953000Y-92373000D01*
X60973000Y-92373000D01*
X60973000Y-91273750D01*
X61227000Y-91273750D01*
X61227000Y-92373000D01*
X62076250Y-92373000D01*
X62235000Y-92214250D01*
X62238072Y-91750000D01*
X62225812Y-91625518D01*
X62189502Y-91505820D01*
X62130537Y-91395506D01*
X62051185Y-91298815D01*
X61954494Y-91219463D01*
X61844180Y-91160498D01*
X61724482Y-91124188D01*
X61600000Y-91111928D01*
X61385750Y-91115000D01*
X61227000Y-91273750D01*
X60973000Y-91273750D01*
X60814250Y-91115000D01*
X60600000Y-91111928D01*
X60475518Y-91124188D01*
X60450000Y-91131929D01*
X60424482Y-91124188D01*
X60300000Y-91111928D01*
X59962874Y-91111928D01*
X60114802Y-90960000D01*
X67385199Y-90960000D01*
X68066201Y-91641003D01*
X68089999Y-91670001D01*
X68118997Y-91693799D01*
X68205724Y-91764974D01*
X68337753Y-91835546D01*
X68481014Y-91879003D01*
X68630000Y-91893677D01*
X68667333Y-91890000D01*
X68861928Y-91890000D01*
X68861928Y-91980000D01*
X68874188Y-92104482D01*
X68910498Y-92224180D01*
X68969463Y-92334494D01*
X69048815Y-92431185D01*
X69145506Y-92510537D01*
X69255820Y-92569502D01*
X69336466Y-92593966D01*
X69252412Y-92669731D01*
X69078359Y-92903080D01*
X68953175Y-93165901D01*
X68908524Y-93313110D01*
X69029845Y-93543000D01*
X70223000Y-93543000D01*
X70223000Y-93523000D01*
X70477000Y-93523000D01*
X70477000Y-93543000D01*
X71670155Y-93543000D01*
X71791476Y-93313110D01*
X71746825Y-93165901D01*
X71621641Y-92903080D01*
X71447588Y-92669731D01*
X71363534Y-92593966D01*
X71444180Y-92569502D01*
X71554494Y-92510537D01*
X71651185Y-92431185D01*
X71730537Y-92334494D01*
X71789502Y-92224180D01*
X71825812Y-92104482D01*
X71838072Y-91980000D01*
X71838072Y-90280000D01*
X71825812Y-90155518D01*
X71789502Y-90035820D01*
X71730537Y-89925506D01*
X71651185Y-89828815D01*
X71554494Y-89749463D01*
X71444180Y-89690498D01*
X71324482Y-89654188D01*
X71200000Y-89641928D01*
X69500000Y-89641928D01*
X69375518Y-89654188D01*
X69255820Y-89690498D01*
X69145506Y-89749463D01*
X69048815Y-89828815D01*
X68969463Y-89925506D01*
X68910498Y-90035820D01*
X68874188Y-90155518D01*
X68861928Y-90280000D01*
X68861928Y-90287126D01*
X68263803Y-89689002D01*
X68240001Y-89659999D01*
X68124276Y-89565026D01*
X67992247Y-89494454D01*
X67848986Y-89450997D01*
X67737333Y-89440000D01*
X67737322Y-89440000D01*
X67700000Y-89436324D01*
X67662678Y-89440000D01*
X59837325Y-89440000D01*
X59800000Y-89436324D01*
X59762675Y-89440000D01*
X59762667Y-89440000D01*
X59651014Y-89450997D01*
X59507753Y-89494454D01*
X59375724Y-89565026D01*
X59259999Y-89659999D01*
X59236201Y-89688997D01*
X57988998Y-90936201D01*
X57960000Y-90959999D01*
X57936202Y-90988997D01*
X57936201Y-90988998D01*
X57865026Y-91075724D01*
X57832078Y-91137365D01*
X57755820Y-91160498D01*
X57645506Y-91219463D01*
X57548815Y-91298815D01*
X57469463Y-91395506D01*
X57410498Y-91505820D01*
X57374188Y-91625518D01*
X57361928Y-91750000D01*
X57361928Y-93250000D01*
X57374188Y-93374482D01*
X57378892Y-93389989D01*
X52387336Y-93389989D01*
X52350011Y-93386313D01*
X52312686Y-93389989D01*
X52312678Y-93389989D01*
X52201025Y-93400986D01*
X52057764Y-93444443D01*
X51925735Y-93515015D01*
X51810010Y-93609988D01*
X51786212Y-93638986D01*
X49989003Y-95436196D01*
X49959999Y-95459999D01*
X49918144Y-95511000D01*
X49865026Y-95575724D01*
X49814635Y-95669999D01*
X49794454Y-95707754D01*
X49750997Y-95851015D01*
X49740000Y-95962668D01*
X49740000Y-95962678D01*
X49736324Y-96000000D01*
X49740000Y-96037322D01*
X49740001Y-103862668D01*
X49736324Y-103900000D01*
X49740001Y-103937333D01*
X49750998Y-104048986D01*
X49755454Y-104063676D01*
X49794454Y-104192246D01*
X49865026Y-104324276D01*
X49936201Y-104411002D01*
X49960000Y-104440001D01*
X49988998Y-104463799D01*
X55036201Y-109511003D01*
X55059999Y-109540001D01*
X55175724Y-109634974D01*
X55307753Y-109705546D01*
X55421335Y-109740000D01*
X51714802Y-109740000D01*
X43660000Y-101685199D01*
X43660000Y-79166894D01*
X43770617Y-79200450D01*
X43900000Y-79213193D01*
X43932419Y-79210000D01*
X110067581Y-79210000D01*
X110100000Y-79213193D01*
X110132419Y-79210000D01*
X110229383Y-79200450D01*
X110353793Y-79162710D01*
X110468450Y-79101425D01*
X110568948Y-79018948D01*
X110651425Y-78918450D01*
X110712710Y-78803793D01*
X110750450Y-78679383D01*
X110763193Y-78550000D01*
X110760000Y-78517581D01*
X110760000Y-68382419D01*
X110763193Y-68350000D01*
X110750450Y-68220617D01*
X110712710Y-68096207D01*
X110651425Y-67981550D01*
X110568948Y-67881052D01*
X110468450Y-67798575D01*
X110353793Y-67737290D01*
X110229383Y-67699550D01*
X110132419Y-67690000D01*
X110100000Y-67686807D01*
X110067581Y-67690000D01*
X43932419Y-67690000D01*
X43900000Y-67686807D01*
X43867581Y-67690000D01*
X43770617Y-67699550D01*
X43646207Y-67737290D01*
X43531550Y-67798575D01*
X43431052Y-67881052D01*
X43348575Y-67981550D01*
X43287290Y-68096207D01*
X43249550Y-68220617D01*
X43236807Y-68350000D01*
X43240001Y-68382429D01*
X43240001Y-69165198D01*
X40460000Y-66385199D01*
X40460000Y-51380000D01*
X93607815Y-51380000D01*
X93636487Y-51671111D01*
X93721401Y-51951034D01*
X93859294Y-52209014D01*
X94044866Y-52435134D01*
X94270986Y-52620706D01*
X94325791Y-52650000D01*
X94270986Y-52679294D01*
X94044866Y-52864866D01*
X93859294Y-53090986D01*
X93721401Y-53348966D01*
X93636487Y-53628889D01*
X93607815Y-53920000D01*
X93636487Y-54211111D01*
X93721401Y-54491034D01*
X93859294Y-54749014D01*
X94044866Y-54975134D01*
X94270986Y-55160706D01*
X94325791Y-55190000D01*
X94270986Y-55219294D01*
X94044866Y-55404866D01*
X93859294Y-55630986D01*
X93721401Y-55888966D01*
X93636487Y-56168889D01*
X93607815Y-56460000D01*
X93636487Y-56751111D01*
X93721401Y-57031034D01*
X93859294Y-57289014D01*
X94044866Y-57515134D01*
X94074687Y-57539607D01*
X94005820Y-57560498D01*
X93895506Y-57619463D01*
X93798815Y-57698815D01*
X93719463Y-57795506D01*
X93660498Y-57905820D01*
X93624188Y-58025518D01*
X93611928Y-58150000D01*
X93611928Y-59850000D01*
X93624188Y-59974482D01*
X93660498Y-60094180D01*
X93719463Y-60204494D01*
X93798815Y-60301185D01*
X93895506Y-60380537D01*
X94005820Y-60439502D01*
X94125518Y-60475812D01*
X94250000Y-60488072D01*
X95950000Y-60488072D01*
X96074482Y-60475812D01*
X96194180Y-60439502D01*
X96304494Y-60380537D01*
X96401185Y-60301185D01*
X96480537Y-60204494D01*
X96539502Y-60094180D01*
X96575812Y-59974482D01*
X96588072Y-59850000D01*
X96588072Y-58150000D01*
X96575812Y-58025518D01*
X96539502Y-57905820D01*
X96480537Y-57795506D01*
X96401185Y-57698815D01*
X96304494Y-57619463D01*
X96194180Y-57560498D01*
X96125313Y-57539607D01*
X96155134Y-57515134D01*
X96340706Y-57289014D01*
X96478599Y-57031034D01*
X96563513Y-56751111D01*
X96592185Y-56460000D01*
X96563513Y-56168889D01*
X96478599Y-55888966D01*
X96340706Y-55630986D01*
X96155134Y-55404866D01*
X95929014Y-55219294D01*
X95874209Y-55190000D01*
X95929014Y-55160706D01*
X96155134Y-54975134D01*
X96340706Y-54749014D01*
X96478599Y-54491034D01*
X96563513Y-54211111D01*
X96592185Y-53920000D01*
X96563513Y-53628889D01*
X96478599Y-53348966D01*
X96340706Y-53090986D01*
X96155134Y-52864866D01*
X95929014Y-52679294D01*
X95874209Y-52650000D01*
X95929014Y-52620706D01*
X96155134Y-52435134D01*
X96340706Y-52209014D01*
X96478599Y-51951034D01*
X96563513Y-51671111D01*
X96592185Y-51380000D01*
X96563513Y-51088889D01*
X96478599Y-50808966D01*
X96340706Y-50550986D01*
X96155134Y-50324866D01*
X95929014Y-50139294D01*
X95671034Y-50001401D01*
X95391111Y-49916487D01*
X95172950Y-49895000D01*
X95027050Y-49895000D01*
X94808889Y-49916487D01*
X94528966Y-50001401D01*
X94270986Y-50139294D01*
X94044866Y-50324866D01*
X93859294Y-50550986D01*
X93721401Y-50808966D01*
X93636487Y-51088889D01*
X93607815Y-51380000D01*
X40460000Y-51380000D01*
X40460000Y-47414801D01*
X41349801Y-46525000D01*
X43936928Y-46525000D01*
X43949188Y-46649482D01*
X43985498Y-46769180D01*
X44044463Y-46879494D01*
X44123815Y-46976185D01*
X44220506Y-47055537D01*
X44330820Y-47114502D01*
X44450518Y-47150812D01*
X44575000Y-47163072D01*
X44714250Y-47160000D01*
X44873000Y-47001250D01*
X44873000Y-46227000D01*
X45127000Y-46227000D01*
X45127000Y-47001250D01*
X45285750Y-47160000D01*
X45425000Y-47163072D01*
X45549482Y-47150812D01*
X45669180Y-47114502D01*
X45779494Y-47055537D01*
X45876185Y-46976185D01*
X45955537Y-46879494D01*
X46014502Y-46769180D01*
X46050812Y-46649482D01*
X46063072Y-46525000D01*
X46060866Y-46425000D01*
X108936928Y-46425000D01*
X108949188Y-46549482D01*
X108985498Y-46669180D01*
X109044463Y-46779494D01*
X109123815Y-46876185D01*
X109220506Y-46955537D01*
X109330820Y-47014502D01*
X109450518Y-47050812D01*
X109575000Y-47063072D01*
X109714250Y-47060000D01*
X109873000Y-46901250D01*
X109873000Y-46127000D01*
X110127000Y-46127000D01*
X110127000Y-46901250D01*
X110285750Y-47060000D01*
X110425000Y-47063072D01*
X110549482Y-47050812D01*
X110669180Y-47014502D01*
X110779494Y-46955537D01*
X110876185Y-46876185D01*
X110955537Y-46779494D01*
X111014502Y-46669180D01*
X111050812Y-46549482D01*
X111063072Y-46425000D01*
X111060000Y-46285750D01*
X110901250Y-46127000D01*
X110127000Y-46127000D01*
X109873000Y-46127000D01*
X109098750Y-46127000D01*
X108940000Y-46285750D01*
X108936928Y-46425000D01*
X46060866Y-46425000D01*
X46060000Y-46385750D01*
X45901250Y-46227000D01*
X45127000Y-46227000D01*
X44873000Y-46227000D01*
X44098750Y-46227000D01*
X43940000Y-46385750D01*
X43936928Y-46525000D01*
X41349801Y-46525000D01*
X42264802Y-45610000D01*
X43943330Y-45610000D01*
X43936928Y-45675000D01*
X43940000Y-45814250D01*
X44098750Y-45973000D01*
X44873000Y-45973000D01*
X44873000Y-45953000D01*
X45127000Y-45953000D01*
X45127000Y-45973000D01*
X45901250Y-45973000D01*
X46060000Y-45814250D01*
X46063072Y-45675000D01*
X46056670Y-45610000D01*
X108937700Y-45610000D01*
X108940000Y-45714250D01*
X109098750Y-45873000D01*
X109873000Y-45873000D01*
X109873000Y-45853000D01*
X110127000Y-45853000D01*
X110127000Y-45873000D01*
X110901250Y-45873000D01*
X111060000Y-45714250D01*
X111063072Y-45575000D01*
X111050812Y-45450518D01*
X111014502Y-45330820D01*
X110955537Y-45220506D01*
X110953483Y-45218003D01*
X111019265Y-45059191D01*
X111060000Y-44854401D01*
X111060000Y-44645599D01*
X111019265Y-44440809D01*
X110939360Y-44247902D01*
X110857240Y-44125000D01*
X110939360Y-44002098D01*
X111019265Y-43809191D01*
X111060000Y-43604401D01*
X111060000Y-43395599D01*
X111019265Y-43190809D01*
X110939360Y-42997902D01*
X110857240Y-42875000D01*
X110939360Y-42752098D01*
X111019265Y-42559191D01*
X111060000Y-42354401D01*
X111060000Y-42145599D01*
X111019265Y-41940809D01*
X110939360Y-41747902D01*
X110823356Y-41574289D01*
X110675711Y-41426644D01*
X110502098Y-41310640D01*
X110309191Y-41230735D01*
X110104401Y-41190000D01*
X109895599Y-41190000D01*
X109690809Y-41230735D01*
X109497902Y-41310640D01*
X109324289Y-41426644D01*
X109210933Y-41540000D01*
X45689067Y-41540000D01*
X45675711Y-41526644D01*
X45502098Y-41410640D01*
X45309191Y-41330735D01*
X45104401Y-41290000D01*
X44895599Y-41290000D01*
X44690809Y-41330735D01*
X44497902Y-41410640D01*
X44324289Y-41526644D01*
X44260933Y-41590000D01*
X41087325Y-41590000D01*
X41050000Y-41586324D01*
X41012675Y-41590000D01*
X41012667Y-41590000D01*
X40901014Y-41600997D01*
X40757753Y-41644454D01*
X40625724Y-41715026D01*
X40509999Y-41809999D01*
X40486201Y-41838997D01*
X37689003Y-44636196D01*
X37659999Y-44659999D01*
X37604871Y-44727174D01*
X37565026Y-44775724D01*
X37522972Y-44854401D01*
X37494454Y-44907754D01*
X37450997Y-45051015D01*
X37440000Y-45162668D01*
X37440000Y-45162678D01*
X37436324Y-45200000D01*
X36360000Y-45200000D01*
X36360000Y-38016473D01*
X36464886Y-38173446D01*
X36901554Y-38610114D01*
X37415021Y-38953201D01*
X37985554Y-39189524D01*
X38591229Y-39310000D01*
X39208771Y-39310000D01*
X39814446Y-39189524D01*
X40384979Y-38953201D01*
X40898446Y-38610114D01*
X41335114Y-38173446D01*
X41678201Y-37659979D01*
X41914524Y-37089446D01*
X42035000Y-36483771D01*
X42035000Y-35866229D01*
X41914524Y-35260554D01*
X41678201Y-34690021D01*
X41335114Y-34176554D01*
X40898446Y-33739886D01*
X40704057Y-33610000D01*
X113258527Y-33610000D01*
X113101554Y-33714886D01*
G36*
X112088997Y-54543799D02*
G01*
X112089003Y-54543804D01*
X115840001Y-58294803D01*
X115840000Y-77485198D01*
X111885199Y-81440000D01*
X86037322Y-81440000D01*
X85999999Y-81436324D01*
X85962676Y-81440000D01*
X85962667Y-81440000D01*
X85851014Y-81450997D01*
X85707753Y-81494454D01*
X85575723Y-81565026D01*
X85492083Y-81633668D01*
X85459999Y-81659999D01*
X85436201Y-81688997D01*
X79288998Y-87836201D01*
X79260000Y-87859999D01*
X79236202Y-87888997D01*
X79236201Y-87888998D01*
X79165026Y-87975724D01*
X79160000Y-87985127D01*
X79160000Y-87414801D01*
X85414802Y-81160000D01*
X111162678Y-81160000D01*
X111200000Y-81163676D01*
X111237322Y-81160000D01*
X111237333Y-81160000D01*
X111348986Y-81149003D01*
X111492247Y-81105546D01*
X111624276Y-81034974D01*
X111740001Y-80940001D01*
X111763803Y-80910998D01*
X113511009Y-79163794D01*
X113540001Y-79140001D01*
X113563795Y-79111008D01*
X113563799Y-79111004D01*
X113634973Y-79024277D01*
X113634974Y-79024276D01*
X113705546Y-78892247D01*
X113749003Y-78748986D01*
X113760000Y-78637333D01*
X113760000Y-78637324D01*
X113763676Y-78600001D01*
X113760000Y-78562678D01*
X113760000Y-66137322D01*
X113763676Y-66099999D01*
X113760000Y-66062676D01*
X113760000Y-66062667D01*
X113749003Y-65951014D01*
X113705546Y-65807753D01*
X113634974Y-65675723D01*
X113563799Y-65588997D01*
X113540001Y-65559999D01*
X113511003Y-65536201D01*
X107824802Y-59850000D01*
X108511928Y-59850000D01*
X108524188Y-59974482D01*
X108560498Y-60094180D01*
X108619463Y-60204494D01*
X108698815Y-60301185D01*
X108795506Y-60380537D01*
X108905820Y-60439502D01*
X109025518Y-60475812D01*
X109150000Y-60488072D01*
X109714250Y-60485000D01*
X109873000Y-60326250D01*
X109873000Y-59127000D01*
X110127000Y-59127000D01*
X110127000Y-60326250D01*
X110285750Y-60485000D01*
X110850000Y-60488072D01*
X110974482Y-60475812D01*
X111094180Y-60439502D01*
X111204494Y-60380537D01*
X111301185Y-60301185D01*
X111380537Y-60204494D01*
X111439502Y-60094180D01*
X111475812Y-59974482D01*
X111488072Y-59850000D01*
X111485000Y-59285750D01*
X111326250Y-59127000D01*
X110127000Y-59127000D01*
X109873000Y-59127000D01*
X108673750Y-59127000D01*
X108515000Y-59285750D01*
X108511928Y-59850000D01*
X107824802Y-59850000D01*
X107560000Y-59585199D01*
X107560000Y-56114801D01*
X108834342Y-54840460D01*
X108944866Y-54975134D01*
X109170986Y-55160706D01*
X109225791Y-55190000D01*
X109170986Y-55219294D01*
X108944866Y-55404866D01*
X108759294Y-55630986D01*
X108621401Y-55888966D01*
X108536487Y-56168889D01*
X108507815Y-56460000D01*
X108536487Y-56751111D01*
X108621401Y-57031034D01*
X108759294Y-57289014D01*
X108944866Y-57515134D01*
X108974687Y-57539607D01*
X108905820Y-57560498D01*
X108795506Y-57619463D01*
X108698815Y-57698815D01*
X108619463Y-57795506D01*
X108560498Y-57905820D01*
X108524188Y-58025518D01*
X108511928Y-58150000D01*
X108515000Y-58714250D01*
X108673750Y-58873000D01*
X109873000Y-58873000D01*
X109873000Y-58853000D01*
X110127000Y-58853000D01*
X110127000Y-58873000D01*
X111326250Y-58873000D01*
X111485000Y-58714250D01*
X111488072Y-58150000D01*
X111475812Y-58025518D01*
X111439502Y-57905820D01*
X111380537Y-57795506D01*
X111301185Y-57698815D01*
X111204494Y-57619463D01*
X111094180Y-57560498D01*
X111025313Y-57539607D01*
X111055134Y-57515134D01*
X111240706Y-57289014D01*
X111378599Y-57031034D01*
X111463513Y-56751111D01*
X111492185Y-56460000D01*
X111463513Y-56168889D01*
X111378599Y-55888966D01*
X111240706Y-55630986D01*
X111055134Y-55404866D01*
X110829014Y-55219294D01*
X110774209Y-55190000D01*
X110829014Y-55160706D01*
X111055134Y-54975134D01*
X111240706Y-54749014D01*
X111378599Y-54491034D01*
X111463513Y-54211111D01*
X111489765Y-53944567D01*
X112088997Y-54543799D01*
X112088997Y-54543799D01*
G37*
X112088997Y-54543799D02*
X112089003Y-54543804D01*
X115840001Y-58294803D01*
X115840000Y-77485198D01*
X111885199Y-81440000D01*
X86037322Y-81440000D01*
X85999999Y-81436324D01*
X85962676Y-81440000D01*
X85962667Y-81440000D01*
X85851014Y-81450997D01*
X85707753Y-81494454D01*
X85575723Y-81565026D01*
X85492083Y-81633668D01*
X85459999Y-81659999D01*
X85436201Y-81688997D01*
X79288998Y-87836201D01*
X79260000Y-87859999D01*
X79236202Y-87888997D01*
X79236201Y-87888998D01*
X79165026Y-87975724D01*
X79160000Y-87985127D01*
X79160000Y-87414801D01*
X85414802Y-81160000D01*
X111162678Y-81160000D01*
X111200000Y-81163676D01*
X111237322Y-81160000D01*
X111237333Y-81160000D01*
X111348986Y-81149003D01*
X111492247Y-81105546D01*
X111624276Y-81034974D01*
X111740001Y-80940001D01*
X111763803Y-80910998D01*
X113511009Y-79163794D01*
X113540001Y-79140001D01*
X113563795Y-79111008D01*
X113563799Y-79111004D01*
X113634973Y-79024277D01*
X113634974Y-79024276D01*
X113705546Y-78892247D01*
X113749003Y-78748986D01*
X113760000Y-78637333D01*
X113760000Y-78637324D01*
X113763676Y-78600001D01*
X113760000Y-78562678D01*
X113760000Y-66137322D01*
X113763676Y-66099999D01*
X113760000Y-66062676D01*
X113760000Y-66062667D01*
X113749003Y-65951014D01*
X113705546Y-65807753D01*
X113634974Y-65675723D01*
X113563799Y-65588997D01*
X113540001Y-65559999D01*
X113511003Y-65536201D01*
X107824802Y-59850000D01*
X108511928Y-59850000D01*
X108524188Y-59974482D01*
X108560498Y-60094180D01*
X108619463Y-60204494D01*
X108698815Y-60301185D01*
X108795506Y-60380537D01*
X108905820Y-60439502D01*
X109025518Y-60475812D01*
X109150000Y-60488072D01*
X109714250Y-60485000D01*
X109873000Y-60326250D01*
X109873000Y-59127000D01*
X110127000Y-59127000D01*
X110127000Y-60326250D01*
X110285750Y-60485000D01*
X110850000Y-60488072D01*
X110974482Y-60475812D01*
X111094180Y-60439502D01*
X111204494Y-60380537D01*
X111301185Y-60301185D01*
X111380537Y-60204494D01*
X111439502Y-60094180D01*
X111475812Y-59974482D01*
X111488072Y-59850000D01*
X111485000Y-59285750D01*
X111326250Y-59127000D01*
X110127000Y-59127000D01*
X109873000Y-59127000D01*
X108673750Y-59127000D01*
X108515000Y-59285750D01*
X108511928Y-59850000D01*
X107824802Y-59850000D01*
X107560000Y-59585199D01*
X107560000Y-56114801D01*
X108834342Y-54840460D01*
X108944866Y-54975134D01*
X109170986Y-55160706D01*
X109225791Y-55190000D01*
X109170986Y-55219294D01*
X108944866Y-55404866D01*
X108759294Y-55630986D01*
X108621401Y-55888966D01*
X108536487Y-56168889D01*
X108507815Y-56460000D01*
X108536487Y-56751111D01*
X108621401Y-57031034D01*
X108759294Y-57289014D01*
X108944866Y-57515134D01*
X108974687Y-57539607D01*
X108905820Y-57560498D01*
X108795506Y-57619463D01*
X108698815Y-57698815D01*
X108619463Y-57795506D01*
X108560498Y-57905820D01*
X108524188Y-58025518D01*
X108511928Y-58150000D01*
X108515000Y-58714250D01*
X108673750Y-58873000D01*
X109873000Y-58873000D01*
X109873000Y-58853000D01*
X110127000Y-58853000D01*
X110127000Y-58873000D01*
X111326250Y-58873000D01*
X111485000Y-58714250D01*
X111488072Y-58150000D01*
X111475812Y-58025518D01*
X111439502Y-57905820D01*
X111380537Y-57795506D01*
X111301185Y-57698815D01*
X111204494Y-57619463D01*
X111094180Y-57560498D01*
X111025313Y-57539607D01*
X111055134Y-57515134D01*
X111240706Y-57289014D01*
X111378599Y-57031034D01*
X111463513Y-56751111D01*
X111492185Y-56460000D01*
X111463513Y-56168889D01*
X111378599Y-55888966D01*
X111240706Y-55630986D01*
X111055134Y-55404866D01*
X110829014Y-55219294D01*
X110774209Y-55190000D01*
X110829014Y-55160706D01*
X111055134Y-54975134D01*
X111240706Y-54749014D01*
X111378599Y-54491034D01*
X111463513Y-54211111D01*
X111489765Y-53944567D01*
X112088997Y-54543799D01*
M02*
