M48
; DRILL file {KiCad (5.1.2)-2} date 04/05/2021 11:05:56
; FORMAT={-:-/ absolute / metric / decimal}
; #@! TF.CreationDate,2021-05-04T11:05:56-04:00
; #@! TF.GenerationSoftware,Kicad,Pcbnew,(5.1.2)-2
FMAT,2
METRIC
T1C0.400
T2C0.500
T3C1.000
T4C3.200
%
G90
G05
T1
X55.7Y-102.7
X56.8Y-101.1
X60.3Y-102.6
X60.8Y-94.6
X62.6Y-97.5
X65.6Y-94.4
X66.1Y-92.3
X67.1Y-103.3
T2
X93.95Y-114.6
X95.2Y-114.6
X96.45Y-114.6
X97.7Y-114.6
X110.0Y-42.25
X110.0Y-43.5
X110.0Y-44.75
X110.0Y-46.0
X45.0Y-42.35
X45.0Y-43.6
X45.0Y-44.85
X45.0Y-46.1
X102.75Y-114.6
X104.0Y-114.6
X105.25Y-114.6
X106.5Y-114.6
X107.75Y-114.6
X109.0Y-114.6
X76.75Y-114.6
X78.0Y-114.6
X79.25Y-114.6
X80.5Y-114.6
T3
X95.1Y-51.38
X95.1Y-53.92
X95.1Y-56.46
X95.1Y-59.0
X110.12Y-85.04
X110.12Y-87.58
X110.12Y-90.12
X110.12Y-92.66
X110.12Y-95.2
X110.12Y-97.74
X110.12Y-100.28
X110.0Y-51.38
X110.0Y-53.92
X110.0Y-56.46
X110.0Y-59.0
X87.22Y-85.07
X87.22Y-87.61
X87.22Y-90.15
X87.22Y-92.69
X87.22Y-95.23
X87.22Y-97.77
X87.22Y-100.31
X70.35Y-91.13
X70.35Y-93.67
X70.35Y-96.21
X70.35Y-98.75
X70.35Y-101.29
X70.35Y-103.83
T4
X38.9Y-127.75
X115.1Y-36.15
X38.9Y-36.175
X115.1Y-127.75
T0
M30
