G04 #@! TF.GenerationSoftware,KiCad,Pcbnew,(5.1.2)-2*
G04 #@! TF.CreationDate,2021-04-07T22:12:18-04:00*
G04 #@! TF.ProjectId,Magnetometer_A,4d61676e-6574-46f6-9d65-7465725f412e,rev?*
G04 #@! TF.SameCoordinates,Original*
G04 #@! TF.FileFunction,Profile,NP*
%FSLAX46Y46*%
G04 Gerber Fmt 4.6, Leading zero omitted, Abs format (unit mm)*
G04 Created by KiCad (PCBNEW (5.1.2)-2) date 2021-04-07 22:12:18*
%MOMM*%
%LPD*%
G04 APERTURE LIST*
%ADD10C,0.050000*%
G04 APERTURE END LIST*
D10*
X68314074Y-45665848D02*
G75*
G02X75514074Y-52865848I0J-7200000D01*
G01*
X75514074Y-52865848D02*
G75*
G02X68314074Y-60065848I-7200000J0D01*
G01*
X68314074Y-60065848D02*
G75*
G02X61114074Y-52865848I0J7200000D01*
G01*
X61114074Y-52865848D02*
G75*
G02X68314074Y-45665848I7200000J0D01*
G01*
X95314074Y-72665848D02*
G75*
G02X102514074Y-79865848I0J-7200000D01*
G01*
X102514074Y-79865848D02*
G75*
G02X95314074Y-87065848I-7200000J0D01*
G01*
X95314074Y-87065848D02*
G75*
G02X88114074Y-79865848I0J7200000D01*
G01*
X88114074Y-79865848D02*
G75*
G02X95314074Y-72665848I7200000J0D01*
G01*
X88114074Y-52865848D02*
G75*
G02X95314074Y-45665848I7200000J0D01*
G01*
X95314074Y-60065848D02*
G75*
G02X88114074Y-52865848I0J7200000D01*
G01*
X102514074Y-52865848D02*
G75*
G02X95314074Y-60065848I-7200000J0D01*
G01*
X95314074Y-45665848D02*
G75*
G02X102514074Y-52865848I0J-7200000D01*
G01*
X68314074Y-72665848D02*
G75*
G02X75514074Y-79865848I0J-7200000D01*
G01*
X75514074Y-79865848D02*
G75*
G02X68314074Y-87065848I-7200000J0D01*
G01*
X68314074Y-87065848D02*
G75*
G02X61114074Y-79865848I0J7200000D01*
G01*
X61114074Y-79865848D02*
G75*
G02X68314074Y-72665848I7200000J0D01*
G01*
X125016000Y-88774000D02*
X124812800Y-38609000D01*
X119920000Y-21480000D02*
X129867400Y-21500000D01*
X115430000Y-25960001D02*
X45630000Y-25980001D01*
X33830000Y-36430000D02*
X33830000Y-21500000D01*
X33830000Y-111380001D02*
X33830000Y-91160000D01*
X38681400Y-87299200D02*
X38884600Y-41484600D01*
X38884600Y-41484600D02*
X33830000Y-36430000D01*
X33830000Y-91160000D02*
X38681400Y-87299200D01*
X124812800Y-38609000D02*
X129867400Y-33554400D01*
X129867400Y-33554400D02*
X129867400Y-21500000D01*
X106982000Y-111380001D02*
X109530000Y-107284001D01*
X41150000Y-21500000D02*
X33830000Y-21500000D01*
X129842000Y-111380001D02*
X129842000Y-91568000D01*
X119920000Y-107284001D02*
X122476000Y-111380001D01*
X129842000Y-91568000D02*
X125016000Y-88774000D01*
X33830000Y-111380001D02*
X106982000Y-111380001D01*
X109530000Y-107284001D02*
X119920000Y-107284001D01*
X119920000Y-21480000D02*
X115430000Y-25960001D01*
X122476000Y-111380001D02*
X129842000Y-111380001D01*
X45630000Y-25980001D02*
X41150000Y-21500000D01*
M02*
