G04 #@! TF.GenerationSoftware,KiCad,Pcbnew,(5.1.2)-2*
G04 #@! TF.CreationDate,2021-05-04T12:01:07-04:00*
G04 #@! TF.ProjectId,Magnetometer_A,4d61676e-6574-46f6-9d65-7465725f412e,rev?*
G04 #@! TF.SameCoordinates,Original*
G04 #@! TF.FileFunction,Copper,L2,Bot*
G04 #@! TF.FilePolarity,Positive*
%FSLAX46Y46*%
G04 Gerber Fmt 4.6, Leading zero omitted, Abs format (unit mm)*
G04 Created by KiCad (PCBNEW (5.1.2)-2) date 2021-05-04 12:01:07*
%MOMM*%
%LPD*%
G04 APERTURE LIST*
%ADD10C,5.000000*%
%ADD11R,0.850000X0.850000*%
%ADD12C,0.850000*%
%ADD13O,1.700000X1.700000*%
%ADD14R,1.700000X1.700000*%
%ADD15R,1.500000X1.000000*%
%ADD16C,0.800000*%
%ADD17C,0.250000*%
%ADD18C,0.254000*%
G04 APERTURE END LIST*
D10*
X42210000Y-105110000D03*
X42260000Y-44110000D03*
X133860000Y-105110000D03*
X133860000Y-44110000D03*
D11*
X117500000Y-107500000D03*
D12*
X118750000Y-107500000D03*
X120000000Y-107500000D03*
X121250000Y-107500000D03*
D11*
X117500000Y-42500000D03*
D12*
X118750000Y-42500000D03*
X120000000Y-42500000D03*
X121250000Y-42500000D03*
X55500000Y-89950000D03*
X55500000Y-91200000D03*
X55500000Y-92450000D03*
D11*
X55500000Y-93700000D03*
D13*
X69600000Y-41190000D03*
X72140000Y-41190000D03*
X74680000Y-41190000D03*
X77220000Y-41190000D03*
X79760000Y-41190000D03*
X82300000Y-41190000D03*
D14*
X84840000Y-41190000D03*
D13*
X84820000Y-64100000D03*
X82280000Y-64100000D03*
X79740000Y-64100000D03*
X77200000Y-64100000D03*
X74660000Y-64100000D03*
X72120000Y-64100000D03*
D14*
X69580000Y-64100000D03*
D11*
X55500000Y-57300000D03*
D12*
X55500000Y-56050000D03*
X55500000Y-54800000D03*
X55500000Y-53550000D03*
X55500000Y-52300000D03*
X55500000Y-51050000D03*
D13*
X78790000Y-81130000D03*
X76250000Y-81130000D03*
X73710000Y-81130000D03*
X71170000Y-81130000D03*
X68630000Y-81130000D03*
D14*
X66090000Y-81130000D03*
D12*
X55500000Y-62550000D03*
X55500000Y-63800000D03*
X55500000Y-65050000D03*
D11*
X55500000Y-66300000D03*
D15*
X112500000Y-104850000D03*
X112500000Y-106150000D03*
D11*
X54500000Y-98300000D03*
D12*
X54500000Y-99550000D03*
X54500000Y-100800000D03*
X54500000Y-102050000D03*
D16*
X109750000Y-104300000D03*
X65000000Y-86300000D03*
X72799996Y-90800000D03*
X68500000Y-90700000D03*
X51400000Y-82800000D03*
X52200000Y-82100000D03*
X76000000Y-87500000D03*
X71100000Y-90000000D03*
X74599998Y-90700000D03*
X67300000Y-86100000D03*
D17*
X110300000Y-104850000D02*
X112500000Y-104850000D01*
X109750000Y-104300000D02*
X110300000Y-104850000D01*
X118750000Y-108550000D02*
X118750000Y-107500000D01*
X117500000Y-109800000D02*
X118750000Y-108550000D01*
X79740000Y-61740000D02*
X79740000Y-64100000D01*
X74500000Y-56500000D02*
X79740000Y-61740000D01*
X82280000Y-62080000D02*
X82280000Y-64100000D01*
X76300000Y-56100000D02*
X82280000Y-62080000D01*
X54000000Y-99550000D02*
X54500000Y-99550000D01*
X53000000Y-98550000D02*
X54000000Y-99550000D01*
X53000000Y-93600000D02*
X53000000Y-98550000D01*
X54000000Y-92600000D02*
X53000000Y-93600000D01*
X55500000Y-92450000D02*
X55350000Y-92600000D01*
X55350000Y-92600000D02*
X54000000Y-92600000D01*
X58400000Y-64900000D02*
X66090000Y-72590000D01*
X55500000Y-65050000D02*
X55650000Y-64900000D01*
X55650000Y-64900000D02*
X58400000Y-64900000D01*
X54898960Y-92450000D02*
X55500000Y-92450000D01*
X54500000Y-92450000D02*
X54898960Y-92450000D01*
X56101040Y-65050000D02*
X58200000Y-67148960D01*
X55500000Y-65050000D02*
X56101040Y-65050000D01*
X58200000Y-67148960D02*
X58200000Y-71100000D01*
X58200000Y-71100000D02*
X53200000Y-76100000D01*
X53200000Y-76100000D02*
X53200000Y-91150000D01*
X53200000Y-91150000D02*
X54500000Y-92450000D01*
X113500000Y-113800000D02*
X117600000Y-109700000D01*
X66800000Y-113800000D02*
X113500000Y-113800000D01*
X60900000Y-107900000D02*
X66800000Y-113800000D01*
X60900000Y-96300000D02*
X60900000Y-107900000D01*
X55500000Y-92450000D02*
X57050000Y-92450000D01*
X57050000Y-92450000D02*
X60900000Y-96300000D01*
X70500000Y-52500000D02*
X74500000Y-56500000D01*
X55500000Y-52300000D02*
X55700000Y-52500000D01*
X55700000Y-52500000D02*
X70500000Y-52500000D01*
X72300000Y-52100000D02*
X76300000Y-56100000D01*
X55500000Y-52300000D02*
X55700000Y-52100000D01*
X55700000Y-52100000D02*
X72300000Y-52100000D01*
X66090000Y-72610000D02*
X66090000Y-81130000D01*
X66100000Y-72600000D02*
X66090000Y-72610000D01*
X66090000Y-82230000D02*
X66090000Y-81130000D01*
X65000000Y-83320000D02*
X66090000Y-82230000D01*
X65000000Y-86300000D02*
X65000000Y-83320000D01*
X55500000Y-63800000D02*
X63700000Y-63800000D01*
X73710000Y-77810000D02*
X73710000Y-81130000D01*
X63700000Y-67800000D02*
X73710000Y-77810000D01*
X72234311Y-90800000D02*
X72799996Y-90800000D01*
X66574999Y-86540684D02*
X70834315Y-90800000D01*
X70834315Y-90800000D02*
X72234311Y-90800000D01*
X66574999Y-85425001D02*
X66574999Y-86540684D01*
X68600000Y-83400000D02*
X66574999Y-85425001D01*
X71440000Y-83400000D02*
X68600000Y-83400000D01*
X73710000Y-81130000D02*
X71440000Y-83400000D01*
X120150000Y-105300000D02*
X116050000Y-105300000D01*
X121250000Y-107500000D02*
X121250000Y-106400000D01*
X121250000Y-106400000D02*
X120150000Y-105300000D01*
X57050000Y-89950000D02*
X55500000Y-89950000D01*
X116000000Y-105300000D02*
X109200000Y-112100000D01*
X67800000Y-112100000D02*
X62500000Y-106800000D01*
X109200000Y-112100000D02*
X67800000Y-112100000D01*
X62500000Y-106800000D02*
X62500000Y-95400000D01*
X116200000Y-105300000D02*
X116000000Y-105300000D01*
X62500000Y-95400000D02*
X57050000Y-89950000D01*
X120000000Y-106500000D02*
X120000000Y-107500000D01*
X119500000Y-106000000D02*
X120000000Y-106500000D01*
X116700000Y-106000000D02*
X119500000Y-106000000D01*
X113700000Y-109000000D02*
X116700000Y-106000000D01*
X109700000Y-113000000D02*
X113800000Y-108900000D01*
X67300000Y-113000000D02*
X109700000Y-113000000D01*
X61600000Y-107300000D02*
X67300000Y-113000000D01*
X61600000Y-95900000D02*
X61600000Y-107300000D01*
X55500000Y-91200000D02*
X56900000Y-91200000D01*
X56900000Y-91200000D02*
X61600000Y-95900000D01*
X71170000Y-81430000D02*
X71170000Y-81130000D01*
X67417157Y-90700000D02*
X65900000Y-89182843D01*
X65900000Y-89182843D02*
X65900000Y-85100000D01*
X65900000Y-85100000D02*
X68200000Y-82800000D01*
X68500000Y-90700000D02*
X67417157Y-90700000D01*
X68200000Y-82800000D02*
X69800000Y-82800000D01*
X69800000Y-82800000D02*
X71170000Y-81430000D01*
X55500000Y-56050000D02*
X54898960Y-56050000D01*
X51400000Y-59548960D02*
X51400000Y-82234315D01*
X54898960Y-56050000D02*
X51400000Y-59548960D01*
X51400000Y-82234315D02*
X51400000Y-82800000D01*
X52200000Y-61275000D02*
X52200000Y-81534315D01*
X52200000Y-81534315D02*
X52200000Y-82100000D01*
X55500000Y-57300000D02*
X55500000Y-57975000D01*
X55500000Y-57975000D02*
X52200000Y-61275000D01*
X80900000Y-87500000D02*
X76565685Y-87500000D01*
X76565685Y-87500000D02*
X76000000Y-87500000D01*
X88600000Y-79800000D02*
X80900000Y-87500000D01*
X88600000Y-47490000D02*
X88600000Y-79800000D01*
X82300000Y-41190000D02*
X88600000Y-47490000D01*
X71100000Y-87400000D02*
X71100000Y-90000000D01*
X79760000Y-47360000D02*
X87600000Y-55200000D01*
X79760000Y-41190000D02*
X79760000Y-47360000D01*
X87600000Y-55200000D02*
X87600000Y-78900000D01*
X87600000Y-78900000D02*
X81300000Y-85200000D01*
X81300000Y-85200000D02*
X73300000Y-85200000D01*
X73300000Y-85200000D02*
X71100000Y-87400000D01*
X74600000Y-90700000D02*
X74599998Y-90700000D01*
X84840000Y-42290000D02*
X89400000Y-46850000D01*
X84840000Y-41190000D02*
X84840000Y-42290000D01*
X89400000Y-46850000D02*
X89400000Y-80400000D01*
X89400000Y-80400000D02*
X80400000Y-89400000D01*
X80400000Y-89400000D02*
X75900000Y-89400000D01*
X75900000Y-89400000D02*
X74600000Y-90700000D01*
X67300000Y-85700000D02*
X67300000Y-86100000D01*
X77220000Y-41190000D02*
X77220000Y-47620000D01*
X86900000Y-57300000D02*
X86900000Y-77900000D01*
X77220000Y-47620000D02*
X86900000Y-57300000D01*
X86900000Y-77900000D02*
X80700000Y-84100000D01*
X80700000Y-84100000D02*
X68900000Y-84100000D01*
X68900000Y-84100000D02*
X67300000Y-85700000D01*
D18*
G36*
X136400000Y-42268527D02*
G01*
X136295114Y-42111554D01*
X135858446Y-41674886D01*
X135344979Y-41331799D01*
X134774446Y-41095476D01*
X134168771Y-40975000D01*
X133551229Y-40975000D01*
X132945554Y-41095476D01*
X132375021Y-41331799D01*
X131861554Y-41674886D01*
X131424886Y-42111554D01*
X131081799Y-42625021D01*
X130845476Y-43195554D01*
X130725000Y-43801229D01*
X130725000Y-44418771D01*
X130845476Y-45024446D01*
X131081799Y-45594979D01*
X131424886Y-46108446D01*
X131861554Y-46545114D01*
X132375021Y-46888201D01*
X132945554Y-47124524D01*
X133551229Y-47245000D01*
X134168771Y-47245000D01*
X134774446Y-47124524D01*
X135344979Y-46888201D01*
X135858446Y-46545114D01*
X136295114Y-46108446D01*
X136400000Y-45951472D01*
X136400001Y-103268529D01*
X136295114Y-103111554D01*
X135858446Y-102674886D01*
X135344979Y-102331799D01*
X134774446Y-102095476D01*
X134168771Y-101975000D01*
X133551229Y-101975000D01*
X132945554Y-102095476D01*
X132375021Y-102331799D01*
X131861554Y-102674886D01*
X131424886Y-103111554D01*
X131081799Y-103625021D01*
X130845476Y-104195554D01*
X130725000Y-104801229D01*
X130725000Y-105418771D01*
X130845476Y-106024446D01*
X131081799Y-106594979D01*
X131424886Y-107108446D01*
X131861554Y-107545114D01*
X132375021Y-107888201D01*
X132945554Y-108124524D01*
X133551229Y-108245000D01*
X134168771Y-108245000D01*
X134774446Y-108124524D01*
X135344979Y-107888201D01*
X135858446Y-107545114D01*
X136295114Y-107108446D01*
X136400001Y-106951471D01*
X136400001Y-115250000D01*
X39720000Y-115250000D01*
X39720000Y-107026303D01*
X39774886Y-107108446D01*
X40211554Y-107545114D01*
X40725021Y-107888201D01*
X41295554Y-108124524D01*
X41901229Y-108245000D01*
X42518771Y-108245000D01*
X43124446Y-108124524D01*
X43694979Y-107888201D01*
X44208446Y-107545114D01*
X44645114Y-107108446D01*
X44988201Y-106594979D01*
X45224524Y-106024446D01*
X45345000Y-105418771D01*
X45345000Y-104801229D01*
X45224524Y-104195554D01*
X44988201Y-103625021D01*
X44645114Y-103111554D01*
X44208446Y-102674886D01*
X43694979Y-102331799D01*
X43124446Y-102095476D01*
X42518771Y-101975000D01*
X41901229Y-101975000D01*
X41295554Y-102095476D01*
X40725021Y-102331799D01*
X40211554Y-102674886D01*
X39774886Y-103111554D01*
X39720000Y-103193697D01*
X39720000Y-82698061D01*
X50365000Y-82698061D01*
X50365000Y-82901939D01*
X50404774Y-83101898D01*
X50482795Y-83290256D01*
X50596063Y-83459774D01*
X50740226Y-83603937D01*
X50909744Y-83717205D01*
X51098102Y-83795226D01*
X51298061Y-83835000D01*
X51501939Y-83835000D01*
X51701898Y-83795226D01*
X51890256Y-83717205D01*
X52059774Y-83603937D01*
X52203937Y-83459774D01*
X52317205Y-83290256D01*
X52388660Y-83117750D01*
X52440000Y-83107538D01*
X52440001Y-91112667D01*
X52436324Y-91150000D01*
X52450998Y-91298985D01*
X52494454Y-91442246D01*
X52565026Y-91574276D01*
X52608004Y-91626644D01*
X52660000Y-91690001D01*
X52688998Y-91713799D01*
X53250198Y-92275000D01*
X52489002Y-93036196D01*
X52459999Y-93059999D01*
X52406071Y-93125711D01*
X52365026Y-93175724D01*
X52352583Y-93199003D01*
X52294454Y-93307754D01*
X52250997Y-93451015D01*
X52240000Y-93562668D01*
X52240000Y-93562678D01*
X52236324Y-93600000D01*
X52240000Y-93637323D01*
X52240001Y-98512668D01*
X52236324Y-98550000D01*
X52250998Y-98698985D01*
X52294454Y-98842246D01*
X52365026Y-98974276D01*
X52418142Y-99038997D01*
X52460000Y-99090001D01*
X52488998Y-99113799D01*
X53436201Y-100061003D01*
X53459999Y-100090001D01*
X53488997Y-100113799D01*
X53575724Y-100184974D01*
X53620208Y-100208752D01*
X53560640Y-100297902D01*
X53480735Y-100490809D01*
X53440000Y-100695599D01*
X53440000Y-100904401D01*
X53480735Y-101109191D01*
X53560640Y-101302098D01*
X53642760Y-101425000D01*
X53560640Y-101547902D01*
X53480735Y-101740809D01*
X53440000Y-101945599D01*
X53440000Y-102154401D01*
X53480735Y-102359191D01*
X53560640Y-102552098D01*
X53676644Y-102725711D01*
X53824289Y-102873356D01*
X53997902Y-102989360D01*
X54190809Y-103069265D01*
X54395599Y-103110000D01*
X54604401Y-103110000D01*
X54809191Y-103069265D01*
X55002098Y-102989360D01*
X55175711Y-102873356D01*
X55323356Y-102725711D01*
X55439360Y-102552098D01*
X55519265Y-102359191D01*
X55560000Y-102154401D01*
X55560000Y-101945599D01*
X55519265Y-101740809D01*
X55439360Y-101547902D01*
X55357240Y-101425000D01*
X55439360Y-101302098D01*
X55519265Y-101109191D01*
X55560000Y-100904401D01*
X55560000Y-100695599D01*
X55519265Y-100490809D01*
X55439360Y-100297902D01*
X55357240Y-100175000D01*
X55439360Y-100052098D01*
X55519265Y-99859191D01*
X55560000Y-99654401D01*
X55560000Y-99445599D01*
X55519265Y-99240809D01*
X55453483Y-99081997D01*
X55455537Y-99079494D01*
X55514502Y-98969180D01*
X55550812Y-98849482D01*
X55563072Y-98725000D01*
X55560000Y-98585750D01*
X55401250Y-98427000D01*
X54627000Y-98427000D01*
X54627000Y-98447000D01*
X54373000Y-98447000D01*
X54373000Y-98427000D01*
X54353000Y-98427000D01*
X54353000Y-98173000D01*
X54373000Y-98173000D01*
X54373000Y-97398750D01*
X54627000Y-97398750D01*
X54627000Y-98173000D01*
X55401250Y-98173000D01*
X55560000Y-98014250D01*
X55563072Y-97875000D01*
X55550812Y-97750518D01*
X55514502Y-97630820D01*
X55455537Y-97520506D01*
X55376185Y-97423815D01*
X55279494Y-97344463D01*
X55169180Y-97285498D01*
X55049482Y-97249188D01*
X54925000Y-97236928D01*
X54785750Y-97240000D01*
X54627000Y-97398750D01*
X54373000Y-97398750D01*
X54214250Y-97240000D01*
X54075000Y-97236928D01*
X53950518Y-97249188D01*
X53830820Y-97285498D01*
X53760000Y-97323353D01*
X53760000Y-94125000D01*
X54436928Y-94125000D01*
X54449188Y-94249482D01*
X54485498Y-94369180D01*
X54544463Y-94479494D01*
X54623815Y-94576185D01*
X54720506Y-94655537D01*
X54830820Y-94714502D01*
X54950518Y-94750812D01*
X55075000Y-94763072D01*
X55214250Y-94760000D01*
X55373000Y-94601250D01*
X55373000Y-93827000D01*
X55627000Y-93827000D01*
X55627000Y-94601250D01*
X55785750Y-94760000D01*
X55925000Y-94763072D01*
X56049482Y-94750812D01*
X56169180Y-94714502D01*
X56279494Y-94655537D01*
X56376185Y-94576185D01*
X56455537Y-94479494D01*
X56514502Y-94369180D01*
X56550812Y-94249482D01*
X56563072Y-94125000D01*
X56560000Y-93985750D01*
X56401250Y-93827000D01*
X55627000Y-93827000D01*
X55373000Y-93827000D01*
X54598750Y-93827000D01*
X54440000Y-93985750D01*
X54436928Y-94125000D01*
X53760000Y-94125000D01*
X53760000Y-93914801D01*
X54314802Y-93360000D01*
X54438803Y-93360000D01*
X54440000Y-93414250D01*
X54598750Y-93573000D01*
X55373000Y-93573000D01*
X55373000Y-93553000D01*
X55627000Y-93553000D01*
X55627000Y-93573000D01*
X56401250Y-93573000D01*
X56560000Y-93414250D01*
X56563072Y-93275000D01*
X56556670Y-93210000D01*
X56735199Y-93210000D01*
X60140000Y-96614802D01*
X60140001Y-107862668D01*
X60136324Y-107900000D01*
X60140001Y-107937333D01*
X60150998Y-108048986D01*
X60159935Y-108078449D01*
X60194454Y-108192246D01*
X60265026Y-108324276D01*
X60328004Y-108401014D01*
X60360000Y-108440001D01*
X60388998Y-108463799D01*
X66236201Y-114311003D01*
X66259999Y-114340001D01*
X66288997Y-114363799D01*
X66375723Y-114434974D01*
X66507753Y-114505546D01*
X66651014Y-114549003D01*
X66762667Y-114560000D01*
X66762677Y-114560000D01*
X66799999Y-114563676D01*
X66837322Y-114560000D01*
X113462678Y-114560000D01*
X113500000Y-114563676D01*
X113537322Y-114560000D01*
X113537333Y-114560000D01*
X113648986Y-114549003D01*
X113792247Y-114505546D01*
X113924276Y-114434974D01*
X114040001Y-114340001D01*
X114063804Y-114310997D01*
X118163799Y-110211003D01*
X118163803Y-110210998D01*
X119261004Y-109113798D01*
X119290001Y-109090001D01*
X119363863Y-109000000D01*
X119384974Y-108974277D01*
X119455546Y-108842247D01*
X119455546Y-108842246D01*
X119499003Y-108698986D01*
X119510000Y-108587333D01*
X119510000Y-108587323D01*
X119513676Y-108550000D01*
X119510000Y-108512677D01*
X119510000Y-108444371D01*
X119690809Y-108519265D01*
X119895599Y-108560000D01*
X120104401Y-108560000D01*
X120309191Y-108519265D01*
X120502098Y-108439360D01*
X120625000Y-108357240D01*
X120747902Y-108439360D01*
X120940809Y-108519265D01*
X121145599Y-108560000D01*
X121354401Y-108560000D01*
X121559191Y-108519265D01*
X121752098Y-108439360D01*
X121925711Y-108323356D01*
X122073356Y-108175711D01*
X122189360Y-108002098D01*
X122269265Y-107809191D01*
X122310000Y-107604401D01*
X122310000Y-107395599D01*
X122269265Y-107190809D01*
X122189360Y-106997902D01*
X122073356Y-106824289D01*
X122010000Y-106760933D01*
X122010000Y-106437323D01*
X122013676Y-106400000D01*
X122010000Y-106362677D01*
X122010000Y-106362667D01*
X121999003Y-106251014D01*
X121955546Y-106107753D01*
X121948437Y-106094454D01*
X121884974Y-105975723D01*
X121813799Y-105888997D01*
X121790001Y-105859999D01*
X121761003Y-105836201D01*
X120713804Y-104789002D01*
X120690001Y-104759999D01*
X120574276Y-104665026D01*
X120442247Y-104594454D01*
X120298986Y-104550997D01*
X120187333Y-104540000D01*
X120187322Y-104540000D01*
X120150000Y-104536324D01*
X120112678Y-104540000D01*
X116037322Y-104540000D01*
X115999999Y-104536324D01*
X115962676Y-104540000D01*
X115962667Y-104540000D01*
X115851014Y-104550997D01*
X115707753Y-104594454D01*
X115575724Y-104665026D01*
X115459999Y-104759999D01*
X115436201Y-104788997D01*
X113837224Y-106387974D01*
X113726250Y-106277000D01*
X112627000Y-106277000D01*
X112627000Y-107126250D01*
X112785750Y-107285000D01*
X112939183Y-107286015D01*
X108885199Y-111340000D01*
X68114802Y-111340000D01*
X63260000Y-106485199D01*
X63260000Y-95437323D01*
X63263676Y-95400000D01*
X63260000Y-95362677D01*
X63260000Y-95362667D01*
X63249003Y-95251014D01*
X63205546Y-95107753D01*
X63134974Y-94975723D01*
X63063799Y-94888997D01*
X63040001Y-94859999D01*
X63011003Y-94836201D01*
X57613804Y-89439003D01*
X57590001Y-89409999D01*
X57474276Y-89315026D01*
X57342247Y-89244454D01*
X57198986Y-89200997D01*
X57087333Y-89190000D01*
X57087322Y-89190000D01*
X57050000Y-89186324D01*
X57012678Y-89190000D01*
X56239067Y-89190000D01*
X56175711Y-89126644D01*
X56002098Y-89010640D01*
X55809191Y-88930735D01*
X55604401Y-88890000D01*
X55395599Y-88890000D01*
X55190809Y-88930735D01*
X54997902Y-89010640D01*
X54824289Y-89126644D01*
X54676644Y-89274289D01*
X54560640Y-89447902D01*
X54480735Y-89640809D01*
X54440000Y-89845599D01*
X54440000Y-90054401D01*
X54480735Y-90259191D01*
X54560640Y-90452098D01*
X54642760Y-90575000D01*
X54560640Y-90697902D01*
X54480735Y-90890809D01*
X54440000Y-91095599D01*
X54440000Y-91304401D01*
X54442681Y-91317879D01*
X53960000Y-90835199D01*
X53960000Y-76414801D01*
X58711003Y-71663799D01*
X58740001Y-71640001D01*
X58834974Y-71524276D01*
X58905546Y-71392247D01*
X58949003Y-71248986D01*
X58960000Y-71137333D01*
X58960000Y-71137323D01*
X58963676Y-71100000D01*
X58960000Y-71062677D01*
X58960000Y-67186285D01*
X58963676Y-67148960D01*
X58960000Y-67111635D01*
X58960000Y-67111627D01*
X58949003Y-66999974D01*
X58905546Y-66856713D01*
X58834974Y-66724684D01*
X58740001Y-66608959D01*
X58711004Y-66585162D01*
X57785842Y-65660000D01*
X58085199Y-65660000D01*
X65330000Y-72904802D01*
X65330001Y-79641928D01*
X65240000Y-79641928D01*
X65115518Y-79654188D01*
X64995820Y-79690498D01*
X64885506Y-79749463D01*
X64788815Y-79828815D01*
X64709463Y-79925506D01*
X64650498Y-80035820D01*
X64614188Y-80155518D01*
X64601928Y-80280000D01*
X64601928Y-81980000D01*
X64614188Y-82104482D01*
X64650498Y-82224180D01*
X64709463Y-82334494D01*
X64788815Y-82431185D01*
X64802655Y-82442543D01*
X64488998Y-82756201D01*
X64460000Y-82779999D01*
X64436202Y-82808997D01*
X64436201Y-82808998D01*
X64365026Y-82895724D01*
X64294454Y-83027754D01*
X64271964Y-83101898D01*
X64250998Y-83171014D01*
X64240001Y-83282667D01*
X64236324Y-83320000D01*
X64240001Y-83357332D01*
X64240000Y-85596289D01*
X64196063Y-85640226D01*
X64082795Y-85809744D01*
X64004774Y-85998102D01*
X63965000Y-86198061D01*
X63965000Y-86401939D01*
X64004774Y-86601898D01*
X64082795Y-86790256D01*
X64196063Y-86959774D01*
X64340226Y-87103937D01*
X64509744Y-87217205D01*
X64698102Y-87295226D01*
X64898061Y-87335000D01*
X65101939Y-87335000D01*
X65140000Y-87327429D01*
X65140000Y-89145520D01*
X65136324Y-89182843D01*
X65140000Y-89220165D01*
X65140000Y-89220175D01*
X65150997Y-89331828D01*
X65174710Y-89409999D01*
X65194454Y-89475089D01*
X65265026Y-89607119D01*
X65292675Y-89640809D01*
X65359999Y-89722844D01*
X65389003Y-89746647D01*
X66853358Y-91211003D01*
X66877156Y-91240001D01*
X66906154Y-91263799D01*
X66992880Y-91334974D01*
X67095826Y-91390000D01*
X67124910Y-91405546D01*
X67268171Y-91449003D01*
X67379824Y-91460000D01*
X67379834Y-91460000D01*
X67417156Y-91463676D01*
X67454479Y-91460000D01*
X67796289Y-91460000D01*
X67840226Y-91503937D01*
X68009744Y-91617205D01*
X68198102Y-91695226D01*
X68398061Y-91735000D01*
X68601939Y-91735000D01*
X68801898Y-91695226D01*
X68990256Y-91617205D01*
X69159774Y-91503937D01*
X69303937Y-91359774D01*
X69417205Y-91190256D01*
X69495226Y-91001898D01*
X69535000Y-90801939D01*
X69535000Y-90598061D01*
X69529395Y-90569883D01*
X70270520Y-91311008D01*
X70294314Y-91340001D01*
X70323307Y-91363795D01*
X70323311Y-91363799D01*
X70374181Y-91405546D01*
X70410039Y-91434974D01*
X70542068Y-91505546D01*
X70685329Y-91549003D01*
X70796982Y-91560000D01*
X70796991Y-91560000D01*
X70834314Y-91563676D01*
X70871637Y-91560000D01*
X72096285Y-91560000D01*
X72140222Y-91603937D01*
X72309740Y-91717205D01*
X72498098Y-91795226D01*
X72698057Y-91835000D01*
X72901935Y-91835000D01*
X73101894Y-91795226D01*
X73290252Y-91717205D01*
X73459770Y-91603937D01*
X73603933Y-91459774D01*
X73717201Y-91290256D01*
X73729604Y-91260313D01*
X73796061Y-91359774D01*
X73940224Y-91503937D01*
X74109742Y-91617205D01*
X74298100Y-91695226D01*
X74498059Y-91735000D01*
X74701937Y-91735000D01*
X74901896Y-91695226D01*
X75090254Y-91617205D01*
X75259772Y-91503937D01*
X75403935Y-91359774D01*
X75517203Y-91190256D01*
X75595224Y-91001898D01*
X75634998Y-90801939D01*
X75634998Y-90739803D01*
X76214802Y-90160000D01*
X80362678Y-90160000D01*
X80400000Y-90163676D01*
X80437322Y-90160000D01*
X80437333Y-90160000D01*
X80548986Y-90149003D01*
X80692247Y-90105546D01*
X80824276Y-90034974D01*
X80940001Y-89940001D01*
X80963804Y-89910997D01*
X89911003Y-80963799D01*
X89940001Y-80940001D01*
X90000567Y-80866201D01*
X90034974Y-80824277D01*
X90105546Y-80692247D01*
X90136562Y-80589999D01*
X90149003Y-80548986D01*
X90160000Y-80437333D01*
X90160000Y-80437324D01*
X90163676Y-80400001D01*
X90160000Y-80362678D01*
X90160000Y-46887323D01*
X90163676Y-46850000D01*
X90160000Y-46812677D01*
X90160000Y-46812667D01*
X90149003Y-46701014D01*
X90105546Y-46557753D01*
X90034974Y-46425724D01*
X89940001Y-46309999D01*
X89911004Y-46286202D01*
X86127345Y-42502543D01*
X86141185Y-42491185D01*
X86220537Y-42394494D01*
X86279502Y-42284180D01*
X86315812Y-42164482D01*
X86328072Y-42040000D01*
X86328072Y-41510000D01*
X90796807Y-41510000D01*
X90800001Y-41542430D01*
X90800000Y-107677581D01*
X90796807Y-107710000D01*
X90809550Y-107839383D01*
X90847290Y-107963793D01*
X90908575Y-108078450D01*
X90968113Y-108150997D01*
X90991052Y-108178948D01*
X91091550Y-108261425D01*
X91206207Y-108322710D01*
X91330617Y-108360450D01*
X91460000Y-108373193D01*
X91492419Y-108370000D01*
X101627581Y-108370000D01*
X101660000Y-108373193D01*
X101692419Y-108370000D01*
X101789383Y-108360450D01*
X101913793Y-108322710D01*
X102028450Y-108261425D01*
X102128948Y-108178948D01*
X102211425Y-108078450D01*
X102272710Y-107963793D01*
X102310450Y-107839383D01*
X102323193Y-107710000D01*
X102320000Y-107677581D01*
X102320000Y-106650000D01*
X111111928Y-106650000D01*
X111124188Y-106774482D01*
X111160498Y-106894180D01*
X111219463Y-107004494D01*
X111298815Y-107101185D01*
X111395506Y-107180537D01*
X111505820Y-107239502D01*
X111625518Y-107275812D01*
X111750000Y-107288072D01*
X112214250Y-107285000D01*
X112373000Y-107126250D01*
X112373000Y-106277000D01*
X111273750Y-106277000D01*
X111115000Y-106435750D01*
X111111928Y-106650000D01*
X102320000Y-106650000D01*
X102320000Y-104198061D01*
X108715000Y-104198061D01*
X108715000Y-104401939D01*
X108754774Y-104601898D01*
X108832795Y-104790256D01*
X108946063Y-104959774D01*
X109090226Y-105103937D01*
X109259744Y-105217205D01*
X109448102Y-105295226D01*
X109648061Y-105335000D01*
X109710197Y-105335000D01*
X109736205Y-105361007D01*
X109759999Y-105390001D01*
X109788992Y-105413795D01*
X109788996Y-105413799D01*
X109845292Y-105459999D01*
X109875724Y-105484974D01*
X110007753Y-105555546D01*
X110151014Y-105599003D01*
X110262667Y-105610000D01*
X110262676Y-105610000D01*
X110299999Y-105613676D01*
X110337322Y-105610000D01*
X111115868Y-105610000D01*
X111111928Y-105650000D01*
X111115000Y-105864250D01*
X111273750Y-106023000D01*
X112373000Y-106023000D01*
X112373000Y-106003000D01*
X112627000Y-106003000D01*
X112627000Y-106023000D01*
X113726250Y-106023000D01*
X113885000Y-105864250D01*
X113888072Y-105650000D01*
X113875812Y-105525518D01*
X113868071Y-105500000D01*
X113875812Y-105474482D01*
X113888072Y-105350000D01*
X113888072Y-104350000D01*
X113875812Y-104225518D01*
X113839502Y-104105820D01*
X113780537Y-103995506D01*
X113701185Y-103898815D01*
X113604494Y-103819463D01*
X113494180Y-103760498D01*
X113374482Y-103724188D01*
X113250000Y-103711928D01*
X111750000Y-103711928D01*
X111625518Y-103724188D01*
X111505820Y-103760498D01*
X111395506Y-103819463D01*
X111298815Y-103898815D01*
X111219463Y-103995506D01*
X111168954Y-104090000D01*
X110763506Y-104090000D01*
X110745226Y-103998102D01*
X110667205Y-103809744D01*
X110553937Y-103640226D01*
X110409774Y-103496063D01*
X110240256Y-103382795D01*
X110051898Y-103304774D01*
X109851939Y-103265000D01*
X109648061Y-103265000D01*
X109448102Y-103304774D01*
X109259744Y-103382795D01*
X109090226Y-103496063D01*
X108946063Y-103640226D01*
X108832795Y-103809744D01*
X108754774Y-103998102D01*
X108715000Y-104198061D01*
X102320000Y-104198061D01*
X102320000Y-42925000D01*
X116436928Y-42925000D01*
X116449188Y-43049482D01*
X116485498Y-43169180D01*
X116544463Y-43279494D01*
X116623815Y-43376185D01*
X116720506Y-43455537D01*
X116830820Y-43514502D01*
X116950518Y-43550812D01*
X117075000Y-43563072D01*
X117214250Y-43560000D01*
X117373000Y-43401250D01*
X117373000Y-42627000D01*
X116598750Y-42627000D01*
X116440000Y-42785750D01*
X116436928Y-42925000D01*
X102320000Y-42925000D01*
X102320000Y-42075000D01*
X116436928Y-42075000D01*
X116440000Y-42214250D01*
X116598750Y-42373000D01*
X117373000Y-42373000D01*
X117373000Y-41598750D01*
X117627000Y-41598750D01*
X117627000Y-42373000D01*
X117647000Y-42373000D01*
X117647000Y-42627000D01*
X117627000Y-42627000D01*
X117627000Y-43401250D01*
X117785750Y-43560000D01*
X117925000Y-43563072D01*
X118049482Y-43550812D01*
X118169180Y-43514502D01*
X118279494Y-43455537D01*
X118281997Y-43453483D01*
X118440809Y-43519265D01*
X118645599Y-43560000D01*
X118854401Y-43560000D01*
X119059191Y-43519265D01*
X119252098Y-43439360D01*
X119375000Y-43357240D01*
X119497902Y-43439360D01*
X119690809Y-43519265D01*
X119895599Y-43560000D01*
X120104401Y-43560000D01*
X120309191Y-43519265D01*
X120502098Y-43439360D01*
X120625000Y-43357240D01*
X120747902Y-43439360D01*
X120940809Y-43519265D01*
X121145599Y-43560000D01*
X121354401Y-43560000D01*
X121559191Y-43519265D01*
X121752098Y-43439360D01*
X121925711Y-43323356D01*
X122073356Y-43175711D01*
X122189360Y-43002098D01*
X122269265Y-42809191D01*
X122310000Y-42604401D01*
X122310000Y-42395599D01*
X122269265Y-42190809D01*
X122189360Y-41997902D01*
X122073356Y-41824289D01*
X121925711Y-41676644D01*
X121752098Y-41560640D01*
X121559191Y-41480735D01*
X121354401Y-41440000D01*
X121145599Y-41440000D01*
X120940809Y-41480735D01*
X120747902Y-41560640D01*
X120625000Y-41642760D01*
X120502098Y-41560640D01*
X120309191Y-41480735D01*
X120104401Y-41440000D01*
X119895599Y-41440000D01*
X119690809Y-41480735D01*
X119497902Y-41560640D01*
X119375000Y-41642760D01*
X119252098Y-41560640D01*
X119059191Y-41480735D01*
X118854401Y-41440000D01*
X118645599Y-41440000D01*
X118440809Y-41480735D01*
X118281997Y-41546517D01*
X118279494Y-41544463D01*
X118169180Y-41485498D01*
X118049482Y-41449188D01*
X117925000Y-41436928D01*
X117785750Y-41440000D01*
X117627000Y-41598750D01*
X117373000Y-41598750D01*
X117214250Y-41440000D01*
X117075000Y-41436928D01*
X116950518Y-41449188D01*
X116830820Y-41485498D01*
X116720506Y-41544463D01*
X116623815Y-41623815D01*
X116544463Y-41720506D01*
X116485498Y-41830820D01*
X116449188Y-41950518D01*
X116436928Y-42075000D01*
X102320000Y-42075000D01*
X102320000Y-41542419D01*
X102323193Y-41510000D01*
X102310450Y-41380617D01*
X102272710Y-41256207D01*
X102211425Y-41141550D01*
X102128948Y-41041052D01*
X102028450Y-40958575D01*
X101913793Y-40897290D01*
X101789383Y-40859550D01*
X101692419Y-40850000D01*
X101660000Y-40846807D01*
X101627581Y-40850000D01*
X91492419Y-40850000D01*
X91460000Y-40846807D01*
X91427581Y-40850000D01*
X91330617Y-40859550D01*
X91206207Y-40897290D01*
X91091550Y-40958575D01*
X90991052Y-41041052D01*
X90908575Y-41141550D01*
X90847290Y-41256207D01*
X90809550Y-41380617D01*
X90796807Y-41510000D01*
X86328072Y-41510000D01*
X86328072Y-40340000D01*
X86315812Y-40215518D01*
X86279502Y-40095820D01*
X86220537Y-39985506D01*
X86141185Y-39888815D01*
X86044494Y-39809463D01*
X85934180Y-39750498D01*
X85814482Y-39714188D01*
X85690000Y-39701928D01*
X83990000Y-39701928D01*
X83865518Y-39714188D01*
X83745820Y-39750498D01*
X83635506Y-39809463D01*
X83538815Y-39888815D01*
X83459463Y-39985506D01*
X83400498Y-40095820D01*
X83379607Y-40164687D01*
X83355134Y-40134866D01*
X83129014Y-39949294D01*
X82871034Y-39811401D01*
X82591111Y-39726487D01*
X82372950Y-39705000D01*
X82227050Y-39705000D01*
X82008889Y-39726487D01*
X81728966Y-39811401D01*
X81470986Y-39949294D01*
X81244866Y-40134866D01*
X81059294Y-40360986D01*
X81030000Y-40415791D01*
X81000706Y-40360986D01*
X80815134Y-40134866D01*
X80589014Y-39949294D01*
X80331034Y-39811401D01*
X80051111Y-39726487D01*
X79832950Y-39705000D01*
X79687050Y-39705000D01*
X79468889Y-39726487D01*
X79188966Y-39811401D01*
X78930986Y-39949294D01*
X78704866Y-40134866D01*
X78519294Y-40360986D01*
X78490000Y-40415791D01*
X78460706Y-40360986D01*
X78275134Y-40134866D01*
X78049014Y-39949294D01*
X77791034Y-39811401D01*
X77511111Y-39726487D01*
X77292950Y-39705000D01*
X77147050Y-39705000D01*
X76928889Y-39726487D01*
X76648966Y-39811401D01*
X76390986Y-39949294D01*
X76164866Y-40134866D01*
X75979294Y-40360986D01*
X75950000Y-40415791D01*
X75920706Y-40360986D01*
X75735134Y-40134866D01*
X75509014Y-39949294D01*
X75251034Y-39811401D01*
X74971111Y-39726487D01*
X74752950Y-39705000D01*
X74607050Y-39705000D01*
X74388889Y-39726487D01*
X74108966Y-39811401D01*
X73850986Y-39949294D01*
X73624866Y-40134866D01*
X73439294Y-40360986D01*
X73410000Y-40415791D01*
X73380706Y-40360986D01*
X73195134Y-40134866D01*
X72969014Y-39949294D01*
X72711034Y-39811401D01*
X72431111Y-39726487D01*
X72212950Y-39705000D01*
X72067050Y-39705000D01*
X71848889Y-39726487D01*
X71568966Y-39811401D01*
X71310986Y-39949294D01*
X71084866Y-40134866D01*
X70899294Y-40360986D01*
X70864799Y-40425523D01*
X70795178Y-40308645D01*
X70600269Y-40092412D01*
X70366920Y-39918359D01*
X70104099Y-39793175D01*
X69956890Y-39748524D01*
X69727000Y-39869845D01*
X69727000Y-41063000D01*
X69747000Y-41063000D01*
X69747000Y-41317000D01*
X69727000Y-41317000D01*
X69727000Y-42510155D01*
X69956890Y-42631476D01*
X70104099Y-42586825D01*
X70366920Y-42461641D01*
X70600269Y-42287588D01*
X70795178Y-42071355D01*
X70864799Y-41954477D01*
X70899294Y-42019014D01*
X71084866Y-42245134D01*
X71310986Y-42430706D01*
X71568966Y-42568599D01*
X71848889Y-42653513D01*
X72067050Y-42675000D01*
X72212950Y-42675000D01*
X72431111Y-42653513D01*
X72711034Y-42568599D01*
X72969014Y-42430706D01*
X73195134Y-42245134D01*
X73380706Y-42019014D01*
X73410000Y-41964209D01*
X73439294Y-42019014D01*
X73624866Y-42245134D01*
X73850986Y-42430706D01*
X74108966Y-42568599D01*
X74388889Y-42653513D01*
X74607050Y-42675000D01*
X74752950Y-42675000D01*
X74971111Y-42653513D01*
X75251034Y-42568599D01*
X75509014Y-42430706D01*
X75735134Y-42245134D01*
X75920706Y-42019014D01*
X75950000Y-41964209D01*
X75979294Y-42019014D01*
X76164866Y-42245134D01*
X76390986Y-42430706D01*
X76460000Y-42467595D01*
X76460001Y-47582668D01*
X76456324Y-47620000D01*
X76460001Y-47657333D01*
X76470998Y-47768986D01*
X76475636Y-47784276D01*
X76514454Y-47912246D01*
X76585026Y-48044276D01*
X76651253Y-48124973D01*
X76680000Y-48160001D01*
X76708998Y-48183799D01*
X86140000Y-57614802D01*
X86140000Y-63428194D01*
X86015178Y-63218645D01*
X85820269Y-63002412D01*
X85586920Y-62828359D01*
X85324099Y-62703175D01*
X85176890Y-62658524D01*
X84947000Y-62779845D01*
X84947000Y-63973000D01*
X84967000Y-63973000D01*
X84967000Y-64227000D01*
X84947000Y-64227000D01*
X84947000Y-65420155D01*
X85176890Y-65541476D01*
X85324099Y-65496825D01*
X85586920Y-65371641D01*
X85820269Y-65197588D01*
X86015178Y-64981355D01*
X86140000Y-64771806D01*
X86140001Y-77585197D01*
X80385199Y-83340000D01*
X72574801Y-83340000D01*
X73344005Y-82570797D01*
X73418889Y-82593513D01*
X73637050Y-82615000D01*
X73782950Y-82615000D01*
X74001111Y-82593513D01*
X74281034Y-82508599D01*
X74539014Y-82370706D01*
X74765134Y-82185134D01*
X74950706Y-81959014D01*
X74980000Y-81904209D01*
X75009294Y-81959014D01*
X75194866Y-82185134D01*
X75420986Y-82370706D01*
X75678966Y-82508599D01*
X75958889Y-82593513D01*
X76177050Y-82615000D01*
X76322950Y-82615000D01*
X76541111Y-82593513D01*
X76821034Y-82508599D01*
X77079014Y-82370706D01*
X77305134Y-82185134D01*
X77490706Y-81959014D01*
X77520000Y-81904209D01*
X77549294Y-81959014D01*
X77734866Y-82185134D01*
X77960986Y-82370706D01*
X78218966Y-82508599D01*
X78498889Y-82593513D01*
X78717050Y-82615000D01*
X78862950Y-82615000D01*
X79081111Y-82593513D01*
X79361034Y-82508599D01*
X79619014Y-82370706D01*
X79845134Y-82185134D01*
X80030706Y-81959014D01*
X80168599Y-81701034D01*
X80253513Y-81421111D01*
X80282185Y-81130000D01*
X80253513Y-80838889D01*
X80168599Y-80558966D01*
X80030706Y-80300986D01*
X79845134Y-80074866D01*
X79619014Y-79889294D01*
X79361034Y-79751401D01*
X79081111Y-79666487D01*
X78862950Y-79645000D01*
X78717050Y-79645000D01*
X78498889Y-79666487D01*
X78218966Y-79751401D01*
X77960986Y-79889294D01*
X77734866Y-80074866D01*
X77549294Y-80300986D01*
X77520000Y-80355791D01*
X77490706Y-80300986D01*
X77305134Y-80074866D01*
X77079014Y-79889294D01*
X76821034Y-79751401D01*
X76541111Y-79666487D01*
X76322950Y-79645000D01*
X76177050Y-79645000D01*
X75958889Y-79666487D01*
X75678966Y-79751401D01*
X75420986Y-79889294D01*
X75194866Y-80074866D01*
X75009294Y-80300986D01*
X74980000Y-80355791D01*
X74950706Y-80300986D01*
X74765134Y-80074866D01*
X74539014Y-79889294D01*
X74470000Y-79852405D01*
X74470000Y-77847325D01*
X74473676Y-77810000D01*
X74470000Y-77772675D01*
X74470000Y-77772667D01*
X74459003Y-77661014D01*
X74415546Y-77517753D01*
X74344974Y-77385724D01*
X74250001Y-77269999D01*
X74221004Y-77246202D01*
X64211002Y-67236201D01*
X64124276Y-67165026D01*
X63992246Y-67094454D01*
X63848985Y-67050998D01*
X63700000Y-67036324D01*
X63551015Y-67050998D01*
X63407754Y-67094454D01*
X63275724Y-67165026D01*
X63159999Y-67259999D01*
X63065026Y-67375724D01*
X62994454Y-67507754D01*
X62950998Y-67651015D01*
X62936324Y-67800000D01*
X62950998Y-67948985D01*
X62994454Y-68092246D01*
X63065026Y-68224276D01*
X63136201Y-68311002D01*
X72950000Y-78124802D01*
X72950001Y-79852405D01*
X72880986Y-79889294D01*
X72654866Y-80074866D01*
X72469294Y-80300986D01*
X72440000Y-80355791D01*
X72410706Y-80300986D01*
X72225134Y-80074866D01*
X71999014Y-79889294D01*
X71741034Y-79751401D01*
X71461111Y-79666487D01*
X71242950Y-79645000D01*
X71097050Y-79645000D01*
X70878889Y-79666487D01*
X70598966Y-79751401D01*
X70340986Y-79889294D01*
X70114866Y-80074866D01*
X69929294Y-80300986D01*
X69894799Y-80365523D01*
X69825178Y-80248645D01*
X69630269Y-80032412D01*
X69396920Y-79858359D01*
X69134099Y-79733175D01*
X68986890Y-79688524D01*
X68757000Y-79809845D01*
X68757000Y-81003000D01*
X68777000Y-81003000D01*
X68777000Y-81257000D01*
X68757000Y-81257000D01*
X68757000Y-81277000D01*
X68503000Y-81277000D01*
X68503000Y-81257000D01*
X68483000Y-81257000D01*
X68483000Y-81003000D01*
X68503000Y-81003000D01*
X68503000Y-79809845D01*
X68273110Y-79688524D01*
X68125901Y-79733175D01*
X67863080Y-79858359D01*
X67629731Y-80032412D01*
X67553966Y-80116466D01*
X67529502Y-80035820D01*
X67470537Y-79925506D01*
X67391185Y-79828815D01*
X67294494Y-79749463D01*
X67184180Y-79690498D01*
X67064482Y-79654188D01*
X66940000Y-79641928D01*
X66850000Y-79641928D01*
X66850000Y-72738853D01*
X66863676Y-72600001D01*
X66849002Y-72451015D01*
X66805546Y-72307754D01*
X66734974Y-72175725D01*
X66640001Y-72059999D01*
X66611003Y-72036201D01*
X59134801Y-64560000D01*
X63737333Y-64560000D01*
X63848986Y-64549003D01*
X63992247Y-64505546D01*
X64124276Y-64434974D01*
X64240001Y-64340001D01*
X64334974Y-64224276D01*
X64405546Y-64092247D01*
X64449003Y-63948986D01*
X64463677Y-63800000D01*
X64449003Y-63651014D01*
X64405546Y-63507753D01*
X64334974Y-63375724D01*
X64240001Y-63259999D01*
X64124276Y-63165026D01*
X63992247Y-63094454D01*
X63848986Y-63050997D01*
X63737333Y-63040000D01*
X56444371Y-63040000D01*
X56519265Y-62859191D01*
X56560000Y-62654401D01*
X56560000Y-62445599D01*
X56519265Y-62240809D01*
X56439360Y-62047902D01*
X56323356Y-61874289D01*
X56175711Y-61726644D01*
X56002098Y-61610640D01*
X55809191Y-61530735D01*
X55604401Y-61490000D01*
X55395599Y-61490000D01*
X55190809Y-61530735D01*
X54997902Y-61610640D01*
X54824289Y-61726644D01*
X54676644Y-61874289D01*
X54560640Y-62047902D01*
X54480735Y-62240809D01*
X54440000Y-62445599D01*
X54440000Y-62654401D01*
X54480735Y-62859191D01*
X54560640Y-63052098D01*
X54642760Y-63175000D01*
X54560640Y-63297902D01*
X54480735Y-63490809D01*
X54440000Y-63695599D01*
X54440000Y-63904401D01*
X54480735Y-64109191D01*
X54560640Y-64302098D01*
X54642760Y-64425000D01*
X54560640Y-64547902D01*
X54480735Y-64740809D01*
X54440000Y-64945599D01*
X54440000Y-65154401D01*
X54480735Y-65359191D01*
X54546517Y-65518003D01*
X54544463Y-65520506D01*
X54485498Y-65630820D01*
X54449188Y-65750518D01*
X54436928Y-65875000D01*
X54440000Y-66014250D01*
X54598750Y-66173000D01*
X55373000Y-66173000D01*
X55373000Y-66153000D01*
X55627000Y-66153000D01*
X55627000Y-66173000D01*
X55647000Y-66173000D01*
X55647000Y-66427000D01*
X55627000Y-66427000D01*
X55627000Y-67201250D01*
X55785750Y-67360000D01*
X55925000Y-67363072D01*
X56049482Y-67350812D01*
X56169180Y-67314502D01*
X56279494Y-67255537D01*
X56376185Y-67176185D01*
X56455537Y-67079494D01*
X56514502Y-66969180D01*
X56550812Y-66849482D01*
X56563072Y-66725000D01*
X56560000Y-66585750D01*
X56401252Y-66427002D01*
X56403241Y-66427002D01*
X57440000Y-67463762D01*
X57440001Y-70785197D01*
X52960000Y-75265199D01*
X52960000Y-66725000D01*
X54436928Y-66725000D01*
X54449188Y-66849482D01*
X54485498Y-66969180D01*
X54544463Y-67079494D01*
X54623815Y-67176185D01*
X54720506Y-67255537D01*
X54830820Y-67314502D01*
X54950518Y-67350812D01*
X55075000Y-67363072D01*
X55214250Y-67360000D01*
X55373000Y-67201250D01*
X55373000Y-66427000D01*
X54598750Y-66427000D01*
X54440000Y-66585750D01*
X54436928Y-66725000D01*
X52960000Y-66725000D01*
X52960000Y-61589801D01*
X56011003Y-58538799D01*
X56040001Y-58515001D01*
X56134974Y-58399276D01*
X56184730Y-58306190D01*
X56279494Y-58255537D01*
X56376185Y-58176185D01*
X56455537Y-58079494D01*
X56514502Y-57969180D01*
X56550812Y-57849482D01*
X56563072Y-57725000D01*
X56563072Y-56875000D01*
X56550812Y-56750518D01*
X56514502Y-56630820D01*
X56455537Y-56520506D01*
X56453483Y-56518003D01*
X56519265Y-56359191D01*
X56560000Y-56154401D01*
X56560000Y-55945599D01*
X56519265Y-55740809D01*
X56439360Y-55547902D01*
X56357240Y-55425000D01*
X56439360Y-55302098D01*
X56519265Y-55109191D01*
X56560000Y-54904401D01*
X56560000Y-54695599D01*
X56519265Y-54490809D01*
X56439360Y-54297902D01*
X56357240Y-54175000D01*
X56439360Y-54052098D01*
X56519265Y-53859191D01*
X56560000Y-53654401D01*
X56560000Y-53445599D01*
X56523082Y-53260000D01*
X70185199Y-53260000D01*
X73988997Y-57063799D01*
X73989003Y-57063804D01*
X78980000Y-62054802D01*
X78980000Y-62822405D01*
X78910986Y-62859294D01*
X78684866Y-63044866D01*
X78499294Y-63270986D01*
X78470000Y-63325791D01*
X78440706Y-63270986D01*
X78255134Y-63044866D01*
X78029014Y-62859294D01*
X77771034Y-62721401D01*
X77491111Y-62636487D01*
X77272950Y-62615000D01*
X77127050Y-62615000D01*
X76908889Y-62636487D01*
X76628966Y-62721401D01*
X76370986Y-62859294D01*
X76144866Y-63044866D01*
X75959294Y-63270986D01*
X75930000Y-63325791D01*
X75900706Y-63270986D01*
X75715134Y-63044866D01*
X75489014Y-62859294D01*
X75231034Y-62721401D01*
X74951111Y-62636487D01*
X74732950Y-62615000D01*
X74587050Y-62615000D01*
X74368889Y-62636487D01*
X74088966Y-62721401D01*
X73830986Y-62859294D01*
X73604866Y-63044866D01*
X73419294Y-63270986D01*
X73390000Y-63325791D01*
X73360706Y-63270986D01*
X73175134Y-63044866D01*
X72949014Y-62859294D01*
X72691034Y-62721401D01*
X72411111Y-62636487D01*
X72192950Y-62615000D01*
X72047050Y-62615000D01*
X71828889Y-62636487D01*
X71548966Y-62721401D01*
X71290986Y-62859294D01*
X71064866Y-63044866D01*
X71040393Y-63074687D01*
X71019502Y-63005820D01*
X70960537Y-62895506D01*
X70881185Y-62798815D01*
X70784494Y-62719463D01*
X70674180Y-62660498D01*
X70554482Y-62624188D01*
X70430000Y-62611928D01*
X68730000Y-62611928D01*
X68605518Y-62624188D01*
X68485820Y-62660498D01*
X68375506Y-62719463D01*
X68278815Y-62798815D01*
X68199463Y-62895506D01*
X68140498Y-63005820D01*
X68104188Y-63125518D01*
X68091928Y-63250000D01*
X68091928Y-64950000D01*
X68104188Y-65074482D01*
X68140498Y-65194180D01*
X68199463Y-65304494D01*
X68278815Y-65401185D01*
X68375506Y-65480537D01*
X68485820Y-65539502D01*
X68605518Y-65575812D01*
X68730000Y-65588072D01*
X70430000Y-65588072D01*
X70554482Y-65575812D01*
X70674180Y-65539502D01*
X70784494Y-65480537D01*
X70881185Y-65401185D01*
X70960537Y-65304494D01*
X71019502Y-65194180D01*
X71040393Y-65125313D01*
X71064866Y-65155134D01*
X71290986Y-65340706D01*
X71548966Y-65478599D01*
X71828889Y-65563513D01*
X72047050Y-65585000D01*
X72192950Y-65585000D01*
X72411111Y-65563513D01*
X72691034Y-65478599D01*
X72949014Y-65340706D01*
X73175134Y-65155134D01*
X73360706Y-64929014D01*
X73390000Y-64874209D01*
X73419294Y-64929014D01*
X73604866Y-65155134D01*
X73830986Y-65340706D01*
X74088966Y-65478599D01*
X74368889Y-65563513D01*
X74587050Y-65585000D01*
X74732950Y-65585000D01*
X74951111Y-65563513D01*
X75231034Y-65478599D01*
X75489014Y-65340706D01*
X75715134Y-65155134D01*
X75900706Y-64929014D01*
X75930000Y-64874209D01*
X75959294Y-64929014D01*
X76144866Y-65155134D01*
X76370986Y-65340706D01*
X76628966Y-65478599D01*
X76908889Y-65563513D01*
X77127050Y-65585000D01*
X77272950Y-65585000D01*
X77491111Y-65563513D01*
X77771034Y-65478599D01*
X78029014Y-65340706D01*
X78255134Y-65155134D01*
X78440706Y-64929014D01*
X78470000Y-64874209D01*
X78499294Y-64929014D01*
X78684866Y-65155134D01*
X78910986Y-65340706D01*
X79168966Y-65478599D01*
X79448889Y-65563513D01*
X79667050Y-65585000D01*
X79812950Y-65585000D01*
X80031111Y-65563513D01*
X80311034Y-65478599D01*
X80569014Y-65340706D01*
X80795134Y-65155134D01*
X80980706Y-64929014D01*
X81010000Y-64874209D01*
X81039294Y-64929014D01*
X81224866Y-65155134D01*
X81450986Y-65340706D01*
X81708966Y-65478599D01*
X81988889Y-65563513D01*
X82207050Y-65585000D01*
X82352950Y-65585000D01*
X82571111Y-65563513D01*
X82851034Y-65478599D01*
X83109014Y-65340706D01*
X83335134Y-65155134D01*
X83520706Y-64929014D01*
X83555201Y-64864477D01*
X83624822Y-64981355D01*
X83819731Y-65197588D01*
X84053080Y-65371641D01*
X84315901Y-65496825D01*
X84463110Y-65541476D01*
X84693000Y-65420155D01*
X84693000Y-64227000D01*
X84673000Y-64227000D01*
X84673000Y-63973000D01*
X84693000Y-63973000D01*
X84693000Y-62779845D01*
X84463110Y-62658524D01*
X84315901Y-62703175D01*
X84053080Y-62828359D01*
X83819731Y-63002412D01*
X83624822Y-63218645D01*
X83555201Y-63335523D01*
X83520706Y-63270986D01*
X83335134Y-63044866D01*
X83109014Y-62859294D01*
X83040000Y-62822405D01*
X83040000Y-62117322D01*
X83043676Y-62079999D01*
X83040000Y-62042676D01*
X83040000Y-62042667D01*
X83029003Y-61931014D01*
X82985546Y-61787753D01*
X82952882Y-61726644D01*
X82914974Y-61655723D01*
X82843799Y-61568997D01*
X82820001Y-61539999D01*
X82791004Y-61516202D01*
X76863804Y-55589003D01*
X76863799Y-55588997D01*
X72863804Y-51589003D01*
X72840001Y-51559999D01*
X72724276Y-51465026D01*
X72592247Y-51394454D01*
X72448986Y-51350997D01*
X72337333Y-51340000D01*
X72337322Y-51340000D01*
X72300000Y-51336324D01*
X72262678Y-51340000D01*
X56521701Y-51340000D01*
X56557959Y-51173384D01*
X56561702Y-50964616D01*
X56524644Y-50759130D01*
X56448210Y-50564821D01*
X56430210Y-50531144D01*
X56224386Y-50505219D01*
X55679605Y-51050000D01*
X55693748Y-51064143D01*
X55517890Y-51240000D01*
X55510395Y-51240000D01*
X55500000Y-51229605D01*
X55489605Y-51240000D01*
X55482110Y-51240000D01*
X55306253Y-51064143D01*
X55320395Y-51050000D01*
X54775614Y-50505219D01*
X54569790Y-50531144D01*
X54486440Y-50722588D01*
X54442041Y-50926616D01*
X54438298Y-51135384D01*
X54475356Y-51340870D01*
X54551790Y-51535179D01*
X54569790Y-51568856D01*
X54713922Y-51587011D01*
X54676644Y-51624289D01*
X54560640Y-51797902D01*
X54480735Y-51990809D01*
X54440000Y-52195599D01*
X54440000Y-52404401D01*
X54480735Y-52609191D01*
X54560640Y-52802098D01*
X54642760Y-52925000D01*
X54560640Y-53047902D01*
X54480735Y-53240809D01*
X54440000Y-53445599D01*
X54440000Y-53654401D01*
X54480735Y-53859191D01*
X54560640Y-54052098D01*
X54642760Y-54175000D01*
X54560640Y-54297902D01*
X54480735Y-54490809D01*
X54440000Y-54695599D01*
X54440000Y-54904401D01*
X54480735Y-55109191D01*
X54560640Y-55302098D01*
X54593618Y-55351453D01*
X54474684Y-55415026D01*
X54358959Y-55509999D01*
X54335161Y-55538997D01*
X50889003Y-58985156D01*
X50859999Y-59008959D01*
X50804871Y-59076134D01*
X50765026Y-59124684D01*
X50694455Y-59256713D01*
X50694454Y-59256714D01*
X50650997Y-59399975D01*
X50640000Y-59511628D01*
X50640000Y-59511638D01*
X50636324Y-59548960D01*
X50640000Y-59586282D01*
X50640001Y-82096288D01*
X50596063Y-82140226D01*
X50482795Y-82309744D01*
X50404774Y-82498102D01*
X50365000Y-82698061D01*
X39720000Y-82698061D01*
X39720000Y-50325614D01*
X54955219Y-50325614D01*
X55500000Y-50870395D01*
X56044781Y-50325614D01*
X56018856Y-50119790D01*
X55827412Y-50036440D01*
X55623384Y-49992041D01*
X55414616Y-49988298D01*
X55209130Y-50025356D01*
X55014821Y-50101790D01*
X54981144Y-50119790D01*
X54955219Y-50325614D01*
X39720000Y-50325614D01*
X39720000Y-45951473D01*
X39824886Y-46108446D01*
X40261554Y-46545114D01*
X40775021Y-46888201D01*
X41345554Y-47124524D01*
X41951229Y-47245000D01*
X42568771Y-47245000D01*
X43174446Y-47124524D01*
X43744979Y-46888201D01*
X44258446Y-46545114D01*
X44695114Y-46108446D01*
X45038201Y-45594979D01*
X45274524Y-45024446D01*
X45395000Y-44418771D01*
X45395000Y-43801229D01*
X45274524Y-43195554D01*
X45038201Y-42625021D01*
X44695114Y-42111554D01*
X44258446Y-41674886D01*
X44066888Y-41546891D01*
X68158519Y-41546891D01*
X68255843Y-41821252D01*
X68404822Y-42071355D01*
X68599731Y-42287588D01*
X68833080Y-42461641D01*
X69095901Y-42586825D01*
X69243110Y-42631476D01*
X69473000Y-42510155D01*
X69473000Y-41317000D01*
X68279186Y-41317000D01*
X68158519Y-41546891D01*
X44066888Y-41546891D01*
X43744979Y-41331799D01*
X43174446Y-41095476D01*
X42568771Y-40975000D01*
X41951229Y-40975000D01*
X41345554Y-41095476D01*
X40775021Y-41331799D01*
X40261554Y-41674886D01*
X39824886Y-42111554D01*
X39720000Y-42268527D01*
X39720000Y-40833109D01*
X68158519Y-40833109D01*
X68279186Y-41063000D01*
X69473000Y-41063000D01*
X69473000Y-39869845D01*
X69243110Y-39748524D01*
X69095901Y-39793175D01*
X68833080Y-39918359D01*
X68599731Y-40092412D01*
X68404822Y-40308645D01*
X68255843Y-40558748D01*
X68158519Y-40833109D01*
X39720000Y-40833109D01*
X39720000Y-33970000D01*
X136400000Y-33970000D01*
X136400000Y-42268527D01*
X136400000Y-42268527D01*
G37*
X136400000Y-42268527D02*
X136295114Y-42111554D01*
X135858446Y-41674886D01*
X135344979Y-41331799D01*
X134774446Y-41095476D01*
X134168771Y-40975000D01*
X133551229Y-40975000D01*
X132945554Y-41095476D01*
X132375021Y-41331799D01*
X131861554Y-41674886D01*
X131424886Y-42111554D01*
X131081799Y-42625021D01*
X130845476Y-43195554D01*
X130725000Y-43801229D01*
X130725000Y-44418771D01*
X130845476Y-45024446D01*
X131081799Y-45594979D01*
X131424886Y-46108446D01*
X131861554Y-46545114D01*
X132375021Y-46888201D01*
X132945554Y-47124524D01*
X133551229Y-47245000D01*
X134168771Y-47245000D01*
X134774446Y-47124524D01*
X135344979Y-46888201D01*
X135858446Y-46545114D01*
X136295114Y-46108446D01*
X136400000Y-45951472D01*
X136400001Y-103268529D01*
X136295114Y-103111554D01*
X135858446Y-102674886D01*
X135344979Y-102331799D01*
X134774446Y-102095476D01*
X134168771Y-101975000D01*
X133551229Y-101975000D01*
X132945554Y-102095476D01*
X132375021Y-102331799D01*
X131861554Y-102674886D01*
X131424886Y-103111554D01*
X131081799Y-103625021D01*
X130845476Y-104195554D01*
X130725000Y-104801229D01*
X130725000Y-105418771D01*
X130845476Y-106024446D01*
X131081799Y-106594979D01*
X131424886Y-107108446D01*
X131861554Y-107545114D01*
X132375021Y-107888201D01*
X132945554Y-108124524D01*
X133551229Y-108245000D01*
X134168771Y-108245000D01*
X134774446Y-108124524D01*
X135344979Y-107888201D01*
X135858446Y-107545114D01*
X136295114Y-107108446D01*
X136400001Y-106951471D01*
X136400001Y-115250000D01*
X39720000Y-115250000D01*
X39720000Y-107026303D01*
X39774886Y-107108446D01*
X40211554Y-107545114D01*
X40725021Y-107888201D01*
X41295554Y-108124524D01*
X41901229Y-108245000D01*
X42518771Y-108245000D01*
X43124446Y-108124524D01*
X43694979Y-107888201D01*
X44208446Y-107545114D01*
X44645114Y-107108446D01*
X44988201Y-106594979D01*
X45224524Y-106024446D01*
X45345000Y-105418771D01*
X45345000Y-104801229D01*
X45224524Y-104195554D01*
X44988201Y-103625021D01*
X44645114Y-103111554D01*
X44208446Y-102674886D01*
X43694979Y-102331799D01*
X43124446Y-102095476D01*
X42518771Y-101975000D01*
X41901229Y-101975000D01*
X41295554Y-102095476D01*
X40725021Y-102331799D01*
X40211554Y-102674886D01*
X39774886Y-103111554D01*
X39720000Y-103193697D01*
X39720000Y-82698061D01*
X50365000Y-82698061D01*
X50365000Y-82901939D01*
X50404774Y-83101898D01*
X50482795Y-83290256D01*
X50596063Y-83459774D01*
X50740226Y-83603937D01*
X50909744Y-83717205D01*
X51098102Y-83795226D01*
X51298061Y-83835000D01*
X51501939Y-83835000D01*
X51701898Y-83795226D01*
X51890256Y-83717205D01*
X52059774Y-83603937D01*
X52203937Y-83459774D01*
X52317205Y-83290256D01*
X52388660Y-83117750D01*
X52440000Y-83107538D01*
X52440001Y-91112667D01*
X52436324Y-91150000D01*
X52450998Y-91298985D01*
X52494454Y-91442246D01*
X52565026Y-91574276D01*
X52608004Y-91626644D01*
X52660000Y-91690001D01*
X52688998Y-91713799D01*
X53250198Y-92275000D01*
X52489002Y-93036196D01*
X52459999Y-93059999D01*
X52406071Y-93125711D01*
X52365026Y-93175724D01*
X52352583Y-93199003D01*
X52294454Y-93307754D01*
X52250997Y-93451015D01*
X52240000Y-93562668D01*
X52240000Y-93562678D01*
X52236324Y-93600000D01*
X52240000Y-93637323D01*
X52240001Y-98512668D01*
X52236324Y-98550000D01*
X52250998Y-98698985D01*
X52294454Y-98842246D01*
X52365026Y-98974276D01*
X52418142Y-99038997D01*
X52460000Y-99090001D01*
X52488998Y-99113799D01*
X53436201Y-100061003D01*
X53459999Y-100090001D01*
X53488997Y-100113799D01*
X53575724Y-100184974D01*
X53620208Y-100208752D01*
X53560640Y-100297902D01*
X53480735Y-100490809D01*
X53440000Y-100695599D01*
X53440000Y-100904401D01*
X53480735Y-101109191D01*
X53560640Y-101302098D01*
X53642760Y-101425000D01*
X53560640Y-101547902D01*
X53480735Y-101740809D01*
X53440000Y-101945599D01*
X53440000Y-102154401D01*
X53480735Y-102359191D01*
X53560640Y-102552098D01*
X53676644Y-102725711D01*
X53824289Y-102873356D01*
X53997902Y-102989360D01*
X54190809Y-103069265D01*
X54395599Y-103110000D01*
X54604401Y-103110000D01*
X54809191Y-103069265D01*
X55002098Y-102989360D01*
X55175711Y-102873356D01*
X55323356Y-102725711D01*
X55439360Y-102552098D01*
X55519265Y-102359191D01*
X55560000Y-102154401D01*
X55560000Y-101945599D01*
X55519265Y-101740809D01*
X55439360Y-101547902D01*
X55357240Y-101425000D01*
X55439360Y-101302098D01*
X55519265Y-101109191D01*
X55560000Y-100904401D01*
X55560000Y-100695599D01*
X55519265Y-100490809D01*
X55439360Y-100297902D01*
X55357240Y-100175000D01*
X55439360Y-100052098D01*
X55519265Y-99859191D01*
X55560000Y-99654401D01*
X55560000Y-99445599D01*
X55519265Y-99240809D01*
X55453483Y-99081997D01*
X55455537Y-99079494D01*
X55514502Y-98969180D01*
X55550812Y-98849482D01*
X55563072Y-98725000D01*
X55560000Y-98585750D01*
X55401250Y-98427000D01*
X54627000Y-98427000D01*
X54627000Y-98447000D01*
X54373000Y-98447000D01*
X54373000Y-98427000D01*
X54353000Y-98427000D01*
X54353000Y-98173000D01*
X54373000Y-98173000D01*
X54373000Y-97398750D01*
X54627000Y-97398750D01*
X54627000Y-98173000D01*
X55401250Y-98173000D01*
X55560000Y-98014250D01*
X55563072Y-97875000D01*
X55550812Y-97750518D01*
X55514502Y-97630820D01*
X55455537Y-97520506D01*
X55376185Y-97423815D01*
X55279494Y-97344463D01*
X55169180Y-97285498D01*
X55049482Y-97249188D01*
X54925000Y-97236928D01*
X54785750Y-97240000D01*
X54627000Y-97398750D01*
X54373000Y-97398750D01*
X54214250Y-97240000D01*
X54075000Y-97236928D01*
X53950518Y-97249188D01*
X53830820Y-97285498D01*
X53760000Y-97323353D01*
X53760000Y-94125000D01*
X54436928Y-94125000D01*
X54449188Y-94249482D01*
X54485498Y-94369180D01*
X54544463Y-94479494D01*
X54623815Y-94576185D01*
X54720506Y-94655537D01*
X54830820Y-94714502D01*
X54950518Y-94750812D01*
X55075000Y-94763072D01*
X55214250Y-94760000D01*
X55373000Y-94601250D01*
X55373000Y-93827000D01*
X55627000Y-93827000D01*
X55627000Y-94601250D01*
X55785750Y-94760000D01*
X55925000Y-94763072D01*
X56049482Y-94750812D01*
X56169180Y-94714502D01*
X56279494Y-94655537D01*
X56376185Y-94576185D01*
X56455537Y-94479494D01*
X56514502Y-94369180D01*
X56550812Y-94249482D01*
X56563072Y-94125000D01*
X56560000Y-93985750D01*
X56401250Y-93827000D01*
X55627000Y-93827000D01*
X55373000Y-93827000D01*
X54598750Y-93827000D01*
X54440000Y-93985750D01*
X54436928Y-94125000D01*
X53760000Y-94125000D01*
X53760000Y-93914801D01*
X54314802Y-93360000D01*
X54438803Y-93360000D01*
X54440000Y-93414250D01*
X54598750Y-93573000D01*
X55373000Y-93573000D01*
X55373000Y-93553000D01*
X55627000Y-93553000D01*
X55627000Y-93573000D01*
X56401250Y-93573000D01*
X56560000Y-93414250D01*
X56563072Y-93275000D01*
X56556670Y-93210000D01*
X56735199Y-93210000D01*
X60140000Y-96614802D01*
X60140001Y-107862668D01*
X60136324Y-107900000D01*
X60140001Y-107937333D01*
X60150998Y-108048986D01*
X60159935Y-108078449D01*
X60194454Y-108192246D01*
X60265026Y-108324276D01*
X60328004Y-108401014D01*
X60360000Y-108440001D01*
X60388998Y-108463799D01*
X66236201Y-114311003D01*
X66259999Y-114340001D01*
X66288997Y-114363799D01*
X66375723Y-114434974D01*
X66507753Y-114505546D01*
X66651014Y-114549003D01*
X66762667Y-114560000D01*
X66762677Y-114560000D01*
X66799999Y-114563676D01*
X66837322Y-114560000D01*
X113462678Y-114560000D01*
X113500000Y-114563676D01*
X113537322Y-114560000D01*
X113537333Y-114560000D01*
X113648986Y-114549003D01*
X113792247Y-114505546D01*
X113924276Y-114434974D01*
X114040001Y-114340001D01*
X114063804Y-114310997D01*
X118163799Y-110211003D01*
X118163803Y-110210998D01*
X119261004Y-109113798D01*
X119290001Y-109090001D01*
X119363863Y-109000000D01*
X119384974Y-108974277D01*
X119455546Y-108842247D01*
X119455546Y-108842246D01*
X119499003Y-108698986D01*
X119510000Y-108587333D01*
X119510000Y-108587323D01*
X119513676Y-108550000D01*
X119510000Y-108512677D01*
X119510000Y-108444371D01*
X119690809Y-108519265D01*
X119895599Y-108560000D01*
X120104401Y-108560000D01*
X120309191Y-108519265D01*
X120502098Y-108439360D01*
X120625000Y-108357240D01*
X120747902Y-108439360D01*
X120940809Y-108519265D01*
X121145599Y-108560000D01*
X121354401Y-108560000D01*
X121559191Y-108519265D01*
X121752098Y-108439360D01*
X121925711Y-108323356D01*
X122073356Y-108175711D01*
X122189360Y-108002098D01*
X122269265Y-107809191D01*
X122310000Y-107604401D01*
X122310000Y-107395599D01*
X122269265Y-107190809D01*
X122189360Y-106997902D01*
X122073356Y-106824289D01*
X122010000Y-106760933D01*
X122010000Y-106437323D01*
X122013676Y-106400000D01*
X122010000Y-106362677D01*
X122010000Y-106362667D01*
X121999003Y-106251014D01*
X121955546Y-106107753D01*
X121948437Y-106094454D01*
X121884974Y-105975723D01*
X121813799Y-105888997D01*
X121790001Y-105859999D01*
X121761003Y-105836201D01*
X120713804Y-104789002D01*
X120690001Y-104759999D01*
X120574276Y-104665026D01*
X120442247Y-104594454D01*
X120298986Y-104550997D01*
X120187333Y-104540000D01*
X120187322Y-104540000D01*
X120150000Y-104536324D01*
X120112678Y-104540000D01*
X116037322Y-104540000D01*
X115999999Y-104536324D01*
X115962676Y-104540000D01*
X115962667Y-104540000D01*
X115851014Y-104550997D01*
X115707753Y-104594454D01*
X115575724Y-104665026D01*
X115459999Y-104759999D01*
X115436201Y-104788997D01*
X113837224Y-106387974D01*
X113726250Y-106277000D01*
X112627000Y-106277000D01*
X112627000Y-107126250D01*
X112785750Y-107285000D01*
X112939183Y-107286015D01*
X108885199Y-111340000D01*
X68114802Y-111340000D01*
X63260000Y-106485199D01*
X63260000Y-95437323D01*
X63263676Y-95400000D01*
X63260000Y-95362677D01*
X63260000Y-95362667D01*
X63249003Y-95251014D01*
X63205546Y-95107753D01*
X63134974Y-94975723D01*
X63063799Y-94888997D01*
X63040001Y-94859999D01*
X63011003Y-94836201D01*
X57613804Y-89439003D01*
X57590001Y-89409999D01*
X57474276Y-89315026D01*
X57342247Y-89244454D01*
X57198986Y-89200997D01*
X57087333Y-89190000D01*
X57087322Y-89190000D01*
X57050000Y-89186324D01*
X57012678Y-89190000D01*
X56239067Y-89190000D01*
X56175711Y-89126644D01*
X56002098Y-89010640D01*
X55809191Y-88930735D01*
X55604401Y-88890000D01*
X55395599Y-88890000D01*
X55190809Y-88930735D01*
X54997902Y-89010640D01*
X54824289Y-89126644D01*
X54676644Y-89274289D01*
X54560640Y-89447902D01*
X54480735Y-89640809D01*
X54440000Y-89845599D01*
X54440000Y-90054401D01*
X54480735Y-90259191D01*
X54560640Y-90452098D01*
X54642760Y-90575000D01*
X54560640Y-90697902D01*
X54480735Y-90890809D01*
X54440000Y-91095599D01*
X54440000Y-91304401D01*
X54442681Y-91317879D01*
X53960000Y-90835199D01*
X53960000Y-76414801D01*
X58711003Y-71663799D01*
X58740001Y-71640001D01*
X58834974Y-71524276D01*
X58905546Y-71392247D01*
X58949003Y-71248986D01*
X58960000Y-71137333D01*
X58960000Y-71137323D01*
X58963676Y-71100000D01*
X58960000Y-71062677D01*
X58960000Y-67186285D01*
X58963676Y-67148960D01*
X58960000Y-67111635D01*
X58960000Y-67111627D01*
X58949003Y-66999974D01*
X58905546Y-66856713D01*
X58834974Y-66724684D01*
X58740001Y-66608959D01*
X58711004Y-66585162D01*
X57785842Y-65660000D01*
X58085199Y-65660000D01*
X65330000Y-72904802D01*
X65330001Y-79641928D01*
X65240000Y-79641928D01*
X65115518Y-79654188D01*
X64995820Y-79690498D01*
X64885506Y-79749463D01*
X64788815Y-79828815D01*
X64709463Y-79925506D01*
X64650498Y-80035820D01*
X64614188Y-80155518D01*
X64601928Y-80280000D01*
X64601928Y-81980000D01*
X64614188Y-82104482D01*
X64650498Y-82224180D01*
X64709463Y-82334494D01*
X64788815Y-82431185D01*
X64802655Y-82442543D01*
X64488998Y-82756201D01*
X64460000Y-82779999D01*
X64436202Y-82808997D01*
X64436201Y-82808998D01*
X64365026Y-82895724D01*
X64294454Y-83027754D01*
X64271964Y-83101898D01*
X64250998Y-83171014D01*
X64240001Y-83282667D01*
X64236324Y-83320000D01*
X64240001Y-83357332D01*
X64240000Y-85596289D01*
X64196063Y-85640226D01*
X64082795Y-85809744D01*
X64004774Y-85998102D01*
X63965000Y-86198061D01*
X63965000Y-86401939D01*
X64004774Y-86601898D01*
X64082795Y-86790256D01*
X64196063Y-86959774D01*
X64340226Y-87103937D01*
X64509744Y-87217205D01*
X64698102Y-87295226D01*
X64898061Y-87335000D01*
X65101939Y-87335000D01*
X65140000Y-87327429D01*
X65140000Y-89145520D01*
X65136324Y-89182843D01*
X65140000Y-89220165D01*
X65140000Y-89220175D01*
X65150997Y-89331828D01*
X65174710Y-89409999D01*
X65194454Y-89475089D01*
X65265026Y-89607119D01*
X65292675Y-89640809D01*
X65359999Y-89722844D01*
X65389003Y-89746647D01*
X66853358Y-91211003D01*
X66877156Y-91240001D01*
X66906154Y-91263799D01*
X66992880Y-91334974D01*
X67095826Y-91390000D01*
X67124910Y-91405546D01*
X67268171Y-91449003D01*
X67379824Y-91460000D01*
X67379834Y-91460000D01*
X67417156Y-91463676D01*
X67454479Y-91460000D01*
X67796289Y-91460000D01*
X67840226Y-91503937D01*
X68009744Y-91617205D01*
X68198102Y-91695226D01*
X68398061Y-91735000D01*
X68601939Y-91735000D01*
X68801898Y-91695226D01*
X68990256Y-91617205D01*
X69159774Y-91503937D01*
X69303937Y-91359774D01*
X69417205Y-91190256D01*
X69495226Y-91001898D01*
X69535000Y-90801939D01*
X69535000Y-90598061D01*
X69529395Y-90569883D01*
X70270520Y-91311008D01*
X70294314Y-91340001D01*
X70323307Y-91363795D01*
X70323311Y-91363799D01*
X70374181Y-91405546D01*
X70410039Y-91434974D01*
X70542068Y-91505546D01*
X70685329Y-91549003D01*
X70796982Y-91560000D01*
X70796991Y-91560000D01*
X70834314Y-91563676D01*
X70871637Y-91560000D01*
X72096285Y-91560000D01*
X72140222Y-91603937D01*
X72309740Y-91717205D01*
X72498098Y-91795226D01*
X72698057Y-91835000D01*
X72901935Y-91835000D01*
X73101894Y-91795226D01*
X73290252Y-91717205D01*
X73459770Y-91603937D01*
X73603933Y-91459774D01*
X73717201Y-91290256D01*
X73729604Y-91260313D01*
X73796061Y-91359774D01*
X73940224Y-91503937D01*
X74109742Y-91617205D01*
X74298100Y-91695226D01*
X74498059Y-91735000D01*
X74701937Y-91735000D01*
X74901896Y-91695226D01*
X75090254Y-91617205D01*
X75259772Y-91503937D01*
X75403935Y-91359774D01*
X75517203Y-91190256D01*
X75595224Y-91001898D01*
X75634998Y-90801939D01*
X75634998Y-90739803D01*
X76214802Y-90160000D01*
X80362678Y-90160000D01*
X80400000Y-90163676D01*
X80437322Y-90160000D01*
X80437333Y-90160000D01*
X80548986Y-90149003D01*
X80692247Y-90105546D01*
X80824276Y-90034974D01*
X80940001Y-89940001D01*
X80963804Y-89910997D01*
X89911003Y-80963799D01*
X89940001Y-80940001D01*
X90000567Y-80866201D01*
X90034974Y-80824277D01*
X90105546Y-80692247D01*
X90136562Y-80589999D01*
X90149003Y-80548986D01*
X90160000Y-80437333D01*
X90160000Y-80437324D01*
X90163676Y-80400001D01*
X90160000Y-80362678D01*
X90160000Y-46887323D01*
X90163676Y-46850000D01*
X90160000Y-46812677D01*
X90160000Y-46812667D01*
X90149003Y-46701014D01*
X90105546Y-46557753D01*
X90034974Y-46425724D01*
X89940001Y-46309999D01*
X89911004Y-46286202D01*
X86127345Y-42502543D01*
X86141185Y-42491185D01*
X86220537Y-42394494D01*
X86279502Y-42284180D01*
X86315812Y-42164482D01*
X86328072Y-42040000D01*
X86328072Y-41510000D01*
X90796807Y-41510000D01*
X90800001Y-41542430D01*
X90800000Y-107677581D01*
X90796807Y-107710000D01*
X90809550Y-107839383D01*
X90847290Y-107963793D01*
X90908575Y-108078450D01*
X90968113Y-108150997D01*
X90991052Y-108178948D01*
X91091550Y-108261425D01*
X91206207Y-108322710D01*
X91330617Y-108360450D01*
X91460000Y-108373193D01*
X91492419Y-108370000D01*
X101627581Y-108370000D01*
X101660000Y-108373193D01*
X101692419Y-108370000D01*
X101789383Y-108360450D01*
X101913793Y-108322710D01*
X102028450Y-108261425D01*
X102128948Y-108178948D01*
X102211425Y-108078450D01*
X102272710Y-107963793D01*
X102310450Y-107839383D01*
X102323193Y-107710000D01*
X102320000Y-107677581D01*
X102320000Y-106650000D01*
X111111928Y-106650000D01*
X111124188Y-106774482D01*
X111160498Y-106894180D01*
X111219463Y-107004494D01*
X111298815Y-107101185D01*
X111395506Y-107180537D01*
X111505820Y-107239502D01*
X111625518Y-107275812D01*
X111750000Y-107288072D01*
X112214250Y-107285000D01*
X112373000Y-107126250D01*
X112373000Y-106277000D01*
X111273750Y-106277000D01*
X111115000Y-106435750D01*
X111111928Y-106650000D01*
X102320000Y-106650000D01*
X102320000Y-104198061D01*
X108715000Y-104198061D01*
X108715000Y-104401939D01*
X108754774Y-104601898D01*
X108832795Y-104790256D01*
X108946063Y-104959774D01*
X109090226Y-105103937D01*
X109259744Y-105217205D01*
X109448102Y-105295226D01*
X109648061Y-105335000D01*
X109710197Y-105335000D01*
X109736205Y-105361007D01*
X109759999Y-105390001D01*
X109788992Y-105413795D01*
X109788996Y-105413799D01*
X109845292Y-105459999D01*
X109875724Y-105484974D01*
X110007753Y-105555546D01*
X110151014Y-105599003D01*
X110262667Y-105610000D01*
X110262676Y-105610000D01*
X110299999Y-105613676D01*
X110337322Y-105610000D01*
X111115868Y-105610000D01*
X111111928Y-105650000D01*
X111115000Y-105864250D01*
X111273750Y-106023000D01*
X112373000Y-106023000D01*
X112373000Y-106003000D01*
X112627000Y-106003000D01*
X112627000Y-106023000D01*
X113726250Y-106023000D01*
X113885000Y-105864250D01*
X113888072Y-105650000D01*
X113875812Y-105525518D01*
X113868071Y-105500000D01*
X113875812Y-105474482D01*
X113888072Y-105350000D01*
X113888072Y-104350000D01*
X113875812Y-104225518D01*
X113839502Y-104105820D01*
X113780537Y-103995506D01*
X113701185Y-103898815D01*
X113604494Y-103819463D01*
X113494180Y-103760498D01*
X113374482Y-103724188D01*
X113250000Y-103711928D01*
X111750000Y-103711928D01*
X111625518Y-103724188D01*
X111505820Y-103760498D01*
X111395506Y-103819463D01*
X111298815Y-103898815D01*
X111219463Y-103995506D01*
X111168954Y-104090000D01*
X110763506Y-104090000D01*
X110745226Y-103998102D01*
X110667205Y-103809744D01*
X110553937Y-103640226D01*
X110409774Y-103496063D01*
X110240256Y-103382795D01*
X110051898Y-103304774D01*
X109851939Y-103265000D01*
X109648061Y-103265000D01*
X109448102Y-103304774D01*
X109259744Y-103382795D01*
X109090226Y-103496063D01*
X108946063Y-103640226D01*
X108832795Y-103809744D01*
X108754774Y-103998102D01*
X108715000Y-104198061D01*
X102320000Y-104198061D01*
X102320000Y-42925000D01*
X116436928Y-42925000D01*
X116449188Y-43049482D01*
X116485498Y-43169180D01*
X116544463Y-43279494D01*
X116623815Y-43376185D01*
X116720506Y-43455537D01*
X116830820Y-43514502D01*
X116950518Y-43550812D01*
X117075000Y-43563072D01*
X117214250Y-43560000D01*
X117373000Y-43401250D01*
X117373000Y-42627000D01*
X116598750Y-42627000D01*
X116440000Y-42785750D01*
X116436928Y-42925000D01*
X102320000Y-42925000D01*
X102320000Y-42075000D01*
X116436928Y-42075000D01*
X116440000Y-42214250D01*
X116598750Y-42373000D01*
X117373000Y-42373000D01*
X117373000Y-41598750D01*
X117627000Y-41598750D01*
X117627000Y-42373000D01*
X117647000Y-42373000D01*
X117647000Y-42627000D01*
X117627000Y-42627000D01*
X117627000Y-43401250D01*
X117785750Y-43560000D01*
X117925000Y-43563072D01*
X118049482Y-43550812D01*
X118169180Y-43514502D01*
X118279494Y-43455537D01*
X118281997Y-43453483D01*
X118440809Y-43519265D01*
X118645599Y-43560000D01*
X118854401Y-43560000D01*
X119059191Y-43519265D01*
X119252098Y-43439360D01*
X119375000Y-43357240D01*
X119497902Y-43439360D01*
X119690809Y-43519265D01*
X119895599Y-43560000D01*
X120104401Y-43560000D01*
X120309191Y-43519265D01*
X120502098Y-43439360D01*
X120625000Y-43357240D01*
X120747902Y-43439360D01*
X120940809Y-43519265D01*
X121145599Y-43560000D01*
X121354401Y-43560000D01*
X121559191Y-43519265D01*
X121752098Y-43439360D01*
X121925711Y-43323356D01*
X122073356Y-43175711D01*
X122189360Y-43002098D01*
X122269265Y-42809191D01*
X122310000Y-42604401D01*
X122310000Y-42395599D01*
X122269265Y-42190809D01*
X122189360Y-41997902D01*
X122073356Y-41824289D01*
X121925711Y-41676644D01*
X121752098Y-41560640D01*
X121559191Y-41480735D01*
X121354401Y-41440000D01*
X121145599Y-41440000D01*
X120940809Y-41480735D01*
X120747902Y-41560640D01*
X120625000Y-41642760D01*
X120502098Y-41560640D01*
X120309191Y-41480735D01*
X120104401Y-41440000D01*
X119895599Y-41440000D01*
X119690809Y-41480735D01*
X119497902Y-41560640D01*
X119375000Y-41642760D01*
X119252098Y-41560640D01*
X119059191Y-41480735D01*
X118854401Y-41440000D01*
X118645599Y-41440000D01*
X118440809Y-41480735D01*
X118281997Y-41546517D01*
X118279494Y-41544463D01*
X118169180Y-41485498D01*
X118049482Y-41449188D01*
X117925000Y-41436928D01*
X117785750Y-41440000D01*
X117627000Y-41598750D01*
X117373000Y-41598750D01*
X117214250Y-41440000D01*
X117075000Y-41436928D01*
X116950518Y-41449188D01*
X116830820Y-41485498D01*
X116720506Y-41544463D01*
X116623815Y-41623815D01*
X116544463Y-41720506D01*
X116485498Y-41830820D01*
X116449188Y-41950518D01*
X116436928Y-42075000D01*
X102320000Y-42075000D01*
X102320000Y-41542419D01*
X102323193Y-41510000D01*
X102310450Y-41380617D01*
X102272710Y-41256207D01*
X102211425Y-41141550D01*
X102128948Y-41041052D01*
X102028450Y-40958575D01*
X101913793Y-40897290D01*
X101789383Y-40859550D01*
X101692419Y-40850000D01*
X101660000Y-40846807D01*
X101627581Y-40850000D01*
X91492419Y-40850000D01*
X91460000Y-40846807D01*
X91427581Y-40850000D01*
X91330617Y-40859550D01*
X91206207Y-40897290D01*
X91091550Y-40958575D01*
X90991052Y-41041052D01*
X90908575Y-41141550D01*
X90847290Y-41256207D01*
X90809550Y-41380617D01*
X90796807Y-41510000D01*
X86328072Y-41510000D01*
X86328072Y-40340000D01*
X86315812Y-40215518D01*
X86279502Y-40095820D01*
X86220537Y-39985506D01*
X86141185Y-39888815D01*
X86044494Y-39809463D01*
X85934180Y-39750498D01*
X85814482Y-39714188D01*
X85690000Y-39701928D01*
X83990000Y-39701928D01*
X83865518Y-39714188D01*
X83745820Y-39750498D01*
X83635506Y-39809463D01*
X83538815Y-39888815D01*
X83459463Y-39985506D01*
X83400498Y-40095820D01*
X83379607Y-40164687D01*
X83355134Y-40134866D01*
X83129014Y-39949294D01*
X82871034Y-39811401D01*
X82591111Y-39726487D01*
X82372950Y-39705000D01*
X82227050Y-39705000D01*
X82008889Y-39726487D01*
X81728966Y-39811401D01*
X81470986Y-39949294D01*
X81244866Y-40134866D01*
X81059294Y-40360986D01*
X81030000Y-40415791D01*
X81000706Y-40360986D01*
X80815134Y-40134866D01*
X80589014Y-39949294D01*
X80331034Y-39811401D01*
X80051111Y-39726487D01*
X79832950Y-39705000D01*
X79687050Y-39705000D01*
X79468889Y-39726487D01*
X79188966Y-39811401D01*
X78930986Y-39949294D01*
X78704866Y-40134866D01*
X78519294Y-40360986D01*
X78490000Y-40415791D01*
X78460706Y-40360986D01*
X78275134Y-40134866D01*
X78049014Y-39949294D01*
X77791034Y-39811401D01*
X77511111Y-39726487D01*
X77292950Y-39705000D01*
X77147050Y-39705000D01*
X76928889Y-39726487D01*
X76648966Y-39811401D01*
X76390986Y-39949294D01*
X76164866Y-40134866D01*
X75979294Y-40360986D01*
X75950000Y-40415791D01*
X75920706Y-40360986D01*
X75735134Y-40134866D01*
X75509014Y-39949294D01*
X75251034Y-39811401D01*
X74971111Y-39726487D01*
X74752950Y-39705000D01*
X74607050Y-39705000D01*
X74388889Y-39726487D01*
X74108966Y-39811401D01*
X73850986Y-39949294D01*
X73624866Y-40134866D01*
X73439294Y-40360986D01*
X73410000Y-40415791D01*
X73380706Y-40360986D01*
X73195134Y-40134866D01*
X72969014Y-39949294D01*
X72711034Y-39811401D01*
X72431111Y-39726487D01*
X72212950Y-39705000D01*
X72067050Y-39705000D01*
X71848889Y-39726487D01*
X71568966Y-39811401D01*
X71310986Y-39949294D01*
X71084866Y-40134866D01*
X70899294Y-40360986D01*
X70864799Y-40425523D01*
X70795178Y-40308645D01*
X70600269Y-40092412D01*
X70366920Y-39918359D01*
X70104099Y-39793175D01*
X69956890Y-39748524D01*
X69727000Y-39869845D01*
X69727000Y-41063000D01*
X69747000Y-41063000D01*
X69747000Y-41317000D01*
X69727000Y-41317000D01*
X69727000Y-42510155D01*
X69956890Y-42631476D01*
X70104099Y-42586825D01*
X70366920Y-42461641D01*
X70600269Y-42287588D01*
X70795178Y-42071355D01*
X70864799Y-41954477D01*
X70899294Y-42019014D01*
X71084866Y-42245134D01*
X71310986Y-42430706D01*
X71568966Y-42568599D01*
X71848889Y-42653513D01*
X72067050Y-42675000D01*
X72212950Y-42675000D01*
X72431111Y-42653513D01*
X72711034Y-42568599D01*
X72969014Y-42430706D01*
X73195134Y-42245134D01*
X73380706Y-42019014D01*
X73410000Y-41964209D01*
X73439294Y-42019014D01*
X73624866Y-42245134D01*
X73850986Y-42430706D01*
X74108966Y-42568599D01*
X74388889Y-42653513D01*
X74607050Y-42675000D01*
X74752950Y-42675000D01*
X74971111Y-42653513D01*
X75251034Y-42568599D01*
X75509014Y-42430706D01*
X75735134Y-42245134D01*
X75920706Y-42019014D01*
X75950000Y-41964209D01*
X75979294Y-42019014D01*
X76164866Y-42245134D01*
X76390986Y-42430706D01*
X76460000Y-42467595D01*
X76460001Y-47582668D01*
X76456324Y-47620000D01*
X76460001Y-47657333D01*
X76470998Y-47768986D01*
X76475636Y-47784276D01*
X76514454Y-47912246D01*
X76585026Y-48044276D01*
X76651253Y-48124973D01*
X76680000Y-48160001D01*
X76708998Y-48183799D01*
X86140000Y-57614802D01*
X86140000Y-63428194D01*
X86015178Y-63218645D01*
X85820269Y-63002412D01*
X85586920Y-62828359D01*
X85324099Y-62703175D01*
X85176890Y-62658524D01*
X84947000Y-62779845D01*
X84947000Y-63973000D01*
X84967000Y-63973000D01*
X84967000Y-64227000D01*
X84947000Y-64227000D01*
X84947000Y-65420155D01*
X85176890Y-65541476D01*
X85324099Y-65496825D01*
X85586920Y-65371641D01*
X85820269Y-65197588D01*
X86015178Y-64981355D01*
X86140000Y-64771806D01*
X86140001Y-77585197D01*
X80385199Y-83340000D01*
X72574801Y-83340000D01*
X73344005Y-82570797D01*
X73418889Y-82593513D01*
X73637050Y-82615000D01*
X73782950Y-82615000D01*
X74001111Y-82593513D01*
X74281034Y-82508599D01*
X74539014Y-82370706D01*
X74765134Y-82185134D01*
X74950706Y-81959014D01*
X74980000Y-81904209D01*
X75009294Y-81959014D01*
X75194866Y-82185134D01*
X75420986Y-82370706D01*
X75678966Y-82508599D01*
X75958889Y-82593513D01*
X76177050Y-82615000D01*
X76322950Y-82615000D01*
X76541111Y-82593513D01*
X76821034Y-82508599D01*
X77079014Y-82370706D01*
X77305134Y-82185134D01*
X77490706Y-81959014D01*
X77520000Y-81904209D01*
X77549294Y-81959014D01*
X77734866Y-82185134D01*
X77960986Y-82370706D01*
X78218966Y-82508599D01*
X78498889Y-82593513D01*
X78717050Y-82615000D01*
X78862950Y-82615000D01*
X79081111Y-82593513D01*
X79361034Y-82508599D01*
X79619014Y-82370706D01*
X79845134Y-82185134D01*
X80030706Y-81959014D01*
X80168599Y-81701034D01*
X80253513Y-81421111D01*
X80282185Y-81130000D01*
X80253513Y-80838889D01*
X80168599Y-80558966D01*
X80030706Y-80300986D01*
X79845134Y-80074866D01*
X79619014Y-79889294D01*
X79361034Y-79751401D01*
X79081111Y-79666487D01*
X78862950Y-79645000D01*
X78717050Y-79645000D01*
X78498889Y-79666487D01*
X78218966Y-79751401D01*
X77960986Y-79889294D01*
X77734866Y-80074866D01*
X77549294Y-80300986D01*
X77520000Y-80355791D01*
X77490706Y-80300986D01*
X77305134Y-80074866D01*
X77079014Y-79889294D01*
X76821034Y-79751401D01*
X76541111Y-79666487D01*
X76322950Y-79645000D01*
X76177050Y-79645000D01*
X75958889Y-79666487D01*
X75678966Y-79751401D01*
X75420986Y-79889294D01*
X75194866Y-80074866D01*
X75009294Y-80300986D01*
X74980000Y-80355791D01*
X74950706Y-80300986D01*
X74765134Y-80074866D01*
X74539014Y-79889294D01*
X74470000Y-79852405D01*
X74470000Y-77847325D01*
X74473676Y-77810000D01*
X74470000Y-77772675D01*
X74470000Y-77772667D01*
X74459003Y-77661014D01*
X74415546Y-77517753D01*
X74344974Y-77385724D01*
X74250001Y-77269999D01*
X74221004Y-77246202D01*
X64211002Y-67236201D01*
X64124276Y-67165026D01*
X63992246Y-67094454D01*
X63848985Y-67050998D01*
X63700000Y-67036324D01*
X63551015Y-67050998D01*
X63407754Y-67094454D01*
X63275724Y-67165026D01*
X63159999Y-67259999D01*
X63065026Y-67375724D01*
X62994454Y-67507754D01*
X62950998Y-67651015D01*
X62936324Y-67800000D01*
X62950998Y-67948985D01*
X62994454Y-68092246D01*
X63065026Y-68224276D01*
X63136201Y-68311002D01*
X72950000Y-78124802D01*
X72950001Y-79852405D01*
X72880986Y-79889294D01*
X72654866Y-80074866D01*
X72469294Y-80300986D01*
X72440000Y-80355791D01*
X72410706Y-80300986D01*
X72225134Y-80074866D01*
X71999014Y-79889294D01*
X71741034Y-79751401D01*
X71461111Y-79666487D01*
X71242950Y-79645000D01*
X71097050Y-79645000D01*
X70878889Y-79666487D01*
X70598966Y-79751401D01*
X70340986Y-79889294D01*
X70114866Y-80074866D01*
X69929294Y-80300986D01*
X69894799Y-80365523D01*
X69825178Y-80248645D01*
X69630269Y-80032412D01*
X69396920Y-79858359D01*
X69134099Y-79733175D01*
X68986890Y-79688524D01*
X68757000Y-79809845D01*
X68757000Y-81003000D01*
X68777000Y-81003000D01*
X68777000Y-81257000D01*
X68757000Y-81257000D01*
X68757000Y-81277000D01*
X68503000Y-81277000D01*
X68503000Y-81257000D01*
X68483000Y-81257000D01*
X68483000Y-81003000D01*
X68503000Y-81003000D01*
X68503000Y-79809845D01*
X68273110Y-79688524D01*
X68125901Y-79733175D01*
X67863080Y-79858359D01*
X67629731Y-80032412D01*
X67553966Y-80116466D01*
X67529502Y-80035820D01*
X67470537Y-79925506D01*
X67391185Y-79828815D01*
X67294494Y-79749463D01*
X67184180Y-79690498D01*
X67064482Y-79654188D01*
X66940000Y-79641928D01*
X66850000Y-79641928D01*
X66850000Y-72738853D01*
X66863676Y-72600001D01*
X66849002Y-72451015D01*
X66805546Y-72307754D01*
X66734974Y-72175725D01*
X66640001Y-72059999D01*
X66611003Y-72036201D01*
X59134801Y-64560000D01*
X63737333Y-64560000D01*
X63848986Y-64549003D01*
X63992247Y-64505546D01*
X64124276Y-64434974D01*
X64240001Y-64340001D01*
X64334974Y-64224276D01*
X64405546Y-64092247D01*
X64449003Y-63948986D01*
X64463677Y-63800000D01*
X64449003Y-63651014D01*
X64405546Y-63507753D01*
X64334974Y-63375724D01*
X64240001Y-63259999D01*
X64124276Y-63165026D01*
X63992247Y-63094454D01*
X63848986Y-63050997D01*
X63737333Y-63040000D01*
X56444371Y-63040000D01*
X56519265Y-62859191D01*
X56560000Y-62654401D01*
X56560000Y-62445599D01*
X56519265Y-62240809D01*
X56439360Y-62047902D01*
X56323356Y-61874289D01*
X56175711Y-61726644D01*
X56002098Y-61610640D01*
X55809191Y-61530735D01*
X55604401Y-61490000D01*
X55395599Y-61490000D01*
X55190809Y-61530735D01*
X54997902Y-61610640D01*
X54824289Y-61726644D01*
X54676644Y-61874289D01*
X54560640Y-62047902D01*
X54480735Y-62240809D01*
X54440000Y-62445599D01*
X54440000Y-62654401D01*
X54480735Y-62859191D01*
X54560640Y-63052098D01*
X54642760Y-63175000D01*
X54560640Y-63297902D01*
X54480735Y-63490809D01*
X54440000Y-63695599D01*
X54440000Y-63904401D01*
X54480735Y-64109191D01*
X54560640Y-64302098D01*
X54642760Y-64425000D01*
X54560640Y-64547902D01*
X54480735Y-64740809D01*
X54440000Y-64945599D01*
X54440000Y-65154401D01*
X54480735Y-65359191D01*
X54546517Y-65518003D01*
X54544463Y-65520506D01*
X54485498Y-65630820D01*
X54449188Y-65750518D01*
X54436928Y-65875000D01*
X54440000Y-66014250D01*
X54598750Y-66173000D01*
X55373000Y-66173000D01*
X55373000Y-66153000D01*
X55627000Y-66153000D01*
X55627000Y-66173000D01*
X55647000Y-66173000D01*
X55647000Y-66427000D01*
X55627000Y-66427000D01*
X55627000Y-67201250D01*
X55785750Y-67360000D01*
X55925000Y-67363072D01*
X56049482Y-67350812D01*
X56169180Y-67314502D01*
X56279494Y-67255537D01*
X56376185Y-67176185D01*
X56455537Y-67079494D01*
X56514502Y-66969180D01*
X56550812Y-66849482D01*
X56563072Y-66725000D01*
X56560000Y-66585750D01*
X56401252Y-66427002D01*
X56403241Y-66427002D01*
X57440000Y-67463762D01*
X57440001Y-70785197D01*
X52960000Y-75265199D01*
X52960000Y-66725000D01*
X54436928Y-66725000D01*
X54449188Y-66849482D01*
X54485498Y-66969180D01*
X54544463Y-67079494D01*
X54623815Y-67176185D01*
X54720506Y-67255537D01*
X54830820Y-67314502D01*
X54950518Y-67350812D01*
X55075000Y-67363072D01*
X55214250Y-67360000D01*
X55373000Y-67201250D01*
X55373000Y-66427000D01*
X54598750Y-66427000D01*
X54440000Y-66585750D01*
X54436928Y-66725000D01*
X52960000Y-66725000D01*
X52960000Y-61589801D01*
X56011003Y-58538799D01*
X56040001Y-58515001D01*
X56134974Y-58399276D01*
X56184730Y-58306190D01*
X56279494Y-58255537D01*
X56376185Y-58176185D01*
X56455537Y-58079494D01*
X56514502Y-57969180D01*
X56550812Y-57849482D01*
X56563072Y-57725000D01*
X56563072Y-56875000D01*
X56550812Y-56750518D01*
X56514502Y-56630820D01*
X56455537Y-56520506D01*
X56453483Y-56518003D01*
X56519265Y-56359191D01*
X56560000Y-56154401D01*
X56560000Y-55945599D01*
X56519265Y-55740809D01*
X56439360Y-55547902D01*
X56357240Y-55425000D01*
X56439360Y-55302098D01*
X56519265Y-55109191D01*
X56560000Y-54904401D01*
X56560000Y-54695599D01*
X56519265Y-54490809D01*
X56439360Y-54297902D01*
X56357240Y-54175000D01*
X56439360Y-54052098D01*
X56519265Y-53859191D01*
X56560000Y-53654401D01*
X56560000Y-53445599D01*
X56523082Y-53260000D01*
X70185199Y-53260000D01*
X73988997Y-57063799D01*
X73989003Y-57063804D01*
X78980000Y-62054802D01*
X78980000Y-62822405D01*
X78910986Y-62859294D01*
X78684866Y-63044866D01*
X78499294Y-63270986D01*
X78470000Y-63325791D01*
X78440706Y-63270986D01*
X78255134Y-63044866D01*
X78029014Y-62859294D01*
X77771034Y-62721401D01*
X77491111Y-62636487D01*
X77272950Y-62615000D01*
X77127050Y-62615000D01*
X76908889Y-62636487D01*
X76628966Y-62721401D01*
X76370986Y-62859294D01*
X76144866Y-63044866D01*
X75959294Y-63270986D01*
X75930000Y-63325791D01*
X75900706Y-63270986D01*
X75715134Y-63044866D01*
X75489014Y-62859294D01*
X75231034Y-62721401D01*
X74951111Y-62636487D01*
X74732950Y-62615000D01*
X74587050Y-62615000D01*
X74368889Y-62636487D01*
X74088966Y-62721401D01*
X73830986Y-62859294D01*
X73604866Y-63044866D01*
X73419294Y-63270986D01*
X73390000Y-63325791D01*
X73360706Y-63270986D01*
X73175134Y-63044866D01*
X72949014Y-62859294D01*
X72691034Y-62721401D01*
X72411111Y-62636487D01*
X72192950Y-62615000D01*
X72047050Y-62615000D01*
X71828889Y-62636487D01*
X71548966Y-62721401D01*
X71290986Y-62859294D01*
X71064866Y-63044866D01*
X71040393Y-63074687D01*
X71019502Y-63005820D01*
X70960537Y-62895506D01*
X70881185Y-62798815D01*
X70784494Y-62719463D01*
X70674180Y-62660498D01*
X70554482Y-62624188D01*
X70430000Y-62611928D01*
X68730000Y-62611928D01*
X68605518Y-62624188D01*
X68485820Y-62660498D01*
X68375506Y-62719463D01*
X68278815Y-62798815D01*
X68199463Y-62895506D01*
X68140498Y-63005820D01*
X68104188Y-63125518D01*
X68091928Y-63250000D01*
X68091928Y-64950000D01*
X68104188Y-65074482D01*
X68140498Y-65194180D01*
X68199463Y-65304494D01*
X68278815Y-65401185D01*
X68375506Y-65480537D01*
X68485820Y-65539502D01*
X68605518Y-65575812D01*
X68730000Y-65588072D01*
X70430000Y-65588072D01*
X70554482Y-65575812D01*
X70674180Y-65539502D01*
X70784494Y-65480537D01*
X70881185Y-65401185D01*
X70960537Y-65304494D01*
X71019502Y-65194180D01*
X71040393Y-65125313D01*
X71064866Y-65155134D01*
X71290986Y-65340706D01*
X71548966Y-65478599D01*
X71828889Y-65563513D01*
X72047050Y-65585000D01*
X72192950Y-65585000D01*
X72411111Y-65563513D01*
X72691034Y-65478599D01*
X72949014Y-65340706D01*
X73175134Y-65155134D01*
X73360706Y-64929014D01*
X73390000Y-64874209D01*
X73419294Y-64929014D01*
X73604866Y-65155134D01*
X73830986Y-65340706D01*
X74088966Y-65478599D01*
X74368889Y-65563513D01*
X74587050Y-65585000D01*
X74732950Y-65585000D01*
X74951111Y-65563513D01*
X75231034Y-65478599D01*
X75489014Y-65340706D01*
X75715134Y-65155134D01*
X75900706Y-64929014D01*
X75930000Y-64874209D01*
X75959294Y-64929014D01*
X76144866Y-65155134D01*
X76370986Y-65340706D01*
X76628966Y-65478599D01*
X76908889Y-65563513D01*
X77127050Y-65585000D01*
X77272950Y-65585000D01*
X77491111Y-65563513D01*
X77771034Y-65478599D01*
X78029014Y-65340706D01*
X78255134Y-65155134D01*
X78440706Y-64929014D01*
X78470000Y-64874209D01*
X78499294Y-64929014D01*
X78684866Y-65155134D01*
X78910986Y-65340706D01*
X79168966Y-65478599D01*
X79448889Y-65563513D01*
X79667050Y-65585000D01*
X79812950Y-65585000D01*
X80031111Y-65563513D01*
X80311034Y-65478599D01*
X80569014Y-65340706D01*
X80795134Y-65155134D01*
X80980706Y-64929014D01*
X81010000Y-64874209D01*
X81039294Y-64929014D01*
X81224866Y-65155134D01*
X81450986Y-65340706D01*
X81708966Y-65478599D01*
X81988889Y-65563513D01*
X82207050Y-65585000D01*
X82352950Y-65585000D01*
X82571111Y-65563513D01*
X82851034Y-65478599D01*
X83109014Y-65340706D01*
X83335134Y-65155134D01*
X83520706Y-64929014D01*
X83555201Y-64864477D01*
X83624822Y-64981355D01*
X83819731Y-65197588D01*
X84053080Y-65371641D01*
X84315901Y-65496825D01*
X84463110Y-65541476D01*
X84693000Y-65420155D01*
X84693000Y-64227000D01*
X84673000Y-64227000D01*
X84673000Y-63973000D01*
X84693000Y-63973000D01*
X84693000Y-62779845D01*
X84463110Y-62658524D01*
X84315901Y-62703175D01*
X84053080Y-62828359D01*
X83819731Y-63002412D01*
X83624822Y-63218645D01*
X83555201Y-63335523D01*
X83520706Y-63270986D01*
X83335134Y-63044866D01*
X83109014Y-62859294D01*
X83040000Y-62822405D01*
X83040000Y-62117322D01*
X83043676Y-62079999D01*
X83040000Y-62042676D01*
X83040000Y-62042667D01*
X83029003Y-61931014D01*
X82985546Y-61787753D01*
X82952882Y-61726644D01*
X82914974Y-61655723D01*
X82843799Y-61568997D01*
X82820001Y-61539999D01*
X82791004Y-61516202D01*
X76863804Y-55589003D01*
X76863799Y-55588997D01*
X72863804Y-51589003D01*
X72840001Y-51559999D01*
X72724276Y-51465026D01*
X72592247Y-51394454D01*
X72448986Y-51350997D01*
X72337333Y-51340000D01*
X72337322Y-51340000D01*
X72300000Y-51336324D01*
X72262678Y-51340000D01*
X56521701Y-51340000D01*
X56557959Y-51173384D01*
X56561702Y-50964616D01*
X56524644Y-50759130D01*
X56448210Y-50564821D01*
X56430210Y-50531144D01*
X56224386Y-50505219D01*
X55679605Y-51050000D01*
X55693748Y-51064143D01*
X55517890Y-51240000D01*
X55510395Y-51240000D01*
X55500000Y-51229605D01*
X55489605Y-51240000D01*
X55482110Y-51240000D01*
X55306253Y-51064143D01*
X55320395Y-51050000D01*
X54775614Y-50505219D01*
X54569790Y-50531144D01*
X54486440Y-50722588D01*
X54442041Y-50926616D01*
X54438298Y-51135384D01*
X54475356Y-51340870D01*
X54551790Y-51535179D01*
X54569790Y-51568856D01*
X54713922Y-51587011D01*
X54676644Y-51624289D01*
X54560640Y-51797902D01*
X54480735Y-51990809D01*
X54440000Y-52195599D01*
X54440000Y-52404401D01*
X54480735Y-52609191D01*
X54560640Y-52802098D01*
X54642760Y-52925000D01*
X54560640Y-53047902D01*
X54480735Y-53240809D01*
X54440000Y-53445599D01*
X54440000Y-53654401D01*
X54480735Y-53859191D01*
X54560640Y-54052098D01*
X54642760Y-54175000D01*
X54560640Y-54297902D01*
X54480735Y-54490809D01*
X54440000Y-54695599D01*
X54440000Y-54904401D01*
X54480735Y-55109191D01*
X54560640Y-55302098D01*
X54593618Y-55351453D01*
X54474684Y-55415026D01*
X54358959Y-55509999D01*
X54335161Y-55538997D01*
X50889003Y-58985156D01*
X50859999Y-59008959D01*
X50804871Y-59076134D01*
X50765026Y-59124684D01*
X50694455Y-59256713D01*
X50694454Y-59256714D01*
X50650997Y-59399975D01*
X50640000Y-59511628D01*
X50640000Y-59511638D01*
X50636324Y-59548960D01*
X50640000Y-59586282D01*
X50640001Y-82096288D01*
X50596063Y-82140226D01*
X50482795Y-82309744D01*
X50404774Y-82498102D01*
X50365000Y-82698061D01*
X39720000Y-82698061D01*
X39720000Y-50325614D01*
X54955219Y-50325614D01*
X55500000Y-50870395D01*
X56044781Y-50325614D01*
X56018856Y-50119790D01*
X55827412Y-50036440D01*
X55623384Y-49992041D01*
X55414616Y-49988298D01*
X55209130Y-50025356D01*
X55014821Y-50101790D01*
X54981144Y-50119790D01*
X54955219Y-50325614D01*
X39720000Y-50325614D01*
X39720000Y-45951473D01*
X39824886Y-46108446D01*
X40261554Y-46545114D01*
X40775021Y-46888201D01*
X41345554Y-47124524D01*
X41951229Y-47245000D01*
X42568771Y-47245000D01*
X43174446Y-47124524D01*
X43744979Y-46888201D01*
X44258446Y-46545114D01*
X44695114Y-46108446D01*
X45038201Y-45594979D01*
X45274524Y-45024446D01*
X45395000Y-44418771D01*
X45395000Y-43801229D01*
X45274524Y-43195554D01*
X45038201Y-42625021D01*
X44695114Y-42111554D01*
X44258446Y-41674886D01*
X44066888Y-41546891D01*
X68158519Y-41546891D01*
X68255843Y-41821252D01*
X68404822Y-42071355D01*
X68599731Y-42287588D01*
X68833080Y-42461641D01*
X69095901Y-42586825D01*
X69243110Y-42631476D01*
X69473000Y-42510155D01*
X69473000Y-41317000D01*
X68279186Y-41317000D01*
X68158519Y-41546891D01*
X44066888Y-41546891D01*
X43744979Y-41331799D01*
X43174446Y-41095476D01*
X42568771Y-40975000D01*
X41951229Y-40975000D01*
X41345554Y-41095476D01*
X40775021Y-41331799D01*
X40261554Y-41674886D01*
X39824886Y-42111554D01*
X39720000Y-42268527D01*
X39720000Y-40833109D01*
X68158519Y-40833109D01*
X68279186Y-41063000D01*
X69473000Y-41063000D01*
X69473000Y-39869845D01*
X69243110Y-39748524D01*
X69095901Y-39793175D01*
X68833080Y-39918359D01*
X68599731Y-40092412D01*
X68404822Y-40308645D01*
X68255843Y-40558748D01*
X68158519Y-40833109D01*
X39720000Y-40833109D01*
X39720000Y-33970000D01*
X136400000Y-33970000D01*
X136400000Y-42268527D01*
G36*
X116598750Y-107373000D02*
G01*
X117373000Y-107373000D01*
X117373000Y-107353000D01*
X117627000Y-107353000D01*
X117627000Y-107373000D01*
X117647000Y-107373000D01*
X117647000Y-107627000D01*
X117627000Y-107627000D01*
X117627000Y-108401250D01*
X117725474Y-108499724D01*
X117089002Y-109136197D01*
X117088997Y-109136201D01*
X113185199Y-113040000D01*
X110734801Y-113040000D01*
X114363799Y-109411003D01*
X114363803Y-109410998D01*
X115849801Y-107925000D01*
X116436928Y-107925000D01*
X116449188Y-108049482D01*
X116485498Y-108169180D01*
X116544463Y-108279494D01*
X116623815Y-108376185D01*
X116720506Y-108455537D01*
X116830820Y-108514502D01*
X116950518Y-108550812D01*
X117075000Y-108563072D01*
X117214250Y-108560000D01*
X117373000Y-108401250D01*
X117373000Y-107627000D01*
X116598750Y-107627000D01*
X116440000Y-107785750D01*
X116436928Y-107925000D01*
X115849801Y-107925000D01*
X116500276Y-107274526D01*
X116598750Y-107373000D01*
X116598750Y-107373000D01*
G37*
X116598750Y-107373000D02*
X117373000Y-107373000D01*
X117373000Y-107353000D01*
X117627000Y-107353000D01*
X117627000Y-107373000D01*
X117647000Y-107373000D01*
X117647000Y-107627000D01*
X117627000Y-107627000D01*
X117627000Y-108401250D01*
X117725474Y-108499724D01*
X117089002Y-109136197D01*
X117088997Y-109136201D01*
X113185199Y-113040000D01*
X110734801Y-113040000D01*
X114363799Y-109411003D01*
X114363803Y-109410998D01*
X115849801Y-107925000D01*
X116436928Y-107925000D01*
X116449188Y-108049482D01*
X116485498Y-108169180D01*
X116544463Y-108279494D01*
X116623815Y-108376185D01*
X116720506Y-108455537D01*
X116830820Y-108514502D01*
X116950518Y-108550812D01*
X117075000Y-108563072D01*
X117214250Y-108560000D01*
X117373000Y-108401250D01*
X117373000Y-107627000D01*
X116598750Y-107627000D01*
X116440000Y-107785750D01*
X116436928Y-107925000D01*
X115849801Y-107925000D01*
X116500276Y-107274526D01*
X116598750Y-107373000D01*
M02*
