G04 #@! TF.GenerationSoftware,KiCad,Pcbnew,(5.1.2)-2*
G04 #@! TF.CreationDate,2021-05-04T12:01:07-04:00*
G04 #@! TF.ProjectId,Magnetometer_A,4d61676e-6574-46f6-9d65-7465725f412e,rev?*
G04 #@! TF.SameCoordinates,Original*
G04 #@! TF.FileFunction,Soldermask,Bot*
G04 #@! TF.FilePolarity,Negative*
%FSLAX46Y46*%
G04 Gerber Fmt 4.6, Leading zero omitted, Abs format (unit mm)*
G04 Created by KiCad (PCBNEW (5.1.2)-2) date 2021-05-04 12:01:07*
%MOMM*%
%LPD*%
G04 APERTURE LIST*
%ADD10C,0.100000*%
G04 APERTURE END LIST*
D10*
G36*
X118888843Y-107042292D02*
G01*
X118939588Y-107063311D01*
X118975470Y-107078174D01*
X119053432Y-107130267D01*
X119119733Y-107196568D01*
X119171826Y-107274530D01*
X119171826Y-107274531D01*
X119207708Y-107361157D01*
X119226000Y-107453117D01*
X119226000Y-107546883D01*
X119207708Y-107638843D01*
X119198530Y-107661000D01*
X119171826Y-107725470D01*
X119119733Y-107803432D01*
X119053432Y-107869733D01*
X118975470Y-107921826D01*
X118939588Y-107936689D01*
X118888843Y-107957708D01*
X118796883Y-107976000D01*
X118703117Y-107976000D01*
X118611157Y-107957708D01*
X118560412Y-107936689D01*
X118524530Y-107921826D01*
X118446568Y-107869733D01*
X118380267Y-107803432D01*
X118328174Y-107725470D01*
X118301470Y-107661000D01*
X118292292Y-107638843D01*
X118274000Y-107546883D01*
X118274000Y-107453117D01*
X118292292Y-107361157D01*
X118328174Y-107274531D01*
X118328174Y-107274530D01*
X118380267Y-107196568D01*
X118446568Y-107130267D01*
X118524530Y-107078174D01*
X118560412Y-107063311D01*
X118611157Y-107042292D01*
X118703117Y-107024000D01*
X118796883Y-107024000D01*
X118888843Y-107042292D01*
X118888843Y-107042292D01*
G37*
G36*
X117976000Y-107976000D02*
G01*
X117024000Y-107976000D01*
X117024000Y-107024000D01*
X117976000Y-107024000D01*
X117976000Y-107976000D01*
X117976000Y-107976000D01*
G37*
G36*
X121388843Y-107042292D02*
G01*
X121439588Y-107063311D01*
X121475470Y-107078174D01*
X121553432Y-107130267D01*
X121619733Y-107196568D01*
X121671826Y-107274530D01*
X121671826Y-107274531D01*
X121707708Y-107361157D01*
X121726000Y-107453117D01*
X121726000Y-107546883D01*
X121707708Y-107638843D01*
X121698530Y-107661000D01*
X121671826Y-107725470D01*
X121619733Y-107803432D01*
X121553432Y-107869733D01*
X121475470Y-107921826D01*
X121439588Y-107936689D01*
X121388843Y-107957708D01*
X121296883Y-107976000D01*
X121203117Y-107976000D01*
X121111157Y-107957708D01*
X121060412Y-107936689D01*
X121024530Y-107921826D01*
X120946568Y-107869733D01*
X120880267Y-107803432D01*
X120828174Y-107725470D01*
X120801470Y-107661000D01*
X120792292Y-107638843D01*
X120774000Y-107546883D01*
X120774000Y-107453117D01*
X120792292Y-107361157D01*
X120828174Y-107274531D01*
X120828174Y-107274530D01*
X120880267Y-107196568D01*
X120946568Y-107130267D01*
X121024530Y-107078174D01*
X121060412Y-107063311D01*
X121111157Y-107042292D01*
X121203117Y-107024000D01*
X121296883Y-107024000D01*
X121388843Y-107042292D01*
X121388843Y-107042292D01*
G37*
G36*
X120138843Y-107042292D02*
G01*
X120189588Y-107063311D01*
X120225470Y-107078174D01*
X120303432Y-107130267D01*
X120369733Y-107196568D01*
X120421826Y-107274530D01*
X120421826Y-107274531D01*
X120457708Y-107361157D01*
X120476000Y-107453117D01*
X120476000Y-107546883D01*
X120457708Y-107638843D01*
X120448530Y-107661000D01*
X120421826Y-107725470D01*
X120369733Y-107803432D01*
X120303432Y-107869733D01*
X120225470Y-107921826D01*
X120189588Y-107936689D01*
X120138843Y-107957708D01*
X120046883Y-107976000D01*
X119953117Y-107976000D01*
X119861157Y-107957708D01*
X119810412Y-107936689D01*
X119774530Y-107921826D01*
X119696568Y-107869733D01*
X119630267Y-107803432D01*
X119578174Y-107725470D01*
X119551470Y-107661000D01*
X119542292Y-107638843D01*
X119524000Y-107546883D01*
X119524000Y-107453117D01*
X119542292Y-107361157D01*
X119578174Y-107274531D01*
X119578174Y-107274530D01*
X119630267Y-107196568D01*
X119696568Y-107130267D01*
X119774530Y-107078174D01*
X119810412Y-107063311D01*
X119861157Y-107042292D01*
X119953117Y-107024000D01*
X120046883Y-107024000D01*
X120138843Y-107042292D01*
X120138843Y-107042292D01*
G37*
G36*
X42954098Y-102657033D02*
G01*
X43418350Y-102849332D01*
X43418352Y-102849333D01*
X43836168Y-103128509D01*
X44191491Y-103483832D01*
X44470667Y-103901648D01*
X44470668Y-103901650D01*
X44662967Y-104365902D01*
X44761000Y-104858747D01*
X44761000Y-105361253D01*
X44662967Y-105854098D01*
X44470668Y-106318350D01*
X44470667Y-106318352D01*
X44191491Y-106736168D01*
X43836168Y-107091491D01*
X43418352Y-107370667D01*
X43418351Y-107370668D01*
X43418350Y-107370668D01*
X42954098Y-107562967D01*
X42461253Y-107661000D01*
X41958747Y-107661000D01*
X41465902Y-107562967D01*
X41001650Y-107370668D01*
X41001649Y-107370668D01*
X41001648Y-107370667D01*
X40583832Y-107091491D01*
X40228509Y-106736168D01*
X39949333Y-106318352D01*
X39949332Y-106318350D01*
X39757033Y-105854098D01*
X39659000Y-105361253D01*
X39659000Y-104858747D01*
X39757033Y-104365902D01*
X39949332Y-103901650D01*
X39949333Y-103901648D01*
X40228509Y-103483832D01*
X40583832Y-103128509D01*
X41001648Y-102849333D01*
X41001650Y-102849332D01*
X41465902Y-102657033D01*
X41958747Y-102559000D01*
X42461253Y-102559000D01*
X42954098Y-102657033D01*
X42954098Y-102657033D01*
G37*
G36*
X134604098Y-102657033D02*
G01*
X135068350Y-102849332D01*
X135068352Y-102849333D01*
X135486168Y-103128509D01*
X135841491Y-103483832D01*
X136120667Y-103901648D01*
X136120668Y-103901650D01*
X136312967Y-104365902D01*
X136411000Y-104858747D01*
X136411000Y-105361253D01*
X136312967Y-105854098D01*
X136120668Y-106318350D01*
X136120667Y-106318352D01*
X135841491Y-106736168D01*
X135486168Y-107091491D01*
X135068352Y-107370667D01*
X135068351Y-107370668D01*
X135068350Y-107370668D01*
X134604098Y-107562967D01*
X134111253Y-107661000D01*
X133608747Y-107661000D01*
X133115902Y-107562967D01*
X132651650Y-107370668D01*
X132651649Y-107370668D01*
X132651648Y-107370667D01*
X132233832Y-107091491D01*
X131878509Y-106736168D01*
X131599333Y-106318352D01*
X131599332Y-106318350D01*
X131407033Y-105854098D01*
X131309000Y-105361253D01*
X131309000Y-104858747D01*
X131407033Y-104365902D01*
X131599332Y-103901650D01*
X131599333Y-103901648D01*
X131878509Y-103483832D01*
X132233832Y-103128509D01*
X132651648Y-102849333D01*
X132651650Y-102849332D01*
X133115902Y-102657033D01*
X133608747Y-102559000D01*
X134111253Y-102559000D01*
X134604098Y-102657033D01*
X134604098Y-102657033D01*
G37*
G36*
X113301000Y-106701000D02*
G01*
X111699000Y-106701000D01*
X111699000Y-104299000D01*
X113301000Y-104299000D01*
X113301000Y-106701000D01*
X113301000Y-106701000D01*
G37*
G36*
X54638843Y-101592292D02*
G01*
X54689588Y-101613311D01*
X54725470Y-101628174D01*
X54803432Y-101680267D01*
X54869733Y-101746568D01*
X54921826Y-101824530D01*
X54921826Y-101824531D01*
X54957708Y-101911157D01*
X54976000Y-102003117D01*
X54976000Y-102096883D01*
X54957708Y-102188843D01*
X54936689Y-102239588D01*
X54921826Y-102275470D01*
X54869733Y-102353432D01*
X54803432Y-102419733D01*
X54725470Y-102471826D01*
X54689588Y-102486689D01*
X54638843Y-102507708D01*
X54546883Y-102526000D01*
X54453117Y-102526000D01*
X54361157Y-102507708D01*
X54310412Y-102486689D01*
X54274530Y-102471826D01*
X54196568Y-102419733D01*
X54130267Y-102353432D01*
X54078174Y-102275470D01*
X54063311Y-102239588D01*
X54042292Y-102188843D01*
X54024000Y-102096883D01*
X54024000Y-102003117D01*
X54042292Y-101911157D01*
X54078174Y-101824531D01*
X54078174Y-101824530D01*
X54130267Y-101746568D01*
X54196568Y-101680267D01*
X54274530Y-101628174D01*
X54310412Y-101613311D01*
X54361157Y-101592292D01*
X54453117Y-101574000D01*
X54546883Y-101574000D01*
X54638843Y-101592292D01*
X54638843Y-101592292D01*
G37*
G36*
X54638843Y-100342292D02*
G01*
X54689588Y-100363311D01*
X54725470Y-100378174D01*
X54803432Y-100430267D01*
X54869733Y-100496568D01*
X54921826Y-100574530D01*
X54921826Y-100574531D01*
X54957708Y-100661157D01*
X54976000Y-100753117D01*
X54976000Y-100846883D01*
X54957708Y-100938843D01*
X54936689Y-100989588D01*
X54921826Y-101025470D01*
X54869733Y-101103432D01*
X54803432Y-101169733D01*
X54725470Y-101221826D01*
X54689588Y-101236689D01*
X54638843Y-101257708D01*
X54546883Y-101276000D01*
X54453117Y-101276000D01*
X54361157Y-101257708D01*
X54310412Y-101236689D01*
X54274530Y-101221826D01*
X54196568Y-101169733D01*
X54130267Y-101103432D01*
X54078174Y-101025470D01*
X54063311Y-100989588D01*
X54042292Y-100938843D01*
X54024000Y-100846883D01*
X54024000Y-100753117D01*
X54042292Y-100661157D01*
X54078174Y-100574531D01*
X54078174Y-100574530D01*
X54130267Y-100496568D01*
X54196568Y-100430267D01*
X54274530Y-100378174D01*
X54310412Y-100363311D01*
X54361157Y-100342292D01*
X54453117Y-100324000D01*
X54546883Y-100324000D01*
X54638843Y-100342292D01*
X54638843Y-100342292D01*
G37*
G36*
X54638843Y-99092292D02*
G01*
X54689588Y-99113311D01*
X54725470Y-99128174D01*
X54803432Y-99180267D01*
X54869733Y-99246568D01*
X54921826Y-99324530D01*
X54921826Y-99324531D01*
X54957708Y-99411157D01*
X54976000Y-99503117D01*
X54976000Y-99596883D01*
X54957708Y-99688843D01*
X54936689Y-99739588D01*
X54921826Y-99775470D01*
X54869733Y-99853432D01*
X54803432Y-99919733D01*
X54725470Y-99971826D01*
X54689588Y-99986689D01*
X54638843Y-100007708D01*
X54546883Y-100026000D01*
X54453117Y-100026000D01*
X54361157Y-100007708D01*
X54310412Y-99986689D01*
X54274530Y-99971826D01*
X54196568Y-99919733D01*
X54130267Y-99853432D01*
X54078174Y-99775470D01*
X54063311Y-99739588D01*
X54042292Y-99688843D01*
X54024000Y-99596883D01*
X54024000Y-99503117D01*
X54042292Y-99411157D01*
X54078174Y-99324531D01*
X54078174Y-99324530D01*
X54130267Y-99246568D01*
X54196568Y-99180267D01*
X54274530Y-99128174D01*
X54310412Y-99113311D01*
X54361157Y-99092292D01*
X54453117Y-99074000D01*
X54546883Y-99074000D01*
X54638843Y-99092292D01*
X54638843Y-99092292D01*
G37*
G36*
X54976000Y-98776000D02*
G01*
X54024000Y-98776000D01*
X54024000Y-97824000D01*
X54976000Y-97824000D01*
X54976000Y-98776000D01*
X54976000Y-98776000D01*
G37*
G36*
X55976000Y-94176000D02*
G01*
X55024000Y-94176000D01*
X55024000Y-93224000D01*
X55976000Y-93224000D01*
X55976000Y-94176000D01*
X55976000Y-94176000D01*
G37*
G36*
X55638843Y-91992292D02*
G01*
X55689588Y-92013311D01*
X55725470Y-92028174D01*
X55803432Y-92080267D01*
X55869733Y-92146568D01*
X55921826Y-92224530D01*
X55921826Y-92224531D01*
X55957708Y-92311157D01*
X55976000Y-92403117D01*
X55976000Y-92496883D01*
X55957708Y-92588843D01*
X55936689Y-92639588D01*
X55921826Y-92675470D01*
X55869733Y-92753432D01*
X55803432Y-92819733D01*
X55725470Y-92871826D01*
X55689588Y-92886689D01*
X55638843Y-92907708D01*
X55546883Y-92926000D01*
X55453117Y-92926000D01*
X55361157Y-92907708D01*
X55310412Y-92886689D01*
X55274530Y-92871826D01*
X55196568Y-92819733D01*
X55130267Y-92753432D01*
X55078174Y-92675470D01*
X55063311Y-92639588D01*
X55042292Y-92588843D01*
X55024000Y-92496883D01*
X55024000Y-92403117D01*
X55042292Y-92311157D01*
X55078174Y-92224531D01*
X55078174Y-92224530D01*
X55130267Y-92146568D01*
X55196568Y-92080267D01*
X55274530Y-92028174D01*
X55310412Y-92013311D01*
X55361157Y-91992292D01*
X55453117Y-91974000D01*
X55546883Y-91974000D01*
X55638843Y-91992292D01*
X55638843Y-91992292D01*
G37*
G36*
X55638843Y-90742292D02*
G01*
X55689588Y-90763311D01*
X55725470Y-90778174D01*
X55803432Y-90830267D01*
X55869733Y-90896568D01*
X55921826Y-90974530D01*
X55921826Y-90974531D01*
X55957708Y-91061157D01*
X55976000Y-91153117D01*
X55976000Y-91246883D01*
X55957708Y-91338843D01*
X55936689Y-91389588D01*
X55921826Y-91425470D01*
X55869733Y-91503432D01*
X55803432Y-91569733D01*
X55725470Y-91621826D01*
X55689588Y-91636689D01*
X55638843Y-91657708D01*
X55546883Y-91676000D01*
X55453117Y-91676000D01*
X55361157Y-91657708D01*
X55310412Y-91636689D01*
X55274530Y-91621826D01*
X55196568Y-91569733D01*
X55130267Y-91503432D01*
X55078174Y-91425470D01*
X55063311Y-91389588D01*
X55042292Y-91338843D01*
X55024000Y-91246883D01*
X55024000Y-91153117D01*
X55042292Y-91061157D01*
X55078174Y-90974531D01*
X55078174Y-90974530D01*
X55130267Y-90896568D01*
X55196568Y-90830267D01*
X55274530Y-90778174D01*
X55310412Y-90763311D01*
X55361157Y-90742292D01*
X55453117Y-90724000D01*
X55546883Y-90724000D01*
X55638843Y-90742292D01*
X55638843Y-90742292D01*
G37*
G36*
X55638843Y-89492292D02*
G01*
X55689588Y-89513311D01*
X55725470Y-89528174D01*
X55803432Y-89580267D01*
X55869733Y-89646568D01*
X55921826Y-89724530D01*
X55921826Y-89724531D01*
X55957708Y-89811157D01*
X55976000Y-89903117D01*
X55976000Y-89996883D01*
X55957708Y-90088843D01*
X55936689Y-90139588D01*
X55921826Y-90175470D01*
X55869733Y-90253432D01*
X55803432Y-90319733D01*
X55725470Y-90371826D01*
X55689588Y-90386689D01*
X55638843Y-90407708D01*
X55546883Y-90426000D01*
X55453117Y-90426000D01*
X55361157Y-90407708D01*
X55310412Y-90386689D01*
X55274530Y-90371826D01*
X55196568Y-90319733D01*
X55130267Y-90253432D01*
X55078174Y-90175470D01*
X55063311Y-90139588D01*
X55042292Y-90088843D01*
X55024000Y-89996883D01*
X55024000Y-89903117D01*
X55042292Y-89811157D01*
X55078174Y-89724531D01*
X55078174Y-89724530D01*
X55130267Y-89646568D01*
X55196568Y-89580267D01*
X55274530Y-89528174D01*
X55310412Y-89513311D01*
X55361157Y-89492292D01*
X55453117Y-89474000D01*
X55546883Y-89474000D01*
X55638843Y-89492292D01*
X55638843Y-89492292D01*
G37*
G36*
X73820442Y-80235518D02*
G01*
X73886627Y-80242037D01*
X74056466Y-80293557D01*
X74212991Y-80377222D01*
X74248729Y-80406552D01*
X74350186Y-80489814D01*
X74433448Y-80591271D01*
X74462778Y-80627009D01*
X74546443Y-80783534D01*
X74597963Y-80953373D01*
X74615359Y-81130000D01*
X74597963Y-81306627D01*
X74546443Y-81476466D01*
X74462778Y-81632991D01*
X74433448Y-81668729D01*
X74350186Y-81770186D01*
X74248729Y-81853448D01*
X74212991Y-81882778D01*
X74056466Y-81966443D01*
X73886627Y-82017963D01*
X73820443Y-82024481D01*
X73754260Y-82031000D01*
X73665740Y-82031000D01*
X73599557Y-82024481D01*
X73533373Y-82017963D01*
X73363534Y-81966443D01*
X73207009Y-81882778D01*
X73171271Y-81853448D01*
X73069814Y-81770186D01*
X72986552Y-81668729D01*
X72957222Y-81632991D01*
X72873557Y-81476466D01*
X72822037Y-81306627D01*
X72804641Y-81130000D01*
X72822037Y-80953373D01*
X72873557Y-80783534D01*
X72957222Y-80627009D01*
X72986552Y-80591271D01*
X73069814Y-80489814D01*
X73171271Y-80406552D01*
X73207009Y-80377222D01*
X73363534Y-80293557D01*
X73533373Y-80242037D01*
X73599558Y-80235518D01*
X73665740Y-80229000D01*
X73754260Y-80229000D01*
X73820442Y-80235518D01*
X73820442Y-80235518D01*
G37*
G36*
X76360442Y-80235518D02*
G01*
X76426627Y-80242037D01*
X76596466Y-80293557D01*
X76752991Y-80377222D01*
X76788729Y-80406552D01*
X76890186Y-80489814D01*
X76973448Y-80591271D01*
X77002778Y-80627009D01*
X77086443Y-80783534D01*
X77137963Y-80953373D01*
X77155359Y-81130000D01*
X77137963Y-81306627D01*
X77086443Y-81476466D01*
X77002778Y-81632991D01*
X76973448Y-81668729D01*
X76890186Y-81770186D01*
X76788729Y-81853448D01*
X76752991Y-81882778D01*
X76596466Y-81966443D01*
X76426627Y-82017963D01*
X76360443Y-82024481D01*
X76294260Y-82031000D01*
X76205740Y-82031000D01*
X76139557Y-82024481D01*
X76073373Y-82017963D01*
X75903534Y-81966443D01*
X75747009Y-81882778D01*
X75711271Y-81853448D01*
X75609814Y-81770186D01*
X75526552Y-81668729D01*
X75497222Y-81632991D01*
X75413557Y-81476466D01*
X75362037Y-81306627D01*
X75344641Y-81130000D01*
X75362037Y-80953373D01*
X75413557Y-80783534D01*
X75497222Y-80627009D01*
X75526552Y-80591271D01*
X75609814Y-80489814D01*
X75711271Y-80406552D01*
X75747009Y-80377222D01*
X75903534Y-80293557D01*
X76073373Y-80242037D01*
X76139558Y-80235518D01*
X76205740Y-80229000D01*
X76294260Y-80229000D01*
X76360442Y-80235518D01*
X76360442Y-80235518D01*
G37*
G36*
X78900442Y-80235518D02*
G01*
X78966627Y-80242037D01*
X79136466Y-80293557D01*
X79292991Y-80377222D01*
X79328729Y-80406552D01*
X79430186Y-80489814D01*
X79513448Y-80591271D01*
X79542778Y-80627009D01*
X79626443Y-80783534D01*
X79677963Y-80953373D01*
X79695359Y-81130000D01*
X79677963Y-81306627D01*
X79626443Y-81476466D01*
X79542778Y-81632991D01*
X79513448Y-81668729D01*
X79430186Y-81770186D01*
X79328729Y-81853448D01*
X79292991Y-81882778D01*
X79136466Y-81966443D01*
X78966627Y-82017963D01*
X78900443Y-82024481D01*
X78834260Y-82031000D01*
X78745740Y-82031000D01*
X78679557Y-82024481D01*
X78613373Y-82017963D01*
X78443534Y-81966443D01*
X78287009Y-81882778D01*
X78251271Y-81853448D01*
X78149814Y-81770186D01*
X78066552Y-81668729D01*
X78037222Y-81632991D01*
X77953557Y-81476466D01*
X77902037Y-81306627D01*
X77884641Y-81130000D01*
X77902037Y-80953373D01*
X77953557Y-80783534D01*
X78037222Y-80627009D01*
X78066552Y-80591271D01*
X78149814Y-80489814D01*
X78251271Y-80406552D01*
X78287009Y-80377222D01*
X78443534Y-80293557D01*
X78613373Y-80242037D01*
X78679558Y-80235518D01*
X78745740Y-80229000D01*
X78834260Y-80229000D01*
X78900442Y-80235518D01*
X78900442Y-80235518D01*
G37*
G36*
X71280442Y-80235518D02*
G01*
X71346627Y-80242037D01*
X71516466Y-80293557D01*
X71672991Y-80377222D01*
X71708729Y-80406552D01*
X71810186Y-80489814D01*
X71893448Y-80591271D01*
X71922778Y-80627009D01*
X72006443Y-80783534D01*
X72057963Y-80953373D01*
X72075359Y-81130000D01*
X72057963Y-81306627D01*
X72006443Y-81476466D01*
X71922778Y-81632991D01*
X71893448Y-81668729D01*
X71810186Y-81770186D01*
X71708729Y-81853448D01*
X71672991Y-81882778D01*
X71516466Y-81966443D01*
X71346627Y-82017963D01*
X71280443Y-82024481D01*
X71214260Y-82031000D01*
X71125740Y-82031000D01*
X71059557Y-82024481D01*
X70993373Y-82017963D01*
X70823534Y-81966443D01*
X70667009Y-81882778D01*
X70631271Y-81853448D01*
X70529814Y-81770186D01*
X70446552Y-81668729D01*
X70417222Y-81632991D01*
X70333557Y-81476466D01*
X70282037Y-81306627D01*
X70264641Y-81130000D01*
X70282037Y-80953373D01*
X70333557Y-80783534D01*
X70417222Y-80627009D01*
X70446552Y-80591271D01*
X70529814Y-80489814D01*
X70631271Y-80406552D01*
X70667009Y-80377222D01*
X70823534Y-80293557D01*
X70993373Y-80242037D01*
X71059558Y-80235518D01*
X71125740Y-80229000D01*
X71214260Y-80229000D01*
X71280442Y-80235518D01*
X71280442Y-80235518D01*
G37*
G36*
X68740442Y-80235518D02*
G01*
X68806627Y-80242037D01*
X68976466Y-80293557D01*
X69132991Y-80377222D01*
X69168729Y-80406552D01*
X69270186Y-80489814D01*
X69353448Y-80591271D01*
X69382778Y-80627009D01*
X69466443Y-80783534D01*
X69517963Y-80953373D01*
X69535359Y-81130000D01*
X69517963Y-81306627D01*
X69466443Y-81476466D01*
X69382778Y-81632991D01*
X69353448Y-81668729D01*
X69270186Y-81770186D01*
X69168729Y-81853448D01*
X69132991Y-81882778D01*
X68976466Y-81966443D01*
X68806627Y-82017963D01*
X68740443Y-82024481D01*
X68674260Y-82031000D01*
X68585740Y-82031000D01*
X68519557Y-82024481D01*
X68453373Y-82017963D01*
X68283534Y-81966443D01*
X68127009Y-81882778D01*
X68091271Y-81853448D01*
X67989814Y-81770186D01*
X67906552Y-81668729D01*
X67877222Y-81632991D01*
X67793557Y-81476466D01*
X67742037Y-81306627D01*
X67724641Y-81130000D01*
X67742037Y-80953373D01*
X67793557Y-80783534D01*
X67877222Y-80627009D01*
X67906552Y-80591271D01*
X67989814Y-80489814D01*
X68091271Y-80406552D01*
X68127009Y-80377222D01*
X68283534Y-80293557D01*
X68453373Y-80242037D01*
X68519558Y-80235518D01*
X68585740Y-80229000D01*
X68674260Y-80229000D01*
X68740442Y-80235518D01*
X68740442Y-80235518D01*
G37*
G36*
X66991000Y-82031000D02*
G01*
X65189000Y-82031000D01*
X65189000Y-80229000D01*
X66991000Y-80229000D01*
X66991000Y-82031000D01*
X66991000Y-82031000D01*
G37*
G36*
X55976000Y-66776000D02*
G01*
X55024000Y-66776000D01*
X55024000Y-65824000D01*
X55976000Y-65824000D01*
X55976000Y-66776000D01*
X55976000Y-66776000D01*
G37*
G36*
X55638843Y-64592292D02*
G01*
X55664672Y-64602991D01*
X55725470Y-64628174D01*
X55803432Y-64680267D01*
X55869733Y-64746568D01*
X55921826Y-64824530D01*
X55921826Y-64824531D01*
X55957708Y-64911157D01*
X55976000Y-65003117D01*
X55976000Y-65096883D01*
X55957708Y-65188843D01*
X55936689Y-65239588D01*
X55921826Y-65275470D01*
X55869733Y-65353432D01*
X55803432Y-65419733D01*
X55725470Y-65471826D01*
X55689588Y-65486689D01*
X55638843Y-65507708D01*
X55546883Y-65526000D01*
X55453117Y-65526000D01*
X55361157Y-65507708D01*
X55310412Y-65486689D01*
X55274530Y-65471826D01*
X55196568Y-65419733D01*
X55130267Y-65353432D01*
X55078174Y-65275470D01*
X55063311Y-65239588D01*
X55042292Y-65188843D01*
X55024000Y-65096883D01*
X55024000Y-65003117D01*
X55042292Y-64911157D01*
X55078174Y-64824531D01*
X55078174Y-64824530D01*
X55130267Y-64746568D01*
X55196568Y-64680267D01*
X55274530Y-64628174D01*
X55335328Y-64602991D01*
X55361157Y-64592292D01*
X55453117Y-64574000D01*
X55546883Y-64574000D01*
X55638843Y-64592292D01*
X55638843Y-64592292D01*
G37*
G36*
X82390442Y-63205518D02*
G01*
X82456627Y-63212037D01*
X82626466Y-63263557D01*
X82782991Y-63347222D01*
X82818729Y-63376552D01*
X82920186Y-63459814D01*
X83003448Y-63561271D01*
X83032778Y-63597009D01*
X83116443Y-63753534D01*
X83167963Y-63923373D01*
X83185359Y-64100000D01*
X83167963Y-64276627D01*
X83116443Y-64446466D01*
X83032778Y-64602991D01*
X83012111Y-64628174D01*
X82920186Y-64740186D01*
X82818729Y-64823448D01*
X82782991Y-64852778D01*
X82626466Y-64936443D01*
X82456627Y-64987963D01*
X82390443Y-64994481D01*
X82324260Y-65001000D01*
X82235740Y-65001000D01*
X82169557Y-64994481D01*
X82103373Y-64987963D01*
X81933534Y-64936443D01*
X81777009Y-64852778D01*
X81741271Y-64823448D01*
X81639814Y-64740186D01*
X81547889Y-64628174D01*
X81527222Y-64602991D01*
X81443557Y-64446466D01*
X81392037Y-64276627D01*
X81374641Y-64100000D01*
X81392037Y-63923373D01*
X81443557Y-63753534D01*
X81527222Y-63597009D01*
X81556552Y-63561271D01*
X81639814Y-63459814D01*
X81741271Y-63376552D01*
X81777009Y-63347222D01*
X81933534Y-63263557D01*
X82103373Y-63212037D01*
X82169558Y-63205518D01*
X82235740Y-63199000D01*
X82324260Y-63199000D01*
X82390442Y-63205518D01*
X82390442Y-63205518D01*
G37*
G36*
X84930442Y-63205518D02*
G01*
X84996627Y-63212037D01*
X85166466Y-63263557D01*
X85322991Y-63347222D01*
X85358729Y-63376552D01*
X85460186Y-63459814D01*
X85543448Y-63561271D01*
X85572778Y-63597009D01*
X85656443Y-63753534D01*
X85707963Y-63923373D01*
X85725359Y-64100000D01*
X85707963Y-64276627D01*
X85656443Y-64446466D01*
X85572778Y-64602991D01*
X85552111Y-64628174D01*
X85460186Y-64740186D01*
X85358729Y-64823448D01*
X85322991Y-64852778D01*
X85166466Y-64936443D01*
X84996627Y-64987963D01*
X84930443Y-64994481D01*
X84864260Y-65001000D01*
X84775740Y-65001000D01*
X84709557Y-64994481D01*
X84643373Y-64987963D01*
X84473534Y-64936443D01*
X84317009Y-64852778D01*
X84281271Y-64823448D01*
X84179814Y-64740186D01*
X84087889Y-64628174D01*
X84067222Y-64602991D01*
X83983557Y-64446466D01*
X83932037Y-64276627D01*
X83914641Y-64100000D01*
X83932037Y-63923373D01*
X83983557Y-63753534D01*
X84067222Y-63597009D01*
X84096552Y-63561271D01*
X84179814Y-63459814D01*
X84281271Y-63376552D01*
X84317009Y-63347222D01*
X84473534Y-63263557D01*
X84643373Y-63212037D01*
X84709558Y-63205518D01*
X84775740Y-63199000D01*
X84864260Y-63199000D01*
X84930442Y-63205518D01*
X84930442Y-63205518D01*
G37*
G36*
X74770442Y-63205518D02*
G01*
X74836627Y-63212037D01*
X75006466Y-63263557D01*
X75162991Y-63347222D01*
X75198729Y-63376552D01*
X75300186Y-63459814D01*
X75383448Y-63561271D01*
X75412778Y-63597009D01*
X75496443Y-63753534D01*
X75547963Y-63923373D01*
X75565359Y-64100000D01*
X75547963Y-64276627D01*
X75496443Y-64446466D01*
X75412778Y-64602991D01*
X75392111Y-64628174D01*
X75300186Y-64740186D01*
X75198729Y-64823448D01*
X75162991Y-64852778D01*
X75006466Y-64936443D01*
X74836627Y-64987963D01*
X74770443Y-64994481D01*
X74704260Y-65001000D01*
X74615740Y-65001000D01*
X74549557Y-64994481D01*
X74483373Y-64987963D01*
X74313534Y-64936443D01*
X74157009Y-64852778D01*
X74121271Y-64823448D01*
X74019814Y-64740186D01*
X73927889Y-64628174D01*
X73907222Y-64602991D01*
X73823557Y-64446466D01*
X73772037Y-64276627D01*
X73754641Y-64100000D01*
X73772037Y-63923373D01*
X73823557Y-63753534D01*
X73907222Y-63597009D01*
X73936552Y-63561271D01*
X74019814Y-63459814D01*
X74121271Y-63376552D01*
X74157009Y-63347222D01*
X74313534Y-63263557D01*
X74483373Y-63212037D01*
X74549558Y-63205518D01*
X74615740Y-63199000D01*
X74704260Y-63199000D01*
X74770442Y-63205518D01*
X74770442Y-63205518D01*
G37*
G36*
X70481000Y-65001000D02*
G01*
X68679000Y-65001000D01*
X68679000Y-63199000D01*
X70481000Y-63199000D01*
X70481000Y-65001000D01*
X70481000Y-65001000D01*
G37*
G36*
X77310442Y-63205518D02*
G01*
X77376627Y-63212037D01*
X77546466Y-63263557D01*
X77702991Y-63347222D01*
X77738729Y-63376552D01*
X77840186Y-63459814D01*
X77923448Y-63561271D01*
X77952778Y-63597009D01*
X78036443Y-63753534D01*
X78087963Y-63923373D01*
X78105359Y-64100000D01*
X78087963Y-64276627D01*
X78036443Y-64446466D01*
X77952778Y-64602991D01*
X77932111Y-64628174D01*
X77840186Y-64740186D01*
X77738729Y-64823448D01*
X77702991Y-64852778D01*
X77546466Y-64936443D01*
X77376627Y-64987963D01*
X77310443Y-64994481D01*
X77244260Y-65001000D01*
X77155740Y-65001000D01*
X77089557Y-64994481D01*
X77023373Y-64987963D01*
X76853534Y-64936443D01*
X76697009Y-64852778D01*
X76661271Y-64823448D01*
X76559814Y-64740186D01*
X76467889Y-64628174D01*
X76447222Y-64602991D01*
X76363557Y-64446466D01*
X76312037Y-64276627D01*
X76294641Y-64100000D01*
X76312037Y-63923373D01*
X76363557Y-63753534D01*
X76447222Y-63597009D01*
X76476552Y-63561271D01*
X76559814Y-63459814D01*
X76661271Y-63376552D01*
X76697009Y-63347222D01*
X76853534Y-63263557D01*
X77023373Y-63212037D01*
X77089558Y-63205518D01*
X77155740Y-63199000D01*
X77244260Y-63199000D01*
X77310442Y-63205518D01*
X77310442Y-63205518D01*
G37*
G36*
X79850442Y-63205518D02*
G01*
X79916627Y-63212037D01*
X80086466Y-63263557D01*
X80242991Y-63347222D01*
X80278729Y-63376552D01*
X80380186Y-63459814D01*
X80463448Y-63561271D01*
X80492778Y-63597009D01*
X80576443Y-63753534D01*
X80627963Y-63923373D01*
X80645359Y-64100000D01*
X80627963Y-64276627D01*
X80576443Y-64446466D01*
X80492778Y-64602991D01*
X80472111Y-64628174D01*
X80380186Y-64740186D01*
X80278729Y-64823448D01*
X80242991Y-64852778D01*
X80086466Y-64936443D01*
X79916627Y-64987963D01*
X79850443Y-64994481D01*
X79784260Y-65001000D01*
X79695740Y-65001000D01*
X79629557Y-64994481D01*
X79563373Y-64987963D01*
X79393534Y-64936443D01*
X79237009Y-64852778D01*
X79201271Y-64823448D01*
X79099814Y-64740186D01*
X79007889Y-64628174D01*
X78987222Y-64602991D01*
X78903557Y-64446466D01*
X78852037Y-64276627D01*
X78834641Y-64100000D01*
X78852037Y-63923373D01*
X78903557Y-63753534D01*
X78987222Y-63597009D01*
X79016552Y-63561271D01*
X79099814Y-63459814D01*
X79201271Y-63376552D01*
X79237009Y-63347222D01*
X79393534Y-63263557D01*
X79563373Y-63212037D01*
X79629558Y-63205518D01*
X79695740Y-63199000D01*
X79784260Y-63199000D01*
X79850442Y-63205518D01*
X79850442Y-63205518D01*
G37*
G36*
X72230442Y-63205518D02*
G01*
X72296627Y-63212037D01*
X72466466Y-63263557D01*
X72622991Y-63347222D01*
X72658729Y-63376552D01*
X72760186Y-63459814D01*
X72843448Y-63561271D01*
X72872778Y-63597009D01*
X72956443Y-63753534D01*
X73007963Y-63923373D01*
X73025359Y-64100000D01*
X73007963Y-64276627D01*
X72956443Y-64446466D01*
X72872778Y-64602991D01*
X72852111Y-64628174D01*
X72760186Y-64740186D01*
X72658729Y-64823448D01*
X72622991Y-64852778D01*
X72466466Y-64936443D01*
X72296627Y-64987963D01*
X72230443Y-64994481D01*
X72164260Y-65001000D01*
X72075740Y-65001000D01*
X72009557Y-64994481D01*
X71943373Y-64987963D01*
X71773534Y-64936443D01*
X71617009Y-64852778D01*
X71581271Y-64823448D01*
X71479814Y-64740186D01*
X71387889Y-64628174D01*
X71367222Y-64602991D01*
X71283557Y-64446466D01*
X71232037Y-64276627D01*
X71214641Y-64100000D01*
X71232037Y-63923373D01*
X71283557Y-63753534D01*
X71367222Y-63597009D01*
X71396552Y-63561271D01*
X71479814Y-63459814D01*
X71581271Y-63376552D01*
X71617009Y-63347222D01*
X71773534Y-63263557D01*
X71943373Y-63212037D01*
X72009558Y-63205518D01*
X72075740Y-63199000D01*
X72164260Y-63199000D01*
X72230442Y-63205518D01*
X72230442Y-63205518D01*
G37*
G36*
X55638843Y-63342292D02*
G01*
X55689588Y-63363311D01*
X55725470Y-63378174D01*
X55803432Y-63430267D01*
X55869733Y-63496568D01*
X55921826Y-63574530D01*
X55921826Y-63574531D01*
X55957708Y-63661157D01*
X55976000Y-63753117D01*
X55976000Y-63846883D01*
X55957708Y-63938843D01*
X55936689Y-63989588D01*
X55921826Y-64025470D01*
X55869733Y-64103432D01*
X55803432Y-64169733D01*
X55725470Y-64221826D01*
X55689588Y-64236689D01*
X55638843Y-64257708D01*
X55546883Y-64276000D01*
X55453117Y-64276000D01*
X55361157Y-64257708D01*
X55310412Y-64236689D01*
X55274530Y-64221826D01*
X55196568Y-64169733D01*
X55130267Y-64103432D01*
X55078174Y-64025470D01*
X55063311Y-63989588D01*
X55042292Y-63938843D01*
X55024000Y-63846883D01*
X55024000Y-63753117D01*
X55042292Y-63661157D01*
X55078174Y-63574531D01*
X55078174Y-63574530D01*
X55130267Y-63496568D01*
X55196568Y-63430267D01*
X55274530Y-63378174D01*
X55310412Y-63363311D01*
X55361157Y-63342292D01*
X55453117Y-63324000D01*
X55546883Y-63324000D01*
X55638843Y-63342292D01*
X55638843Y-63342292D01*
G37*
G36*
X55638843Y-62092292D02*
G01*
X55689588Y-62113311D01*
X55725470Y-62128174D01*
X55803432Y-62180267D01*
X55869733Y-62246568D01*
X55921826Y-62324530D01*
X55921826Y-62324531D01*
X55957708Y-62411157D01*
X55976000Y-62503117D01*
X55976000Y-62596883D01*
X55957708Y-62688843D01*
X55936689Y-62739588D01*
X55921826Y-62775470D01*
X55869733Y-62853432D01*
X55803432Y-62919733D01*
X55725470Y-62971826D01*
X55689588Y-62986689D01*
X55638843Y-63007708D01*
X55546883Y-63026000D01*
X55453117Y-63026000D01*
X55361157Y-63007708D01*
X55310412Y-62986689D01*
X55274530Y-62971826D01*
X55196568Y-62919733D01*
X55130267Y-62853432D01*
X55078174Y-62775470D01*
X55063311Y-62739588D01*
X55042292Y-62688843D01*
X55024000Y-62596883D01*
X55024000Y-62503117D01*
X55042292Y-62411157D01*
X55078174Y-62324531D01*
X55078174Y-62324530D01*
X55130267Y-62246568D01*
X55196568Y-62180267D01*
X55274530Y-62128174D01*
X55310412Y-62113311D01*
X55361157Y-62092292D01*
X55453117Y-62074000D01*
X55546883Y-62074000D01*
X55638843Y-62092292D01*
X55638843Y-62092292D01*
G37*
G36*
X55976000Y-57776000D02*
G01*
X55024000Y-57776000D01*
X55024000Y-56824000D01*
X55976000Y-56824000D01*
X55976000Y-57776000D01*
X55976000Y-57776000D01*
G37*
G36*
X55638843Y-55592292D02*
G01*
X55689588Y-55613311D01*
X55725470Y-55628174D01*
X55803432Y-55680267D01*
X55869733Y-55746568D01*
X55921826Y-55824530D01*
X55921826Y-55824531D01*
X55957708Y-55911157D01*
X55976000Y-56003117D01*
X55976000Y-56096883D01*
X55957708Y-56188843D01*
X55936689Y-56239588D01*
X55921826Y-56275470D01*
X55869733Y-56353432D01*
X55803432Y-56419733D01*
X55725470Y-56471826D01*
X55689588Y-56486689D01*
X55638843Y-56507708D01*
X55546883Y-56526000D01*
X55453117Y-56526000D01*
X55361157Y-56507708D01*
X55310412Y-56486689D01*
X55274530Y-56471826D01*
X55196568Y-56419733D01*
X55130267Y-56353432D01*
X55078174Y-56275470D01*
X55063311Y-56239588D01*
X55042292Y-56188843D01*
X55024000Y-56096883D01*
X55024000Y-56003117D01*
X55042292Y-55911157D01*
X55078174Y-55824531D01*
X55078174Y-55824530D01*
X55130267Y-55746568D01*
X55196568Y-55680267D01*
X55274530Y-55628174D01*
X55310412Y-55613311D01*
X55361157Y-55592292D01*
X55453117Y-55574000D01*
X55546883Y-55574000D01*
X55638843Y-55592292D01*
X55638843Y-55592292D01*
G37*
G36*
X55638843Y-54342292D02*
G01*
X55689588Y-54363311D01*
X55725470Y-54378174D01*
X55803432Y-54430267D01*
X55869733Y-54496568D01*
X55921826Y-54574530D01*
X55921826Y-54574531D01*
X55957708Y-54661157D01*
X55976000Y-54753117D01*
X55976000Y-54846883D01*
X55957708Y-54938843D01*
X55936689Y-54989588D01*
X55921826Y-55025470D01*
X55869733Y-55103432D01*
X55803432Y-55169733D01*
X55725470Y-55221826D01*
X55689588Y-55236689D01*
X55638843Y-55257708D01*
X55546883Y-55276000D01*
X55453117Y-55276000D01*
X55361157Y-55257708D01*
X55310412Y-55236689D01*
X55274530Y-55221826D01*
X55196568Y-55169733D01*
X55130267Y-55103432D01*
X55078174Y-55025470D01*
X55063311Y-54989588D01*
X55042292Y-54938843D01*
X55024000Y-54846883D01*
X55024000Y-54753117D01*
X55042292Y-54661157D01*
X55078174Y-54574531D01*
X55078174Y-54574530D01*
X55130267Y-54496568D01*
X55196568Y-54430267D01*
X55274530Y-54378174D01*
X55310412Y-54363311D01*
X55361157Y-54342292D01*
X55453117Y-54324000D01*
X55546883Y-54324000D01*
X55638843Y-54342292D01*
X55638843Y-54342292D01*
G37*
G36*
X55638843Y-53092292D02*
G01*
X55689588Y-53113311D01*
X55725470Y-53128174D01*
X55803432Y-53180267D01*
X55869733Y-53246568D01*
X55921826Y-53324530D01*
X55921826Y-53324531D01*
X55957708Y-53411157D01*
X55976000Y-53503117D01*
X55976000Y-53596883D01*
X55957708Y-53688843D01*
X55936689Y-53739588D01*
X55921826Y-53775470D01*
X55869733Y-53853432D01*
X55803432Y-53919733D01*
X55725470Y-53971826D01*
X55689588Y-53986689D01*
X55638843Y-54007708D01*
X55546883Y-54026000D01*
X55453117Y-54026000D01*
X55361157Y-54007708D01*
X55310412Y-53986689D01*
X55274530Y-53971826D01*
X55196568Y-53919733D01*
X55130267Y-53853432D01*
X55078174Y-53775470D01*
X55063311Y-53739588D01*
X55042292Y-53688843D01*
X55024000Y-53596883D01*
X55024000Y-53503117D01*
X55042292Y-53411157D01*
X55078174Y-53324531D01*
X55078174Y-53324530D01*
X55130267Y-53246568D01*
X55196568Y-53180267D01*
X55274530Y-53128174D01*
X55310412Y-53113311D01*
X55361157Y-53092292D01*
X55453117Y-53074000D01*
X55546883Y-53074000D01*
X55638843Y-53092292D01*
X55638843Y-53092292D01*
G37*
G36*
X55638843Y-51842292D02*
G01*
X55689588Y-51863311D01*
X55725470Y-51878174D01*
X55803432Y-51930267D01*
X55869733Y-51996568D01*
X55921826Y-52074530D01*
X55921826Y-52074531D01*
X55957708Y-52161157D01*
X55976000Y-52253117D01*
X55976000Y-52346883D01*
X55957708Y-52438843D01*
X55936689Y-52489588D01*
X55921826Y-52525470D01*
X55869733Y-52603432D01*
X55803432Y-52669733D01*
X55725470Y-52721826D01*
X55689588Y-52736689D01*
X55638843Y-52757708D01*
X55546883Y-52776000D01*
X55453117Y-52776000D01*
X55361157Y-52757708D01*
X55310412Y-52736689D01*
X55274530Y-52721826D01*
X55196568Y-52669733D01*
X55130267Y-52603432D01*
X55078174Y-52525470D01*
X55063311Y-52489588D01*
X55042292Y-52438843D01*
X55024000Y-52346883D01*
X55024000Y-52253117D01*
X55042292Y-52161157D01*
X55078174Y-52074531D01*
X55078174Y-52074530D01*
X55130267Y-51996568D01*
X55196568Y-51930267D01*
X55274530Y-51878174D01*
X55310412Y-51863311D01*
X55361157Y-51842292D01*
X55453117Y-51824000D01*
X55546883Y-51824000D01*
X55638843Y-51842292D01*
X55638843Y-51842292D01*
G37*
G36*
X55638843Y-50592292D02*
G01*
X55689588Y-50613311D01*
X55725470Y-50628174D01*
X55803432Y-50680267D01*
X55869733Y-50746568D01*
X55921826Y-50824530D01*
X55921826Y-50824531D01*
X55957708Y-50911157D01*
X55976000Y-51003117D01*
X55976000Y-51096883D01*
X55957708Y-51188843D01*
X55936689Y-51239588D01*
X55921826Y-51275470D01*
X55869733Y-51353432D01*
X55803432Y-51419733D01*
X55725470Y-51471826D01*
X55689588Y-51486689D01*
X55638843Y-51507708D01*
X55546883Y-51526000D01*
X55453117Y-51526000D01*
X55361157Y-51507708D01*
X55310412Y-51486689D01*
X55274530Y-51471826D01*
X55196568Y-51419733D01*
X55130267Y-51353432D01*
X55078174Y-51275470D01*
X55063311Y-51239588D01*
X55042292Y-51188843D01*
X55024000Y-51096883D01*
X55024000Y-51003117D01*
X55042292Y-50911157D01*
X55078174Y-50824531D01*
X55078174Y-50824530D01*
X55130267Y-50746568D01*
X55196568Y-50680267D01*
X55274530Y-50628174D01*
X55310412Y-50613311D01*
X55361157Y-50592292D01*
X55453117Y-50574000D01*
X55546883Y-50574000D01*
X55638843Y-50592292D01*
X55638843Y-50592292D01*
G37*
G36*
X43004098Y-41657033D02*
G01*
X43422127Y-41830186D01*
X43468352Y-41849333D01*
X43886168Y-42128509D01*
X44241491Y-42483832D01*
X44455041Y-42803432D01*
X44520668Y-42901650D01*
X44712967Y-43365902D01*
X44811000Y-43858747D01*
X44811000Y-44361253D01*
X44712967Y-44854098D01*
X44520668Y-45318350D01*
X44520667Y-45318352D01*
X44241491Y-45736168D01*
X43886168Y-46091491D01*
X43468352Y-46370667D01*
X43468351Y-46370668D01*
X43468350Y-46370668D01*
X43004098Y-46562967D01*
X42511253Y-46661000D01*
X42008747Y-46661000D01*
X41515902Y-46562967D01*
X41051650Y-46370668D01*
X41051649Y-46370668D01*
X41051648Y-46370667D01*
X40633832Y-46091491D01*
X40278509Y-45736168D01*
X39999333Y-45318352D01*
X39999332Y-45318350D01*
X39807033Y-44854098D01*
X39709000Y-44361253D01*
X39709000Y-43858747D01*
X39807033Y-43365902D01*
X39999332Y-42901650D01*
X40064959Y-42803432D01*
X40278509Y-42483832D01*
X40633832Y-42128509D01*
X41051648Y-41849333D01*
X41097873Y-41830186D01*
X41515902Y-41657033D01*
X42008747Y-41559000D01*
X42511253Y-41559000D01*
X43004098Y-41657033D01*
X43004098Y-41657033D01*
G37*
G36*
X134604098Y-41657033D02*
G01*
X135022127Y-41830186D01*
X135068352Y-41849333D01*
X135486168Y-42128509D01*
X135841491Y-42483832D01*
X136055041Y-42803432D01*
X136120668Y-42901650D01*
X136312967Y-43365902D01*
X136411000Y-43858747D01*
X136411000Y-44361253D01*
X136312967Y-44854098D01*
X136120668Y-45318350D01*
X136120667Y-45318352D01*
X135841491Y-45736168D01*
X135486168Y-46091491D01*
X135068352Y-46370667D01*
X135068351Y-46370668D01*
X135068350Y-46370668D01*
X134604098Y-46562967D01*
X134111253Y-46661000D01*
X133608747Y-46661000D01*
X133115902Y-46562967D01*
X132651650Y-46370668D01*
X132651649Y-46370668D01*
X132651648Y-46370667D01*
X132233832Y-46091491D01*
X131878509Y-45736168D01*
X131599333Y-45318352D01*
X131599332Y-45318350D01*
X131407033Y-44854098D01*
X131309000Y-44361253D01*
X131309000Y-43858747D01*
X131407033Y-43365902D01*
X131599332Y-42901650D01*
X131664959Y-42803432D01*
X131878509Y-42483832D01*
X132233832Y-42128509D01*
X132651648Y-41849333D01*
X132697873Y-41830186D01*
X133115902Y-41657033D01*
X133608747Y-41559000D01*
X134111253Y-41559000D01*
X134604098Y-41657033D01*
X134604098Y-41657033D01*
G37*
G36*
X120138843Y-42042292D02*
G01*
X120189588Y-42063311D01*
X120225470Y-42078174D01*
X120303432Y-42130267D01*
X120369733Y-42196568D01*
X120421826Y-42274530D01*
X120421826Y-42274531D01*
X120457708Y-42361157D01*
X120476000Y-42453117D01*
X120476000Y-42546883D01*
X120457708Y-42638843D01*
X120436689Y-42689588D01*
X120421826Y-42725470D01*
X120369733Y-42803432D01*
X120303432Y-42869733D01*
X120225470Y-42921826D01*
X120189588Y-42936689D01*
X120138843Y-42957708D01*
X120046883Y-42976000D01*
X119953117Y-42976000D01*
X119861157Y-42957708D01*
X119810412Y-42936689D01*
X119774530Y-42921826D01*
X119696568Y-42869733D01*
X119630267Y-42803432D01*
X119578174Y-42725470D01*
X119563311Y-42689588D01*
X119542292Y-42638843D01*
X119524000Y-42546883D01*
X119524000Y-42453117D01*
X119542292Y-42361157D01*
X119578174Y-42274531D01*
X119578174Y-42274530D01*
X119630267Y-42196568D01*
X119696568Y-42130267D01*
X119774530Y-42078174D01*
X119810412Y-42063311D01*
X119861157Y-42042292D01*
X119953117Y-42024000D01*
X120046883Y-42024000D01*
X120138843Y-42042292D01*
X120138843Y-42042292D01*
G37*
G36*
X117976000Y-42976000D02*
G01*
X117024000Y-42976000D01*
X117024000Y-42024000D01*
X117976000Y-42024000D01*
X117976000Y-42976000D01*
X117976000Y-42976000D01*
G37*
G36*
X121388843Y-42042292D02*
G01*
X121439588Y-42063311D01*
X121475470Y-42078174D01*
X121553432Y-42130267D01*
X121619733Y-42196568D01*
X121671826Y-42274530D01*
X121671826Y-42274531D01*
X121707708Y-42361157D01*
X121726000Y-42453117D01*
X121726000Y-42546883D01*
X121707708Y-42638843D01*
X121686689Y-42689588D01*
X121671826Y-42725470D01*
X121619733Y-42803432D01*
X121553432Y-42869733D01*
X121475470Y-42921826D01*
X121439588Y-42936689D01*
X121388843Y-42957708D01*
X121296883Y-42976000D01*
X121203117Y-42976000D01*
X121111157Y-42957708D01*
X121060412Y-42936689D01*
X121024530Y-42921826D01*
X120946568Y-42869733D01*
X120880267Y-42803432D01*
X120828174Y-42725470D01*
X120813311Y-42689588D01*
X120792292Y-42638843D01*
X120774000Y-42546883D01*
X120774000Y-42453117D01*
X120792292Y-42361157D01*
X120828174Y-42274531D01*
X120828174Y-42274530D01*
X120880267Y-42196568D01*
X120946568Y-42130267D01*
X121024530Y-42078174D01*
X121060412Y-42063311D01*
X121111157Y-42042292D01*
X121203117Y-42024000D01*
X121296883Y-42024000D01*
X121388843Y-42042292D01*
X121388843Y-42042292D01*
G37*
G36*
X118888843Y-42042292D02*
G01*
X118939588Y-42063311D01*
X118975470Y-42078174D01*
X119053432Y-42130267D01*
X119119733Y-42196568D01*
X119171826Y-42274530D01*
X119171826Y-42274531D01*
X119207708Y-42361157D01*
X119226000Y-42453117D01*
X119226000Y-42546883D01*
X119207708Y-42638843D01*
X119186689Y-42689588D01*
X119171826Y-42725470D01*
X119119733Y-42803432D01*
X119053432Y-42869733D01*
X118975470Y-42921826D01*
X118939588Y-42936689D01*
X118888843Y-42957708D01*
X118796883Y-42976000D01*
X118703117Y-42976000D01*
X118611157Y-42957708D01*
X118560412Y-42936689D01*
X118524530Y-42921826D01*
X118446568Y-42869733D01*
X118380267Y-42803432D01*
X118328174Y-42725470D01*
X118313311Y-42689588D01*
X118292292Y-42638843D01*
X118274000Y-42546883D01*
X118274000Y-42453117D01*
X118292292Y-42361157D01*
X118328174Y-42274531D01*
X118328174Y-42274530D01*
X118380267Y-42196568D01*
X118446568Y-42130267D01*
X118524530Y-42078174D01*
X118560412Y-42063311D01*
X118611157Y-42042292D01*
X118703117Y-42024000D01*
X118796883Y-42024000D01*
X118888843Y-42042292D01*
X118888843Y-42042292D01*
G37*
G36*
X69710442Y-40295518D02*
G01*
X69776627Y-40302037D01*
X69946466Y-40353557D01*
X70102991Y-40437222D01*
X70138729Y-40466552D01*
X70240186Y-40549814D01*
X70323448Y-40651271D01*
X70352778Y-40687009D01*
X70436443Y-40843534D01*
X70487963Y-41013373D01*
X70505359Y-41190000D01*
X70487963Y-41366627D01*
X70436443Y-41536466D01*
X70352778Y-41692991D01*
X70323448Y-41728729D01*
X70240186Y-41830186D01*
X70138729Y-41913448D01*
X70102991Y-41942778D01*
X70102989Y-41942779D01*
X69951037Y-42024000D01*
X69946466Y-42026443D01*
X69776627Y-42077963D01*
X69710442Y-42084482D01*
X69644260Y-42091000D01*
X69555740Y-42091000D01*
X69489558Y-42084482D01*
X69423373Y-42077963D01*
X69253534Y-42026443D01*
X69248964Y-42024000D01*
X69097011Y-41942779D01*
X69097009Y-41942778D01*
X69061271Y-41913448D01*
X68959814Y-41830186D01*
X68876552Y-41728729D01*
X68847222Y-41692991D01*
X68763557Y-41536466D01*
X68712037Y-41366627D01*
X68694641Y-41190000D01*
X68712037Y-41013373D01*
X68763557Y-40843534D01*
X68847222Y-40687009D01*
X68876552Y-40651271D01*
X68959814Y-40549814D01*
X69061271Y-40466552D01*
X69097009Y-40437222D01*
X69253534Y-40353557D01*
X69423373Y-40302037D01*
X69489558Y-40295518D01*
X69555740Y-40289000D01*
X69644260Y-40289000D01*
X69710442Y-40295518D01*
X69710442Y-40295518D01*
G37*
G36*
X72250442Y-40295518D02*
G01*
X72316627Y-40302037D01*
X72486466Y-40353557D01*
X72642991Y-40437222D01*
X72678729Y-40466552D01*
X72780186Y-40549814D01*
X72863448Y-40651271D01*
X72892778Y-40687009D01*
X72976443Y-40843534D01*
X73027963Y-41013373D01*
X73045359Y-41190000D01*
X73027963Y-41366627D01*
X72976443Y-41536466D01*
X72892778Y-41692991D01*
X72863448Y-41728729D01*
X72780186Y-41830186D01*
X72678729Y-41913448D01*
X72642991Y-41942778D01*
X72642989Y-41942779D01*
X72491037Y-42024000D01*
X72486466Y-42026443D01*
X72316627Y-42077963D01*
X72250442Y-42084482D01*
X72184260Y-42091000D01*
X72095740Y-42091000D01*
X72029558Y-42084482D01*
X71963373Y-42077963D01*
X71793534Y-42026443D01*
X71788964Y-42024000D01*
X71637011Y-41942779D01*
X71637009Y-41942778D01*
X71601271Y-41913448D01*
X71499814Y-41830186D01*
X71416552Y-41728729D01*
X71387222Y-41692991D01*
X71303557Y-41536466D01*
X71252037Y-41366627D01*
X71234641Y-41190000D01*
X71252037Y-41013373D01*
X71303557Y-40843534D01*
X71387222Y-40687009D01*
X71416552Y-40651271D01*
X71499814Y-40549814D01*
X71601271Y-40466552D01*
X71637009Y-40437222D01*
X71793534Y-40353557D01*
X71963373Y-40302037D01*
X72029558Y-40295518D01*
X72095740Y-40289000D01*
X72184260Y-40289000D01*
X72250442Y-40295518D01*
X72250442Y-40295518D01*
G37*
G36*
X74790442Y-40295518D02*
G01*
X74856627Y-40302037D01*
X75026466Y-40353557D01*
X75182991Y-40437222D01*
X75218729Y-40466552D01*
X75320186Y-40549814D01*
X75403448Y-40651271D01*
X75432778Y-40687009D01*
X75516443Y-40843534D01*
X75567963Y-41013373D01*
X75585359Y-41190000D01*
X75567963Y-41366627D01*
X75516443Y-41536466D01*
X75432778Y-41692991D01*
X75403448Y-41728729D01*
X75320186Y-41830186D01*
X75218729Y-41913448D01*
X75182991Y-41942778D01*
X75182989Y-41942779D01*
X75031037Y-42024000D01*
X75026466Y-42026443D01*
X74856627Y-42077963D01*
X74790442Y-42084482D01*
X74724260Y-42091000D01*
X74635740Y-42091000D01*
X74569558Y-42084482D01*
X74503373Y-42077963D01*
X74333534Y-42026443D01*
X74328964Y-42024000D01*
X74177011Y-41942779D01*
X74177009Y-41942778D01*
X74141271Y-41913448D01*
X74039814Y-41830186D01*
X73956552Y-41728729D01*
X73927222Y-41692991D01*
X73843557Y-41536466D01*
X73792037Y-41366627D01*
X73774641Y-41190000D01*
X73792037Y-41013373D01*
X73843557Y-40843534D01*
X73927222Y-40687009D01*
X73956552Y-40651271D01*
X74039814Y-40549814D01*
X74141271Y-40466552D01*
X74177009Y-40437222D01*
X74333534Y-40353557D01*
X74503373Y-40302037D01*
X74569558Y-40295518D01*
X74635740Y-40289000D01*
X74724260Y-40289000D01*
X74790442Y-40295518D01*
X74790442Y-40295518D01*
G37*
G36*
X85741000Y-42091000D02*
G01*
X83939000Y-42091000D01*
X83939000Y-40289000D01*
X85741000Y-40289000D01*
X85741000Y-42091000D01*
X85741000Y-42091000D01*
G37*
G36*
X77330442Y-40295518D02*
G01*
X77396627Y-40302037D01*
X77566466Y-40353557D01*
X77722991Y-40437222D01*
X77758729Y-40466552D01*
X77860186Y-40549814D01*
X77943448Y-40651271D01*
X77972778Y-40687009D01*
X78056443Y-40843534D01*
X78107963Y-41013373D01*
X78125359Y-41190000D01*
X78107963Y-41366627D01*
X78056443Y-41536466D01*
X77972778Y-41692991D01*
X77943448Y-41728729D01*
X77860186Y-41830186D01*
X77758729Y-41913448D01*
X77722991Y-41942778D01*
X77722989Y-41942779D01*
X77571037Y-42024000D01*
X77566466Y-42026443D01*
X77396627Y-42077963D01*
X77330442Y-42084482D01*
X77264260Y-42091000D01*
X77175740Y-42091000D01*
X77109558Y-42084482D01*
X77043373Y-42077963D01*
X76873534Y-42026443D01*
X76868964Y-42024000D01*
X76717011Y-41942779D01*
X76717009Y-41942778D01*
X76681271Y-41913448D01*
X76579814Y-41830186D01*
X76496552Y-41728729D01*
X76467222Y-41692991D01*
X76383557Y-41536466D01*
X76332037Y-41366627D01*
X76314641Y-41190000D01*
X76332037Y-41013373D01*
X76383557Y-40843534D01*
X76467222Y-40687009D01*
X76496552Y-40651271D01*
X76579814Y-40549814D01*
X76681271Y-40466552D01*
X76717009Y-40437222D01*
X76873534Y-40353557D01*
X77043373Y-40302037D01*
X77109558Y-40295518D01*
X77175740Y-40289000D01*
X77264260Y-40289000D01*
X77330442Y-40295518D01*
X77330442Y-40295518D01*
G37*
G36*
X79870442Y-40295518D02*
G01*
X79936627Y-40302037D01*
X80106466Y-40353557D01*
X80262991Y-40437222D01*
X80298729Y-40466552D01*
X80400186Y-40549814D01*
X80483448Y-40651271D01*
X80512778Y-40687009D01*
X80596443Y-40843534D01*
X80647963Y-41013373D01*
X80665359Y-41190000D01*
X80647963Y-41366627D01*
X80596443Y-41536466D01*
X80512778Y-41692991D01*
X80483448Y-41728729D01*
X80400186Y-41830186D01*
X80298729Y-41913448D01*
X80262991Y-41942778D01*
X80262989Y-41942779D01*
X80111037Y-42024000D01*
X80106466Y-42026443D01*
X79936627Y-42077963D01*
X79870442Y-42084482D01*
X79804260Y-42091000D01*
X79715740Y-42091000D01*
X79649558Y-42084482D01*
X79583373Y-42077963D01*
X79413534Y-42026443D01*
X79408964Y-42024000D01*
X79257011Y-41942779D01*
X79257009Y-41942778D01*
X79221271Y-41913448D01*
X79119814Y-41830186D01*
X79036552Y-41728729D01*
X79007222Y-41692991D01*
X78923557Y-41536466D01*
X78872037Y-41366627D01*
X78854641Y-41190000D01*
X78872037Y-41013373D01*
X78923557Y-40843534D01*
X79007222Y-40687009D01*
X79036552Y-40651271D01*
X79119814Y-40549814D01*
X79221271Y-40466552D01*
X79257009Y-40437222D01*
X79413534Y-40353557D01*
X79583373Y-40302037D01*
X79649558Y-40295518D01*
X79715740Y-40289000D01*
X79804260Y-40289000D01*
X79870442Y-40295518D01*
X79870442Y-40295518D01*
G37*
G36*
X82410442Y-40295518D02*
G01*
X82476627Y-40302037D01*
X82646466Y-40353557D01*
X82802991Y-40437222D01*
X82838729Y-40466552D01*
X82940186Y-40549814D01*
X83023448Y-40651271D01*
X83052778Y-40687009D01*
X83136443Y-40843534D01*
X83187963Y-41013373D01*
X83205359Y-41190000D01*
X83187963Y-41366627D01*
X83136443Y-41536466D01*
X83052778Y-41692991D01*
X83023448Y-41728729D01*
X82940186Y-41830186D01*
X82838729Y-41913448D01*
X82802991Y-41942778D01*
X82802989Y-41942779D01*
X82651037Y-42024000D01*
X82646466Y-42026443D01*
X82476627Y-42077963D01*
X82410442Y-42084482D01*
X82344260Y-42091000D01*
X82255740Y-42091000D01*
X82189558Y-42084482D01*
X82123373Y-42077963D01*
X81953534Y-42026443D01*
X81948964Y-42024000D01*
X81797011Y-41942779D01*
X81797009Y-41942778D01*
X81761271Y-41913448D01*
X81659814Y-41830186D01*
X81576552Y-41728729D01*
X81547222Y-41692991D01*
X81463557Y-41536466D01*
X81412037Y-41366627D01*
X81394641Y-41190000D01*
X81412037Y-41013373D01*
X81463557Y-40843534D01*
X81547222Y-40687009D01*
X81576552Y-40651271D01*
X81659814Y-40549814D01*
X81761271Y-40466552D01*
X81797009Y-40437222D01*
X81953534Y-40353557D01*
X82123373Y-40302037D01*
X82189558Y-40295518D01*
X82255740Y-40289000D01*
X82344260Y-40289000D01*
X82410442Y-40295518D01*
X82410442Y-40295518D01*
G37*
M02*
