G04 #@! TF.GenerationSoftware,KiCad,Pcbnew,(5.1.2)-2*
G04 #@! TF.CreationDate,2021-05-04T12:01:07-04:00*
G04 #@! TF.ProjectId,Magnetometer_A,4d61676e-6574-46f6-9d65-7465725f412e,rev?*
G04 #@! TF.SameCoordinates,Original*
G04 #@! TF.FileFunction,Copper,L1,Top*
G04 #@! TF.FilePolarity,Positive*
%FSLAX46Y46*%
G04 Gerber Fmt 4.6, Leading zero omitted, Abs format (unit mm)*
G04 Created by KiCad (PCBNEW (5.1.2)-2) date 2021-05-04 12:01:07*
%MOMM*%
%LPD*%
G04 APERTURE LIST*
%ADD10C,5.000000*%
%ADD11R,0.600000X0.500000*%
%ADD12R,0.850000X0.850000*%
%ADD13C,0.850000*%
%ADD14R,1.500000X1.000000*%
%ADD15O,1.700000X1.700000*%
%ADD16R,1.700000X1.700000*%
%ADD17R,1.700000X2.000000*%
%ADD18C,0.800000*%
%ADD19C,0.250000*%
%ADD20C,0.254000*%
G04 APERTURE END LIST*
D10*
X42210000Y-105110000D03*
X42260000Y-44110000D03*
X133860000Y-105110000D03*
X133860000Y-44110000D03*
D11*
X107050000Y-106500000D03*
X105950000Y-106500000D03*
D12*
X117500000Y-107500000D03*
D13*
X118750000Y-107500000D03*
X120000000Y-107500000D03*
X121250000Y-107500000D03*
D12*
X117500000Y-42500000D03*
D13*
X118750000Y-42500000D03*
X120000000Y-42500000D03*
X121250000Y-42500000D03*
X55500000Y-89950000D03*
X55500000Y-91200000D03*
X55500000Y-92450000D03*
D12*
X55500000Y-93700000D03*
D14*
X73500000Y-97850000D03*
X73500000Y-99150000D03*
X73500000Y-88800000D03*
X73500000Y-87500000D03*
X73500000Y-86200000D03*
X69500000Y-92200000D03*
X69500000Y-93500000D03*
X69500000Y-94800000D03*
X73500000Y-94800000D03*
X73500000Y-93500000D03*
X73500000Y-92200000D03*
X69500000Y-97850000D03*
X69500000Y-99150000D03*
D15*
X69600000Y-41190000D03*
X72140000Y-41190000D03*
X74680000Y-41190000D03*
X77220000Y-41190000D03*
X79760000Y-41190000D03*
X82300000Y-41190000D03*
D16*
X84840000Y-41190000D03*
D14*
X69500000Y-88800000D03*
X69500000Y-87500000D03*
X69500000Y-86200000D03*
D15*
X84820000Y-64100000D03*
X82280000Y-64100000D03*
X79740000Y-64100000D03*
X77200000Y-64100000D03*
X74660000Y-64100000D03*
X72120000Y-64100000D03*
D16*
X69580000Y-64100000D03*
D14*
X77500000Y-94800000D03*
X77500000Y-93500000D03*
X77500000Y-92200000D03*
D12*
X55500000Y-57300000D03*
D13*
X55500000Y-56050000D03*
X55500000Y-54800000D03*
X55500000Y-53550000D03*
X55500000Y-52300000D03*
X55500000Y-51050000D03*
D15*
X78790000Y-81130000D03*
X76250000Y-81130000D03*
X73710000Y-81130000D03*
X71170000Y-81130000D03*
X68630000Y-81130000D03*
D16*
X66090000Y-81130000D03*
D13*
X55500000Y-62550000D03*
X55500000Y-63800000D03*
X55500000Y-65050000D03*
D12*
X55500000Y-66300000D03*
D17*
X106450000Y-103100000D03*
X106450000Y-99100000D03*
D12*
X54500000Y-98300000D03*
D13*
X54500000Y-99550000D03*
X54500000Y-100800000D03*
X54500000Y-102050000D03*
D18*
X109750000Y-104300000D03*
X65000000Y-86300000D03*
X72799996Y-90800000D03*
X68500000Y-90700000D03*
X51400000Y-82800000D03*
X52200000Y-82100000D03*
X76000000Y-87500000D03*
X71100000Y-90000000D03*
X74599998Y-90700000D03*
X67300000Y-86100000D03*
D19*
X109700000Y-104250000D02*
X109750000Y-104300000D01*
X109700000Y-100200000D02*
X109700000Y-104250000D01*
X106450000Y-99100000D02*
X108600000Y-99100000D01*
X108600000Y-99100000D02*
X109700000Y-100200000D01*
X106800000Y-99100000D02*
X106450000Y-99100000D01*
X108400000Y-100700000D02*
X106800000Y-99100000D01*
X108400000Y-105700000D02*
X108400000Y-105300000D01*
X107600000Y-106500000D02*
X108400000Y-105700000D01*
X107050000Y-106500000D02*
X107600000Y-106500000D01*
X108400000Y-105500000D02*
X108400000Y-105300000D01*
X108400000Y-105300000D02*
X108400000Y-100700000D01*
X66090000Y-82230000D02*
X66090000Y-81130000D01*
X66090000Y-81130000D02*
X66090000Y-81310000D01*
X67500000Y-88800000D02*
X69500000Y-88800000D01*
X65000000Y-86300000D02*
X67500000Y-88800000D01*
X56300000Y-52300000D02*
X55500000Y-52300000D01*
X54750000Y-65050000D02*
X53800000Y-64100000D01*
X53800000Y-64100000D02*
X53800000Y-62300000D01*
X53800000Y-62300000D02*
X58000000Y-58100000D01*
X55500000Y-65050000D02*
X54750000Y-65050000D01*
X58000000Y-58100000D02*
X58000000Y-54000000D01*
X58000000Y-54000000D02*
X56300000Y-52300000D01*
X118750000Y-42500000D02*
X118750000Y-107500000D01*
X106450000Y-104550000D02*
X106450000Y-103100000D01*
X101200000Y-109800000D02*
X106450000Y-104550000D01*
X68700000Y-109800000D02*
X101200000Y-109800000D01*
X54500000Y-99550000D02*
X58450000Y-99550000D01*
X58450000Y-99550000D02*
X68700000Y-109800000D01*
X66090000Y-81690000D02*
X66090000Y-82230000D01*
X66090000Y-80030000D02*
X66090000Y-81130000D01*
X69994999Y-79794999D02*
X69500000Y-79300000D01*
X66820000Y-79300000D02*
X66090000Y-80030000D01*
X69994999Y-82094999D02*
X69994999Y-79794999D01*
X77500000Y-89200000D02*
X78100000Y-88600000D01*
X77500000Y-92200000D02*
X77500000Y-89200000D01*
X69500000Y-79300000D02*
X66820000Y-79300000D01*
X78100000Y-88600000D02*
X78100000Y-86000000D01*
X78100000Y-86000000D02*
X75000000Y-82900000D01*
X75000000Y-82900000D02*
X70800000Y-82900000D01*
X70800000Y-82900000D02*
X69994999Y-82094999D01*
X72900000Y-88800000D02*
X73500000Y-88800000D01*
X66090000Y-82690000D02*
X67300000Y-83900000D01*
X66090000Y-82230000D02*
X66090000Y-82690000D01*
X67300000Y-83900000D02*
X69500000Y-83900000D01*
X69500000Y-83900000D02*
X71800000Y-86200000D01*
X71800000Y-86200000D02*
X71800000Y-87700000D01*
X71800000Y-87700000D02*
X72900000Y-88800000D01*
X101250000Y-111200000D02*
X105950000Y-106500000D01*
X68500000Y-111200000D02*
X101250000Y-111200000D01*
X54500000Y-100800000D02*
X58100000Y-100800000D01*
X58100000Y-100800000D02*
X68500000Y-111200000D01*
X67300000Y-94800000D02*
X69500000Y-94800000D01*
X63100000Y-90600000D02*
X67300000Y-94800000D01*
X63100000Y-82400000D02*
X63100000Y-90600000D01*
X56101040Y-54800000D02*
X57000000Y-55698960D01*
X55500000Y-54800000D02*
X56101040Y-54800000D01*
X57000000Y-55698960D02*
X57000000Y-58000000D01*
X57000000Y-58000000D02*
X53100000Y-61900000D01*
X53100000Y-61900000D02*
X53100000Y-72400000D01*
X53100000Y-72400000D02*
X63100000Y-82400000D01*
X73500000Y-92200000D02*
X73500000Y-91450000D01*
X73500000Y-91450000D02*
X72850000Y-90800000D01*
X72850000Y-90800000D02*
X72799996Y-90800000D01*
X121250000Y-107500000D02*
X121250000Y-42500000D01*
X120000000Y-107360002D02*
X120000000Y-107500000D01*
X120000000Y-42500000D02*
X120000000Y-107360002D01*
X69500000Y-92200000D02*
X69500000Y-91700000D01*
X69500000Y-91700000D02*
X68500000Y-90700000D01*
X71170000Y-77870000D02*
X71170000Y-81130000D01*
X71170000Y-73870000D02*
X71170000Y-77870000D01*
X55500000Y-62550000D02*
X59850000Y-62550000D01*
X59850000Y-62550000D02*
X71170000Y-73870000D01*
X73500000Y-99150000D02*
X73500000Y-99500000D01*
X73500000Y-100400000D02*
X73500000Y-99150000D01*
X71000000Y-102900000D02*
X73500000Y-100400000D01*
X67100000Y-102900000D02*
X71000000Y-102900000D01*
X59500000Y-95300000D02*
X67100000Y-102900000D01*
X51400000Y-82800000D02*
X59500000Y-90900000D01*
X59500000Y-90900000D02*
X59500000Y-95300000D01*
X73500000Y-95550000D02*
X73500000Y-94800000D01*
X60700000Y-90600000D02*
X60700000Y-94600000D01*
X71400000Y-97650000D02*
X73500000Y-95550000D01*
X60700000Y-94600000D02*
X67500000Y-101400000D01*
X67500000Y-101400000D02*
X70100000Y-101400000D01*
X70100000Y-101400000D02*
X71400000Y-100100000D01*
X52200000Y-82100000D02*
X60700000Y-90600000D01*
X71400000Y-100100000D02*
X71400000Y-97650000D01*
X54150000Y-53550000D02*
X55500000Y-53550000D01*
X67150000Y-99150000D02*
X61800000Y-93800000D01*
X69500000Y-99150000D02*
X67150000Y-99150000D01*
X61800000Y-93800000D02*
X61800000Y-90200000D01*
X61800000Y-90200000D02*
X51800000Y-80200000D01*
X51800000Y-80200000D02*
X51800000Y-55900000D01*
X51800000Y-55900000D02*
X54150000Y-53550000D01*
X73500000Y-87500000D02*
X76000000Y-87500000D01*
X74000000Y-87500000D02*
X73500000Y-87500000D01*
X75400000Y-88900000D02*
X74000000Y-87500000D01*
X75400000Y-96950000D02*
X75400000Y-88900000D01*
X73500000Y-97850000D02*
X74500000Y-97850000D01*
X74500000Y-97850000D02*
X75400000Y-96950000D01*
X71100000Y-92900000D02*
X71100000Y-90000000D01*
X69500000Y-93500000D02*
X70500000Y-93500000D01*
X70500000Y-93500000D02*
X71100000Y-92900000D01*
X74599998Y-93100002D02*
X74599998Y-91265685D01*
X74200000Y-93500000D02*
X74599998Y-93100002D01*
X74599998Y-91265685D02*
X74599998Y-90700000D01*
X69000000Y-87500000D02*
X69500000Y-87500000D01*
X68600000Y-87500000D02*
X69000000Y-87500000D01*
X67300000Y-86100000D02*
X67300000Y-86200000D01*
X67300000Y-86200000D02*
X68600000Y-87500000D01*
X69500000Y-97700000D02*
X69500000Y-97850000D01*
X71900000Y-95300000D02*
X69500000Y-97700000D01*
X71900000Y-89300000D02*
X71900000Y-95300000D01*
X69500000Y-87500000D02*
X70100000Y-87500000D01*
X70100000Y-87500000D02*
X71900000Y-89300000D01*
X78500000Y-93500000D02*
X82100000Y-89900000D01*
X77500000Y-93500000D02*
X78500000Y-93500000D01*
X82100000Y-89900000D02*
X82100000Y-73100000D01*
X74660000Y-65660000D02*
X74660000Y-64100000D01*
X82100000Y-73100000D02*
X74660000Y-65660000D01*
D20*
G36*
X136400000Y-42268527D02*
G01*
X136295114Y-42111554D01*
X135858446Y-41674886D01*
X135344979Y-41331799D01*
X134774446Y-41095476D01*
X134168771Y-40975000D01*
X133551229Y-40975000D01*
X132945554Y-41095476D01*
X132375021Y-41331799D01*
X131861554Y-41674886D01*
X131424886Y-42111554D01*
X131081799Y-42625021D01*
X130845476Y-43195554D01*
X130725000Y-43801229D01*
X130725000Y-44418771D01*
X130845476Y-45024446D01*
X131081799Y-45594979D01*
X131424886Y-46108446D01*
X131861554Y-46545114D01*
X132375021Y-46888201D01*
X132945554Y-47124524D01*
X133551229Y-47245000D01*
X134168771Y-47245000D01*
X134774446Y-47124524D01*
X135344979Y-46888201D01*
X135858446Y-46545114D01*
X136295114Y-46108446D01*
X136400000Y-45951472D01*
X136400001Y-103268529D01*
X136295114Y-103111554D01*
X135858446Y-102674886D01*
X135344979Y-102331799D01*
X134774446Y-102095476D01*
X134168771Y-101975000D01*
X133551229Y-101975000D01*
X132945554Y-102095476D01*
X132375021Y-102331799D01*
X131861554Y-102674886D01*
X131424886Y-103111554D01*
X131081799Y-103625021D01*
X130845476Y-104195554D01*
X130725000Y-104801229D01*
X130725000Y-105418771D01*
X130845476Y-106024446D01*
X131081799Y-106594979D01*
X131424886Y-107108446D01*
X131861554Y-107545114D01*
X132375021Y-107888201D01*
X132945554Y-108124524D01*
X133551229Y-108245000D01*
X134168771Y-108245000D01*
X134774446Y-108124524D01*
X135344979Y-107888201D01*
X135858446Y-107545114D01*
X136295114Y-107108446D01*
X136400001Y-106951471D01*
X136400001Y-115250000D01*
X39720000Y-115250000D01*
X39720000Y-107026303D01*
X39774886Y-107108446D01*
X40211554Y-107545114D01*
X40725021Y-107888201D01*
X41295554Y-108124524D01*
X41901229Y-108245000D01*
X42518771Y-108245000D01*
X43124446Y-108124524D01*
X43694979Y-107888201D01*
X44208446Y-107545114D01*
X44645114Y-107108446D01*
X44988201Y-106594979D01*
X45224524Y-106024446D01*
X45345000Y-105418771D01*
X45345000Y-104801229D01*
X45224524Y-104195554D01*
X44988201Y-103625021D01*
X44645114Y-103111554D01*
X44208446Y-102674886D01*
X43694979Y-102331799D01*
X43124446Y-102095476D01*
X42518771Y-101975000D01*
X41901229Y-101975000D01*
X41295554Y-102095476D01*
X40725021Y-102331799D01*
X40211554Y-102674886D01*
X39774886Y-103111554D01*
X39720000Y-103193697D01*
X39720000Y-98725000D01*
X53436928Y-98725000D01*
X53449188Y-98849482D01*
X53485498Y-98969180D01*
X53544463Y-99079494D01*
X53546517Y-99081997D01*
X53480735Y-99240809D01*
X53440000Y-99445599D01*
X53440000Y-99654401D01*
X53480735Y-99859191D01*
X53560640Y-100052098D01*
X53642760Y-100175000D01*
X53560640Y-100297902D01*
X53480735Y-100490809D01*
X53440000Y-100695599D01*
X53440000Y-100904401D01*
X53480735Y-101109191D01*
X53560640Y-101302098D01*
X53642760Y-101425000D01*
X53560640Y-101547902D01*
X53480735Y-101740809D01*
X53440000Y-101945599D01*
X53440000Y-102154401D01*
X53480735Y-102359191D01*
X53560640Y-102552098D01*
X53676644Y-102725711D01*
X53824289Y-102873356D01*
X53997902Y-102989360D01*
X54190809Y-103069265D01*
X54395599Y-103110000D01*
X54604401Y-103110000D01*
X54809191Y-103069265D01*
X55002098Y-102989360D01*
X55175711Y-102873356D01*
X55323356Y-102725711D01*
X55439360Y-102552098D01*
X55519265Y-102359191D01*
X55560000Y-102154401D01*
X55560000Y-101945599D01*
X55519265Y-101740809D01*
X55444371Y-101560000D01*
X57785199Y-101560000D01*
X67936201Y-111711003D01*
X67959999Y-111740001D01*
X67988997Y-111763799D01*
X68075723Y-111834974D01*
X68207753Y-111905546D01*
X68351014Y-111949003D01*
X68462667Y-111960000D01*
X68462676Y-111960000D01*
X68499999Y-111963676D01*
X68537322Y-111960000D01*
X101212678Y-111960000D01*
X101250000Y-111963676D01*
X101287322Y-111960000D01*
X101287333Y-111960000D01*
X101398986Y-111949003D01*
X101542247Y-111905546D01*
X101674276Y-111834974D01*
X101790001Y-111740001D01*
X101813804Y-111710997D01*
X105599801Y-107925000D01*
X116436928Y-107925000D01*
X116449188Y-108049482D01*
X116485498Y-108169180D01*
X116544463Y-108279494D01*
X116623815Y-108376185D01*
X116720506Y-108455537D01*
X116830820Y-108514502D01*
X116950518Y-108550812D01*
X117075000Y-108563072D01*
X117214250Y-108560000D01*
X117373000Y-108401250D01*
X117373000Y-107627000D01*
X116598750Y-107627000D01*
X116440000Y-107785750D01*
X116436928Y-107925000D01*
X105599801Y-107925000D01*
X106136730Y-107388072D01*
X106250000Y-107388072D01*
X106374482Y-107375812D01*
X106494180Y-107339502D01*
X106500000Y-107336391D01*
X106505820Y-107339502D01*
X106625518Y-107375812D01*
X106750000Y-107388072D01*
X107350000Y-107388072D01*
X107474482Y-107375812D01*
X107594180Y-107339502D01*
X107704494Y-107280537D01*
X107742091Y-107249682D01*
X107748986Y-107249003D01*
X107892247Y-107205546D01*
X108024276Y-107134974D01*
X108097354Y-107075000D01*
X116436928Y-107075000D01*
X116440000Y-107214250D01*
X116598750Y-107373000D01*
X117373000Y-107373000D01*
X117373000Y-106598750D01*
X117214250Y-106440000D01*
X117075000Y-106436928D01*
X116950518Y-106449188D01*
X116830820Y-106485498D01*
X116720506Y-106544463D01*
X116623815Y-106623815D01*
X116544463Y-106720506D01*
X116485498Y-106830820D01*
X116449188Y-106950518D01*
X116436928Y-107075000D01*
X108097354Y-107075000D01*
X108140001Y-107040001D01*
X108163803Y-107010998D01*
X108911004Y-106263798D01*
X108940001Y-106240001D01*
X109034974Y-106124276D01*
X109105546Y-105992247D01*
X109149003Y-105848986D01*
X109160000Y-105737333D01*
X109160000Y-105737323D01*
X109163676Y-105700000D01*
X109160000Y-105662677D01*
X109160000Y-105150558D01*
X109259744Y-105217205D01*
X109448102Y-105295226D01*
X109648061Y-105335000D01*
X109851939Y-105335000D01*
X110051898Y-105295226D01*
X110240256Y-105217205D01*
X110409774Y-105103937D01*
X110553937Y-104959774D01*
X110667205Y-104790256D01*
X110745226Y-104601898D01*
X110785000Y-104401939D01*
X110785000Y-104198061D01*
X110745226Y-103998102D01*
X110667205Y-103809744D01*
X110553937Y-103640226D01*
X110460000Y-103546289D01*
X110460000Y-100237323D01*
X110463676Y-100200000D01*
X110460000Y-100162677D01*
X110460000Y-100162667D01*
X110449003Y-100051014D01*
X110405546Y-99907753D01*
X110379589Y-99859191D01*
X110334974Y-99775723D01*
X110263799Y-99688997D01*
X110240001Y-99659999D01*
X110211004Y-99636202D01*
X109163804Y-98589002D01*
X109140001Y-98559999D01*
X109024276Y-98465026D01*
X108892247Y-98394454D01*
X108748986Y-98350997D01*
X108637333Y-98340000D01*
X108637322Y-98340000D01*
X108600000Y-98336324D01*
X108562678Y-98340000D01*
X107938072Y-98340000D01*
X107938072Y-98100000D01*
X107925812Y-97975518D01*
X107889502Y-97855820D01*
X107830537Y-97745506D01*
X107751185Y-97648815D01*
X107654494Y-97569463D01*
X107544180Y-97510498D01*
X107424482Y-97474188D01*
X107300000Y-97461928D01*
X105600000Y-97461928D01*
X105475518Y-97474188D01*
X105355820Y-97510498D01*
X105245506Y-97569463D01*
X105148815Y-97648815D01*
X105069463Y-97745506D01*
X105010498Y-97855820D01*
X104974188Y-97975518D01*
X104961928Y-98100000D01*
X104961928Y-100100000D01*
X104974188Y-100224482D01*
X105010498Y-100344180D01*
X105069463Y-100454494D01*
X105148815Y-100551185D01*
X105245506Y-100630537D01*
X105355820Y-100689502D01*
X105475518Y-100725812D01*
X105600000Y-100738072D01*
X107300000Y-100738072D01*
X107357598Y-100732399D01*
X107640001Y-101014803D01*
X107640001Y-101561716D01*
X107544180Y-101510498D01*
X107424482Y-101474188D01*
X107300000Y-101461928D01*
X105600000Y-101461928D01*
X105475518Y-101474188D01*
X105355820Y-101510498D01*
X105245506Y-101569463D01*
X105148815Y-101648815D01*
X105069463Y-101745506D01*
X105010498Y-101855820D01*
X104974188Y-101975518D01*
X104961928Y-102100000D01*
X104961928Y-104100000D01*
X104974188Y-104224482D01*
X105010498Y-104344180D01*
X105069463Y-104454494D01*
X105148815Y-104551185D01*
X105245506Y-104630537D01*
X105277539Y-104647659D01*
X102320000Y-107605199D01*
X102320000Y-42925000D01*
X116436928Y-42925000D01*
X116449188Y-43049482D01*
X116485498Y-43169180D01*
X116544463Y-43279494D01*
X116623815Y-43376185D01*
X116720506Y-43455537D01*
X116830820Y-43514502D01*
X116950518Y-43550812D01*
X117075000Y-43563072D01*
X117214250Y-43560000D01*
X117373000Y-43401250D01*
X117373000Y-42627000D01*
X116598750Y-42627000D01*
X116440000Y-42785750D01*
X116436928Y-42925000D01*
X102320000Y-42925000D01*
X102320000Y-42075000D01*
X116436928Y-42075000D01*
X116440000Y-42214250D01*
X116598750Y-42373000D01*
X117373000Y-42373000D01*
X117373000Y-41598750D01*
X117627000Y-41598750D01*
X117627000Y-42373000D01*
X117647000Y-42373000D01*
X117647000Y-42627000D01*
X117627000Y-42627000D01*
X117627000Y-43401250D01*
X117785750Y-43560000D01*
X117925000Y-43563072D01*
X117990000Y-43556670D01*
X117990001Y-106443330D01*
X117925000Y-106436928D01*
X117785750Y-106440000D01*
X117627000Y-106598750D01*
X117627000Y-107373000D01*
X117647000Y-107373000D01*
X117647000Y-107627000D01*
X117627000Y-107627000D01*
X117627000Y-108401250D01*
X117785750Y-108560000D01*
X117925000Y-108563072D01*
X118049482Y-108550812D01*
X118169180Y-108514502D01*
X118279494Y-108455537D01*
X118281997Y-108453483D01*
X118440809Y-108519265D01*
X118645599Y-108560000D01*
X118854401Y-108560000D01*
X119059191Y-108519265D01*
X119252098Y-108439360D01*
X119375000Y-108357240D01*
X119497902Y-108439360D01*
X119690809Y-108519265D01*
X119895599Y-108560000D01*
X120104401Y-108560000D01*
X120309191Y-108519265D01*
X120502098Y-108439360D01*
X120625000Y-108357240D01*
X120747902Y-108439360D01*
X120940809Y-108519265D01*
X121145599Y-108560000D01*
X121354401Y-108560000D01*
X121559191Y-108519265D01*
X121752098Y-108439360D01*
X121925711Y-108323356D01*
X122073356Y-108175711D01*
X122189360Y-108002098D01*
X122269265Y-107809191D01*
X122310000Y-107604401D01*
X122310000Y-107395599D01*
X122269265Y-107190809D01*
X122189360Y-106997902D01*
X122073356Y-106824289D01*
X122010000Y-106760933D01*
X122010000Y-43239067D01*
X122073356Y-43175711D01*
X122189360Y-43002098D01*
X122269265Y-42809191D01*
X122310000Y-42604401D01*
X122310000Y-42395599D01*
X122269265Y-42190809D01*
X122189360Y-41997902D01*
X122073356Y-41824289D01*
X121925711Y-41676644D01*
X121752098Y-41560640D01*
X121559191Y-41480735D01*
X121354401Y-41440000D01*
X121145599Y-41440000D01*
X120940809Y-41480735D01*
X120747902Y-41560640D01*
X120625000Y-41642760D01*
X120502098Y-41560640D01*
X120309191Y-41480735D01*
X120104401Y-41440000D01*
X119895599Y-41440000D01*
X119690809Y-41480735D01*
X119497902Y-41560640D01*
X119375000Y-41642760D01*
X119252098Y-41560640D01*
X119059191Y-41480735D01*
X118854401Y-41440000D01*
X118645599Y-41440000D01*
X118440809Y-41480735D01*
X118281997Y-41546517D01*
X118279494Y-41544463D01*
X118169180Y-41485498D01*
X118049482Y-41449188D01*
X117925000Y-41436928D01*
X117785750Y-41440000D01*
X117627000Y-41598750D01*
X117373000Y-41598750D01*
X117214250Y-41440000D01*
X117075000Y-41436928D01*
X116950518Y-41449188D01*
X116830820Y-41485498D01*
X116720506Y-41544463D01*
X116623815Y-41623815D01*
X116544463Y-41720506D01*
X116485498Y-41830820D01*
X116449188Y-41950518D01*
X116436928Y-42075000D01*
X102320000Y-42075000D01*
X102320000Y-41542419D01*
X102323193Y-41510000D01*
X102310450Y-41380617D01*
X102272710Y-41256207D01*
X102211425Y-41141550D01*
X102128948Y-41041052D01*
X102028450Y-40958575D01*
X101913793Y-40897290D01*
X101789383Y-40859550D01*
X101692419Y-40850000D01*
X101660000Y-40846807D01*
X101627581Y-40850000D01*
X91492419Y-40850000D01*
X91460000Y-40846807D01*
X91427581Y-40850000D01*
X91330617Y-40859550D01*
X91206207Y-40897290D01*
X91091550Y-40958575D01*
X90991052Y-41041052D01*
X90908575Y-41141550D01*
X90847290Y-41256207D01*
X90809550Y-41380617D01*
X90796807Y-41510000D01*
X90800001Y-41542430D01*
X90800000Y-107677581D01*
X90796807Y-107710000D01*
X90809550Y-107839383D01*
X90847290Y-107963793D01*
X90908575Y-108078450D01*
X90983036Y-108169180D01*
X90991052Y-108178948D01*
X91091550Y-108261425D01*
X91206207Y-108322710D01*
X91330617Y-108360450D01*
X91460000Y-108373193D01*
X91492419Y-108370000D01*
X101555199Y-108370000D01*
X100885199Y-109040000D01*
X69014802Y-109040000D01*
X59013804Y-99039003D01*
X58990001Y-99009999D01*
X58874276Y-98915026D01*
X58742247Y-98844454D01*
X58598986Y-98800997D01*
X58487333Y-98790000D01*
X58487322Y-98790000D01*
X58450000Y-98786324D01*
X58412678Y-98790000D01*
X55556670Y-98790000D01*
X55563072Y-98725000D01*
X55560000Y-98585750D01*
X55401250Y-98427000D01*
X54627000Y-98427000D01*
X54627000Y-98447000D01*
X54373000Y-98447000D01*
X54373000Y-98427000D01*
X53598750Y-98427000D01*
X53440000Y-98585750D01*
X53436928Y-98725000D01*
X39720000Y-98725000D01*
X39720000Y-97875000D01*
X53436928Y-97875000D01*
X53440000Y-98014250D01*
X53598750Y-98173000D01*
X54373000Y-98173000D01*
X54373000Y-97398750D01*
X54627000Y-97398750D01*
X54627000Y-98173000D01*
X55401250Y-98173000D01*
X55560000Y-98014250D01*
X55563072Y-97875000D01*
X55550812Y-97750518D01*
X55514502Y-97630820D01*
X55455537Y-97520506D01*
X55376185Y-97423815D01*
X55279494Y-97344463D01*
X55169180Y-97285498D01*
X55049482Y-97249188D01*
X54925000Y-97236928D01*
X54785750Y-97240000D01*
X54627000Y-97398750D01*
X54373000Y-97398750D01*
X54214250Y-97240000D01*
X54075000Y-97236928D01*
X53950518Y-97249188D01*
X53830820Y-97285498D01*
X53720506Y-97344463D01*
X53623815Y-97423815D01*
X53544463Y-97520506D01*
X53485498Y-97630820D01*
X53449188Y-97750518D01*
X53436928Y-97875000D01*
X39720000Y-97875000D01*
X39720000Y-94125000D01*
X54436928Y-94125000D01*
X54449188Y-94249482D01*
X54485498Y-94369180D01*
X54544463Y-94479494D01*
X54623815Y-94576185D01*
X54720506Y-94655537D01*
X54830820Y-94714502D01*
X54950518Y-94750812D01*
X55075000Y-94763072D01*
X55214250Y-94760000D01*
X55373000Y-94601250D01*
X55373000Y-93827000D01*
X55627000Y-93827000D01*
X55627000Y-94601250D01*
X55785750Y-94760000D01*
X55925000Y-94763072D01*
X56049482Y-94750812D01*
X56169180Y-94714502D01*
X56279494Y-94655537D01*
X56376185Y-94576185D01*
X56455537Y-94479494D01*
X56514502Y-94369180D01*
X56550812Y-94249482D01*
X56563072Y-94125000D01*
X56560000Y-93985750D01*
X56401250Y-93827000D01*
X55627000Y-93827000D01*
X55373000Y-93827000D01*
X54598750Y-93827000D01*
X54440000Y-93985750D01*
X54436928Y-94125000D01*
X39720000Y-94125000D01*
X39720000Y-93275000D01*
X54436928Y-93275000D01*
X54440000Y-93414250D01*
X54598750Y-93573000D01*
X55373000Y-93573000D01*
X55373000Y-93553000D01*
X55627000Y-93553000D01*
X55627000Y-93573000D01*
X56401250Y-93573000D01*
X56560000Y-93414250D01*
X56563072Y-93275000D01*
X56550812Y-93150518D01*
X56514502Y-93030820D01*
X56455537Y-92920506D01*
X56453483Y-92918003D01*
X56519265Y-92759191D01*
X56560000Y-92554401D01*
X56560000Y-92345599D01*
X56519265Y-92140809D01*
X56439360Y-91947902D01*
X56357240Y-91825000D01*
X56439360Y-91702098D01*
X56519265Y-91509191D01*
X56560000Y-91304401D01*
X56560000Y-91095599D01*
X56519265Y-90890809D01*
X56439360Y-90697902D01*
X56357240Y-90575000D01*
X56439360Y-90452098D01*
X56519265Y-90259191D01*
X56560000Y-90054401D01*
X56560000Y-89845599D01*
X56519265Y-89640809D01*
X56439360Y-89447902D01*
X56323356Y-89274289D01*
X56175711Y-89126644D01*
X56002098Y-89010640D01*
X55809191Y-88930735D01*
X55604401Y-88890000D01*
X55395599Y-88890000D01*
X55190809Y-88930735D01*
X54997902Y-89010640D01*
X54824289Y-89126644D01*
X54676644Y-89274289D01*
X54560640Y-89447902D01*
X54480735Y-89640809D01*
X54440000Y-89845599D01*
X54440000Y-90054401D01*
X54480735Y-90259191D01*
X54560640Y-90452098D01*
X54642760Y-90575000D01*
X54560640Y-90697902D01*
X54480735Y-90890809D01*
X54440000Y-91095599D01*
X54440000Y-91304401D01*
X54480735Y-91509191D01*
X54560640Y-91702098D01*
X54642760Y-91825000D01*
X54560640Y-91947902D01*
X54480735Y-92140809D01*
X54440000Y-92345599D01*
X54440000Y-92554401D01*
X54480735Y-92759191D01*
X54546517Y-92918003D01*
X54544463Y-92920506D01*
X54485498Y-93030820D01*
X54449188Y-93150518D01*
X54436928Y-93275000D01*
X39720000Y-93275000D01*
X39720000Y-82698061D01*
X50365000Y-82698061D01*
X50365000Y-82901939D01*
X50404774Y-83101898D01*
X50482795Y-83290256D01*
X50596063Y-83459774D01*
X50740226Y-83603937D01*
X50909744Y-83717205D01*
X51098102Y-83795226D01*
X51298061Y-83835000D01*
X51360199Y-83835000D01*
X58740000Y-91214802D01*
X58740001Y-95262668D01*
X58736324Y-95300000D01*
X58750998Y-95448985D01*
X58794454Y-95592246D01*
X58865026Y-95724276D01*
X58936201Y-95811002D01*
X58960000Y-95840001D01*
X58988998Y-95863799D01*
X66536201Y-103411003D01*
X66559999Y-103440001D01*
X66588997Y-103463799D01*
X66675723Y-103534974D01*
X66807753Y-103605546D01*
X66951014Y-103649003D01*
X67062667Y-103660000D01*
X67062676Y-103660000D01*
X67099999Y-103663676D01*
X67137322Y-103660000D01*
X70962678Y-103660000D01*
X71000000Y-103663676D01*
X71037322Y-103660000D01*
X71037333Y-103660000D01*
X71148986Y-103649003D01*
X71292247Y-103605546D01*
X71424276Y-103534974D01*
X71540001Y-103440001D01*
X71563804Y-103410997D01*
X74011004Y-100963798D01*
X74040001Y-100940001D01*
X74081859Y-100888997D01*
X74134974Y-100824277D01*
X74205546Y-100692247D01*
X74218053Y-100651015D01*
X74249003Y-100548986D01*
X74260000Y-100437333D01*
X74260000Y-100437323D01*
X74263676Y-100400000D01*
X74260000Y-100362677D01*
X74260000Y-100287087D01*
X74374482Y-100275812D01*
X74494180Y-100239502D01*
X74604494Y-100180537D01*
X74701185Y-100101185D01*
X74780537Y-100004494D01*
X74839502Y-99894180D01*
X74875812Y-99774482D01*
X74888072Y-99650000D01*
X74888072Y-98650000D01*
X74875812Y-98525518D01*
X74871991Y-98512921D01*
X74924276Y-98484974D01*
X75040001Y-98390001D01*
X75063803Y-98360998D01*
X75911004Y-97513798D01*
X75940001Y-97490001D01*
X76034974Y-97374276D01*
X76105546Y-97242247D01*
X76149003Y-97098986D01*
X76160000Y-96987333D01*
X76160000Y-96987324D01*
X76163676Y-96950001D01*
X76160000Y-96912678D01*
X76160000Y-95542538D01*
X76160498Y-95544180D01*
X76219463Y-95654494D01*
X76298815Y-95751185D01*
X76395506Y-95830537D01*
X76505820Y-95889502D01*
X76625518Y-95925812D01*
X76750000Y-95938072D01*
X77214250Y-95935000D01*
X77373000Y-95776250D01*
X77373000Y-94927000D01*
X77627000Y-94927000D01*
X77627000Y-95776250D01*
X77785750Y-95935000D01*
X78250000Y-95938072D01*
X78374482Y-95925812D01*
X78494180Y-95889502D01*
X78604494Y-95830537D01*
X78701185Y-95751185D01*
X78780537Y-95654494D01*
X78839502Y-95544180D01*
X78875812Y-95424482D01*
X78888072Y-95300000D01*
X78885000Y-95085750D01*
X78726250Y-94927000D01*
X77627000Y-94927000D01*
X77373000Y-94927000D01*
X77353000Y-94927000D01*
X77353000Y-94673000D01*
X77373000Y-94673000D01*
X77373000Y-94653000D01*
X77627000Y-94653000D01*
X77627000Y-94673000D01*
X78726250Y-94673000D01*
X78885000Y-94514250D01*
X78888072Y-94300000D01*
X78875812Y-94175518D01*
X78871991Y-94162921D01*
X78924276Y-94134974D01*
X79040001Y-94040001D01*
X79063804Y-94010997D01*
X82611004Y-90463798D01*
X82640001Y-90440001D01*
X82734974Y-90324276D01*
X82805546Y-90192247D01*
X82849003Y-90048986D01*
X82860000Y-89937333D01*
X82860000Y-89937323D01*
X82863676Y-89900000D01*
X82860000Y-89862677D01*
X82860000Y-73137323D01*
X82863676Y-73100000D01*
X82860000Y-73062677D01*
X82860000Y-73062667D01*
X82849003Y-72951014D01*
X82805546Y-72807753D01*
X82743806Y-72692247D01*
X82734974Y-72675723D01*
X82663799Y-72588997D01*
X82640001Y-72559999D01*
X82611003Y-72536201D01*
X75441111Y-65366310D01*
X75489014Y-65340706D01*
X75715134Y-65155134D01*
X75900706Y-64929014D01*
X75930000Y-64874209D01*
X75959294Y-64929014D01*
X76144866Y-65155134D01*
X76370986Y-65340706D01*
X76628966Y-65478599D01*
X76908889Y-65563513D01*
X77127050Y-65585000D01*
X77272950Y-65585000D01*
X77491111Y-65563513D01*
X77771034Y-65478599D01*
X78029014Y-65340706D01*
X78255134Y-65155134D01*
X78440706Y-64929014D01*
X78470000Y-64874209D01*
X78499294Y-64929014D01*
X78684866Y-65155134D01*
X78910986Y-65340706D01*
X79168966Y-65478599D01*
X79448889Y-65563513D01*
X79667050Y-65585000D01*
X79812950Y-65585000D01*
X80031111Y-65563513D01*
X80311034Y-65478599D01*
X80569014Y-65340706D01*
X80795134Y-65155134D01*
X80980706Y-64929014D01*
X81010000Y-64874209D01*
X81039294Y-64929014D01*
X81224866Y-65155134D01*
X81450986Y-65340706D01*
X81708966Y-65478599D01*
X81988889Y-65563513D01*
X82207050Y-65585000D01*
X82352950Y-65585000D01*
X82571111Y-65563513D01*
X82851034Y-65478599D01*
X83109014Y-65340706D01*
X83335134Y-65155134D01*
X83520706Y-64929014D01*
X83555201Y-64864477D01*
X83624822Y-64981355D01*
X83819731Y-65197588D01*
X84053080Y-65371641D01*
X84315901Y-65496825D01*
X84463110Y-65541476D01*
X84693000Y-65420155D01*
X84693000Y-64227000D01*
X84947000Y-64227000D01*
X84947000Y-65420155D01*
X85176890Y-65541476D01*
X85324099Y-65496825D01*
X85586920Y-65371641D01*
X85820269Y-65197588D01*
X86015178Y-64981355D01*
X86164157Y-64731252D01*
X86261481Y-64456891D01*
X86140814Y-64227000D01*
X84947000Y-64227000D01*
X84693000Y-64227000D01*
X84673000Y-64227000D01*
X84673000Y-63973000D01*
X84693000Y-63973000D01*
X84693000Y-62779845D01*
X84947000Y-62779845D01*
X84947000Y-63973000D01*
X86140814Y-63973000D01*
X86261481Y-63743109D01*
X86164157Y-63468748D01*
X86015178Y-63218645D01*
X85820269Y-63002412D01*
X85586920Y-62828359D01*
X85324099Y-62703175D01*
X85176890Y-62658524D01*
X84947000Y-62779845D01*
X84693000Y-62779845D01*
X84463110Y-62658524D01*
X84315901Y-62703175D01*
X84053080Y-62828359D01*
X83819731Y-63002412D01*
X83624822Y-63218645D01*
X83555201Y-63335523D01*
X83520706Y-63270986D01*
X83335134Y-63044866D01*
X83109014Y-62859294D01*
X82851034Y-62721401D01*
X82571111Y-62636487D01*
X82352950Y-62615000D01*
X82207050Y-62615000D01*
X81988889Y-62636487D01*
X81708966Y-62721401D01*
X81450986Y-62859294D01*
X81224866Y-63044866D01*
X81039294Y-63270986D01*
X81010000Y-63325791D01*
X80980706Y-63270986D01*
X80795134Y-63044866D01*
X80569014Y-62859294D01*
X80311034Y-62721401D01*
X80031111Y-62636487D01*
X79812950Y-62615000D01*
X79667050Y-62615000D01*
X79448889Y-62636487D01*
X79168966Y-62721401D01*
X78910986Y-62859294D01*
X78684866Y-63044866D01*
X78499294Y-63270986D01*
X78470000Y-63325791D01*
X78440706Y-63270986D01*
X78255134Y-63044866D01*
X78029014Y-62859294D01*
X77771034Y-62721401D01*
X77491111Y-62636487D01*
X77272950Y-62615000D01*
X77127050Y-62615000D01*
X76908889Y-62636487D01*
X76628966Y-62721401D01*
X76370986Y-62859294D01*
X76144866Y-63044866D01*
X75959294Y-63270986D01*
X75930000Y-63325791D01*
X75900706Y-63270986D01*
X75715134Y-63044866D01*
X75489014Y-62859294D01*
X75231034Y-62721401D01*
X74951111Y-62636487D01*
X74732950Y-62615000D01*
X74587050Y-62615000D01*
X74368889Y-62636487D01*
X74088966Y-62721401D01*
X73830986Y-62859294D01*
X73604866Y-63044866D01*
X73419294Y-63270986D01*
X73390000Y-63325791D01*
X73360706Y-63270986D01*
X73175134Y-63044866D01*
X72949014Y-62859294D01*
X72691034Y-62721401D01*
X72411111Y-62636487D01*
X72192950Y-62615000D01*
X72047050Y-62615000D01*
X71828889Y-62636487D01*
X71548966Y-62721401D01*
X71290986Y-62859294D01*
X71064866Y-63044866D01*
X71040393Y-63074687D01*
X71019502Y-63005820D01*
X70960537Y-62895506D01*
X70881185Y-62798815D01*
X70784494Y-62719463D01*
X70674180Y-62660498D01*
X70554482Y-62624188D01*
X70430000Y-62611928D01*
X68730000Y-62611928D01*
X68605518Y-62624188D01*
X68485820Y-62660498D01*
X68375506Y-62719463D01*
X68278815Y-62798815D01*
X68199463Y-62895506D01*
X68140498Y-63005820D01*
X68104188Y-63125518D01*
X68091928Y-63250000D01*
X68091928Y-64950000D01*
X68104188Y-65074482D01*
X68140498Y-65194180D01*
X68199463Y-65304494D01*
X68278815Y-65401185D01*
X68375506Y-65480537D01*
X68485820Y-65539502D01*
X68605518Y-65575812D01*
X68730000Y-65588072D01*
X70430000Y-65588072D01*
X70554482Y-65575812D01*
X70674180Y-65539502D01*
X70784494Y-65480537D01*
X70881185Y-65401185D01*
X70960537Y-65304494D01*
X71019502Y-65194180D01*
X71040393Y-65125313D01*
X71064866Y-65155134D01*
X71290986Y-65340706D01*
X71548966Y-65478599D01*
X71828889Y-65563513D01*
X72047050Y-65585000D01*
X72192950Y-65585000D01*
X72411111Y-65563513D01*
X72691034Y-65478599D01*
X72949014Y-65340706D01*
X73175134Y-65155134D01*
X73360706Y-64929014D01*
X73390000Y-64874209D01*
X73419294Y-64929014D01*
X73604866Y-65155134D01*
X73830986Y-65340706D01*
X73900000Y-65377595D01*
X73900000Y-65622677D01*
X73896324Y-65660000D01*
X73900000Y-65697322D01*
X73900000Y-65697332D01*
X73910997Y-65808985D01*
X73954454Y-65952246D01*
X74025026Y-66084276D01*
X74064871Y-66132826D01*
X74119999Y-66200001D01*
X74149003Y-66223804D01*
X81340001Y-73414803D01*
X81340000Y-89585198D01*
X78888072Y-92037127D01*
X78888072Y-91700000D01*
X78875812Y-91575518D01*
X78839502Y-91455820D01*
X78780537Y-91345506D01*
X78701185Y-91248815D01*
X78604494Y-91169463D01*
X78494180Y-91110498D01*
X78374482Y-91074188D01*
X78260000Y-91062913D01*
X78260000Y-89514801D01*
X78611004Y-89163798D01*
X78640001Y-89140001D01*
X78679192Y-89092247D01*
X78734974Y-89024277D01*
X78805546Y-88892247D01*
X78845662Y-88759999D01*
X78849003Y-88748986D01*
X78860000Y-88637333D01*
X78860000Y-88637324D01*
X78863676Y-88600001D01*
X78860000Y-88562678D01*
X78860000Y-86037322D01*
X78863676Y-85999999D01*
X78860000Y-85962676D01*
X78860000Y-85962667D01*
X78849003Y-85851014D01*
X78805546Y-85707753D01*
X78795521Y-85688997D01*
X78734974Y-85575723D01*
X78663799Y-85488997D01*
X78640001Y-85459999D01*
X78611003Y-85436201D01*
X75685331Y-82510530D01*
X75958889Y-82593513D01*
X76177050Y-82615000D01*
X76322950Y-82615000D01*
X76541111Y-82593513D01*
X76821034Y-82508599D01*
X77079014Y-82370706D01*
X77305134Y-82185134D01*
X77490706Y-81959014D01*
X77520000Y-81904209D01*
X77549294Y-81959014D01*
X77734866Y-82185134D01*
X77960986Y-82370706D01*
X78218966Y-82508599D01*
X78498889Y-82593513D01*
X78717050Y-82615000D01*
X78862950Y-82615000D01*
X79081111Y-82593513D01*
X79361034Y-82508599D01*
X79619014Y-82370706D01*
X79845134Y-82185134D01*
X80030706Y-81959014D01*
X80168599Y-81701034D01*
X80253513Y-81421111D01*
X80282185Y-81130000D01*
X80253513Y-80838889D01*
X80168599Y-80558966D01*
X80030706Y-80300986D01*
X79845134Y-80074866D01*
X79619014Y-79889294D01*
X79361034Y-79751401D01*
X79081111Y-79666487D01*
X78862950Y-79645000D01*
X78717050Y-79645000D01*
X78498889Y-79666487D01*
X78218966Y-79751401D01*
X77960986Y-79889294D01*
X77734866Y-80074866D01*
X77549294Y-80300986D01*
X77520000Y-80355791D01*
X77490706Y-80300986D01*
X77305134Y-80074866D01*
X77079014Y-79889294D01*
X76821034Y-79751401D01*
X76541111Y-79666487D01*
X76322950Y-79645000D01*
X76177050Y-79645000D01*
X75958889Y-79666487D01*
X75678966Y-79751401D01*
X75420986Y-79889294D01*
X75194866Y-80074866D01*
X75009294Y-80300986D01*
X74980000Y-80355791D01*
X74950706Y-80300986D01*
X74765134Y-80074866D01*
X74539014Y-79889294D01*
X74281034Y-79751401D01*
X74001111Y-79666487D01*
X73782950Y-79645000D01*
X73637050Y-79645000D01*
X73418889Y-79666487D01*
X73138966Y-79751401D01*
X72880986Y-79889294D01*
X72654866Y-80074866D01*
X72469294Y-80300986D01*
X72440000Y-80355791D01*
X72410706Y-80300986D01*
X72225134Y-80074866D01*
X71999014Y-79889294D01*
X71930000Y-79852405D01*
X71930000Y-73907333D01*
X71933677Y-73870000D01*
X71919003Y-73721014D01*
X71875546Y-73577753D01*
X71804974Y-73445724D01*
X71733799Y-73358997D01*
X71710001Y-73329999D01*
X71681004Y-73306202D01*
X60413804Y-62039003D01*
X60390001Y-62009999D01*
X60274276Y-61915026D01*
X60142247Y-61844454D01*
X59998986Y-61800997D01*
X59887333Y-61790000D01*
X59887322Y-61790000D01*
X59850000Y-61786324D01*
X59812678Y-61790000D01*
X56239067Y-61790000D01*
X56175711Y-61726644D01*
X56002098Y-61610640D01*
X55809191Y-61530735D01*
X55671462Y-61503339D01*
X58511004Y-58663798D01*
X58540001Y-58640001D01*
X58622069Y-58540001D01*
X58634974Y-58524277D01*
X58705546Y-58392247D01*
X58729129Y-58314502D01*
X58749003Y-58248986D01*
X58760000Y-58137333D01*
X58760000Y-58137323D01*
X58763676Y-58100000D01*
X58760000Y-58062677D01*
X58760000Y-54037322D01*
X58763676Y-53999999D01*
X58760000Y-53962676D01*
X58760000Y-53962667D01*
X58749003Y-53851014D01*
X58705546Y-53707753D01*
X58700860Y-53698986D01*
X58634974Y-53575723D01*
X58563799Y-53488997D01*
X58540001Y-53459999D01*
X58511003Y-53436201D01*
X56863804Y-51789003D01*
X56840001Y-51759999D01*
X56724276Y-51665026D01*
X56592247Y-51594454D01*
X56448986Y-51550997D01*
X56438438Y-51549958D01*
X56513560Y-51377412D01*
X56557959Y-51173384D01*
X56561702Y-50964616D01*
X56524644Y-50759130D01*
X56448210Y-50564821D01*
X56430210Y-50531144D01*
X56224386Y-50505219D01*
X55679605Y-51050000D01*
X55693748Y-51064143D01*
X55517890Y-51240000D01*
X55510395Y-51240000D01*
X55500000Y-51229605D01*
X55489605Y-51240000D01*
X55482110Y-51240000D01*
X55306253Y-51064143D01*
X55320395Y-51050000D01*
X54775614Y-50505219D01*
X54569790Y-50531144D01*
X54486440Y-50722588D01*
X54442041Y-50926616D01*
X54438298Y-51135384D01*
X54475356Y-51340870D01*
X54551790Y-51535179D01*
X54569790Y-51568856D01*
X54713922Y-51587011D01*
X54676644Y-51624289D01*
X54560640Y-51797902D01*
X54480735Y-51990809D01*
X54440000Y-52195599D01*
X54440000Y-52404401D01*
X54480735Y-52609191D01*
X54555629Y-52790000D01*
X54187323Y-52790000D01*
X54150000Y-52786324D01*
X54112677Y-52790000D01*
X54112667Y-52790000D01*
X54001014Y-52800997D01*
X53857753Y-52844454D01*
X53725724Y-52915026D01*
X53609999Y-53009999D01*
X53586201Y-53038997D01*
X51288998Y-55336201D01*
X51260000Y-55359999D01*
X51236202Y-55388997D01*
X51236201Y-55388998D01*
X51165026Y-55475724D01*
X51094454Y-55607754D01*
X51050998Y-55751015D01*
X51036324Y-55900000D01*
X51040001Y-55937333D01*
X51040000Y-80162678D01*
X51036324Y-80200000D01*
X51040000Y-80237322D01*
X51040000Y-80237332D01*
X51050997Y-80348985D01*
X51060708Y-80380997D01*
X51094454Y-80492246D01*
X51165026Y-80624276D01*
X51198426Y-80664974D01*
X51259999Y-80740001D01*
X51289003Y-80763804D01*
X51708695Y-81183496D01*
X51540226Y-81296063D01*
X51396063Y-81440226D01*
X51282795Y-81609744D01*
X51211340Y-81782250D01*
X51098102Y-81804774D01*
X50909744Y-81882795D01*
X50740226Y-81996063D01*
X50596063Y-82140226D01*
X50482795Y-82309744D01*
X50404774Y-82498102D01*
X50365000Y-82698061D01*
X39720000Y-82698061D01*
X39720000Y-50325614D01*
X54955219Y-50325614D01*
X55500000Y-50870395D01*
X56044781Y-50325614D01*
X56018856Y-50119790D01*
X55827412Y-50036440D01*
X55623384Y-49992041D01*
X55414616Y-49988298D01*
X55209130Y-50025356D01*
X55014821Y-50101790D01*
X54981144Y-50119790D01*
X54955219Y-50325614D01*
X39720000Y-50325614D01*
X39720000Y-45951473D01*
X39824886Y-46108446D01*
X40261554Y-46545114D01*
X40775021Y-46888201D01*
X41345554Y-47124524D01*
X41951229Y-47245000D01*
X42568771Y-47245000D01*
X43174446Y-47124524D01*
X43744979Y-46888201D01*
X44258446Y-46545114D01*
X44695114Y-46108446D01*
X45038201Y-45594979D01*
X45274524Y-45024446D01*
X45395000Y-44418771D01*
X45395000Y-43801229D01*
X45274524Y-43195554D01*
X45038201Y-42625021D01*
X44695114Y-42111554D01*
X44258446Y-41674886D01*
X44066888Y-41546891D01*
X68158519Y-41546891D01*
X68255843Y-41821252D01*
X68404822Y-42071355D01*
X68599731Y-42287588D01*
X68833080Y-42461641D01*
X69095901Y-42586825D01*
X69243110Y-42631476D01*
X69473000Y-42510155D01*
X69473000Y-41317000D01*
X68279186Y-41317000D01*
X68158519Y-41546891D01*
X44066888Y-41546891D01*
X43744979Y-41331799D01*
X43174446Y-41095476D01*
X42568771Y-40975000D01*
X41951229Y-40975000D01*
X41345554Y-41095476D01*
X40775021Y-41331799D01*
X40261554Y-41674886D01*
X39824886Y-42111554D01*
X39720000Y-42268527D01*
X39720000Y-40833109D01*
X68158519Y-40833109D01*
X68279186Y-41063000D01*
X69473000Y-41063000D01*
X69473000Y-39869845D01*
X69727000Y-39869845D01*
X69727000Y-41063000D01*
X69747000Y-41063000D01*
X69747000Y-41317000D01*
X69727000Y-41317000D01*
X69727000Y-42510155D01*
X69956890Y-42631476D01*
X70104099Y-42586825D01*
X70366920Y-42461641D01*
X70600269Y-42287588D01*
X70795178Y-42071355D01*
X70864799Y-41954477D01*
X70899294Y-42019014D01*
X71084866Y-42245134D01*
X71310986Y-42430706D01*
X71568966Y-42568599D01*
X71848889Y-42653513D01*
X72067050Y-42675000D01*
X72212950Y-42675000D01*
X72431111Y-42653513D01*
X72711034Y-42568599D01*
X72969014Y-42430706D01*
X73195134Y-42245134D01*
X73380706Y-42019014D01*
X73410000Y-41964209D01*
X73439294Y-42019014D01*
X73624866Y-42245134D01*
X73850986Y-42430706D01*
X74108966Y-42568599D01*
X74388889Y-42653513D01*
X74607050Y-42675000D01*
X74752950Y-42675000D01*
X74971111Y-42653513D01*
X75251034Y-42568599D01*
X75509014Y-42430706D01*
X75735134Y-42245134D01*
X75920706Y-42019014D01*
X75950000Y-41964209D01*
X75979294Y-42019014D01*
X76164866Y-42245134D01*
X76390986Y-42430706D01*
X76648966Y-42568599D01*
X76928889Y-42653513D01*
X77147050Y-42675000D01*
X77292950Y-42675000D01*
X77511111Y-42653513D01*
X77791034Y-42568599D01*
X78049014Y-42430706D01*
X78275134Y-42245134D01*
X78460706Y-42019014D01*
X78490000Y-41964209D01*
X78519294Y-42019014D01*
X78704866Y-42245134D01*
X78930986Y-42430706D01*
X79188966Y-42568599D01*
X79468889Y-42653513D01*
X79687050Y-42675000D01*
X79832950Y-42675000D01*
X80051111Y-42653513D01*
X80331034Y-42568599D01*
X80589014Y-42430706D01*
X80815134Y-42245134D01*
X81000706Y-42019014D01*
X81030000Y-41964209D01*
X81059294Y-42019014D01*
X81244866Y-42245134D01*
X81470986Y-42430706D01*
X81728966Y-42568599D01*
X82008889Y-42653513D01*
X82227050Y-42675000D01*
X82372950Y-42675000D01*
X82591111Y-42653513D01*
X82871034Y-42568599D01*
X83129014Y-42430706D01*
X83355134Y-42245134D01*
X83379607Y-42215313D01*
X83400498Y-42284180D01*
X83459463Y-42394494D01*
X83538815Y-42491185D01*
X83635506Y-42570537D01*
X83745820Y-42629502D01*
X83865518Y-42665812D01*
X83990000Y-42678072D01*
X85690000Y-42678072D01*
X85814482Y-42665812D01*
X85934180Y-42629502D01*
X86044494Y-42570537D01*
X86141185Y-42491185D01*
X86220537Y-42394494D01*
X86279502Y-42284180D01*
X86315812Y-42164482D01*
X86328072Y-42040000D01*
X86328072Y-40340000D01*
X86315812Y-40215518D01*
X86279502Y-40095820D01*
X86220537Y-39985506D01*
X86141185Y-39888815D01*
X86044494Y-39809463D01*
X85934180Y-39750498D01*
X85814482Y-39714188D01*
X85690000Y-39701928D01*
X83990000Y-39701928D01*
X83865518Y-39714188D01*
X83745820Y-39750498D01*
X83635506Y-39809463D01*
X83538815Y-39888815D01*
X83459463Y-39985506D01*
X83400498Y-40095820D01*
X83379607Y-40164687D01*
X83355134Y-40134866D01*
X83129014Y-39949294D01*
X82871034Y-39811401D01*
X82591111Y-39726487D01*
X82372950Y-39705000D01*
X82227050Y-39705000D01*
X82008889Y-39726487D01*
X81728966Y-39811401D01*
X81470986Y-39949294D01*
X81244866Y-40134866D01*
X81059294Y-40360986D01*
X81030000Y-40415791D01*
X81000706Y-40360986D01*
X80815134Y-40134866D01*
X80589014Y-39949294D01*
X80331034Y-39811401D01*
X80051111Y-39726487D01*
X79832950Y-39705000D01*
X79687050Y-39705000D01*
X79468889Y-39726487D01*
X79188966Y-39811401D01*
X78930986Y-39949294D01*
X78704866Y-40134866D01*
X78519294Y-40360986D01*
X78490000Y-40415791D01*
X78460706Y-40360986D01*
X78275134Y-40134866D01*
X78049014Y-39949294D01*
X77791034Y-39811401D01*
X77511111Y-39726487D01*
X77292950Y-39705000D01*
X77147050Y-39705000D01*
X76928889Y-39726487D01*
X76648966Y-39811401D01*
X76390986Y-39949294D01*
X76164866Y-40134866D01*
X75979294Y-40360986D01*
X75950000Y-40415791D01*
X75920706Y-40360986D01*
X75735134Y-40134866D01*
X75509014Y-39949294D01*
X75251034Y-39811401D01*
X74971111Y-39726487D01*
X74752950Y-39705000D01*
X74607050Y-39705000D01*
X74388889Y-39726487D01*
X74108966Y-39811401D01*
X73850986Y-39949294D01*
X73624866Y-40134866D01*
X73439294Y-40360986D01*
X73410000Y-40415791D01*
X73380706Y-40360986D01*
X73195134Y-40134866D01*
X72969014Y-39949294D01*
X72711034Y-39811401D01*
X72431111Y-39726487D01*
X72212950Y-39705000D01*
X72067050Y-39705000D01*
X71848889Y-39726487D01*
X71568966Y-39811401D01*
X71310986Y-39949294D01*
X71084866Y-40134866D01*
X70899294Y-40360986D01*
X70864799Y-40425523D01*
X70795178Y-40308645D01*
X70600269Y-40092412D01*
X70366920Y-39918359D01*
X70104099Y-39793175D01*
X69956890Y-39748524D01*
X69727000Y-39869845D01*
X69473000Y-39869845D01*
X69243110Y-39748524D01*
X69095901Y-39793175D01*
X68833080Y-39918359D01*
X68599731Y-40092412D01*
X68404822Y-40308645D01*
X68255843Y-40558748D01*
X68158519Y-40833109D01*
X39720000Y-40833109D01*
X39720000Y-33970000D01*
X136400000Y-33970000D01*
X136400000Y-42268527D01*
X136400000Y-42268527D01*
G37*
X136400000Y-42268527D02*
X136295114Y-42111554D01*
X135858446Y-41674886D01*
X135344979Y-41331799D01*
X134774446Y-41095476D01*
X134168771Y-40975000D01*
X133551229Y-40975000D01*
X132945554Y-41095476D01*
X132375021Y-41331799D01*
X131861554Y-41674886D01*
X131424886Y-42111554D01*
X131081799Y-42625021D01*
X130845476Y-43195554D01*
X130725000Y-43801229D01*
X130725000Y-44418771D01*
X130845476Y-45024446D01*
X131081799Y-45594979D01*
X131424886Y-46108446D01*
X131861554Y-46545114D01*
X132375021Y-46888201D01*
X132945554Y-47124524D01*
X133551229Y-47245000D01*
X134168771Y-47245000D01*
X134774446Y-47124524D01*
X135344979Y-46888201D01*
X135858446Y-46545114D01*
X136295114Y-46108446D01*
X136400000Y-45951472D01*
X136400001Y-103268529D01*
X136295114Y-103111554D01*
X135858446Y-102674886D01*
X135344979Y-102331799D01*
X134774446Y-102095476D01*
X134168771Y-101975000D01*
X133551229Y-101975000D01*
X132945554Y-102095476D01*
X132375021Y-102331799D01*
X131861554Y-102674886D01*
X131424886Y-103111554D01*
X131081799Y-103625021D01*
X130845476Y-104195554D01*
X130725000Y-104801229D01*
X130725000Y-105418771D01*
X130845476Y-106024446D01*
X131081799Y-106594979D01*
X131424886Y-107108446D01*
X131861554Y-107545114D01*
X132375021Y-107888201D01*
X132945554Y-108124524D01*
X133551229Y-108245000D01*
X134168771Y-108245000D01*
X134774446Y-108124524D01*
X135344979Y-107888201D01*
X135858446Y-107545114D01*
X136295114Y-107108446D01*
X136400001Y-106951471D01*
X136400001Y-115250000D01*
X39720000Y-115250000D01*
X39720000Y-107026303D01*
X39774886Y-107108446D01*
X40211554Y-107545114D01*
X40725021Y-107888201D01*
X41295554Y-108124524D01*
X41901229Y-108245000D01*
X42518771Y-108245000D01*
X43124446Y-108124524D01*
X43694979Y-107888201D01*
X44208446Y-107545114D01*
X44645114Y-107108446D01*
X44988201Y-106594979D01*
X45224524Y-106024446D01*
X45345000Y-105418771D01*
X45345000Y-104801229D01*
X45224524Y-104195554D01*
X44988201Y-103625021D01*
X44645114Y-103111554D01*
X44208446Y-102674886D01*
X43694979Y-102331799D01*
X43124446Y-102095476D01*
X42518771Y-101975000D01*
X41901229Y-101975000D01*
X41295554Y-102095476D01*
X40725021Y-102331799D01*
X40211554Y-102674886D01*
X39774886Y-103111554D01*
X39720000Y-103193697D01*
X39720000Y-98725000D01*
X53436928Y-98725000D01*
X53449188Y-98849482D01*
X53485498Y-98969180D01*
X53544463Y-99079494D01*
X53546517Y-99081997D01*
X53480735Y-99240809D01*
X53440000Y-99445599D01*
X53440000Y-99654401D01*
X53480735Y-99859191D01*
X53560640Y-100052098D01*
X53642760Y-100175000D01*
X53560640Y-100297902D01*
X53480735Y-100490809D01*
X53440000Y-100695599D01*
X53440000Y-100904401D01*
X53480735Y-101109191D01*
X53560640Y-101302098D01*
X53642760Y-101425000D01*
X53560640Y-101547902D01*
X53480735Y-101740809D01*
X53440000Y-101945599D01*
X53440000Y-102154401D01*
X53480735Y-102359191D01*
X53560640Y-102552098D01*
X53676644Y-102725711D01*
X53824289Y-102873356D01*
X53997902Y-102989360D01*
X54190809Y-103069265D01*
X54395599Y-103110000D01*
X54604401Y-103110000D01*
X54809191Y-103069265D01*
X55002098Y-102989360D01*
X55175711Y-102873356D01*
X55323356Y-102725711D01*
X55439360Y-102552098D01*
X55519265Y-102359191D01*
X55560000Y-102154401D01*
X55560000Y-101945599D01*
X55519265Y-101740809D01*
X55444371Y-101560000D01*
X57785199Y-101560000D01*
X67936201Y-111711003D01*
X67959999Y-111740001D01*
X67988997Y-111763799D01*
X68075723Y-111834974D01*
X68207753Y-111905546D01*
X68351014Y-111949003D01*
X68462667Y-111960000D01*
X68462676Y-111960000D01*
X68499999Y-111963676D01*
X68537322Y-111960000D01*
X101212678Y-111960000D01*
X101250000Y-111963676D01*
X101287322Y-111960000D01*
X101287333Y-111960000D01*
X101398986Y-111949003D01*
X101542247Y-111905546D01*
X101674276Y-111834974D01*
X101790001Y-111740001D01*
X101813804Y-111710997D01*
X105599801Y-107925000D01*
X116436928Y-107925000D01*
X116449188Y-108049482D01*
X116485498Y-108169180D01*
X116544463Y-108279494D01*
X116623815Y-108376185D01*
X116720506Y-108455537D01*
X116830820Y-108514502D01*
X116950518Y-108550812D01*
X117075000Y-108563072D01*
X117214250Y-108560000D01*
X117373000Y-108401250D01*
X117373000Y-107627000D01*
X116598750Y-107627000D01*
X116440000Y-107785750D01*
X116436928Y-107925000D01*
X105599801Y-107925000D01*
X106136730Y-107388072D01*
X106250000Y-107388072D01*
X106374482Y-107375812D01*
X106494180Y-107339502D01*
X106500000Y-107336391D01*
X106505820Y-107339502D01*
X106625518Y-107375812D01*
X106750000Y-107388072D01*
X107350000Y-107388072D01*
X107474482Y-107375812D01*
X107594180Y-107339502D01*
X107704494Y-107280537D01*
X107742091Y-107249682D01*
X107748986Y-107249003D01*
X107892247Y-107205546D01*
X108024276Y-107134974D01*
X108097354Y-107075000D01*
X116436928Y-107075000D01*
X116440000Y-107214250D01*
X116598750Y-107373000D01*
X117373000Y-107373000D01*
X117373000Y-106598750D01*
X117214250Y-106440000D01*
X117075000Y-106436928D01*
X116950518Y-106449188D01*
X116830820Y-106485498D01*
X116720506Y-106544463D01*
X116623815Y-106623815D01*
X116544463Y-106720506D01*
X116485498Y-106830820D01*
X116449188Y-106950518D01*
X116436928Y-107075000D01*
X108097354Y-107075000D01*
X108140001Y-107040001D01*
X108163803Y-107010998D01*
X108911004Y-106263798D01*
X108940001Y-106240001D01*
X109034974Y-106124276D01*
X109105546Y-105992247D01*
X109149003Y-105848986D01*
X109160000Y-105737333D01*
X109160000Y-105737323D01*
X109163676Y-105700000D01*
X109160000Y-105662677D01*
X109160000Y-105150558D01*
X109259744Y-105217205D01*
X109448102Y-105295226D01*
X109648061Y-105335000D01*
X109851939Y-105335000D01*
X110051898Y-105295226D01*
X110240256Y-105217205D01*
X110409774Y-105103937D01*
X110553937Y-104959774D01*
X110667205Y-104790256D01*
X110745226Y-104601898D01*
X110785000Y-104401939D01*
X110785000Y-104198061D01*
X110745226Y-103998102D01*
X110667205Y-103809744D01*
X110553937Y-103640226D01*
X110460000Y-103546289D01*
X110460000Y-100237323D01*
X110463676Y-100200000D01*
X110460000Y-100162677D01*
X110460000Y-100162667D01*
X110449003Y-100051014D01*
X110405546Y-99907753D01*
X110379589Y-99859191D01*
X110334974Y-99775723D01*
X110263799Y-99688997D01*
X110240001Y-99659999D01*
X110211004Y-99636202D01*
X109163804Y-98589002D01*
X109140001Y-98559999D01*
X109024276Y-98465026D01*
X108892247Y-98394454D01*
X108748986Y-98350997D01*
X108637333Y-98340000D01*
X108637322Y-98340000D01*
X108600000Y-98336324D01*
X108562678Y-98340000D01*
X107938072Y-98340000D01*
X107938072Y-98100000D01*
X107925812Y-97975518D01*
X107889502Y-97855820D01*
X107830537Y-97745506D01*
X107751185Y-97648815D01*
X107654494Y-97569463D01*
X107544180Y-97510498D01*
X107424482Y-97474188D01*
X107300000Y-97461928D01*
X105600000Y-97461928D01*
X105475518Y-97474188D01*
X105355820Y-97510498D01*
X105245506Y-97569463D01*
X105148815Y-97648815D01*
X105069463Y-97745506D01*
X105010498Y-97855820D01*
X104974188Y-97975518D01*
X104961928Y-98100000D01*
X104961928Y-100100000D01*
X104974188Y-100224482D01*
X105010498Y-100344180D01*
X105069463Y-100454494D01*
X105148815Y-100551185D01*
X105245506Y-100630537D01*
X105355820Y-100689502D01*
X105475518Y-100725812D01*
X105600000Y-100738072D01*
X107300000Y-100738072D01*
X107357598Y-100732399D01*
X107640001Y-101014803D01*
X107640001Y-101561716D01*
X107544180Y-101510498D01*
X107424482Y-101474188D01*
X107300000Y-101461928D01*
X105600000Y-101461928D01*
X105475518Y-101474188D01*
X105355820Y-101510498D01*
X105245506Y-101569463D01*
X105148815Y-101648815D01*
X105069463Y-101745506D01*
X105010498Y-101855820D01*
X104974188Y-101975518D01*
X104961928Y-102100000D01*
X104961928Y-104100000D01*
X104974188Y-104224482D01*
X105010498Y-104344180D01*
X105069463Y-104454494D01*
X105148815Y-104551185D01*
X105245506Y-104630537D01*
X105277539Y-104647659D01*
X102320000Y-107605199D01*
X102320000Y-42925000D01*
X116436928Y-42925000D01*
X116449188Y-43049482D01*
X116485498Y-43169180D01*
X116544463Y-43279494D01*
X116623815Y-43376185D01*
X116720506Y-43455537D01*
X116830820Y-43514502D01*
X116950518Y-43550812D01*
X117075000Y-43563072D01*
X117214250Y-43560000D01*
X117373000Y-43401250D01*
X117373000Y-42627000D01*
X116598750Y-42627000D01*
X116440000Y-42785750D01*
X116436928Y-42925000D01*
X102320000Y-42925000D01*
X102320000Y-42075000D01*
X116436928Y-42075000D01*
X116440000Y-42214250D01*
X116598750Y-42373000D01*
X117373000Y-42373000D01*
X117373000Y-41598750D01*
X117627000Y-41598750D01*
X117627000Y-42373000D01*
X117647000Y-42373000D01*
X117647000Y-42627000D01*
X117627000Y-42627000D01*
X117627000Y-43401250D01*
X117785750Y-43560000D01*
X117925000Y-43563072D01*
X117990000Y-43556670D01*
X117990001Y-106443330D01*
X117925000Y-106436928D01*
X117785750Y-106440000D01*
X117627000Y-106598750D01*
X117627000Y-107373000D01*
X117647000Y-107373000D01*
X117647000Y-107627000D01*
X117627000Y-107627000D01*
X117627000Y-108401250D01*
X117785750Y-108560000D01*
X117925000Y-108563072D01*
X118049482Y-108550812D01*
X118169180Y-108514502D01*
X118279494Y-108455537D01*
X118281997Y-108453483D01*
X118440809Y-108519265D01*
X118645599Y-108560000D01*
X118854401Y-108560000D01*
X119059191Y-108519265D01*
X119252098Y-108439360D01*
X119375000Y-108357240D01*
X119497902Y-108439360D01*
X119690809Y-108519265D01*
X119895599Y-108560000D01*
X120104401Y-108560000D01*
X120309191Y-108519265D01*
X120502098Y-108439360D01*
X120625000Y-108357240D01*
X120747902Y-108439360D01*
X120940809Y-108519265D01*
X121145599Y-108560000D01*
X121354401Y-108560000D01*
X121559191Y-108519265D01*
X121752098Y-108439360D01*
X121925711Y-108323356D01*
X122073356Y-108175711D01*
X122189360Y-108002098D01*
X122269265Y-107809191D01*
X122310000Y-107604401D01*
X122310000Y-107395599D01*
X122269265Y-107190809D01*
X122189360Y-106997902D01*
X122073356Y-106824289D01*
X122010000Y-106760933D01*
X122010000Y-43239067D01*
X122073356Y-43175711D01*
X122189360Y-43002098D01*
X122269265Y-42809191D01*
X122310000Y-42604401D01*
X122310000Y-42395599D01*
X122269265Y-42190809D01*
X122189360Y-41997902D01*
X122073356Y-41824289D01*
X121925711Y-41676644D01*
X121752098Y-41560640D01*
X121559191Y-41480735D01*
X121354401Y-41440000D01*
X121145599Y-41440000D01*
X120940809Y-41480735D01*
X120747902Y-41560640D01*
X120625000Y-41642760D01*
X120502098Y-41560640D01*
X120309191Y-41480735D01*
X120104401Y-41440000D01*
X119895599Y-41440000D01*
X119690809Y-41480735D01*
X119497902Y-41560640D01*
X119375000Y-41642760D01*
X119252098Y-41560640D01*
X119059191Y-41480735D01*
X118854401Y-41440000D01*
X118645599Y-41440000D01*
X118440809Y-41480735D01*
X118281997Y-41546517D01*
X118279494Y-41544463D01*
X118169180Y-41485498D01*
X118049482Y-41449188D01*
X117925000Y-41436928D01*
X117785750Y-41440000D01*
X117627000Y-41598750D01*
X117373000Y-41598750D01*
X117214250Y-41440000D01*
X117075000Y-41436928D01*
X116950518Y-41449188D01*
X116830820Y-41485498D01*
X116720506Y-41544463D01*
X116623815Y-41623815D01*
X116544463Y-41720506D01*
X116485498Y-41830820D01*
X116449188Y-41950518D01*
X116436928Y-42075000D01*
X102320000Y-42075000D01*
X102320000Y-41542419D01*
X102323193Y-41510000D01*
X102310450Y-41380617D01*
X102272710Y-41256207D01*
X102211425Y-41141550D01*
X102128948Y-41041052D01*
X102028450Y-40958575D01*
X101913793Y-40897290D01*
X101789383Y-40859550D01*
X101692419Y-40850000D01*
X101660000Y-40846807D01*
X101627581Y-40850000D01*
X91492419Y-40850000D01*
X91460000Y-40846807D01*
X91427581Y-40850000D01*
X91330617Y-40859550D01*
X91206207Y-40897290D01*
X91091550Y-40958575D01*
X90991052Y-41041052D01*
X90908575Y-41141550D01*
X90847290Y-41256207D01*
X90809550Y-41380617D01*
X90796807Y-41510000D01*
X90800001Y-41542430D01*
X90800000Y-107677581D01*
X90796807Y-107710000D01*
X90809550Y-107839383D01*
X90847290Y-107963793D01*
X90908575Y-108078450D01*
X90983036Y-108169180D01*
X90991052Y-108178948D01*
X91091550Y-108261425D01*
X91206207Y-108322710D01*
X91330617Y-108360450D01*
X91460000Y-108373193D01*
X91492419Y-108370000D01*
X101555199Y-108370000D01*
X100885199Y-109040000D01*
X69014802Y-109040000D01*
X59013804Y-99039003D01*
X58990001Y-99009999D01*
X58874276Y-98915026D01*
X58742247Y-98844454D01*
X58598986Y-98800997D01*
X58487333Y-98790000D01*
X58487322Y-98790000D01*
X58450000Y-98786324D01*
X58412678Y-98790000D01*
X55556670Y-98790000D01*
X55563072Y-98725000D01*
X55560000Y-98585750D01*
X55401250Y-98427000D01*
X54627000Y-98427000D01*
X54627000Y-98447000D01*
X54373000Y-98447000D01*
X54373000Y-98427000D01*
X53598750Y-98427000D01*
X53440000Y-98585750D01*
X53436928Y-98725000D01*
X39720000Y-98725000D01*
X39720000Y-97875000D01*
X53436928Y-97875000D01*
X53440000Y-98014250D01*
X53598750Y-98173000D01*
X54373000Y-98173000D01*
X54373000Y-97398750D01*
X54627000Y-97398750D01*
X54627000Y-98173000D01*
X55401250Y-98173000D01*
X55560000Y-98014250D01*
X55563072Y-97875000D01*
X55550812Y-97750518D01*
X55514502Y-97630820D01*
X55455537Y-97520506D01*
X55376185Y-97423815D01*
X55279494Y-97344463D01*
X55169180Y-97285498D01*
X55049482Y-97249188D01*
X54925000Y-97236928D01*
X54785750Y-97240000D01*
X54627000Y-97398750D01*
X54373000Y-97398750D01*
X54214250Y-97240000D01*
X54075000Y-97236928D01*
X53950518Y-97249188D01*
X53830820Y-97285498D01*
X53720506Y-97344463D01*
X53623815Y-97423815D01*
X53544463Y-97520506D01*
X53485498Y-97630820D01*
X53449188Y-97750518D01*
X53436928Y-97875000D01*
X39720000Y-97875000D01*
X39720000Y-94125000D01*
X54436928Y-94125000D01*
X54449188Y-94249482D01*
X54485498Y-94369180D01*
X54544463Y-94479494D01*
X54623815Y-94576185D01*
X54720506Y-94655537D01*
X54830820Y-94714502D01*
X54950518Y-94750812D01*
X55075000Y-94763072D01*
X55214250Y-94760000D01*
X55373000Y-94601250D01*
X55373000Y-93827000D01*
X55627000Y-93827000D01*
X55627000Y-94601250D01*
X55785750Y-94760000D01*
X55925000Y-94763072D01*
X56049482Y-94750812D01*
X56169180Y-94714502D01*
X56279494Y-94655537D01*
X56376185Y-94576185D01*
X56455537Y-94479494D01*
X56514502Y-94369180D01*
X56550812Y-94249482D01*
X56563072Y-94125000D01*
X56560000Y-93985750D01*
X56401250Y-93827000D01*
X55627000Y-93827000D01*
X55373000Y-93827000D01*
X54598750Y-93827000D01*
X54440000Y-93985750D01*
X54436928Y-94125000D01*
X39720000Y-94125000D01*
X39720000Y-93275000D01*
X54436928Y-93275000D01*
X54440000Y-93414250D01*
X54598750Y-93573000D01*
X55373000Y-93573000D01*
X55373000Y-93553000D01*
X55627000Y-93553000D01*
X55627000Y-93573000D01*
X56401250Y-93573000D01*
X56560000Y-93414250D01*
X56563072Y-93275000D01*
X56550812Y-93150518D01*
X56514502Y-93030820D01*
X56455537Y-92920506D01*
X56453483Y-92918003D01*
X56519265Y-92759191D01*
X56560000Y-92554401D01*
X56560000Y-92345599D01*
X56519265Y-92140809D01*
X56439360Y-91947902D01*
X56357240Y-91825000D01*
X56439360Y-91702098D01*
X56519265Y-91509191D01*
X56560000Y-91304401D01*
X56560000Y-91095599D01*
X56519265Y-90890809D01*
X56439360Y-90697902D01*
X56357240Y-90575000D01*
X56439360Y-90452098D01*
X56519265Y-90259191D01*
X56560000Y-90054401D01*
X56560000Y-89845599D01*
X56519265Y-89640809D01*
X56439360Y-89447902D01*
X56323356Y-89274289D01*
X56175711Y-89126644D01*
X56002098Y-89010640D01*
X55809191Y-88930735D01*
X55604401Y-88890000D01*
X55395599Y-88890000D01*
X55190809Y-88930735D01*
X54997902Y-89010640D01*
X54824289Y-89126644D01*
X54676644Y-89274289D01*
X54560640Y-89447902D01*
X54480735Y-89640809D01*
X54440000Y-89845599D01*
X54440000Y-90054401D01*
X54480735Y-90259191D01*
X54560640Y-90452098D01*
X54642760Y-90575000D01*
X54560640Y-90697902D01*
X54480735Y-90890809D01*
X54440000Y-91095599D01*
X54440000Y-91304401D01*
X54480735Y-91509191D01*
X54560640Y-91702098D01*
X54642760Y-91825000D01*
X54560640Y-91947902D01*
X54480735Y-92140809D01*
X54440000Y-92345599D01*
X54440000Y-92554401D01*
X54480735Y-92759191D01*
X54546517Y-92918003D01*
X54544463Y-92920506D01*
X54485498Y-93030820D01*
X54449188Y-93150518D01*
X54436928Y-93275000D01*
X39720000Y-93275000D01*
X39720000Y-82698061D01*
X50365000Y-82698061D01*
X50365000Y-82901939D01*
X50404774Y-83101898D01*
X50482795Y-83290256D01*
X50596063Y-83459774D01*
X50740226Y-83603937D01*
X50909744Y-83717205D01*
X51098102Y-83795226D01*
X51298061Y-83835000D01*
X51360199Y-83835000D01*
X58740000Y-91214802D01*
X58740001Y-95262668D01*
X58736324Y-95300000D01*
X58750998Y-95448985D01*
X58794454Y-95592246D01*
X58865026Y-95724276D01*
X58936201Y-95811002D01*
X58960000Y-95840001D01*
X58988998Y-95863799D01*
X66536201Y-103411003D01*
X66559999Y-103440001D01*
X66588997Y-103463799D01*
X66675723Y-103534974D01*
X66807753Y-103605546D01*
X66951014Y-103649003D01*
X67062667Y-103660000D01*
X67062676Y-103660000D01*
X67099999Y-103663676D01*
X67137322Y-103660000D01*
X70962678Y-103660000D01*
X71000000Y-103663676D01*
X71037322Y-103660000D01*
X71037333Y-103660000D01*
X71148986Y-103649003D01*
X71292247Y-103605546D01*
X71424276Y-103534974D01*
X71540001Y-103440001D01*
X71563804Y-103410997D01*
X74011004Y-100963798D01*
X74040001Y-100940001D01*
X74081859Y-100888997D01*
X74134974Y-100824277D01*
X74205546Y-100692247D01*
X74218053Y-100651015D01*
X74249003Y-100548986D01*
X74260000Y-100437333D01*
X74260000Y-100437323D01*
X74263676Y-100400000D01*
X74260000Y-100362677D01*
X74260000Y-100287087D01*
X74374482Y-100275812D01*
X74494180Y-100239502D01*
X74604494Y-100180537D01*
X74701185Y-100101185D01*
X74780537Y-100004494D01*
X74839502Y-99894180D01*
X74875812Y-99774482D01*
X74888072Y-99650000D01*
X74888072Y-98650000D01*
X74875812Y-98525518D01*
X74871991Y-98512921D01*
X74924276Y-98484974D01*
X75040001Y-98390001D01*
X75063803Y-98360998D01*
X75911004Y-97513798D01*
X75940001Y-97490001D01*
X76034974Y-97374276D01*
X76105546Y-97242247D01*
X76149003Y-97098986D01*
X76160000Y-96987333D01*
X76160000Y-96987324D01*
X76163676Y-96950001D01*
X76160000Y-96912678D01*
X76160000Y-95542538D01*
X76160498Y-95544180D01*
X76219463Y-95654494D01*
X76298815Y-95751185D01*
X76395506Y-95830537D01*
X76505820Y-95889502D01*
X76625518Y-95925812D01*
X76750000Y-95938072D01*
X77214250Y-95935000D01*
X77373000Y-95776250D01*
X77373000Y-94927000D01*
X77627000Y-94927000D01*
X77627000Y-95776250D01*
X77785750Y-95935000D01*
X78250000Y-95938072D01*
X78374482Y-95925812D01*
X78494180Y-95889502D01*
X78604494Y-95830537D01*
X78701185Y-95751185D01*
X78780537Y-95654494D01*
X78839502Y-95544180D01*
X78875812Y-95424482D01*
X78888072Y-95300000D01*
X78885000Y-95085750D01*
X78726250Y-94927000D01*
X77627000Y-94927000D01*
X77373000Y-94927000D01*
X77353000Y-94927000D01*
X77353000Y-94673000D01*
X77373000Y-94673000D01*
X77373000Y-94653000D01*
X77627000Y-94653000D01*
X77627000Y-94673000D01*
X78726250Y-94673000D01*
X78885000Y-94514250D01*
X78888072Y-94300000D01*
X78875812Y-94175518D01*
X78871991Y-94162921D01*
X78924276Y-94134974D01*
X79040001Y-94040001D01*
X79063804Y-94010997D01*
X82611004Y-90463798D01*
X82640001Y-90440001D01*
X82734974Y-90324276D01*
X82805546Y-90192247D01*
X82849003Y-90048986D01*
X82860000Y-89937333D01*
X82860000Y-89937323D01*
X82863676Y-89900000D01*
X82860000Y-89862677D01*
X82860000Y-73137323D01*
X82863676Y-73100000D01*
X82860000Y-73062677D01*
X82860000Y-73062667D01*
X82849003Y-72951014D01*
X82805546Y-72807753D01*
X82743806Y-72692247D01*
X82734974Y-72675723D01*
X82663799Y-72588997D01*
X82640001Y-72559999D01*
X82611003Y-72536201D01*
X75441111Y-65366310D01*
X75489014Y-65340706D01*
X75715134Y-65155134D01*
X75900706Y-64929014D01*
X75930000Y-64874209D01*
X75959294Y-64929014D01*
X76144866Y-65155134D01*
X76370986Y-65340706D01*
X76628966Y-65478599D01*
X76908889Y-65563513D01*
X77127050Y-65585000D01*
X77272950Y-65585000D01*
X77491111Y-65563513D01*
X77771034Y-65478599D01*
X78029014Y-65340706D01*
X78255134Y-65155134D01*
X78440706Y-64929014D01*
X78470000Y-64874209D01*
X78499294Y-64929014D01*
X78684866Y-65155134D01*
X78910986Y-65340706D01*
X79168966Y-65478599D01*
X79448889Y-65563513D01*
X79667050Y-65585000D01*
X79812950Y-65585000D01*
X80031111Y-65563513D01*
X80311034Y-65478599D01*
X80569014Y-65340706D01*
X80795134Y-65155134D01*
X80980706Y-64929014D01*
X81010000Y-64874209D01*
X81039294Y-64929014D01*
X81224866Y-65155134D01*
X81450986Y-65340706D01*
X81708966Y-65478599D01*
X81988889Y-65563513D01*
X82207050Y-65585000D01*
X82352950Y-65585000D01*
X82571111Y-65563513D01*
X82851034Y-65478599D01*
X83109014Y-65340706D01*
X83335134Y-65155134D01*
X83520706Y-64929014D01*
X83555201Y-64864477D01*
X83624822Y-64981355D01*
X83819731Y-65197588D01*
X84053080Y-65371641D01*
X84315901Y-65496825D01*
X84463110Y-65541476D01*
X84693000Y-65420155D01*
X84693000Y-64227000D01*
X84947000Y-64227000D01*
X84947000Y-65420155D01*
X85176890Y-65541476D01*
X85324099Y-65496825D01*
X85586920Y-65371641D01*
X85820269Y-65197588D01*
X86015178Y-64981355D01*
X86164157Y-64731252D01*
X86261481Y-64456891D01*
X86140814Y-64227000D01*
X84947000Y-64227000D01*
X84693000Y-64227000D01*
X84673000Y-64227000D01*
X84673000Y-63973000D01*
X84693000Y-63973000D01*
X84693000Y-62779845D01*
X84947000Y-62779845D01*
X84947000Y-63973000D01*
X86140814Y-63973000D01*
X86261481Y-63743109D01*
X86164157Y-63468748D01*
X86015178Y-63218645D01*
X85820269Y-63002412D01*
X85586920Y-62828359D01*
X85324099Y-62703175D01*
X85176890Y-62658524D01*
X84947000Y-62779845D01*
X84693000Y-62779845D01*
X84463110Y-62658524D01*
X84315901Y-62703175D01*
X84053080Y-62828359D01*
X83819731Y-63002412D01*
X83624822Y-63218645D01*
X83555201Y-63335523D01*
X83520706Y-63270986D01*
X83335134Y-63044866D01*
X83109014Y-62859294D01*
X82851034Y-62721401D01*
X82571111Y-62636487D01*
X82352950Y-62615000D01*
X82207050Y-62615000D01*
X81988889Y-62636487D01*
X81708966Y-62721401D01*
X81450986Y-62859294D01*
X81224866Y-63044866D01*
X81039294Y-63270986D01*
X81010000Y-63325791D01*
X80980706Y-63270986D01*
X80795134Y-63044866D01*
X80569014Y-62859294D01*
X80311034Y-62721401D01*
X80031111Y-62636487D01*
X79812950Y-62615000D01*
X79667050Y-62615000D01*
X79448889Y-62636487D01*
X79168966Y-62721401D01*
X78910986Y-62859294D01*
X78684866Y-63044866D01*
X78499294Y-63270986D01*
X78470000Y-63325791D01*
X78440706Y-63270986D01*
X78255134Y-63044866D01*
X78029014Y-62859294D01*
X77771034Y-62721401D01*
X77491111Y-62636487D01*
X77272950Y-62615000D01*
X77127050Y-62615000D01*
X76908889Y-62636487D01*
X76628966Y-62721401D01*
X76370986Y-62859294D01*
X76144866Y-63044866D01*
X75959294Y-63270986D01*
X75930000Y-63325791D01*
X75900706Y-63270986D01*
X75715134Y-63044866D01*
X75489014Y-62859294D01*
X75231034Y-62721401D01*
X74951111Y-62636487D01*
X74732950Y-62615000D01*
X74587050Y-62615000D01*
X74368889Y-62636487D01*
X74088966Y-62721401D01*
X73830986Y-62859294D01*
X73604866Y-63044866D01*
X73419294Y-63270986D01*
X73390000Y-63325791D01*
X73360706Y-63270986D01*
X73175134Y-63044866D01*
X72949014Y-62859294D01*
X72691034Y-62721401D01*
X72411111Y-62636487D01*
X72192950Y-62615000D01*
X72047050Y-62615000D01*
X71828889Y-62636487D01*
X71548966Y-62721401D01*
X71290986Y-62859294D01*
X71064866Y-63044866D01*
X71040393Y-63074687D01*
X71019502Y-63005820D01*
X70960537Y-62895506D01*
X70881185Y-62798815D01*
X70784494Y-62719463D01*
X70674180Y-62660498D01*
X70554482Y-62624188D01*
X70430000Y-62611928D01*
X68730000Y-62611928D01*
X68605518Y-62624188D01*
X68485820Y-62660498D01*
X68375506Y-62719463D01*
X68278815Y-62798815D01*
X68199463Y-62895506D01*
X68140498Y-63005820D01*
X68104188Y-63125518D01*
X68091928Y-63250000D01*
X68091928Y-64950000D01*
X68104188Y-65074482D01*
X68140498Y-65194180D01*
X68199463Y-65304494D01*
X68278815Y-65401185D01*
X68375506Y-65480537D01*
X68485820Y-65539502D01*
X68605518Y-65575812D01*
X68730000Y-65588072D01*
X70430000Y-65588072D01*
X70554482Y-65575812D01*
X70674180Y-65539502D01*
X70784494Y-65480537D01*
X70881185Y-65401185D01*
X70960537Y-65304494D01*
X71019502Y-65194180D01*
X71040393Y-65125313D01*
X71064866Y-65155134D01*
X71290986Y-65340706D01*
X71548966Y-65478599D01*
X71828889Y-65563513D01*
X72047050Y-65585000D01*
X72192950Y-65585000D01*
X72411111Y-65563513D01*
X72691034Y-65478599D01*
X72949014Y-65340706D01*
X73175134Y-65155134D01*
X73360706Y-64929014D01*
X73390000Y-64874209D01*
X73419294Y-64929014D01*
X73604866Y-65155134D01*
X73830986Y-65340706D01*
X73900000Y-65377595D01*
X73900000Y-65622677D01*
X73896324Y-65660000D01*
X73900000Y-65697322D01*
X73900000Y-65697332D01*
X73910997Y-65808985D01*
X73954454Y-65952246D01*
X74025026Y-66084276D01*
X74064871Y-66132826D01*
X74119999Y-66200001D01*
X74149003Y-66223804D01*
X81340001Y-73414803D01*
X81340000Y-89585198D01*
X78888072Y-92037127D01*
X78888072Y-91700000D01*
X78875812Y-91575518D01*
X78839502Y-91455820D01*
X78780537Y-91345506D01*
X78701185Y-91248815D01*
X78604494Y-91169463D01*
X78494180Y-91110498D01*
X78374482Y-91074188D01*
X78260000Y-91062913D01*
X78260000Y-89514801D01*
X78611004Y-89163798D01*
X78640001Y-89140001D01*
X78679192Y-89092247D01*
X78734974Y-89024277D01*
X78805546Y-88892247D01*
X78845662Y-88759999D01*
X78849003Y-88748986D01*
X78860000Y-88637333D01*
X78860000Y-88637324D01*
X78863676Y-88600001D01*
X78860000Y-88562678D01*
X78860000Y-86037322D01*
X78863676Y-85999999D01*
X78860000Y-85962676D01*
X78860000Y-85962667D01*
X78849003Y-85851014D01*
X78805546Y-85707753D01*
X78795521Y-85688997D01*
X78734974Y-85575723D01*
X78663799Y-85488997D01*
X78640001Y-85459999D01*
X78611003Y-85436201D01*
X75685331Y-82510530D01*
X75958889Y-82593513D01*
X76177050Y-82615000D01*
X76322950Y-82615000D01*
X76541111Y-82593513D01*
X76821034Y-82508599D01*
X77079014Y-82370706D01*
X77305134Y-82185134D01*
X77490706Y-81959014D01*
X77520000Y-81904209D01*
X77549294Y-81959014D01*
X77734866Y-82185134D01*
X77960986Y-82370706D01*
X78218966Y-82508599D01*
X78498889Y-82593513D01*
X78717050Y-82615000D01*
X78862950Y-82615000D01*
X79081111Y-82593513D01*
X79361034Y-82508599D01*
X79619014Y-82370706D01*
X79845134Y-82185134D01*
X80030706Y-81959014D01*
X80168599Y-81701034D01*
X80253513Y-81421111D01*
X80282185Y-81130000D01*
X80253513Y-80838889D01*
X80168599Y-80558966D01*
X80030706Y-80300986D01*
X79845134Y-80074866D01*
X79619014Y-79889294D01*
X79361034Y-79751401D01*
X79081111Y-79666487D01*
X78862950Y-79645000D01*
X78717050Y-79645000D01*
X78498889Y-79666487D01*
X78218966Y-79751401D01*
X77960986Y-79889294D01*
X77734866Y-80074866D01*
X77549294Y-80300986D01*
X77520000Y-80355791D01*
X77490706Y-80300986D01*
X77305134Y-80074866D01*
X77079014Y-79889294D01*
X76821034Y-79751401D01*
X76541111Y-79666487D01*
X76322950Y-79645000D01*
X76177050Y-79645000D01*
X75958889Y-79666487D01*
X75678966Y-79751401D01*
X75420986Y-79889294D01*
X75194866Y-80074866D01*
X75009294Y-80300986D01*
X74980000Y-80355791D01*
X74950706Y-80300986D01*
X74765134Y-80074866D01*
X74539014Y-79889294D01*
X74281034Y-79751401D01*
X74001111Y-79666487D01*
X73782950Y-79645000D01*
X73637050Y-79645000D01*
X73418889Y-79666487D01*
X73138966Y-79751401D01*
X72880986Y-79889294D01*
X72654866Y-80074866D01*
X72469294Y-80300986D01*
X72440000Y-80355791D01*
X72410706Y-80300986D01*
X72225134Y-80074866D01*
X71999014Y-79889294D01*
X71930000Y-79852405D01*
X71930000Y-73907333D01*
X71933677Y-73870000D01*
X71919003Y-73721014D01*
X71875546Y-73577753D01*
X71804974Y-73445724D01*
X71733799Y-73358997D01*
X71710001Y-73329999D01*
X71681004Y-73306202D01*
X60413804Y-62039003D01*
X60390001Y-62009999D01*
X60274276Y-61915026D01*
X60142247Y-61844454D01*
X59998986Y-61800997D01*
X59887333Y-61790000D01*
X59887322Y-61790000D01*
X59850000Y-61786324D01*
X59812678Y-61790000D01*
X56239067Y-61790000D01*
X56175711Y-61726644D01*
X56002098Y-61610640D01*
X55809191Y-61530735D01*
X55671462Y-61503339D01*
X58511004Y-58663798D01*
X58540001Y-58640001D01*
X58622069Y-58540001D01*
X58634974Y-58524277D01*
X58705546Y-58392247D01*
X58729129Y-58314502D01*
X58749003Y-58248986D01*
X58760000Y-58137333D01*
X58760000Y-58137323D01*
X58763676Y-58100000D01*
X58760000Y-58062677D01*
X58760000Y-54037322D01*
X58763676Y-53999999D01*
X58760000Y-53962676D01*
X58760000Y-53962667D01*
X58749003Y-53851014D01*
X58705546Y-53707753D01*
X58700860Y-53698986D01*
X58634974Y-53575723D01*
X58563799Y-53488997D01*
X58540001Y-53459999D01*
X58511003Y-53436201D01*
X56863804Y-51789003D01*
X56840001Y-51759999D01*
X56724276Y-51665026D01*
X56592247Y-51594454D01*
X56448986Y-51550997D01*
X56438438Y-51549958D01*
X56513560Y-51377412D01*
X56557959Y-51173384D01*
X56561702Y-50964616D01*
X56524644Y-50759130D01*
X56448210Y-50564821D01*
X56430210Y-50531144D01*
X56224386Y-50505219D01*
X55679605Y-51050000D01*
X55693748Y-51064143D01*
X55517890Y-51240000D01*
X55510395Y-51240000D01*
X55500000Y-51229605D01*
X55489605Y-51240000D01*
X55482110Y-51240000D01*
X55306253Y-51064143D01*
X55320395Y-51050000D01*
X54775614Y-50505219D01*
X54569790Y-50531144D01*
X54486440Y-50722588D01*
X54442041Y-50926616D01*
X54438298Y-51135384D01*
X54475356Y-51340870D01*
X54551790Y-51535179D01*
X54569790Y-51568856D01*
X54713922Y-51587011D01*
X54676644Y-51624289D01*
X54560640Y-51797902D01*
X54480735Y-51990809D01*
X54440000Y-52195599D01*
X54440000Y-52404401D01*
X54480735Y-52609191D01*
X54555629Y-52790000D01*
X54187323Y-52790000D01*
X54150000Y-52786324D01*
X54112677Y-52790000D01*
X54112667Y-52790000D01*
X54001014Y-52800997D01*
X53857753Y-52844454D01*
X53725724Y-52915026D01*
X53609999Y-53009999D01*
X53586201Y-53038997D01*
X51288998Y-55336201D01*
X51260000Y-55359999D01*
X51236202Y-55388997D01*
X51236201Y-55388998D01*
X51165026Y-55475724D01*
X51094454Y-55607754D01*
X51050998Y-55751015D01*
X51036324Y-55900000D01*
X51040001Y-55937333D01*
X51040000Y-80162678D01*
X51036324Y-80200000D01*
X51040000Y-80237322D01*
X51040000Y-80237332D01*
X51050997Y-80348985D01*
X51060708Y-80380997D01*
X51094454Y-80492246D01*
X51165026Y-80624276D01*
X51198426Y-80664974D01*
X51259999Y-80740001D01*
X51289003Y-80763804D01*
X51708695Y-81183496D01*
X51540226Y-81296063D01*
X51396063Y-81440226D01*
X51282795Y-81609744D01*
X51211340Y-81782250D01*
X51098102Y-81804774D01*
X50909744Y-81882795D01*
X50740226Y-81996063D01*
X50596063Y-82140226D01*
X50482795Y-82309744D01*
X50404774Y-82498102D01*
X50365000Y-82698061D01*
X39720000Y-82698061D01*
X39720000Y-50325614D01*
X54955219Y-50325614D01*
X55500000Y-50870395D01*
X56044781Y-50325614D01*
X56018856Y-50119790D01*
X55827412Y-50036440D01*
X55623384Y-49992041D01*
X55414616Y-49988298D01*
X55209130Y-50025356D01*
X55014821Y-50101790D01*
X54981144Y-50119790D01*
X54955219Y-50325614D01*
X39720000Y-50325614D01*
X39720000Y-45951473D01*
X39824886Y-46108446D01*
X40261554Y-46545114D01*
X40775021Y-46888201D01*
X41345554Y-47124524D01*
X41951229Y-47245000D01*
X42568771Y-47245000D01*
X43174446Y-47124524D01*
X43744979Y-46888201D01*
X44258446Y-46545114D01*
X44695114Y-46108446D01*
X45038201Y-45594979D01*
X45274524Y-45024446D01*
X45395000Y-44418771D01*
X45395000Y-43801229D01*
X45274524Y-43195554D01*
X45038201Y-42625021D01*
X44695114Y-42111554D01*
X44258446Y-41674886D01*
X44066888Y-41546891D01*
X68158519Y-41546891D01*
X68255843Y-41821252D01*
X68404822Y-42071355D01*
X68599731Y-42287588D01*
X68833080Y-42461641D01*
X69095901Y-42586825D01*
X69243110Y-42631476D01*
X69473000Y-42510155D01*
X69473000Y-41317000D01*
X68279186Y-41317000D01*
X68158519Y-41546891D01*
X44066888Y-41546891D01*
X43744979Y-41331799D01*
X43174446Y-41095476D01*
X42568771Y-40975000D01*
X41951229Y-40975000D01*
X41345554Y-41095476D01*
X40775021Y-41331799D01*
X40261554Y-41674886D01*
X39824886Y-42111554D01*
X39720000Y-42268527D01*
X39720000Y-40833109D01*
X68158519Y-40833109D01*
X68279186Y-41063000D01*
X69473000Y-41063000D01*
X69473000Y-39869845D01*
X69727000Y-39869845D01*
X69727000Y-41063000D01*
X69747000Y-41063000D01*
X69747000Y-41317000D01*
X69727000Y-41317000D01*
X69727000Y-42510155D01*
X69956890Y-42631476D01*
X70104099Y-42586825D01*
X70366920Y-42461641D01*
X70600269Y-42287588D01*
X70795178Y-42071355D01*
X70864799Y-41954477D01*
X70899294Y-42019014D01*
X71084866Y-42245134D01*
X71310986Y-42430706D01*
X71568966Y-42568599D01*
X71848889Y-42653513D01*
X72067050Y-42675000D01*
X72212950Y-42675000D01*
X72431111Y-42653513D01*
X72711034Y-42568599D01*
X72969014Y-42430706D01*
X73195134Y-42245134D01*
X73380706Y-42019014D01*
X73410000Y-41964209D01*
X73439294Y-42019014D01*
X73624866Y-42245134D01*
X73850986Y-42430706D01*
X74108966Y-42568599D01*
X74388889Y-42653513D01*
X74607050Y-42675000D01*
X74752950Y-42675000D01*
X74971111Y-42653513D01*
X75251034Y-42568599D01*
X75509014Y-42430706D01*
X75735134Y-42245134D01*
X75920706Y-42019014D01*
X75950000Y-41964209D01*
X75979294Y-42019014D01*
X76164866Y-42245134D01*
X76390986Y-42430706D01*
X76648966Y-42568599D01*
X76928889Y-42653513D01*
X77147050Y-42675000D01*
X77292950Y-42675000D01*
X77511111Y-42653513D01*
X77791034Y-42568599D01*
X78049014Y-42430706D01*
X78275134Y-42245134D01*
X78460706Y-42019014D01*
X78490000Y-41964209D01*
X78519294Y-42019014D01*
X78704866Y-42245134D01*
X78930986Y-42430706D01*
X79188966Y-42568599D01*
X79468889Y-42653513D01*
X79687050Y-42675000D01*
X79832950Y-42675000D01*
X80051111Y-42653513D01*
X80331034Y-42568599D01*
X80589014Y-42430706D01*
X80815134Y-42245134D01*
X81000706Y-42019014D01*
X81030000Y-41964209D01*
X81059294Y-42019014D01*
X81244866Y-42245134D01*
X81470986Y-42430706D01*
X81728966Y-42568599D01*
X82008889Y-42653513D01*
X82227050Y-42675000D01*
X82372950Y-42675000D01*
X82591111Y-42653513D01*
X82871034Y-42568599D01*
X83129014Y-42430706D01*
X83355134Y-42245134D01*
X83379607Y-42215313D01*
X83400498Y-42284180D01*
X83459463Y-42394494D01*
X83538815Y-42491185D01*
X83635506Y-42570537D01*
X83745820Y-42629502D01*
X83865518Y-42665812D01*
X83990000Y-42678072D01*
X85690000Y-42678072D01*
X85814482Y-42665812D01*
X85934180Y-42629502D01*
X86044494Y-42570537D01*
X86141185Y-42491185D01*
X86220537Y-42394494D01*
X86279502Y-42284180D01*
X86315812Y-42164482D01*
X86328072Y-42040000D01*
X86328072Y-40340000D01*
X86315812Y-40215518D01*
X86279502Y-40095820D01*
X86220537Y-39985506D01*
X86141185Y-39888815D01*
X86044494Y-39809463D01*
X85934180Y-39750498D01*
X85814482Y-39714188D01*
X85690000Y-39701928D01*
X83990000Y-39701928D01*
X83865518Y-39714188D01*
X83745820Y-39750498D01*
X83635506Y-39809463D01*
X83538815Y-39888815D01*
X83459463Y-39985506D01*
X83400498Y-40095820D01*
X83379607Y-40164687D01*
X83355134Y-40134866D01*
X83129014Y-39949294D01*
X82871034Y-39811401D01*
X82591111Y-39726487D01*
X82372950Y-39705000D01*
X82227050Y-39705000D01*
X82008889Y-39726487D01*
X81728966Y-39811401D01*
X81470986Y-39949294D01*
X81244866Y-40134866D01*
X81059294Y-40360986D01*
X81030000Y-40415791D01*
X81000706Y-40360986D01*
X80815134Y-40134866D01*
X80589014Y-39949294D01*
X80331034Y-39811401D01*
X80051111Y-39726487D01*
X79832950Y-39705000D01*
X79687050Y-39705000D01*
X79468889Y-39726487D01*
X79188966Y-39811401D01*
X78930986Y-39949294D01*
X78704866Y-40134866D01*
X78519294Y-40360986D01*
X78490000Y-40415791D01*
X78460706Y-40360986D01*
X78275134Y-40134866D01*
X78049014Y-39949294D01*
X77791034Y-39811401D01*
X77511111Y-39726487D01*
X77292950Y-39705000D01*
X77147050Y-39705000D01*
X76928889Y-39726487D01*
X76648966Y-39811401D01*
X76390986Y-39949294D01*
X76164866Y-40134866D01*
X75979294Y-40360986D01*
X75950000Y-40415791D01*
X75920706Y-40360986D01*
X75735134Y-40134866D01*
X75509014Y-39949294D01*
X75251034Y-39811401D01*
X74971111Y-39726487D01*
X74752950Y-39705000D01*
X74607050Y-39705000D01*
X74388889Y-39726487D01*
X74108966Y-39811401D01*
X73850986Y-39949294D01*
X73624866Y-40134866D01*
X73439294Y-40360986D01*
X73410000Y-40415791D01*
X73380706Y-40360986D01*
X73195134Y-40134866D01*
X72969014Y-39949294D01*
X72711034Y-39811401D01*
X72431111Y-39726487D01*
X72212950Y-39705000D01*
X72067050Y-39705000D01*
X71848889Y-39726487D01*
X71568966Y-39811401D01*
X71310986Y-39949294D01*
X71084866Y-40134866D01*
X70899294Y-40360986D01*
X70864799Y-40425523D01*
X70795178Y-40308645D01*
X70600269Y-40092412D01*
X70366920Y-39918359D01*
X70104099Y-39793175D01*
X69956890Y-39748524D01*
X69727000Y-39869845D01*
X69473000Y-39869845D01*
X69243110Y-39748524D01*
X69095901Y-39793175D01*
X68833080Y-39918359D01*
X68599731Y-40092412D01*
X68404822Y-40308645D01*
X68255843Y-40558748D01*
X68158519Y-40833109D01*
X39720000Y-40833109D01*
X39720000Y-33970000D01*
X136400000Y-33970000D01*
X136400000Y-42268527D01*
G36*
X70410000Y-74184802D02*
G01*
X70410001Y-77832658D01*
X70410000Y-77832668D01*
X70410000Y-79135199D01*
X70063804Y-78789003D01*
X70040001Y-78759999D01*
X69924276Y-78665026D01*
X69792247Y-78594454D01*
X69648986Y-78550997D01*
X69537333Y-78540000D01*
X69537322Y-78540000D01*
X69500000Y-78536324D01*
X69462678Y-78540000D01*
X66857323Y-78540000D01*
X66820000Y-78536324D01*
X66782677Y-78540000D01*
X66782667Y-78540000D01*
X66671014Y-78550997D01*
X66527753Y-78594454D01*
X66395723Y-78665026D01*
X66312083Y-78733668D01*
X66279999Y-78759999D01*
X66256201Y-78788998D01*
X65579002Y-79466197D01*
X65549999Y-79489999D01*
X65494871Y-79557174D01*
X65455026Y-79605724D01*
X65435674Y-79641928D01*
X65240000Y-79641928D01*
X65115518Y-79654188D01*
X64995820Y-79690498D01*
X64885506Y-79749463D01*
X64788815Y-79828815D01*
X64709463Y-79925506D01*
X64650498Y-80035820D01*
X64614188Y-80155518D01*
X64601928Y-80280000D01*
X64601928Y-81980000D01*
X64614188Y-82104482D01*
X64650498Y-82224180D01*
X64709463Y-82334494D01*
X64788815Y-82431185D01*
X64885506Y-82510537D01*
X64995820Y-82569502D01*
X65115518Y-82605812D01*
X65240000Y-82618072D01*
X65330000Y-82618072D01*
X65330000Y-82652678D01*
X65326324Y-82690000D01*
X65330000Y-82727322D01*
X65330000Y-82727333D01*
X65340997Y-82838986D01*
X65384454Y-82982247D01*
X65455026Y-83114276D01*
X65550000Y-83230001D01*
X65578998Y-83253799D01*
X66736205Y-84411008D01*
X66759999Y-84440001D01*
X66788992Y-84463795D01*
X66788996Y-84463799D01*
X66859685Y-84521811D01*
X66875724Y-84534974D01*
X67007753Y-84605546D01*
X67151014Y-84649003D01*
X67262667Y-84660000D01*
X67262676Y-84660000D01*
X67299999Y-84663676D01*
X67337322Y-84660000D01*
X69185199Y-84660000D01*
X69687974Y-85162776D01*
X69627000Y-85223750D01*
X69627000Y-86073000D01*
X69647000Y-86073000D01*
X69647000Y-86327000D01*
X69627000Y-86327000D01*
X69627000Y-86347000D01*
X69373000Y-86347000D01*
X69373000Y-86327000D01*
X69353000Y-86327000D01*
X69353000Y-86073000D01*
X69373000Y-86073000D01*
X69373000Y-85223750D01*
X69214250Y-85065000D01*
X68750000Y-85061928D01*
X68625518Y-85074188D01*
X68505820Y-85110498D01*
X68395506Y-85169463D01*
X68298815Y-85248815D01*
X68219463Y-85345506D01*
X68160498Y-85455820D01*
X68146091Y-85503314D01*
X68103937Y-85440226D01*
X67959774Y-85296063D01*
X67790256Y-85182795D01*
X67601898Y-85104774D01*
X67401939Y-85065000D01*
X67198061Y-85065000D01*
X66998102Y-85104774D01*
X66809744Y-85182795D01*
X66640226Y-85296063D01*
X66496063Y-85440226D01*
X66382795Y-85609744D01*
X66304774Y-85798102D01*
X66265000Y-85998061D01*
X66265000Y-86201939D01*
X66304774Y-86401898D01*
X66382795Y-86590256D01*
X66418512Y-86643711D01*
X66035000Y-86260199D01*
X66035000Y-86198061D01*
X65995226Y-85998102D01*
X65917205Y-85809744D01*
X65803937Y-85640226D01*
X65659774Y-85496063D01*
X65490256Y-85382795D01*
X65301898Y-85304774D01*
X65101939Y-85265000D01*
X64898061Y-85265000D01*
X64698102Y-85304774D01*
X64509744Y-85382795D01*
X64340226Y-85496063D01*
X64196063Y-85640226D01*
X64082795Y-85809744D01*
X64004774Y-85998102D01*
X63965000Y-86198061D01*
X63965000Y-86401939D01*
X64004774Y-86601898D01*
X64082795Y-86790256D01*
X64196063Y-86959774D01*
X64340226Y-87103937D01*
X64509744Y-87217205D01*
X64698102Y-87295226D01*
X64898061Y-87335000D01*
X64960199Y-87335000D01*
X66936201Y-89311003D01*
X66959999Y-89340001D01*
X66988997Y-89363799D01*
X67075723Y-89434974D01*
X67207753Y-89505546D01*
X67351014Y-89549003D01*
X67462667Y-89560000D01*
X67462677Y-89560000D01*
X67500000Y-89563676D01*
X67537323Y-89560000D01*
X68168954Y-89560000D01*
X68219463Y-89654494D01*
X68251938Y-89694065D01*
X68198102Y-89704774D01*
X68009744Y-89782795D01*
X67840226Y-89896063D01*
X67696063Y-90040226D01*
X67582795Y-90209744D01*
X67504774Y-90398102D01*
X67465000Y-90598061D01*
X67465000Y-90801939D01*
X67504774Y-91001898D01*
X67582795Y-91190256D01*
X67696063Y-91359774D01*
X67840226Y-91503937D01*
X68009744Y-91617205D01*
X68115757Y-91661118D01*
X68111928Y-91700000D01*
X68111928Y-92700000D01*
X68124188Y-92824482D01*
X68131929Y-92850000D01*
X68124188Y-92875518D01*
X68111928Y-93000000D01*
X68111928Y-94000000D01*
X68115868Y-94040000D01*
X67614802Y-94040000D01*
X63860000Y-90285199D01*
X63860000Y-82437333D01*
X63863677Y-82400000D01*
X63849003Y-82251014D01*
X63805546Y-82107753D01*
X63734974Y-81975724D01*
X63663799Y-81888997D01*
X63640001Y-81859999D01*
X63611004Y-81836202D01*
X53860000Y-72085199D01*
X53860000Y-66725000D01*
X54436928Y-66725000D01*
X54449188Y-66849482D01*
X54485498Y-66969180D01*
X54544463Y-67079494D01*
X54623815Y-67176185D01*
X54720506Y-67255537D01*
X54830820Y-67314502D01*
X54950518Y-67350812D01*
X55075000Y-67363072D01*
X55214250Y-67360000D01*
X55373000Y-67201250D01*
X55373000Y-66427000D01*
X55627000Y-66427000D01*
X55627000Y-67201250D01*
X55785750Y-67360000D01*
X55925000Y-67363072D01*
X56049482Y-67350812D01*
X56169180Y-67314502D01*
X56279494Y-67255537D01*
X56376185Y-67176185D01*
X56455537Y-67079494D01*
X56514502Y-66969180D01*
X56550812Y-66849482D01*
X56563072Y-66725000D01*
X56560000Y-66585750D01*
X56401250Y-66427000D01*
X55627000Y-66427000D01*
X55373000Y-66427000D01*
X54598750Y-66427000D01*
X54440000Y-66585750D01*
X54436928Y-66725000D01*
X53860000Y-66725000D01*
X53860000Y-65234802D01*
X54186201Y-65561003D01*
X54209999Y-65590001D01*
X54238997Y-65613799D01*
X54325723Y-65684974D01*
X54401936Y-65725711D01*
X54449146Y-65750945D01*
X54436928Y-65875000D01*
X54440000Y-66014250D01*
X54598750Y-66173000D01*
X55373000Y-66173000D01*
X55373000Y-66153000D01*
X55627000Y-66153000D01*
X55627000Y-66173000D01*
X56401250Y-66173000D01*
X56560000Y-66014250D01*
X56563072Y-65875000D01*
X56550812Y-65750518D01*
X56514502Y-65630820D01*
X56455537Y-65520506D01*
X56453483Y-65518003D01*
X56519265Y-65359191D01*
X56560000Y-65154401D01*
X56560000Y-64945599D01*
X56519265Y-64740809D01*
X56439360Y-64547902D01*
X56357240Y-64425000D01*
X56439360Y-64302098D01*
X56519265Y-64109191D01*
X56560000Y-63904401D01*
X56560000Y-63695599D01*
X56519265Y-63490809D01*
X56444371Y-63310000D01*
X59535199Y-63310000D01*
X70410000Y-74184802D01*
X70410000Y-74184802D01*
G37*
X70410000Y-74184802D02*
X70410001Y-77832658D01*
X70410000Y-77832668D01*
X70410000Y-79135199D01*
X70063804Y-78789003D01*
X70040001Y-78759999D01*
X69924276Y-78665026D01*
X69792247Y-78594454D01*
X69648986Y-78550997D01*
X69537333Y-78540000D01*
X69537322Y-78540000D01*
X69500000Y-78536324D01*
X69462678Y-78540000D01*
X66857323Y-78540000D01*
X66820000Y-78536324D01*
X66782677Y-78540000D01*
X66782667Y-78540000D01*
X66671014Y-78550997D01*
X66527753Y-78594454D01*
X66395723Y-78665026D01*
X66312083Y-78733668D01*
X66279999Y-78759999D01*
X66256201Y-78788998D01*
X65579002Y-79466197D01*
X65549999Y-79489999D01*
X65494871Y-79557174D01*
X65455026Y-79605724D01*
X65435674Y-79641928D01*
X65240000Y-79641928D01*
X65115518Y-79654188D01*
X64995820Y-79690498D01*
X64885506Y-79749463D01*
X64788815Y-79828815D01*
X64709463Y-79925506D01*
X64650498Y-80035820D01*
X64614188Y-80155518D01*
X64601928Y-80280000D01*
X64601928Y-81980000D01*
X64614188Y-82104482D01*
X64650498Y-82224180D01*
X64709463Y-82334494D01*
X64788815Y-82431185D01*
X64885506Y-82510537D01*
X64995820Y-82569502D01*
X65115518Y-82605812D01*
X65240000Y-82618072D01*
X65330000Y-82618072D01*
X65330000Y-82652678D01*
X65326324Y-82690000D01*
X65330000Y-82727322D01*
X65330000Y-82727333D01*
X65340997Y-82838986D01*
X65384454Y-82982247D01*
X65455026Y-83114276D01*
X65550000Y-83230001D01*
X65578998Y-83253799D01*
X66736205Y-84411008D01*
X66759999Y-84440001D01*
X66788992Y-84463795D01*
X66788996Y-84463799D01*
X66859685Y-84521811D01*
X66875724Y-84534974D01*
X67007753Y-84605546D01*
X67151014Y-84649003D01*
X67262667Y-84660000D01*
X67262676Y-84660000D01*
X67299999Y-84663676D01*
X67337322Y-84660000D01*
X69185199Y-84660000D01*
X69687974Y-85162776D01*
X69627000Y-85223750D01*
X69627000Y-86073000D01*
X69647000Y-86073000D01*
X69647000Y-86327000D01*
X69627000Y-86327000D01*
X69627000Y-86347000D01*
X69373000Y-86347000D01*
X69373000Y-86327000D01*
X69353000Y-86327000D01*
X69353000Y-86073000D01*
X69373000Y-86073000D01*
X69373000Y-85223750D01*
X69214250Y-85065000D01*
X68750000Y-85061928D01*
X68625518Y-85074188D01*
X68505820Y-85110498D01*
X68395506Y-85169463D01*
X68298815Y-85248815D01*
X68219463Y-85345506D01*
X68160498Y-85455820D01*
X68146091Y-85503314D01*
X68103937Y-85440226D01*
X67959774Y-85296063D01*
X67790256Y-85182795D01*
X67601898Y-85104774D01*
X67401939Y-85065000D01*
X67198061Y-85065000D01*
X66998102Y-85104774D01*
X66809744Y-85182795D01*
X66640226Y-85296063D01*
X66496063Y-85440226D01*
X66382795Y-85609744D01*
X66304774Y-85798102D01*
X66265000Y-85998061D01*
X66265000Y-86201939D01*
X66304774Y-86401898D01*
X66382795Y-86590256D01*
X66418512Y-86643711D01*
X66035000Y-86260199D01*
X66035000Y-86198061D01*
X65995226Y-85998102D01*
X65917205Y-85809744D01*
X65803937Y-85640226D01*
X65659774Y-85496063D01*
X65490256Y-85382795D01*
X65301898Y-85304774D01*
X65101939Y-85265000D01*
X64898061Y-85265000D01*
X64698102Y-85304774D01*
X64509744Y-85382795D01*
X64340226Y-85496063D01*
X64196063Y-85640226D01*
X64082795Y-85809744D01*
X64004774Y-85998102D01*
X63965000Y-86198061D01*
X63965000Y-86401939D01*
X64004774Y-86601898D01*
X64082795Y-86790256D01*
X64196063Y-86959774D01*
X64340226Y-87103937D01*
X64509744Y-87217205D01*
X64698102Y-87295226D01*
X64898061Y-87335000D01*
X64960199Y-87335000D01*
X66936201Y-89311003D01*
X66959999Y-89340001D01*
X66988997Y-89363799D01*
X67075723Y-89434974D01*
X67207753Y-89505546D01*
X67351014Y-89549003D01*
X67462667Y-89560000D01*
X67462677Y-89560000D01*
X67500000Y-89563676D01*
X67537323Y-89560000D01*
X68168954Y-89560000D01*
X68219463Y-89654494D01*
X68251938Y-89694065D01*
X68198102Y-89704774D01*
X68009744Y-89782795D01*
X67840226Y-89896063D01*
X67696063Y-90040226D01*
X67582795Y-90209744D01*
X67504774Y-90398102D01*
X67465000Y-90598061D01*
X67465000Y-90801939D01*
X67504774Y-91001898D01*
X67582795Y-91190256D01*
X67696063Y-91359774D01*
X67840226Y-91503937D01*
X68009744Y-91617205D01*
X68115757Y-91661118D01*
X68111928Y-91700000D01*
X68111928Y-92700000D01*
X68124188Y-92824482D01*
X68131929Y-92850000D01*
X68124188Y-92875518D01*
X68111928Y-93000000D01*
X68111928Y-94000000D01*
X68115868Y-94040000D01*
X67614802Y-94040000D01*
X63860000Y-90285199D01*
X63860000Y-82437333D01*
X63863677Y-82400000D01*
X63849003Y-82251014D01*
X63805546Y-82107753D01*
X63734974Y-81975724D01*
X63663799Y-81888997D01*
X63640001Y-81859999D01*
X63611004Y-81836202D01*
X53860000Y-72085199D01*
X53860000Y-66725000D01*
X54436928Y-66725000D01*
X54449188Y-66849482D01*
X54485498Y-66969180D01*
X54544463Y-67079494D01*
X54623815Y-67176185D01*
X54720506Y-67255537D01*
X54830820Y-67314502D01*
X54950518Y-67350812D01*
X55075000Y-67363072D01*
X55214250Y-67360000D01*
X55373000Y-67201250D01*
X55373000Y-66427000D01*
X55627000Y-66427000D01*
X55627000Y-67201250D01*
X55785750Y-67360000D01*
X55925000Y-67363072D01*
X56049482Y-67350812D01*
X56169180Y-67314502D01*
X56279494Y-67255537D01*
X56376185Y-67176185D01*
X56455537Y-67079494D01*
X56514502Y-66969180D01*
X56550812Y-66849482D01*
X56563072Y-66725000D01*
X56560000Y-66585750D01*
X56401250Y-66427000D01*
X55627000Y-66427000D01*
X55373000Y-66427000D01*
X54598750Y-66427000D01*
X54440000Y-66585750D01*
X54436928Y-66725000D01*
X53860000Y-66725000D01*
X53860000Y-65234802D01*
X54186201Y-65561003D01*
X54209999Y-65590001D01*
X54238997Y-65613799D01*
X54325723Y-65684974D01*
X54401936Y-65725711D01*
X54449146Y-65750945D01*
X54436928Y-65875000D01*
X54440000Y-66014250D01*
X54598750Y-66173000D01*
X55373000Y-66173000D01*
X55373000Y-66153000D01*
X55627000Y-66153000D01*
X55627000Y-66173000D01*
X56401250Y-66173000D01*
X56560000Y-66014250D01*
X56563072Y-65875000D01*
X56550812Y-65750518D01*
X56514502Y-65630820D01*
X56455537Y-65520506D01*
X56453483Y-65518003D01*
X56519265Y-65359191D01*
X56560000Y-65154401D01*
X56560000Y-64945599D01*
X56519265Y-64740809D01*
X56439360Y-64547902D01*
X56357240Y-64425000D01*
X56439360Y-64302098D01*
X56519265Y-64109191D01*
X56560000Y-63904401D01*
X56560000Y-63695599D01*
X56519265Y-63490809D01*
X56444371Y-63310000D01*
X59535199Y-63310000D01*
X70410000Y-74184802D01*
G36*
X68757000Y-81003000D02*
G01*
X68777000Y-81003000D01*
X68777000Y-81257000D01*
X68757000Y-81257000D01*
X68757000Y-82450155D01*
X68986890Y-82571476D01*
X69134099Y-82526825D01*
X69317395Y-82439520D01*
X69360025Y-82519275D01*
X69399870Y-82567825D01*
X69454998Y-82635000D01*
X69484001Y-82658802D01*
X70236201Y-83411002D01*
X70259999Y-83440001D01*
X70375724Y-83534974D01*
X70507753Y-83605546D01*
X70651014Y-83649003D01*
X70762667Y-83660000D01*
X70762676Y-83660000D01*
X70799999Y-83663676D01*
X70837322Y-83660000D01*
X74685199Y-83660000D01*
X77340001Y-86314803D01*
X77340000Y-88285198D01*
X76988998Y-88636201D01*
X76960000Y-88659999D01*
X76936202Y-88688997D01*
X76936201Y-88688998D01*
X76865026Y-88775724D01*
X76794454Y-88907754D01*
X76764180Y-89007558D01*
X76751614Y-89048985D01*
X76750998Y-89051015D01*
X76736324Y-89200000D01*
X76740001Y-89237332D01*
X76740000Y-91062913D01*
X76625518Y-91074188D01*
X76505820Y-91110498D01*
X76395506Y-91169463D01*
X76298815Y-91248815D01*
X76219463Y-91345506D01*
X76160498Y-91455820D01*
X76160000Y-91457462D01*
X76160000Y-88937322D01*
X76163676Y-88900000D01*
X76160000Y-88862677D01*
X76160000Y-88862667D01*
X76149003Y-88751014D01*
X76105546Y-88607753D01*
X76098437Y-88594454D01*
X76066658Y-88535000D01*
X76101939Y-88535000D01*
X76301898Y-88495226D01*
X76490256Y-88417205D01*
X76659774Y-88303937D01*
X76803937Y-88159774D01*
X76917205Y-87990256D01*
X76995226Y-87801898D01*
X77035000Y-87601939D01*
X77035000Y-87398061D01*
X76995226Y-87198102D01*
X76917205Y-87009744D01*
X76803937Y-86840226D01*
X76659774Y-86696063D01*
X76490256Y-86582795D01*
X76301898Y-86504774D01*
X76101939Y-86465000D01*
X75898061Y-86465000D01*
X75698102Y-86504774D01*
X75509744Y-86582795D01*
X75340226Y-86696063D01*
X75296289Y-86740000D01*
X74884132Y-86740000D01*
X74888072Y-86700000D01*
X74885000Y-86485750D01*
X74726250Y-86327000D01*
X73627000Y-86327000D01*
X73627000Y-86347000D01*
X73373000Y-86347000D01*
X73373000Y-86327000D01*
X73353000Y-86327000D01*
X73353000Y-86073000D01*
X73373000Y-86073000D01*
X73373000Y-85223750D01*
X73627000Y-85223750D01*
X73627000Y-86073000D01*
X74726250Y-86073000D01*
X74885000Y-85914250D01*
X74888072Y-85700000D01*
X74875812Y-85575518D01*
X74839502Y-85455820D01*
X74780537Y-85345506D01*
X74701185Y-85248815D01*
X74604494Y-85169463D01*
X74494180Y-85110498D01*
X74374482Y-85074188D01*
X74250000Y-85061928D01*
X73785750Y-85065000D01*
X73627000Y-85223750D01*
X73373000Y-85223750D01*
X73214250Y-85065000D01*
X72750000Y-85061928D01*
X72625518Y-85074188D01*
X72505820Y-85110498D01*
X72395506Y-85169463D01*
X72298815Y-85248815D01*
X72219463Y-85345506D01*
X72160498Y-85455820D01*
X72153545Y-85478743D01*
X70063804Y-83389003D01*
X70040001Y-83359999D01*
X69924276Y-83265026D01*
X69792247Y-83194454D01*
X69648986Y-83150997D01*
X69537333Y-83140000D01*
X69537322Y-83140000D01*
X69500000Y-83136324D01*
X69462678Y-83140000D01*
X67614803Y-83140000D01*
X67076859Y-82602057D01*
X67184180Y-82569502D01*
X67294494Y-82510537D01*
X67391185Y-82431185D01*
X67470537Y-82334494D01*
X67529502Y-82224180D01*
X67553966Y-82143534D01*
X67629731Y-82227588D01*
X67863080Y-82401641D01*
X68125901Y-82526825D01*
X68273110Y-82571476D01*
X68503000Y-82450155D01*
X68503000Y-81257000D01*
X68483000Y-81257000D01*
X68483000Y-81003000D01*
X68503000Y-81003000D01*
X68503000Y-80983000D01*
X68757000Y-80983000D01*
X68757000Y-81003000D01*
X68757000Y-81003000D01*
G37*
X68757000Y-81003000D02*
X68777000Y-81003000D01*
X68777000Y-81257000D01*
X68757000Y-81257000D01*
X68757000Y-82450155D01*
X68986890Y-82571476D01*
X69134099Y-82526825D01*
X69317395Y-82439520D01*
X69360025Y-82519275D01*
X69399870Y-82567825D01*
X69454998Y-82635000D01*
X69484001Y-82658802D01*
X70236201Y-83411002D01*
X70259999Y-83440001D01*
X70375724Y-83534974D01*
X70507753Y-83605546D01*
X70651014Y-83649003D01*
X70762667Y-83660000D01*
X70762676Y-83660000D01*
X70799999Y-83663676D01*
X70837322Y-83660000D01*
X74685199Y-83660000D01*
X77340001Y-86314803D01*
X77340000Y-88285198D01*
X76988998Y-88636201D01*
X76960000Y-88659999D01*
X76936202Y-88688997D01*
X76936201Y-88688998D01*
X76865026Y-88775724D01*
X76794454Y-88907754D01*
X76764180Y-89007558D01*
X76751614Y-89048985D01*
X76750998Y-89051015D01*
X76736324Y-89200000D01*
X76740001Y-89237332D01*
X76740000Y-91062913D01*
X76625518Y-91074188D01*
X76505820Y-91110498D01*
X76395506Y-91169463D01*
X76298815Y-91248815D01*
X76219463Y-91345506D01*
X76160498Y-91455820D01*
X76160000Y-91457462D01*
X76160000Y-88937322D01*
X76163676Y-88900000D01*
X76160000Y-88862677D01*
X76160000Y-88862667D01*
X76149003Y-88751014D01*
X76105546Y-88607753D01*
X76098437Y-88594454D01*
X76066658Y-88535000D01*
X76101939Y-88535000D01*
X76301898Y-88495226D01*
X76490256Y-88417205D01*
X76659774Y-88303937D01*
X76803937Y-88159774D01*
X76917205Y-87990256D01*
X76995226Y-87801898D01*
X77035000Y-87601939D01*
X77035000Y-87398061D01*
X76995226Y-87198102D01*
X76917205Y-87009744D01*
X76803937Y-86840226D01*
X76659774Y-86696063D01*
X76490256Y-86582795D01*
X76301898Y-86504774D01*
X76101939Y-86465000D01*
X75898061Y-86465000D01*
X75698102Y-86504774D01*
X75509744Y-86582795D01*
X75340226Y-86696063D01*
X75296289Y-86740000D01*
X74884132Y-86740000D01*
X74888072Y-86700000D01*
X74885000Y-86485750D01*
X74726250Y-86327000D01*
X73627000Y-86327000D01*
X73627000Y-86347000D01*
X73373000Y-86347000D01*
X73373000Y-86327000D01*
X73353000Y-86327000D01*
X73353000Y-86073000D01*
X73373000Y-86073000D01*
X73373000Y-85223750D01*
X73627000Y-85223750D01*
X73627000Y-86073000D01*
X74726250Y-86073000D01*
X74885000Y-85914250D01*
X74888072Y-85700000D01*
X74875812Y-85575518D01*
X74839502Y-85455820D01*
X74780537Y-85345506D01*
X74701185Y-85248815D01*
X74604494Y-85169463D01*
X74494180Y-85110498D01*
X74374482Y-85074188D01*
X74250000Y-85061928D01*
X73785750Y-85065000D01*
X73627000Y-85223750D01*
X73373000Y-85223750D01*
X73214250Y-85065000D01*
X72750000Y-85061928D01*
X72625518Y-85074188D01*
X72505820Y-85110498D01*
X72395506Y-85169463D01*
X72298815Y-85248815D01*
X72219463Y-85345506D01*
X72160498Y-85455820D01*
X72153545Y-85478743D01*
X70063804Y-83389003D01*
X70040001Y-83359999D01*
X69924276Y-83265026D01*
X69792247Y-83194454D01*
X69648986Y-83150997D01*
X69537333Y-83140000D01*
X69537322Y-83140000D01*
X69500000Y-83136324D01*
X69462678Y-83140000D01*
X67614803Y-83140000D01*
X67076859Y-82602057D01*
X67184180Y-82569502D01*
X67294494Y-82510537D01*
X67391185Y-82431185D01*
X67470537Y-82334494D01*
X67529502Y-82224180D01*
X67553966Y-82143534D01*
X67629731Y-82227588D01*
X67863080Y-82401641D01*
X68125901Y-82526825D01*
X68273110Y-82571476D01*
X68503000Y-82450155D01*
X68503000Y-81257000D01*
X68483000Y-81257000D01*
X68483000Y-81003000D01*
X68503000Y-81003000D01*
X68503000Y-80983000D01*
X68757000Y-80983000D01*
X68757000Y-81003000D01*
M02*
