M48
; DRILL file {KiCad (5.1.2)-2} date 04/05/2021 12:01:05
; FORMAT={-:-/ absolute / metric / decimal}
; #@! TF.CreationDate,2021-05-04T12:01:05-04:00
; #@! TF.GenerationSoftware,Kicad,Pcbnew,(5.1.2)-2
FMAT,2
METRIC
T1C0.400
T2C0.500
T3C1.000
T4C3.200
%
G90
G05
T1
X51.4Y-82.8
X52.2Y-82.1
X65.0Y-86.3
X67.3Y-86.1
X68.5Y-90.7
X71.1Y-90.0
X72.8Y-90.8
X74.6Y-90.7
X76.0Y-87.5
X109.75Y-104.3
T2
X117.5Y-107.5
X118.75Y-107.5
X120.0Y-107.5
X121.25Y-107.5
X55.5Y-51.05
X55.5Y-52.3
X55.5Y-53.55
X55.5Y-54.8
X55.5Y-56.05
X55.5Y-57.3
X54.5Y-98.3
X54.5Y-99.55
X54.5Y-100.8
X54.5Y-102.05
X55.5Y-89.95
X55.5Y-91.2
X55.5Y-92.45
X55.5Y-93.7
X117.5Y-42.5
X118.75Y-42.5
X120.0Y-42.5
X121.25Y-42.5
X55.5Y-62.55
X55.5Y-63.8
X55.5Y-65.05
X55.5Y-66.3
T3
X66.09Y-81.13
X68.63Y-81.13
X71.17Y-81.13
X73.71Y-81.13
X76.25Y-81.13
X78.79Y-81.13
X69.58Y-64.1
X72.12Y-64.1
X74.66Y-64.1
X77.2Y-64.1
X79.74Y-64.1
X82.28Y-64.1
X84.82Y-64.1
X69.6Y-41.19
X72.14Y-41.19
X74.68Y-41.19
X77.22Y-41.19
X79.76Y-41.19
X82.3Y-41.19
X84.84Y-41.19
T4
X133.86Y-105.11
X42.26Y-44.11
X133.86Y-44.11
X42.21Y-105.11
T0
M30
