G04 #@! TF.GenerationSoftware,KiCad,Pcbnew,(5.1.2)-2*
G04 #@! TF.CreationDate,2021-04-07T22:17:05-04:00*
G04 #@! TF.ProjectId,Magnetometer_A,4d61676e-6574-46f6-9d65-7465725f412e,rev?*
G04 #@! TF.SameCoordinates,Original*
G04 #@! TF.FileFunction,Copper,L1,Top*
G04 #@! TF.FilePolarity,Positive*
%FSLAX46Y46*%
G04 Gerber Fmt 4.6, Leading zero omitted, Abs format (unit mm)*
G04 Created by KiCad (PCBNEW (5.1.2)-2) date 2021-04-07 22:17:05*
%MOMM*%
%LPD*%
G04 APERTURE LIST*
%ADD10R,1.700000X1.700000*%
%ADD11O,1.700000X1.700000*%
%ADD12C,5.000000*%
%ADD13R,0.850000X0.850000*%
%ADD14C,0.850000*%
%ADD15R,1.000000X1.500000*%
%ADD16C,0.800000*%
%ADD17C,0.250000*%
%ADD18C,0.254000*%
G04 APERTURE END LIST*
D10*
X99100000Y-59000000D03*
D11*
X99100000Y-56460000D03*
X99100000Y-53920000D03*
X99100000Y-51380000D03*
D12*
X38900000Y-36175000D03*
X115100000Y-127750000D03*
X115100000Y-36150000D03*
X38900000Y-127750000D03*
D13*
X114000000Y-46000000D03*
D14*
X114000000Y-44750000D03*
X114000000Y-43500000D03*
X114000000Y-42250000D03*
X41000000Y-42350000D03*
X41000000Y-43600000D03*
X41000000Y-44850000D03*
D13*
X41000000Y-46100000D03*
D14*
X76750000Y-114600000D03*
X78000000Y-114600000D03*
X79250000Y-114600000D03*
D13*
X80500000Y-114600000D03*
D15*
X69650000Y-96700000D03*
X68350000Y-96700000D03*
X56700000Y-96700000D03*
X58000000Y-96700000D03*
X59300000Y-96700000D03*
X62800000Y-96700000D03*
X64100000Y-96700000D03*
X65400000Y-96700000D03*
X65300000Y-100700000D03*
X64000000Y-100700000D03*
X62700000Y-100700000D03*
X69650000Y-100700000D03*
X68350000Y-100700000D03*
D10*
X91420000Y-85270000D03*
D11*
X91420000Y-87810000D03*
X91420000Y-90350000D03*
X91420000Y-92890000D03*
X91420000Y-95430000D03*
X91420000Y-97970000D03*
X91420000Y-100510000D03*
D15*
X59300000Y-100700000D03*
X58000000Y-100700000D03*
X56700000Y-100700000D03*
D11*
X114320000Y-85240000D03*
X114320000Y-87780000D03*
X114320000Y-90320000D03*
X114320000Y-92860000D03*
X114320000Y-95400000D03*
X114320000Y-97940000D03*
D10*
X114320000Y-100480000D03*
D15*
X62700000Y-92700000D03*
X64000000Y-92700000D03*
X65300000Y-92700000D03*
D10*
X74550000Y-91330000D03*
D11*
X74550000Y-93870000D03*
X74550000Y-96410000D03*
X74550000Y-98950000D03*
X74550000Y-101490000D03*
X74550000Y-104030000D03*
D14*
X102750000Y-114600000D03*
X104000000Y-114600000D03*
X105250000Y-114600000D03*
X106500000Y-114600000D03*
X107750000Y-114600000D03*
D13*
X109000000Y-114600000D03*
X97700000Y-114600000D03*
D14*
X96450000Y-114600000D03*
X95200000Y-114600000D03*
X93950000Y-114600000D03*
D11*
X114000000Y-51380000D03*
X114000000Y-53920000D03*
X114000000Y-56460000D03*
D10*
X114000000Y-59000000D03*
D16*
X59900000Y-102900000D03*
X66800000Y-97700000D03*
X69800000Y-94600000D03*
X64500000Y-102800000D03*
X71300000Y-103500000D03*
X70300000Y-92500002D03*
X65000000Y-94799999D03*
X60999999Y-101300001D03*
D17*
X59300000Y-100700000D02*
X59300000Y-96700000D01*
X104000000Y-113800000D02*
X104000000Y-114600000D01*
X103000000Y-112800000D02*
X104000000Y-113800000D01*
X97400000Y-112800000D02*
X103000000Y-112800000D01*
X96450000Y-114600000D02*
X96450000Y-113750000D01*
X96450000Y-113750000D02*
X97400000Y-112800000D01*
X62700000Y-91700000D02*
X64000000Y-90400000D01*
X62700000Y-92700000D02*
X62700000Y-91700000D01*
X64000000Y-90400000D02*
X71900000Y-90400000D01*
X72830000Y-91330000D02*
X74550000Y-91330000D01*
X71900000Y-90400000D02*
X72830000Y-91330000D01*
X59300000Y-100700000D02*
X59300000Y-101700000D01*
X59300000Y-101700000D02*
X59300000Y-102300000D01*
X59300000Y-102300000D02*
X59900000Y-102900000D01*
X113900000Y-44850000D02*
X114000000Y-44750000D01*
X41000000Y-44850000D02*
X113900000Y-44850000D01*
X79250000Y-113250000D02*
X79250000Y-114600000D01*
X76500000Y-110500000D02*
X79250000Y-113250000D01*
X56300000Y-110500000D02*
X76500000Y-110500000D01*
X48800000Y-103000000D02*
X56300000Y-110500000D01*
X40398960Y-44850000D02*
X39700000Y-45548960D01*
X41000000Y-44850000D02*
X40398960Y-44850000D01*
X39700000Y-45548960D02*
X39700000Y-66700000D01*
X48800000Y-85900000D02*
X48800000Y-103000000D01*
X39700000Y-66700000D02*
X42700000Y-69700000D01*
X42700000Y-69700000D02*
X42700000Y-79800000D01*
X42700000Y-79800000D02*
X48800000Y-85900000D01*
X65800000Y-96700000D02*
X65400000Y-96700000D01*
X66800000Y-97700000D02*
X65800000Y-96700000D01*
X78850000Y-98950000D02*
X74550000Y-98950000D01*
X116600000Y-53980000D02*
X116600000Y-77800000D01*
X114000000Y-51380000D02*
X116600000Y-53980000D01*
X84000000Y-93800000D02*
X78850000Y-98950000D01*
X116600000Y-77800000D02*
X112000000Y-82400000D01*
X112000000Y-82400000D02*
X90200000Y-82400000D01*
X90200000Y-82400000D02*
X84000000Y-88600000D01*
X84000000Y-88600000D02*
X84000000Y-93800000D01*
X62700000Y-99900000D02*
X62700000Y-100700000D01*
X63600000Y-99000000D02*
X62700000Y-99900000D01*
X74550000Y-98950000D02*
X74500000Y-99000000D01*
X74500000Y-99000000D02*
X63600000Y-99000000D01*
X110800000Y-55800000D02*
X112680000Y-53920000D01*
X112680000Y-53920000D02*
X114000000Y-53920000D01*
X113000000Y-65400000D02*
X110800000Y-63200000D01*
X113000000Y-78600000D02*
X113000000Y-65400000D01*
X110800000Y-63200000D02*
X110800000Y-55800000D01*
X79190000Y-96410000D02*
X82600000Y-93000000D01*
X74550000Y-96410000D02*
X79190000Y-96410000D01*
X82600000Y-93000000D02*
X82600000Y-87600000D01*
X82600000Y-87600000D02*
X89800000Y-80400000D01*
X89800000Y-80400000D02*
X111200000Y-80400000D01*
X111200000Y-80400000D02*
X113000000Y-78600000D01*
X62800000Y-97500000D02*
X62800000Y-96700000D01*
X63800000Y-98500000D02*
X62800000Y-97500000D01*
X72500000Y-98500000D02*
X63800000Y-98500000D01*
X74550000Y-96410000D02*
X74550000Y-96450000D01*
X74550000Y-96450000D02*
X72500000Y-98500000D01*
X70600000Y-96700000D02*
X69650000Y-96700000D01*
X70900000Y-96400000D02*
X70600000Y-96700000D01*
X70900000Y-95100000D02*
X70900000Y-96400000D01*
X69800000Y-94600000D02*
X70400000Y-94600000D01*
X70400000Y-94600000D02*
X70900000Y-95100000D01*
X64899999Y-102400001D02*
X64500000Y-102800000D01*
X65300000Y-102000000D02*
X64899999Y-102400001D01*
X65300000Y-100700000D02*
X65300000Y-102000000D01*
X69650000Y-100700000D02*
X69650000Y-101850000D01*
X69650000Y-101850000D02*
X71300000Y-103500000D01*
X113900000Y-42350000D02*
X114000000Y-42250000D01*
X41000000Y-42350000D02*
X113900000Y-42350000D01*
X76750000Y-113650000D02*
X76750000Y-114600000D01*
X54200000Y-112100000D02*
X75200000Y-112100000D01*
X47100000Y-86700000D02*
X47100000Y-105000000D01*
X47100000Y-105000000D02*
X54200000Y-112100000D01*
X39850000Y-42350000D02*
X38200000Y-44000000D01*
X41000000Y-42350000D02*
X39850000Y-42350000D01*
X38200000Y-44000000D02*
X38200000Y-67400000D01*
X38200000Y-67400000D02*
X41200000Y-70400000D01*
X75200000Y-112100000D02*
X76750000Y-113650000D01*
X41200000Y-70400000D02*
X41200000Y-80800000D01*
X41200000Y-80800000D02*
X47100000Y-86700000D01*
X41100000Y-43500000D02*
X41000000Y-43600000D01*
X114000000Y-43500000D02*
X41100000Y-43500000D01*
X39000000Y-44800000D02*
X40200000Y-43600000D01*
X39000000Y-67000000D02*
X39000000Y-44800000D01*
X42000000Y-80300000D02*
X42000000Y-70000000D01*
X78000000Y-113500000D02*
X75900000Y-111400000D01*
X78000000Y-114600000D02*
X78000000Y-113500000D01*
X42000000Y-70000000D02*
X39000000Y-67000000D01*
X55400000Y-111400000D02*
X48000000Y-104000000D01*
X40200000Y-43600000D02*
X41000000Y-43600000D01*
X48000000Y-104000000D02*
X48000000Y-86300000D01*
X75900000Y-111400000D02*
X55400000Y-111400000D01*
X48000000Y-86300000D02*
X42000000Y-80300000D01*
X69900001Y-92900001D02*
X70300000Y-92500002D01*
X68350000Y-96700000D02*
X68350000Y-94450002D01*
X68350000Y-94450002D02*
X69900001Y-92900001D01*
X58000000Y-95700000D02*
X58000000Y-96700000D01*
X58700000Y-95000000D02*
X58000000Y-95700000D01*
X63500000Y-95000000D02*
X58700000Y-95000000D01*
X67300000Y-96700000D02*
X66600000Y-96000000D01*
X68350000Y-96700000D02*
X67300000Y-96700000D01*
X66600000Y-96000000D02*
X66600000Y-95100000D01*
X66600000Y-95100000D02*
X65574998Y-94074998D01*
X65574998Y-94074998D02*
X64425002Y-94074998D01*
X64425002Y-94074998D02*
X63500000Y-95000000D01*
X64100000Y-95699999D02*
X64600001Y-95199998D01*
X64600001Y-95199998D02*
X65000000Y-94799999D01*
X64100000Y-96700000D02*
X64100000Y-95699999D01*
X64000000Y-100700000D02*
X64000000Y-101700000D01*
X61899998Y-102200000D02*
X61399998Y-101700000D01*
X63500000Y-102200000D02*
X61899998Y-102200000D01*
X61399998Y-101700000D02*
X60999999Y-101300001D01*
X64000000Y-101700000D02*
X63500000Y-102200000D01*
X58000000Y-102600000D02*
X58000000Y-100700000D01*
X67400000Y-100700000D02*
X66800000Y-101300000D01*
X68350000Y-100700000D02*
X67400000Y-100700000D01*
X66800000Y-101300000D02*
X66800000Y-102900000D01*
X66074999Y-103625001D02*
X59025001Y-103625001D01*
X66800000Y-102900000D02*
X66074999Y-103625001D01*
X59025001Y-103625001D02*
X58000000Y-102600000D01*
X68350000Y-103550000D02*
X68350000Y-100700000D01*
X71000000Y-106200000D02*
X68350000Y-103550000D01*
X78300000Y-106200000D02*
X71000000Y-106200000D01*
X91420000Y-92890000D02*
X91420000Y-93080000D01*
X91420000Y-93080000D02*
X78300000Y-106200000D01*
X56550011Y-94349989D02*
X54700000Y-96200000D01*
X54700000Y-96200000D02*
X54700000Y-101600000D01*
X64000000Y-92700000D02*
X64000000Y-93700000D01*
X54700000Y-101600000D02*
X60400000Y-107300000D01*
X102420000Y-107300000D02*
X113470001Y-96249999D01*
X113470001Y-96249999D02*
X114320000Y-95400000D01*
X63350011Y-94349989D02*
X56550011Y-94349989D01*
X60400000Y-107300000D02*
X102420000Y-107300000D01*
X64000000Y-93700000D02*
X63350011Y-94349989D01*
D18*
G36*
X113101554Y-33714886D02*
G01*
X112664886Y-34151554D01*
X112321799Y-34665021D01*
X112085476Y-35235554D01*
X111965000Y-35841229D01*
X111965000Y-36458771D01*
X112085476Y-37064446D01*
X112321799Y-37634979D01*
X112664886Y-38148446D01*
X113101554Y-38585114D01*
X113615021Y-38928201D01*
X114185554Y-39164524D01*
X114791229Y-39285000D01*
X115408771Y-39285000D01*
X116014446Y-39164524D01*
X116584979Y-38928201D01*
X117098446Y-38585114D01*
X117535114Y-38148446D01*
X117640000Y-37991473D01*
X117640001Y-125908529D01*
X117535114Y-125751554D01*
X117098446Y-125314886D01*
X116584979Y-124971799D01*
X116014446Y-124735476D01*
X115408771Y-124615000D01*
X114791229Y-124615000D01*
X114185554Y-124735476D01*
X113615021Y-124971799D01*
X113101554Y-125314886D01*
X112664886Y-125751554D01*
X112321799Y-126265021D01*
X112085476Y-126835554D01*
X111965000Y-127441229D01*
X111965000Y-128058771D01*
X112085476Y-128664446D01*
X112321799Y-129234979D01*
X112664886Y-129748446D01*
X113101554Y-130185114D01*
X113258527Y-130290000D01*
X40741473Y-130290000D01*
X40898446Y-130185114D01*
X41335114Y-129748446D01*
X41678201Y-129234979D01*
X41914524Y-128664446D01*
X42035000Y-128058771D01*
X42035000Y-127441229D01*
X41914524Y-126835554D01*
X41678201Y-126265021D01*
X41335114Y-125751554D01*
X40898446Y-125314886D01*
X40384979Y-124971799D01*
X39814446Y-124735476D01*
X39208771Y-124615000D01*
X38591229Y-124615000D01*
X37985554Y-124735476D01*
X37415021Y-124971799D01*
X36901554Y-125314886D01*
X36464886Y-125751554D01*
X36360000Y-125908527D01*
X36360000Y-44000000D01*
X37436324Y-44000000D01*
X37440000Y-44037322D01*
X37440001Y-67362667D01*
X37436324Y-67400000D01*
X37450998Y-67548985D01*
X37494454Y-67692246D01*
X37565026Y-67824276D01*
X37636201Y-67911002D01*
X37660000Y-67940001D01*
X37688998Y-67963799D01*
X40440000Y-70714802D01*
X40440001Y-80762668D01*
X40436324Y-80800000D01*
X40440001Y-80837333D01*
X40450998Y-80948986D01*
X40464180Y-80992442D01*
X40494454Y-81092246D01*
X40565026Y-81224276D01*
X40636201Y-81311002D01*
X40660000Y-81340001D01*
X40688998Y-81363799D01*
X46340000Y-87014802D01*
X46340001Y-104962667D01*
X46336324Y-105000000D01*
X46350998Y-105148985D01*
X46394454Y-105292246D01*
X46465026Y-105424276D01*
X46536201Y-105511002D01*
X46560000Y-105540001D01*
X46588998Y-105563799D01*
X53636200Y-112611002D01*
X53659999Y-112640001D01*
X53775724Y-112734974D01*
X53907753Y-112805546D01*
X54051014Y-112849003D01*
X54162667Y-112860000D01*
X54162676Y-112860000D01*
X54199999Y-112863676D01*
X54237322Y-112860000D01*
X74885199Y-112860000D01*
X75938066Y-113912867D01*
X75926644Y-113924289D01*
X75810640Y-114097902D01*
X75730735Y-114290809D01*
X75690000Y-114495599D01*
X75690000Y-114704401D01*
X75730735Y-114909191D01*
X75810640Y-115102098D01*
X75926644Y-115275711D01*
X76074289Y-115423356D01*
X76247902Y-115539360D01*
X76440809Y-115619265D01*
X76645599Y-115660000D01*
X76854401Y-115660000D01*
X77059191Y-115619265D01*
X77252098Y-115539360D01*
X77375000Y-115457240D01*
X77497902Y-115539360D01*
X77690809Y-115619265D01*
X77895599Y-115660000D01*
X78104401Y-115660000D01*
X78309191Y-115619265D01*
X78502098Y-115539360D01*
X78625000Y-115457240D01*
X78747902Y-115539360D01*
X78940809Y-115619265D01*
X79145599Y-115660000D01*
X79354401Y-115660000D01*
X79559191Y-115619265D01*
X79718003Y-115553483D01*
X79720506Y-115555537D01*
X79830820Y-115614502D01*
X79950518Y-115650812D01*
X80075000Y-115663072D01*
X80214250Y-115660000D01*
X80373000Y-115501250D01*
X80373000Y-114727000D01*
X80627000Y-114727000D01*
X80627000Y-115501250D01*
X80785750Y-115660000D01*
X80925000Y-115663072D01*
X81049482Y-115650812D01*
X81169180Y-115614502D01*
X81279494Y-115555537D01*
X81376185Y-115476185D01*
X81455537Y-115379494D01*
X81514502Y-115269180D01*
X81550812Y-115149482D01*
X81563072Y-115025000D01*
X81560000Y-114885750D01*
X81401250Y-114727000D01*
X80627000Y-114727000D01*
X80373000Y-114727000D01*
X80353000Y-114727000D01*
X80353000Y-114495599D01*
X92890000Y-114495599D01*
X92890000Y-114704401D01*
X92930735Y-114909191D01*
X93010640Y-115102098D01*
X93126644Y-115275711D01*
X93274289Y-115423356D01*
X93447902Y-115539360D01*
X93640809Y-115619265D01*
X93845599Y-115660000D01*
X94054401Y-115660000D01*
X94259191Y-115619265D01*
X94452098Y-115539360D01*
X94575000Y-115457240D01*
X94697902Y-115539360D01*
X94890809Y-115619265D01*
X95095599Y-115660000D01*
X95304401Y-115660000D01*
X95509191Y-115619265D01*
X95702098Y-115539360D01*
X95825000Y-115457240D01*
X95947902Y-115539360D01*
X96140809Y-115619265D01*
X96345599Y-115660000D01*
X96554401Y-115660000D01*
X96759191Y-115619265D01*
X96918003Y-115553483D01*
X96920506Y-115555537D01*
X97030820Y-115614502D01*
X97150518Y-115650812D01*
X97275000Y-115663072D01*
X97414250Y-115660000D01*
X97573000Y-115501250D01*
X97573000Y-114727000D01*
X97827000Y-114727000D01*
X97827000Y-115501250D01*
X97985750Y-115660000D01*
X98125000Y-115663072D01*
X98249482Y-115650812D01*
X98369180Y-115614502D01*
X98479494Y-115555537D01*
X98576185Y-115476185D01*
X98655537Y-115379494D01*
X98714502Y-115269180D01*
X98750812Y-115149482D01*
X98763072Y-115025000D01*
X98760000Y-114885750D01*
X98601250Y-114727000D01*
X97827000Y-114727000D01*
X97573000Y-114727000D01*
X97553000Y-114727000D01*
X97553000Y-114685384D01*
X101688298Y-114685384D01*
X101725356Y-114890870D01*
X101801790Y-115085179D01*
X101819790Y-115118856D01*
X102025614Y-115144781D01*
X102570395Y-114600000D01*
X102025614Y-114055219D01*
X101819790Y-114081144D01*
X101736440Y-114272588D01*
X101692041Y-114476616D01*
X101688298Y-114685384D01*
X97553000Y-114685384D01*
X97553000Y-114473000D01*
X97573000Y-114473000D01*
X97573000Y-114453000D01*
X97827000Y-114453000D01*
X97827000Y-114473000D01*
X98601250Y-114473000D01*
X98760000Y-114314250D01*
X98763072Y-114175000D01*
X98750812Y-114050518D01*
X98714502Y-113930820D01*
X98655537Y-113820506D01*
X98576185Y-113723815D01*
X98479494Y-113644463D01*
X98369180Y-113585498D01*
X98285124Y-113560000D01*
X102544279Y-113560000D01*
X102459130Y-113575356D01*
X102264821Y-113651790D01*
X102231144Y-113669790D01*
X102205219Y-113875614D01*
X102750000Y-114420395D01*
X102764143Y-114406253D01*
X102940000Y-114582110D01*
X102940000Y-114589605D01*
X102929605Y-114600000D01*
X102940000Y-114610395D01*
X102940000Y-114617890D01*
X102764143Y-114793748D01*
X102750000Y-114779605D01*
X102205219Y-115324386D01*
X102231144Y-115530210D01*
X102422588Y-115613560D01*
X102626616Y-115657959D01*
X102835384Y-115661702D01*
X103040870Y-115624644D01*
X103235179Y-115548210D01*
X103268856Y-115530210D01*
X103287011Y-115386078D01*
X103324289Y-115423356D01*
X103497902Y-115539360D01*
X103690809Y-115619265D01*
X103895599Y-115660000D01*
X104104401Y-115660000D01*
X104309191Y-115619265D01*
X104502098Y-115539360D01*
X104625000Y-115457240D01*
X104747902Y-115539360D01*
X104940809Y-115619265D01*
X105145599Y-115660000D01*
X105354401Y-115660000D01*
X105559191Y-115619265D01*
X105752098Y-115539360D01*
X105875000Y-115457240D01*
X105997902Y-115539360D01*
X106190809Y-115619265D01*
X106395599Y-115660000D01*
X106604401Y-115660000D01*
X106809191Y-115619265D01*
X107002098Y-115539360D01*
X107125000Y-115457240D01*
X107247902Y-115539360D01*
X107440809Y-115619265D01*
X107645599Y-115660000D01*
X107854401Y-115660000D01*
X108059191Y-115619265D01*
X108218003Y-115553483D01*
X108220506Y-115555537D01*
X108330820Y-115614502D01*
X108450518Y-115650812D01*
X108575000Y-115663072D01*
X109425000Y-115663072D01*
X109549482Y-115650812D01*
X109669180Y-115614502D01*
X109779494Y-115555537D01*
X109876185Y-115476185D01*
X109955537Y-115379494D01*
X110014502Y-115269180D01*
X110050812Y-115149482D01*
X110063072Y-115025000D01*
X110063072Y-114175000D01*
X110050812Y-114050518D01*
X110014502Y-113930820D01*
X109955537Y-113820506D01*
X109876185Y-113723815D01*
X109779494Y-113644463D01*
X109669180Y-113585498D01*
X109549482Y-113549188D01*
X109425000Y-113536928D01*
X108575000Y-113536928D01*
X108450518Y-113549188D01*
X108330820Y-113585498D01*
X108220506Y-113644463D01*
X108218003Y-113646517D01*
X108059191Y-113580735D01*
X107854401Y-113540000D01*
X107645599Y-113540000D01*
X107440809Y-113580735D01*
X107247902Y-113660640D01*
X107125000Y-113742760D01*
X107002098Y-113660640D01*
X106809191Y-113580735D01*
X106604401Y-113540000D01*
X106395599Y-113540000D01*
X106190809Y-113580735D01*
X105997902Y-113660640D01*
X105875000Y-113742760D01*
X105752098Y-113660640D01*
X105559191Y-113580735D01*
X105354401Y-113540000D01*
X105145599Y-113540000D01*
X104940809Y-113580735D01*
X104749871Y-113659825D01*
X104749003Y-113651014D01*
X104705546Y-113507753D01*
X104634974Y-113375724D01*
X104563799Y-113288997D01*
X104540001Y-113259999D01*
X104511004Y-113236202D01*
X103563804Y-112289002D01*
X103540001Y-112259999D01*
X103424276Y-112165026D01*
X103292247Y-112094454D01*
X103148986Y-112050997D01*
X103037333Y-112040000D01*
X103037322Y-112040000D01*
X103000000Y-112036324D01*
X102962678Y-112040000D01*
X97437323Y-112040000D01*
X97400000Y-112036324D01*
X97362677Y-112040000D01*
X97362667Y-112040000D01*
X97251014Y-112050997D01*
X97107753Y-112094454D01*
X96975723Y-112165026D01*
X96892083Y-112233668D01*
X96859999Y-112259999D01*
X96836201Y-112288997D01*
X95938998Y-113186201D01*
X95910000Y-113209999D01*
X95886202Y-113238997D01*
X95886201Y-113238998D01*
X95815026Y-113325724D01*
X95744454Y-113457754D01*
X95720438Y-113536928D01*
X95700998Y-113601014D01*
X95695398Y-113657865D01*
X95509191Y-113580735D01*
X95304401Y-113540000D01*
X95095599Y-113540000D01*
X94890809Y-113580735D01*
X94697902Y-113660640D01*
X94575000Y-113742760D01*
X94452098Y-113660640D01*
X94259191Y-113580735D01*
X94054401Y-113540000D01*
X93845599Y-113540000D01*
X93640809Y-113580735D01*
X93447902Y-113660640D01*
X93274289Y-113776644D01*
X93126644Y-113924289D01*
X93010640Y-114097902D01*
X92930735Y-114290809D01*
X92890000Y-114495599D01*
X80353000Y-114495599D01*
X80353000Y-114473000D01*
X80373000Y-114473000D01*
X80373000Y-113698750D01*
X80627000Y-113698750D01*
X80627000Y-114473000D01*
X81401250Y-114473000D01*
X81560000Y-114314250D01*
X81563072Y-114175000D01*
X81550812Y-114050518D01*
X81514502Y-113930820D01*
X81455537Y-113820506D01*
X81376185Y-113723815D01*
X81279494Y-113644463D01*
X81169180Y-113585498D01*
X81049482Y-113549188D01*
X80925000Y-113536928D01*
X80785750Y-113540000D01*
X80627000Y-113698750D01*
X80373000Y-113698750D01*
X80214250Y-113540000D01*
X80075000Y-113536928D01*
X80010000Y-113543330D01*
X80010000Y-113287322D01*
X80013676Y-113249999D01*
X80010000Y-113212676D01*
X80010000Y-113212667D01*
X79999003Y-113101014D01*
X79955546Y-112957753D01*
X79884974Y-112825724D01*
X79790001Y-112709999D01*
X79761004Y-112686202D01*
X77063804Y-109989003D01*
X77040001Y-109959999D01*
X76924276Y-109865026D01*
X76792247Y-109794454D01*
X76648986Y-109750997D01*
X76537333Y-109740000D01*
X76537322Y-109740000D01*
X76500000Y-109736324D01*
X76462678Y-109740000D01*
X56614802Y-109740000D01*
X49560000Y-102685199D01*
X49560000Y-96200000D01*
X53936324Y-96200000D01*
X53940000Y-96237323D01*
X53940001Y-101562668D01*
X53936324Y-101600000D01*
X53950998Y-101748985D01*
X53994454Y-101892246D01*
X54065026Y-102024276D01*
X54117383Y-102088072D01*
X54160000Y-102140001D01*
X54188998Y-102163799D01*
X59836201Y-107811003D01*
X59859999Y-107840001D01*
X59975724Y-107934974D01*
X60107753Y-108005546D01*
X60251014Y-108049003D01*
X60362667Y-108060000D01*
X60362676Y-108060000D01*
X60399999Y-108063676D01*
X60437322Y-108060000D01*
X102382678Y-108060000D01*
X102420000Y-108063676D01*
X102457322Y-108060000D01*
X102457333Y-108060000D01*
X102568986Y-108049003D01*
X102712247Y-108005546D01*
X102844276Y-107934974D01*
X102960001Y-107840001D01*
X102983804Y-107810997D01*
X112830235Y-97964567D01*
X112856487Y-98231111D01*
X112941401Y-98511034D01*
X113079294Y-98769014D01*
X113264866Y-98995134D01*
X113294687Y-99019607D01*
X113225820Y-99040498D01*
X113115506Y-99099463D01*
X113018815Y-99178815D01*
X112939463Y-99275506D01*
X112880498Y-99385820D01*
X112844188Y-99505518D01*
X112831928Y-99630000D01*
X112831928Y-101330000D01*
X112844188Y-101454482D01*
X112880498Y-101574180D01*
X112939463Y-101684494D01*
X113018815Y-101781185D01*
X113115506Y-101860537D01*
X113225820Y-101919502D01*
X113345518Y-101955812D01*
X113470000Y-101968072D01*
X115170000Y-101968072D01*
X115294482Y-101955812D01*
X115414180Y-101919502D01*
X115524494Y-101860537D01*
X115621185Y-101781185D01*
X115700537Y-101684494D01*
X115759502Y-101574180D01*
X115795812Y-101454482D01*
X115808072Y-101330000D01*
X115808072Y-99630000D01*
X115795812Y-99505518D01*
X115759502Y-99385820D01*
X115700537Y-99275506D01*
X115621185Y-99178815D01*
X115524494Y-99099463D01*
X115414180Y-99040498D01*
X115345313Y-99019607D01*
X115375134Y-98995134D01*
X115560706Y-98769014D01*
X115698599Y-98511034D01*
X115783513Y-98231111D01*
X115812185Y-97940000D01*
X115783513Y-97648889D01*
X115698599Y-97368966D01*
X115560706Y-97110986D01*
X115375134Y-96884866D01*
X115149014Y-96699294D01*
X115094209Y-96670000D01*
X115149014Y-96640706D01*
X115375134Y-96455134D01*
X115560706Y-96229014D01*
X115698599Y-95971034D01*
X115783513Y-95691111D01*
X115812185Y-95400000D01*
X115783513Y-95108889D01*
X115698599Y-94828966D01*
X115560706Y-94570986D01*
X115375134Y-94344866D01*
X115149014Y-94159294D01*
X115094209Y-94130000D01*
X115149014Y-94100706D01*
X115375134Y-93915134D01*
X115560706Y-93689014D01*
X115698599Y-93431034D01*
X115783513Y-93151111D01*
X115812185Y-92860000D01*
X115783513Y-92568889D01*
X115698599Y-92288966D01*
X115560706Y-92030986D01*
X115375134Y-91804866D01*
X115149014Y-91619294D01*
X115094209Y-91590000D01*
X115149014Y-91560706D01*
X115375134Y-91375134D01*
X115560706Y-91149014D01*
X115698599Y-90891034D01*
X115783513Y-90611111D01*
X115812185Y-90320000D01*
X115783513Y-90028889D01*
X115698599Y-89748966D01*
X115560706Y-89490986D01*
X115375134Y-89264866D01*
X115149014Y-89079294D01*
X115094209Y-89050000D01*
X115149014Y-89020706D01*
X115375134Y-88835134D01*
X115560706Y-88609014D01*
X115698599Y-88351034D01*
X115783513Y-88071111D01*
X115812185Y-87780000D01*
X115783513Y-87488889D01*
X115698599Y-87208966D01*
X115560706Y-86950986D01*
X115375134Y-86724866D01*
X115149014Y-86539294D01*
X115084477Y-86504799D01*
X115201355Y-86435178D01*
X115417588Y-86240269D01*
X115591641Y-86006920D01*
X115716825Y-85744099D01*
X115761476Y-85596890D01*
X115640155Y-85367000D01*
X114447000Y-85367000D01*
X114447000Y-85387000D01*
X114193000Y-85387000D01*
X114193000Y-85367000D01*
X112999845Y-85367000D01*
X112878524Y-85596890D01*
X112923175Y-85744099D01*
X113048359Y-86006920D01*
X113222412Y-86240269D01*
X113438645Y-86435178D01*
X113555523Y-86504799D01*
X113490986Y-86539294D01*
X113264866Y-86724866D01*
X113079294Y-86950986D01*
X112941401Y-87208966D01*
X112856487Y-87488889D01*
X112827815Y-87780000D01*
X112856487Y-88071111D01*
X112941401Y-88351034D01*
X113079294Y-88609014D01*
X113264866Y-88835134D01*
X113490986Y-89020706D01*
X113545791Y-89050000D01*
X113490986Y-89079294D01*
X113264866Y-89264866D01*
X113079294Y-89490986D01*
X112941401Y-89748966D01*
X112856487Y-90028889D01*
X112827815Y-90320000D01*
X112856487Y-90611111D01*
X112941401Y-90891034D01*
X113079294Y-91149014D01*
X113264866Y-91375134D01*
X113490986Y-91560706D01*
X113545791Y-91590000D01*
X113490986Y-91619294D01*
X113264866Y-91804866D01*
X113079294Y-92030986D01*
X112941401Y-92288966D01*
X112856487Y-92568889D01*
X112827815Y-92860000D01*
X112856487Y-93151111D01*
X112941401Y-93431034D01*
X113079294Y-93689014D01*
X113264866Y-93915134D01*
X113490986Y-94100706D01*
X113545791Y-94130000D01*
X113490986Y-94159294D01*
X113264866Y-94344866D01*
X113079294Y-94570986D01*
X112941401Y-94828966D01*
X112856487Y-95108889D01*
X112827815Y-95400000D01*
X112856487Y-95691111D01*
X112879203Y-95765995D01*
X102105199Y-106540000D01*
X79034801Y-106540000D01*
X84707911Y-100866890D01*
X89978524Y-100866890D01*
X90023175Y-101014099D01*
X90148359Y-101276920D01*
X90322412Y-101510269D01*
X90538645Y-101705178D01*
X90788748Y-101854157D01*
X91063109Y-101951481D01*
X91293000Y-101830814D01*
X91293000Y-100637000D01*
X91547000Y-100637000D01*
X91547000Y-101830814D01*
X91776891Y-101951481D01*
X92051252Y-101854157D01*
X92301355Y-101705178D01*
X92517588Y-101510269D01*
X92691641Y-101276920D01*
X92816825Y-101014099D01*
X92861476Y-100866890D01*
X92740155Y-100637000D01*
X91547000Y-100637000D01*
X91293000Y-100637000D01*
X90099845Y-100637000D01*
X89978524Y-100866890D01*
X84707911Y-100866890D01*
X89947270Y-95627532D01*
X89956487Y-95721111D01*
X90041401Y-96001034D01*
X90179294Y-96259014D01*
X90364866Y-96485134D01*
X90590986Y-96670706D01*
X90645791Y-96700000D01*
X90590986Y-96729294D01*
X90364866Y-96914866D01*
X90179294Y-97140986D01*
X90041401Y-97398966D01*
X89956487Y-97678889D01*
X89927815Y-97970000D01*
X89956487Y-98261111D01*
X90041401Y-98541034D01*
X90179294Y-98799014D01*
X90364866Y-99025134D01*
X90590986Y-99210706D01*
X90655523Y-99245201D01*
X90538645Y-99314822D01*
X90322412Y-99509731D01*
X90148359Y-99743080D01*
X90023175Y-100005901D01*
X89978524Y-100153110D01*
X90099845Y-100383000D01*
X91293000Y-100383000D01*
X91293000Y-100363000D01*
X91547000Y-100363000D01*
X91547000Y-100383000D01*
X92740155Y-100383000D01*
X92861476Y-100153110D01*
X92816825Y-100005901D01*
X92691641Y-99743080D01*
X92517588Y-99509731D01*
X92301355Y-99314822D01*
X92184477Y-99245201D01*
X92249014Y-99210706D01*
X92475134Y-99025134D01*
X92660706Y-98799014D01*
X92798599Y-98541034D01*
X92883513Y-98261111D01*
X92912185Y-97970000D01*
X92883513Y-97678889D01*
X92798599Y-97398966D01*
X92660706Y-97140986D01*
X92475134Y-96914866D01*
X92249014Y-96729294D01*
X92194209Y-96700000D01*
X92249014Y-96670706D01*
X92475134Y-96485134D01*
X92660706Y-96259014D01*
X92798599Y-96001034D01*
X92883513Y-95721111D01*
X92912185Y-95430000D01*
X92883513Y-95138889D01*
X92798599Y-94858966D01*
X92660706Y-94600986D01*
X92475134Y-94374866D01*
X92249014Y-94189294D01*
X92194209Y-94160000D01*
X92249014Y-94130706D01*
X92475134Y-93945134D01*
X92660706Y-93719014D01*
X92798599Y-93461034D01*
X92883513Y-93181111D01*
X92912185Y-92890000D01*
X92883513Y-92598889D01*
X92798599Y-92318966D01*
X92660706Y-92060986D01*
X92475134Y-91834866D01*
X92249014Y-91649294D01*
X92194209Y-91620000D01*
X92249014Y-91590706D01*
X92475134Y-91405134D01*
X92660706Y-91179014D01*
X92798599Y-90921034D01*
X92883513Y-90641111D01*
X92912185Y-90350000D01*
X92883513Y-90058889D01*
X92798599Y-89778966D01*
X92660706Y-89520986D01*
X92475134Y-89294866D01*
X92249014Y-89109294D01*
X92194209Y-89080000D01*
X92249014Y-89050706D01*
X92475134Y-88865134D01*
X92660706Y-88639014D01*
X92798599Y-88381034D01*
X92883513Y-88101111D01*
X92912185Y-87810000D01*
X92883513Y-87518889D01*
X92798599Y-87238966D01*
X92660706Y-86980986D01*
X92475134Y-86754866D01*
X92445313Y-86730393D01*
X92514180Y-86709502D01*
X92624494Y-86650537D01*
X92721185Y-86571185D01*
X92800537Y-86474494D01*
X92859502Y-86364180D01*
X92895812Y-86244482D01*
X92908072Y-86120000D01*
X92908072Y-84883110D01*
X112878524Y-84883110D01*
X112999845Y-85113000D01*
X114193000Y-85113000D01*
X114193000Y-83919186D01*
X114447000Y-83919186D01*
X114447000Y-85113000D01*
X115640155Y-85113000D01*
X115761476Y-84883110D01*
X115716825Y-84735901D01*
X115591641Y-84473080D01*
X115417588Y-84239731D01*
X115201355Y-84044822D01*
X114951252Y-83895843D01*
X114676891Y-83798519D01*
X114447000Y-83919186D01*
X114193000Y-83919186D01*
X113963109Y-83798519D01*
X113688748Y-83895843D01*
X113438645Y-84044822D01*
X113222412Y-84239731D01*
X113048359Y-84473080D01*
X112923175Y-84735901D01*
X112878524Y-84883110D01*
X92908072Y-84883110D01*
X92908072Y-84420000D01*
X92895812Y-84295518D01*
X92859502Y-84175820D01*
X92800537Y-84065506D01*
X92721185Y-83968815D01*
X92624494Y-83889463D01*
X92514180Y-83830498D01*
X92394482Y-83794188D01*
X92270000Y-83781928D01*
X90570000Y-83781928D01*
X90445518Y-83794188D01*
X90325820Y-83830498D01*
X90215506Y-83889463D01*
X90118815Y-83968815D01*
X90039463Y-84065506D01*
X89980498Y-84175820D01*
X89944188Y-84295518D01*
X89931928Y-84420000D01*
X89931928Y-86120000D01*
X89944188Y-86244482D01*
X89980498Y-86364180D01*
X90039463Y-86474494D01*
X90118815Y-86571185D01*
X90215506Y-86650537D01*
X90325820Y-86709502D01*
X90394687Y-86730393D01*
X90364866Y-86754866D01*
X90179294Y-86980986D01*
X90041401Y-87238966D01*
X89956487Y-87518889D01*
X89927815Y-87810000D01*
X89956487Y-88101111D01*
X90041401Y-88381034D01*
X90179294Y-88639014D01*
X90364866Y-88865134D01*
X90590986Y-89050706D01*
X90645791Y-89080000D01*
X90590986Y-89109294D01*
X90364866Y-89294866D01*
X90179294Y-89520986D01*
X90041401Y-89778966D01*
X89956487Y-90058889D01*
X89927815Y-90350000D01*
X89956487Y-90641111D01*
X90041401Y-90921034D01*
X90179294Y-91179014D01*
X90364866Y-91405134D01*
X90590986Y-91590706D01*
X90645791Y-91620000D01*
X90590986Y-91649294D01*
X90364866Y-91834866D01*
X90179294Y-92060986D01*
X90041401Y-92318966D01*
X89956487Y-92598889D01*
X89927815Y-92890000D01*
X89956487Y-93181111D01*
X90023424Y-93401774D01*
X77985199Y-105440000D01*
X75017519Y-105440000D01*
X75121034Y-105408599D01*
X75379014Y-105270706D01*
X75605134Y-105085134D01*
X75790706Y-104859014D01*
X75928599Y-104601034D01*
X76013513Y-104321111D01*
X76042185Y-104030000D01*
X76013513Y-103738889D01*
X75928599Y-103458966D01*
X75790706Y-103200986D01*
X75605134Y-102974866D01*
X75379014Y-102789294D01*
X75324209Y-102760000D01*
X75379014Y-102730706D01*
X75605134Y-102545134D01*
X75790706Y-102319014D01*
X75928599Y-102061034D01*
X76013513Y-101781111D01*
X76042185Y-101490000D01*
X76013513Y-101198889D01*
X75928599Y-100918966D01*
X75790706Y-100660986D01*
X75605134Y-100434866D01*
X75379014Y-100249294D01*
X75324209Y-100220000D01*
X75379014Y-100190706D01*
X75605134Y-100005134D01*
X75790706Y-99779014D01*
X75827595Y-99710000D01*
X78812678Y-99710000D01*
X78850000Y-99713676D01*
X78887322Y-99710000D01*
X78887333Y-99710000D01*
X78998986Y-99699003D01*
X79142247Y-99655546D01*
X79274276Y-99584974D01*
X79390001Y-99490001D01*
X79413804Y-99460997D01*
X84511003Y-94363799D01*
X84540001Y-94340001D01*
X84634974Y-94224276D01*
X84705546Y-94092247D01*
X84749003Y-93948986D01*
X84760000Y-93837333D01*
X84760000Y-93837323D01*
X84763676Y-93800000D01*
X84760000Y-93762677D01*
X84760000Y-88914801D01*
X90514802Y-83160000D01*
X111962678Y-83160000D01*
X112000000Y-83163676D01*
X112037322Y-83160000D01*
X112037333Y-83160000D01*
X112148986Y-83149003D01*
X112292247Y-83105546D01*
X112424276Y-83034974D01*
X112540001Y-82940001D01*
X112563804Y-82910997D01*
X117111008Y-78363795D01*
X117140001Y-78340001D01*
X117163795Y-78311008D01*
X117163799Y-78311004D01*
X117234973Y-78224277D01*
X117234974Y-78224276D01*
X117305546Y-78092247D01*
X117349003Y-77948986D01*
X117360000Y-77837333D01*
X117360000Y-77837324D01*
X117363676Y-77800001D01*
X117360000Y-77762678D01*
X117360000Y-54017322D01*
X117363676Y-53979999D01*
X117360000Y-53942676D01*
X117360000Y-53942667D01*
X117349003Y-53831014D01*
X117305546Y-53687753D01*
X117234974Y-53555724D01*
X117140001Y-53439999D01*
X117111004Y-53416202D01*
X115440797Y-51745996D01*
X115463513Y-51671111D01*
X115492185Y-51380000D01*
X115463513Y-51088889D01*
X115378599Y-50808966D01*
X115240706Y-50550986D01*
X115055134Y-50324866D01*
X114829014Y-50139294D01*
X114571034Y-50001401D01*
X114291111Y-49916487D01*
X114072950Y-49895000D01*
X113927050Y-49895000D01*
X113708889Y-49916487D01*
X113428966Y-50001401D01*
X113170986Y-50139294D01*
X112944866Y-50324866D01*
X112759294Y-50550986D01*
X112621401Y-50808966D01*
X112536487Y-51088889D01*
X112507815Y-51380000D01*
X112536487Y-51671111D01*
X112621401Y-51951034D01*
X112759294Y-52209014D01*
X112944866Y-52435134D01*
X113170986Y-52620706D01*
X113225791Y-52650000D01*
X113170986Y-52679294D01*
X112944866Y-52864866D01*
X112759294Y-53090986D01*
X112722405Y-53160000D01*
X112717322Y-53160000D01*
X112679999Y-53156324D01*
X112642676Y-53160000D01*
X112642667Y-53160000D01*
X112531014Y-53170997D01*
X112387753Y-53214454D01*
X112255724Y-53285026D01*
X112255722Y-53285027D01*
X112255723Y-53285027D01*
X112168996Y-53356201D01*
X112168992Y-53356205D01*
X112139999Y-53379999D01*
X112116205Y-53408992D01*
X110288998Y-55236201D01*
X110260000Y-55259999D01*
X110236202Y-55288997D01*
X110236201Y-55288998D01*
X110165026Y-55375724D01*
X110094454Y-55507754D01*
X110050998Y-55651015D01*
X110036324Y-55800000D01*
X110040001Y-55837332D01*
X110040000Y-63162678D01*
X110036324Y-63200000D01*
X110040000Y-63237322D01*
X110040000Y-63237332D01*
X110050997Y-63348985D01*
X110094454Y-63492246D01*
X110165026Y-63624276D01*
X110204871Y-63672826D01*
X110259999Y-63740001D01*
X110289003Y-63763804D01*
X112240001Y-65714803D01*
X112240000Y-78285197D01*
X110885199Y-79640000D01*
X89837325Y-79640000D01*
X89800000Y-79636324D01*
X89762675Y-79640000D01*
X89762667Y-79640000D01*
X89651014Y-79650997D01*
X89507753Y-79694454D01*
X89375724Y-79765026D01*
X89259999Y-79859999D01*
X89236201Y-79888997D01*
X82088998Y-87036201D01*
X82060000Y-87059999D01*
X82036202Y-87088997D01*
X82036201Y-87088998D01*
X81965026Y-87175724D01*
X81894454Y-87307754D01*
X81864790Y-87405546D01*
X81851609Y-87449002D01*
X81850998Y-87451015D01*
X81836324Y-87600000D01*
X81840001Y-87637332D01*
X81840000Y-92685198D01*
X78875199Y-95650000D01*
X75827595Y-95650000D01*
X75790706Y-95580986D01*
X75605134Y-95354866D01*
X75379014Y-95169294D01*
X75314477Y-95134799D01*
X75431355Y-95065178D01*
X75647588Y-94870269D01*
X75821641Y-94636920D01*
X75946825Y-94374099D01*
X75991476Y-94226890D01*
X75870155Y-93997000D01*
X74677000Y-93997000D01*
X74677000Y-94017000D01*
X74423000Y-94017000D01*
X74423000Y-93997000D01*
X73229845Y-93997000D01*
X73108524Y-94226890D01*
X73153175Y-94374099D01*
X73278359Y-94636920D01*
X73452412Y-94870269D01*
X73668645Y-95065178D01*
X73785523Y-95134799D01*
X73720986Y-95169294D01*
X73494866Y-95354866D01*
X73309294Y-95580986D01*
X73171401Y-95838966D01*
X73086487Y-96118889D01*
X73057815Y-96410000D01*
X73086487Y-96701111D01*
X73118513Y-96806686D01*
X72185199Y-97740000D01*
X70715010Y-97740000D01*
X70739502Y-97694180D01*
X70775812Y-97574482D01*
X70788072Y-97450000D01*
X70788072Y-97437147D01*
X70892247Y-97405546D01*
X71024276Y-97334974D01*
X71140001Y-97240001D01*
X71163804Y-97210997D01*
X71410997Y-96963804D01*
X71440001Y-96940001D01*
X71534974Y-96824276D01*
X71605546Y-96692247D01*
X71649003Y-96548986D01*
X71660000Y-96437333D01*
X71660000Y-96437324D01*
X71663676Y-96400001D01*
X71660000Y-96362678D01*
X71660000Y-95137325D01*
X71663676Y-95100000D01*
X71660000Y-95062675D01*
X71660000Y-95062667D01*
X71649003Y-94951014D01*
X71605546Y-94807753D01*
X71534974Y-94675724D01*
X71440001Y-94559999D01*
X71410998Y-94536197D01*
X70963804Y-94089003D01*
X70940001Y-94059999D01*
X70824276Y-93965026D01*
X70692247Y-93894454D01*
X70548986Y-93850997D01*
X70510963Y-93847252D01*
X70459774Y-93796063D01*
X70290256Y-93682795D01*
X70220786Y-93654019D01*
X70339803Y-93535002D01*
X70401939Y-93535002D01*
X70601898Y-93495228D01*
X70790256Y-93417207D01*
X70959774Y-93303939D01*
X71103937Y-93159776D01*
X71217205Y-92990258D01*
X71295226Y-92801900D01*
X71335000Y-92601941D01*
X71335000Y-92398063D01*
X71295226Y-92198104D01*
X71217205Y-92009746D01*
X71103937Y-91840228D01*
X70959774Y-91696065D01*
X70790256Y-91582797D01*
X70601898Y-91504776D01*
X70401939Y-91465002D01*
X70198061Y-91465002D01*
X69998102Y-91504776D01*
X69809744Y-91582797D01*
X69640226Y-91696065D01*
X69496063Y-91840228D01*
X69382795Y-92009746D01*
X69304774Y-92198104D01*
X69265000Y-92398063D01*
X69265000Y-92460199D01*
X67838998Y-93886203D01*
X67810000Y-93910001D01*
X67786202Y-93938999D01*
X67786201Y-93939000D01*
X67715026Y-94025726D01*
X67644454Y-94157756D01*
X67614180Y-94257560D01*
X67600998Y-94301016D01*
X67594693Y-94365027D01*
X67586324Y-94450002D01*
X67590001Y-94487334D01*
X67590001Y-95368954D01*
X67495506Y-95419463D01*
X67398815Y-95498815D01*
X67360000Y-95546111D01*
X67360000Y-95137325D01*
X67363676Y-95100000D01*
X67360000Y-95062675D01*
X67360000Y-95062667D01*
X67349003Y-94951014D01*
X67305546Y-94807753D01*
X67234974Y-94675724D01*
X67140001Y-94559999D01*
X67111003Y-94536201D01*
X66347521Y-93772720D01*
X66389502Y-93694180D01*
X66425812Y-93574482D01*
X66438072Y-93450000D01*
X66435000Y-92985750D01*
X66276250Y-92827000D01*
X65427000Y-92827000D01*
X65427000Y-92847000D01*
X65173000Y-92847000D01*
X65173000Y-92827000D01*
X65153000Y-92827000D01*
X65153000Y-92573000D01*
X65173000Y-92573000D01*
X65173000Y-91473750D01*
X65427000Y-91473750D01*
X65427000Y-92573000D01*
X66276250Y-92573000D01*
X66435000Y-92414250D01*
X66438072Y-91950000D01*
X66425812Y-91825518D01*
X66389502Y-91705820D01*
X66330537Y-91595506D01*
X66251185Y-91498815D01*
X66154494Y-91419463D01*
X66044180Y-91360498D01*
X65924482Y-91324188D01*
X65800000Y-91311928D01*
X65585750Y-91315000D01*
X65427000Y-91473750D01*
X65173000Y-91473750D01*
X65014250Y-91315000D01*
X64800000Y-91311928D01*
X64675518Y-91324188D01*
X64650000Y-91331929D01*
X64624482Y-91324188D01*
X64500000Y-91311928D01*
X64162874Y-91311928D01*
X64314802Y-91160000D01*
X71585199Y-91160000D01*
X72266201Y-91841003D01*
X72289999Y-91870001D01*
X72318997Y-91893799D01*
X72405724Y-91964974D01*
X72537753Y-92035546D01*
X72681014Y-92079003D01*
X72830000Y-92093677D01*
X72867333Y-92090000D01*
X73061928Y-92090000D01*
X73061928Y-92180000D01*
X73074188Y-92304482D01*
X73110498Y-92424180D01*
X73169463Y-92534494D01*
X73248815Y-92631185D01*
X73345506Y-92710537D01*
X73455820Y-92769502D01*
X73536466Y-92793966D01*
X73452412Y-92869731D01*
X73278359Y-93103080D01*
X73153175Y-93365901D01*
X73108524Y-93513110D01*
X73229845Y-93743000D01*
X74423000Y-93743000D01*
X74423000Y-93723000D01*
X74677000Y-93723000D01*
X74677000Y-93743000D01*
X75870155Y-93743000D01*
X75991476Y-93513110D01*
X75946825Y-93365901D01*
X75821641Y-93103080D01*
X75647588Y-92869731D01*
X75563534Y-92793966D01*
X75644180Y-92769502D01*
X75754494Y-92710537D01*
X75851185Y-92631185D01*
X75930537Y-92534494D01*
X75989502Y-92424180D01*
X76025812Y-92304482D01*
X76038072Y-92180000D01*
X76038072Y-90480000D01*
X76025812Y-90355518D01*
X75989502Y-90235820D01*
X75930537Y-90125506D01*
X75851185Y-90028815D01*
X75754494Y-89949463D01*
X75644180Y-89890498D01*
X75524482Y-89854188D01*
X75400000Y-89841928D01*
X73700000Y-89841928D01*
X73575518Y-89854188D01*
X73455820Y-89890498D01*
X73345506Y-89949463D01*
X73248815Y-90028815D01*
X73169463Y-90125506D01*
X73110498Y-90235820D01*
X73074188Y-90355518D01*
X73061928Y-90480000D01*
X73061928Y-90487126D01*
X72463803Y-89889002D01*
X72440001Y-89859999D01*
X72324276Y-89765026D01*
X72192247Y-89694454D01*
X72048986Y-89650997D01*
X71937333Y-89640000D01*
X71937322Y-89640000D01*
X71900000Y-89636324D01*
X71862678Y-89640000D01*
X64037325Y-89640000D01*
X64000000Y-89636324D01*
X63962675Y-89640000D01*
X63962667Y-89640000D01*
X63851014Y-89650997D01*
X63707753Y-89694454D01*
X63575724Y-89765026D01*
X63459999Y-89859999D01*
X63436201Y-89888997D01*
X62188998Y-91136201D01*
X62160000Y-91159999D01*
X62136202Y-91188997D01*
X62136201Y-91188998D01*
X62065026Y-91275724D01*
X62032078Y-91337365D01*
X61955820Y-91360498D01*
X61845506Y-91419463D01*
X61748815Y-91498815D01*
X61669463Y-91595506D01*
X61610498Y-91705820D01*
X61574188Y-91825518D01*
X61561928Y-91950000D01*
X61561928Y-93450000D01*
X61574188Y-93574482D01*
X61578892Y-93589989D01*
X56587336Y-93589989D01*
X56550011Y-93586313D01*
X56512686Y-93589989D01*
X56512678Y-93589989D01*
X56401025Y-93600986D01*
X56257764Y-93644443D01*
X56125735Y-93715015D01*
X56010010Y-93809988D01*
X55986212Y-93838986D01*
X54189003Y-95636196D01*
X54159999Y-95659999D01*
X54118144Y-95711000D01*
X54065026Y-95775724D01*
X54014635Y-95869999D01*
X53994454Y-95907754D01*
X53950997Y-96051015D01*
X53940000Y-96162668D01*
X53940000Y-96162678D01*
X53936324Y-96200000D01*
X49560000Y-96200000D01*
X49560000Y-85937325D01*
X49563676Y-85900000D01*
X49560000Y-85862675D01*
X49560000Y-85862667D01*
X49549003Y-85751014D01*
X49505546Y-85607753D01*
X49434974Y-85475724D01*
X49340001Y-85359999D01*
X49311004Y-85336202D01*
X43460000Y-79485199D01*
X43460000Y-79042705D01*
X43531550Y-79101425D01*
X43646207Y-79162710D01*
X43770617Y-79200450D01*
X43900000Y-79213193D01*
X43932419Y-79210000D01*
X110067581Y-79210000D01*
X110100000Y-79213193D01*
X110132419Y-79210000D01*
X110229383Y-79200450D01*
X110353793Y-79162710D01*
X110468450Y-79101425D01*
X110568948Y-79018948D01*
X110651425Y-78918450D01*
X110712710Y-78803793D01*
X110750450Y-78679383D01*
X110763193Y-78550000D01*
X110760000Y-78517581D01*
X110760000Y-68382419D01*
X110763193Y-68350000D01*
X110750450Y-68220617D01*
X110712710Y-68096207D01*
X110651425Y-67981550D01*
X110568948Y-67881052D01*
X110468450Y-67798575D01*
X110353793Y-67737290D01*
X110229383Y-67699550D01*
X110132419Y-67690000D01*
X110100000Y-67686807D01*
X110067581Y-67690000D01*
X43932419Y-67690000D01*
X43900000Y-67686807D01*
X43867581Y-67690000D01*
X43770617Y-67699550D01*
X43646207Y-67737290D01*
X43531550Y-67798575D01*
X43431052Y-67881052D01*
X43348575Y-67981550D01*
X43287290Y-68096207D01*
X43249550Y-68220617D01*
X43236807Y-68350000D01*
X43240001Y-68382429D01*
X43240001Y-69159999D01*
X43211004Y-69136202D01*
X40460000Y-66385199D01*
X40460000Y-51380000D01*
X97607815Y-51380000D01*
X97636487Y-51671111D01*
X97721401Y-51951034D01*
X97859294Y-52209014D01*
X98044866Y-52435134D01*
X98270986Y-52620706D01*
X98325791Y-52650000D01*
X98270986Y-52679294D01*
X98044866Y-52864866D01*
X97859294Y-53090986D01*
X97721401Y-53348966D01*
X97636487Y-53628889D01*
X97607815Y-53920000D01*
X97636487Y-54211111D01*
X97721401Y-54491034D01*
X97859294Y-54749014D01*
X98044866Y-54975134D01*
X98270986Y-55160706D01*
X98325791Y-55190000D01*
X98270986Y-55219294D01*
X98044866Y-55404866D01*
X97859294Y-55630986D01*
X97721401Y-55888966D01*
X97636487Y-56168889D01*
X97607815Y-56460000D01*
X97636487Y-56751111D01*
X97721401Y-57031034D01*
X97859294Y-57289014D01*
X98044866Y-57515134D01*
X98074687Y-57539607D01*
X98005820Y-57560498D01*
X97895506Y-57619463D01*
X97798815Y-57698815D01*
X97719463Y-57795506D01*
X97660498Y-57905820D01*
X97624188Y-58025518D01*
X97611928Y-58150000D01*
X97611928Y-59850000D01*
X97624188Y-59974482D01*
X97660498Y-60094180D01*
X97719463Y-60204494D01*
X97798815Y-60301185D01*
X97895506Y-60380537D01*
X98005820Y-60439502D01*
X98125518Y-60475812D01*
X98250000Y-60488072D01*
X99950000Y-60488072D01*
X100074482Y-60475812D01*
X100194180Y-60439502D01*
X100304494Y-60380537D01*
X100401185Y-60301185D01*
X100480537Y-60204494D01*
X100539502Y-60094180D01*
X100575812Y-59974482D01*
X100588072Y-59850000D01*
X100588072Y-58150000D01*
X100575812Y-58025518D01*
X100539502Y-57905820D01*
X100480537Y-57795506D01*
X100401185Y-57698815D01*
X100304494Y-57619463D01*
X100194180Y-57560498D01*
X100125313Y-57539607D01*
X100155134Y-57515134D01*
X100340706Y-57289014D01*
X100478599Y-57031034D01*
X100563513Y-56751111D01*
X100592185Y-56460000D01*
X100563513Y-56168889D01*
X100478599Y-55888966D01*
X100340706Y-55630986D01*
X100155134Y-55404866D01*
X99929014Y-55219294D01*
X99874209Y-55190000D01*
X99929014Y-55160706D01*
X100155134Y-54975134D01*
X100340706Y-54749014D01*
X100478599Y-54491034D01*
X100563513Y-54211111D01*
X100592185Y-53920000D01*
X100563513Y-53628889D01*
X100478599Y-53348966D01*
X100340706Y-53090986D01*
X100155134Y-52864866D01*
X99929014Y-52679294D01*
X99874209Y-52650000D01*
X99929014Y-52620706D01*
X100155134Y-52435134D01*
X100340706Y-52209014D01*
X100478599Y-51951034D01*
X100563513Y-51671111D01*
X100592185Y-51380000D01*
X100563513Y-51088889D01*
X100478599Y-50808966D01*
X100340706Y-50550986D01*
X100155134Y-50324866D01*
X99929014Y-50139294D01*
X99671034Y-50001401D01*
X99391111Y-49916487D01*
X99172950Y-49895000D01*
X99027050Y-49895000D01*
X98808889Y-49916487D01*
X98528966Y-50001401D01*
X98270986Y-50139294D01*
X98044866Y-50324866D01*
X97859294Y-50550986D01*
X97721401Y-50808966D01*
X97636487Y-51088889D01*
X97607815Y-51380000D01*
X40460000Y-51380000D01*
X40460000Y-47151746D01*
X40575000Y-47163072D01*
X40714250Y-47160000D01*
X40873000Y-47001250D01*
X40873000Y-46227000D01*
X41127000Y-46227000D01*
X41127000Y-47001250D01*
X41285750Y-47160000D01*
X41425000Y-47163072D01*
X41549482Y-47150812D01*
X41669180Y-47114502D01*
X41779494Y-47055537D01*
X41876185Y-46976185D01*
X41955537Y-46879494D01*
X42014502Y-46769180D01*
X42050812Y-46649482D01*
X42063072Y-46525000D01*
X42060866Y-46425000D01*
X112936928Y-46425000D01*
X112949188Y-46549482D01*
X112985498Y-46669180D01*
X113044463Y-46779494D01*
X113123815Y-46876185D01*
X113220506Y-46955537D01*
X113330820Y-47014502D01*
X113450518Y-47050812D01*
X113575000Y-47063072D01*
X113714250Y-47060000D01*
X113873000Y-46901250D01*
X113873000Y-46127000D01*
X114127000Y-46127000D01*
X114127000Y-46901250D01*
X114285750Y-47060000D01*
X114425000Y-47063072D01*
X114549482Y-47050812D01*
X114669180Y-47014502D01*
X114779494Y-46955537D01*
X114876185Y-46876185D01*
X114955537Y-46779494D01*
X115014502Y-46669180D01*
X115050812Y-46549482D01*
X115063072Y-46425000D01*
X115060000Y-46285750D01*
X114901250Y-46127000D01*
X114127000Y-46127000D01*
X113873000Y-46127000D01*
X113098750Y-46127000D01*
X112940000Y-46285750D01*
X112936928Y-46425000D01*
X42060866Y-46425000D01*
X42060000Y-46385750D01*
X41901250Y-46227000D01*
X41127000Y-46227000D01*
X40873000Y-46227000D01*
X40853000Y-46227000D01*
X40853000Y-45973000D01*
X40873000Y-45973000D01*
X40873000Y-45953000D01*
X41127000Y-45953000D01*
X41127000Y-45973000D01*
X41901250Y-45973000D01*
X42060000Y-45814250D01*
X42063072Y-45675000D01*
X42056670Y-45610000D01*
X112937700Y-45610000D01*
X112940000Y-45714250D01*
X113098750Y-45873000D01*
X113873000Y-45873000D01*
X113873000Y-45853000D01*
X114127000Y-45853000D01*
X114127000Y-45873000D01*
X114901250Y-45873000D01*
X115060000Y-45714250D01*
X115063072Y-45575000D01*
X115050812Y-45450518D01*
X115014502Y-45330820D01*
X114955537Y-45220506D01*
X114953483Y-45218003D01*
X115019265Y-45059191D01*
X115060000Y-44854401D01*
X115060000Y-44645599D01*
X115019265Y-44440809D01*
X114939360Y-44247902D01*
X114857240Y-44125000D01*
X114939360Y-44002098D01*
X115019265Y-43809191D01*
X115060000Y-43604401D01*
X115060000Y-43395599D01*
X115019265Y-43190809D01*
X114939360Y-42997902D01*
X114857240Y-42875000D01*
X114939360Y-42752098D01*
X115019265Y-42559191D01*
X115060000Y-42354401D01*
X115060000Y-42145599D01*
X115019265Y-41940809D01*
X114939360Y-41747902D01*
X114823356Y-41574289D01*
X114675711Y-41426644D01*
X114502098Y-41310640D01*
X114309191Y-41230735D01*
X114104401Y-41190000D01*
X113895599Y-41190000D01*
X113690809Y-41230735D01*
X113497902Y-41310640D01*
X113324289Y-41426644D01*
X113176644Y-41574289D01*
X113166146Y-41590000D01*
X41739067Y-41590000D01*
X41675711Y-41526644D01*
X41502098Y-41410640D01*
X41309191Y-41330735D01*
X41104401Y-41290000D01*
X40895599Y-41290000D01*
X40690809Y-41330735D01*
X40497902Y-41410640D01*
X40324289Y-41526644D01*
X40260933Y-41590000D01*
X39887322Y-41590000D01*
X39849999Y-41586324D01*
X39812676Y-41590000D01*
X39812667Y-41590000D01*
X39701014Y-41600997D01*
X39557753Y-41644454D01*
X39425724Y-41715026D01*
X39425722Y-41715027D01*
X39425723Y-41715027D01*
X39338996Y-41786201D01*
X39338992Y-41786205D01*
X39309999Y-41809999D01*
X39286205Y-41838992D01*
X37689002Y-43436197D01*
X37659999Y-43459999D01*
X37627171Y-43500001D01*
X37565026Y-43575724D01*
X37503944Y-43690000D01*
X37494454Y-43707754D01*
X37450997Y-43851015D01*
X37440000Y-43962668D01*
X37440000Y-43962678D01*
X37436324Y-44000000D01*
X36360000Y-44000000D01*
X36360000Y-38016473D01*
X36464886Y-38173446D01*
X36901554Y-38610114D01*
X37415021Y-38953201D01*
X37985554Y-39189524D01*
X38591229Y-39310000D01*
X39208771Y-39310000D01*
X39814446Y-39189524D01*
X40384979Y-38953201D01*
X40898446Y-38610114D01*
X41335114Y-38173446D01*
X41678201Y-37659979D01*
X41914524Y-37089446D01*
X42035000Y-36483771D01*
X42035000Y-35866229D01*
X41914524Y-35260554D01*
X41678201Y-34690021D01*
X41335114Y-34176554D01*
X40898446Y-33739886D01*
X40704057Y-33610000D01*
X113258527Y-33610000D01*
X113101554Y-33714886D01*
X113101554Y-33714886D01*
G37*
X113101554Y-33714886D02*
X112664886Y-34151554D01*
X112321799Y-34665021D01*
X112085476Y-35235554D01*
X111965000Y-35841229D01*
X111965000Y-36458771D01*
X112085476Y-37064446D01*
X112321799Y-37634979D01*
X112664886Y-38148446D01*
X113101554Y-38585114D01*
X113615021Y-38928201D01*
X114185554Y-39164524D01*
X114791229Y-39285000D01*
X115408771Y-39285000D01*
X116014446Y-39164524D01*
X116584979Y-38928201D01*
X117098446Y-38585114D01*
X117535114Y-38148446D01*
X117640000Y-37991473D01*
X117640001Y-125908529D01*
X117535114Y-125751554D01*
X117098446Y-125314886D01*
X116584979Y-124971799D01*
X116014446Y-124735476D01*
X115408771Y-124615000D01*
X114791229Y-124615000D01*
X114185554Y-124735476D01*
X113615021Y-124971799D01*
X113101554Y-125314886D01*
X112664886Y-125751554D01*
X112321799Y-126265021D01*
X112085476Y-126835554D01*
X111965000Y-127441229D01*
X111965000Y-128058771D01*
X112085476Y-128664446D01*
X112321799Y-129234979D01*
X112664886Y-129748446D01*
X113101554Y-130185114D01*
X113258527Y-130290000D01*
X40741473Y-130290000D01*
X40898446Y-130185114D01*
X41335114Y-129748446D01*
X41678201Y-129234979D01*
X41914524Y-128664446D01*
X42035000Y-128058771D01*
X42035000Y-127441229D01*
X41914524Y-126835554D01*
X41678201Y-126265021D01*
X41335114Y-125751554D01*
X40898446Y-125314886D01*
X40384979Y-124971799D01*
X39814446Y-124735476D01*
X39208771Y-124615000D01*
X38591229Y-124615000D01*
X37985554Y-124735476D01*
X37415021Y-124971799D01*
X36901554Y-125314886D01*
X36464886Y-125751554D01*
X36360000Y-125908527D01*
X36360000Y-44000000D01*
X37436324Y-44000000D01*
X37440000Y-44037322D01*
X37440001Y-67362667D01*
X37436324Y-67400000D01*
X37450998Y-67548985D01*
X37494454Y-67692246D01*
X37565026Y-67824276D01*
X37636201Y-67911002D01*
X37660000Y-67940001D01*
X37688998Y-67963799D01*
X40440000Y-70714802D01*
X40440001Y-80762668D01*
X40436324Y-80800000D01*
X40440001Y-80837333D01*
X40450998Y-80948986D01*
X40464180Y-80992442D01*
X40494454Y-81092246D01*
X40565026Y-81224276D01*
X40636201Y-81311002D01*
X40660000Y-81340001D01*
X40688998Y-81363799D01*
X46340000Y-87014802D01*
X46340001Y-104962667D01*
X46336324Y-105000000D01*
X46350998Y-105148985D01*
X46394454Y-105292246D01*
X46465026Y-105424276D01*
X46536201Y-105511002D01*
X46560000Y-105540001D01*
X46588998Y-105563799D01*
X53636200Y-112611002D01*
X53659999Y-112640001D01*
X53775724Y-112734974D01*
X53907753Y-112805546D01*
X54051014Y-112849003D01*
X54162667Y-112860000D01*
X54162676Y-112860000D01*
X54199999Y-112863676D01*
X54237322Y-112860000D01*
X74885199Y-112860000D01*
X75938066Y-113912867D01*
X75926644Y-113924289D01*
X75810640Y-114097902D01*
X75730735Y-114290809D01*
X75690000Y-114495599D01*
X75690000Y-114704401D01*
X75730735Y-114909191D01*
X75810640Y-115102098D01*
X75926644Y-115275711D01*
X76074289Y-115423356D01*
X76247902Y-115539360D01*
X76440809Y-115619265D01*
X76645599Y-115660000D01*
X76854401Y-115660000D01*
X77059191Y-115619265D01*
X77252098Y-115539360D01*
X77375000Y-115457240D01*
X77497902Y-115539360D01*
X77690809Y-115619265D01*
X77895599Y-115660000D01*
X78104401Y-115660000D01*
X78309191Y-115619265D01*
X78502098Y-115539360D01*
X78625000Y-115457240D01*
X78747902Y-115539360D01*
X78940809Y-115619265D01*
X79145599Y-115660000D01*
X79354401Y-115660000D01*
X79559191Y-115619265D01*
X79718003Y-115553483D01*
X79720506Y-115555537D01*
X79830820Y-115614502D01*
X79950518Y-115650812D01*
X80075000Y-115663072D01*
X80214250Y-115660000D01*
X80373000Y-115501250D01*
X80373000Y-114727000D01*
X80627000Y-114727000D01*
X80627000Y-115501250D01*
X80785750Y-115660000D01*
X80925000Y-115663072D01*
X81049482Y-115650812D01*
X81169180Y-115614502D01*
X81279494Y-115555537D01*
X81376185Y-115476185D01*
X81455537Y-115379494D01*
X81514502Y-115269180D01*
X81550812Y-115149482D01*
X81563072Y-115025000D01*
X81560000Y-114885750D01*
X81401250Y-114727000D01*
X80627000Y-114727000D01*
X80373000Y-114727000D01*
X80353000Y-114727000D01*
X80353000Y-114495599D01*
X92890000Y-114495599D01*
X92890000Y-114704401D01*
X92930735Y-114909191D01*
X93010640Y-115102098D01*
X93126644Y-115275711D01*
X93274289Y-115423356D01*
X93447902Y-115539360D01*
X93640809Y-115619265D01*
X93845599Y-115660000D01*
X94054401Y-115660000D01*
X94259191Y-115619265D01*
X94452098Y-115539360D01*
X94575000Y-115457240D01*
X94697902Y-115539360D01*
X94890809Y-115619265D01*
X95095599Y-115660000D01*
X95304401Y-115660000D01*
X95509191Y-115619265D01*
X95702098Y-115539360D01*
X95825000Y-115457240D01*
X95947902Y-115539360D01*
X96140809Y-115619265D01*
X96345599Y-115660000D01*
X96554401Y-115660000D01*
X96759191Y-115619265D01*
X96918003Y-115553483D01*
X96920506Y-115555537D01*
X97030820Y-115614502D01*
X97150518Y-115650812D01*
X97275000Y-115663072D01*
X97414250Y-115660000D01*
X97573000Y-115501250D01*
X97573000Y-114727000D01*
X97827000Y-114727000D01*
X97827000Y-115501250D01*
X97985750Y-115660000D01*
X98125000Y-115663072D01*
X98249482Y-115650812D01*
X98369180Y-115614502D01*
X98479494Y-115555537D01*
X98576185Y-115476185D01*
X98655537Y-115379494D01*
X98714502Y-115269180D01*
X98750812Y-115149482D01*
X98763072Y-115025000D01*
X98760000Y-114885750D01*
X98601250Y-114727000D01*
X97827000Y-114727000D01*
X97573000Y-114727000D01*
X97553000Y-114727000D01*
X97553000Y-114685384D01*
X101688298Y-114685384D01*
X101725356Y-114890870D01*
X101801790Y-115085179D01*
X101819790Y-115118856D01*
X102025614Y-115144781D01*
X102570395Y-114600000D01*
X102025614Y-114055219D01*
X101819790Y-114081144D01*
X101736440Y-114272588D01*
X101692041Y-114476616D01*
X101688298Y-114685384D01*
X97553000Y-114685384D01*
X97553000Y-114473000D01*
X97573000Y-114473000D01*
X97573000Y-114453000D01*
X97827000Y-114453000D01*
X97827000Y-114473000D01*
X98601250Y-114473000D01*
X98760000Y-114314250D01*
X98763072Y-114175000D01*
X98750812Y-114050518D01*
X98714502Y-113930820D01*
X98655537Y-113820506D01*
X98576185Y-113723815D01*
X98479494Y-113644463D01*
X98369180Y-113585498D01*
X98285124Y-113560000D01*
X102544279Y-113560000D01*
X102459130Y-113575356D01*
X102264821Y-113651790D01*
X102231144Y-113669790D01*
X102205219Y-113875614D01*
X102750000Y-114420395D01*
X102764143Y-114406253D01*
X102940000Y-114582110D01*
X102940000Y-114589605D01*
X102929605Y-114600000D01*
X102940000Y-114610395D01*
X102940000Y-114617890D01*
X102764143Y-114793748D01*
X102750000Y-114779605D01*
X102205219Y-115324386D01*
X102231144Y-115530210D01*
X102422588Y-115613560D01*
X102626616Y-115657959D01*
X102835384Y-115661702D01*
X103040870Y-115624644D01*
X103235179Y-115548210D01*
X103268856Y-115530210D01*
X103287011Y-115386078D01*
X103324289Y-115423356D01*
X103497902Y-115539360D01*
X103690809Y-115619265D01*
X103895599Y-115660000D01*
X104104401Y-115660000D01*
X104309191Y-115619265D01*
X104502098Y-115539360D01*
X104625000Y-115457240D01*
X104747902Y-115539360D01*
X104940809Y-115619265D01*
X105145599Y-115660000D01*
X105354401Y-115660000D01*
X105559191Y-115619265D01*
X105752098Y-115539360D01*
X105875000Y-115457240D01*
X105997902Y-115539360D01*
X106190809Y-115619265D01*
X106395599Y-115660000D01*
X106604401Y-115660000D01*
X106809191Y-115619265D01*
X107002098Y-115539360D01*
X107125000Y-115457240D01*
X107247902Y-115539360D01*
X107440809Y-115619265D01*
X107645599Y-115660000D01*
X107854401Y-115660000D01*
X108059191Y-115619265D01*
X108218003Y-115553483D01*
X108220506Y-115555537D01*
X108330820Y-115614502D01*
X108450518Y-115650812D01*
X108575000Y-115663072D01*
X109425000Y-115663072D01*
X109549482Y-115650812D01*
X109669180Y-115614502D01*
X109779494Y-115555537D01*
X109876185Y-115476185D01*
X109955537Y-115379494D01*
X110014502Y-115269180D01*
X110050812Y-115149482D01*
X110063072Y-115025000D01*
X110063072Y-114175000D01*
X110050812Y-114050518D01*
X110014502Y-113930820D01*
X109955537Y-113820506D01*
X109876185Y-113723815D01*
X109779494Y-113644463D01*
X109669180Y-113585498D01*
X109549482Y-113549188D01*
X109425000Y-113536928D01*
X108575000Y-113536928D01*
X108450518Y-113549188D01*
X108330820Y-113585498D01*
X108220506Y-113644463D01*
X108218003Y-113646517D01*
X108059191Y-113580735D01*
X107854401Y-113540000D01*
X107645599Y-113540000D01*
X107440809Y-113580735D01*
X107247902Y-113660640D01*
X107125000Y-113742760D01*
X107002098Y-113660640D01*
X106809191Y-113580735D01*
X106604401Y-113540000D01*
X106395599Y-113540000D01*
X106190809Y-113580735D01*
X105997902Y-113660640D01*
X105875000Y-113742760D01*
X105752098Y-113660640D01*
X105559191Y-113580735D01*
X105354401Y-113540000D01*
X105145599Y-113540000D01*
X104940809Y-113580735D01*
X104749871Y-113659825D01*
X104749003Y-113651014D01*
X104705546Y-113507753D01*
X104634974Y-113375724D01*
X104563799Y-113288997D01*
X104540001Y-113259999D01*
X104511004Y-113236202D01*
X103563804Y-112289002D01*
X103540001Y-112259999D01*
X103424276Y-112165026D01*
X103292247Y-112094454D01*
X103148986Y-112050997D01*
X103037333Y-112040000D01*
X103037322Y-112040000D01*
X103000000Y-112036324D01*
X102962678Y-112040000D01*
X97437323Y-112040000D01*
X97400000Y-112036324D01*
X97362677Y-112040000D01*
X97362667Y-112040000D01*
X97251014Y-112050997D01*
X97107753Y-112094454D01*
X96975723Y-112165026D01*
X96892083Y-112233668D01*
X96859999Y-112259999D01*
X96836201Y-112288997D01*
X95938998Y-113186201D01*
X95910000Y-113209999D01*
X95886202Y-113238997D01*
X95886201Y-113238998D01*
X95815026Y-113325724D01*
X95744454Y-113457754D01*
X95720438Y-113536928D01*
X95700998Y-113601014D01*
X95695398Y-113657865D01*
X95509191Y-113580735D01*
X95304401Y-113540000D01*
X95095599Y-113540000D01*
X94890809Y-113580735D01*
X94697902Y-113660640D01*
X94575000Y-113742760D01*
X94452098Y-113660640D01*
X94259191Y-113580735D01*
X94054401Y-113540000D01*
X93845599Y-113540000D01*
X93640809Y-113580735D01*
X93447902Y-113660640D01*
X93274289Y-113776644D01*
X93126644Y-113924289D01*
X93010640Y-114097902D01*
X92930735Y-114290809D01*
X92890000Y-114495599D01*
X80353000Y-114495599D01*
X80353000Y-114473000D01*
X80373000Y-114473000D01*
X80373000Y-113698750D01*
X80627000Y-113698750D01*
X80627000Y-114473000D01*
X81401250Y-114473000D01*
X81560000Y-114314250D01*
X81563072Y-114175000D01*
X81550812Y-114050518D01*
X81514502Y-113930820D01*
X81455537Y-113820506D01*
X81376185Y-113723815D01*
X81279494Y-113644463D01*
X81169180Y-113585498D01*
X81049482Y-113549188D01*
X80925000Y-113536928D01*
X80785750Y-113540000D01*
X80627000Y-113698750D01*
X80373000Y-113698750D01*
X80214250Y-113540000D01*
X80075000Y-113536928D01*
X80010000Y-113543330D01*
X80010000Y-113287322D01*
X80013676Y-113249999D01*
X80010000Y-113212676D01*
X80010000Y-113212667D01*
X79999003Y-113101014D01*
X79955546Y-112957753D01*
X79884974Y-112825724D01*
X79790001Y-112709999D01*
X79761004Y-112686202D01*
X77063804Y-109989003D01*
X77040001Y-109959999D01*
X76924276Y-109865026D01*
X76792247Y-109794454D01*
X76648986Y-109750997D01*
X76537333Y-109740000D01*
X76537322Y-109740000D01*
X76500000Y-109736324D01*
X76462678Y-109740000D01*
X56614802Y-109740000D01*
X49560000Y-102685199D01*
X49560000Y-96200000D01*
X53936324Y-96200000D01*
X53940000Y-96237323D01*
X53940001Y-101562668D01*
X53936324Y-101600000D01*
X53950998Y-101748985D01*
X53994454Y-101892246D01*
X54065026Y-102024276D01*
X54117383Y-102088072D01*
X54160000Y-102140001D01*
X54188998Y-102163799D01*
X59836201Y-107811003D01*
X59859999Y-107840001D01*
X59975724Y-107934974D01*
X60107753Y-108005546D01*
X60251014Y-108049003D01*
X60362667Y-108060000D01*
X60362676Y-108060000D01*
X60399999Y-108063676D01*
X60437322Y-108060000D01*
X102382678Y-108060000D01*
X102420000Y-108063676D01*
X102457322Y-108060000D01*
X102457333Y-108060000D01*
X102568986Y-108049003D01*
X102712247Y-108005546D01*
X102844276Y-107934974D01*
X102960001Y-107840001D01*
X102983804Y-107810997D01*
X112830235Y-97964567D01*
X112856487Y-98231111D01*
X112941401Y-98511034D01*
X113079294Y-98769014D01*
X113264866Y-98995134D01*
X113294687Y-99019607D01*
X113225820Y-99040498D01*
X113115506Y-99099463D01*
X113018815Y-99178815D01*
X112939463Y-99275506D01*
X112880498Y-99385820D01*
X112844188Y-99505518D01*
X112831928Y-99630000D01*
X112831928Y-101330000D01*
X112844188Y-101454482D01*
X112880498Y-101574180D01*
X112939463Y-101684494D01*
X113018815Y-101781185D01*
X113115506Y-101860537D01*
X113225820Y-101919502D01*
X113345518Y-101955812D01*
X113470000Y-101968072D01*
X115170000Y-101968072D01*
X115294482Y-101955812D01*
X115414180Y-101919502D01*
X115524494Y-101860537D01*
X115621185Y-101781185D01*
X115700537Y-101684494D01*
X115759502Y-101574180D01*
X115795812Y-101454482D01*
X115808072Y-101330000D01*
X115808072Y-99630000D01*
X115795812Y-99505518D01*
X115759502Y-99385820D01*
X115700537Y-99275506D01*
X115621185Y-99178815D01*
X115524494Y-99099463D01*
X115414180Y-99040498D01*
X115345313Y-99019607D01*
X115375134Y-98995134D01*
X115560706Y-98769014D01*
X115698599Y-98511034D01*
X115783513Y-98231111D01*
X115812185Y-97940000D01*
X115783513Y-97648889D01*
X115698599Y-97368966D01*
X115560706Y-97110986D01*
X115375134Y-96884866D01*
X115149014Y-96699294D01*
X115094209Y-96670000D01*
X115149014Y-96640706D01*
X115375134Y-96455134D01*
X115560706Y-96229014D01*
X115698599Y-95971034D01*
X115783513Y-95691111D01*
X115812185Y-95400000D01*
X115783513Y-95108889D01*
X115698599Y-94828966D01*
X115560706Y-94570986D01*
X115375134Y-94344866D01*
X115149014Y-94159294D01*
X115094209Y-94130000D01*
X115149014Y-94100706D01*
X115375134Y-93915134D01*
X115560706Y-93689014D01*
X115698599Y-93431034D01*
X115783513Y-93151111D01*
X115812185Y-92860000D01*
X115783513Y-92568889D01*
X115698599Y-92288966D01*
X115560706Y-92030986D01*
X115375134Y-91804866D01*
X115149014Y-91619294D01*
X115094209Y-91590000D01*
X115149014Y-91560706D01*
X115375134Y-91375134D01*
X115560706Y-91149014D01*
X115698599Y-90891034D01*
X115783513Y-90611111D01*
X115812185Y-90320000D01*
X115783513Y-90028889D01*
X115698599Y-89748966D01*
X115560706Y-89490986D01*
X115375134Y-89264866D01*
X115149014Y-89079294D01*
X115094209Y-89050000D01*
X115149014Y-89020706D01*
X115375134Y-88835134D01*
X115560706Y-88609014D01*
X115698599Y-88351034D01*
X115783513Y-88071111D01*
X115812185Y-87780000D01*
X115783513Y-87488889D01*
X115698599Y-87208966D01*
X115560706Y-86950986D01*
X115375134Y-86724866D01*
X115149014Y-86539294D01*
X115084477Y-86504799D01*
X115201355Y-86435178D01*
X115417588Y-86240269D01*
X115591641Y-86006920D01*
X115716825Y-85744099D01*
X115761476Y-85596890D01*
X115640155Y-85367000D01*
X114447000Y-85367000D01*
X114447000Y-85387000D01*
X114193000Y-85387000D01*
X114193000Y-85367000D01*
X112999845Y-85367000D01*
X112878524Y-85596890D01*
X112923175Y-85744099D01*
X113048359Y-86006920D01*
X113222412Y-86240269D01*
X113438645Y-86435178D01*
X113555523Y-86504799D01*
X113490986Y-86539294D01*
X113264866Y-86724866D01*
X113079294Y-86950986D01*
X112941401Y-87208966D01*
X112856487Y-87488889D01*
X112827815Y-87780000D01*
X112856487Y-88071111D01*
X112941401Y-88351034D01*
X113079294Y-88609014D01*
X113264866Y-88835134D01*
X113490986Y-89020706D01*
X113545791Y-89050000D01*
X113490986Y-89079294D01*
X113264866Y-89264866D01*
X113079294Y-89490986D01*
X112941401Y-89748966D01*
X112856487Y-90028889D01*
X112827815Y-90320000D01*
X112856487Y-90611111D01*
X112941401Y-90891034D01*
X113079294Y-91149014D01*
X113264866Y-91375134D01*
X113490986Y-91560706D01*
X113545791Y-91590000D01*
X113490986Y-91619294D01*
X113264866Y-91804866D01*
X113079294Y-92030986D01*
X112941401Y-92288966D01*
X112856487Y-92568889D01*
X112827815Y-92860000D01*
X112856487Y-93151111D01*
X112941401Y-93431034D01*
X113079294Y-93689014D01*
X113264866Y-93915134D01*
X113490986Y-94100706D01*
X113545791Y-94130000D01*
X113490986Y-94159294D01*
X113264866Y-94344866D01*
X113079294Y-94570986D01*
X112941401Y-94828966D01*
X112856487Y-95108889D01*
X112827815Y-95400000D01*
X112856487Y-95691111D01*
X112879203Y-95765995D01*
X102105199Y-106540000D01*
X79034801Y-106540000D01*
X84707911Y-100866890D01*
X89978524Y-100866890D01*
X90023175Y-101014099D01*
X90148359Y-101276920D01*
X90322412Y-101510269D01*
X90538645Y-101705178D01*
X90788748Y-101854157D01*
X91063109Y-101951481D01*
X91293000Y-101830814D01*
X91293000Y-100637000D01*
X91547000Y-100637000D01*
X91547000Y-101830814D01*
X91776891Y-101951481D01*
X92051252Y-101854157D01*
X92301355Y-101705178D01*
X92517588Y-101510269D01*
X92691641Y-101276920D01*
X92816825Y-101014099D01*
X92861476Y-100866890D01*
X92740155Y-100637000D01*
X91547000Y-100637000D01*
X91293000Y-100637000D01*
X90099845Y-100637000D01*
X89978524Y-100866890D01*
X84707911Y-100866890D01*
X89947270Y-95627532D01*
X89956487Y-95721111D01*
X90041401Y-96001034D01*
X90179294Y-96259014D01*
X90364866Y-96485134D01*
X90590986Y-96670706D01*
X90645791Y-96700000D01*
X90590986Y-96729294D01*
X90364866Y-96914866D01*
X90179294Y-97140986D01*
X90041401Y-97398966D01*
X89956487Y-97678889D01*
X89927815Y-97970000D01*
X89956487Y-98261111D01*
X90041401Y-98541034D01*
X90179294Y-98799014D01*
X90364866Y-99025134D01*
X90590986Y-99210706D01*
X90655523Y-99245201D01*
X90538645Y-99314822D01*
X90322412Y-99509731D01*
X90148359Y-99743080D01*
X90023175Y-100005901D01*
X89978524Y-100153110D01*
X90099845Y-100383000D01*
X91293000Y-100383000D01*
X91293000Y-100363000D01*
X91547000Y-100363000D01*
X91547000Y-100383000D01*
X92740155Y-100383000D01*
X92861476Y-100153110D01*
X92816825Y-100005901D01*
X92691641Y-99743080D01*
X92517588Y-99509731D01*
X92301355Y-99314822D01*
X92184477Y-99245201D01*
X92249014Y-99210706D01*
X92475134Y-99025134D01*
X92660706Y-98799014D01*
X92798599Y-98541034D01*
X92883513Y-98261111D01*
X92912185Y-97970000D01*
X92883513Y-97678889D01*
X92798599Y-97398966D01*
X92660706Y-97140986D01*
X92475134Y-96914866D01*
X92249014Y-96729294D01*
X92194209Y-96700000D01*
X92249014Y-96670706D01*
X92475134Y-96485134D01*
X92660706Y-96259014D01*
X92798599Y-96001034D01*
X92883513Y-95721111D01*
X92912185Y-95430000D01*
X92883513Y-95138889D01*
X92798599Y-94858966D01*
X92660706Y-94600986D01*
X92475134Y-94374866D01*
X92249014Y-94189294D01*
X92194209Y-94160000D01*
X92249014Y-94130706D01*
X92475134Y-93945134D01*
X92660706Y-93719014D01*
X92798599Y-93461034D01*
X92883513Y-93181111D01*
X92912185Y-92890000D01*
X92883513Y-92598889D01*
X92798599Y-92318966D01*
X92660706Y-92060986D01*
X92475134Y-91834866D01*
X92249014Y-91649294D01*
X92194209Y-91620000D01*
X92249014Y-91590706D01*
X92475134Y-91405134D01*
X92660706Y-91179014D01*
X92798599Y-90921034D01*
X92883513Y-90641111D01*
X92912185Y-90350000D01*
X92883513Y-90058889D01*
X92798599Y-89778966D01*
X92660706Y-89520986D01*
X92475134Y-89294866D01*
X92249014Y-89109294D01*
X92194209Y-89080000D01*
X92249014Y-89050706D01*
X92475134Y-88865134D01*
X92660706Y-88639014D01*
X92798599Y-88381034D01*
X92883513Y-88101111D01*
X92912185Y-87810000D01*
X92883513Y-87518889D01*
X92798599Y-87238966D01*
X92660706Y-86980986D01*
X92475134Y-86754866D01*
X92445313Y-86730393D01*
X92514180Y-86709502D01*
X92624494Y-86650537D01*
X92721185Y-86571185D01*
X92800537Y-86474494D01*
X92859502Y-86364180D01*
X92895812Y-86244482D01*
X92908072Y-86120000D01*
X92908072Y-84883110D01*
X112878524Y-84883110D01*
X112999845Y-85113000D01*
X114193000Y-85113000D01*
X114193000Y-83919186D01*
X114447000Y-83919186D01*
X114447000Y-85113000D01*
X115640155Y-85113000D01*
X115761476Y-84883110D01*
X115716825Y-84735901D01*
X115591641Y-84473080D01*
X115417588Y-84239731D01*
X115201355Y-84044822D01*
X114951252Y-83895843D01*
X114676891Y-83798519D01*
X114447000Y-83919186D01*
X114193000Y-83919186D01*
X113963109Y-83798519D01*
X113688748Y-83895843D01*
X113438645Y-84044822D01*
X113222412Y-84239731D01*
X113048359Y-84473080D01*
X112923175Y-84735901D01*
X112878524Y-84883110D01*
X92908072Y-84883110D01*
X92908072Y-84420000D01*
X92895812Y-84295518D01*
X92859502Y-84175820D01*
X92800537Y-84065506D01*
X92721185Y-83968815D01*
X92624494Y-83889463D01*
X92514180Y-83830498D01*
X92394482Y-83794188D01*
X92270000Y-83781928D01*
X90570000Y-83781928D01*
X90445518Y-83794188D01*
X90325820Y-83830498D01*
X90215506Y-83889463D01*
X90118815Y-83968815D01*
X90039463Y-84065506D01*
X89980498Y-84175820D01*
X89944188Y-84295518D01*
X89931928Y-84420000D01*
X89931928Y-86120000D01*
X89944188Y-86244482D01*
X89980498Y-86364180D01*
X90039463Y-86474494D01*
X90118815Y-86571185D01*
X90215506Y-86650537D01*
X90325820Y-86709502D01*
X90394687Y-86730393D01*
X90364866Y-86754866D01*
X90179294Y-86980986D01*
X90041401Y-87238966D01*
X89956487Y-87518889D01*
X89927815Y-87810000D01*
X89956487Y-88101111D01*
X90041401Y-88381034D01*
X90179294Y-88639014D01*
X90364866Y-88865134D01*
X90590986Y-89050706D01*
X90645791Y-89080000D01*
X90590986Y-89109294D01*
X90364866Y-89294866D01*
X90179294Y-89520986D01*
X90041401Y-89778966D01*
X89956487Y-90058889D01*
X89927815Y-90350000D01*
X89956487Y-90641111D01*
X90041401Y-90921034D01*
X90179294Y-91179014D01*
X90364866Y-91405134D01*
X90590986Y-91590706D01*
X90645791Y-91620000D01*
X90590986Y-91649294D01*
X90364866Y-91834866D01*
X90179294Y-92060986D01*
X90041401Y-92318966D01*
X89956487Y-92598889D01*
X89927815Y-92890000D01*
X89956487Y-93181111D01*
X90023424Y-93401774D01*
X77985199Y-105440000D01*
X75017519Y-105440000D01*
X75121034Y-105408599D01*
X75379014Y-105270706D01*
X75605134Y-105085134D01*
X75790706Y-104859014D01*
X75928599Y-104601034D01*
X76013513Y-104321111D01*
X76042185Y-104030000D01*
X76013513Y-103738889D01*
X75928599Y-103458966D01*
X75790706Y-103200986D01*
X75605134Y-102974866D01*
X75379014Y-102789294D01*
X75324209Y-102760000D01*
X75379014Y-102730706D01*
X75605134Y-102545134D01*
X75790706Y-102319014D01*
X75928599Y-102061034D01*
X76013513Y-101781111D01*
X76042185Y-101490000D01*
X76013513Y-101198889D01*
X75928599Y-100918966D01*
X75790706Y-100660986D01*
X75605134Y-100434866D01*
X75379014Y-100249294D01*
X75324209Y-100220000D01*
X75379014Y-100190706D01*
X75605134Y-100005134D01*
X75790706Y-99779014D01*
X75827595Y-99710000D01*
X78812678Y-99710000D01*
X78850000Y-99713676D01*
X78887322Y-99710000D01*
X78887333Y-99710000D01*
X78998986Y-99699003D01*
X79142247Y-99655546D01*
X79274276Y-99584974D01*
X79390001Y-99490001D01*
X79413804Y-99460997D01*
X84511003Y-94363799D01*
X84540001Y-94340001D01*
X84634974Y-94224276D01*
X84705546Y-94092247D01*
X84749003Y-93948986D01*
X84760000Y-93837333D01*
X84760000Y-93837323D01*
X84763676Y-93800000D01*
X84760000Y-93762677D01*
X84760000Y-88914801D01*
X90514802Y-83160000D01*
X111962678Y-83160000D01*
X112000000Y-83163676D01*
X112037322Y-83160000D01*
X112037333Y-83160000D01*
X112148986Y-83149003D01*
X112292247Y-83105546D01*
X112424276Y-83034974D01*
X112540001Y-82940001D01*
X112563804Y-82910997D01*
X117111008Y-78363795D01*
X117140001Y-78340001D01*
X117163795Y-78311008D01*
X117163799Y-78311004D01*
X117234973Y-78224277D01*
X117234974Y-78224276D01*
X117305546Y-78092247D01*
X117349003Y-77948986D01*
X117360000Y-77837333D01*
X117360000Y-77837324D01*
X117363676Y-77800001D01*
X117360000Y-77762678D01*
X117360000Y-54017322D01*
X117363676Y-53979999D01*
X117360000Y-53942676D01*
X117360000Y-53942667D01*
X117349003Y-53831014D01*
X117305546Y-53687753D01*
X117234974Y-53555724D01*
X117140001Y-53439999D01*
X117111004Y-53416202D01*
X115440797Y-51745996D01*
X115463513Y-51671111D01*
X115492185Y-51380000D01*
X115463513Y-51088889D01*
X115378599Y-50808966D01*
X115240706Y-50550986D01*
X115055134Y-50324866D01*
X114829014Y-50139294D01*
X114571034Y-50001401D01*
X114291111Y-49916487D01*
X114072950Y-49895000D01*
X113927050Y-49895000D01*
X113708889Y-49916487D01*
X113428966Y-50001401D01*
X113170986Y-50139294D01*
X112944866Y-50324866D01*
X112759294Y-50550986D01*
X112621401Y-50808966D01*
X112536487Y-51088889D01*
X112507815Y-51380000D01*
X112536487Y-51671111D01*
X112621401Y-51951034D01*
X112759294Y-52209014D01*
X112944866Y-52435134D01*
X113170986Y-52620706D01*
X113225791Y-52650000D01*
X113170986Y-52679294D01*
X112944866Y-52864866D01*
X112759294Y-53090986D01*
X112722405Y-53160000D01*
X112717322Y-53160000D01*
X112679999Y-53156324D01*
X112642676Y-53160000D01*
X112642667Y-53160000D01*
X112531014Y-53170997D01*
X112387753Y-53214454D01*
X112255724Y-53285026D01*
X112255722Y-53285027D01*
X112255723Y-53285027D01*
X112168996Y-53356201D01*
X112168992Y-53356205D01*
X112139999Y-53379999D01*
X112116205Y-53408992D01*
X110288998Y-55236201D01*
X110260000Y-55259999D01*
X110236202Y-55288997D01*
X110236201Y-55288998D01*
X110165026Y-55375724D01*
X110094454Y-55507754D01*
X110050998Y-55651015D01*
X110036324Y-55800000D01*
X110040001Y-55837332D01*
X110040000Y-63162678D01*
X110036324Y-63200000D01*
X110040000Y-63237322D01*
X110040000Y-63237332D01*
X110050997Y-63348985D01*
X110094454Y-63492246D01*
X110165026Y-63624276D01*
X110204871Y-63672826D01*
X110259999Y-63740001D01*
X110289003Y-63763804D01*
X112240001Y-65714803D01*
X112240000Y-78285197D01*
X110885199Y-79640000D01*
X89837325Y-79640000D01*
X89800000Y-79636324D01*
X89762675Y-79640000D01*
X89762667Y-79640000D01*
X89651014Y-79650997D01*
X89507753Y-79694454D01*
X89375724Y-79765026D01*
X89259999Y-79859999D01*
X89236201Y-79888997D01*
X82088998Y-87036201D01*
X82060000Y-87059999D01*
X82036202Y-87088997D01*
X82036201Y-87088998D01*
X81965026Y-87175724D01*
X81894454Y-87307754D01*
X81864790Y-87405546D01*
X81851609Y-87449002D01*
X81850998Y-87451015D01*
X81836324Y-87600000D01*
X81840001Y-87637332D01*
X81840000Y-92685198D01*
X78875199Y-95650000D01*
X75827595Y-95650000D01*
X75790706Y-95580986D01*
X75605134Y-95354866D01*
X75379014Y-95169294D01*
X75314477Y-95134799D01*
X75431355Y-95065178D01*
X75647588Y-94870269D01*
X75821641Y-94636920D01*
X75946825Y-94374099D01*
X75991476Y-94226890D01*
X75870155Y-93997000D01*
X74677000Y-93997000D01*
X74677000Y-94017000D01*
X74423000Y-94017000D01*
X74423000Y-93997000D01*
X73229845Y-93997000D01*
X73108524Y-94226890D01*
X73153175Y-94374099D01*
X73278359Y-94636920D01*
X73452412Y-94870269D01*
X73668645Y-95065178D01*
X73785523Y-95134799D01*
X73720986Y-95169294D01*
X73494866Y-95354866D01*
X73309294Y-95580986D01*
X73171401Y-95838966D01*
X73086487Y-96118889D01*
X73057815Y-96410000D01*
X73086487Y-96701111D01*
X73118513Y-96806686D01*
X72185199Y-97740000D01*
X70715010Y-97740000D01*
X70739502Y-97694180D01*
X70775812Y-97574482D01*
X70788072Y-97450000D01*
X70788072Y-97437147D01*
X70892247Y-97405546D01*
X71024276Y-97334974D01*
X71140001Y-97240001D01*
X71163804Y-97210997D01*
X71410997Y-96963804D01*
X71440001Y-96940001D01*
X71534974Y-96824276D01*
X71605546Y-96692247D01*
X71649003Y-96548986D01*
X71660000Y-96437333D01*
X71660000Y-96437324D01*
X71663676Y-96400001D01*
X71660000Y-96362678D01*
X71660000Y-95137325D01*
X71663676Y-95100000D01*
X71660000Y-95062675D01*
X71660000Y-95062667D01*
X71649003Y-94951014D01*
X71605546Y-94807753D01*
X71534974Y-94675724D01*
X71440001Y-94559999D01*
X71410998Y-94536197D01*
X70963804Y-94089003D01*
X70940001Y-94059999D01*
X70824276Y-93965026D01*
X70692247Y-93894454D01*
X70548986Y-93850997D01*
X70510963Y-93847252D01*
X70459774Y-93796063D01*
X70290256Y-93682795D01*
X70220786Y-93654019D01*
X70339803Y-93535002D01*
X70401939Y-93535002D01*
X70601898Y-93495228D01*
X70790256Y-93417207D01*
X70959774Y-93303939D01*
X71103937Y-93159776D01*
X71217205Y-92990258D01*
X71295226Y-92801900D01*
X71335000Y-92601941D01*
X71335000Y-92398063D01*
X71295226Y-92198104D01*
X71217205Y-92009746D01*
X71103937Y-91840228D01*
X70959774Y-91696065D01*
X70790256Y-91582797D01*
X70601898Y-91504776D01*
X70401939Y-91465002D01*
X70198061Y-91465002D01*
X69998102Y-91504776D01*
X69809744Y-91582797D01*
X69640226Y-91696065D01*
X69496063Y-91840228D01*
X69382795Y-92009746D01*
X69304774Y-92198104D01*
X69265000Y-92398063D01*
X69265000Y-92460199D01*
X67838998Y-93886203D01*
X67810000Y-93910001D01*
X67786202Y-93938999D01*
X67786201Y-93939000D01*
X67715026Y-94025726D01*
X67644454Y-94157756D01*
X67614180Y-94257560D01*
X67600998Y-94301016D01*
X67594693Y-94365027D01*
X67586324Y-94450002D01*
X67590001Y-94487334D01*
X67590001Y-95368954D01*
X67495506Y-95419463D01*
X67398815Y-95498815D01*
X67360000Y-95546111D01*
X67360000Y-95137325D01*
X67363676Y-95100000D01*
X67360000Y-95062675D01*
X67360000Y-95062667D01*
X67349003Y-94951014D01*
X67305546Y-94807753D01*
X67234974Y-94675724D01*
X67140001Y-94559999D01*
X67111003Y-94536201D01*
X66347521Y-93772720D01*
X66389502Y-93694180D01*
X66425812Y-93574482D01*
X66438072Y-93450000D01*
X66435000Y-92985750D01*
X66276250Y-92827000D01*
X65427000Y-92827000D01*
X65427000Y-92847000D01*
X65173000Y-92847000D01*
X65173000Y-92827000D01*
X65153000Y-92827000D01*
X65153000Y-92573000D01*
X65173000Y-92573000D01*
X65173000Y-91473750D01*
X65427000Y-91473750D01*
X65427000Y-92573000D01*
X66276250Y-92573000D01*
X66435000Y-92414250D01*
X66438072Y-91950000D01*
X66425812Y-91825518D01*
X66389502Y-91705820D01*
X66330537Y-91595506D01*
X66251185Y-91498815D01*
X66154494Y-91419463D01*
X66044180Y-91360498D01*
X65924482Y-91324188D01*
X65800000Y-91311928D01*
X65585750Y-91315000D01*
X65427000Y-91473750D01*
X65173000Y-91473750D01*
X65014250Y-91315000D01*
X64800000Y-91311928D01*
X64675518Y-91324188D01*
X64650000Y-91331929D01*
X64624482Y-91324188D01*
X64500000Y-91311928D01*
X64162874Y-91311928D01*
X64314802Y-91160000D01*
X71585199Y-91160000D01*
X72266201Y-91841003D01*
X72289999Y-91870001D01*
X72318997Y-91893799D01*
X72405724Y-91964974D01*
X72537753Y-92035546D01*
X72681014Y-92079003D01*
X72830000Y-92093677D01*
X72867333Y-92090000D01*
X73061928Y-92090000D01*
X73061928Y-92180000D01*
X73074188Y-92304482D01*
X73110498Y-92424180D01*
X73169463Y-92534494D01*
X73248815Y-92631185D01*
X73345506Y-92710537D01*
X73455820Y-92769502D01*
X73536466Y-92793966D01*
X73452412Y-92869731D01*
X73278359Y-93103080D01*
X73153175Y-93365901D01*
X73108524Y-93513110D01*
X73229845Y-93743000D01*
X74423000Y-93743000D01*
X74423000Y-93723000D01*
X74677000Y-93723000D01*
X74677000Y-93743000D01*
X75870155Y-93743000D01*
X75991476Y-93513110D01*
X75946825Y-93365901D01*
X75821641Y-93103080D01*
X75647588Y-92869731D01*
X75563534Y-92793966D01*
X75644180Y-92769502D01*
X75754494Y-92710537D01*
X75851185Y-92631185D01*
X75930537Y-92534494D01*
X75989502Y-92424180D01*
X76025812Y-92304482D01*
X76038072Y-92180000D01*
X76038072Y-90480000D01*
X76025812Y-90355518D01*
X75989502Y-90235820D01*
X75930537Y-90125506D01*
X75851185Y-90028815D01*
X75754494Y-89949463D01*
X75644180Y-89890498D01*
X75524482Y-89854188D01*
X75400000Y-89841928D01*
X73700000Y-89841928D01*
X73575518Y-89854188D01*
X73455820Y-89890498D01*
X73345506Y-89949463D01*
X73248815Y-90028815D01*
X73169463Y-90125506D01*
X73110498Y-90235820D01*
X73074188Y-90355518D01*
X73061928Y-90480000D01*
X73061928Y-90487126D01*
X72463803Y-89889002D01*
X72440001Y-89859999D01*
X72324276Y-89765026D01*
X72192247Y-89694454D01*
X72048986Y-89650997D01*
X71937333Y-89640000D01*
X71937322Y-89640000D01*
X71900000Y-89636324D01*
X71862678Y-89640000D01*
X64037325Y-89640000D01*
X64000000Y-89636324D01*
X63962675Y-89640000D01*
X63962667Y-89640000D01*
X63851014Y-89650997D01*
X63707753Y-89694454D01*
X63575724Y-89765026D01*
X63459999Y-89859999D01*
X63436201Y-89888997D01*
X62188998Y-91136201D01*
X62160000Y-91159999D01*
X62136202Y-91188997D01*
X62136201Y-91188998D01*
X62065026Y-91275724D01*
X62032078Y-91337365D01*
X61955820Y-91360498D01*
X61845506Y-91419463D01*
X61748815Y-91498815D01*
X61669463Y-91595506D01*
X61610498Y-91705820D01*
X61574188Y-91825518D01*
X61561928Y-91950000D01*
X61561928Y-93450000D01*
X61574188Y-93574482D01*
X61578892Y-93589989D01*
X56587336Y-93589989D01*
X56550011Y-93586313D01*
X56512686Y-93589989D01*
X56512678Y-93589989D01*
X56401025Y-93600986D01*
X56257764Y-93644443D01*
X56125735Y-93715015D01*
X56010010Y-93809988D01*
X55986212Y-93838986D01*
X54189003Y-95636196D01*
X54159999Y-95659999D01*
X54118144Y-95711000D01*
X54065026Y-95775724D01*
X54014635Y-95869999D01*
X53994454Y-95907754D01*
X53950997Y-96051015D01*
X53940000Y-96162668D01*
X53940000Y-96162678D01*
X53936324Y-96200000D01*
X49560000Y-96200000D01*
X49560000Y-85937325D01*
X49563676Y-85900000D01*
X49560000Y-85862675D01*
X49560000Y-85862667D01*
X49549003Y-85751014D01*
X49505546Y-85607753D01*
X49434974Y-85475724D01*
X49340001Y-85359999D01*
X49311004Y-85336202D01*
X43460000Y-79485199D01*
X43460000Y-79042705D01*
X43531550Y-79101425D01*
X43646207Y-79162710D01*
X43770617Y-79200450D01*
X43900000Y-79213193D01*
X43932419Y-79210000D01*
X110067581Y-79210000D01*
X110100000Y-79213193D01*
X110132419Y-79210000D01*
X110229383Y-79200450D01*
X110353793Y-79162710D01*
X110468450Y-79101425D01*
X110568948Y-79018948D01*
X110651425Y-78918450D01*
X110712710Y-78803793D01*
X110750450Y-78679383D01*
X110763193Y-78550000D01*
X110760000Y-78517581D01*
X110760000Y-68382419D01*
X110763193Y-68350000D01*
X110750450Y-68220617D01*
X110712710Y-68096207D01*
X110651425Y-67981550D01*
X110568948Y-67881052D01*
X110468450Y-67798575D01*
X110353793Y-67737290D01*
X110229383Y-67699550D01*
X110132419Y-67690000D01*
X110100000Y-67686807D01*
X110067581Y-67690000D01*
X43932419Y-67690000D01*
X43900000Y-67686807D01*
X43867581Y-67690000D01*
X43770617Y-67699550D01*
X43646207Y-67737290D01*
X43531550Y-67798575D01*
X43431052Y-67881052D01*
X43348575Y-67981550D01*
X43287290Y-68096207D01*
X43249550Y-68220617D01*
X43236807Y-68350000D01*
X43240001Y-68382429D01*
X43240001Y-69159999D01*
X43211004Y-69136202D01*
X40460000Y-66385199D01*
X40460000Y-51380000D01*
X97607815Y-51380000D01*
X97636487Y-51671111D01*
X97721401Y-51951034D01*
X97859294Y-52209014D01*
X98044866Y-52435134D01*
X98270986Y-52620706D01*
X98325791Y-52650000D01*
X98270986Y-52679294D01*
X98044866Y-52864866D01*
X97859294Y-53090986D01*
X97721401Y-53348966D01*
X97636487Y-53628889D01*
X97607815Y-53920000D01*
X97636487Y-54211111D01*
X97721401Y-54491034D01*
X97859294Y-54749014D01*
X98044866Y-54975134D01*
X98270986Y-55160706D01*
X98325791Y-55190000D01*
X98270986Y-55219294D01*
X98044866Y-55404866D01*
X97859294Y-55630986D01*
X97721401Y-55888966D01*
X97636487Y-56168889D01*
X97607815Y-56460000D01*
X97636487Y-56751111D01*
X97721401Y-57031034D01*
X97859294Y-57289014D01*
X98044866Y-57515134D01*
X98074687Y-57539607D01*
X98005820Y-57560498D01*
X97895506Y-57619463D01*
X97798815Y-57698815D01*
X97719463Y-57795506D01*
X97660498Y-57905820D01*
X97624188Y-58025518D01*
X97611928Y-58150000D01*
X97611928Y-59850000D01*
X97624188Y-59974482D01*
X97660498Y-60094180D01*
X97719463Y-60204494D01*
X97798815Y-60301185D01*
X97895506Y-60380537D01*
X98005820Y-60439502D01*
X98125518Y-60475812D01*
X98250000Y-60488072D01*
X99950000Y-60488072D01*
X100074482Y-60475812D01*
X100194180Y-60439502D01*
X100304494Y-60380537D01*
X100401185Y-60301185D01*
X100480537Y-60204494D01*
X100539502Y-60094180D01*
X100575812Y-59974482D01*
X100588072Y-59850000D01*
X100588072Y-58150000D01*
X100575812Y-58025518D01*
X100539502Y-57905820D01*
X100480537Y-57795506D01*
X100401185Y-57698815D01*
X100304494Y-57619463D01*
X100194180Y-57560498D01*
X100125313Y-57539607D01*
X100155134Y-57515134D01*
X100340706Y-57289014D01*
X100478599Y-57031034D01*
X100563513Y-56751111D01*
X100592185Y-56460000D01*
X100563513Y-56168889D01*
X100478599Y-55888966D01*
X100340706Y-55630986D01*
X100155134Y-55404866D01*
X99929014Y-55219294D01*
X99874209Y-55190000D01*
X99929014Y-55160706D01*
X100155134Y-54975134D01*
X100340706Y-54749014D01*
X100478599Y-54491034D01*
X100563513Y-54211111D01*
X100592185Y-53920000D01*
X100563513Y-53628889D01*
X100478599Y-53348966D01*
X100340706Y-53090986D01*
X100155134Y-52864866D01*
X99929014Y-52679294D01*
X99874209Y-52650000D01*
X99929014Y-52620706D01*
X100155134Y-52435134D01*
X100340706Y-52209014D01*
X100478599Y-51951034D01*
X100563513Y-51671111D01*
X100592185Y-51380000D01*
X100563513Y-51088889D01*
X100478599Y-50808966D01*
X100340706Y-50550986D01*
X100155134Y-50324866D01*
X99929014Y-50139294D01*
X99671034Y-50001401D01*
X99391111Y-49916487D01*
X99172950Y-49895000D01*
X99027050Y-49895000D01*
X98808889Y-49916487D01*
X98528966Y-50001401D01*
X98270986Y-50139294D01*
X98044866Y-50324866D01*
X97859294Y-50550986D01*
X97721401Y-50808966D01*
X97636487Y-51088889D01*
X97607815Y-51380000D01*
X40460000Y-51380000D01*
X40460000Y-47151746D01*
X40575000Y-47163072D01*
X40714250Y-47160000D01*
X40873000Y-47001250D01*
X40873000Y-46227000D01*
X41127000Y-46227000D01*
X41127000Y-47001250D01*
X41285750Y-47160000D01*
X41425000Y-47163072D01*
X41549482Y-47150812D01*
X41669180Y-47114502D01*
X41779494Y-47055537D01*
X41876185Y-46976185D01*
X41955537Y-46879494D01*
X42014502Y-46769180D01*
X42050812Y-46649482D01*
X42063072Y-46525000D01*
X42060866Y-46425000D01*
X112936928Y-46425000D01*
X112949188Y-46549482D01*
X112985498Y-46669180D01*
X113044463Y-46779494D01*
X113123815Y-46876185D01*
X113220506Y-46955537D01*
X113330820Y-47014502D01*
X113450518Y-47050812D01*
X113575000Y-47063072D01*
X113714250Y-47060000D01*
X113873000Y-46901250D01*
X113873000Y-46127000D01*
X114127000Y-46127000D01*
X114127000Y-46901250D01*
X114285750Y-47060000D01*
X114425000Y-47063072D01*
X114549482Y-47050812D01*
X114669180Y-47014502D01*
X114779494Y-46955537D01*
X114876185Y-46876185D01*
X114955537Y-46779494D01*
X115014502Y-46669180D01*
X115050812Y-46549482D01*
X115063072Y-46425000D01*
X115060000Y-46285750D01*
X114901250Y-46127000D01*
X114127000Y-46127000D01*
X113873000Y-46127000D01*
X113098750Y-46127000D01*
X112940000Y-46285750D01*
X112936928Y-46425000D01*
X42060866Y-46425000D01*
X42060000Y-46385750D01*
X41901250Y-46227000D01*
X41127000Y-46227000D01*
X40873000Y-46227000D01*
X40853000Y-46227000D01*
X40853000Y-45973000D01*
X40873000Y-45973000D01*
X40873000Y-45953000D01*
X41127000Y-45953000D01*
X41127000Y-45973000D01*
X41901250Y-45973000D01*
X42060000Y-45814250D01*
X42063072Y-45675000D01*
X42056670Y-45610000D01*
X112937700Y-45610000D01*
X112940000Y-45714250D01*
X113098750Y-45873000D01*
X113873000Y-45873000D01*
X113873000Y-45853000D01*
X114127000Y-45853000D01*
X114127000Y-45873000D01*
X114901250Y-45873000D01*
X115060000Y-45714250D01*
X115063072Y-45575000D01*
X115050812Y-45450518D01*
X115014502Y-45330820D01*
X114955537Y-45220506D01*
X114953483Y-45218003D01*
X115019265Y-45059191D01*
X115060000Y-44854401D01*
X115060000Y-44645599D01*
X115019265Y-44440809D01*
X114939360Y-44247902D01*
X114857240Y-44125000D01*
X114939360Y-44002098D01*
X115019265Y-43809191D01*
X115060000Y-43604401D01*
X115060000Y-43395599D01*
X115019265Y-43190809D01*
X114939360Y-42997902D01*
X114857240Y-42875000D01*
X114939360Y-42752098D01*
X115019265Y-42559191D01*
X115060000Y-42354401D01*
X115060000Y-42145599D01*
X115019265Y-41940809D01*
X114939360Y-41747902D01*
X114823356Y-41574289D01*
X114675711Y-41426644D01*
X114502098Y-41310640D01*
X114309191Y-41230735D01*
X114104401Y-41190000D01*
X113895599Y-41190000D01*
X113690809Y-41230735D01*
X113497902Y-41310640D01*
X113324289Y-41426644D01*
X113176644Y-41574289D01*
X113166146Y-41590000D01*
X41739067Y-41590000D01*
X41675711Y-41526644D01*
X41502098Y-41410640D01*
X41309191Y-41330735D01*
X41104401Y-41290000D01*
X40895599Y-41290000D01*
X40690809Y-41330735D01*
X40497902Y-41410640D01*
X40324289Y-41526644D01*
X40260933Y-41590000D01*
X39887322Y-41590000D01*
X39849999Y-41586324D01*
X39812676Y-41590000D01*
X39812667Y-41590000D01*
X39701014Y-41600997D01*
X39557753Y-41644454D01*
X39425724Y-41715026D01*
X39425722Y-41715027D01*
X39425723Y-41715027D01*
X39338996Y-41786201D01*
X39338992Y-41786205D01*
X39309999Y-41809999D01*
X39286205Y-41838992D01*
X37689002Y-43436197D01*
X37659999Y-43459999D01*
X37627171Y-43500001D01*
X37565026Y-43575724D01*
X37503944Y-43690000D01*
X37494454Y-43707754D01*
X37450997Y-43851015D01*
X37440000Y-43962668D01*
X37440000Y-43962678D01*
X37436324Y-44000000D01*
X36360000Y-44000000D01*
X36360000Y-38016473D01*
X36464886Y-38173446D01*
X36901554Y-38610114D01*
X37415021Y-38953201D01*
X37985554Y-39189524D01*
X38591229Y-39310000D01*
X39208771Y-39310000D01*
X39814446Y-39189524D01*
X40384979Y-38953201D01*
X40898446Y-38610114D01*
X41335114Y-38173446D01*
X41678201Y-37659979D01*
X41914524Y-37089446D01*
X42035000Y-36483771D01*
X42035000Y-35866229D01*
X41914524Y-35260554D01*
X41678201Y-34690021D01*
X41335114Y-34176554D01*
X40898446Y-33739886D01*
X40704057Y-33610000D01*
X113258527Y-33610000D01*
X113101554Y-33714886D01*
G36*
X57489002Y-95136197D02*
G01*
X57459999Y-95159999D01*
X57415946Y-95213678D01*
X57365026Y-95275724D01*
X57337079Y-95328009D01*
X57324482Y-95324188D01*
X57200000Y-95311928D01*
X56985750Y-95315000D01*
X56827000Y-95473750D01*
X56827000Y-96573000D01*
X56847000Y-96573000D01*
X56847000Y-96827000D01*
X56827000Y-96827000D01*
X56827000Y-97926250D01*
X56985750Y-98085000D01*
X57200000Y-98088072D01*
X57324482Y-98075812D01*
X57350000Y-98068071D01*
X57375518Y-98075812D01*
X57500000Y-98088072D01*
X58500000Y-98088072D01*
X58540001Y-98084132D01*
X58540000Y-99315868D01*
X58500000Y-99311928D01*
X57500000Y-99311928D01*
X57375518Y-99324188D01*
X57350000Y-99331929D01*
X57324482Y-99324188D01*
X57200000Y-99311928D01*
X56985750Y-99315000D01*
X56827000Y-99473750D01*
X56827000Y-100573000D01*
X56847000Y-100573000D01*
X56847000Y-100827000D01*
X56827000Y-100827000D01*
X56827000Y-101926250D01*
X56985750Y-102085000D01*
X57200000Y-102088072D01*
X57240000Y-102084132D01*
X57240000Y-102562677D01*
X57236324Y-102600000D01*
X57240000Y-102637322D01*
X57240000Y-102637332D01*
X57250997Y-102748985D01*
X57287281Y-102868599D01*
X57294454Y-102892246D01*
X57365026Y-103024276D01*
X57397362Y-103063677D01*
X57459999Y-103140001D01*
X57489002Y-103163804D01*
X58461202Y-104136004D01*
X58485000Y-104165002D01*
X58600725Y-104259975D01*
X58732754Y-104330547D01*
X58876015Y-104374004D01*
X58987668Y-104385001D01*
X58987677Y-104385001D01*
X59025000Y-104388677D01*
X59062323Y-104385001D01*
X66037677Y-104385001D01*
X66074999Y-104388677D01*
X66112321Y-104385001D01*
X66112332Y-104385001D01*
X66223985Y-104374004D01*
X66367246Y-104330547D01*
X66499275Y-104259975D01*
X66615000Y-104165002D01*
X66638802Y-104135999D01*
X67311002Y-103463799D01*
X67340001Y-103440001D01*
X67434974Y-103324276D01*
X67505546Y-103192247D01*
X67549003Y-103048986D01*
X67560000Y-102937333D01*
X67560000Y-102937324D01*
X67563676Y-102900001D01*
X67560000Y-102862678D01*
X67560000Y-102015010D01*
X67590001Y-102031046D01*
X67590000Y-103512677D01*
X67586324Y-103550000D01*
X67590000Y-103587322D01*
X67590000Y-103587332D01*
X67600997Y-103698985D01*
X67629287Y-103792246D01*
X67644454Y-103842246D01*
X67715026Y-103974276D01*
X67754871Y-104022826D01*
X67809999Y-104090001D01*
X67839003Y-104113804D01*
X70265198Y-106540000D01*
X60714802Y-106540000D01*
X56261984Y-102087183D01*
X56414250Y-102085000D01*
X56573000Y-101926250D01*
X56573000Y-100827000D01*
X55723750Y-100827000D01*
X55565000Y-100985750D01*
X55562341Y-101387540D01*
X55460000Y-101285199D01*
X55460000Y-99950000D01*
X55561928Y-99950000D01*
X55565000Y-100414250D01*
X55723750Y-100573000D01*
X56573000Y-100573000D01*
X56573000Y-99473750D01*
X56414250Y-99315000D01*
X56200000Y-99311928D01*
X56075518Y-99324188D01*
X55955820Y-99360498D01*
X55845506Y-99419463D01*
X55748815Y-99498815D01*
X55669463Y-99595506D01*
X55610498Y-99705820D01*
X55574188Y-99825518D01*
X55561928Y-99950000D01*
X55460000Y-99950000D01*
X55460000Y-97450000D01*
X55561928Y-97450000D01*
X55574188Y-97574482D01*
X55610498Y-97694180D01*
X55669463Y-97804494D01*
X55748815Y-97901185D01*
X55845506Y-97980537D01*
X55955820Y-98039502D01*
X56075518Y-98075812D01*
X56200000Y-98088072D01*
X56414250Y-98085000D01*
X56573000Y-97926250D01*
X56573000Y-96827000D01*
X55723750Y-96827000D01*
X55565000Y-96985750D01*
X55561928Y-97450000D01*
X55460000Y-97450000D01*
X55460000Y-96514801D01*
X55564971Y-96409830D01*
X55565000Y-96414250D01*
X55723750Y-96573000D01*
X56573000Y-96573000D01*
X56573000Y-95473750D01*
X56537026Y-95437776D01*
X56864813Y-95109989D01*
X57515210Y-95109989D01*
X57489002Y-95136197D01*
X57489002Y-95136197D01*
G37*
X57489002Y-95136197D02*
X57459999Y-95159999D01*
X57415946Y-95213678D01*
X57365026Y-95275724D01*
X57337079Y-95328009D01*
X57324482Y-95324188D01*
X57200000Y-95311928D01*
X56985750Y-95315000D01*
X56827000Y-95473750D01*
X56827000Y-96573000D01*
X56847000Y-96573000D01*
X56847000Y-96827000D01*
X56827000Y-96827000D01*
X56827000Y-97926250D01*
X56985750Y-98085000D01*
X57200000Y-98088072D01*
X57324482Y-98075812D01*
X57350000Y-98068071D01*
X57375518Y-98075812D01*
X57500000Y-98088072D01*
X58500000Y-98088072D01*
X58540001Y-98084132D01*
X58540000Y-99315868D01*
X58500000Y-99311928D01*
X57500000Y-99311928D01*
X57375518Y-99324188D01*
X57350000Y-99331929D01*
X57324482Y-99324188D01*
X57200000Y-99311928D01*
X56985750Y-99315000D01*
X56827000Y-99473750D01*
X56827000Y-100573000D01*
X56847000Y-100573000D01*
X56847000Y-100827000D01*
X56827000Y-100827000D01*
X56827000Y-101926250D01*
X56985750Y-102085000D01*
X57200000Y-102088072D01*
X57240000Y-102084132D01*
X57240000Y-102562677D01*
X57236324Y-102600000D01*
X57240000Y-102637322D01*
X57240000Y-102637332D01*
X57250997Y-102748985D01*
X57287281Y-102868599D01*
X57294454Y-102892246D01*
X57365026Y-103024276D01*
X57397362Y-103063677D01*
X57459999Y-103140001D01*
X57489002Y-103163804D01*
X58461202Y-104136004D01*
X58485000Y-104165002D01*
X58600725Y-104259975D01*
X58732754Y-104330547D01*
X58876015Y-104374004D01*
X58987668Y-104385001D01*
X58987677Y-104385001D01*
X59025000Y-104388677D01*
X59062323Y-104385001D01*
X66037677Y-104385001D01*
X66074999Y-104388677D01*
X66112321Y-104385001D01*
X66112332Y-104385001D01*
X66223985Y-104374004D01*
X66367246Y-104330547D01*
X66499275Y-104259975D01*
X66615000Y-104165002D01*
X66638802Y-104135999D01*
X67311002Y-103463799D01*
X67340001Y-103440001D01*
X67434974Y-103324276D01*
X67505546Y-103192247D01*
X67549003Y-103048986D01*
X67560000Y-102937333D01*
X67560000Y-102937324D01*
X67563676Y-102900001D01*
X67560000Y-102862678D01*
X67560000Y-102015010D01*
X67590001Y-102031046D01*
X67590000Y-103512677D01*
X67586324Y-103550000D01*
X67590000Y-103587322D01*
X67590000Y-103587332D01*
X67600997Y-103698985D01*
X67629287Y-103792246D01*
X67644454Y-103842246D01*
X67715026Y-103974276D01*
X67754871Y-104022826D01*
X67809999Y-104090001D01*
X67839003Y-104113804D01*
X70265198Y-106540000D01*
X60714802Y-106540000D01*
X56261984Y-102087183D01*
X56414250Y-102085000D01*
X56573000Y-101926250D01*
X56573000Y-100827000D01*
X55723750Y-100827000D01*
X55565000Y-100985750D01*
X55562341Y-101387540D01*
X55460000Y-101285199D01*
X55460000Y-99950000D01*
X55561928Y-99950000D01*
X55565000Y-100414250D01*
X55723750Y-100573000D01*
X56573000Y-100573000D01*
X56573000Y-99473750D01*
X56414250Y-99315000D01*
X56200000Y-99311928D01*
X56075518Y-99324188D01*
X55955820Y-99360498D01*
X55845506Y-99419463D01*
X55748815Y-99498815D01*
X55669463Y-99595506D01*
X55610498Y-99705820D01*
X55574188Y-99825518D01*
X55561928Y-99950000D01*
X55460000Y-99950000D01*
X55460000Y-97450000D01*
X55561928Y-97450000D01*
X55574188Y-97574482D01*
X55610498Y-97694180D01*
X55669463Y-97804494D01*
X55748815Y-97901185D01*
X55845506Y-97980537D01*
X55955820Y-98039502D01*
X56075518Y-98075812D01*
X56200000Y-98088072D01*
X56414250Y-98085000D01*
X56573000Y-97926250D01*
X56573000Y-96827000D01*
X55723750Y-96827000D01*
X55565000Y-96985750D01*
X55561928Y-97450000D01*
X55460000Y-97450000D01*
X55460000Y-96514801D01*
X55564971Y-96409830D01*
X55565000Y-96414250D01*
X55723750Y-96573000D01*
X56573000Y-96573000D01*
X56573000Y-95473750D01*
X56537026Y-95437776D01*
X56864813Y-95109989D01*
X57515210Y-95109989D01*
X57489002Y-95136197D01*
G36*
X115840000Y-54294802D02*
G01*
X115840001Y-77485196D01*
X111685199Y-81640000D01*
X90237322Y-81640000D01*
X90199999Y-81636324D01*
X90162676Y-81640000D01*
X90162667Y-81640000D01*
X90051014Y-81650997D01*
X89907753Y-81694454D01*
X89775723Y-81765026D01*
X89692083Y-81833668D01*
X89659999Y-81859999D01*
X89636201Y-81888997D01*
X83489003Y-88036196D01*
X83459999Y-88059999D01*
X83426260Y-88101111D01*
X83365026Y-88175724D01*
X83360000Y-88185127D01*
X83360000Y-87914801D01*
X90114802Y-81160000D01*
X111162678Y-81160000D01*
X111200000Y-81163676D01*
X111237322Y-81160000D01*
X111237333Y-81160000D01*
X111348986Y-81149003D01*
X111492247Y-81105546D01*
X111624276Y-81034974D01*
X111740001Y-80940001D01*
X111763803Y-80910998D01*
X113511009Y-79163794D01*
X113540001Y-79140001D01*
X113563795Y-79111008D01*
X113563799Y-79111004D01*
X113634973Y-79024277D01*
X113634974Y-79024276D01*
X113705546Y-78892247D01*
X113749003Y-78748986D01*
X113760000Y-78637333D01*
X113760000Y-78637324D01*
X113763676Y-78600001D01*
X113760000Y-78562678D01*
X113760000Y-65437323D01*
X113763676Y-65400000D01*
X113760000Y-65362677D01*
X113760000Y-65362667D01*
X113749003Y-65251014D01*
X113705546Y-65107753D01*
X113634974Y-64975724D01*
X113540001Y-64859999D01*
X113511003Y-64836201D01*
X111560000Y-62885199D01*
X111560000Y-59850000D01*
X112511928Y-59850000D01*
X112524188Y-59974482D01*
X112560498Y-60094180D01*
X112619463Y-60204494D01*
X112698815Y-60301185D01*
X112795506Y-60380537D01*
X112905820Y-60439502D01*
X113025518Y-60475812D01*
X113150000Y-60488072D01*
X113714250Y-60485000D01*
X113873000Y-60326250D01*
X113873000Y-59127000D01*
X114127000Y-59127000D01*
X114127000Y-60326250D01*
X114285750Y-60485000D01*
X114850000Y-60488072D01*
X114974482Y-60475812D01*
X115094180Y-60439502D01*
X115204494Y-60380537D01*
X115301185Y-60301185D01*
X115380537Y-60204494D01*
X115439502Y-60094180D01*
X115475812Y-59974482D01*
X115488072Y-59850000D01*
X115485000Y-59285750D01*
X115326250Y-59127000D01*
X114127000Y-59127000D01*
X113873000Y-59127000D01*
X112673750Y-59127000D01*
X112515000Y-59285750D01*
X112511928Y-59850000D01*
X111560000Y-59850000D01*
X111560000Y-56114801D01*
X112834342Y-54840460D01*
X112944866Y-54975134D01*
X113170986Y-55160706D01*
X113225791Y-55190000D01*
X113170986Y-55219294D01*
X112944866Y-55404866D01*
X112759294Y-55630986D01*
X112621401Y-55888966D01*
X112536487Y-56168889D01*
X112507815Y-56460000D01*
X112536487Y-56751111D01*
X112621401Y-57031034D01*
X112759294Y-57289014D01*
X112944866Y-57515134D01*
X112974687Y-57539607D01*
X112905820Y-57560498D01*
X112795506Y-57619463D01*
X112698815Y-57698815D01*
X112619463Y-57795506D01*
X112560498Y-57905820D01*
X112524188Y-58025518D01*
X112511928Y-58150000D01*
X112515000Y-58714250D01*
X112673750Y-58873000D01*
X113873000Y-58873000D01*
X113873000Y-58853000D01*
X114127000Y-58853000D01*
X114127000Y-58873000D01*
X115326250Y-58873000D01*
X115485000Y-58714250D01*
X115488072Y-58150000D01*
X115475812Y-58025518D01*
X115439502Y-57905820D01*
X115380537Y-57795506D01*
X115301185Y-57698815D01*
X115204494Y-57619463D01*
X115094180Y-57560498D01*
X115025313Y-57539607D01*
X115055134Y-57515134D01*
X115240706Y-57289014D01*
X115378599Y-57031034D01*
X115463513Y-56751111D01*
X115492185Y-56460000D01*
X115463513Y-56168889D01*
X115378599Y-55888966D01*
X115240706Y-55630986D01*
X115055134Y-55404866D01*
X114829014Y-55219294D01*
X114774209Y-55190000D01*
X114829014Y-55160706D01*
X115055134Y-54975134D01*
X115240706Y-54749014D01*
X115378599Y-54491034D01*
X115463513Y-54211111D01*
X115489765Y-53944567D01*
X115840000Y-54294802D01*
X115840000Y-54294802D01*
G37*
X115840000Y-54294802D02*
X115840001Y-77485196D01*
X111685199Y-81640000D01*
X90237322Y-81640000D01*
X90199999Y-81636324D01*
X90162676Y-81640000D01*
X90162667Y-81640000D01*
X90051014Y-81650997D01*
X89907753Y-81694454D01*
X89775723Y-81765026D01*
X89692083Y-81833668D01*
X89659999Y-81859999D01*
X89636201Y-81888997D01*
X83489003Y-88036196D01*
X83459999Y-88059999D01*
X83426260Y-88101111D01*
X83365026Y-88175724D01*
X83360000Y-88185127D01*
X83360000Y-87914801D01*
X90114802Y-81160000D01*
X111162678Y-81160000D01*
X111200000Y-81163676D01*
X111237322Y-81160000D01*
X111237333Y-81160000D01*
X111348986Y-81149003D01*
X111492247Y-81105546D01*
X111624276Y-81034974D01*
X111740001Y-80940001D01*
X111763803Y-80910998D01*
X113511009Y-79163794D01*
X113540001Y-79140001D01*
X113563795Y-79111008D01*
X113563799Y-79111004D01*
X113634973Y-79024277D01*
X113634974Y-79024276D01*
X113705546Y-78892247D01*
X113749003Y-78748986D01*
X113760000Y-78637333D01*
X113760000Y-78637324D01*
X113763676Y-78600001D01*
X113760000Y-78562678D01*
X113760000Y-65437323D01*
X113763676Y-65400000D01*
X113760000Y-65362677D01*
X113760000Y-65362667D01*
X113749003Y-65251014D01*
X113705546Y-65107753D01*
X113634974Y-64975724D01*
X113540001Y-64859999D01*
X113511003Y-64836201D01*
X111560000Y-62885199D01*
X111560000Y-59850000D01*
X112511928Y-59850000D01*
X112524188Y-59974482D01*
X112560498Y-60094180D01*
X112619463Y-60204494D01*
X112698815Y-60301185D01*
X112795506Y-60380537D01*
X112905820Y-60439502D01*
X113025518Y-60475812D01*
X113150000Y-60488072D01*
X113714250Y-60485000D01*
X113873000Y-60326250D01*
X113873000Y-59127000D01*
X114127000Y-59127000D01*
X114127000Y-60326250D01*
X114285750Y-60485000D01*
X114850000Y-60488072D01*
X114974482Y-60475812D01*
X115094180Y-60439502D01*
X115204494Y-60380537D01*
X115301185Y-60301185D01*
X115380537Y-60204494D01*
X115439502Y-60094180D01*
X115475812Y-59974482D01*
X115488072Y-59850000D01*
X115485000Y-59285750D01*
X115326250Y-59127000D01*
X114127000Y-59127000D01*
X113873000Y-59127000D01*
X112673750Y-59127000D01*
X112515000Y-59285750D01*
X112511928Y-59850000D01*
X111560000Y-59850000D01*
X111560000Y-56114801D01*
X112834342Y-54840460D01*
X112944866Y-54975134D01*
X113170986Y-55160706D01*
X113225791Y-55190000D01*
X113170986Y-55219294D01*
X112944866Y-55404866D01*
X112759294Y-55630986D01*
X112621401Y-55888966D01*
X112536487Y-56168889D01*
X112507815Y-56460000D01*
X112536487Y-56751111D01*
X112621401Y-57031034D01*
X112759294Y-57289014D01*
X112944866Y-57515134D01*
X112974687Y-57539607D01*
X112905820Y-57560498D01*
X112795506Y-57619463D01*
X112698815Y-57698815D01*
X112619463Y-57795506D01*
X112560498Y-57905820D01*
X112524188Y-58025518D01*
X112511928Y-58150000D01*
X112515000Y-58714250D01*
X112673750Y-58873000D01*
X113873000Y-58873000D01*
X113873000Y-58853000D01*
X114127000Y-58853000D01*
X114127000Y-58873000D01*
X115326250Y-58873000D01*
X115485000Y-58714250D01*
X115488072Y-58150000D01*
X115475812Y-58025518D01*
X115439502Y-57905820D01*
X115380537Y-57795506D01*
X115301185Y-57698815D01*
X115204494Y-57619463D01*
X115094180Y-57560498D01*
X115025313Y-57539607D01*
X115055134Y-57515134D01*
X115240706Y-57289014D01*
X115378599Y-57031034D01*
X115463513Y-56751111D01*
X115492185Y-56460000D01*
X115463513Y-56168889D01*
X115378599Y-55888966D01*
X115240706Y-55630986D01*
X115055134Y-55404866D01*
X114829014Y-55219294D01*
X114774209Y-55190000D01*
X114829014Y-55160706D01*
X115055134Y-54975134D01*
X115240706Y-54749014D01*
X115378599Y-54491034D01*
X115463513Y-54211111D01*
X115489765Y-53944567D01*
X115840000Y-54294802D01*
M02*
