G04 #@! TF.GenerationSoftware,KiCad,Pcbnew,(5.1.2)-2*
G04 #@! TF.CreationDate,2021-04-07T22:17:06-04:00*
G04 #@! TF.ProjectId,Magnetometer_A,4d61676e-6574-46f6-9d65-7465725f412e,rev?*
G04 #@! TF.SameCoordinates,Original*
G04 #@! TF.FileFunction,Legend,Top*
G04 #@! TF.FilePolarity,Positive*
%FSLAX46Y46*%
G04 Gerber Fmt 4.6, Leading zero omitted, Abs format (unit mm)*
G04 Created by KiCad (PCBNEW (5.1.2)-2) date 2021-04-07 22:17:06*
%MOMM*%
%LPD*%
G04 APERTURE LIST*
%ADD10C,0.125000*%
%ADD11C,0.100000*%
%ADD12C,0.120000*%
%ADD13C,0.150000*%
G04 APERTURE END LIST*
D10*
X79226190Y-112095238D02*
X79226190Y-112333333D01*
X79464285Y-112357142D01*
X79440476Y-112333333D01*
X79416666Y-112285714D01*
X79416666Y-112166666D01*
X79440476Y-112119047D01*
X79464285Y-112095238D01*
X79511904Y-112071428D01*
X79630952Y-112071428D01*
X79678571Y-112095238D01*
X79702380Y-112119047D01*
X79726190Y-112166666D01*
X79726190Y-112285714D01*
X79702380Y-112333333D01*
X79678571Y-112357142D01*
X79226190Y-111928571D02*
X79726190Y-111761904D01*
X79226190Y-111595238D01*
X110880952Y-56226190D02*
X111190476Y-56226190D01*
X111023809Y-56416666D01*
X111095238Y-56416666D01*
X111142857Y-56440476D01*
X111166666Y-56464285D01*
X111190476Y-56511904D01*
X111190476Y-56630952D01*
X111166666Y-56678571D01*
X111142857Y-56702380D01*
X111095238Y-56726190D01*
X110952380Y-56726190D01*
X110904761Y-56702380D01*
X110880952Y-56678571D01*
X111333333Y-56226190D02*
X111500000Y-56726190D01*
X111666666Y-56226190D01*
X111785714Y-56226190D02*
X112095238Y-56226190D01*
X111928571Y-56416666D01*
X112000000Y-56416666D01*
X112047619Y-56440476D01*
X112071428Y-56464285D01*
X112095238Y-56511904D01*
X112095238Y-56630952D01*
X112071428Y-56678571D01*
X112047619Y-56702380D01*
X112000000Y-56726190D01*
X111857142Y-56726190D01*
X111809523Y-56702380D01*
X111785714Y-56678571D01*
X76380952Y-91226190D02*
X76690476Y-91226190D01*
X76523809Y-91416666D01*
X76595238Y-91416666D01*
X76642857Y-91440476D01*
X76666666Y-91464285D01*
X76690476Y-91511904D01*
X76690476Y-91630952D01*
X76666666Y-91678571D01*
X76642857Y-91702380D01*
X76595238Y-91726190D01*
X76452380Y-91726190D01*
X76404761Y-91702380D01*
X76380952Y-91678571D01*
X76833333Y-91226190D02*
X77000000Y-91726190D01*
X77166666Y-91226190D01*
X77285714Y-91226190D02*
X77595238Y-91226190D01*
X77428571Y-91416666D01*
X77500000Y-91416666D01*
X77547619Y-91440476D01*
X77571428Y-91464285D01*
X77595238Y-91511904D01*
X77595238Y-91630952D01*
X77571428Y-91678571D01*
X77547619Y-91702380D01*
X77500000Y-91726190D01*
X77357142Y-91726190D01*
X77309523Y-91702380D01*
X77285714Y-91678571D01*
X111380952Y-90226190D02*
X111690476Y-90226190D01*
X111523809Y-90416666D01*
X111595238Y-90416666D01*
X111642857Y-90440476D01*
X111666666Y-90464285D01*
X111690476Y-90511904D01*
X111690476Y-90630952D01*
X111666666Y-90678571D01*
X111642857Y-90702380D01*
X111595238Y-90726190D01*
X111452380Y-90726190D01*
X111404761Y-90702380D01*
X111380952Y-90678571D01*
X111833333Y-90226190D02*
X112000000Y-90726190D01*
X112166666Y-90226190D01*
X112285714Y-90226190D02*
X112595238Y-90226190D01*
X112428571Y-90416666D01*
X112500000Y-90416666D01*
X112547619Y-90440476D01*
X112571428Y-90464285D01*
X112595238Y-90511904D01*
X112595238Y-90630952D01*
X112571428Y-90678571D01*
X112547619Y-90702380D01*
X112500000Y-90726190D01*
X112357142Y-90726190D01*
X112309523Y-90702380D01*
X112285714Y-90678571D01*
X111380952Y-87726190D02*
X111690476Y-87726190D01*
X111523809Y-87916666D01*
X111595238Y-87916666D01*
X111642857Y-87940476D01*
X111666666Y-87964285D01*
X111690476Y-88011904D01*
X111690476Y-88130952D01*
X111666666Y-88178571D01*
X111642857Y-88202380D01*
X111595238Y-88226190D01*
X111452380Y-88226190D01*
X111404761Y-88202380D01*
X111380952Y-88178571D01*
X111833333Y-87726190D02*
X112000000Y-88226190D01*
X112166666Y-87726190D01*
X112285714Y-87726190D02*
X112595238Y-87726190D01*
X112428571Y-87916666D01*
X112500000Y-87916666D01*
X112547619Y-87940476D01*
X112571428Y-87964285D01*
X112595238Y-88011904D01*
X112595238Y-88130952D01*
X112571428Y-88178571D01*
X112547619Y-88202380D01*
X112500000Y-88226190D01*
X112357142Y-88226190D01*
X112309523Y-88202380D01*
X112285714Y-88178571D01*
X103726190Y-112619047D02*
X103726190Y-112309523D01*
X103916666Y-112476190D01*
X103916666Y-112404761D01*
X103940476Y-112357142D01*
X103964285Y-112333333D01*
X104011904Y-112309523D01*
X104130952Y-112309523D01*
X104178571Y-112333333D01*
X104202380Y-112357142D01*
X104226190Y-112404761D01*
X104226190Y-112547619D01*
X104202380Y-112595238D01*
X104178571Y-112619047D01*
X103726190Y-112166666D02*
X104226190Y-112000000D01*
X103726190Y-111833333D01*
X103726190Y-111714285D02*
X103726190Y-111404761D01*
X103916666Y-111571428D01*
X103916666Y-111500000D01*
X103940476Y-111452380D01*
X103964285Y-111428571D01*
X104011904Y-111404761D01*
X104130952Y-111404761D01*
X104178571Y-111428571D01*
X104202380Y-111452380D01*
X104226190Y-111500000D01*
X104226190Y-111642857D01*
X104202380Y-111690476D01*
X104178571Y-111714285D01*
X96226190Y-112619047D02*
X96226190Y-112309523D01*
X96416666Y-112476190D01*
X96416666Y-112404761D01*
X96440476Y-112357142D01*
X96464285Y-112333333D01*
X96511904Y-112309523D01*
X96630952Y-112309523D01*
X96678571Y-112333333D01*
X96702380Y-112357142D01*
X96726190Y-112404761D01*
X96726190Y-112547619D01*
X96702380Y-112595238D01*
X96678571Y-112619047D01*
X96226190Y-112166666D02*
X96726190Y-112000000D01*
X96226190Y-111833333D01*
X96226190Y-111714285D02*
X96226190Y-111404761D01*
X96416666Y-111571428D01*
X96416666Y-111500000D01*
X96440476Y-111452380D01*
X96464285Y-111428571D01*
X96511904Y-111404761D01*
X96630952Y-111404761D01*
X96678571Y-111428571D01*
X96702380Y-111452380D01*
X96726190Y-111500000D01*
X96726190Y-111642857D01*
X96702380Y-111690476D01*
X96678571Y-111714285D01*
X80250000Y-112380952D02*
X80226190Y-112428571D01*
X80226190Y-112500000D01*
X80250000Y-112571428D01*
X80297619Y-112619047D01*
X80345238Y-112642857D01*
X80440476Y-112666666D01*
X80511904Y-112666666D01*
X80607142Y-112642857D01*
X80654761Y-112619047D01*
X80702380Y-112571428D01*
X80726190Y-112500000D01*
X80726190Y-112452380D01*
X80702380Y-112380952D01*
X80678571Y-112357142D01*
X80511904Y-112357142D01*
X80511904Y-112452380D01*
X80726190Y-112142857D02*
X80226190Y-112142857D01*
X80726190Y-111857142D01*
X80226190Y-111857142D01*
X80726190Y-111619047D02*
X80226190Y-111619047D01*
X80226190Y-111500000D01*
X80250000Y-111428571D01*
X80297619Y-111380952D01*
X80345238Y-111357142D01*
X80440476Y-111333333D01*
X80511904Y-111333333D01*
X80607142Y-111357142D01*
X80654761Y-111380952D01*
X80702380Y-111428571D01*
X80726190Y-111500000D01*
X80726190Y-111619047D01*
X97750000Y-112380952D02*
X97726190Y-112428571D01*
X97726190Y-112500000D01*
X97750000Y-112571428D01*
X97797619Y-112619047D01*
X97845238Y-112642857D01*
X97940476Y-112666666D01*
X98011904Y-112666666D01*
X98107142Y-112642857D01*
X98154761Y-112619047D01*
X98202380Y-112571428D01*
X98226190Y-112500000D01*
X98226190Y-112452380D01*
X98202380Y-112380952D01*
X98178571Y-112357142D01*
X98011904Y-112357142D01*
X98011904Y-112452380D01*
X98226190Y-112142857D02*
X97726190Y-112142857D01*
X98226190Y-111857142D01*
X97726190Y-111857142D01*
X98226190Y-111619047D02*
X97726190Y-111619047D01*
X97726190Y-111500000D01*
X97750000Y-111428571D01*
X97797619Y-111380952D01*
X97845238Y-111357142D01*
X97940476Y-111333333D01*
X98011904Y-111333333D01*
X98107142Y-111357142D01*
X98154761Y-111380952D01*
X98202380Y-111428571D01*
X98226190Y-111500000D01*
X98226190Y-111619047D01*
X102250000Y-112380952D02*
X102226190Y-112428571D01*
X102226190Y-112500000D01*
X102250000Y-112571428D01*
X102297619Y-112619047D01*
X102345238Y-112642857D01*
X102440476Y-112666666D01*
X102511904Y-112666666D01*
X102607142Y-112642857D01*
X102654761Y-112619047D01*
X102702380Y-112571428D01*
X102726190Y-112500000D01*
X102726190Y-112452380D01*
X102702380Y-112380952D01*
X102678571Y-112357142D01*
X102511904Y-112357142D01*
X102511904Y-112452380D01*
X102726190Y-112142857D02*
X102226190Y-112142857D01*
X102726190Y-111857142D01*
X102226190Y-111857142D01*
X102726190Y-111619047D02*
X102226190Y-111619047D01*
X102226190Y-111500000D01*
X102250000Y-111428571D01*
X102297619Y-111380952D01*
X102345238Y-111357142D01*
X102440476Y-111333333D01*
X102511904Y-111333333D01*
X102607142Y-111357142D01*
X102654761Y-111380952D01*
X102702380Y-111428571D01*
X102726190Y-111500000D01*
X102726190Y-111619047D01*
X93619047Y-100250000D02*
X93571428Y-100226190D01*
X93500000Y-100226190D01*
X93428571Y-100250000D01*
X93380952Y-100297619D01*
X93357142Y-100345238D01*
X93333333Y-100440476D01*
X93333333Y-100511904D01*
X93357142Y-100607142D01*
X93380952Y-100654761D01*
X93428571Y-100702380D01*
X93500000Y-100726190D01*
X93547619Y-100726190D01*
X93619047Y-100702380D01*
X93642857Y-100678571D01*
X93642857Y-100511904D01*
X93547619Y-100511904D01*
X93857142Y-100726190D02*
X93857142Y-100226190D01*
X94142857Y-100726190D01*
X94142857Y-100226190D01*
X94380952Y-100726190D02*
X94380952Y-100226190D01*
X94500000Y-100226190D01*
X94571428Y-100250000D01*
X94619047Y-100297619D01*
X94642857Y-100345238D01*
X94666666Y-100440476D01*
X94666666Y-100511904D01*
X94642857Y-100607142D01*
X94619047Y-100654761D01*
X94571428Y-100702380D01*
X94500000Y-100726190D01*
X94380952Y-100726190D01*
X111619047Y-85250000D02*
X111571428Y-85226190D01*
X111500000Y-85226190D01*
X111428571Y-85250000D01*
X111380952Y-85297619D01*
X111357142Y-85345238D01*
X111333333Y-85440476D01*
X111333333Y-85511904D01*
X111357142Y-85607142D01*
X111380952Y-85654761D01*
X111428571Y-85702380D01*
X111500000Y-85726190D01*
X111547619Y-85726190D01*
X111619047Y-85702380D01*
X111642857Y-85678571D01*
X111642857Y-85511904D01*
X111547619Y-85511904D01*
X111857142Y-85726190D02*
X111857142Y-85226190D01*
X112142857Y-85726190D01*
X112142857Y-85226190D01*
X112380952Y-85726190D02*
X112380952Y-85226190D01*
X112500000Y-85226190D01*
X112571428Y-85250000D01*
X112619047Y-85297619D01*
X112642857Y-85345238D01*
X112666666Y-85440476D01*
X112666666Y-85511904D01*
X112642857Y-85607142D01*
X112619047Y-85654761D01*
X112571428Y-85702380D01*
X112500000Y-85726190D01*
X112380952Y-85726190D01*
X76619047Y-93750000D02*
X76571428Y-93726190D01*
X76500000Y-93726190D01*
X76428571Y-93750000D01*
X76380952Y-93797619D01*
X76357142Y-93845238D01*
X76333333Y-93940476D01*
X76333333Y-94011904D01*
X76357142Y-94107142D01*
X76380952Y-94154761D01*
X76428571Y-94202380D01*
X76500000Y-94226190D01*
X76547619Y-94226190D01*
X76619047Y-94202380D01*
X76642857Y-94178571D01*
X76642857Y-94011904D01*
X76547619Y-94011904D01*
X76857142Y-94226190D02*
X76857142Y-93726190D01*
X77142857Y-94226190D01*
X77142857Y-93726190D01*
X77380952Y-94226190D02*
X77380952Y-93726190D01*
X77500000Y-93726190D01*
X77571428Y-93750000D01*
X77619047Y-93797619D01*
X77642857Y-93845238D01*
X77666666Y-93940476D01*
X77666666Y-94011904D01*
X77642857Y-94107142D01*
X77619047Y-94154761D01*
X77571428Y-94202380D01*
X77500000Y-94226190D01*
X77380952Y-94226190D01*
X43119047Y-45750000D02*
X43071428Y-45726190D01*
X43000000Y-45726190D01*
X42928571Y-45750000D01*
X42880952Y-45797619D01*
X42857142Y-45845238D01*
X42833333Y-45940476D01*
X42833333Y-46011904D01*
X42857142Y-46107142D01*
X42880952Y-46154761D01*
X42928571Y-46202380D01*
X43000000Y-46226190D01*
X43047619Y-46226190D01*
X43119047Y-46202380D01*
X43142857Y-46178571D01*
X43142857Y-46011904D01*
X43047619Y-46011904D01*
X43357142Y-46226190D02*
X43357142Y-45726190D01*
X43642857Y-46226190D01*
X43642857Y-45726190D01*
X43880952Y-46226190D02*
X43880952Y-45726190D01*
X44000000Y-45726190D01*
X44071428Y-45750000D01*
X44119047Y-45797619D01*
X44142857Y-45845238D01*
X44166666Y-45940476D01*
X44166666Y-46011904D01*
X44142857Y-46107142D01*
X44119047Y-46154761D01*
X44071428Y-46202380D01*
X44000000Y-46226190D01*
X43880952Y-46226190D01*
X110119047Y-45750000D02*
X110071428Y-45726190D01*
X110000000Y-45726190D01*
X109928571Y-45750000D01*
X109880952Y-45797619D01*
X109857142Y-45845238D01*
X109833333Y-45940476D01*
X109833333Y-46011904D01*
X109857142Y-46107142D01*
X109880952Y-46154761D01*
X109928571Y-46202380D01*
X110000000Y-46226190D01*
X110047619Y-46226190D01*
X110119047Y-46202380D01*
X110142857Y-46178571D01*
X110142857Y-46011904D01*
X110047619Y-46011904D01*
X110357142Y-46226190D02*
X110357142Y-45726190D01*
X110642857Y-46226190D01*
X110642857Y-45726190D01*
X110880952Y-46226190D02*
X110880952Y-45726190D01*
X111000000Y-45726190D01*
X111071428Y-45750000D01*
X111119047Y-45797619D01*
X111142857Y-45845238D01*
X111166666Y-45940476D01*
X111166666Y-46011904D01*
X111142857Y-46107142D01*
X111119047Y-46154761D01*
X111071428Y-46202380D01*
X111000000Y-46226190D01*
X110880952Y-46226190D01*
X111119047Y-58750000D02*
X111071428Y-58726190D01*
X111000000Y-58726190D01*
X110928571Y-58750000D01*
X110880952Y-58797619D01*
X110857142Y-58845238D01*
X110833333Y-58940476D01*
X110833333Y-59011904D01*
X110857142Y-59107142D01*
X110880952Y-59154761D01*
X110928571Y-59202380D01*
X111000000Y-59226190D01*
X111047619Y-59226190D01*
X111119047Y-59202380D01*
X111142857Y-59178571D01*
X111142857Y-59011904D01*
X111047619Y-59011904D01*
X111357142Y-59226190D02*
X111357142Y-58726190D01*
X111642857Y-59226190D01*
X111642857Y-58726190D01*
X111880952Y-59226190D02*
X111880952Y-58726190D01*
X112000000Y-58726190D01*
X112071428Y-58750000D01*
X112119047Y-58797619D01*
X112142857Y-58845238D01*
X112166666Y-58940476D01*
X112166666Y-59011904D01*
X112142857Y-59107142D01*
X112119047Y-59154761D01*
X112071428Y-59202380D01*
X112000000Y-59226190D01*
X111880952Y-59226190D01*
D11*
G36*
X61950000Y-93700000D02*
G01*
X55000000Y-93700000D01*
X55000000Y-91700000D01*
X61950000Y-91700000D01*
X61950000Y-93700000D01*
G37*
X61950000Y-93700000D02*
X55000000Y-93700000D01*
X55000000Y-91700000D01*
X61950000Y-91700000D01*
X61950000Y-93700000D01*
G36*
X55950000Y-101700000D02*
G01*
X55000000Y-101700000D01*
X55000000Y-99700000D01*
X55950000Y-99700000D01*
X55950000Y-101700000D01*
G37*
X55950000Y-101700000D02*
X55000000Y-101700000D01*
X55000000Y-99700000D01*
X55950000Y-99700000D01*
X55950000Y-101700000D01*
G36*
X55950000Y-97700000D02*
G01*
X55000000Y-97700000D01*
X55000000Y-95700000D01*
X56000000Y-95700000D01*
X55950000Y-97700000D01*
G37*
X55950000Y-97700000D02*
X55000000Y-97700000D01*
X55000000Y-95700000D01*
X56000000Y-95700000D01*
X55950000Y-97700000D01*
G36*
X61950000Y-97700000D02*
G01*
X60050000Y-97700000D01*
X60050000Y-95700000D01*
X61950000Y-95700000D01*
X61950000Y-97700000D01*
G37*
X61950000Y-97700000D02*
X60050000Y-97700000D01*
X60050000Y-95700000D01*
X61950000Y-95700000D01*
X61950000Y-97700000D01*
G36*
X61950000Y-101700000D02*
G01*
X60050000Y-101700000D01*
X60050000Y-99700000D01*
X61950000Y-99700000D01*
X61950000Y-101700000D01*
G37*
X61950000Y-101700000D02*
X60050000Y-101700000D01*
X60050000Y-99700000D01*
X61950000Y-99700000D01*
X61950000Y-101700000D01*
D12*
X55000000Y-102700000D02*
X64000000Y-102700000D01*
X55000000Y-89700000D02*
X55000000Y-102700000D01*
X64000000Y-89700000D02*
X55000000Y-89700000D01*
X64000000Y-91700000D02*
X64000000Y-89700000D01*
X64000000Y-99700000D02*
X64000000Y-97700000D01*
X64000000Y-95700000D02*
X64000000Y-93700000D01*
X64000000Y-102700000D02*
X64000000Y-101700000D01*
X71000000Y-102700000D02*
X64000000Y-102700000D01*
X71000000Y-89700000D02*
X71000000Y-102700000D01*
X64000000Y-89700000D02*
X71000000Y-89700000D01*
D13*
X103119047Y-53152380D02*
X103119047Y-52152380D01*
X103452380Y-52866666D01*
X103785714Y-52152380D01*
X103785714Y-53152380D01*
X104261904Y-53152380D02*
X104261904Y-52152380D01*
X104642857Y-52152380D01*
X104738095Y-52200000D01*
X104785714Y-52247619D01*
X104833333Y-52342857D01*
X104833333Y-52485714D01*
X104785714Y-52580952D01*
X104738095Y-52628571D01*
X104642857Y-52676190D01*
X104261904Y-52676190D01*
X105261904Y-52152380D02*
X105261904Y-52961904D01*
X105309523Y-53057142D01*
X105357142Y-53104761D01*
X105452380Y-53152380D01*
X105642857Y-53152380D01*
X105738095Y-53104761D01*
X105785714Y-53057142D01*
X105833333Y-52961904D01*
X105833333Y-52152380D01*
X106309523Y-52771428D02*
X107071428Y-52771428D01*
X107595238Y-53152380D02*
X107785714Y-53152380D01*
X107880952Y-53104761D01*
X107928571Y-53057142D01*
X108023809Y-52914285D01*
X108071428Y-52723809D01*
X108071428Y-52342857D01*
X108023809Y-52247619D01*
X107976190Y-52200000D01*
X107880952Y-52152380D01*
X107690476Y-52152380D01*
X107595238Y-52200000D01*
X107547619Y-52247619D01*
X107500000Y-52342857D01*
X107500000Y-52580952D01*
X107547619Y-52676190D01*
X107595238Y-52723809D01*
X107690476Y-52771428D01*
X107880952Y-52771428D01*
X107976190Y-52723809D01*
X108023809Y-52676190D01*
X108071428Y-52580952D01*
X108452380Y-52247619D02*
X108500000Y-52200000D01*
X108595238Y-52152380D01*
X108833333Y-52152380D01*
X108928571Y-52200000D01*
X108976190Y-52247619D01*
X109023809Y-52342857D01*
X109023809Y-52438095D01*
X108976190Y-52580952D01*
X108404761Y-53152380D01*
X109023809Y-53152380D01*
X109928571Y-52152380D02*
X109452380Y-52152380D01*
X109404761Y-52628571D01*
X109452380Y-52580952D01*
X109547619Y-52533333D01*
X109785714Y-52533333D01*
X109880952Y-52580952D01*
X109928571Y-52628571D01*
X109976190Y-52723809D01*
X109976190Y-52961904D01*
X109928571Y-53057142D01*
X109880952Y-53104761D01*
X109785714Y-53152380D01*
X109547619Y-53152380D01*
X109452380Y-53104761D01*
X109404761Y-53057142D01*
X110595238Y-52152380D02*
X110690476Y-52152380D01*
X110785714Y-52200000D01*
X110833333Y-52247619D01*
X110880952Y-52342857D01*
X110928571Y-52533333D01*
X110928571Y-52771428D01*
X110880952Y-52961904D01*
X110833333Y-53057142D01*
X110785714Y-53104761D01*
X110690476Y-53152380D01*
X110595238Y-53152380D01*
X110500000Y-53104761D01*
X110452380Y-53057142D01*
X110404761Y-52961904D01*
X110357142Y-52771428D01*
X110357142Y-52533333D01*
X110404761Y-52342857D01*
X110452380Y-52247619D01*
X110500000Y-52200000D01*
X110595238Y-52152380D01*
D12*
X97680000Y-67330000D02*
X97680000Y-49330000D01*
X115680000Y-67330000D02*
X97680000Y-67330000D01*
X115680000Y-49330000D02*
X115680000Y-67330000D01*
X97680000Y-49330000D02*
X115680000Y-49330000D01*
D13*
X78114285Y-96822380D02*
X78685714Y-96822380D01*
X78400000Y-97822380D02*
X78400000Y-96822380D01*
X79019047Y-97822380D02*
X79019047Y-96822380D01*
X79352380Y-97536666D01*
X79685714Y-96822380D01*
X79685714Y-97822380D01*
X80161904Y-97822380D02*
X80161904Y-96822380D01*
X80542857Y-96822380D01*
X80638095Y-96870000D01*
X80685714Y-96917619D01*
X80733333Y-97012857D01*
X80733333Y-97155714D01*
X80685714Y-97250952D01*
X80638095Y-97298571D01*
X80542857Y-97346190D01*
X80161904Y-97346190D01*
X81685714Y-97822380D02*
X81114285Y-97822380D01*
X81400000Y-97822380D02*
X81400000Y-96822380D01*
X81304761Y-96965238D01*
X81209523Y-97060476D01*
X81114285Y-97108095D01*
X82304761Y-96822380D02*
X82400000Y-96822380D01*
X82495238Y-96870000D01*
X82542857Y-96917619D01*
X82590476Y-97012857D01*
X82638095Y-97203333D01*
X82638095Y-97441428D01*
X82590476Y-97631904D01*
X82542857Y-97727142D01*
X82495238Y-97774761D01*
X82400000Y-97822380D01*
X82304761Y-97822380D01*
X82209523Y-97774761D01*
X82161904Y-97727142D01*
X82114285Y-97631904D01*
X82066666Y-97441428D01*
X82066666Y-97203333D01*
X82114285Y-97012857D01*
X82161904Y-96917619D01*
X82209523Y-96870000D01*
X82304761Y-96822380D01*
X83019047Y-96917619D02*
X83066666Y-96870000D01*
X83161904Y-96822380D01*
X83400000Y-96822380D01*
X83495238Y-96870000D01*
X83542857Y-96917619D01*
X83590476Y-97012857D01*
X83590476Y-97108095D01*
X83542857Y-97250952D01*
X82971428Y-97822380D01*
X83590476Y-97822380D01*
D12*
X88700000Y-89570000D02*
X88700000Y-105570000D01*
X72700000Y-105570000D02*
X88700000Y-105570000D01*
X72700000Y-89570000D02*
X88700000Y-89570000D01*
X72700000Y-89570000D02*
X72700000Y-105570000D01*
X89690000Y-105560000D02*
X115690000Y-105560000D01*
X89690000Y-79560000D02*
X89690000Y-105560000D01*
X115690000Y-79560000D02*
X115690000Y-105560000D01*
X114690000Y-79560000D02*
X115690000Y-79560000D01*
X89690000Y-79560000D02*
X114690000Y-79560000D01*
D13*
X98909047Y-93012380D02*
X98909047Y-92012380D01*
X99290000Y-92012380D01*
X99385238Y-92060000D01*
X99432857Y-92107619D01*
X99480476Y-92202857D01*
X99480476Y-92345714D01*
X99432857Y-92440952D01*
X99385238Y-92488571D01*
X99290000Y-92536190D01*
X98909047Y-92536190D01*
X99909047Y-93012380D02*
X99909047Y-92012380D01*
X100480476Y-93012380D01*
X100480476Y-92012380D01*
X100956666Y-93012380D02*
X100956666Y-92012380D01*
X102766190Y-93012380D02*
X102432857Y-92536190D01*
X102194761Y-93012380D02*
X102194761Y-92012380D01*
X102575714Y-92012380D01*
X102670952Y-92060000D01*
X102718571Y-92107619D01*
X102766190Y-92202857D01*
X102766190Y-92345714D01*
X102718571Y-92440952D01*
X102670952Y-92488571D01*
X102575714Y-92536190D01*
X102194761Y-92536190D01*
X103194761Y-93012380D02*
X103194761Y-92012380D01*
X103528095Y-92726666D01*
X103861428Y-92012380D01*
X103861428Y-93012380D01*
X104242380Y-92012380D02*
X104861428Y-92012380D01*
X104528095Y-92393333D01*
X104670952Y-92393333D01*
X104766190Y-92440952D01*
X104813809Y-92488571D01*
X104861428Y-92583809D01*
X104861428Y-92821904D01*
X104813809Y-92917142D01*
X104766190Y-92964761D01*
X104670952Y-93012380D01*
X104385238Y-93012380D01*
X104290000Y-92964761D01*
X104242380Y-92917142D01*
X105813809Y-93012380D02*
X105242380Y-93012380D01*
X105528095Y-93012380D02*
X105528095Y-92012380D01*
X105432857Y-92155238D01*
X105337619Y-92250476D01*
X105242380Y-92298095D01*
X106432857Y-92012380D02*
X106528095Y-92012380D01*
X106623333Y-92060000D01*
X106670952Y-92107619D01*
X106718571Y-92202857D01*
X106766190Y-92393333D01*
X106766190Y-92631428D01*
X106718571Y-92821904D01*
X106670952Y-92917142D01*
X106623333Y-92964761D01*
X106528095Y-93012380D01*
X106432857Y-93012380D01*
X106337619Y-92964761D01*
X106290000Y-92917142D01*
X106242380Y-92821904D01*
X106194761Y-92631428D01*
X106194761Y-92393333D01*
X106242380Y-92202857D01*
X106290000Y-92107619D01*
X106337619Y-92060000D01*
X106432857Y-92012380D01*
X107385238Y-92012380D02*
X107480476Y-92012380D01*
X107575714Y-92060000D01*
X107623333Y-92107619D01*
X107670952Y-92202857D01*
X107718571Y-92393333D01*
X107718571Y-92631428D01*
X107670952Y-92821904D01*
X107623333Y-92917142D01*
X107575714Y-92964761D01*
X107480476Y-93012380D01*
X107385238Y-93012380D01*
X107290000Y-92964761D01*
X107242380Y-92917142D01*
X107194761Y-92821904D01*
X107147142Y-92631428D01*
X107147142Y-92393333D01*
X107194761Y-92202857D01*
X107242380Y-92107619D01*
X107290000Y-92060000D01*
X107385238Y-92012380D01*
D12*
X116700000Y-124650000D02*
X116700000Y-39250000D01*
X37300000Y-39250000D02*
X37300000Y-124650000D01*
X42900000Y-37950000D02*
X111100000Y-37950000D01*
X42890000Y-32950000D02*
X111100000Y-37950000D01*
X111100000Y-32950000D02*
X42910000Y-37950000D01*
X42900000Y-125950000D02*
X111110000Y-125950000D01*
X111100000Y-130950000D02*
X42900000Y-125950000D01*
X42900000Y-130950000D02*
X111110000Y-125950000D01*
X35700000Y-130950000D02*
X42900000Y-124650000D01*
X35700000Y-124650000D02*
X42900000Y-130950000D01*
X118300000Y-124650000D02*
X111100000Y-130950000D01*
X118300000Y-130950000D02*
X111100000Y-124660000D01*
X111100000Y-39250000D02*
X111100000Y-32950000D01*
X111100000Y-39250000D02*
X118300000Y-39250000D01*
X118300000Y-32950000D02*
X111100000Y-39250000D01*
X111100000Y-32950000D02*
X118300000Y-39250000D01*
X35700000Y-39250000D02*
X42910000Y-39260000D01*
X42890000Y-32950000D02*
X42910000Y-39260000D01*
X35700000Y-39250000D02*
X42890000Y-32950000D01*
X35700000Y-32950000D02*
X42910000Y-39260000D01*
X111100000Y-124660000D02*
X118300000Y-124650000D01*
X111100000Y-130950000D02*
X111100000Y-124660000D01*
X42900000Y-124650000D02*
X42900000Y-130950000D01*
X35700000Y-124650000D02*
X42900000Y-124650000D01*
X110100000Y-68350000D02*
X116700000Y-78550000D01*
X110100000Y-78550000D02*
X116700000Y-68350000D01*
X43900000Y-78550000D02*
X37300000Y-68350000D01*
X43900000Y-68350000D02*
X37300000Y-78550000D01*
X96100000Y-59950000D02*
X116700000Y-59950000D01*
X96100000Y-54950000D02*
X116700000Y-54950000D01*
X57900000Y-59950000D02*
X37300000Y-59950000D01*
X57900000Y-54950000D02*
X37300000Y-54950000D01*
X60300000Y-59950000D02*
X60300000Y-54950000D01*
X63100000Y-59950000D02*
X63100000Y-54950000D01*
X67300000Y-59950000D02*
X67300000Y-54950000D01*
X86700000Y-59950000D02*
X86700000Y-54950000D01*
X90900000Y-59950000D02*
X90900000Y-54950000D01*
X93700000Y-59950000D02*
X93700000Y-54950000D01*
D13*
X93366666Y-63802380D02*
X93985714Y-63802380D01*
X93652380Y-64183333D01*
X93795238Y-64183333D01*
X93890476Y-64230952D01*
X93938095Y-64278571D01*
X93985714Y-64373809D01*
X93985714Y-64611904D01*
X93938095Y-64707142D01*
X93890476Y-64754761D01*
X93795238Y-64802380D01*
X93509523Y-64802380D01*
X93414285Y-64754761D01*
X93366666Y-64707142D01*
D12*
X102100000Y-59950000D02*
X102100000Y-63550000D01*
X102100000Y-68350000D02*
X102100000Y-65150000D01*
X100300000Y-59950000D02*
X100300000Y-63550000D01*
X100300000Y-68350000D02*
X100300000Y-65150000D01*
X98500000Y-68350000D02*
X98500000Y-65150000D01*
X98500000Y-59950000D02*
X98500000Y-63550000D01*
X96100000Y-59950000D02*
X96100000Y-63550000D01*
X96100000Y-68350000D02*
X96100000Y-65150000D01*
X93700000Y-59950000D02*
X93700000Y-63550000D01*
X93700000Y-68350000D02*
X93700000Y-65150000D01*
X90900000Y-59950000D02*
X90900000Y-63550000D01*
X90900000Y-68350000D02*
X90900000Y-65150000D01*
X86700000Y-59950000D02*
X86700000Y-63550000D01*
X86700000Y-68350000D02*
X86700000Y-65150000D01*
X67300000Y-59950000D02*
X67300000Y-63550000D01*
X67300000Y-68350000D02*
X67300000Y-65150000D01*
X63100000Y-68350000D02*
X63100000Y-65150000D01*
X63100000Y-59950000D02*
X63100000Y-63550000D01*
X60300000Y-65150000D02*
X60300000Y-68350000D01*
X60300000Y-59950000D02*
X60300000Y-63550000D01*
X57900000Y-65150000D02*
X57900000Y-68350000D01*
X57900000Y-63550000D02*
X57900000Y-59950000D01*
D13*
X55738095Y-63802380D02*
X55261904Y-63802380D01*
X55214285Y-64278571D01*
X55261904Y-64230952D01*
X55357142Y-64183333D01*
X55595238Y-64183333D01*
X55690476Y-64230952D01*
X55738095Y-64278571D01*
X55785714Y-64373809D01*
X55785714Y-64611904D01*
X55738095Y-64707142D01*
X55690476Y-64754761D01*
X55595238Y-64802380D01*
X55357142Y-64802380D01*
X55261904Y-64754761D01*
X55214285Y-64707142D01*
D12*
X55500000Y-65150000D02*
X55500000Y-68350000D01*
X55500000Y-63550000D02*
X55500000Y-59950000D01*
D13*
X53890476Y-63802380D02*
X53700000Y-63802380D01*
X53604761Y-63850000D01*
X53557142Y-63897619D01*
X53461904Y-64040476D01*
X53414285Y-64230952D01*
X53414285Y-64611904D01*
X53461904Y-64707142D01*
X53509523Y-64754761D01*
X53604761Y-64802380D01*
X53795238Y-64802380D01*
X53890476Y-64754761D01*
X53938095Y-64707142D01*
X53985714Y-64611904D01*
X53985714Y-64373809D01*
X53938095Y-64278571D01*
X53890476Y-64230952D01*
X53795238Y-64183333D01*
X53604761Y-64183333D01*
X53509523Y-64230952D01*
X53461904Y-64278571D01*
X53414285Y-64373809D01*
D12*
X53700000Y-63550000D02*
X53700000Y-59950000D01*
X53700000Y-68350000D02*
X53700000Y-65150000D01*
X51900000Y-68350000D02*
X51900000Y-65150000D01*
X51900000Y-59950000D02*
X51900000Y-63550000D01*
D13*
X51566666Y-63802380D02*
X52233333Y-63802380D01*
X51804761Y-64802380D01*
X58090476Y-64135714D02*
X58090476Y-64802380D01*
X57852380Y-63754761D02*
X57614285Y-64469047D01*
X58233333Y-64469047D01*
X59966666Y-63802380D02*
X60585714Y-63802380D01*
X60252380Y-64183333D01*
X60395238Y-64183333D01*
X60490476Y-64230952D01*
X60538095Y-64278571D01*
X60585714Y-64373809D01*
X60585714Y-64611904D01*
X60538095Y-64707142D01*
X60490476Y-64754761D01*
X60395238Y-64802380D01*
X60109523Y-64802380D01*
X60014285Y-64754761D01*
X59966666Y-64707142D01*
X101766666Y-63802380D02*
X102433333Y-63802380D01*
X102004761Y-64802380D01*
X100490476Y-63802380D02*
X100300000Y-63802380D01*
X100204761Y-63850000D01*
X100157142Y-63897619D01*
X100061904Y-64040476D01*
X100014285Y-64230952D01*
X100014285Y-64611904D01*
X100061904Y-64707142D01*
X100109523Y-64754761D01*
X100204761Y-64802380D01*
X100395238Y-64802380D01*
X100490476Y-64754761D01*
X100538095Y-64707142D01*
X100585714Y-64611904D01*
X100585714Y-64373809D01*
X100538095Y-64278571D01*
X100490476Y-64230952D01*
X100395238Y-64183333D01*
X100204761Y-64183333D01*
X100109523Y-64230952D01*
X100061904Y-64278571D01*
X100014285Y-64373809D01*
X98738095Y-63802380D02*
X98261904Y-63802380D01*
X98214285Y-64278571D01*
X98261904Y-64230952D01*
X98357142Y-64183333D01*
X98595238Y-64183333D01*
X98690476Y-64230952D01*
X98738095Y-64278571D01*
X98785714Y-64373809D01*
X98785714Y-64611904D01*
X98738095Y-64707142D01*
X98690476Y-64754761D01*
X98595238Y-64802380D01*
X98357142Y-64802380D01*
X98261904Y-64754761D01*
X98214285Y-64707142D01*
X96290476Y-64135714D02*
X96290476Y-64802380D01*
X96052380Y-63754761D02*
X95814285Y-64469047D01*
X96433333Y-64469047D01*
X62814285Y-63897619D02*
X62861904Y-63850000D01*
X62957142Y-63802380D01*
X63195238Y-63802380D01*
X63290476Y-63850000D01*
X63338095Y-63897619D01*
X63385714Y-63992857D01*
X63385714Y-64088095D01*
X63338095Y-64230952D01*
X62766666Y-64802380D01*
X63385714Y-64802380D01*
X90614285Y-63897619D02*
X90661904Y-63850000D01*
X90757142Y-63802380D01*
X90995238Y-63802380D01*
X91090476Y-63850000D01*
X91138095Y-63897619D01*
X91185714Y-63992857D01*
X91185714Y-64088095D01*
X91138095Y-64230952D01*
X90566666Y-64802380D01*
X91185714Y-64802380D01*
X67585714Y-64802380D02*
X67014285Y-64802380D01*
X67300000Y-64802380D02*
X67300000Y-63802380D01*
X67204761Y-63945238D01*
X67109523Y-64040476D01*
X67014285Y-64088095D01*
X86985714Y-64802380D02*
X86414285Y-64802380D01*
X86700000Y-64802380D02*
X86700000Y-63802380D01*
X86604761Y-63945238D01*
X86509523Y-64040476D01*
X86414285Y-64088095D01*
X102100000Y-87950000D02*
X51900000Y-87950000D01*
X51900000Y-41950000D02*
X102100000Y-41950000D01*
X76852380Y-63802380D02*
X76947619Y-63802380D01*
X77042857Y-63850000D01*
X77090476Y-63897619D01*
X77138095Y-63992857D01*
X77185714Y-64183333D01*
X77185714Y-64421428D01*
X77138095Y-64611904D01*
X77090476Y-64707142D01*
X77042857Y-64754761D01*
X76947619Y-64802380D01*
X76852380Y-64802380D01*
X76757142Y-64754761D01*
X76709523Y-64707142D01*
X76661904Y-64611904D01*
X76614285Y-64421428D01*
X76614285Y-64183333D01*
X76661904Y-63992857D01*
X76709523Y-63897619D01*
X76757142Y-63850000D01*
X76852380Y-63802380D01*
X53700000Y-87950000D02*
X53700000Y-78550000D01*
X53700000Y-54950000D02*
X53700000Y-41950000D01*
X100300000Y-54950000D02*
X100300000Y-41950000D01*
X100300000Y-87950000D02*
X100300000Y-78550000D01*
X55500000Y-54950000D02*
X55500000Y-41950000D01*
X55500000Y-87950000D02*
X55500000Y-78550000D01*
X98500000Y-78550000D02*
X98500000Y-87950000D01*
X98500000Y-54950000D02*
X98500000Y-41950000D01*
X43671428Y-58202380D02*
X43671428Y-57202380D01*
X44004761Y-57916666D01*
X44338095Y-57202380D01*
X44338095Y-58202380D01*
X44766666Y-57916666D02*
X45242857Y-57916666D01*
X44671428Y-58202380D02*
X45004761Y-57202380D01*
X45338095Y-58202380D01*
X45576190Y-57202380D02*
X46242857Y-58202380D01*
X46242857Y-57202380D02*
X45576190Y-58202380D01*
X47814285Y-57535714D02*
X47814285Y-58202380D01*
X47576190Y-57154761D02*
X47338095Y-57869047D01*
X47957142Y-57869047D01*
X48338095Y-58202380D02*
X48338095Y-57535714D01*
X48338095Y-57630952D02*
X48385714Y-57583333D01*
X48480952Y-57535714D01*
X48623809Y-57535714D01*
X48719047Y-57583333D01*
X48766666Y-57678571D01*
X48766666Y-58202380D01*
X48766666Y-57678571D02*
X48814285Y-57583333D01*
X48909523Y-57535714D01*
X49052380Y-57535714D01*
X49147619Y-57583333D01*
X49195238Y-57678571D01*
X49195238Y-58202380D01*
X49671428Y-58202380D02*
X49671428Y-57535714D01*
X49671428Y-57630952D02*
X49719047Y-57583333D01*
X49814285Y-57535714D01*
X49957142Y-57535714D01*
X50052380Y-57583333D01*
X50100000Y-57678571D01*
X50100000Y-58202380D01*
X50100000Y-57678571D02*
X50147619Y-57583333D01*
X50242857Y-57535714D01*
X50385714Y-57535714D01*
X50480952Y-57583333D01*
X50528571Y-57678571D01*
X50528571Y-58202380D01*
X103271428Y-58202380D02*
X103271428Y-57202380D01*
X103604761Y-57916666D01*
X103938095Y-57202380D01*
X103938095Y-58202380D01*
X104366666Y-57916666D02*
X104842857Y-57916666D01*
X104271428Y-58202380D02*
X104604761Y-57202380D01*
X104938095Y-58202380D01*
X105176190Y-57202380D02*
X105842857Y-58202380D01*
X105842857Y-57202380D02*
X105176190Y-58202380D01*
X107414285Y-57535714D02*
X107414285Y-58202380D01*
X107176190Y-57154761D02*
X106938095Y-57869047D01*
X107557142Y-57869047D01*
X107938095Y-58202380D02*
X107938095Y-57535714D01*
X107938095Y-57630952D02*
X107985714Y-57583333D01*
X108080952Y-57535714D01*
X108223809Y-57535714D01*
X108319047Y-57583333D01*
X108366666Y-57678571D01*
X108366666Y-58202380D01*
X108366666Y-57678571D02*
X108414285Y-57583333D01*
X108509523Y-57535714D01*
X108652380Y-57535714D01*
X108747619Y-57583333D01*
X108795238Y-57678571D01*
X108795238Y-58202380D01*
X109271428Y-58202380D02*
X109271428Y-57535714D01*
X109271428Y-57630952D02*
X109319047Y-57583333D01*
X109414285Y-57535714D01*
X109557142Y-57535714D01*
X109652380Y-57583333D01*
X109700000Y-57678571D01*
X109700000Y-58202380D01*
X109700000Y-57678571D02*
X109747619Y-57583333D01*
X109842857Y-57535714D01*
X109985714Y-57535714D01*
X110080952Y-57583333D01*
X110128571Y-57678571D01*
X110128571Y-58202380D01*
X96100000Y-54950000D02*
X96100000Y-59950000D01*
X57900000Y-54950000D02*
X57900000Y-59950000D01*
X57900000Y-54950000D02*
X57900000Y-41950000D01*
X57900000Y-87950000D02*
X57900000Y-78550000D01*
X96100000Y-54950000D02*
X96100000Y-41950000D01*
X96100000Y-87950000D02*
X96100000Y-78550000D01*
X60300000Y-54950000D02*
X60300000Y-41950000D01*
X60300000Y-87950000D02*
X60300000Y-78550000D01*
X93700000Y-54950000D02*
X93700000Y-41950000D01*
X93700000Y-87950000D02*
X93700000Y-78550000D01*
X63100000Y-54950000D02*
X63100000Y-41950000D01*
X63100000Y-87950000D02*
X63100000Y-78550000D01*
X90900000Y-54950000D02*
X90900000Y-41950000D01*
X90900000Y-87950000D02*
X90900000Y-78550000D01*
X51900000Y-54950000D02*
X51900000Y-41950000D01*
X51900000Y-87950000D02*
X51900000Y-78550000D01*
X102100000Y-54950000D02*
X102100000Y-41950000D01*
X102100000Y-87950000D02*
X102100000Y-78550000D01*
X67300000Y-54950000D02*
X67300000Y-41950000D01*
X67300000Y-87950000D02*
X67300000Y-78550000D01*
X86700000Y-54950000D02*
X86700000Y-41950000D01*
X86700000Y-87950000D02*
X86700000Y-78550000D01*
X76290476Y-128802380D02*
X76290476Y-127802380D01*
X76861904Y-128802380D01*
X76861904Y-127802380D01*
X77528571Y-127802380D02*
X77719047Y-127802380D01*
X77814285Y-127850000D01*
X77909523Y-127945238D01*
X77957142Y-128135714D01*
X77957142Y-128469047D01*
X77909523Y-128659523D01*
X77814285Y-128754761D01*
X77719047Y-128802380D01*
X77528571Y-128802380D01*
X77433333Y-128754761D01*
X77338095Y-128659523D01*
X77290476Y-128469047D01*
X77290476Y-128135714D01*
X77338095Y-127945238D01*
X77433333Y-127850000D01*
X77528571Y-127802380D01*
X112690476Y-73802380D02*
X112690476Y-72802380D01*
X113261904Y-73802380D01*
X113261904Y-72802380D01*
X113928571Y-72802380D02*
X114119047Y-72802380D01*
X114214285Y-72850000D01*
X114309523Y-72945238D01*
X114357142Y-73135714D01*
X114357142Y-73469047D01*
X114309523Y-73659523D01*
X114214285Y-73754761D01*
X114119047Y-73802380D01*
X113928571Y-73802380D01*
X113833333Y-73754761D01*
X113738095Y-73659523D01*
X113690476Y-73469047D01*
X113690476Y-73135714D01*
X113738095Y-72945238D01*
X113833333Y-72850000D01*
X113928571Y-72802380D01*
X39690476Y-74002380D02*
X39690476Y-73002380D01*
X40261904Y-74002380D01*
X40261904Y-73002380D01*
X40928571Y-73002380D02*
X41119047Y-73002380D01*
X41214285Y-73050000D01*
X41309523Y-73145238D01*
X41357142Y-73335714D01*
X41357142Y-73669047D01*
X41309523Y-73859523D01*
X41214285Y-73954761D01*
X41119047Y-74002380D01*
X40928571Y-74002380D01*
X40833333Y-73954761D01*
X40738095Y-73859523D01*
X40690476Y-73669047D01*
X40690476Y-73335714D01*
X40738095Y-73145238D01*
X40833333Y-73050000D01*
X40928571Y-73002380D01*
X75890476Y-36002380D02*
X75890476Y-35002380D01*
X76461904Y-36002380D01*
X76461904Y-35002380D01*
X77128571Y-35002380D02*
X77319047Y-35002380D01*
X77414285Y-35050000D01*
X77509523Y-35145238D01*
X77557142Y-35335714D01*
X77557142Y-35669047D01*
X77509523Y-35859523D01*
X77414285Y-35954761D01*
X77319047Y-36002380D01*
X77128571Y-36002380D01*
X77033333Y-35954761D01*
X76938095Y-35859523D01*
X76890476Y-35669047D01*
X76890476Y-35335714D01*
X76938095Y-35145238D01*
X77033333Y-35050000D01*
X77128571Y-35002380D01*
X43900000Y-78550000D02*
X35700000Y-78550000D01*
X43900000Y-68350000D02*
X35700000Y-68350000D01*
X110100000Y-68350000D02*
X118300000Y-68350000D01*
X110100000Y-78550000D02*
X118300000Y-78550000D01*
D12*
X100430000Y-50050000D02*
X97770000Y-50050000D01*
X100430000Y-57730000D02*
X100430000Y-50050000D01*
X97770000Y-57730000D02*
X97770000Y-50050000D01*
X100430000Y-57730000D02*
X97770000Y-57730000D01*
X100430000Y-59000000D02*
X100430000Y-60330000D01*
X100430000Y-60330000D02*
X99100000Y-60330000D01*
X42100000Y-36175000D02*
G75*
G03X42100000Y-36175000I-3200000J0D01*
G01*
X118300000Y-127750000D02*
G75*
G03X118300000Y-127750000I-3200000J0D01*
G01*
X118300000Y-36150000D02*
G75*
G03X118300000Y-36150000I-3200000J0D01*
G01*
X42100000Y-127750000D02*
G75*
G03X42100000Y-127750000I-3200000J0D01*
G01*
X111775000Y-47650000D02*
X115275000Y-47650000D01*
X115275000Y-47650000D02*
X115275000Y-40600000D01*
X115275000Y-40600000D02*
X111775000Y-40600000D01*
X111775000Y-40600000D02*
X111775000Y-47650000D01*
X114725000Y-44125000D02*
X114725000Y-47100000D01*
X114725000Y-47100000D02*
X114000000Y-47100000D01*
X114000000Y-47100000D02*
X114000000Y-47300000D01*
X114000000Y-47300000D02*
X113200000Y-47300000D01*
X113200000Y-47300000D02*
X113200000Y-47100000D01*
X113200000Y-47100000D02*
X112325000Y-47100000D01*
X112325000Y-47100000D02*
X112325000Y-44125000D01*
X114725000Y-44125000D02*
X114725000Y-41150000D01*
X114725000Y-41150000D02*
X114000000Y-41150000D01*
X114000000Y-41150000D02*
X114000000Y-40950000D01*
X114000000Y-40950000D02*
X113200000Y-40950000D01*
X113200000Y-40950000D02*
X113200000Y-41150000D01*
X113200000Y-41150000D02*
X112325000Y-41150000D01*
X112325000Y-41150000D02*
X112325000Y-44125000D01*
X115525000Y-47900000D02*
X114525000Y-47900000D01*
X115525000Y-47900000D02*
X115525000Y-46900000D01*
X42525000Y-48000000D02*
X42525000Y-47000000D01*
X42525000Y-48000000D02*
X41525000Y-48000000D01*
X39325000Y-41250000D02*
X39325000Y-44225000D01*
X40200000Y-41250000D02*
X39325000Y-41250000D01*
X40200000Y-41050000D02*
X40200000Y-41250000D01*
X41000000Y-41050000D02*
X40200000Y-41050000D01*
X41000000Y-41250000D02*
X41000000Y-41050000D01*
X41725000Y-41250000D02*
X41000000Y-41250000D01*
X41725000Y-44225000D02*
X41725000Y-41250000D01*
X39325000Y-47200000D02*
X39325000Y-44225000D01*
X40200000Y-47200000D02*
X39325000Y-47200000D01*
X40200000Y-47400000D02*
X40200000Y-47200000D01*
X41000000Y-47400000D02*
X40200000Y-47400000D01*
X41000000Y-47200000D02*
X41000000Y-47400000D01*
X41725000Y-47200000D02*
X41000000Y-47200000D01*
X41725000Y-44225000D02*
X41725000Y-47200000D01*
X38775000Y-40700000D02*
X38775000Y-47750000D01*
X42275000Y-40700000D02*
X38775000Y-40700000D01*
X42275000Y-47750000D02*
X42275000Y-40700000D01*
X38775000Y-47750000D02*
X42275000Y-47750000D01*
X82400000Y-113075000D02*
X81400000Y-113075000D01*
X82400000Y-113075000D02*
X82400000Y-114075000D01*
X75650000Y-116275000D02*
X78625000Y-116275000D01*
X75650000Y-115400000D02*
X75650000Y-116275000D01*
X75450000Y-115400000D02*
X75650000Y-115400000D01*
X75450000Y-114600000D02*
X75450000Y-115400000D01*
X75650000Y-114600000D02*
X75450000Y-114600000D01*
X75650000Y-113875000D02*
X75650000Y-114600000D01*
X78625000Y-113875000D02*
X75650000Y-113875000D01*
X81600000Y-116275000D02*
X78625000Y-116275000D01*
X81600000Y-115400000D02*
X81600000Y-116275000D01*
X81800000Y-115400000D02*
X81600000Y-115400000D01*
X81800000Y-114600000D02*
X81800000Y-115400000D01*
X81600000Y-114600000D02*
X81800000Y-114600000D01*
X81600000Y-113875000D02*
X81600000Y-114600000D01*
X78625000Y-113875000D02*
X81600000Y-113875000D01*
X75100000Y-116825000D02*
X82150000Y-116825000D01*
X75100000Y-113325000D02*
X75100000Y-116825000D01*
X82150000Y-113325000D02*
X75100000Y-113325000D01*
X82150000Y-116825000D02*
X82150000Y-113325000D01*
X67600000Y-97700000D02*
X67600000Y-95700000D01*
X70400000Y-97700000D02*
X67600000Y-97700000D01*
X70400000Y-95700000D02*
X70400000Y-97700000D01*
X67600000Y-95700000D02*
X70400000Y-95700000D01*
X55950000Y-95700000D02*
X60050000Y-95700000D01*
X60050000Y-95700000D02*
X60050000Y-97700000D01*
X60050000Y-97700000D02*
X55950000Y-97700000D01*
X55950000Y-97700000D02*
X55950000Y-95700000D01*
X56700000Y-97900000D02*
X56400000Y-98200000D01*
X56400000Y-98200000D02*
X57000000Y-98200000D01*
X56700000Y-97900000D02*
X57000000Y-98200000D01*
X62050000Y-95700000D02*
X66150000Y-95700000D01*
X66150000Y-95700000D02*
X66150000Y-97700000D01*
X66150000Y-97700000D02*
X62050000Y-97700000D01*
X62050000Y-97700000D02*
X62050000Y-95700000D01*
X62800000Y-97900000D02*
X62500000Y-98200000D01*
X62500000Y-98200000D02*
X63100000Y-98200000D01*
X62800000Y-97900000D02*
X63100000Y-98200000D01*
X62700000Y-101900000D02*
X63000000Y-102200000D01*
X62400000Y-102200000D02*
X63000000Y-102200000D01*
X62700000Y-101900000D02*
X62400000Y-102200000D01*
X61950000Y-101700000D02*
X61950000Y-99700000D01*
X66050000Y-101700000D02*
X61950000Y-101700000D01*
X66050000Y-99700000D02*
X66050000Y-101700000D01*
X61950000Y-99700000D02*
X66050000Y-99700000D01*
X67600000Y-101700000D02*
X67600000Y-99700000D01*
X70400000Y-101700000D02*
X67600000Y-101700000D01*
X70400000Y-99700000D02*
X70400000Y-101700000D01*
X67600000Y-99700000D02*
X70400000Y-99700000D01*
X90090000Y-101840000D02*
X92750000Y-101840000D01*
X90090000Y-86540000D02*
X90090000Y-101840000D01*
X92750000Y-86540000D02*
X92750000Y-101840000D01*
X90090000Y-86540000D02*
X92750000Y-86540000D01*
X90090000Y-85270000D02*
X90090000Y-83940000D01*
X90090000Y-83940000D02*
X91420000Y-83940000D01*
X56700000Y-101900000D02*
X57000000Y-102200000D01*
X56400000Y-102200000D02*
X57000000Y-102200000D01*
X56700000Y-101900000D02*
X56400000Y-102200000D01*
X55950000Y-101700000D02*
X55950000Y-99700000D01*
X60050000Y-101700000D02*
X55950000Y-101700000D01*
X60050000Y-99700000D02*
X60050000Y-101700000D01*
X55950000Y-99700000D02*
X60050000Y-99700000D01*
X115650000Y-101810000D02*
X114320000Y-101810000D01*
X115650000Y-100480000D02*
X115650000Y-101810000D01*
X115650000Y-99210000D02*
X112990000Y-99210000D01*
X112990000Y-99210000D02*
X112990000Y-83910000D01*
X115650000Y-99210000D02*
X115650000Y-83910000D01*
X115650000Y-83910000D02*
X112990000Y-83910000D01*
X65300000Y-91500000D02*
X65000000Y-91200000D01*
X65600000Y-91200000D02*
X65000000Y-91200000D01*
X65300000Y-91500000D02*
X65600000Y-91200000D01*
X66050000Y-91700000D02*
X66050000Y-93700000D01*
X61950000Y-91700000D02*
X66050000Y-91700000D01*
X61950000Y-93700000D02*
X61950000Y-91700000D01*
X66050000Y-93700000D02*
X61950000Y-93700000D01*
X73220000Y-105360000D02*
X75880000Y-105360000D01*
X73220000Y-92600000D02*
X73220000Y-105360000D01*
X75880000Y-92600000D02*
X75880000Y-105360000D01*
X73220000Y-92600000D02*
X75880000Y-92600000D01*
X73220000Y-91330000D02*
X73220000Y-90000000D01*
X73220000Y-90000000D02*
X74550000Y-90000000D01*
X110900000Y-113075000D02*
X109900000Y-113075000D01*
X110900000Y-113075000D02*
X110900000Y-114075000D01*
X101650000Y-116275000D02*
X105875000Y-116275000D01*
X101650000Y-115400000D02*
X101650000Y-116275000D01*
X101450000Y-115400000D02*
X101650000Y-115400000D01*
X101450000Y-114600000D02*
X101450000Y-115400000D01*
X101650000Y-114600000D02*
X101450000Y-114600000D01*
X101650000Y-113875000D02*
X101650000Y-114600000D01*
X105875000Y-113875000D02*
X101650000Y-113875000D01*
X110100000Y-116275000D02*
X105875000Y-116275000D01*
X110100000Y-115400000D02*
X110100000Y-116275000D01*
X110300000Y-115400000D02*
X110100000Y-115400000D01*
X110300000Y-114600000D02*
X110300000Y-115400000D01*
X110100000Y-114600000D02*
X110300000Y-114600000D01*
X110100000Y-113875000D02*
X110100000Y-114600000D01*
X105875000Y-113875000D02*
X110100000Y-113875000D01*
X101100000Y-116825000D02*
X110650000Y-116825000D01*
X101100000Y-113325000D02*
X101100000Y-116825000D01*
X110650000Y-113325000D02*
X101100000Y-113325000D01*
X110650000Y-116825000D02*
X110650000Y-113325000D01*
X99350000Y-116825000D02*
X99350000Y-113325000D01*
X99350000Y-113325000D02*
X92300000Y-113325000D01*
X92300000Y-113325000D02*
X92300000Y-116825000D01*
X92300000Y-116825000D02*
X99350000Y-116825000D01*
X95825000Y-113875000D02*
X98800000Y-113875000D01*
X98800000Y-113875000D02*
X98800000Y-114600000D01*
X98800000Y-114600000D02*
X99000000Y-114600000D01*
X99000000Y-114600000D02*
X99000000Y-115400000D01*
X99000000Y-115400000D02*
X98800000Y-115400000D01*
X98800000Y-115400000D02*
X98800000Y-116275000D01*
X98800000Y-116275000D02*
X95825000Y-116275000D01*
X95825000Y-113875000D02*
X92850000Y-113875000D01*
X92850000Y-113875000D02*
X92850000Y-114600000D01*
X92850000Y-114600000D02*
X92650000Y-114600000D01*
X92650000Y-114600000D02*
X92650000Y-115400000D01*
X92650000Y-115400000D02*
X92850000Y-115400000D01*
X92850000Y-115400000D02*
X92850000Y-116275000D01*
X92850000Y-116275000D02*
X95825000Y-116275000D01*
X99600000Y-113075000D02*
X99600000Y-114075000D01*
X99600000Y-113075000D02*
X98600000Y-113075000D01*
X115330000Y-60330000D02*
X114000000Y-60330000D01*
X115330000Y-59000000D02*
X115330000Y-60330000D01*
X115330000Y-57730000D02*
X112670000Y-57730000D01*
X112670000Y-57730000D02*
X112670000Y-50050000D01*
X115330000Y-57730000D02*
X115330000Y-50050000D01*
X115330000Y-50050000D02*
X112670000Y-50050000D01*
D13*
X98719047Y-61401428D02*
X99480952Y-61401428D01*
X115952380Y-44458333D02*
X116666666Y-44458333D01*
X116809523Y-44505952D01*
X116904761Y-44601190D01*
X116952380Y-44744047D01*
X116952380Y-44839285D01*
X116952380Y-43458333D02*
X116952380Y-44029761D01*
X116952380Y-43744047D02*
X115952380Y-43744047D01*
X116095238Y-43839285D01*
X116190476Y-43934523D01*
X116238095Y-44029761D01*
X42952380Y-44558333D02*
X43666666Y-44558333D01*
X43809523Y-44605952D01*
X43904761Y-44701190D01*
X43952380Y-44844047D01*
X43952380Y-44939285D01*
X43047619Y-44129761D02*
X43000000Y-44082142D01*
X42952380Y-43986904D01*
X42952380Y-43748809D01*
X43000000Y-43653571D01*
X43047619Y-43605952D01*
X43142857Y-43558333D01*
X43238095Y-43558333D01*
X43380952Y-43605952D01*
X43952380Y-44177380D01*
X43952380Y-43558333D01*
X76428571Y-109952380D02*
X76428571Y-110761904D01*
X76476190Y-110857142D01*
X76523809Y-110904761D01*
X76619047Y-110952380D01*
X76809523Y-110952380D01*
X76904761Y-110904761D01*
X76952380Y-110857142D01*
X77000000Y-110761904D01*
X77000000Y-109952380D01*
X77428571Y-110666666D02*
X77904761Y-110666666D01*
X77333333Y-110952380D02*
X77666666Y-109952380D01*
X78000000Y-110952380D01*
X78904761Y-110952380D02*
X78571428Y-110476190D01*
X78333333Y-110952380D02*
X78333333Y-109952380D01*
X78714285Y-109952380D01*
X78809523Y-110000000D01*
X78857142Y-110047619D01*
X78904761Y-110142857D01*
X78904761Y-110285714D01*
X78857142Y-110380952D01*
X78809523Y-110428571D01*
X78714285Y-110476190D01*
X78333333Y-110476190D01*
X79190476Y-109952380D02*
X79761904Y-109952380D01*
X79476190Y-110952380D02*
X79476190Y-109952380D01*
X80047619Y-110047619D02*
X80095238Y-110000000D01*
X80190476Y-109952380D01*
X80428571Y-109952380D01*
X80523809Y-110000000D01*
X80571428Y-110047619D01*
X80619047Y-110142857D01*
X80619047Y-110238095D01*
X80571428Y-110380952D01*
X80000000Y-110952380D01*
X80619047Y-110952380D01*
D10*
X68214285Y-95126190D02*
X68214285Y-94626190D01*
X68380952Y-94983333D01*
X68547619Y-94626190D01*
X68547619Y-95126190D01*
X68785714Y-95126190D02*
X68785714Y-94626190D01*
X69000000Y-95102380D02*
X69071428Y-95126190D01*
X69190476Y-95126190D01*
X69238095Y-95102380D01*
X69261904Y-95078571D01*
X69285714Y-95030952D01*
X69285714Y-94983333D01*
X69261904Y-94935714D01*
X69238095Y-94911904D01*
X69190476Y-94888095D01*
X69095238Y-94864285D01*
X69047619Y-94840476D01*
X69023809Y-94816666D01*
X69000000Y-94769047D01*
X69000000Y-94721428D01*
X69023809Y-94673809D01*
X69047619Y-94650000D01*
X69095238Y-94626190D01*
X69214285Y-94626190D01*
X69285714Y-94650000D01*
X69595238Y-94626190D02*
X69690476Y-94626190D01*
X69738095Y-94650000D01*
X69785714Y-94697619D01*
X69809523Y-94792857D01*
X69809523Y-94959523D01*
X69785714Y-95054761D01*
X69738095Y-95102380D01*
X69690476Y-95126190D01*
X69595238Y-95126190D01*
X69547619Y-95102380D01*
X69500000Y-95054761D01*
X69476190Y-94959523D01*
X69476190Y-94792857D01*
X69500000Y-94697619D01*
X69547619Y-94650000D01*
X69595238Y-94626190D01*
X56488095Y-94626190D02*
X56535714Y-94626190D01*
X56583333Y-94650000D01*
X56607142Y-94673809D01*
X56630952Y-94721428D01*
X56654761Y-94816666D01*
X56654761Y-94935714D01*
X56630952Y-95030952D01*
X56607142Y-95078571D01*
X56583333Y-95102380D01*
X56535714Y-95126190D01*
X56488095Y-95126190D01*
X56440476Y-95102380D01*
X56416666Y-95078571D01*
X56392857Y-95030952D01*
X56369047Y-94935714D01*
X56369047Y-94816666D01*
X56392857Y-94721428D01*
X56416666Y-94673809D01*
X56440476Y-94650000D01*
X56488095Y-94626190D01*
X56988095Y-95292857D02*
X56988095Y-94578571D01*
X57345238Y-95126190D02*
X57345238Y-94626190D01*
X57511904Y-94983333D01*
X57678571Y-94626190D01*
X57678571Y-95126190D01*
X57892857Y-95102380D02*
X57964285Y-95126190D01*
X58083333Y-95126190D01*
X58130952Y-95102380D01*
X58154761Y-95078571D01*
X58178571Y-95030952D01*
X58178571Y-94983333D01*
X58154761Y-94935714D01*
X58130952Y-94911904D01*
X58083333Y-94888095D01*
X57988095Y-94864285D01*
X57940476Y-94840476D01*
X57916666Y-94816666D01*
X57892857Y-94769047D01*
X57892857Y-94721428D01*
X57916666Y-94673809D01*
X57940476Y-94650000D01*
X57988095Y-94626190D01*
X58107142Y-94626190D01*
X58178571Y-94650000D01*
X58559523Y-94864285D02*
X58630952Y-94888095D01*
X58654761Y-94911904D01*
X58678571Y-94959523D01*
X58678571Y-95030952D01*
X58654761Y-95078571D01*
X58630952Y-95102380D01*
X58583333Y-95126190D01*
X58392857Y-95126190D01*
X58392857Y-94626190D01*
X58559523Y-94626190D01*
X58607142Y-94650000D01*
X58630952Y-94673809D01*
X58654761Y-94721428D01*
X58654761Y-94769047D01*
X58630952Y-94816666D01*
X58607142Y-94840476D01*
X58559523Y-94864285D01*
X58392857Y-94864285D01*
X59011904Y-95292857D02*
X59011904Y-94578571D01*
X59630952Y-95126190D02*
X59345238Y-95126190D01*
X59488095Y-95126190D02*
X59488095Y-94626190D01*
X59440476Y-94697619D01*
X59392857Y-94745238D01*
X59345238Y-94769047D01*
X62159523Y-95102380D02*
X62230952Y-95126190D01*
X62350000Y-95126190D01*
X62397619Y-95102380D01*
X62421428Y-95078571D01*
X62445238Y-95030952D01*
X62445238Y-94983333D01*
X62421428Y-94935714D01*
X62397619Y-94911904D01*
X62350000Y-94888095D01*
X62254761Y-94864285D01*
X62207142Y-94840476D01*
X62183333Y-94816666D01*
X62159523Y-94769047D01*
X62159523Y-94721428D01*
X62183333Y-94673809D01*
X62207142Y-94650000D01*
X62254761Y-94626190D01*
X62373809Y-94626190D01*
X62445238Y-94650000D01*
X62659523Y-95126190D02*
X62659523Y-94626190D01*
X62778571Y-94626190D01*
X62850000Y-94650000D01*
X62897619Y-94697619D01*
X62921428Y-94745238D01*
X62945238Y-94840476D01*
X62945238Y-94911904D01*
X62921428Y-95007142D01*
X62897619Y-95054761D01*
X62850000Y-95102380D01*
X62778571Y-95126190D01*
X62659523Y-95126190D01*
X63135714Y-94983333D02*
X63373809Y-94983333D01*
X63088095Y-95126190D02*
X63254761Y-94626190D01*
X63421428Y-95126190D01*
X64088095Y-95292857D02*
X64088095Y-94578571D01*
X64445238Y-95126190D02*
X64445238Y-94626190D01*
X64611904Y-94983333D01*
X64778571Y-94626190D01*
X64778571Y-95126190D01*
X65111904Y-94626190D02*
X65207142Y-94626190D01*
X65254761Y-94650000D01*
X65302380Y-94697619D01*
X65326190Y-94792857D01*
X65326190Y-94959523D01*
X65302380Y-95054761D01*
X65254761Y-95102380D01*
X65207142Y-95126190D01*
X65111904Y-95126190D01*
X65064285Y-95102380D01*
X65016666Y-95054761D01*
X64992857Y-94959523D01*
X64992857Y-94792857D01*
X65016666Y-94697619D01*
X65064285Y-94650000D01*
X65111904Y-94626190D01*
X65516666Y-95102380D02*
X65588095Y-95126190D01*
X65707142Y-95126190D01*
X65754761Y-95102380D01*
X65778571Y-95078571D01*
X65802380Y-95030952D01*
X65802380Y-94983333D01*
X65778571Y-94935714D01*
X65754761Y-94911904D01*
X65707142Y-94888095D01*
X65611904Y-94864285D01*
X65564285Y-94840476D01*
X65540476Y-94816666D01*
X65516666Y-94769047D01*
X65516666Y-94721428D01*
X65540476Y-94673809D01*
X65564285Y-94650000D01*
X65611904Y-94626190D01*
X65730952Y-94626190D01*
X65802380Y-94650000D01*
X66016666Y-95126190D02*
X66016666Y-94626190D01*
X62464285Y-99102380D02*
X62535714Y-99126190D01*
X62654761Y-99126190D01*
X62702380Y-99102380D01*
X62726190Y-99078571D01*
X62750000Y-99030952D01*
X62750000Y-98983333D01*
X62726190Y-98935714D01*
X62702380Y-98911904D01*
X62654761Y-98888095D01*
X62559523Y-98864285D01*
X62511904Y-98840476D01*
X62488095Y-98816666D01*
X62464285Y-98769047D01*
X62464285Y-98721428D01*
X62488095Y-98673809D01*
X62511904Y-98650000D01*
X62559523Y-98626190D01*
X62678571Y-98626190D01*
X62750000Y-98650000D01*
X63250000Y-99078571D02*
X63226190Y-99102380D01*
X63154761Y-99126190D01*
X63107142Y-99126190D01*
X63035714Y-99102380D01*
X62988095Y-99054761D01*
X62964285Y-99007142D01*
X62940476Y-98911904D01*
X62940476Y-98840476D01*
X62964285Y-98745238D01*
X62988095Y-98697619D01*
X63035714Y-98650000D01*
X63107142Y-98626190D01*
X63154761Y-98626190D01*
X63226190Y-98650000D01*
X63250000Y-98673809D01*
X63702380Y-99126190D02*
X63464285Y-99126190D01*
X63464285Y-98626190D01*
X63988095Y-99292857D02*
X63988095Y-98578571D01*
X64630952Y-99078571D02*
X64607142Y-99102380D01*
X64535714Y-99126190D01*
X64488095Y-99126190D01*
X64416666Y-99102380D01*
X64369047Y-99054761D01*
X64345238Y-99007142D01*
X64321428Y-98911904D01*
X64321428Y-98840476D01*
X64345238Y-98745238D01*
X64369047Y-98697619D01*
X64416666Y-98650000D01*
X64488095Y-98626190D01*
X64535714Y-98626190D01*
X64607142Y-98650000D01*
X64630952Y-98673809D01*
X65083333Y-99126190D02*
X64845238Y-99126190D01*
X64845238Y-98626190D01*
X65250000Y-99126190D02*
X65250000Y-98626190D01*
X65535714Y-99126190D02*
X65321428Y-98840476D01*
X65535714Y-98626190D02*
X65250000Y-98911904D01*
X68619047Y-99102380D02*
X68690476Y-99126190D01*
X68809523Y-99126190D01*
X68857142Y-99102380D01*
X68880952Y-99078571D01*
X68904761Y-99030952D01*
X68904761Y-98983333D01*
X68880952Y-98935714D01*
X68857142Y-98911904D01*
X68809523Y-98888095D01*
X68714285Y-98864285D01*
X68666666Y-98840476D01*
X68642857Y-98816666D01*
X68619047Y-98769047D01*
X68619047Y-98721428D01*
X68642857Y-98673809D01*
X68666666Y-98650000D01*
X68714285Y-98626190D01*
X68833333Y-98626190D01*
X68904761Y-98650000D01*
X69095238Y-99102380D02*
X69166666Y-99126190D01*
X69285714Y-99126190D01*
X69333333Y-99102380D01*
X69357142Y-99078571D01*
X69380952Y-99030952D01*
X69380952Y-98983333D01*
X69357142Y-98935714D01*
X69333333Y-98911904D01*
X69285714Y-98888095D01*
X69190476Y-98864285D01*
X69142857Y-98840476D01*
X69119047Y-98816666D01*
X69095238Y-98769047D01*
X69095238Y-98721428D01*
X69119047Y-98673809D01*
X69142857Y-98650000D01*
X69190476Y-98626190D01*
X69309523Y-98626190D01*
X69380952Y-98650000D01*
D13*
X90610476Y-82392380D02*
X90610476Y-83106666D01*
X90562857Y-83249523D01*
X90467619Y-83344761D01*
X90324761Y-83392380D01*
X90229523Y-83392380D01*
X91610476Y-83392380D02*
X91039047Y-83392380D01*
X91324761Y-83392380D02*
X91324761Y-82392380D01*
X91229523Y-82535238D01*
X91134285Y-82630476D01*
X91039047Y-82678095D01*
X92086666Y-83392380D02*
X92277142Y-83392380D01*
X92372380Y-83344761D01*
X92420000Y-83297142D01*
X92515238Y-83154285D01*
X92562857Y-82963809D01*
X92562857Y-82582857D01*
X92515238Y-82487619D01*
X92467619Y-82440000D01*
X92372380Y-82392380D01*
X92181904Y-82392380D01*
X92086666Y-82440000D01*
X92039047Y-82487619D01*
X91991428Y-82582857D01*
X91991428Y-82820952D01*
X92039047Y-82916190D01*
X92086666Y-82963809D01*
X92181904Y-83011428D01*
X92372380Y-83011428D01*
X92467619Y-82963809D01*
X92515238Y-82916190D01*
X92562857Y-82820952D01*
D10*
X56571428Y-98626190D02*
X56619047Y-98626190D01*
X56666666Y-98650000D01*
X56690476Y-98673809D01*
X56714285Y-98721428D01*
X56738095Y-98816666D01*
X56738095Y-98935714D01*
X56714285Y-99030952D01*
X56690476Y-99078571D01*
X56666666Y-99102380D01*
X56619047Y-99126190D01*
X56571428Y-99126190D01*
X56523809Y-99102380D01*
X56500000Y-99078571D01*
X56476190Y-99030952D01*
X56452380Y-98935714D01*
X56452380Y-98816666D01*
X56476190Y-98721428D01*
X56500000Y-98673809D01*
X56523809Y-98650000D01*
X56571428Y-98626190D01*
X57071428Y-99292857D02*
X57071428Y-98578571D01*
X57666666Y-99126190D02*
X57428571Y-99126190D01*
X57428571Y-98626190D01*
X57809523Y-99102380D02*
X57880952Y-99126190D01*
X58000000Y-99126190D01*
X58047619Y-99102380D01*
X58071428Y-99078571D01*
X58095238Y-99030952D01*
X58095238Y-98983333D01*
X58071428Y-98935714D01*
X58047619Y-98911904D01*
X58000000Y-98888095D01*
X57904761Y-98864285D01*
X57857142Y-98840476D01*
X57833333Y-98816666D01*
X57809523Y-98769047D01*
X57809523Y-98721428D01*
X57833333Y-98673809D01*
X57857142Y-98650000D01*
X57904761Y-98626190D01*
X58023809Y-98626190D01*
X58095238Y-98650000D01*
X58476190Y-98864285D02*
X58547619Y-98888095D01*
X58571428Y-98911904D01*
X58595238Y-98959523D01*
X58595238Y-99030952D01*
X58571428Y-99078571D01*
X58547619Y-99102380D01*
X58500000Y-99126190D01*
X58309523Y-99126190D01*
X58309523Y-98626190D01*
X58476190Y-98626190D01*
X58523809Y-98650000D01*
X58547619Y-98673809D01*
X58571428Y-98721428D01*
X58571428Y-98769047D01*
X58547619Y-98816666D01*
X58523809Y-98840476D01*
X58476190Y-98864285D01*
X58309523Y-98864285D01*
X58928571Y-99292857D02*
X58928571Y-98578571D01*
X59547619Y-99126190D02*
X59261904Y-99126190D01*
X59404761Y-99126190D02*
X59404761Y-98626190D01*
X59357142Y-98697619D01*
X59309523Y-98745238D01*
X59261904Y-98769047D01*
D13*
X113510476Y-102262380D02*
X113510476Y-102976666D01*
X113462857Y-103119523D01*
X113367619Y-103214761D01*
X113224761Y-103262380D01*
X113129523Y-103262380D01*
X113939047Y-102357619D02*
X113986666Y-102310000D01*
X114081904Y-102262380D01*
X114320000Y-102262380D01*
X114415238Y-102310000D01*
X114462857Y-102357619D01*
X114510476Y-102452857D01*
X114510476Y-102548095D01*
X114462857Y-102690952D01*
X113891428Y-103262380D01*
X114510476Y-103262380D01*
X114843809Y-102262380D02*
X115462857Y-102262380D01*
X115129523Y-102643333D01*
X115272380Y-102643333D01*
X115367619Y-102690952D01*
X115415238Y-102738571D01*
X115462857Y-102833809D01*
X115462857Y-103071904D01*
X115415238Y-103167142D01*
X115367619Y-103214761D01*
X115272380Y-103262380D01*
X114986666Y-103262380D01*
X114891428Y-103214761D01*
X114843809Y-103167142D01*
X61333333Y-91152380D02*
X61333333Y-90152380D01*
X61761904Y-90247619D02*
X61809523Y-90200000D01*
X61904761Y-90152380D01*
X62142857Y-90152380D01*
X62238095Y-90200000D01*
X62285714Y-90247619D01*
X62333333Y-90342857D01*
X62333333Y-90438095D01*
X62285714Y-90580952D01*
X61714285Y-91152380D01*
X62333333Y-91152380D01*
X63333333Y-91057142D02*
X63285714Y-91104761D01*
X63142857Y-91152380D01*
X63047619Y-91152380D01*
X62904761Y-91104761D01*
X62809523Y-91009523D01*
X62761904Y-90914285D01*
X62714285Y-90723809D01*
X62714285Y-90580952D01*
X62761904Y-90390476D01*
X62809523Y-90295238D01*
X62904761Y-90200000D01*
X63047619Y-90152380D01*
X63142857Y-90152380D01*
X63285714Y-90200000D01*
X63333333Y-90247619D01*
X64000000Y-91485714D02*
X64000000Y-90057142D01*
X64666666Y-91104761D02*
X64809523Y-91152380D01*
X65047619Y-91152380D01*
X65142857Y-91104761D01*
X65190476Y-91057142D01*
X65238095Y-90961904D01*
X65238095Y-90866666D01*
X65190476Y-90771428D01*
X65142857Y-90723809D01*
X65047619Y-90676190D01*
X64857142Y-90628571D01*
X64761904Y-90580952D01*
X64714285Y-90533333D01*
X64666666Y-90438095D01*
X64666666Y-90342857D01*
X64714285Y-90247619D01*
X64761904Y-90200000D01*
X64857142Y-90152380D01*
X65095238Y-90152380D01*
X65238095Y-90200000D01*
X65666666Y-91152380D02*
X65666666Y-90152380D01*
X66047619Y-90152380D01*
X66142857Y-90200000D01*
X66190476Y-90247619D01*
X66238095Y-90342857D01*
X66238095Y-90485714D01*
X66190476Y-90580952D01*
X66142857Y-90628571D01*
X66047619Y-90676190D01*
X65666666Y-90676190D01*
X66666666Y-91152380D02*
X66666666Y-90152380D01*
X73740476Y-88452380D02*
X73740476Y-89166666D01*
X73692857Y-89309523D01*
X73597619Y-89404761D01*
X73454761Y-89452380D01*
X73359523Y-89452380D01*
X74169047Y-88547619D02*
X74216666Y-88500000D01*
X74311904Y-88452380D01*
X74550000Y-88452380D01*
X74645238Y-88500000D01*
X74692857Y-88547619D01*
X74740476Y-88642857D01*
X74740476Y-88738095D01*
X74692857Y-88880952D01*
X74121428Y-89452380D01*
X74740476Y-89452380D01*
X75073809Y-88452380D02*
X75740476Y-88452380D01*
X75311904Y-89452380D01*
X104375000Y-110904761D02*
X104517857Y-110952380D01*
X104755952Y-110952380D01*
X104851190Y-110904761D01*
X104898809Y-110857142D01*
X104946428Y-110761904D01*
X104946428Y-110666666D01*
X104898809Y-110571428D01*
X104851190Y-110523809D01*
X104755952Y-110476190D01*
X104565476Y-110428571D01*
X104470238Y-110380952D01*
X104422619Y-110333333D01*
X104375000Y-110238095D01*
X104375000Y-110142857D01*
X104422619Y-110047619D01*
X104470238Y-110000000D01*
X104565476Y-109952380D01*
X104803571Y-109952380D01*
X104946428Y-110000000D01*
X105375000Y-110952380D02*
X105375000Y-109952380D01*
X105755952Y-109952380D01*
X105851190Y-110000000D01*
X105898809Y-110047619D01*
X105946428Y-110142857D01*
X105946428Y-110285714D01*
X105898809Y-110380952D01*
X105851190Y-110428571D01*
X105755952Y-110476190D01*
X105375000Y-110476190D01*
X106375000Y-110952380D02*
X106375000Y-109952380D01*
X107375000Y-110952380D02*
X106803571Y-110952380D01*
X107089285Y-110952380D02*
X107089285Y-109952380D01*
X106994047Y-110095238D01*
X106898809Y-110190476D01*
X106803571Y-110238095D01*
X94547619Y-110952380D02*
X94547619Y-109952380D01*
X94976190Y-110047619D02*
X95023809Y-110000000D01*
X95119047Y-109952380D01*
X95357142Y-109952380D01*
X95452380Y-110000000D01*
X95500000Y-110047619D01*
X95547619Y-110142857D01*
X95547619Y-110238095D01*
X95500000Y-110380952D01*
X94928571Y-110952380D01*
X95547619Y-110952380D01*
X96547619Y-110857142D02*
X96500000Y-110904761D01*
X96357142Y-110952380D01*
X96261904Y-110952380D01*
X96119047Y-110904761D01*
X96023809Y-110809523D01*
X95976190Y-110714285D01*
X95928571Y-110523809D01*
X95928571Y-110380952D01*
X95976190Y-110190476D01*
X96023809Y-110095238D01*
X96119047Y-110000000D01*
X96261904Y-109952380D01*
X96357142Y-109952380D01*
X96500000Y-110000000D01*
X96547619Y-110047619D01*
X97500000Y-110952380D02*
X96928571Y-110952380D01*
X97214285Y-110952380D02*
X97214285Y-109952380D01*
X97119047Y-110095238D01*
X97023809Y-110190476D01*
X96928571Y-110238095D01*
X113190476Y-60782380D02*
X113190476Y-61496666D01*
X113142857Y-61639523D01*
X113047619Y-61734761D01*
X112904761Y-61782380D01*
X112809523Y-61782380D01*
X114095238Y-61115714D02*
X114095238Y-61782380D01*
X113857142Y-60734761D02*
X113619047Y-61449047D01*
X114238095Y-61449047D01*
X115095238Y-60782380D02*
X114619047Y-60782380D01*
X114571428Y-61258571D01*
X114619047Y-61210952D01*
X114714285Y-61163333D01*
X114952380Y-61163333D01*
X115047619Y-61210952D01*
X115095238Y-61258571D01*
X115142857Y-61353809D01*
X115142857Y-61591904D01*
X115095238Y-61687142D01*
X115047619Y-61734761D01*
X114952380Y-61782380D01*
X114714285Y-61782380D01*
X114619047Y-61734761D01*
X114571428Y-61687142D01*
M02*
