M48
; DRILL file {KiCad (5.1.2)-2} date 07/04/2021 22:17:03
; FORMAT={-:-/ absolute / metric / decimal}
; #@! TF.CreationDate,2021-04-07T22:17:03-04:00
; #@! TF.GenerationSoftware,Kicad,Pcbnew,(5.1.2)-2
FMAT,2
METRIC
T1C0.400
T2C0.500
T3C1.000
T4C3.200
%
G90
G05
T1
X59.9Y-102.9
X61.0Y-101.3
X64.5Y-102.8
X65.0Y-94.8
X66.8Y-97.7
X69.8Y-94.6
X70.3Y-92.5
X71.3Y-103.5
T2
X41.0Y-42.35
X41.0Y-43.6
X41.0Y-44.85
X41.0Y-46.1
X93.95Y-114.6
X95.2Y-114.6
X96.45Y-114.6
X97.7Y-114.6
X76.75Y-114.6
X78.0Y-114.6
X79.25Y-114.6
X80.5Y-114.6
X114.0Y-42.25
X114.0Y-43.5
X114.0Y-44.75
X114.0Y-46.0
X102.75Y-114.6
X104.0Y-114.6
X105.25Y-114.6
X106.5Y-114.6
X107.75Y-114.6
X109.0Y-114.6
T3
X114.0Y-51.38
X114.0Y-53.92
X114.0Y-56.46
X114.0Y-59.0
X114.32Y-85.24
X114.32Y-87.78
X114.32Y-90.32
X114.32Y-92.86
X114.32Y-95.4
X114.32Y-97.94
X114.32Y-100.48
X74.55Y-91.33
X74.55Y-93.87
X74.55Y-96.41
X74.55Y-98.95
X74.55Y-101.49
X74.55Y-104.03
X99.1Y-51.38
X99.1Y-53.92
X99.1Y-56.46
X99.1Y-59.0
X91.42Y-85.27
X91.42Y-87.81
X91.42Y-90.35
X91.42Y-92.89
X91.42Y-95.43
X91.42Y-97.97
X91.42Y-100.51
T4
X115.1Y-36.15
X38.9Y-127.75
X115.1Y-127.75
X38.9Y-36.175
T0
M30
