G04 #@! TF.GenerationSoftware,KiCad,Pcbnew,(5.1.2)-2*
G04 #@! TF.CreationDate,2021-05-04T10:51:35-04:00*
G04 #@! TF.ProjectId,Magnetometer_A,4d61676e-6574-46f6-9d65-7465725f412e,rev?*
G04 #@! TF.SameCoordinates,Original*
G04 #@! TF.FileFunction,Legend,Top*
G04 #@! TF.FilePolarity,Positive*
%FSLAX46Y46*%
G04 Gerber Fmt 4.6, Leading zero omitted, Abs format (unit mm)*
G04 Created by KiCad (PCBNEW (5.1.2)-2) date 2021-05-04 10:51:35*
%MOMM*%
%LPD*%
G04 APERTURE LIST*
%ADD10C,0.125000*%
%ADD11C,0.100000*%
%ADD12C,0.120000*%
%ADD13C,0.150000*%
G04 APERTURE END LIST*
D10*
X79226190Y-112095238D02*
X79226190Y-112333333D01*
X79464285Y-112357142D01*
X79440476Y-112333333D01*
X79416666Y-112285714D01*
X79416666Y-112166666D01*
X79440476Y-112119047D01*
X79464285Y-112095238D01*
X79511904Y-112071428D01*
X79630952Y-112071428D01*
X79678571Y-112095238D01*
X79702380Y-112119047D01*
X79726190Y-112166666D01*
X79726190Y-112285714D01*
X79702380Y-112333333D01*
X79678571Y-112357142D01*
X79226190Y-111928571D02*
X79726190Y-111761904D01*
X79226190Y-111595238D01*
X110880952Y-56226190D02*
X111190476Y-56226190D01*
X111023809Y-56416666D01*
X111095238Y-56416666D01*
X111142857Y-56440476D01*
X111166666Y-56464285D01*
X111190476Y-56511904D01*
X111190476Y-56630952D01*
X111166666Y-56678571D01*
X111142857Y-56702380D01*
X111095238Y-56726190D01*
X110952380Y-56726190D01*
X110904761Y-56702380D01*
X110880952Y-56678571D01*
X111333333Y-56226190D02*
X111500000Y-56726190D01*
X111666666Y-56226190D01*
X111785714Y-56226190D02*
X112095238Y-56226190D01*
X111928571Y-56416666D01*
X112000000Y-56416666D01*
X112047619Y-56440476D01*
X112071428Y-56464285D01*
X112095238Y-56511904D01*
X112095238Y-56630952D01*
X112071428Y-56678571D01*
X112047619Y-56702380D01*
X112000000Y-56726190D01*
X111857142Y-56726190D01*
X111809523Y-56702380D01*
X111785714Y-56678571D01*
X76380952Y-91226190D02*
X76690476Y-91226190D01*
X76523809Y-91416666D01*
X76595238Y-91416666D01*
X76642857Y-91440476D01*
X76666666Y-91464285D01*
X76690476Y-91511904D01*
X76690476Y-91630952D01*
X76666666Y-91678571D01*
X76642857Y-91702380D01*
X76595238Y-91726190D01*
X76452380Y-91726190D01*
X76404761Y-91702380D01*
X76380952Y-91678571D01*
X76833333Y-91226190D02*
X77000000Y-91726190D01*
X77166666Y-91226190D01*
X77285714Y-91226190D02*
X77595238Y-91226190D01*
X77428571Y-91416666D01*
X77500000Y-91416666D01*
X77547619Y-91440476D01*
X77571428Y-91464285D01*
X77595238Y-91511904D01*
X77595238Y-91630952D01*
X77571428Y-91678571D01*
X77547619Y-91702380D01*
X77500000Y-91726190D01*
X77357142Y-91726190D01*
X77309523Y-91702380D01*
X77285714Y-91678571D01*
X111380952Y-90226190D02*
X111690476Y-90226190D01*
X111523809Y-90416666D01*
X111595238Y-90416666D01*
X111642857Y-90440476D01*
X111666666Y-90464285D01*
X111690476Y-90511904D01*
X111690476Y-90630952D01*
X111666666Y-90678571D01*
X111642857Y-90702380D01*
X111595238Y-90726190D01*
X111452380Y-90726190D01*
X111404761Y-90702380D01*
X111380952Y-90678571D01*
X111833333Y-90226190D02*
X112000000Y-90726190D01*
X112166666Y-90226190D01*
X112285714Y-90226190D02*
X112595238Y-90226190D01*
X112428571Y-90416666D01*
X112500000Y-90416666D01*
X112547619Y-90440476D01*
X112571428Y-90464285D01*
X112595238Y-90511904D01*
X112595238Y-90630952D01*
X112571428Y-90678571D01*
X112547619Y-90702380D01*
X112500000Y-90726190D01*
X112357142Y-90726190D01*
X112309523Y-90702380D01*
X112285714Y-90678571D01*
X111380952Y-87726190D02*
X111690476Y-87726190D01*
X111523809Y-87916666D01*
X111595238Y-87916666D01*
X111642857Y-87940476D01*
X111666666Y-87964285D01*
X111690476Y-88011904D01*
X111690476Y-88130952D01*
X111666666Y-88178571D01*
X111642857Y-88202380D01*
X111595238Y-88226190D01*
X111452380Y-88226190D01*
X111404761Y-88202380D01*
X111380952Y-88178571D01*
X111833333Y-87726190D02*
X112000000Y-88226190D01*
X112166666Y-87726190D01*
X112285714Y-87726190D02*
X112595238Y-87726190D01*
X112428571Y-87916666D01*
X112500000Y-87916666D01*
X112547619Y-87940476D01*
X112571428Y-87964285D01*
X112595238Y-88011904D01*
X112595238Y-88130952D01*
X112571428Y-88178571D01*
X112547619Y-88202380D01*
X112500000Y-88226190D01*
X112357142Y-88226190D01*
X112309523Y-88202380D01*
X112285714Y-88178571D01*
X103726190Y-112619047D02*
X103726190Y-112309523D01*
X103916666Y-112476190D01*
X103916666Y-112404761D01*
X103940476Y-112357142D01*
X103964285Y-112333333D01*
X104011904Y-112309523D01*
X104130952Y-112309523D01*
X104178571Y-112333333D01*
X104202380Y-112357142D01*
X104226190Y-112404761D01*
X104226190Y-112547619D01*
X104202380Y-112595238D01*
X104178571Y-112619047D01*
X103726190Y-112166666D02*
X104226190Y-112000000D01*
X103726190Y-111833333D01*
X103726190Y-111714285D02*
X103726190Y-111404761D01*
X103916666Y-111571428D01*
X103916666Y-111500000D01*
X103940476Y-111452380D01*
X103964285Y-111428571D01*
X104011904Y-111404761D01*
X104130952Y-111404761D01*
X104178571Y-111428571D01*
X104202380Y-111452380D01*
X104226190Y-111500000D01*
X104226190Y-111642857D01*
X104202380Y-111690476D01*
X104178571Y-111714285D01*
X96226190Y-112619047D02*
X96226190Y-112309523D01*
X96416666Y-112476190D01*
X96416666Y-112404761D01*
X96440476Y-112357142D01*
X96464285Y-112333333D01*
X96511904Y-112309523D01*
X96630952Y-112309523D01*
X96678571Y-112333333D01*
X96702380Y-112357142D01*
X96726190Y-112404761D01*
X96726190Y-112547619D01*
X96702380Y-112595238D01*
X96678571Y-112619047D01*
X96226190Y-112166666D02*
X96726190Y-112000000D01*
X96226190Y-111833333D01*
X96226190Y-111714285D02*
X96226190Y-111404761D01*
X96416666Y-111571428D01*
X96416666Y-111500000D01*
X96440476Y-111452380D01*
X96464285Y-111428571D01*
X96511904Y-111404761D01*
X96630952Y-111404761D01*
X96678571Y-111428571D01*
X96702380Y-111452380D01*
X96726190Y-111500000D01*
X96726190Y-111642857D01*
X96702380Y-111690476D01*
X96678571Y-111714285D01*
X80250000Y-112380952D02*
X80226190Y-112428571D01*
X80226190Y-112500000D01*
X80250000Y-112571428D01*
X80297619Y-112619047D01*
X80345238Y-112642857D01*
X80440476Y-112666666D01*
X80511904Y-112666666D01*
X80607142Y-112642857D01*
X80654761Y-112619047D01*
X80702380Y-112571428D01*
X80726190Y-112500000D01*
X80726190Y-112452380D01*
X80702380Y-112380952D01*
X80678571Y-112357142D01*
X80511904Y-112357142D01*
X80511904Y-112452380D01*
X80726190Y-112142857D02*
X80226190Y-112142857D01*
X80726190Y-111857142D01*
X80226190Y-111857142D01*
X80726190Y-111619047D02*
X80226190Y-111619047D01*
X80226190Y-111500000D01*
X80250000Y-111428571D01*
X80297619Y-111380952D01*
X80345238Y-111357142D01*
X80440476Y-111333333D01*
X80511904Y-111333333D01*
X80607142Y-111357142D01*
X80654761Y-111380952D01*
X80702380Y-111428571D01*
X80726190Y-111500000D01*
X80726190Y-111619047D01*
X97750000Y-112380952D02*
X97726190Y-112428571D01*
X97726190Y-112500000D01*
X97750000Y-112571428D01*
X97797619Y-112619047D01*
X97845238Y-112642857D01*
X97940476Y-112666666D01*
X98011904Y-112666666D01*
X98107142Y-112642857D01*
X98154761Y-112619047D01*
X98202380Y-112571428D01*
X98226190Y-112500000D01*
X98226190Y-112452380D01*
X98202380Y-112380952D01*
X98178571Y-112357142D01*
X98011904Y-112357142D01*
X98011904Y-112452380D01*
X98226190Y-112142857D02*
X97726190Y-112142857D01*
X98226190Y-111857142D01*
X97726190Y-111857142D01*
X98226190Y-111619047D02*
X97726190Y-111619047D01*
X97726190Y-111500000D01*
X97750000Y-111428571D01*
X97797619Y-111380952D01*
X97845238Y-111357142D01*
X97940476Y-111333333D01*
X98011904Y-111333333D01*
X98107142Y-111357142D01*
X98154761Y-111380952D01*
X98202380Y-111428571D01*
X98226190Y-111500000D01*
X98226190Y-111619047D01*
X102250000Y-112380952D02*
X102226190Y-112428571D01*
X102226190Y-112500000D01*
X102250000Y-112571428D01*
X102297619Y-112619047D01*
X102345238Y-112642857D01*
X102440476Y-112666666D01*
X102511904Y-112666666D01*
X102607142Y-112642857D01*
X102654761Y-112619047D01*
X102702380Y-112571428D01*
X102726190Y-112500000D01*
X102726190Y-112452380D01*
X102702380Y-112380952D01*
X102678571Y-112357142D01*
X102511904Y-112357142D01*
X102511904Y-112452380D01*
X102726190Y-112142857D02*
X102226190Y-112142857D01*
X102726190Y-111857142D01*
X102226190Y-111857142D01*
X102726190Y-111619047D02*
X102226190Y-111619047D01*
X102226190Y-111500000D01*
X102250000Y-111428571D01*
X102297619Y-111380952D01*
X102345238Y-111357142D01*
X102440476Y-111333333D01*
X102511904Y-111333333D01*
X102607142Y-111357142D01*
X102654761Y-111380952D01*
X102702380Y-111428571D01*
X102726190Y-111500000D01*
X102726190Y-111619047D01*
X93619047Y-100250000D02*
X93571428Y-100226190D01*
X93500000Y-100226190D01*
X93428571Y-100250000D01*
X93380952Y-100297619D01*
X93357142Y-100345238D01*
X93333333Y-100440476D01*
X93333333Y-100511904D01*
X93357142Y-100607142D01*
X93380952Y-100654761D01*
X93428571Y-100702380D01*
X93500000Y-100726190D01*
X93547619Y-100726190D01*
X93619047Y-100702380D01*
X93642857Y-100678571D01*
X93642857Y-100511904D01*
X93547619Y-100511904D01*
X93857142Y-100726190D02*
X93857142Y-100226190D01*
X94142857Y-100726190D01*
X94142857Y-100226190D01*
X94380952Y-100726190D02*
X94380952Y-100226190D01*
X94500000Y-100226190D01*
X94571428Y-100250000D01*
X94619047Y-100297619D01*
X94642857Y-100345238D01*
X94666666Y-100440476D01*
X94666666Y-100511904D01*
X94642857Y-100607142D01*
X94619047Y-100654761D01*
X94571428Y-100702380D01*
X94500000Y-100726190D01*
X94380952Y-100726190D01*
X111619047Y-85250000D02*
X111571428Y-85226190D01*
X111500000Y-85226190D01*
X111428571Y-85250000D01*
X111380952Y-85297619D01*
X111357142Y-85345238D01*
X111333333Y-85440476D01*
X111333333Y-85511904D01*
X111357142Y-85607142D01*
X111380952Y-85654761D01*
X111428571Y-85702380D01*
X111500000Y-85726190D01*
X111547619Y-85726190D01*
X111619047Y-85702380D01*
X111642857Y-85678571D01*
X111642857Y-85511904D01*
X111547619Y-85511904D01*
X111857142Y-85726190D02*
X111857142Y-85226190D01*
X112142857Y-85726190D01*
X112142857Y-85226190D01*
X112380952Y-85726190D02*
X112380952Y-85226190D01*
X112500000Y-85226190D01*
X112571428Y-85250000D01*
X112619047Y-85297619D01*
X112642857Y-85345238D01*
X112666666Y-85440476D01*
X112666666Y-85511904D01*
X112642857Y-85607142D01*
X112619047Y-85654761D01*
X112571428Y-85702380D01*
X112500000Y-85726190D01*
X112380952Y-85726190D01*
X76619047Y-93750000D02*
X76571428Y-93726190D01*
X76500000Y-93726190D01*
X76428571Y-93750000D01*
X76380952Y-93797619D01*
X76357142Y-93845238D01*
X76333333Y-93940476D01*
X76333333Y-94011904D01*
X76357142Y-94107142D01*
X76380952Y-94154761D01*
X76428571Y-94202380D01*
X76500000Y-94226190D01*
X76547619Y-94226190D01*
X76619047Y-94202380D01*
X76642857Y-94178571D01*
X76642857Y-94011904D01*
X76547619Y-94011904D01*
X76857142Y-94226190D02*
X76857142Y-93726190D01*
X77142857Y-94226190D01*
X77142857Y-93726190D01*
X77380952Y-94226190D02*
X77380952Y-93726190D01*
X77500000Y-93726190D01*
X77571428Y-93750000D01*
X77619047Y-93797619D01*
X77642857Y-93845238D01*
X77666666Y-93940476D01*
X77666666Y-94011904D01*
X77642857Y-94107142D01*
X77619047Y-94154761D01*
X77571428Y-94202380D01*
X77500000Y-94226190D01*
X77380952Y-94226190D01*
X43119047Y-45750000D02*
X43071428Y-45726190D01*
X43000000Y-45726190D01*
X42928571Y-45750000D01*
X42880952Y-45797619D01*
X42857142Y-45845238D01*
X42833333Y-45940476D01*
X42833333Y-46011904D01*
X42857142Y-46107142D01*
X42880952Y-46154761D01*
X42928571Y-46202380D01*
X43000000Y-46226190D01*
X43047619Y-46226190D01*
X43119047Y-46202380D01*
X43142857Y-46178571D01*
X43142857Y-46011904D01*
X43047619Y-46011904D01*
X43357142Y-46226190D02*
X43357142Y-45726190D01*
X43642857Y-46226190D01*
X43642857Y-45726190D01*
X43880952Y-46226190D02*
X43880952Y-45726190D01*
X44000000Y-45726190D01*
X44071428Y-45750000D01*
X44119047Y-45797619D01*
X44142857Y-45845238D01*
X44166666Y-45940476D01*
X44166666Y-46011904D01*
X44142857Y-46107142D01*
X44119047Y-46154761D01*
X44071428Y-46202380D01*
X44000000Y-46226190D01*
X43880952Y-46226190D01*
X110119047Y-45750000D02*
X110071428Y-45726190D01*
X110000000Y-45726190D01*
X109928571Y-45750000D01*
X109880952Y-45797619D01*
X109857142Y-45845238D01*
X109833333Y-45940476D01*
X109833333Y-46011904D01*
X109857142Y-46107142D01*
X109880952Y-46154761D01*
X109928571Y-46202380D01*
X110000000Y-46226190D01*
X110047619Y-46226190D01*
X110119047Y-46202380D01*
X110142857Y-46178571D01*
X110142857Y-46011904D01*
X110047619Y-46011904D01*
X110357142Y-46226190D02*
X110357142Y-45726190D01*
X110642857Y-46226190D01*
X110642857Y-45726190D01*
X110880952Y-46226190D02*
X110880952Y-45726190D01*
X111000000Y-45726190D01*
X111071428Y-45750000D01*
X111119047Y-45797619D01*
X111142857Y-45845238D01*
X111166666Y-45940476D01*
X111166666Y-46011904D01*
X111142857Y-46107142D01*
X111119047Y-46154761D01*
X111071428Y-46202380D01*
X111000000Y-46226190D01*
X110880952Y-46226190D01*
X111119047Y-58750000D02*
X111071428Y-58726190D01*
X111000000Y-58726190D01*
X110928571Y-58750000D01*
X110880952Y-58797619D01*
X110857142Y-58845238D01*
X110833333Y-58940476D01*
X110833333Y-59011904D01*
X110857142Y-59107142D01*
X110880952Y-59154761D01*
X110928571Y-59202380D01*
X111000000Y-59226190D01*
X111047619Y-59226190D01*
X111119047Y-59202380D01*
X111142857Y-59178571D01*
X111142857Y-59011904D01*
X111047619Y-59011904D01*
X111357142Y-59226190D02*
X111357142Y-58726190D01*
X111642857Y-59226190D01*
X111642857Y-58726190D01*
X111880952Y-59226190D02*
X111880952Y-58726190D01*
X112000000Y-58726190D01*
X112071428Y-58750000D01*
X112119047Y-58797619D01*
X112142857Y-58845238D01*
X112166666Y-58940476D01*
X112166666Y-59011904D01*
X112142857Y-59107142D01*
X112119047Y-59154761D01*
X112071428Y-59202380D01*
X112000000Y-59226190D01*
X111880952Y-59226190D01*
D11*
G36*
X61950000Y-93700000D02*
G01*
X55000000Y-93700000D01*
X55000000Y-91700000D01*
X61950000Y-91700000D01*
X61950000Y-93700000D01*
G37*
X61950000Y-93700000D02*
X55000000Y-93700000D01*
X55000000Y-91700000D01*
X61950000Y-91700000D01*
X61950000Y-93700000D01*
G36*
X55950000Y-101700000D02*
G01*
X55000000Y-101700000D01*
X55000000Y-99700000D01*
X55950000Y-99700000D01*
X55950000Y-101700000D01*
G37*
X55950000Y-101700000D02*
X55000000Y-101700000D01*
X55000000Y-99700000D01*
X55950000Y-99700000D01*
X55950000Y-101700000D01*
G36*
X55950000Y-97700000D02*
G01*
X55000000Y-97700000D01*
X55000000Y-95700000D01*
X56000000Y-95700000D01*
X55950000Y-97700000D01*
G37*
X55950000Y-97700000D02*
X55000000Y-97700000D01*
X55000000Y-95700000D01*
X56000000Y-95700000D01*
X55950000Y-97700000D01*
G36*
X61950000Y-97700000D02*
G01*
X60050000Y-97700000D01*
X60050000Y-95700000D01*
X61950000Y-95700000D01*
X61950000Y-97700000D01*
G37*
X61950000Y-97700000D02*
X60050000Y-97700000D01*
X60050000Y-95700000D01*
X61950000Y-95700000D01*
X61950000Y-97700000D01*
G36*
X61950000Y-101700000D02*
G01*
X60050000Y-101700000D01*
X60050000Y-99700000D01*
X61950000Y-99700000D01*
X61950000Y-101700000D01*
G37*
X61950000Y-101700000D02*
X60050000Y-101700000D01*
X60050000Y-99700000D01*
X61950000Y-99700000D01*
X61950000Y-101700000D01*
D12*
X55000000Y-102700000D02*
X64000000Y-102700000D01*
X55000000Y-89700000D02*
X55000000Y-102700000D01*
X64000000Y-89700000D02*
X55000000Y-89700000D01*
X64000000Y-91700000D02*
X64000000Y-89700000D01*
X64000000Y-99700000D02*
X64000000Y-97700000D01*
X64000000Y-95700000D02*
X64000000Y-93700000D01*
X64000000Y-102700000D02*
X64000000Y-101700000D01*
X71000000Y-102700000D02*
X64000000Y-102700000D01*
X71000000Y-89700000D02*
X71000000Y-102700000D01*
X64000000Y-89700000D02*
X71000000Y-89700000D01*
D13*
X103119047Y-53152380D02*
X103119047Y-52152380D01*
X103452380Y-52866666D01*
X103785714Y-52152380D01*
X103785714Y-53152380D01*
X104261904Y-53152380D02*
X104261904Y-52152380D01*
X104642857Y-52152380D01*
X104738095Y-52200000D01*
X104785714Y-52247619D01*
X104833333Y-52342857D01*
X104833333Y-52485714D01*
X104785714Y-52580952D01*
X104738095Y-52628571D01*
X104642857Y-52676190D01*
X104261904Y-52676190D01*
X105261904Y-52152380D02*
X105261904Y-52961904D01*
X105309523Y-53057142D01*
X105357142Y-53104761D01*
X105452380Y-53152380D01*
X105642857Y-53152380D01*
X105738095Y-53104761D01*
X105785714Y-53057142D01*
X105833333Y-52961904D01*
X105833333Y-52152380D01*
X106309523Y-52771428D02*
X107071428Y-52771428D01*
X107595238Y-53152380D02*
X107785714Y-53152380D01*
X107880952Y-53104761D01*
X107928571Y-53057142D01*
X108023809Y-52914285D01*
X108071428Y-52723809D01*
X108071428Y-52342857D01*
X108023809Y-52247619D01*
X107976190Y-52200000D01*
X107880952Y-52152380D01*
X107690476Y-52152380D01*
X107595238Y-52200000D01*
X107547619Y-52247619D01*
X107500000Y-52342857D01*
X107500000Y-52580952D01*
X107547619Y-52676190D01*
X107595238Y-52723809D01*
X107690476Y-52771428D01*
X107880952Y-52771428D01*
X107976190Y-52723809D01*
X108023809Y-52676190D01*
X108071428Y-52580952D01*
X108452380Y-52247619D02*
X108500000Y-52200000D01*
X108595238Y-52152380D01*
X108833333Y-52152380D01*
X108928571Y-52200000D01*
X108976190Y-52247619D01*
X109023809Y-52342857D01*
X109023809Y-52438095D01*
X108976190Y-52580952D01*
X108404761Y-53152380D01*
X109023809Y-53152380D01*
X109928571Y-52152380D02*
X109452380Y-52152380D01*
X109404761Y-52628571D01*
X109452380Y-52580952D01*
X109547619Y-52533333D01*
X109785714Y-52533333D01*
X109880952Y-52580952D01*
X109928571Y-52628571D01*
X109976190Y-52723809D01*
X109976190Y-52961904D01*
X109928571Y-53057142D01*
X109880952Y-53104761D01*
X109785714Y-53152380D01*
X109547619Y-53152380D01*
X109452380Y-53104761D01*
X109404761Y-53057142D01*
X110595238Y-52152380D02*
X110690476Y-52152380D01*
X110785714Y-52200000D01*
X110833333Y-52247619D01*
X110880952Y-52342857D01*
X110928571Y-52533333D01*
X110928571Y-52771428D01*
X110880952Y-52961904D01*
X110833333Y-53057142D01*
X110785714Y-53104761D01*
X110690476Y-53152380D01*
X110595238Y-53152380D01*
X110500000Y-53104761D01*
X110452380Y-53057142D01*
X110404761Y-52961904D01*
X110357142Y-52771428D01*
X110357142Y-52533333D01*
X110404761Y-52342857D01*
X110452380Y-52247619D01*
X110500000Y-52200000D01*
X110595238Y-52152380D01*
D12*
X97680000Y-67330000D02*
X97680000Y-49330000D01*
X115680000Y-67330000D02*
X97680000Y-67330000D01*
X115680000Y-49330000D02*
X115680000Y-67330000D01*
X97680000Y-49330000D02*
X115680000Y-49330000D01*
D13*
X78114285Y-96822380D02*
X78685714Y-96822380D01*
X78400000Y-97822380D02*
X78400000Y-96822380D01*
X79019047Y-97822380D02*
X79019047Y-96822380D01*
X79352380Y-97536666D01*
X79685714Y-96822380D01*
X79685714Y-97822380D01*
X80161904Y-97822380D02*
X80161904Y-96822380D01*
X80542857Y-96822380D01*
X80638095Y-96870000D01*
X80685714Y-96917619D01*
X80733333Y-97012857D01*
X80733333Y-97155714D01*
X80685714Y-97250952D01*
X80638095Y-97298571D01*
X80542857Y-97346190D01*
X80161904Y-97346190D01*
X81685714Y-97822380D02*
X81114285Y-97822380D01*
X81400000Y-97822380D02*
X81400000Y-96822380D01*
X81304761Y-96965238D01*
X81209523Y-97060476D01*
X81114285Y-97108095D01*
X82304761Y-96822380D02*
X82400000Y-96822380D01*
X82495238Y-96870000D01*
X82542857Y-96917619D01*
X82590476Y-97012857D01*
X82638095Y-97203333D01*
X82638095Y-97441428D01*
X82590476Y-97631904D01*
X82542857Y-97727142D01*
X82495238Y-97774761D01*
X82400000Y-97822380D01*
X82304761Y-97822380D01*
X82209523Y-97774761D01*
X82161904Y-97727142D01*
X82114285Y-97631904D01*
X82066666Y-97441428D01*
X82066666Y-97203333D01*
X82114285Y-97012857D01*
X82161904Y-96917619D01*
X82209523Y-96870000D01*
X82304761Y-96822380D01*
X83019047Y-96917619D02*
X83066666Y-96870000D01*
X83161904Y-96822380D01*
X83400000Y-96822380D01*
X83495238Y-96870000D01*
X83542857Y-96917619D01*
X83590476Y-97012857D01*
X83590476Y-97108095D01*
X83542857Y-97250952D01*
X82971428Y-97822380D01*
X83590476Y-97822380D01*
D12*
X88700000Y-89570000D02*
X88700000Y-105570000D01*
X72700000Y-105570000D02*
X88700000Y-105570000D01*
X72700000Y-89570000D02*
X88700000Y-89570000D01*
X72700000Y-89570000D02*
X72700000Y-105570000D01*
X89690000Y-105560000D02*
X115690000Y-105560000D01*
X89690000Y-79560000D02*
X89690000Y-105560000D01*
X115690000Y-79560000D02*
X115690000Y-105560000D01*
X114690000Y-79560000D02*
X115690000Y-79560000D01*
X89690000Y-79560000D02*
X114690000Y-79560000D01*
D13*
X98909047Y-93012380D02*
X98909047Y-92012380D01*
X99290000Y-92012380D01*
X99385238Y-92060000D01*
X99432857Y-92107619D01*
X99480476Y-92202857D01*
X99480476Y-92345714D01*
X99432857Y-92440952D01*
X99385238Y-92488571D01*
X99290000Y-92536190D01*
X98909047Y-92536190D01*
X99909047Y-93012380D02*
X99909047Y-92012380D01*
X100480476Y-93012380D01*
X100480476Y-92012380D01*
X100956666Y-93012380D02*
X100956666Y-92012380D01*
X102766190Y-93012380D02*
X102432857Y-92536190D01*
X102194761Y-93012380D02*
X102194761Y-92012380D01*
X102575714Y-92012380D01*
X102670952Y-92060000D01*
X102718571Y-92107619D01*
X102766190Y-92202857D01*
X102766190Y-92345714D01*
X102718571Y-92440952D01*
X102670952Y-92488571D01*
X102575714Y-92536190D01*
X102194761Y-92536190D01*
X103194761Y-93012380D02*
X103194761Y-92012380D01*
X103528095Y-92726666D01*
X103861428Y-92012380D01*
X103861428Y-93012380D01*
X104242380Y-92012380D02*
X104861428Y-92012380D01*
X104528095Y-92393333D01*
X104670952Y-92393333D01*
X104766190Y-92440952D01*
X104813809Y-92488571D01*
X104861428Y-92583809D01*
X104861428Y-92821904D01*
X104813809Y-92917142D01*
X104766190Y-92964761D01*
X104670952Y-93012380D01*
X104385238Y-93012380D01*
X104290000Y-92964761D01*
X104242380Y-92917142D01*
X105813809Y-93012380D02*
X105242380Y-93012380D01*
X105528095Y-93012380D02*
X105528095Y-92012380D01*
X105432857Y-92155238D01*
X105337619Y-92250476D01*
X105242380Y-92298095D01*
X106432857Y-92012380D02*
X106528095Y-92012380D01*
X106623333Y-92060000D01*
X106670952Y-92107619D01*
X106718571Y-92202857D01*
X106766190Y-92393333D01*
X106766190Y-92631428D01*
X106718571Y-92821904D01*
X106670952Y-92917142D01*
X106623333Y-92964761D01*
X106528095Y-93012380D01*
X106432857Y-93012380D01*
X106337619Y-92964761D01*
X106290000Y-92917142D01*
X106242380Y-92821904D01*
X106194761Y-92631428D01*
X106194761Y-92393333D01*
X106242380Y-92202857D01*
X106290000Y-92107619D01*
X106337619Y-92060000D01*
X106432857Y-92012380D01*
X107385238Y-92012380D02*
X107480476Y-92012380D01*
X107575714Y-92060000D01*
X107623333Y-92107619D01*
X107670952Y-92202857D01*
X107718571Y-92393333D01*
X107718571Y-92631428D01*
X107670952Y-92821904D01*
X107623333Y-92917142D01*
X107575714Y-92964761D01*
X107480476Y-93012380D01*
X107385238Y-93012380D01*
X107290000Y-92964761D01*
X107242380Y-92917142D01*
X107194761Y-92821904D01*
X107147142Y-92631428D01*
X107147142Y-92393333D01*
X107194761Y-92202857D01*
X107242380Y-92107619D01*
X107290000Y-92060000D01*
X107385238Y-92012380D01*
D12*
X116700000Y-124650000D02*
X116700000Y-39250000D01*
X37300000Y-39250000D02*
X37300000Y-124650000D01*
X42900000Y-37950000D02*
X111100000Y-37950000D01*
X42890000Y-32950000D02*
X111100000Y-37950000D01*
X111100000Y-32950000D02*
X42910000Y-37950000D01*
X42900000Y-125950000D02*
X111110000Y-125950000D01*
X111100000Y-130950000D02*
X42900000Y-125950000D01*
X42900000Y-130950000D02*
X111110000Y-125950000D01*
X35700000Y-130950000D02*
X42900000Y-124650000D01*
X35700000Y-124650000D02*
X42900000Y-130950000D01*
X118300000Y-124650000D02*
X111100000Y-130950000D01*
X118300000Y-130950000D02*
X111100000Y-124660000D01*
X111100000Y-39250000D02*
X111100000Y-32950000D01*
X111100000Y-39250000D02*
X118300000Y-39250000D01*
X118300000Y-32950000D02*
X111100000Y-39250000D01*
X111100000Y-32950000D02*
X118300000Y-39250000D01*
X35700000Y-39250000D02*
X42910000Y-39260000D01*
X42890000Y-32950000D02*
X42910000Y-39260000D01*
X35700000Y-39250000D02*
X42890000Y-32950000D01*
X35700000Y-32950000D02*
X42910000Y-39260000D01*
X111100000Y-124660000D02*
X118300000Y-124650000D01*
X111100000Y-130950000D02*
X111100000Y-124660000D01*
X42900000Y-124650000D02*
X42900000Y-130950000D01*
X35700000Y-124650000D02*
X42900000Y-124650000D01*
X110100000Y-68350000D02*
X116700000Y-78550000D01*
X110100000Y-78550000D02*
X116700000Y-68350000D01*
X43900000Y-78550000D02*
X37300000Y-68350000D01*
X43900000Y-68350000D02*
X37300000Y-78550000D01*
X96100000Y-59950000D02*
X116700000Y-59950000D01*
X96100000Y-54950000D02*
X116700000Y-54950000D01*
X57900000Y-59950000D02*
X37300000Y-59950000D01*
X57900000Y-54950000D02*
X37300000Y-54950000D01*
X60300000Y-59950000D02*
X60300000Y-54950000D01*
X63100000Y-59950000D02*
X63100000Y-54950000D01*
X67300000Y-59950000D02*
X67300000Y-54950000D01*
X86700000Y-59950000D02*
X86700000Y-54950000D01*
X90900000Y-59950000D02*
X90900000Y-54950000D01*
X93700000Y-59950000D02*
X93700000Y-54950000D01*
D13*
X93366666Y-63802380D02*
X93985714Y-63802380D01*
X93652380Y-64183333D01*
X93795238Y-64183333D01*
X93890476Y-64230952D01*
X93938095Y-64278571D01*
X93985714Y-64373809D01*
X93985714Y-64611904D01*
X93938095Y-64707142D01*
X93890476Y-64754761D01*
X93795238Y-64802380D01*
X93509523Y-64802380D01*
X93414285Y-64754761D01*
X93366666Y-64707142D01*
D12*
X102100000Y-59950000D02*
X102100000Y-63550000D01*
X102100000Y-68350000D02*
X102100000Y-65150000D01*
X100300000Y-59950000D02*
X100300000Y-63550000D01*
X100300000Y-68350000D02*
X100300000Y-65150000D01*
X98500000Y-68350000D02*
X98500000Y-65150000D01*
X98500000Y-59950000D02*
X98500000Y-63550000D01*
X96100000Y-59950000D02*
X96100000Y-63550000D01*
X96100000Y-68350000D02*
X96100000Y-65150000D01*
X93700000Y-59950000D02*
X93700000Y-63550000D01*
X93700000Y-68350000D02*
X93700000Y-65150000D01*
X90900000Y-59950000D02*
X90900000Y-63550000D01*
X90900000Y-68350000D02*
X90900000Y-65150000D01*
X86700000Y-59950000D02*
X86700000Y-63550000D01*
X86700000Y-68350000D02*
X86700000Y-65150000D01*
X67300000Y-59950000D02*
X67300000Y-63550000D01*
X67300000Y-68350000D02*
X67300000Y-65150000D01*
X63100000Y-68350000D02*
X63100000Y-65150000D01*
X63100000Y-59950000D02*
X63100000Y-63550000D01*
X60300000Y-65150000D02*
X60300000Y-68350000D01*
X60300000Y-59950000D02*
X60300000Y-63550000D01*
X57900000Y-65150000D02*
X57900000Y-68350000D01*
X57900000Y-63550000D02*
X57900000Y-59950000D01*
D13*
X55738095Y-63802380D02*
X55261904Y-63802380D01*
X55214285Y-64278571D01*
X55261904Y-64230952D01*
X55357142Y-64183333D01*
X55595238Y-64183333D01*
X55690476Y-64230952D01*
X55738095Y-64278571D01*
X55785714Y-64373809D01*
X55785714Y-64611904D01*
X55738095Y-64707142D01*
X55690476Y-64754761D01*
X55595238Y-64802380D01*
X55357142Y-64802380D01*
X55261904Y-64754761D01*
X55214285Y-64707142D01*
D12*
X55500000Y-65150000D02*
X55500000Y-68350000D01*
X55500000Y-63550000D02*
X55500000Y-59950000D01*
D13*
X53890476Y-63802380D02*
X53700000Y-63802380D01*
X53604761Y-63850000D01*
X53557142Y-63897619D01*
X53461904Y-64040476D01*
X53414285Y-64230952D01*
X53414285Y-64611904D01*
X53461904Y-64707142D01*
X53509523Y-64754761D01*
X53604761Y-64802380D01*
X53795238Y-64802380D01*
X53890476Y-64754761D01*
X53938095Y-64707142D01*
X53985714Y-64611904D01*
X53985714Y-64373809D01*
X53938095Y-64278571D01*
X53890476Y-64230952D01*
X53795238Y-64183333D01*
X53604761Y-64183333D01*
X53509523Y-64230952D01*
X53461904Y-64278571D01*
X53414285Y-64373809D01*
D12*
X53700000Y-63550000D02*
X53700000Y-59950000D01*
X53700000Y-68350000D02*
X53700000Y-65150000D01*
X51900000Y-68350000D02*
X51900000Y-65150000D01*
X51900000Y-59950000D02*
X51900000Y-63550000D01*
D13*
X51566666Y-63802380D02*
X52233333Y-63802380D01*
X51804761Y-64802380D01*
X58090476Y-64135714D02*
X58090476Y-64802380D01*
X57852380Y-63754761D02*
X57614285Y-64469047D01*
X58233333Y-64469047D01*
X59966666Y-63802380D02*
X60585714Y-63802380D01*
X60252380Y-64183333D01*
X60395238Y-64183333D01*
X60490476Y-64230952D01*
X60538095Y-64278571D01*
X60585714Y-64373809D01*
X60585714Y-64611904D01*
X60538095Y-64707142D01*
X60490476Y-64754761D01*
X60395238Y-64802380D01*
X60109523Y-64802380D01*
X60014285Y-64754761D01*
X59966666Y-64707142D01*
X101766666Y-63802380D02*
X102433333Y-63802380D01*
X102004761Y-64802380D01*
X100490476Y-63802380D02*
X100300000Y-63802380D01*
X100204761Y-63850000D01*
X100157142Y-63897619D01*
X100061904Y-64040476D01*
X100014285Y-64230952D01*
X100014285Y-64611904D01*
X100061904Y-64707142D01*
X100109523Y-64754761D01*
X100204761Y-64802380D01*
X100395238Y-64802380D01*
X100490476Y-64754761D01*
X100538095Y-64707142D01*
X100585714Y-64611904D01*
X100585714Y-64373809D01*
X100538095Y-64278571D01*
X100490476Y-64230952D01*
X100395238Y-64183333D01*
X100204761Y-64183333D01*
X100109523Y-64230952D01*
X100061904Y-64278571D01*
X100014285Y-64373809D01*
X98738095Y-63802380D02*
X98261904Y-63802380D01*
X98214285Y-64278571D01*
X98261904Y-64230952D01*
X98357142Y-64183333D01*
X98595238Y-64183333D01*
X98690476Y-64230952D01*
X98738095Y-64278571D01*
X98785714Y-64373809D01*
X98785714Y-64611904D01*
X98738095Y-64707142D01*
X98690476Y-64754761D01*
X98595238Y-64802380D01*
X98357142Y-64802380D01*
X98261904Y-64754761D01*
X98214285Y-64707142D01*
X96290476Y-64135714D02*
X96290476Y-64802380D01*
X96052380Y-63754761D02*
X95814285Y-64469047D01*
X96433333Y-64469047D01*
X62814285Y-63897619D02*
X62861904Y-63850000D01*
X62957142Y-63802380D01*
X63195238Y-63802380D01*
X63290476Y-63850000D01*
X63338095Y-63897619D01*
X63385714Y-63992857D01*
X63385714Y-64088095D01*
X63338095Y-64230952D01*
X62766666Y-64802380D01*
X63385714Y-64802380D01*
X90614285Y-63897619D02*
X90661904Y-63850000D01*
X90757142Y-63802380D01*
X90995238Y-63802380D01*
X91090476Y-63850000D01*
X91138095Y-63897619D01*
X91185714Y-63992857D01*
X91185714Y-64088095D01*
X91138095Y-64230952D01*
X90566666Y-64802380D01*
X91185714Y-64802380D01*
X67585714Y-64802380D02*
X67014285Y-64802380D01*
X67300000Y-64802380D02*
X67300000Y-63802380D01*
X67204761Y-63945238D01*
X67109523Y-64040476D01*
X67014285Y-64088095D01*
X86985714Y-64802380D02*
X86414285Y-64802380D01*
X86700000Y-64802380D02*
X86700000Y-63802380D01*
X86604761Y-63945238D01*
X86509523Y-64040476D01*
X86414285Y-64088095D01*
X102100000Y-87950000D02*
X51900000Y-87950000D01*
X51900000Y-41950000D02*
X102100000Y-41950000D01*
X76852380Y-63802380D02*
X76947619Y-63802380D01*
X77042857Y-63850000D01*
X77090476Y-63897619D01*
X77138095Y-63992857D01*
X77185714Y-64183333D01*
X77185714Y-64421428D01*
X77138095Y-64611904D01*
X77090476Y-64707142D01*
X77042857Y-64754761D01*
X76947619Y-64802380D01*
X76852380Y-64802380D01*
X76757142Y-64754761D01*
X76709523Y-64707142D01*
X76661904Y-64611904D01*
X76614285Y-64421428D01*
X76614285Y-64183333D01*
X76661904Y-63992857D01*
X76709523Y-63897619D01*
X76757142Y-63850000D01*
X76852380Y-63802380D01*
X53700000Y-87950000D02*
X53700000Y-78550000D01*
X53700000Y-54950000D02*
X53700000Y-41950000D01*
X100300000Y-54950000D02*
X100300000Y-41950000D01*
X100300000Y-87950000D02*
X100300000Y-78550000D01*
X55500000Y-54950000D02*
X55500000Y-41950000D01*
X55500000Y-87950000D02*
X55500000Y-78550000D01*
X98500000Y-78550000D02*
X98500000Y-87950000D01*
X98500000Y-54950000D02*
X98500000Y-41950000D01*
X43671428Y-58202380D02*
X43671428Y-57202380D01*
X44004761Y-57916666D01*
X44338095Y-57202380D01*
X44338095Y-58202380D01*
X44766666Y-57916666D02*
X45242857Y-57916666D01*
X44671428Y-58202380D02*
X45004761Y-57202380D01*
X45338095Y-58202380D01*
X45576190Y-57202380D02*
X46242857Y-58202380D01*
X46242857Y-57202380D02*
X45576190Y-58202380D01*
X47814285Y-57535714D02*
X47814285Y-58202380D01*
X47576190Y-57154761D02*
X47338095Y-57869047D01*
X47957142Y-57869047D01*
X48338095Y-58202380D02*
X48338095Y-57535714D01*
X48338095Y-57630952D02*
X48385714Y-57583333D01*
X48480952Y-57535714D01*
X48623809Y-57535714D01*
X48719047Y-57583333D01*
X48766666Y-57678571D01*
X48766666Y-58202380D01*
X48766666Y-57678571D02*
X48814285Y-57583333D01*
X48909523Y-57535714D01*
X49052380Y-57535714D01*
X49147619Y-57583333D01*
X49195238Y-57678571D01*
X49195238Y-58202380D01*
X49671428Y-58202380D02*
X49671428Y-57535714D01*
X49671428Y-57630952D02*
X49719047Y-57583333D01*
X49814285Y-57535714D01*
X49957142Y-57535714D01*
X50052380Y-57583333D01*
X50100000Y-57678571D01*
X50100000Y-58202380D01*
X50100000Y-57678571D02*
X50147619Y-57583333D01*
X50242857Y-57535714D01*
X50385714Y-57535714D01*
X50480952Y-57583333D01*
X50528571Y-57678571D01*
X50528571Y-58202380D01*
X103271428Y-58202380D02*
X103271428Y-57202380D01*
X103604761Y-57916666D01*
X103938095Y-57202380D01*
X103938095Y-58202380D01*
X104366666Y-57916666D02*
X104842857Y-57916666D01*
X104271428Y-58202380D02*
X104604761Y-57202380D01*
X104938095Y-58202380D01*
X105176190Y-57202380D02*
X105842857Y-58202380D01*
X105842857Y-57202380D02*
X105176190Y-58202380D01*
X107414285Y-57535714D02*
X107414285Y-58202380D01*
X107176190Y-57154761D02*
X106938095Y-57869047D01*
X107557142Y-57869047D01*
X107938095Y-58202380D02*
X107938095Y-57535714D01*
X107938095Y-57630952D02*
X107985714Y-57583333D01*
X108080952Y-57535714D01*
X108223809Y-57535714D01*
X108319047Y-57583333D01*
X108366666Y-57678571D01*
X108366666Y-58202380D01*
X108366666Y-57678571D02*
X108414285Y-57583333D01*
X108509523Y-57535714D01*
X108652380Y-57535714D01*
X108747619Y-57583333D01*
X108795238Y-57678571D01*
X108795238Y-58202380D01*
X109271428Y-58202380D02*
X109271428Y-57535714D01*
X109271428Y-57630952D02*
X109319047Y-57583333D01*
X109414285Y-57535714D01*
X109557142Y-57535714D01*
X109652380Y-57583333D01*
X109700000Y-57678571D01*
X109700000Y-58202380D01*
X109700000Y-57678571D02*
X109747619Y-57583333D01*
X109842857Y-57535714D01*
X109985714Y-57535714D01*
X110080952Y-57583333D01*
X110128571Y-57678571D01*
X110128571Y-58202380D01*
X96100000Y-54950000D02*
X96100000Y-59950000D01*
X57900000Y-54950000D02*
X57900000Y-59950000D01*
X57900000Y-54950000D02*
X57900000Y-41950000D01*
X57900000Y-87950000D02*
X57900000Y-78550000D01*
X96100000Y-54950000D02*
X96100000Y-41950000D01*
X96100000Y-87950000D02*
X96100000Y-78550000D01*
X60300000Y-54950000D02*
X60300000Y-41950000D01*
X60300000Y-87950000D02*
X60300000Y-78550000D01*
X93700000Y-54950000D02*
X93700000Y-41950000D01*
X93700000Y-87950000D02*
X93700000Y-78550000D01*
X63100000Y-54950000D02*
X63100000Y-41950000D01*
X63100000Y-87950000D02*
X63100000Y-78550000D01*
X90900000Y-54950000D02*
X90900000Y-41950000D01*
X90900000Y-87950000D02*
X90900000Y-78550000D01*
X51900000Y-54950000D02*
X51900000Y-41950000D01*
X51900000Y-87950000D02*
X51900000Y-78550000D01*
X102100000Y-54950000D02*
X102100000Y-41950000D01*
X102100000Y-87950000D02*
X102100000Y-78550000D01*
X67300000Y-54950000D02*
X67300000Y-41950000D01*
X67300000Y-87950000D02*
X67300000Y-78550000D01*
X86700000Y-54950000D02*
X86700000Y-41950000D01*
X86700000Y-87950000D02*
X86700000Y-78550000D01*
X76290476Y-128802380D02*
X76290476Y-127802380D01*
X76861904Y-128802380D01*
X76861904Y-127802380D01*
X77528571Y-127802380D02*
X77719047Y-127802380D01*
X77814285Y-127850000D01*
X77909523Y-127945238D01*
X77957142Y-128135714D01*
X77957142Y-128469047D01*
X77909523Y-128659523D01*
X77814285Y-128754761D01*
X77719047Y-128802380D01*
X77528571Y-128802380D01*
X77433333Y-128754761D01*
X77338095Y-128659523D01*
X77290476Y-128469047D01*
X77290476Y-128135714D01*
X77338095Y-127945238D01*
X77433333Y-127850000D01*
X77528571Y-127802380D01*
X112690476Y-73802380D02*
X112690476Y-72802380D01*
X113261904Y-73802380D01*
X113261904Y-72802380D01*
X113928571Y-72802380D02*
X114119047Y-72802380D01*
X114214285Y-72850000D01*
X114309523Y-72945238D01*
X114357142Y-73135714D01*
X114357142Y-73469047D01*
X114309523Y-73659523D01*
X114214285Y-73754761D01*
X114119047Y-73802380D01*
X113928571Y-73802380D01*
X113833333Y-73754761D01*
X113738095Y-73659523D01*
X113690476Y-73469047D01*
X113690476Y-73135714D01*
X113738095Y-72945238D01*
X113833333Y-72850000D01*
X113928571Y-72802380D01*
X39690476Y-74002380D02*
X39690476Y-73002380D01*
X40261904Y-74002380D01*
X40261904Y-73002380D01*
X40928571Y-73002380D02*
X41119047Y-73002380D01*
X41214285Y-73050000D01*
X41309523Y-73145238D01*
X41357142Y-73335714D01*
X41357142Y-73669047D01*
X41309523Y-73859523D01*
X41214285Y-73954761D01*
X41119047Y-74002380D01*
X40928571Y-74002380D01*
X40833333Y-73954761D01*
X40738095Y-73859523D01*
X40690476Y-73669047D01*
X40690476Y-73335714D01*
X40738095Y-73145238D01*
X40833333Y-73050000D01*
X40928571Y-73002380D01*
X75890476Y-36002380D02*
X75890476Y-35002380D01*
X76461904Y-36002380D01*
X76461904Y-35002380D01*
X77128571Y-35002380D02*
X77319047Y-35002380D01*
X77414285Y-35050000D01*
X77509523Y-35145238D01*
X77557142Y-35335714D01*
X77557142Y-35669047D01*
X77509523Y-35859523D01*
X77414285Y-35954761D01*
X77319047Y-36002380D01*
X77128571Y-36002380D01*
X77033333Y-35954761D01*
X76938095Y-35859523D01*
X76890476Y-35669047D01*
X76890476Y-35335714D01*
X76938095Y-35145238D01*
X77033333Y-35050000D01*
X77128571Y-35002380D01*
X43900000Y-78550000D02*
X35700000Y-78550000D01*
X43900000Y-68350000D02*
X35700000Y-68350000D01*
X110100000Y-68350000D02*
X118300000Y-68350000D01*
X110100000Y-78550000D02*
X118300000Y-78550000D01*
D12*
X42100000Y-36175000D02*
G75*
G03X42100000Y-36175000I-3200000J0D01*
G01*
X118300000Y-127750000D02*
G75*
G03X118300000Y-127750000I-3200000J0D01*
G01*
X118300000Y-36150000D02*
G75*
G03X118300000Y-36150000I-3200000J0D01*
G01*
X42100000Y-127750000D02*
G75*
G03X42100000Y-127750000I-3200000J0D01*
G01*
M02*
