G04 #@! TF.GenerationSoftware,KiCad,Pcbnew,(5.1.2)-2*
G04 #@! TF.CreationDate,2021-05-04T10:51:35-04:00*
G04 #@! TF.ProjectId,Magnetometer_A,4d61676e-6574-46f6-9d65-7465725f412e,rev?*
G04 #@! TF.SameCoordinates,Original*
G04 #@! TF.FileFunction,Soldermask,Top*
G04 #@! TF.FilePolarity,Negative*
%FSLAX46Y46*%
G04 Gerber Fmt 4.6, Leading zero omitted, Abs format (unit mm)*
G04 Created by KiCad (PCBNEW (5.1.2)-2) date 2021-05-04 10:51:35*
%MOMM*%
%LPD*%
G04 APERTURE LIST*
%ADD10C,0.100000*%
G04 APERTURE END LIST*
D10*
G36*
X115844098Y-125297033D02*
G01*
X116308350Y-125489332D01*
X116308352Y-125489333D01*
X116726168Y-125768509D01*
X117081491Y-126123832D01*
X117360667Y-126541648D01*
X117360668Y-126541650D01*
X117552967Y-127005902D01*
X117651000Y-127498747D01*
X117651000Y-128001253D01*
X117552967Y-128494098D01*
X117360668Y-128958350D01*
X117360667Y-128958352D01*
X117081491Y-129376168D01*
X116726168Y-129731491D01*
X116308352Y-130010667D01*
X116308351Y-130010668D01*
X116308350Y-130010668D01*
X115844098Y-130202967D01*
X115351253Y-130301000D01*
X114848747Y-130301000D01*
X114355902Y-130202967D01*
X113891650Y-130010668D01*
X113891649Y-130010668D01*
X113891648Y-130010667D01*
X113473832Y-129731491D01*
X113118509Y-129376168D01*
X112839333Y-128958352D01*
X112839332Y-128958350D01*
X112647033Y-128494098D01*
X112549000Y-128001253D01*
X112549000Y-127498747D01*
X112647033Y-127005902D01*
X112839332Y-126541650D01*
X112839333Y-126541648D01*
X113118509Y-126123832D01*
X113473832Y-125768509D01*
X113891648Y-125489333D01*
X113891650Y-125489332D01*
X114355902Y-125297033D01*
X114848747Y-125199000D01*
X115351253Y-125199000D01*
X115844098Y-125297033D01*
X115844098Y-125297033D01*
G37*
G36*
X39644098Y-125297033D02*
G01*
X40108350Y-125489332D01*
X40108352Y-125489333D01*
X40526168Y-125768509D01*
X40881491Y-126123832D01*
X41160667Y-126541648D01*
X41160668Y-126541650D01*
X41352967Y-127005902D01*
X41451000Y-127498747D01*
X41451000Y-128001253D01*
X41352967Y-128494098D01*
X41160668Y-128958350D01*
X41160667Y-128958352D01*
X40881491Y-129376168D01*
X40526168Y-129731491D01*
X40108352Y-130010667D01*
X40108351Y-130010668D01*
X40108350Y-130010668D01*
X39644098Y-130202967D01*
X39151253Y-130301000D01*
X38648747Y-130301000D01*
X38155902Y-130202967D01*
X37691650Y-130010668D01*
X37691649Y-130010668D01*
X37691648Y-130010667D01*
X37273832Y-129731491D01*
X36918509Y-129376168D01*
X36639333Y-128958352D01*
X36639332Y-128958350D01*
X36447033Y-128494098D01*
X36349000Y-128001253D01*
X36349000Y-127498747D01*
X36447033Y-127005902D01*
X36639332Y-126541650D01*
X36639333Y-126541648D01*
X36918509Y-126123832D01*
X37273832Y-125768509D01*
X37691648Y-125489333D01*
X37691650Y-125489332D01*
X38155902Y-125297033D01*
X38648747Y-125199000D01*
X39151253Y-125199000D01*
X39644098Y-125297033D01*
X39644098Y-125297033D01*
G37*
G36*
X39644098Y-33722033D02*
G01*
X40108350Y-33914332D01*
X40108352Y-33914333D01*
X40526168Y-34193509D01*
X40881491Y-34548832D01*
X41160667Y-34966648D01*
X41160668Y-34966650D01*
X41352967Y-35430902D01*
X41451000Y-35923747D01*
X41451000Y-36426253D01*
X41352967Y-36919098D01*
X41171023Y-37358350D01*
X41160667Y-37383352D01*
X40881491Y-37801168D01*
X40526168Y-38156491D01*
X40108352Y-38435667D01*
X40108351Y-38435668D01*
X40108350Y-38435668D01*
X39644098Y-38627967D01*
X39151253Y-38726000D01*
X38648747Y-38726000D01*
X38155902Y-38627967D01*
X37691650Y-38435668D01*
X37691649Y-38435668D01*
X37691648Y-38435667D01*
X37273832Y-38156491D01*
X36918509Y-37801168D01*
X36639333Y-37383352D01*
X36628977Y-37358350D01*
X36447033Y-36919098D01*
X36349000Y-36426253D01*
X36349000Y-35923747D01*
X36447033Y-35430902D01*
X36639332Y-34966650D01*
X36639333Y-34966648D01*
X36918509Y-34548832D01*
X37273832Y-34193509D01*
X37691648Y-33914333D01*
X37691650Y-33914332D01*
X38155902Y-33722033D01*
X38648747Y-33624000D01*
X39151253Y-33624000D01*
X39644098Y-33722033D01*
X39644098Y-33722033D01*
G37*
G36*
X115844098Y-33697033D02*
G01*
X116308350Y-33889332D01*
X116308352Y-33889333D01*
X116726168Y-34168509D01*
X117081491Y-34523832D01*
X117098195Y-34548832D01*
X117360668Y-34941650D01*
X117552967Y-35405902D01*
X117651000Y-35898747D01*
X117651000Y-36401253D01*
X117552967Y-36894098D01*
X117542611Y-36919099D01*
X117360667Y-37358352D01*
X117081491Y-37776168D01*
X116726168Y-38131491D01*
X116308352Y-38410667D01*
X116308351Y-38410668D01*
X116308350Y-38410668D01*
X115844098Y-38602967D01*
X115351253Y-38701000D01*
X114848747Y-38701000D01*
X114355902Y-38602967D01*
X113891650Y-38410668D01*
X113891649Y-38410668D01*
X113891648Y-38410667D01*
X113473832Y-38131491D01*
X113118509Y-37776168D01*
X112839333Y-37358352D01*
X112657389Y-36919099D01*
X112647033Y-36894098D01*
X112549000Y-36401253D01*
X112549000Y-35898747D01*
X112647033Y-35405902D01*
X112839332Y-34941650D01*
X113101805Y-34548832D01*
X113118509Y-34523832D01*
X113473832Y-34168509D01*
X113891648Y-33889333D01*
X113891650Y-33889332D01*
X114355902Y-33697033D01*
X114848747Y-33599000D01*
X115351253Y-33599000D01*
X115844098Y-33697033D01*
X115844098Y-33697033D01*
G37*
M02*
