G04 #@! TF.GenerationSoftware,KiCad,Pcbnew,(5.1.2)-2*
G04 #@! TF.CreationDate,2021-04-07T22:12:18-04:00*
G04 #@! TF.ProjectId,Magnetometer_A,4d61676e-6574-46f6-9d65-7465725f412e,rev?*
G04 #@! TF.SameCoordinates,Original*
G04 #@! TF.FileFunction,Legend,Bot*
G04 #@! TF.FilePolarity,Positive*
%FSLAX46Y46*%
G04 Gerber Fmt 4.6, Leading zero omitted, Abs format (unit mm)*
G04 Created by KiCad (PCBNEW (5.1.2)-2) date 2021-04-07 22:12:18*
%MOMM*%
%LPD*%
G04 APERTURE LIST*
%ADD10C,0.010000*%
G04 APERTURE END LIST*
D10*
G36*
X94007200Y-98962000D02*
G01*
X94058000Y-99012800D01*
X94108800Y-98962000D01*
X94058000Y-98911200D01*
X94007200Y-98962000D01*
X94007200Y-98962000D01*
G37*
X94007200Y-98962000D02*
X94058000Y-99012800D01*
X94108800Y-98962000D01*
X94058000Y-98911200D01*
X94007200Y-98962000D01*
G36*
X99091335Y-91669752D02*
G01*
X99087200Y-91697600D01*
X99121865Y-91796558D01*
X99132004Y-91799200D01*
X99218747Y-91728005D01*
X99239600Y-91697600D01*
X99231545Y-91603977D01*
X99194797Y-91596000D01*
X99091335Y-91669752D01*
X99091335Y-91669752D01*
G37*
X99091335Y-91669752D02*
X99087200Y-91697600D01*
X99121865Y-91796558D01*
X99132004Y-91799200D01*
X99218747Y-91728005D01*
X99239600Y-91697600D01*
X99231545Y-91603977D01*
X99194797Y-91596000D01*
X99091335Y-91669752D01*
G36*
X101365749Y-94624932D02*
G01*
X101356267Y-94694800D01*
X101402119Y-94830131D01*
X101440934Y-94847200D01*
X101516118Y-94764667D01*
X101525600Y-94694800D01*
X101479749Y-94559468D01*
X101440934Y-94542400D01*
X101365749Y-94624932D01*
X101365749Y-94624932D01*
G37*
X101365749Y-94624932D02*
X101356267Y-94694800D01*
X101402119Y-94830131D01*
X101440934Y-94847200D01*
X101516118Y-94764667D01*
X101525600Y-94694800D01*
X101479749Y-94559468D01*
X101440934Y-94542400D01*
X101365749Y-94624932D01*
G36*
X101766515Y-94707527D02*
G01*
X101728800Y-94796400D01*
X101813504Y-94920513D01*
X101932000Y-94948800D01*
X102097486Y-94885272D01*
X102135200Y-94796400D01*
X102050497Y-94672286D01*
X101932000Y-94644000D01*
X101766515Y-94707527D01*
X101766515Y-94707527D01*
G37*
X101766515Y-94707527D02*
X101728800Y-94796400D01*
X101813504Y-94920513D01*
X101932000Y-94948800D01*
X102097486Y-94885272D01*
X102135200Y-94796400D01*
X102050497Y-94672286D01*
X101932000Y-94644000D01*
X101766515Y-94707527D01*
G36*
X103862400Y-94898000D02*
G01*
X103913200Y-94948800D01*
X103964000Y-94898000D01*
X103913200Y-94847200D01*
X103862400Y-94898000D01*
X103862400Y-94898000D01*
G37*
X103862400Y-94898000D02*
X103913200Y-94948800D01*
X103964000Y-94898000D01*
X103913200Y-94847200D01*
X103862400Y-94898000D01*
G36*
X97738581Y-94513565D02*
G01*
X97690476Y-94714938D01*
X97687865Y-94919783D01*
X97738604Y-95042434D01*
X97764787Y-95050400D01*
X97869269Y-94969295D01*
X97880967Y-94923400D01*
X97902106Y-94721077D01*
X97917479Y-94576471D01*
X97894189Y-94417414D01*
X97824321Y-94401326D01*
X97738581Y-94513565D01*
X97738581Y-94513565D01*
G37*
X97738581Y-94513565D02*
X97690476Y-94714938D01*
X97687865Y-94919783D01*
X97738604Y-95042434D01*
X97764787Y-95050400D01*
X97869269Y-94969295D01*
X97880967Y-94923400D01*
X97902106Y-94721077D01*
X97917479Y-94576471D01*
X97894189Y-94417414D01*
X97824321Y-94401326D01*
X97738581Y-94513565D01*
G36*
X100414877Y-94315735D02*
G01*
X100327753Y-94400883D01*
X100176080Y-94386462D01*
X99929563Y-94371389D01*
X99605660Y-94406352D01*
X99520207Y-94423510D01*
X99216121Y-94469842D01*
X99067708Y-94431912D01*
X99048949Y-94403582D01*
X99007073Y-94384641D01*
X98993622Y-94466200D01*
X98903527Y-94616607D01*
X98807800Y-94642444D01*
X98690148Y-94625664D01*
X98762938Y-94555127D01*
X98782400Y-94542400D01*
X98862191Y-94468288D01*
X98761281Y-94443485D01*
X98706200Y-94442355D01*
X98527819Y-94479386D01*
X98477600Y-94542400D01*
X98396119Y-94634343D01*
X98336071Y-94644000D01*
X98213998Y-94702613D01*
X98122868Y-94825447D01*
X98109863Y-94932986D01*
X98150589Y-94956573D01*
X98307739Y-94979447D01*
X98376000Y-94990918D01*
X98550300Y-94986817D01*
X98854710Y-94949892D01*
X99188444Y-94894343D01*
X99541414Y-94835381D01*
X99817434Y-94801895D01*
X99950444Y-94800568D01*
X100106451Y-94829443D01*
X100382508Y-94868374D01*
X100523976Y-94885915D01*
X100811071Y-94912555D01*
X100955697Y-94884065D01*
X101016770Y-94772416D01*
X101039780Y-94640545D01*
X101046577Y-94429548D01*
X101001533Y-94339250D01*
X101000004Y-94339200D01*
X100925406Y-94421741D01*
X100916000Y-94491600D01*
X100857789Y-94625782D01*
X100724378Y-94622198D01*
X100577607Y-94493117D01*
X100532003Y-94415400D01*
X100449717Y-94289863D01*
X100414877Y-94315735D01*
X100414877Y-94315735D01*
G37*
X100414877Y-94315735D02*
X100327753Y-94400883D01*
X100176080Y-94386462D01*
X99929563Y-94371389D01*
X99605660Y-94406352D01*
X99520207Y-94423510D01*
X99216121Y-94469842D01*
X99067708Y-94431912D01*
X99048949Y-94403582D01*
X99007073Y-94384641D01*
X98993622Y-94466200D01*
X98903527Y-94616607D01*
X98807800Y-94642444D01*
X98690148Y-94625664D01*
X98762938Y-94555127D01*
X98782400Y-94542400D01*
X98862191Y-94468288D01*
X98761281Y-94443485D01*
X98706200Y-94442355D01*
X98527819Y-94479386D01*
X98477600Y-94542400D01*
X98396119Y-94634343D01*
X98336071Y-94644000D01*
X98213998Y-94702613D01*
X98122868Y-94825447D01*
X98109863Y-94932986D01*
X98150589Y-94956573D01*
X98307739Y-94979447D01*
X98376000Y-94990918D01*
X98550300Y-94986817D01*
X98854710Y-94949892D01*
X99188444Y-94894343D01*
X99541414Y-94835381D01*
X99817434Y-94801895D01*
X99950444Y-94800568D01*
X100106451Y-94829443D01*
X100382508Y-94868374D01*
X100523976Y-94885915D01*
X100811071Y-94912555D01*
X100955697Y-94884065D01*
X101016770Y-94772416D01*
X101039780Y-94640545D01*
X101046577Y-94429548D01*
X101001533Y-94339250D01*
X101000004Y-94339200D01*
X100925406Y-94421741D01*
X100916000Y-94491600D01*
X100857789Y-94625782D01*
X100724378Y-94622198D01*
X100577607Y-94493117D01*
X100532003Y-94415400D01*
X100449717Y-94289863D01*
X100414877Y-94315735D01*
G36*
X100949867Y-95185866D02*
G01*
X100963814Y-95246267D01*
X101017600Y-95253600D01*
X101101229Y-95216426D01*
X101085334Y-95185866D01*
X100964758Y-95173707D01*
X100949867Y-95185866D01*
X100949867Y-95185866D01*
G37*
X100949867Y-95185866D02*
X100963814Y-95246267D01*
X101017600Y-95253600D01*
X101101229Y-95216426D01*
X101085334Y-95185866D01*
X100964758Y-95173707D01*
X100949867Y-95185866D01*
G36*
X98477600Y-95304400D02*
G01*
X98528400Y-95355200D01*
X98579200Y-95304400D01*
X98528400Y-95253600D01*
X98477600Y-95304400D01*
X98477600Y-95304400D01*
G37*
X98477600Y-95304400D02*
X98528400Y-95355200D01*
X98579200Y-95304400D01*
X98528400Y-95253600D01*
X98477600Y-95304400D01*
G36*
X101311411Y-95174763D02*
G01*
X101307160Y-95202800D01*
X101386258Y-95321929D01*
X101416380Y-95335726D01*
X101509023Y-95286682D01*
X101525600Y-95202800D01*
X101474049Y-95076351D01*
X101416380Y-95069873D01*
X101311411Y-95174763D01*
X101311411Y-95174763D01*
G37*
X101311411Y-95174763D02*
X101307160Y-95202800D01*
X101386258Y-95321929D01*
X101416380Y-95335726D01*
X101509023Y-95286682D01*
X101525600Y-95202800D01*
X101474049Y-95076351D01*
X101416380Y-95069873D01*
X101311411Y-95174763D01*
G36*
X102451463Y-95132691D02*
G01*
X102440000Y-95202800D01*
X102494862Y-95338006D01*
X102541600Y-95355200D01*
X102631738Y-95272908D01*
X102643200Y-95202800D01*
X102588339Y-95067593D01*
X102541600Y-95050400D01*
X102451463Y-95132691D01*
X102451463Y-95132691D01*
G37*
X102451463Y-95132691D02*
X102440000Y-95202800D01*
X102494862Y-95338006D01*
X102541600Y-95355200D01*
X102631738Y-95272908D01*
X102643200Y-95202800D01*
X102588339Y-95067593D01*
X102541600Y-95050400D01*
X102451463Y-95132691D01*
G36*
X103737428Y-95298973D02*
G01*
X103673666Y-95476180D01*
X103747577Y-95513041D01*
X103852959Y-95462634D01*
X103933697Y-95323738D01*
X103912157Y-95251912D01*
X103825366Y-95193064D01*
X103737428Y-95298973D01*
X103737428Y-95298973D01*
G37*
X103737428Y-95298973D02*
X103673666Y-95476180D01*
X103747577Y-95513041D01*
X103852959Y-95462634D01*
X103933697Y-95323738D01*
X103912157Y-95251912D01*
X103825366Y-95193064D01*
X103737428Y-95298973D01*
G36*
X102372267Y-95592266D02*
G01*
X102386214Y-95652667D01*
X102440000Y-95660000D01*
X102523629Y-95622826D01*
X102507734Y-95592266D01*
X102387158Y-95580107D01*
X102372267Y-95592266D01*
X102372267Y-95592266D01*
G37*
X102372267Y-95592266D02*
X102386214Y-95652667D01*
X102440000Y-95660000D01*
X102523629Y-95622826D01*
X102507734Y-95592266D01*
X102387158Y-95580107D01*
X102372267Y-95592266D01*
G36*
X101964196Y-95539350D02*
G01*
X101952084Y-95698138D01*
X101972217Y-95734083D01*
X102018396Y-95703782D01*
X102025579Y-95600733D01*
X102000767Y-95492322D01*
X101964196Y-95539350D01*
X101964196Y-95539350D01*
G37*
X101964196Y-95539350D02*
X101952084Y-95698138D01*
X101972217Y-95734083D01*
X102018396Y-95703782D01*
X102025579Y-95600733D01*
X102000767Y-95492322D01*
X101964196Y-95539350D01*
G36*
X102873014Y-95498420D02*
G01*
X102868441Y-95502492D01*
X102903319Y-95592523D01*
X103041134Y-95753133D01*
X103257747Y-95914168D01*
X103439992Y-95959800D01*
X103538622Y-95885959D01*
X103539650Y-95794306D01*
X103438558Y-95672551D01*
X103236226Y-95557641D01*
X103018947Y-95487092D01*
X102873014Y-95498420D01*
X102873014Y-95498420D01*
G37*
X102873014Y-95498420D02*
X102868441Y-95502492D01*
X102903319Y-95592523D01*
X103041134Y-95753133D01*
X103257747Y-95914168D01*
X103439992Y-95959800D01*
X103538622Y-95885959D01*
X103539650Y-95794306D01*
X103438558Y-95672551D01*
X103236226Y-95557641D01*
X103018947Y-95487092D01*
X102873014Y-95498420D01*
G36*
X102873917Y-96005016D02*
G01*
X102904218Y-96051195D01*
X103007267Y-96058378D01*
X103115678Y-96033566D01*
X103068650Y-95996995D01*
X102909862Y-95984883D01*
X102873917Y-96005016D01*
X102873917Y-96005016D01*
G37*
X102873917Y-96005016D02*
X102904218Y-96051195D01*
X103007267Y-96058378D01*
X103115678Y-96033566D01*
X103068650Y-95996995D01*
X102909862Y-95984883D01*
X102873917Y-96005016D01*
G36*
X97329201Y-95235305D02*
G01*
X97293215Y-95275377D01*
X97172430Y-95423133D01*
X97206375Y-95461953D01*
X97393408Y-95433338D01*
X97632586Y-95431992D01*
X97741346Y-95545558D01*
X97863716Y-95734264D01*
X97927090Y-95786760D01*
X98008728Y-95935026D01*
X98002100Y-96054694D01*
X98009423Y-96244222D01*
X98062349Y-96314929D01*
X98151162Y-96292648D01*
X98172800Y-96173996D01*
X98214253Y-96005670D01*
X98274400Y-95964800D01*
X98364538Y-95882508D01*
X98376000Y-95812400D01*
X98321139Y-95677193D01*
X98274400Y-95660000D01*
X98178326Y-95579551D01*
X98170301Y-95533000D01*
X98085667Y-95409207D01*
X97879655Y-95264449D01*
X97824115Y-95235196D01*
X97592115Y-95131163D01*
X97455217Y-95129074D01*
X97329201Y-95235305D01*
X97329201Y-95235305D01*
G37*
X97329201Y-95235305D02*
X97293215Y-95275377D01*
X97172430Y-95423133D01*
X97206375Y-95461953D01*
X97393408Y-95433338D01*
X97632586Y-95431992D01*
X97741346Y-95545558D01*
X97863716Y-95734264D01*
X97927090Y-95786760D01*
X98008728Y-95935026D01*
X98002100Y-96054694D01*
X98009423Y-96244222D01*
X98062349Y-96314929D01*
X98151162Y-96292648D01*
X98172800Y-96173996D01*
X98214253Y-96005670D01*
X98274400Y-95964800D01*
X98364538Y-95882508D01*
X98376000Y-95812400D01*
X98321139Y-95677193D01*
X98274400Y-95660000D01*
X98178326Y-95579551D01*
X98170301Y-95533000D01*
X98085667Y-95409207D01*
X97879655Y-95264449D01*
X97824115Y-95235196D01*
X97592115Y-95131163D01*
X97455217Y-95129074D01*
X97329201Y-95235305D01*
G36*
X98594914Y-95513804D02*
G01*
X98608664Y-95632789D01*
X98737440Y-95727099D01*
X98849545Y-95841169D01*
X98847080Y-95914466D01*
X98892726Y-96041567D01*
X99064543Y-96162335D01*
X99235474Y-96260987D01*
X99231936Y-96340235D01*
X99183502Y-96376624D01*
X99166078Y-96434084D01*
X99342128Y-96464901D01*
X99569800Y-96471244D01*
X99927631Y-96449761D01*
X100092027Y-96381922D01*
X100104756Y-96345800D01*
X100172230Y-96116551D01*
X100332105Y-96010029D01*
X100441523Y-96023028D01*
X100591214Y-96152140D01*
X100578850Y-96307810D01*
X100433400Y-96402764D01*
X100327939Y-96439011D01*
X100417307Y-96451996D01*
X100458800Y-96452993D01*
X100693204Y-96431592D01*
X100789000Y-96405512D01*
X100907057Y-96273734D01*
X100916000Y-96221203D01*
X100995212Y-96067776D01*
X101190272Y-96019782D01*
X101437322Y-96087811D01*
X101499978Y-96124353D01*
X101727698Y-96225667D01*
X101857526Y-96181514D01*
X101867308Y-96054122D01*
X101744481Y-95891264D01*
X101541654Y-95741050D01*
X101311436Y-95651588D01*
X101271600Y-95645696D01*
X100539063Y-95579024D01*
X99956114Y-95545506D01*
X99535264Y-95545120D01*
X99289028Y-95577842D01*
X99229916Y-95643651D01*
X99233021Y-95649353D01*
X99206843Y-95757591D01*
X99142618Y-95796569D01*
X98995332Y-95763658D01*
X98933155Y-95654815D01*
X98819662Y-95492838D01*
X98724754Y-95456800D01*
X98594914Y-95513804D01*
X98594914Y-95513804D01*
G37*
X98594914Y-95513804D02*
X98608664Y-95632789D01*
X98737440Y-95727099D01*
X98849545Y-95841169D01*
X98847080Y-95914466D01*
X98892726Y-96041567D01*
X99064543Y-96162335D01*
X99235474Y-96260987D01*
X99231936Y-96340235D01*
X99183502Y-96376624D01*
X99166078Y-96434084D01*
X99342128Y-96464901D01*
X99569800Y-96471244D01*
X99927631Y-96449761D01*
X100092027Y-96381922D01*
X100104756Y-96345800D01*
X100172230Y-96116551D01*
X100332105Y-96010029D01*
X100441523Y-96023028D01*
X100591214Y-96152140D01*
X100578850Y-96307810D01*
X100433400Y-96402764D01*
X100327939Y-96439011D01*
X100417307Y-96451996D01*
X100458800Y-96452993D01*
X100693204Y-96431592D01*
X100789000Y-96405512D01*
X100907057Y-96273734D01*
X100916000Y-96221203D01*
X100995212Y-96067776D01*
X101190272Y-96019782D01*
X101437322Y-96087811D01*
X101499978Y-96124353D01*
X101727698Y-96225667D01*
X101857526Y-96181514D01*
X101867308Y-96054122D01*
X101744481Y-95891264D01*
X101541654Y-95741050D01*
X101311436Y-95651588D01*
X101271600Y-95645696D01*
X100539063Y-95579024D01*
X99956114Y-95545506D01*
X99535264Y-95545120D01*
X99289028Y-95577842D01*
X99229916Y-95643651D01*
X99233021Y-95649353D01*
X99206843Y-95757591D01*
X99142618Y-95796569D01*
X98995332Y-95763658D01*
X98933155Y-95654815D01*
X98819662Y-95492838D01*
X98724754Y-95456800D01*
X98594914Y-95513804D01*
G36*
X98535058Y-96095925D02*
G01*
X98431929Y-96234115D01*
X98355253Y-96411238D01*
X98347373Y-96544743D01*
X98442352Y-96669703D01*
X98539399Y-96607227D01*
X98609184Y-96396600D01*
X98634708Y-96179182D01*
X98619979Y-96073816D01*
X98535058Y-96095925D01*
X98535058Y-96095925D01*
G37*
X98535058Y-96095925D02*
X98431929Y-96234115D01*
X98355253Y-96411238D01*
X98347373Y-96544743D01*
X98442352Y-96669703D01*
X98539399Y-96607227D01*
X98609184Y-96396600D01*
X98634708Y-96179182D01*
X98619979Y-96073816D01*
X98535058Y-96095925D01*
G36*
X97672651Y-96534397D02*
G01*
X97654789Y-96599800D01*
X97638690Y-96948704D01*
X97677662Y-97192157D01*
X97801467Y-97408298D01*
X98039865Y-97675264D01*
X98080460Y-97717400D01*
X98401143Y-98020878D01*
X98627867Y-98174238D01*
X98751211Y-98173276D01*
X98763412Y-98022200D01*
X98647462Y-97868630D01*
X98501963Y-97811933D01*
X98319080Y-97719605D01*
X98280732Y-97563365D01*
X98386739Y-97431363D01*
X98403762Y-97320864D01*
X98375106Y-97285600D01*
X98172800Y-97285600D01*
X98095485Y-97384247D01*
X98071200Y-97387200D01*
X97972553Y-97309884D01*
X97969600Y-97285600D01*
X98046916Y-97186952D01*
X98071200Y-97184000D01*
X98169848Y-97261315D01*
X98172800Y-97285600D01*
X98375106Y-97285600D01*
X98248247Y-97129493D01*
X98234339Y-97116455D01*
X98054483Y-96896359D01*
X97970432Y-96688457D01*
X97969600Y-96671888D01*
X97907650Y-96524565D01*
X97779712Y-96472104D01*
X97672651Y-96534397D01*
X97672651Y-96534397D01*
G37*
X97672651Y-96534397D02*
X97654789Y-96599800D01*
X97638690Y-96948704D01*
X97677662Y-97192157D01*
X97801467Y-97408298D01*
X98039865Y-97675264D01*
X98080460Y-97717400D01*
X98401143Y-98020878D01*
X98627867Y-98174238D01*
X98751211Y-98173276D01*
X98763412Y-98022200D01*
X98647462Y-97868630D01*
X98501963Y-97811933D01*
X98319080Y-97719605D01*
X98280732Y-97563365D01*
X98386739Y-97431363D01*
X98403762Y-97320864D01*
X98375106Y-97285600D01*
X98172800Y-97285600D01*
X98095485Y-97384247D01*
X98071200Y-97387200D01*
X97972553Y-97309884D01*
X97969600Y-97285600D01*
X98046916Y-97186952D01*
X98071200Y-97184000D01*
X98169848Y-97261315D01*
X98172800Y-97285600D01*
X98375106Y-97285600D01*
X98248247Y-97129493D01*
X98234339Y-97116455D01*
X98054483Y-96896359D01*
X97970432Y-96688457D01*
X97969600Y-96671888D01*
X97907650Y-96524565D01*
X97779712Y-96472104D01*
X97672651Y-96534397D01*
G36*
X104689821Y-97969032D02*
G01*
X104675200Y-98041603D01*
X104728246Y-98180614D01*
X104776800Y-98200000D01*
X104875492Y-98127078D01*
X104878400Y-98104396D01*
X104804548Y-97966795D01*
X104776800Y-97946000D01*
X104689821Y-97969032D01*
X104689821Y-97969032D01*
G37*
X104689821Y-97969032D02*
X104675200Y-98041603D01*
X104728246Y-98180614D01*
X104776800Y-98200000D01*
X104875492Y-98127078D01*
X104878400Y-98104396D01*
X104804548Y-97966795D01*
X104776800Y-97946000D01*
X104689821Y-97969032D01*
G36*
X101856159Y-96407227D02*
G01*
X101584183Y-96439119D01*
X101465778Y-96530121D01*
X101450191Y-96597558D01*
X101494804Y-96754116D01*
X101557315Y-96787727D01*
X101570109Y-96816839D01*
X101444905Y-96863927D01*
X101285149Y-96928344D01*
X101293531Y-97028171D01*
X101368955Y-97133200D01*
X101526099Y-97336400D01*
X101462549Y-97133200D01*
X101428763Y-97003482D01*
X101472977Y-97032358D01*
X101563878Y-97150344D01*
X101662945Y-97375906D01*
X101647852Y-97578896D01*
X101528424Y-97687918D01*
X101489330Y-97692201D01*
X101401491Y-97780853D01*
X101352101Y-97994068D01*
X101351891Y-97997001D01*
X101369663Y-98223613D01*
X101442512Y-98300571D01*
X101538104Y-98204492D01*
X101562342Y-98149200D01*
X101691169Y-98014155D01*
X101763971Y-97996800D01*
X101967399Y-97912795D01*
X102108390Y-97654406D01*
X102191372Y-97212069D01*
X102205555Y-97042985D01*
X102248566Y-96396938D01*
X101856159Y-96407227D01*
X101856159Y-96407227D01*
G37*
X101856159Y-96407227D02*
X101584183Y-96439119D01*
X101465778Y-96530121D01*
X101450191Y-96597558D01*
X101494804Y-96754116D01*
X101557315Y-96787727D01*
X101570109Y-96816839D01*
X101444905Y-96863927D01*
X101285149Y-96928344D01*
X101293531Y-97028171D01*
X101368955Y-97133200D01*
X101526099Y-97336400D01*
X101462549Y-97133200D01*
X101428763Y-97003482D01*
X101472977Y-97032358D01*
X101563878Y-97150344D01*
X101662945Y-97375906D01*
X101647852Y-97578896D01*
X101528424Y-97687918D01*
X101489330Y-97692201D01*
X101401491Y-97780853D01*
X101352101Y-97994068D01*
X101351891Y-97997001D01*
X101369663Y-98223613D01*
X101442512Y-98300571D01*
X101538104Y-98204492D01*
X101562342Y-98149200D01*
X101691169Y-98014155D01*
X101763971Y-97996800D01*
X101967399Y-97912795D01*
X102108390Y-97654406D01*
X102191372Y-97212069D01*
X102205555Y-97042985D01*
X102248566Y-96396938D01*
X101856159Y-96407227D01*
G36*
X99351133Y-98071533D02*
G01*
X99287490Y-98239795D01*
X99380205Y-98375180D01*
X99493600Y-98403200D01*
X99658381Y-98344236D01*
X99696800Y-98261670D01*
X99623239Y-98116687D01*
X99469918Y-98040112D01*
X99351133Y-98071533D01*
X99351133Y-98071533D01*
G37*
X99351133Y-98071533D02*
X99287490Y-98239795D01*
X99380205Y-98375180D01*
X99493600Y-98403200D01*
X99658381Y-98344236D01*
X99696800Y-98261670D01*
X99623239Y-98116687D01*
X99469918Y-98040112D01*
X99351133Y-98071533D01*
G36*
X104889274Y-95911753D02*
G01*
X104797120Y-95985120D01*
X104651963Y-96051701D01*
X104563321Y-95995160D01*
X104389548Y-95942258D01*
X104133519Y-95973798D01*
X103886492Y-96068472D01*
X103750287Y-96185010D01*
X103650802Y-96255917D01*
X103528024Y-96185614D01*
X103380436Y-96122072D01*
X103247414Y-96225290D01*
X103164847Y-96369395D01*
X103239902Y-96464787D01*
X103245430Y-96468244D01*
X103323874Y-96547808D01*
X103249728Y-96592357D01*
X103173641Y-96668986D01*
X103232195Y-96840594D01*
X103238231Y-96851977D01*
X103325921Y-97119262D01*
X103354400Y-97368080D01*
X103403002Y-97627537D01*
X103505682Y-97792671D01*
X103607035Y-97934461D01*
X103603127Y-98005333D01*
X103646458Y-98089868D01*
X103807445Y-98157235D01*
X103999585Y-98235707D01*
X104065600Y-98312614D01*
X104150792Y-98386244D01*
X104268800Y-98403200D01*
X104434186Y-98386711D01*
X104472000Y-98364013D01*
X104433038Y-98247909D01*
X104343330Y-98075035D01*
X104243641Y-97914299D01*
X104174738Y-97834610D01*
X104164595Y-97844400D01*
X104112550Y-97855098D01*
X104013757Y-97751772D01*
X103916745Y-97489231D01*
X103925648Y-97322975D01*
X103903992Y-97045876D01*
X103822062Y-96925947D01*
X103715635Y-96741738D01*
X103764577Y-96567344D01*
X103902578Y-96409491D01*
X104000665Y-96371200D01*
X104169615Y-96447354D01*
X104367886Y-96626457D01*
X104524968Y-96834472D01*
X104573600Y-96972818D01*
X104645115Y-97057564D01*
X104734310Y-97042470D01*
X104924067Y-96987766D01*
X104982476Y-96980800D01*
X105038987Y-96899107D01*
X105034024Y-96794340D01*
X105047738Y-96548016D01*
X105170825Y-96406306D01*
X105333438Y-96407111D01*
X105451238Y-96516688D01*
X105445230Y-96740577D01*
X105441664Y-96757277D01*
X105416526Y-96947387D01*
X105489438Y-97028700D01*
X105710787Y-97051280D01*
X105738373Y-97052105D01*
X105979075Y-97042283D01*
X106078588Y-96963929D01*
X106097600Y-96784767D01*
X106049490Y-96573630D01*
X105880458Y-96367867D01*
X105649191Y-96185223D01*
X105307748Y-95963545D01*
X105068352Y-95875655D01*
X104889274Y-95911753D01*
X104889274Y-95911753D01*
G37*
X104889274Y-95911753D02*
X104797120Y-95985120D01*
X104651963Y-96051701D01*
X104563321Y-95995160D01*
X104389548Y-95942258D01*
X104133519Y-95973798D01*
X103886492Y-96068472D01*
X103750287Y-96185010D01*
X103650802Y-96255917D01*
X103528024Y-96185614D01*
X103380436Y-96122072D01*
X103247414Y-96225290D01*
X103164847Y-96369395D01*
X103239902Y-96464787D01*
X103245430Y-96468244D01*
X103323874Y-96547808D01*
X103249728Y-96592357D01*
X103173641Y-96668986D01*
X103232195Y-96840594D01*
X103238231Y-96851977D01*
X103325921Y-97119262D01*
X103354400Y-97368080D01*
X103403002Y-97627537D01*
X103505682Y-97792671D01*
X103607035Y-97934461D01*
X103603127Y-98005333D01*
X103646458Y-98089868D01*
X103807445Y-98157235D01*
X103999585Y-98235707D01*
X104065600Y-98312614D01*
X104150792Y-98386244D01*
X104268800Y-98403200D01*
X104434186Y-98386711D01*
X104472000Y-98364013D01*
X104433038Y-98247909D01*
X104343330Y-98075035D01*
X104243641Y-97914299D01*
X104174738Y-97834610D01*
X104164595Y-97844400D01*
X104112550Y-97855098D01*
X104013757Y-97751772D01*
X103916745Y-97489231D01*
X103925648Y-97322975D01*
X103903992Y-97045876D01*
X103822062Y-96925947D01*
X103715635Y-96741738D01*
X103764577Y-96567344D01*
X103902578Y-96409491D01*
X104000665Y-96371200D01*
X104169615Y-96447354D01*
X104367886Y-96626457D01*
X104524968Y-96834472D01*
X104573600Y-96972818D01*
X104645115Y-97057564D01*
X104734310Y-97042470D01*
X104924067Y-96987766D01*
X104982476Y-96980800D01*
X105038987Y-96899107D01*
X105034024Y-96794340D01*
X105047738Y-96548016D01*
X105170825Y-96406306D01*
X105333438Y-96407111D01*
X105451238Y-96516688D01*
X105445230Y-96740577D01*
X105441664Y-96757277D01*
X105416526Y-96947387D01*
X105489438Y-97028700D01*
X105710787Y-97051280D01*
X105738373Y-97052105D01*
X105979075Y-97042283D01*
X106078588Y-96963929D01*
X106097600Y-96784767D01*
X106049490Y-96573630D01*
X105880458Y-96367867D01*
X105649191Y-96185223D01*
X105307748Y-95963545D01*
X105068352Y-95875655D01*
X104889274Y-95911753D01*
G36*
X98886953Y-98378915D02*
G01*
X98884000Y-98403200D01*
X98961316Y-98501847D01*
X98985600Y-98504800D01*
X99084248Y-98427484D01*
X99087200Y-98403200D01*
X99009885Y-98304552D01*
X98985600Y-98301600D01*
X98886953Y-98378915D01*
X98886953Y-98378915D01*
G37*
X98886953Y-98378915D02*
X98884000Y-98403200D01*
X98961316Y-98501847D01*
X98985600Y-98504800D01*
X99084248Y-98427484D01*
X99087200Y-98403200D01*
X99009885Y-98304552D01*
X98985600Y-98301600D01*
X98886953Y-98378915D01*
G36*
X99815547Y-98251679D02*
G01*
X99798400Y-98295603D01*
X99865625Y-98428275D01*
X99995931Y-98460046D01*
X100038229Y-98434304D01*
X100100035Y-98286820D01*
X99991290Y-98202948D01*
X99950800Y-98200000D01*
X99815547Y-98251679D01*
X99815547Y-98251679D01*
G37*
X99815547Y-98251679D02*
X99798400Y-98295603D01*
X99865625Y-98428275D01*
X99995931Y-98460046D01*
X100038229Y-98434304D01*
X100100035Y-98286820D01*
X99991290Y-98202948D01*
X99950800Y-98200000D01*
X99815547Y-98251679D01*
G36*
X100309353Y-98480515D02*
G01*
X100306400Y-98504800D01*
X100383716Y-98603447D01*
X100408000Y-98606400D01*
X100506648Y-98529084D01*
X100509600Y-98504800D01*
X100432285Y-98406152D01*
X100408000Y-98403200D01*
X100309353Y-98480515D01*
X100309353Y-98480515D01*
G37*
X100309353Y-98480515D02*
X100306400Y-98504800D01*
X100383716Y-98603447D01*
X100408000Y-98606400D01*
X100506648Y-98529084D01*
X100509600Y-98504800D01*
X100432285Y-98406152D01*
X100408000Y-98403200D01*
X100309353Y-98480515D01*
G36*
X100476915Y-98077535D02*
G01*
X100408000Y-98166796D01*
X100489120Y-98287689D01*
X100553143Y-98301600D01*
X100738024Y-98368516D01*
X100857943Y-98461257D01*
X100975582Y-98557357D01*
X101014466Y-98487544D01*
X101017600Y-98371188D01*
X100974417Y-98182678D01*
X100806454Y-98093820D01*
X100712800Y-98076727D01*
X100476915Y-98077535D01*
X100476915Y-98077535D01*
G37*
X100476915Y-98077535D02*
X100408000Y-98166796D01*
X100489120Y-98287689D01*
X100553143Y-98301600D01*
X100738024Y-98368516D01*
X100857943Y-98461257D01*
X100975582Y-98557357D01*
X101014466Y-98487544D01*
X101017600Y-98371188D01*
X100974417Y-98182678D01*
X100806454Y-98093820D01*
X100712800Y-98076727D01*
X100476915Y-98077535D01*
G36*
X101424000Y-98555600D02*
G01*
X101474800Y-98606400D01*
X101525600Y-98555600D01*
X101474800Y-98504800D01*
X101424000Y-98555600D01*
X101424000Y-98555600D01*
G37*
X101424000Y-98555600D02*
X101474800Y-98606400D01*
X101525600Y-98555600D01*
X101474800Y-98504800D01*
X101424000Y-98555600D01*
G36*
X101627200Y-98555600D02*
G01*
X101678000Y-98606400D01*
X101728800Y-98555600D01*
X101678000Y-98504800D01*
X101627200Y-98555600D01*
X101627200Y-98555600D01*
G37*
X101627200Y-98555600D02*
X101678000Y-98606400D01*
X101728800Y-98555600D01*
X101678000Y-98504800D01*
X101627200Y-98555600D01*
G36*
X104949701Y-98279923D02*
G01*
X104707657Y-98334926D01*
X104581552Y-98411293D01*
X104596868Y-98478168D01*
X104764027Y-98504800D01*
X104980787Y-98537466D01*
X105277538Y-98618353D01*
X105348227Y-98641988D01*
X105627160Y-98718977D01*
X105835162Y-98741193D01*
X105869000Y-98735122D01*
X105985943Y-98608553D01*
X105996000Y-98550322D01*
X105928139Y-98456776D01*
X105826934Y-98474454D01*
X105712336Y-98487645D01*
X105724149Y-98432083D01*
X105698972Y-98336341D01*
X105513019Y-98276723D01*
X105206756Y-98261178D01*
X104949701Y-98279923D01*
X104949701Y-98279923D01*
G37*
X104949701Y-98279923D02*
X104707657Y-98334926D01*
X104581552Y-98411293D01*
X104596868Y-98478168D01*
X104764027Y-98504800D01*
X104980787Y-98537466D01*
X105277538Y-98618353D01*
X105348227Y-98641988D01*
X105627160Y-98718977D01*
X105835162Y-98741193D01*
X105869000Y-98735122D01*
X105985943Y-98608553D01*
X105996000Y-98550322D01*
X105928139Y-98456776D01*
X105826934Y-98474454D01*
X105712336Y-98487645D01*
X105724149Y-98432083D01*
X105698972Y-98336341D01*
X105513019Y-98276723D01*
X105206756Y-98261178D01*
X104949701Y-98279923D01*
G36*
X102370596Y-98688950D02*
G01*
X102358484Y-98847738D01*
X102378617Y-98883683D01*
X102424796Y-98853382D01*
X102431979Y-98750333D01*
X102407167Y-98641922D01*
X102370596Y-98688950D01*
X102370596Y-98688950D01*
G37*
X102370596Y-98688950D02*
X102358484Y-98847738D01*
X102378617Y-98883683D01*
X102424796Y-98853382D01*
X102431979Y-98750333D01*
X102407167Y-98641922D01*
X102370596Y-98688950D01*
G36*
X101356267Y-98945066D02*
G01*
X101344108Y-99065642D01*
X101356267Y-99080533D01*
X101416668Y-99066586D01*
X101424000Y-99012800D01*
X101386827Y-98929171D01*
X101356267Y-98945066D01*
X101356267Y-98945066D01*
G37*
X101356267Y-98945066D02*
X101344108Y-99065642D01*
X101356267Y-99080533D01*
X101416668Y-99066586D01*
X101424000Y-99012800D01*
X101386827Y-98929171D01*
X101356267Y-98945066D01*
G36*
X103671887Y-98504152D02*
G01*
X103530648Y-98788534D01*
X103482523Y-99051033D01*
X103459276Y-99337252D01*
X103486896Y-99475530D01*
X103583698Y-99518504D01*
X103645987Y-99520800D01*
X103813887Y-99467286D01*
X103862367Y-99275005D01*
X103862400Y-99266800D01*
X103805549Y-99057183D01*
X103684600Y-99006359D01*
X103592055Y-98986352D01*
X103684614Y-98929106D01*
X103735400Y-98908033D01*
X103874807Y-98791561D01*
X103960568Y-98619324D01*
X103970162Y-98465702D01*
X103887800Y-98404755D01*
X103671887Y-98504152D01*
X103671887Y-98504152D01*
G37*
X103671887Y-98504152D02*
X103530648Y-98788534D01*
X103482523Y-99051033D01*
X103459276Y-99337252D01*
X103486896Y-99475530D01*
X103583698Y-99518504D01*
X103645987Y-99520800D01*
X103813887Y-99467286D01*
X103862367Y-99275005D01*
X103862400Y-99266800D01*
X103805549Y-99057183D01*
X103684600Y-99006359D01*
X103592055Y-98986352D01*
X103684614Y-98929106D01*
X103735400Y-98908033D01*
X103874807Y-98791561D01*
X103960568Y-98619324D01*
X103970162Y-98465702D01*
X103887800Y-98404755D01*
X103671887Y-98504152D01*
G36*
X102051237Y-99204326D02*
G01*
X101851085Y-99279368D01*
X101756204Y-99387790D01*
X101810555Y-99497504D01*
X101998108Y-99600545D01*
X102249322Y-99676639D01*
X102494654Y-99705510D01*
X102664562Y-99666883D01*
X102677067Y-99656266D01*
X102747453Y-99507247D01*
X102702748Y-99390891D01*
X102593257Y-99382130D01*
X102432162Y-99356115D01*
X102383257Y-99287946D01*
X102259197Y-99202318D01*
X102051237Y-99204326D01*
X102051237Y-99204326D01*
G37*
X102051237Y-99204326D02*
X101851085Y-99279368D01*
X101756204Y-99387790D01*
X101810555Y-99497504D01*
X101998108Y-99600545D01*
X102249322Y-99676639D01*
X102494654Y-99705510D01*
X102664562Y-99666883D01*
X102677067Y-99656266D01*
X102747453Y-99507247D01*
X102702748Y-99390891D01*
X102593257Y-99382130D01*
X102432162Y-99356115D01*
X102383257Y-99287946D01*
X102259197Y-99202318D01*
X102051237Y-99204326D01*
G36*
X102541600Y-99876400D02*
G01*
X102592400Y-99927200D01*
X102643200Y-99876400D01*
X102592400Y-99825600D01*
X102541600Y-99876400D01*
X102541600Y-99876400D01*
G37*
X102541600Y-99876400D02*
X102592400Y-99927200D01*
X102643200Y-99876400D01*
X102592400Y-99825600D01*
X102541600Y-99876400D01*
G36*
X97156800Y-101197200D02*
G01*
X97207600Y-101248000D01*
X97258400Y-101197200D01*
X97207600Y-101146400D01*
X97156800Y-101197200D01*
X97156800Y-101197200D01*
G37*
X97156800Y-101197200D02*
X97207600Y-101248000D01*
X97258400Y-101197200D01*
X97207600Y-101146400D01*
X97156800Y-101197200D01*
G36*
X101627200Y-101705200D02*
G01*
X101678000Y-101756000D01*
X101728800Y-101705200D01*
X101678000Y-101654400D01*
X101627200Y-101705200D01*
X101627200Y-101705200D01*
G37*
X101627200Y-101705200D02*
X101678000Y-101756000D01*
X101728800Y-101705200D01*
X101678000Y-101654400D01*
X101627200Y-101705200D01*
G36*
X103896267Y-101891466D02*
G01*
X103910214Y-101951867D01*
X103964000Y-101959200D01*
X104047629Y-101922026D01*
X104031734Y-101891466D01*
X103911158Y-101879307D01*
X103896267Y-101891466D01*
X103896267Y-101891466D01*
G37*
X103896267Y-101891466D02*
X103910214Y-101951867D01*
X103964000Y-101959200D01*
X104047629Y-101922026D01*
X104031734Y-101891466D01*
X103911158Y-101879307D01*
X103896267Y-101891466D01*
G36*
X103456000Y-102619600D02*
G01*
X103506800Y-102670400D01*
X103557600Y-102619600D01*
X103506800Y-102568800D01*
X103456000Y-102619600D01*
X103456000Y-102619600D01*
G37*
X103456000Y-102619600D02*
X103506800Y-102670400D01*
X103557600Y-102619600D01*
X103506800Y-102568800D01*
X103456000Y-102619600D01*
G36*
X101137253Y-87102817D02*
G01*
X100710188Y-87295014D01*
X100366888Y-87609797D01*
X100201629Y-87901060D01*
X100021547Y-88094779D01*
X99780054Y-88175639D01*
X99311338Y-88264122D01*
X98989048Y-88352155D01*
X98757721Y-88462345D01*
X98561896Y-88617293D01*
X98467875Y-88710433D01*
X98194354Y-88945489D01*
X97931015Y-89044335D01*
X97760650Y-89056000D01*
X97167316Y-89079043D01*
X96739524Y-89154777D01*
X96444172Y-89293105D01*
X96248158Y-89503931D01*
X96244624Y-89509601D01*
X96039218Y-89761759D01*
X95807722Y-89940983D01*
X95787696Y-89950776D01*
X95594213Y-90104188D01*
X95531200Y-90262151D01*
X95464957Y-90450870D01*
X95386687Y-90512114D01*
X95287279Y-90642220D01*
X95291248Y-90755229D01*
X95267164Y-90915818D01*
X95081516Y-91063172D01*
X94986636Y-91111550D01*
X94742896Y-91264592D01*
X94673727Y-91419978D01*
X94680776Y-91463505D01*
X94632934Y-91666144D01*
X94411797Y-91952248D01*
X94317101Y-92048419D01*
X94089822Y-92299818D01*
X93940374Y-92521838D01*
X93905600Y-92626623D01*
X93850372Y-92814737D01*
X93797733Y-92869873D01*
X93680749Y-93011776D01*
X93562927Y-93245449D01*
X93489536Y-93470976D01*
X93485323Y-93559386D01*
X93438116Y-93680803D01*
X93296685Y-93898325D01*
X93185783Y-94045280D01*
X93031748Y-94254558D01*
X92935093Y-94447176D01*
X92880241Y-94682108D01*
X92851616Y-95018327D01*
X92838362Y-95360582D01*
X92805502Y-95897292D01*
X92740209Y-96258974D01*
X92632194Y-96472586D01*
X92471168Y-96565090D01*
X92375156Y-96574400D01*
X92187416Y-96621760D01*
X92130343Y-96671562D01*
X91996798Y-96732559D01*
X91946547Y-96722309D01*
X91819042Y-96769784D01*
X91645702Y-96944172D01*
X91578818Y-97034883D01*
X91430060Y-97280767D01*
X91395738Y-97451613D01*
X91460618Y-97628828D01*
X91465832Y-97638642D01*
X91534912Y-97892530D01*
X91577781Y-98345954D01*
X91594270Y-98996924D01*
X91594425Y-99133905D01*
X91600413Y-99719575D01*
X91622830Y-100130381D01*
X91664420Y-100394201D01*
X91727931Y-100538909D01*
X91733451Y-100545506D01*
X91813281Y-100740119D01*
X91866523Y-101068902D01*
X91891619Y-101465739D01*
X91887010Y-101864514D01*
X91851137Y-102199111D01*
X91782441Y-102403413D01*
X91777405Y-102409888D01*
X91665671Y-102674771D01*
X91631410Y-103054681D01*
X91667658Y-103479820D01*
X91767452Y-103880388D01*
X91923827Y-104186588D01*
X91958773Y-104227714D01*
X92113476Y-104425075D01*
X92178397Y-104572846D01*
X92178400Y-104573481D01*
X92258203Y-104709783D01*
X92305400Y-104736998D01*
X92370002Y-104806600D01*
X92280000Y-104894765D01*
X92182366Y-105007215D01*
X92229267Y-105163153D01*
X92258042Y-105211432D01*
X92336659Y-105409422D01*
X92328246Y-105519332D01*
X92359251Y-105598158D01*
X92460760Y-105616800D01*
X92581944Y-105657313D01*
X92666130Y-105807676D01*
X92735477Y-106111122D01*
X92746156Y-106173642D01*
X92808473Y-106489041D01*
X92871156Y-106636826D01*
X92952836Y-106651762D01*
X92991200Y-106630842D01*
X93092395Y-106535074D01*
X93015244Y-106439427D01*
X92991200Y-106421865D01*
X92890374Y-106340885D01*
X92958827Y-106347559D01*
X92991200Y-106356761D01*
X93106275Y-106486381D01*
X93124473Y-106669296D01*
X93147386Y-106873084D01*
X93278845Y-106937024D01*
X93302273Y-106937600D01*
X93463933Y-106893842D01*
X93499200Y-106836000D01*
X93584295Y-106753451D01*
X93702400Y-106734400D01*
X93867349Y-106785333D01*
X93905600Y-106856319D01*
X93935589Y-106927005D01*
X94027521Y-106856319D01*
X94190038Y-106774092D01*
X94414302Y-106737872D01*
X94617623Y-106751103D01*
X94717311Y-106817232D01*
X94718400Y-106827533D01*
X94638259Y-106941259D01*
X94594021Y-106962126D01*
X94573091Y-107013771D01*
X94674701Y-107057210D01*
X94832361Y-107055684D01*
X94895422Y-106906673D01*
X94901126Y-106852688D01*
X94873349Y-106628848D01*
X94797988Y-106517595D01*
X94725783Y-106410733D01*
X94744288Y-106369846D01*
X94868993Y-106365263D01*
X94960900Y-106420055D01*
X95110120Y-106490870D01*
X95172639Y-106425197D01*
X95136584Y-106275468D01*
X95118691Y-106251492D01*
X94303511Y-106251492D01*
X94212533Y-106425525D01*
X94134200Y-106491368D01*
X93927771Y-106614792D01*
X93826186Y-106576320D01*
X93804000Y-106422342D01*
X93871732Y-106186470D01*
X93092800Y-106186470D01*
X93009836Y-106221986D01*
X92940400Y-106226400D01*
X92805169Y-106173229D01*
X92788000Y-106127988D01*
X92862474Y-106072086D01*
X92940400Y-106088058D01*
X93074082Y-106160172D01*
X93092800Y-106186470D01*
X93871732Y-106186470D01*
X93873590Y-106180001D01*
X93965621Y-106050265D01*
X94103276Y-105945770D01*
X94195995Y-105999362D01*
X94218065Y-106032122D01*
X94303511Y-106251492D01*
X95118691Y-106251492D01*
X95026906Y-106128505D01*
X94860156Y-105891126D01*
X94844107Y-105795709D01*
X93455135Y-105795709D01*
X93355267Y-105811978D01*
X93223490Y-105793299D01*
X93221917Y-105758616D01*
X93357898Y-105734362D01*
X93416650Y-105750595D01*
X93455135Y-105795709D01*
X94844107Y-105795709D01*
X94824300Y-105677961D01*
X94918742Y-105540274D01*
X95034071Y-105515200D01*
X95189937Y-105470475D01*
X95189659Y-105362800D01*
X95203779Y-105231529D01*
X95271923Y-105210400D01*
X95433535Y-105288807D01*
X95463913Y-105337400D01*
X95508641Y-105373037D01*
X95523179Y-105286600D01*
X95551370Y-105135451D01*
X95576193Y-105108800D01*
X95719420Y-105163683D01*
X95962819Y-105302057D01*
X96244745Y-105484510D01*
X96503552Y-105671628D01*
X96648800Y-105794577D01*
X96913244Y-106019082D01*
X97219854Y-106240223D01*
X97250568Y-106259997D01*
X97510107Y-106455295D01*
X97636578Y-106616269D01*
X97614446Y-106715659D01*
X97520867Y-106734400D01*
X97380339Y-106788344D01*
X97360000Y-106839188D01*
X97441556Y-106966238D01*
X97616711Y-107017476D01*
X97781193Y-106963329D01*
X97784937Y-106959703D01*
X97914204Y-106921391D01*
X98124749Y-107001626D01*
X98433478Y-107210378D01*
X98857299Y-107557614D01*
X98979738Y-107664173D01*
X99292023Y-107966232D01*
X99437966Y-108176526D01*
X99439295Y-108264071D01*
X99417609Y-108343782D01*
X99477902Y-108318901D01*
X99577597Y-108328895D01*
X99595200Y-108411650D01*
X99639918Y-108523642D01*
X99804820Y-108505160D01*
X99823800Y-108498840D01*
X100116654Y-108432569D01*
X100306400Y-108414238D01*
X100554310Y-108378276D01*
X100687400Y-108327048D01*
X100877309Y-108299331D01*
X100939938Y-108323993D01*
X101123522Y-108370124D01*
X101391612Y-108373469D01*
X101397138Y-108373005D01*
X101621609Y-108381857D01*
X101727556Y-108441526D01*
X101728800Y-108450626D01*
X101803061Y-108512940D01*
X101882494Y-108497844D01*
X102093933Y-108508462D01*
X102264846Y-108667488D01*
X102338294Y-108920793D01*
X102338400Y-108931240D01*
X102368293Y-109097821D01*
X102498081Y-109158579D01*
X102668600Y-109161014D01*
X102958895Y-109138480D01*
X103176600Y-109102764D01*
X103327243Y-109020603D01*
X103354400Y-108965338D01*
X103278643Y-108918256D01*
X103187825Y-108938298D01*
X103075041Y-108955091D01*
X103111625Y-108844438D01*
X103308113Y-108554281D01*
X103590976Y-108203518D01*
X103928306Y-107824508D01*
X104288191Y-107449613D01*
X104638721Y-107111194D01*
X104947987Y-106841611D01*
X105184077Y-106673226D01*
X105292457Y-106632800D01*
X105475270Y-106549859D01*
X105529133Y-106468957D01*
X105607553Y-106361756D01*
X105738231Y-106426527D01*
X105746378Y-106433233D01*
X105887825Y-106501663D01*
X106017399Y-106405870D01*
X106046745Y-106368475D01*
X106163775Y-106165695D01*
X106195969Y-106048600D01*
X106280227Y-105933733D01*
X106340730Y-105921600D01*
X106491377Y-105837874D01*
X106572860Y-105656830D01*
X106548652Y-105505252D01*
X106564608Y-105368701D01*
X106645606Y-105257480D01*
X106746745Y-105069808D01*
X106742317Y-104952165D01*
X106752265Y-104755082D01*
X106812106Y-104647617D01*
X106877793Y-104471312D01*
X106910868Y-104293096D01*
X102518963Y-104293096D01*
X102464292Y-104383505D01*
X102346473Y-104397600D01*
X102176779Y-104335999D01*
X102136756Y-104169000D01*
X102171049Y-103953588D01*
X102248685Y-103766802D01*
X102336025Y-103677289D01*
X102371808Y-103689342D01*
X102421611Y-103812405D01*
X102482512Y-104046737D01*
X102487005Y-104067400D01*
X102518963Y-104293096D01*
X106910868Y-104293096D01*
X106945386Y-104107109D01*
X107013058Y-103570273D01*
X107021326Y-103483200D01*
X103354400Y-103483200D01*
X103272109Y-103573337D01*
X103202000Y-103584800D01*
X103066794Y-103529938D01*
X103049600Y-103483200D01*
X103131892Y-103393062D01*
X103202000Y-103381600D01*
X103337207Y-103436461D01*
X103354400Y-103483200D01*
X107021326Y-103483200D01*
X107078982Y-102876072D01*
X107113150Y-102417773D01*
X104753595Y-102417773D01*
X104745804Y-102527503D01*
X104634941Y-102624455D01*
X104504471Y-102821238D01*
X104517719Y-102959188D01*
X104517453Y-103165157D01*
X104394013Y-103248223D01*
X104213550Y-103174706D01*
X104093298Y-103108840D01*
X104065600Y-103132869D01*
X104002968Y-103128481D01*
X103849815Y-103010707D01*
X103826232Y-102988945D01*
X103712392Y-102895934D01*
X103578424Y-102832557D01*
X103385172Y-102793036D01*
X103093481Y-102771593D01*
X102664197Y-102762452D01*
X102276832Y-102760323D01*
X101661078Y-102759109D01*
X101219550Y-102761495D01*
X100923272Y-102770410D01*
X100743272Y-102788785D01*
X100650576Y-102819547D01*
X100616210Y-102865627D01*
X100611200Y-102928712D01*
X100667900Y-103020106D01*
X100863273Y-103043669D01*
X101029341Y-103032520D01*
X101306640Y-103022935D01*
X101445462Y-103077874D01*
X101498391Y-103186922D01*
X101601607Y-103347419D01*
X101689850Y-103381600D01*
X101805916Y-103406691D01*
X101804247Y-103505678D01*
X101678895Y-103714129D01*
X101620282Y-103797715D01*
X101420612Y-104030144D01*
X101287435Y-104071361D01*
X101218703Y-103921443D01*
X101209015Y-103813400D01*
X101188552Y-103665681D01*
X101155196Y-103691505D01*
X101153491Y-103697643D01*
X101033015Y-103864831D01*
X100881284Y-103965385D01*
X100579480Y-104003996D01*
X100294773Y-103867692D01*
X100069541Y-103583181D01*
X99996987Y-103408068D01*
X99876286Y-103109695D01*
X99739200Y-102873239D01*
X99718671Y-102847827D01*
X99634449Y-102716139D01*
X99613539Y-102545668D01*
X99653507Y-102272549D01*
X99690241Y-102101223D01*
X99766875Y-101781778D01*
X99839267Y-101616273D01*
X99947237Y-101560281D01*
X100130606Y-101569377D01*
X100163526Y-101573194D01*
X100406397Y-101560074D01*
X100521736Y-101474615D01*
X100477881Y-101351373D01*
X100412438Y-101301542D01*
X100359119Y-101169902D01*
X100376775Y-101081225D01*
X100437698Y-100972530D01*
X100509036Y-101048005D01*
X100527922Y-101081147D01*
X100648837Y-101180560D01*
X100894343Y-101224296D01*
X101178366Y-101226581D01*
X101495503Y-101205691D01*
X101719485Y-101167482D01*
X101786384Y-101135423D01*
X101938034Y-101050482D01*
X102224775Y-100998434D01*
X102580802Y-100981665D01*
X102940308Y-101002562D01*
X103237487Y-101063512D01*
X103284544Y-101081089D01*
X103551019Y-101167742D01*
X103657415Y-101139325D01*
X103659200Y-101125468D01*
X103719312Y-101089984D01*
X103837000Y-101166010D01*
X104060948Y-101319316D01*
X104192600Y-101381768D01*
X104330963Y-101512568D01*
X104365475Y-101706972D01*
X104286379Y-101866969D01*
X104243400Y-101891912D01*
X104206183Y-101936777D01*
X104291858Y-101951178D01*
X104468251Y-102036031D01*
X104641814Y-102225517D01*
X104753595Y-102417773D01*
X107113150Y-102417773D01*
X107141332Y-102039772D01*
X107161049Y-101731352D01*
X107212652Y-101322570D01*
X107331246Y-101012471D01*
X107510867Y-100751531D01*
X107696356Y-100474198D01*
X107809041Y-100222536D01*
X107824801Y-100133410D01*
X107849682Y-99991830D01*
X107961634Y-99936275D01*
X108216618Y-99939959D01*
X108227382Y-99940728D01*
X108648891Y-99890295D01*
X108950811Y-99680476D01*
X109117302Y-99326608D01*
X109142298Y-99083945D01*
X106749770Y-99083945D01*
X106646718Y-99254510D01*
X106587415Y-99312736D01*
X106467390Y-99455305D01*
X106477733Y-99520395D01*
X106484843Y-99520800D01*
X106590695Y-99603197D01*
X106605600Y-99679196D01*
X106552934Y-99782863D01*
X106478600Y-99761293D01*
X106406544Y-99734657D01*
X106474387Y-99836562D01*
X106482056Y-99846070D01*
X106543715Y-99971312D01*
X106532058Y-100147097D01*
X106439455Y-100428281D01*
X106380456Y-100576632D01*
X106226233Y-100914699D01*
X106101344Y-101111740D01*
X106020086Y-101150346D01*
X105996000Y-101044800D01*
X105918685Y-100946152D01*
X105894400Y-100943200D01*
X105805041Y-101000449D01*
X105804832Y-101019400D01*
X105781634Y-101261932D01*
X105615000Y-101369823D01*
X105432725Y-101304213D01*
X105200960Y-101043930D01*
X105133237Y-100945473D01*
X104950536Y-100671023D01*
X104810155Y-100463241D01*
X104761915Y-100394063D01*
X104621708Y-100331379D01*
X104384526Y-100310941D01*
X104121034Y-100264094D01*
X103871845Y-100081820D01*
X103768352Y-99971078D01*
X103543964Y-99729198D01*
X103417360Y-99638506D01*
X103363050Y-99688655D01*
X103354400Y-99802993D01*
X103298038Y-100020361D01*
X103193182Y-100213757D01*
X103091470Y-100415000D01*
X103135521Y-100567383D01*
X103153825Y-100590762D01*
X103217992Y-100722989D01*
X103114454Y-100799465D01*
X102926361Y-100780577D01*
X102897003Y-100759844D01*
X101101638Y-100759844D01*
X101057530Y-100884090D01*
X100957930Y-101028265D01*
X100870812Y-101007479D01*
X100848267Y-100896772D01*
X100928012Y-100731324D01*
X100983734Y-100696760D01*
X101098839Y-100671170D01*
X101101638Y-100759844D01*
X102897003Y-100759844D01*
X102738802Y-100648121D01*
X102644028Y-100469855D01*
X102643200Y-100453327D01*
X102562169Y-100335728D01*
X102490800Y-100296858D01*
X102359975Y-100294746D01*
X102338400Y-100336788D01*
X102266201Y-100432873D01*
X102246312Y-100435200D01*
X102194050Y-100354288D01*
X102207362Y-100232000D01*
X102208237Y-100080140D01*
X102067289Y-100030450D01*
X102002960Y-100028800D01*
X101705113Y-100058104D01*
X101514377Y-100133326D01*
X101477301Y-100235430D01*
X101481113Y-100242213D01*
X101444168Y-100345119D01*
X101300249Y-100440633D01*
X101058094Y-100492805D01*
X100786942Y-100404924D01*
X100766473Y-100394462D01*
X100503647Y-100300820D01*
X100341604Y-100346544D01*
X100178751Y-100408440D01*
X100116820Y-100392817D01*
X99963801Y-100368804D01*
X99809862Y-100423246D01*
X99744181Y-100518116D01*
X99754180Y-100547446D01*
X99714140Y-100616227D01*
X99572826Y-100638400D01*
X99329177Y-100716795D01*
X99188800Y-100841600D01*
X99036153Y-100998402D01*
X98933992Y-101044800D01*
X98837961Y-101139859D01*
X98781268Y-101403519D01*
X98769628Y-101654400D01*
X98749580Y-101874199D01*
X98720517Y-102046044D01*
X98646822Y-102217442D01*
X98489980Y-102227751D01*
X98447593Y-102215642D01*
X98166089Y-102134519D01*
X98015960Y-102095559D01*
X97819062Y-101979426D01*
X97621920Y-101765603D01*
X97609560Y-101747571D01*
X97425068Y-101528373D01*
X97244942Y-101397283D01*
X97233000Y-101392962D01*
X97082799Y-101300556D01*
X97055200Y-101241153D01*
X96972099Y-101158690D01*
X96891930Y-101146400D01*
X96776481Y-101083709D01*
X96786547Y-100995549D01*
X96761428Y-100835833D01*
X96626716Y-100742818D01*
X94510524Y-100742818D01*
X94405045Y-100862026D01*
X94388200Y-100868524D01*
X94204550Y-100863552D01*
X94022686Y-100805366D01*
X93860705Y-100695175D01*
X93820396Y-100520578D01*
X93838499Y-100363574D01*
X93852655Y-100138836D01*
X93815629Y-100030552D01*
X93807147Y-100028800D01*
X93746815Y-99937540D01*
X93683461Y-99703034D01*
X93648107Y-99495400D01*
X93612438Y-99198703D01*
X93599011Y-99005044D01*
X93604942Y-98962000D01*
X93586572Y-98885777D01*
X93512280Y-98732439D01*
X93445955Y-98556873D01*
X93525768Y-98457304D01*
X93647512Y-98404754D01*
X93837791Y-98298451D01*
X93905600Y-98202514D01*
X93990365Y-98116980D01*
X94102005Y-98098400D01*
X94243442Y-98145597D01*
X94289669Y-98321494D01*
X94289609Y-98407924D01*
X94319409Y-98667105D01*
X94398005Y-98834644D01*
X94502778Y-99013239D01*
X94488061Y-99166723D01*
X94388200Y-99219192D01*
X94242735Y-99296801D01*
X94079267Y-99472384D01*
X93967114Y-99673066D01*
X93953838Y-99886009D01*
X94006983Y-100129591D01*
X94113923Y-100411769D01*
X94250372Y-100528213D01*
X94315917Y-100536800D01*
X94474117Y-100603672D01*
X94510524Y-100742818D01*
X96626716Y-100742818D01*
X96597088Y-100722361D01*
X96357186Y-100689936D01*
X96257881Y-100706513D01*
X96090500Y-100714777D01*
X96053099Y-100590629D01*
X96054353Y-100574297D01*
X96061595Y-100347272D01*
X96057999Y-100108825D01*
X94452454Y-100108825D01*
X94410412Y-100130400D01*
X94323087Y-100048059D01*
X94312000Y-99978000D01*
X94333738Y-99842444D01*
X94351930Y-99825600D01*
X94417443Y-99905046D01*
X94450342Y-99978000D01*
X94452454Y-100108825D01*
X96057999Y-100108825D01*
X96056965Y-100040345D01*
X96055298Y-99996553D01*
X96030266Y-99747295D01*
X95964317Y-99655505D01*
X95846530Y-99669857D01*
X95751797Y-99693085D01*
X95689118Y-99668304D01*
X95650440Y-99561841D01*
X95627707Y-99340024D01*
X95612863Y-98969178D01*
X95604290Y-98657200D01*
X95607501Y-98184662D01*
X95633826Y-97670420D01*
X95654621Y-97438000D01*
X95691328Y-97091692D01*
X95718161Y-96820752D01*
X95727735Y-96706432D01*
X95793037Y-96645855D01*
X95997494Y-96621465D01*
X96366933Y-96631315D01*
X96558222Y-96643794D01*
X97021332Y-96664884D01*
X97318524Y-96639575D01*
X97484219Y-96555457D01*
X97552836Y-96400119D01*
X97561645Y-96282014D01*
X97511615Y-96196576D01*
X97331620Y-96184355D01*
X97156800Y-96207015D01*
X96896035Y-96227681D01*
X96758907Y-96195462D01*
X96750400Y-96176292D01*
X96664159Y-96131112D01*
X96427821Y-96173100D01*
X96425395Y-96173794D01*
X96152003Y-96215202D01*
X96005793Y-96137804D01*
X95984776Y-95929674D01*
X96086959Y-95578887D01*
X96259529Y-95180165D01*
X96377050Y-94852583D01*
X96404930Y-94591033D01*
X96395520Y-94544665D01*
X96399427Y-94345991D01*
X96489395Y-94277029D01*
X96628708Y-94152456D01*
X96648800Y-94077904D01*
X96729074Y-93924033D01*
X96845989Y-93834417D01*
X97026278Y-93789296D01*
X97171749Y-93912744D01*
X97183255Y-93928874D01*
X97280938Y-94049364D01*
X97380063Y-94066946D01*
X97547714Y-93976863D01*
X97671867Y-93894224D01*
X97975733Y-93721225D01*
X98272688Y-93598969D01*
X98315273Y-93587173D01*
X98581029Y-93463779D01*
X98646068Y-93413440D01*
X97621021Y-93413440D01*
X97494819Y-93516924D01*
X97285213Y-93489608D01*
X97215910Y-93464729D01*
X97077706Y-93345505D01*
X97074701Y-93203356D01*
X97202675Y-93123032D01*
X97233000Y-93121555D01*
X97470152Y-93170833D01*
X97617013Y-93285145D01*
X97621021Y-93413440D01*
X98646068Y-93413440D01*
X98851382Y-93254531D01*
X98889436Y-93215780D01*
X99054444Y-93025705D01*
X99083139Y-92938316D01*
X98986966Y-92916812D01*
X98982410Y-92916800D01*
X98801689Y-92832025D01*
X98734579Y-92722985D01*
X98614165Y-92533480D01*
X98524533Y-92472174D01*
X98393904Y-92364310D01*
X98401193Y-92248460D01*
X98515960Y-92205599D01*
X98694017Y-92133922D01*
X98782400Y-92053199D01*
X98850407Y-91926955D01*
X98794841Y-91900800D01*
X98688607Y-91842624D01*
X98743530Y-91676591D01*
X98867342Y-91513607D01*
X99037471Y-91373332D01*
X99163289Y-91407928D01*
X99323406Y-91466243D01*
X99456264Y-91365854D01*
X99497254Y-91209003D01*
X99560971Y-91020312D01*
X99712846Y-90779327D01*
X99744235Y-90739534D01*
X99916544Y-90552883D01*
X100037422Y-90511583D01*
X100154725Y-90580601D01*
X100302091Y-90666514D01*
X100397839Y-90596258D01*
X100403373Y-90587486D01*
X100530370Y-90498698D01*
X100756030Y-90418025D01*
X101009989Y-90360869D01*
X101221882Y-90342628D01*
X101321344Y-90378702D01*
X101322400Y-90386352D01*
X101409904Y-90444007D01*
X101601800Y-90460121D01*
X101885793Y-90492280D01*
X102214618Y-90586049D01*
X102504529Y-90712037D01*
X102667045Y-90834000D01*
X102733187Y-90860123D01*
X102743245Y-90801753D01*
X102813441Y-90714728D01*
X102973400Y-90738983D01*
X103162048Y-90819944D01*
X103229004Y-90877641D01*
X103336801Y-90912695D01*
X103564524Y-90908878D01*
X103597481Y-90905357D01*
X103878404Y-90913493D01*
X104060068Y-91041210D01*
X104089637Y-91080622D01*
X104274890Y-91234840D01*
X104406960Y-91231805D01*
X104546892Y-91236178D01*
X104573600Y-91331129D01*
X104658376Y-91466930D01*
X104776800Y-91494400D01*
X104941944Y-91533938D01*
X104980000Y-91588742D01*
X105044709Y-91730934D01*
X105130055Y-91833140D01*
X105246316Y-92040263D01*
X105304065Y-92297585D01*
X105344672Y-92513165D01*
X105441833Y-92569003D01*
X105509611Y-92554341D01*
X105626077Y-92547363D01*
X105679015Y-92655058D01*
X105691200Y-92909953D01*
X105715537Y-93195106D01*
X105796535Y-93314519D01*
X105843600Y-93323200D01*
X105970608Y-93393336D01*
X105984287Y-93537306D01*
X105877091Y-93655448D01*
X105869000Y-93658674D01*
X105820259Y-93734956D01*
X105936809Y-93856015D01*
X106102439Y-94074348D01*
X106154848Y-94248674D01*
X106206330Y-94550546D01*
X106250966Y-94718965D01*
X106259645Y-94928944D01*
X106123190Y-95014585D01*
X105858887Y-94973661D01*
X105504464Y-94815166D01*
X105154540Y-94654404D01*
X104930950Y-94625972D01*
X104875150Y-94648158D01*
X104642148Y-94732831D01*
X104540943Y-94744044D01*
X104317780Y-94814054D01*
X104203486Y-94898000D01*
X104105188Y-95015670D01*
X104160577Y-95049462D01*
X104199873Y-95050400D01*
X104365076Y-95132143D01*
X104404241Y-95195240D01*
X104501739Y-95281723D01*
X104730885Y-95315092D01*
X105027871Y-95308514D01*
X105418258Y-95308855D01*
X105678543Y-95371576D01*
X105821361Y-95461261D01*
X105968328Y-95616093D01*
X105953412Y-95736324D01*
X105922663Y-95771846D01*
X105866574Y-95885989D01*
X105982092Y-95988363D01*
X106024263Y-96010201D01*
X106212629Y-96193583D01*
X106280382Y-96373743D01*
X106327935Y-96633683D01*
X106370093Y-96777600D01*
X106412516Y-96979282D01*
X106440267Y-97288605D01*
X106452580Y-97643481D01*
X106448691Y-97981818D01*
X106427834Y-98241529D01*
X106389590Y-98360317D01*
X106303902Y-98496253D01*
X106336287Y-98647057D01*
X106449626Y-98708000D01*
X106612318Y-98788586D01*
X106704598Y-98906336D01*
X106749770Y-99083945D01*
X109142298Y-99083945D01*
X109145601Y-99051885D01*
X109167474Y-98770441D01*
X109222309Y-98584229D01*
X109247201Y-98555600D01*
X109335814Y-98394017D01*
X109340675Y-98119340D01*
X109269879Y-97799734D01*
X109131521Y-97503362D01*
X109120200Y-97486257D01*
X108908028Y-97220360D01*
X108745706Y-97109457D01*
X108652468Y-97162315D01*
X108637600Y-97266263D01*
X108566234Y-97470948D01*
X108397462Y-97541404D01*
X108199277Y-97461444D01*
X108129600Y-97387200D01*
X107932175Y-97233769D01*
X107795225Y-97240714D01*
X107650358Y-97247707D01*
X107621600Y-97194870D01*
X107692689Y-97087612D01*
X107723200Y-97082400D01*
X107816603Y-97015420D01*
X107804169Y-96875373D01*
X107699483Y-96753595D01*
X107672401Y-96740858D01*
X107614129Y-96666621D01*
X107358580Y-96666621D01*
X107314699Y-96729332D01*
X107122928Y-96856064D01*
X106915243Y-96862068D01*
X106779103Y-96745118D01*
X106778271Y-96742986D01*
X106779671Y-96541251D01*
X106810925Y-96469363D01*
X106911293Y-96385706D01*
X107083580Y-96419677D01*
X107167463Y-96455708D01*
X107346985Y-96561900D01*
X107358580Y-96666621D01*
X107614129Y-96666621D01*
X107566191Y-96605551D01*
X107518202Y-96359323D01*
X107528434Y-96085935D01*
X107596886Y-95869148D01*
X107672401Y-95798341D01*
X107787857Y-95662423D01*
X107821911Y-95443355D01*
X107766606Y-95247451D01*
X107717252Y-95199123D01*
X107657853Y-95057905D01*
X107675439Y-94833366D01*
X107684554Y-94545299D01*
X107619221Y-94387132D01*
X107543490Y-94188111D01*
X107556245Y-94086493D01*
X107563911Y-93954630D01*
X107527220Y-93932800D01*
X107495593Y-93837647D01*
X107472561Y-93577763D01*
X107460113Y-93191508D01*
X107460234Y-92717245D01*
X107461168Y-92657399D01*
X107463242Y-92169412D01*
X107453036Y-91759159D01*
X107432416Y-91467087D01*
X107403249Y-91333648D01*
X107399960Y-91330602D01*
X107336537Y-91200595D01*
X107316801Y-91023405D01*
X107243367Y-90839370D01*
X107045573Y-90561512D01*
X106757180Y-90223631D01*
X106411951Y-89859528D01*
X106043645Y-89503002D01*
X105686024Y-89187856D01*
X105372850Y-88947888D01*
X105137885Y-88816901D01*
X105102570Y-88806605D01*
X104820584Y-88694318D01*
X104624401Y-88548000D01*
X104394049Y-88382128D01*
X104157271Y-88291819D01*
X103919621Y-88206664D01*
X103786806Y-88105821D01*
X103619627Y-87939353D01*
X103284100Y-87694487D01*
X102856659Y-87419897D01*
X102632949Y-87316786D01*
X102474571Y-87300248D01*
X102312917Y-87285710D01*
X102068853Y-87193799D01*
X102026235Y-87172591D01*
X101593973Y-87054808D01*
X101137253Y-87102817D01*
X101137253Y-87102817D01*
G37*
X101137253Y-87102817D02*
X100710188Y-87295014D01*
X100366888Y-87609797D01*
X100201629Y-87901060D01*
X100021547Y-88094779D01*
X99780054Y-88175639D01*
X99311338Y-88264122D01*
X98989048Y-88352155D01*
X98757721Y-88462345D01*
X98561896Y-88617293D01*
X98467875Y-88710433D01*
X98194354Y-88945489D01*
X97931015Y-89044335D01*
X97760650Y-89056000D01*
X97167316Y-89079043D01*
X96739524Y-89154777D01*
X96444172Y-89293105D01*
X96248158Y-89503931D01*
X96244624Y-89509601D01*
X96039218Y-89761759D01*
X95807722Y-89940983D01*
X95787696Y-89950776D01*
X95594213Y-90104188D01*
X95531200Y-90262151D01*
X95464957Y-90450870D01*
X95386687Y-90512114D01*
X95287279Y-90642220D01*
X95291248Y-90755229D01*
X95267164Y-90915818D01*
X95081516Y-91063172D01*
X94986636Y-91111550D01*
X94742896Y-91264592D01*
X94673727Y-91419978D01*
X94680776Y-91463505D01*
X94632934Y-91666144D01*
X94411797Y-91952248D01*
X94317101Y-92048419D01*
X94089822Y-92299818D01*
X93940374Y-92521838D01*
X93905600Y-92626623D01*
X93850372Y-92814737D01*
X93797733Y-92869873D01*
X93680749Y-93011776D01*
X93562927Y-93245449D01*
X93489536Y-93470976D01*
X93485323Y-93559386D01*
X93438116Y-93680803D01*
X93296685Y-93898325D01*
X93185783Y-94045280D01*
X93031748Y-94254558D01*
X92935093Y-94447176D01*
X92880241Y-94682108D01*
X92851616Y-95018327D01*
X92838362Y-95360582D01*
X92805502Y-95897292D01*
X92740209Y-96258974D01*
X92632194Y-96472586D01*
X92471168Y-96565090D01*
X92375156Y-96574400D01*
X92187416Y-96621760D01*
X92130343Y-96671562D01*
X91996798Y-96732559D01*
X91946547Y-96722309D01*
X91819042Y-96769784D01*
X91645702Y-96944172D01*
X91578818Y-97034883D01*
X91430060Y-97280767D01*
X91395738Y-97451613D01*
X91460618Y-97628828D01*
X91465832Y-97638642D01*
X91534912Y-97892530D01*
X91577781Y-98345954D01*
X91594270Y-98996924D01*
X91594425Y-99133905D01*
X91600413Y-99719575D01*
X91622830Y-100130381D01*
X91664420Y-100394201D01*
X91727931Y-100538909D01*
X91733451Y-100545506D01*
X91813281Y-100740119D01*
X91866523Y-101068902D01*
X91891619Y-101465739D01*
X91887010Y-101864514D01*
X91851137Y-102199111D01*
X91782441Y-102403413D01*
X91777405Y-102409888D01*
X91665671Y-102674771D01*
X91631410Y-103054681D01*
X91667658Y-103479820D01*
X91767452Y-103880388D01*
X91923827Y-104186588D01*
X91958773Y-104227714D01*
X92113476Y-104425075D01*
X92178397Y-104572846D01*
X92178400Y-104573481D01*
X92258203Y-104709783D01*
X92305400Y-104736998D01*
X92370002Y-104806600D01*
X92280000Y-104894765D01*
X92182366Y-105007215D01*
X92229267Y-105163153D01*
X92258042Y-105211432D01*
X92336659Y-105409422D01*
X92328246Y-105519332D01*
X92359251Y-105598158D01*
X92460760Y-105616800D01*
X92581944Y-105657313D01*
X92666130Y-105807676D01*
X92735477Y-106111122D01*
X92746156Y-106173642D01*
X92808473Y-106489041D01*
X92871156Y-106636826D01*
X92952836Y-106651762D01*
X92991200Y-106630842D01*
X93092395Y-106535074D01*
X93015244Y-106439427D01*
X92991200Y-106421865D01*
X92890374Y-106340885D01*
X92958827Y-106347559D01*
X92991200Y-106356761D01*
X93106275Y-106486381D01*
X93124473Y-106669296D01*
X93147386Y-106873084D01*
X93278845Y-106937024D01*
X93302273Y-106937600D01*
X93463933Y-106893842D01*
X93499200Y-106836000D01*
X93584295Y-106753451D01*
X93702400Y-106734400D01*
X93867349Y-106785333D01*
X93905600Y-106856319D01*
X93935589Y-106927005D01*
X94027521Y-106856319D01*
X94190038Y-106774092D01*
X94414302Y-106737872D01*
X94617623Y-106751103D01*
X94717311Y-106817232D01*
X94718400Y-106827533D01*
X94638259Y-106941259D01*
X94594021Y-106962126D01*
X94573091Y-107013771D01*
X94674701Y-107057210D01*
X94832361Y-107055684D01*
X94895422Y-106906673D01*
X94901126Y-106852688D01*
X94873349Y-106628848D01*
X94797988Y-106517595D01*
X94725783Y-106410733D01*
X94744288Y-106369846D01*
X94868993Y-106365263D01*
X94960900Y-106420055D01*
X95110120Y-106490870D01*
X95172639Y-106425197D01*
X95136584Y-106275468D01*
X95118691Y-106251492D01*
X94303511Y-106251492D01*
X94212533Y-106425525D01*
X94134200Y-106491368D01*
X93927771Y-106614792D01*
X93826186Y-106576320D01*
X93804000Y-106422342D01*
X93871732Y-106186470D01*
X93092800Y-106186470D01*
X93009836Y-106221986D01*
X92940400Y-106226400D01*
X92805169Y-106173229D01*
X92788000Y-106127988D01*
X92862474Y-106072086D01*
X92940400Y-106088058D01*
X93074082Y-106160172D01*
X93092800Y-106186470D01*
X93871732Y-106186470D01*
X93873590Y-106180001D01*
X93965621Y-106050265D01*
X94103276Y-105945770D01*
X94195995Y-105999362D01*
X94218065Y-106032122D01*
X94303511Y-106251492D01*
X95118691Y-106251492D01*
X95026906Y-106128505D01*
X94860156Y-105891126D01*
X94844107Y-105795709D01*
X93455135Y-105795709D01*
X93355267Y-105811978D01*
X93223490Y-105793299D01*
X93221917Y-105758616D01*
X93357898Y-105734362D01*
X93416650Y-105750595D01*
X93455135Y-105795709D01*
X94844107Y-105795709D01*
X94824300Y-105677961D01*
X94918742Y-105540274D01*
X95034071Y-105515200D01*
X95189937Y-105470475D01*
X95189659Y-105362800D01*
X95203779Y-105231529D01*
X95271923Y-105210400D01*
X95433535Y-105288807D01*
X95463913Y-105337400D01*
X95508641Y-105373037D01*
X95523179Y-105286600D01*
X95551370Y-105135451D01*
X95576193Y-105108800D01*
X95719420Y-105163683D01*
X95962819Y-105302057D01*
X96244745Y-105484510D01*
X96503552Y-105671628D01*
X96648800Y-105794577D01*
X96913244Y-106019082D01*
X97219854Y-106240223D01*
X97250568Y-106259997D01*
X97510107Y-106455295D01*
X97636578Y-106616269D01*
X97614446Y-106715659D01*
X97520867Y-106734400D01*
X97380339Y-106788344D01*
X97360000Y-106839188D01*
X97441556Y-106966238D01*
X97616711Y-107017476D01*
X97781193Y-106963329D01*
X97784937Y-106959703D01*
X97914204Y-106921391D01*
X98124749Y-107001626D01*
X98433478Y-107210378D01*
X98857299Y-107557614D01*
X98979738Y-107664173D01*
X99292023Y-107966232D01*
X99437966Y-108176526D01*
X99439295Y-108264071D01*
X99417609Y-108343782D01*
X99477902Y-108318901D01*
X99577597Y-108328895D01*
X99595200Y-108411650D01*
X99639918Y-108523642D01*
X99804820Y-108505160D01*
X99823800Y-108498840D01*
X100116654Y-108432569D01*
X100306400Y-108414238D01*
X100554310Y-108378276D01*
X100687400Y-108327048D01*
X100877309Y-108299331D01*
X100939938Y-108323993D01*
X101123522Y-108370124D01*
X101391612Y-108373469D01*
X101397138Y-108373005D01*
X101621609Y-108381857D01*
X101727556Y-108441526D01*
X101728800Y-108450626D01*
X101803061Y-108512940D01*
X101882494Y-108497844D01*
X102093933Y-108508462D01*
X102264846Y-108667488D01*
X102338294Y-108920793D01*
X102338400Y-108931240D01*
X102368293Y-109097821D01*
X102498081Y-109158579D01*
X102668600Y-109161014D01*
X102958895Y-109138480D01*
X103176600Y-109102764D01*
X103327243Y-109020603D01*
X103354400Y-108965338D01*
X103278643Y-108918256D01*
X103187825Y-108938298D01*
X103075041Y-108955091D01*
X103111625Y-108844438D01*
X103308113Y-108554281D01*
X103590976Y-108203518D01*
X103928306Y-107824508D01*
X104288191Y-107449613D01*
X104638721Y-107111194D01*
X104947987Y-106841611D01*
X105184077Y-106673226D01*
X105292457Y-106632800D01*
X105475270Y-106549859D01*
X105529133Y-106468957D01*
X105607553Y-106361756D01*
X105738231Y-106426527D01*
X105746378Y-106433233D01*
X105887825Y-106501663D01*
X106017399Y-106405870D01*
X106046745Y-106368475D01*
X106163775Y-106165695D01*
X106195969Y-106048600D01*
X106280227Y-105933733D01*
X106340730Y-105921600D01*
X106491377Y-105837874D01*
X106572860Y-105656830D01*
X106548652Y-105505252D01*
X106564608Y-105368701D01*
X106645606Y-105257480D01*
X106746745Y-105069808D01*
X106742317Y-104952165D01*
X106752265Y-104755082D01*
X106812106Y-104647617D01*
X106877793Y-104471312D01*
X106910868Y-104293096D01*
X102518963Y-104293096D01*
X102464292Y-104383505D01*
X102346473Y-104397600D01*
X102176779Y-104335999D01*
X102136756Y-104169000D01*
X102171049Y-103953588D01*
X102248685Y-103766802D01*
X102336025Y-103677289D01*
X102371808Y-103689342D01*
X102421611Y-103812405D01*
X102482512Y-104046737D01*
X102487005Y-104067400D01*
X102518963Y-104293096D01*
X106910868Y-104293096D01*
X106945386Y-104107109D01*
X107013058Y-103570273D01*
X107021326Y-103483200D01*
X103354400Y-103483200D01*
X103272109Y-103573337D01*
X103202000Y-103584800D01*
X103066794Y-103529938D01*
X103049600Y-103483200D01*
X103131892Y-103393062D01*
X103202000Y-103381600D01*
X103337207Y-103436461D01*
X103354400Y-103483200D01*
X107021326Y-103483200D01*
X107078982Y-102876072D01*
X107113150Y-102417773D01*
X104753595Y-102417773D01*
X104745804Y-102527503D01*
X104634941Y-102624455D01*
X104504471Y-102821238D01*
X104517719Y-102959188D01*
X104517453Y-103165157D01*
X104394013Y-103248223D01*
X104213550Y-103174706D01*
X104093298Y-103108840D01*
X104065600Y-103132869D01*
X104002968Y-103128481D01*
X103849815Y-103010707D01*
X103826232Y-102988945D01*
X103712392Y-102895934D01*
X103578424Y-102832557D01*
X103385172Y-102793036D01*
X103093481Y-102771593D01*
X102664197Y-102762452D01*
X102276832Y-102760323D01*
X101661078Y-102759109D01*
X101219550Y-102761495D01*
X100923272Y-102770410D01*
X100743272Y-102788785D01*
X100650576Y-102819547D01*
X100616210Y-102865627D01*
X100611200Y-102928712D01*
X100667900Y-103020106D01*
X100863273Y-103043669D01*
X101029341Y-103032520D01*
X101306640Y-103022935D01*
X101445462Y-103077874D01*
X101498391Y-103186922D01*
X101601607Y-103347419D01*
X101689850Y-103381600D01*
X101805916Y-103406691D01*
X101804247Y-103505678D01*
X101678895Y-103714129D01*
X101620282Y-103797715D01*
X101420612Y-104030144D01*
X101287435Y-104071361D01*
X101218703Y-103921443D01*
X101209015Y-103813400D01*
X101188552Y-103665681D01*
X101155196Y-103691505D01*
X101153491Y-103697643D01*
X101033015Y-103864831D01*
X100881284Y-103965385D01*
X100579480Y-104003996D01*
X100294773Y-103867692D01*
X100069541Y-103583181D01*
X99996987Y-103408068D01*
X99876286Y-103109695D01*
X99739200Y-102873239D01*
X99718671Y-102847827D01*
X99634449Y-102716139D01*
X99613539Y-102545668D01*
X99653507Y-102272549D01*
X99690241Y-102101223D01*
X99766875Y-101781778D01*
X99839267Y-101616273D01*
X99947237Y-101560281D01*
X100130606Y-101569377D01*
X100163526Y-101573194D01*
X100406397Y-101560074D01*
X100521736Y-101474615D01*
X100477881Y-101351373D01*
X100412438Y-101301542D01*
X100359119Y-101169902D01*
X100376775Y-101081225D01*
X100437698Y-100972530D01*
X100509036Y-101048005D01*
X100527922Y-101081147D01*
X100648837Y-101180560D01*
X100894343Y-101224296D01*
X101178366Y-101226581D01*
X101495503Y-101205691D01*
X101719485Y-101167482D01*
X101786384Y-101135423D01*
X101938034Y-101050482D01*
X102224775Y-100998434D01*
X102580802Y-100981665D01*
X102940308Y-101002562D01*
X103237487Y-101063512D01*
X103284544Y-101081089D01*
X103551019Y-101167742D01*
X103657415Y-101139325D01*
X103659200Y-101125468D01*
X103719312Y-101089984D01*
X103837000Y-101166010D01*
X104060948Y-101319316D01*
X104192600Y-101381768D01*
X104330963Y-101512568D01*
X104365475Y-101706972D01*
X104286379Y-101866969D01*
X104243400Y-101891912D01*
X104206183Y-101936777D01*
X104291858Y-101951178D01*
X104468251Y-102036031D01*
X104641814Y-102225517D01*
X104753595Y-102417773D01*
X107113150Y-102417773D01*
X107141332Y-102039772D01*
X107161049Y-101731352D01*
X107212652Y-101322570D01*
X107331246Y-101012471D01*
X107510867Y-100751531D01*
X107696356Y-100474198D01*
X107809041Y-100222536D01*
X107824801Y-100133410D01*
X107849682Y-99991830D01*
X107961634Y-99936275D01*
X108216618Y-99939959D01*
X108227382Y-99940728D01*
X108648891Y-99890295D01*
X108950811Y-99680476D01*
X109117302Y-99326608D01*
X109142298Y-99083945D01*
X106749770Y-99083945D01*
X106646718Y-99254510D01*
X106587415Y-99312736D01*
X106467390Y-99455305D01*
X106477733Y-99520395D01*
X106484843Y-99520800D01*
X106590695Y-99603197D01*
X106605600Y-99679196D01*
X106552934Y-99782863D01*
X106478600Y-99761293D01*
X106406544Y-99734657D01*
X106474387Y-99836562D01*
X106482056Y-99846070D01*
X106543715Y-99971312D01*
X106532058Y-100147097D01*
X106439455Y-100428281D01*
X106380456Y-100576632D01*
X106226233Y-100914699D01*
X106101344Y-101111740D01*
X106020086Y-101150346D01*
X105996000Y-101044800D01*
X105918685Y-100946152D01*
X105894400Y-100943200D01*
X105805041Y-101000449D01*
X105804832Y-101019400D01*
X105781634Y-101261932D01*
X105615000Y-101369823D01*
X105432725Y-101304213D01*
X105200960Y-101043930D01*
X105133237Y-100945473D01*
X104950536Y-100671023D01*
X104810155Y-100463241D01*
X104761915Y-100394063D01*
X104621708Y-100331379D01*
X104384526Y-100310941D01*
X104121034Y-100264094D01*
X103871845Y-100081820D01*
X103768352Y-99971078D01*
X103543964Y-99729198D01*
X103417360Y-99638506D01*
X103363050Y-99688655D01*
X103354400Y-99802993D01*
X103298038Y-100020361D01*
X103193182Y-100213757D01*
X103091470Y-100415000D01*
X103135521Y-100567383D01*
X103153825Y-100590762D01*
X103217992Y-100722989D01*
X103114454Y-100799465D01*
X102926361Y-100780577D01*
X102897003Y-100759844D01*
X101101638Y-100759844D01*
X101057530Y-100884090D01*
X100957930Y-101028265D01*
X100870812Y-101007479D01*
X100848267Y-100896772D01*
X100928012Y-100731324D01*
X100983734Y-100696760D01*
X101098839Y-100671170D01*
X101101638Y-100759844D01*
X102897003Y-100759844D01*
X102738802Y-100648121D01*
X102644028Y-100469855D01*
X102643200Y-100453327D01*
X102562169Y-100335728D01*
X102490800Y-100296858D01*
X102359975Y-100294746D01*
X102338400Y-100336788D01*
X102266201Y-100432873D01*
X102246312Y-100435200D01*
X102194050Y-100354288D01*
X102207362Y-100232000D01*
X102208237Y-100080140D01*
X102067289Y-100030450D01*
X102002960Y-100028800D01*
X101705113Y-100058104D01*
X101514377Y-100133326D01*
X101477301Y-100235430D01*
X101481113Y-100242213D01*
X101444168Y-100345119D01*
X101300249Y-100440633D01*
X101058094Y-100492805D01*
X100786942Y-100404924D01*
X100766473Y-100394462D01*
X100503647Y-100300820D01*
X100341604Y-100346544D01*
X100178751Y-100408440D01*
X100116820Y-100392817D01*
X99963801Y-100368804D01*
X99809862Y-100423246D01*
X99744181Y-100518116D01*
X99754180Y-100547446D01*
X99714140Y-100616227D01*
X99572826Y-100638400D01*
X99329177Y-100716795D01*
X99188800Y-100841600D01*
X99036153Y-100998402D01*
X98933992Y-101044800D01*
X98837961Y-101139859D01*
X98781268Y-101403519D01*
X98769628Y-101654400D01*
X98749580Y-101874199D01*
X98720517Y-102046044D01*
X98646822Y-102217442D01*
X98489980Y-102227751D01*
X98447593Y-102215642D01*
X98166089Y-102134519D01*
X98015960Y-102095559D01*
X97819062Y-101979426D01*
X97621920Y-101765603D01*
X97609560Y-101747571D01*
X97425068Y-101528373D01*
X97244942Y-101397283D01*
X97233000Y-101392962D01*
X97082799Y-101300556D01*
X97055200Y-101241153D01*
X96972099Y-101158690D01*
X96891930Y-101146400D01*
X96776481Y-101083709D01*
X96786547Y-100995549D01*
X96761428Y-100835833D01*
X96626716Y-100742818D01*
X94510524Y-100742818D01*
X94405045Y-100862026D01*
X94388200Y-100868524D01*
X94204550Y-100863552D01*
X94022686Y-100805366D01*
X93860705Y-100695175D01*
X93820396Y-100520578D01*
X93838499Y-100363574D01*
X93852655Y-100138836D01*
X93815629Y-100030552D01*
X93807147Y-100028800D01*
X93746815Y-99937540D01*
X93683461Y-99703034D01*
X93648107Y-99495400D01*
X93612438Y-99198703D01*
X93599011Y-99005044D01*
X93604942Y-98962000D01*
X93586572Y-98885777D01*
X93512280Y-98732439D01*
X93445955Y-98556873D01*
X93525768Y-98457304D01*
X93647512Y-98404754D01*
X93837791Y-98298451D01*
X93905600Y-98202514D01*
X93990365Y-98116980D01*
X94102005Y-98098400D01*
X94243442Y-98145597D01*
X94289669Y-98321494D01*
X94289609Y-98407924D01*
X94319409Y-98667105D01*
X94398005Y-98834644D01*
X94502778Y-99013239D01*
X94488061Y-99166723D01*
X94388200Y-99219192D01*
X94242735Y-99296801D01*
X94079267Y-99472384D01*
X93967114Y-99673066D01*
X93953838Y-99886009D01*
X94006983Y-100129591D01*
X94113923Y-100411769D01*
X94250372Y-100528213D01*
X94315917Y-100536800D01*
X94474117Y-100603672D01*
X94510524Y-100742818D01*
X96626716Y-100742818D01*
X96597088Y-100722361D01*
X96357186Y-100689936D01*
X96257881Y-100706513D01*
X96090500Y-100714777D01*
X96053099Y-100590629D01*
X96054353Y-100574297D01*
X96061595Y-100347272D01*
X96057999Y-100108825D01*
X94452454Y-100108825D01*
X94410412Y-100130400D01*
X94323087Y-100048059D01*
X94312000Y-99978000D01*
X94333738Y-99842444D01*
X94351930Y-99825600D01*
X94417443Y-99905046D01*
X94450342Y-99978000D01*
X94452454Y-100108825D01*
X96057999Y-100108825D01*
X96056965Y-100040345D01*
X96055298Y-99996553D01*
X96030266Y-99747295D01*
X95964317Y-99655505D01*
X95846530Y-99669857D01*
X95751797Y-99693085D01*
X95689118Y-99668304D01*
X95650440Y-99561841D01*
X95627707Y-99340024D01*
X95612863Y-98969178D01*
X95604290Y-98657200D01*
X95607501Y-98184662D01*
X95633826Y-97670420D01*
X95654621Y-97438000D01*
X95691328Y-97091692D01*
X95718161Y-96820752D01*
X95727735Y-96706432D01*
X95793037Y-96645855D01*
X95997494Y-96621465D01*
X96366933Y-96631315D01*
X96558222Y-96643794D01*
X97021332Y-96664884D01*
X97318524Y-96639575D01*
X97484219Y-96555457D01*
X97552836Y-96400119D01*
X97561645Y-96282014D01*
X97511615Y-96196576D01*
X97331620Y-96184355D01*
X97156800Y-96207015D01*
X96896035Y-96227681D01*
X96758907Y-96195462D01*
X96750400Y-96176292D01*
X96664159Y-96131112D01*
X96427821Y-96173100D01*
X96425395Y-96173794D01*
X96152003Y-96215202D01*
X96005793Y-96137804D01*
X95984776Y-95929674D01*
X96086959Y-95578887D01*
X96259529Y-95180165D01*
X96377050Y-94852583D01*
X96404930Y-94591033D01*
X96395520Y-94544665D01*
X96399427Y-94345991D01*
X96489395Y-94277029D01*
X96628708Y-94152456D01*
X96648800Y-94077904D01*
X96729074Y-93924033D01*
X96845989Y-93834417D01*
X97026278Y-93789296D01*
X97171749Y-93912744D01*
X97183255Y-93928874D01*
X97280938Y-94049364D01*
X97380063Y-94066946D01*
X97547714Y-93976863D01*
X97671867Y-93894224D01*
X97975733Y-93721225D01*
X98272688Y-93598969D01*
X98315273Y-93587173D01*
X98581029Y-93463779D01*
X98646068Y-93413440D01*
X97621021Y-93413440D01*
X97494819Y-93516924D01*
X97285213Y-93489608D01*
X97215910Y-93464729D01*
X97077706Y-93345505D01*
X97074701Y-93203356D01*
X97202675Y-93123032D01*
X97233000Y-93121555D01*
X97470152Y-93170833D01*
X97617013Y-93285145D01*
X97621021Y-93413440D01*
X98646068Y-93413440D01*
X98851382Y-93254531D01*
X98889436Y-93215780D01*
X99054444Y-93025705D01*
X99083139Y-92938316D01*
X98986966Y-92916812D01*
X98982410Y-92916800D01*
X98801689Y-92832025D01*
X98734579Y-92722985D01*
X98614165Y-92533480D01*
X98524533Y-92472174D01*
X98393904Y-92364310D01*
X98401193Y-92248460D01*
X98515960Y-92205599D01*
X98694017Y-92133922D01*
X98782400Y-92053199D01*
X98850407Y-91926955D01*
X98794841Y-91900800D01*
X98688607Y-91842624D01*
X98743530Y-91676591D01*
X98867342Y-91513607D01*
X99037471Y-91373332D01*
X99163289Y-91407928D01*
X99323406Y-91466243D01*
X99456264Y-91365854D01*
X99497254Y-91209003D01*
X99560971Y-91020312D01*
X99712846Y-90779327D01*
X99744235Y-90739534D01*
X99916544Y-90552883D01*
X100037422Y-90511583D01*
X100154725Y-90580601D01*
X100302091Y-90666514D01*
X100397839Y-90596258D01*
X100403373Y-90587486D01*
X100530370Y-90498698D01*
X100756030Y-90418025D01*
X101009989Y-90360869D01*
X101221882Y-90342628D01*
X101321344Y-90378702D01*
X101322400Y-90386352D01*
X101409904Y-90444007D01*
X101601800Y-90460121D01*
X101885793Y-90492280D01*
X102214618Y-90586049D01*
X102504529Y-90712037D01*
X102667045Y-90834000D01*
X102733187Y-90860123D01*
X102743245Y-90801753D01*
X102813441Y-90714728D01*
X102973400Y-90738983D01*
X103162048Y-90819944D01*
X103229004Y-90877641D01*
X103336801Y-90912695D01*
X103564524Y-90908878D01*
X103597481Y-90905357D01*
X103878404Y-90913493D01*
X104060068Y-91041210D01*
X104089637Y-91080622D01*
X104274890Y-91234840D01*
X104406960Y-91231805D01*
X104546892Y-91236178D01*
X104573600Y-91331129D01*
X104658376Y-91466930D01*
X104776800Y-91494400D01*
X104941944Y-91533938D01*
X104980000Y-91588742D01*
X105044709Y-91730934D01*
X105130055Y-91833140D01*
X105246316Y-92040263D01*
X105304065Y-92297585D01*
X105344672Y-92513165D01*
X105441833Y-92569003D01*
X105509611Y-92554341D01*
X105626077Y-92547363D01*
X105679015Y-92655058D01*
X105691200Y-92909953D01*
X105715537Y-93195106D01*
X105796535Y-93314519D01*
X105843600Y-93323200D01*
X105970608Y-93393336D01*
X105984287Y-93537306D01*
X105877091Y-93655448D01*
X105869000Y-93658674D01*
X105820259Y-93734956D01*
X105936809Y-93856015D01*
X106102439Y-94074348D01*
X106154848Y-94248674D01*
X106206330Y-94550546D01*
X106250966Y-94718965D01*
X106259645Y-94928944D01*
X106123190Y-95014585D01*
X105858887Y-94973661D01*
X105504464Y-94815166D01*
X105154540Y-94654404D01*
X104930950Y-94625972D01*
X104875150Y-94648158D01*
X104642148Y-94732831D01*
X104540943Y-94744044D01*
X104317780Y-94814054D01*
X104203486Y-94898000D01*
X104105188Y-95015670D01*
X104160577Y-95049462D01*
X104199873Y-95050400D01*
X104365076Y-95132143D01*
X104404241Y-95195240D01*
X104501739Y-95281723D01*
X104730885Y-95315092D01*
X105027871Y-95308514D01*
X105418258Y-95308855D01*
X105678543Y-95371576D01*
X105821361Y-95461261D01*
X105968328Y-95616093D01*
X105953412Y-95736324D01*
X105922663Y-95771846D01*
X105866574Y-95885989D01*
X105982092Y-95988363D01*
X106024263Y-96010201D01*
X106212629Y-96193583D01*
X106280382Y-96373743D01*
X106327935Y-96633683D01*
X106370093Y-96777600D01*
X106412516Y-96979282D01*
X106440267Y-97288605D01*
X106452580Y-97643481D01*
X106448691Y-97981818D01*
X106427834Y-98241529D01*
X106389590Y-98360317D01*
X106303902Y-98496253D01*
X106336287Y-98647057D01*
X106449626Y-98708000D01*
X106612318Y-98788586D01*
X106704598Y-98906336D01*
X106749770Y-99083945D01*
X109142298Y-99083945D01*
X109145601Y-99051885D01*
X109167474Y-98770441D01*
X109222309Y-98584229D01*
X109247201Y-98555600D01*
X109335814Y-98394017D01*
X109340675Y-98119340D01*
X109269879Y-97799734D01*
X109131521Y-97503362D01*
X109120200Y-97486257D01*
X108908028Y-97220360D01*
X108745706Y-97109457D01*
X108652468Y-97162315D01*
X108637600Y-97266263D01*
X108566234Y-97470948D01*
X108397462Y-97541404D01*
X108199277Y-97461444D01*
X108129600Y-97387200D01*
X107932175Y-97233769D01*
X107795225Y-97240714D01*
X107650358Y-97247707D01*
X107621600Y-97194870D01*
X107692689Y-97087612D01*
X107723200Y-97082400D01*
X107816603Y-97015420D01*
X107804169Y-96875373D01*
X107699483Y-96753595D01*
X107672401Y-96740858D01*
X107614129Y-96666621D01*
X107358580Y-96666621D01*
X107314699Y-96729332D01*
X107122928Y-96856064D01*
X106915243Y-96862068D01*
X106779103Y-96745118D01*
X106778271Y-96742986D01*
X106779671Y-96541251D01*
X106810925Y-96469363D01*
X106911293Y-96385706D01*
X107083580Y-96419677D01*
X107167463Y-96455708D01*
X107346985Y-96561900D01*
X107358580Y-96666621D01*
X107614129Y-96666621D01*
X107566191Y-96605551D01*
X107518202Y-96359323D01*
X107528434Y-96085935D01*
X107596886Y-95869148D01*
X107672401Y-95798341D01*
X107787857Y-95662423D01*
X107821911Y-95443355D01*
X107766606Y-95247451D01*
X107717252Y-95199123D01*
X107657853Y-95057905D01*
X107675439Y-94833366D01*
X107684554Y-94545299D01*
X107619221Y-94387132D01*
X107543490Y-94188111D01*
X107556245Y-94086493D01*
X107563911Y-93954630D01*
X107527220Y-93932800D01*
X107495593Y-93837647D01*
X107472561Y-93577763D01*
X107460113Y-93191508D01*
X107460234Y-92717245D01*
X107461168Y-92657399D01*
X107463242Y-92169412D01*
X107453036Y-91759159D01*
X107432416Y-91467087D01*
X107403249Y-91333648D01*
X107399960Y-91330602D01*
X107336537Y-91200595D01*
X107316801Y-91023405D01*
X107243367Y-90839370D01*
X107045573Y-90561512D01*
X106757180Y-90223631D01*
X106411951Y-89859528D01*
X106043645Y-89503002D01*
X105686024Y-89187856D01*
X105372850Y-88947888D01*
X105137885Y-88816901D01*
X105102570Y-88806605D01*
X104820584Y-88694318D01*
X104624401Y-88548000D01*
X104394049Y-88382128D01*
X104157271Y-88291819D01*
X103919621Y-88206664D01*
X103786806Y-88105821D01*
X103619627Y-87939353D01*
X103284100Y-87694487D01*
X102856659Y-87419897D01*
X102632949Y-87316786D01*
X102474571Y-87300248D01*
X102312917Y-87285710D01*
X102068853Y-87193799D01*
X102026235Y-87172591D01*
X101593973Y-87054808D01*
X101137253Y-87102817D01*
M02*
