G04 #@! TF.GenerationSoftware,KiCad,Pcbnew,(5.1.2)-2*
G04 #@! TF.CreationDate,2021-04-07T22:12:18-04:00*
G04 #@! TF.ProjectId,Magnetometer_A,4d61676e-6574-46f6-9d65-7465725f412e,rev?*
G04 #@! TF.SameCoordinates,Original*
G04 #@! TF.FileFunction,Legend,Top*
G04 #@! TF.FilePolarity,Positive*
%FSLAX46Y46*%
G04 Gerber Fmt 4.6, Leading zero omitted, Abs format (unit mm)*
G04 Created by KiCad (PCBNEW (5.1.2)-2) date 2021-04-07 22:12:18*
%MOMM*%
%LPD*%
G04 APERTURE LIST*
%ADD10C,0.150000*%
%ADD11C,0.125000*%
%ADD12C,0.120000*%
%ADD13C,0.050000*%
G04 APERTURE END LIST*
D10*
X46571428Y-104828571D02*
X46238095Y-104828571D01*
X46238095Y-105352380D02*
X46238095Y-104352380D01*
X46714285Y-104352380D01*
X47238095Y-105352380D02*
X47142857Y-105304761D01*
X47095238Y-105209523D01*
X47095238Y-104352380D01*
X48047619Y-105352380D02*
X48047619Y-104828571D01*
X48000000Y-104733333D01*
X47904761Y-104685714D01*
X47714285Y-104685714D01*
X47619047Y-104733333D01*
X48047619Y-105304761D02*
X47952380Y-105352380D01*
X47714285Y-105352380D01*
X47619047Y-105304761D01*
X47571428Y-105209523D01*
X47571428Y-105114285D01*
X47619047Y-105019047D01*
X47714285Y-104971428D01*
X47952380Y-104971428D01*
X48047619Y-104923809D01*
X48476190Y-105304761D02*
X48571428Y-105352380D01*
X48761904Y-105352380D01*
X48857142Y-105304761D01*
X48904761Y-105209523D01*
X48904761Y-105161904D01*
X48857142Y-105066666D01*
X48761904Y-105019047D01*
X48619047Y-105019047D01*
X48523809Y-104971428D01*
X48476190Y-104876190D01*
X48476190Y-104828571D01*
X48523809Y-104733333D01*
X48619047Y-104685714D01*
X48761904Y-104685714D01*
X48857142Y-104733333D01*
X49333333Y-105352380D02*
X49333333Y-104352380D01*
X49761904Y-105352380D02*
X49761904Y-104828571D01*
X49714285Y-104733333D01*
X49619047Y-104685714D01*
X49476190Y-104685714D01*
X49380952Y-104733333D01*
X49333333Y-104780952D01*
X116642857Y-98147619D02*
X116642857Y-99147619D01*
X116214285Y-99052380D02*
X116166666Y-99100000D01*
X116071428Y-99147619D01*
X115833333Y-99147619D01*
X115738095Y-99100000D01*
X115690476Y-99052380D01*
X115642857Y-98957142D01*
X115642857Y-98861904D01*
X115690476Y-98719047D01*
X116261904Y-98147619D01*
X115642857Y-98147619D01*
X114642857Y-98242857D02*
X114690476Y-98195238D01*
X114833333Y-98147619D01*
X114928571Y-98147619D01*
X115071428Y-98195238D01*
X115166666Y-98290476D01*
X115214285Y-98385714D01*
X115261904Y-98576190D01*
X115261904Y-98719047D01*
X115214285Y-98909523D01*
X115166666Y-99004761D01*
X115071428Y-99100000D01*
X114928571Y-99147619D01*
X114833333Y-99147619D01*
X114690476Y-99100000D01*
X114642857Y-99052380D01*
X114214285Y-98147619D02*
X114214285Y-98814285D01*
X114214285Y-98719047D02*
X114166666Y-98766666D01*
X114071428Y-98814285D01*
X113928571Y-98814285D01*
X113833333Y-98766666D01*
X113785714Y-98671428D01*
X113785714Y-98147619D01*
X113785714Y-98671428D02*
X113738095Y-98766666D01*
X113642857Y-98814285D01*
X113500000Y-98814285D01*
X113404761Y-98766666D01*
X113357142Y-98671428D01*
X113357142Y-98147619D01*
X115847619Y-87609523D02*
X116847619Y-87609523D01*
X116847619Y-87847619D01*
X116800000Y-87990476D01*
X116704761Y-88085714D01*
X116609523Y-88133333D01*
X116419047Y-88180952D01*
X116276190Y-88180952D01*
X116085714Y-88133333D01*
X115990476Y-88085714D01*
X115895238Y-87990476D01*
X115847619Y-87847619D01*
X115847619Y-87609523D01*
X115847619Y-88609523D02*
X116514285Y-88609523D01*
X116847619Y-88609523D02*
X116800000Y-88561904D01*
X116752380Y-88609523D01*
X116800000Y-88657142D01*
X116847619Y-88609523D01*
X116752380Y-88609523D01*
X116514285Y-89514285D02*
X115704761Y-89514285D01*
X115609523Y-89466666D01*
X115561904Y-89419047D01*
X115514285Y-89323809D01*
X115514285Y-89180952D01*
X115561904Y-89085714D01*
X115895238Y-89514285D02*
X115847619Y-89419047D01*
X115847619Y-89228571D01*
X115895238Y-89133333D01*
X115942857Y-89085714D01*
X116038095Y-89038095D01*
X116323809Y-89038095D01*
X116419047Y-89085714D01*
X116466666Y-89133333D01*
X116514285Y-89228571D01*
X116514285Y-89419047D01*
X116466666Y-89514285D01*
X115847619Y-89990476D02*
X116514285Y-89990476D01*
X116847619Y-89990476D02*
X116800000Y-89942857D01*
X116752380Y-89990476D01*
X116800000Y-90038095D01*
X116847619Y-89990476D01*
X116752380Y-89990476D01*
X116514285Y-90323809D02*
X116514285Y-90704761D01*
X116847619Y-90466666D02*
X115990476Y-90466666D01*
X115895238Y-90514285D01*
X115847619Y-90609523D01*
X115847619Y-90704761D01*
X115847619Y-91466666D02*
X116371428Y-91466666D01*
X116466666Y-91419047D01*
X116514285Y-91323809D01*
X116514285Y-91133333D01*
X116466666Y-91038095D01*
X115895238Y-91466666D02*
X115847619Y-91371428D01*
X115847619Y-91133333D01*
X115895238Y-91038095D01*
X115990476Y-90990476D01*
X116085714Y-90990476D01*
X116180952Y-91038095D01*
X116228571Y-91133333D01*
X116228571Y-91371428D01*
X116276190Y-91466666D01*
X115847619Y-92085714D02*
X115895238Y-91990476D01*
X115990476Y-91942857D01*
X116847619Y-91942857D01*
X116847619Y-79128571D02*
X116038095Y-79128571D01*
X115942857Y-79176190D01*
X115895238Y-79223809D01*
X115847619Y-79319047D01*
X115847619Y-79509523D01*
X115895238Y-79604761D01*
X115942857Y-79652380D01*
X116038095Y-79700000D01*
X116847619Y-79700000D01*
X116133333Y-80128571D02*
X116133333Y-80604761D01*
X115847619Y-80033333D02*
X116847619Y-80366666D01*
X115847619Y-80700000D01*
X115847619Y-81604761D02*
X116323809Y-81271428D01*
X115847619Y-81033333D02*
X116847619Y-81033333D01*
X116847619Y-81414285D01*
X116800000Y-81509523D01*
X116752380Y-81557142D01*
X116657142Y-81604761D01*
X116514285Y-81604761D01*
X116419047Y-81557142D01*
X116371428Y-81509523D01*
X116323809Y-81414285D01*
X116323809Y-81033333D01*
X116847619Y-81890476D02*
X116847619Y-82461904D01*
X115847619Y-82176190D02*
X116847619Y-82176190D01*
X115847619Y-83319047D02*
X115847619Y-82747619D01*
X115847619Y-83033333D02*
X116847619Y-83033333D01*
X116704761Y-82938095D01*
X116609523Y-82842857D01*
X116561904Y-82747619D01*
X115847619Y-70819047D02*
X116847619Y-70819047D01*
X116752380Y-71247619D02*
X116800000Y-71295238D01*
X116847619Y-71390476D01*
X116847619Y-71628571D01*
X116800000Y-71723809D01*
X116752380Y-71771428D01*
X116657142Y-71819047D01*
X116561904Y-71819047D01*
X116419047Y-71771428D01*
X115847619Y-71200000D01*
X115847619Y-71819047D01*
X115942857Y-72819047D02*
X115895238Y-72771428D01*
X115847619Y-72628571D01*
X115847619Y-72533333D01*
X115895238Y-72390476D01*
X115990476Y-72295238D01*
X116085714Y-72247619D01*
X116276190Y-72200000D01*
X116419047Y-72200000D01*
X116609523Y-72247619D01*
X116704761Y-72295238D01*
X116800000Y-72390476D01*
X116847619Y-72533333D01*
X116847619Y-72628571D01*
X116800000Y-72771428D01*
X116752380Y-72819047D01*
X115895238Y-73200000D02*
X115847619Y-73295238D01*
X115847619Y-73485714D01*
X115895238Y-73580952D01*
X115990476Y-73628571D01*
X116038095Y-73628571D01*
X116133333Y-73580952D01*
X116180952Y-73485714D01*
X116180952Y-73342857D01*
X116228571Y-73247619D01*
X116323809Y-73200000D01*
X116371428Y-73200000D01*
X116466666Y-73247619D01*
X116514285Y-73342857D01*
X116514285Y-73485714D01*
X116466666Y-73580952D01*
X116047619Y-61557142D02*
X117047619Y-61557142D01*
X116952380Y-61985714D02*
X117000000Y-62033333D01*
X117047619Y-62128571D01*
X117047619Y-62366666D01*
X117000000Y-62461904D01*
X116952380Y-62509523D01*
X116857142Y-62557142D01*
X116761904Y-62557142D01*
X116619047Y-62509523D01*
X116047619Y-61938095D01*
X116047619Y-62557142D01*
X116142857Y-63557142D02*
X116095238Y-63509523D01*
X116047619Y-63366666D01*
X116047619Y-63271428D01*
X116095238Y-63128571D01*
X116190476Y-63033333D01*
X116285714Y-62985714D01*
X116476190Y-62938095D01*
X116619047Y-62938095D01*
X116809523Y-62985714D01*
X116904761Y-63033333D01*
X117000000Y-63128571D01*
X117047619Y-63271428D01*
X117047619Y-63366666D01*
X117000000Y-63509523D01*
X116952380Y-63557142D01*
X116047619Y-63985714D02*
X116714285Y-63985714D01*
X116619047Y-63985714D02*
X116666666Y-64033333D01*
X116714285Y-64128571D01*
X116714285Y-64271428D01*
X116666666Y-64366666D01*
X116571428Y-64414285D01*
X116047619Y-64414285D01*
X116571428Y-64414285D02*
X116666666Y-64461904D01*
X116714285Y-64557142D01*
X116714285Y-64700000D01*
X116666666Y-64795238D01*
X116571428Y-64842857D01*
X116047619Y-64842857D01*
X116047619Y-52457142D02*
X117047619Y-52457142D01*
X116952380Y-52885714D02*
X117000000Y-52933333D01*
X117047619Y-53028571D01*
X117047619Y-53266666D01*
X117000000Y-53361904D01*
X116952380Y-53409523D01*
X116857142Y-53457142D01*
X116761904Y-53457142D01*
X116619047Y-53409523D01*
X116047619Y-52838095D01*
X116047619Y-53457142D01*
X116142857Y-54457142D02*
X116095238Y-54409523D01*
X116047619Y-54266666D01*
X116047619Y-54171428D01*
X116095238Y-54028571D01*
X116190476Y-53933333D01*
X116285714Y-53885714D01*
X116476190Y-53838095D01*
X116619047Y-53838095D01*
X116809523Y-53885714D01*
X116904761Y-53933333D01*
X117000000Y-54028571D01*
X117047619Y-54171428D01*
X117047619Y-54266666D01*
X117000000Y-54409523D01*
X116952380Y-54457142D01*
X116047619Y-54885714D02*
X116714285Y-54885714D01*
X116619047Y-54885714D02*
X116666666Y-54933333D01*
X116714285Y-55028571D01*
X116714285Y-55171428D01*
X116666666Y-55266666D01*
X116571428Y-55314285D01*
X116047619Y-55314285D01*
X116571428Y-55314285D02*
X116666666Y-55361904D01*
X116714285Y-55457142D01*
X116714285Y-55600000D01*
X116666666Y-55695238D01*
X116571428Y-55742857D01*
X116047619Y-55742857D01*
X116195238Y-42500000D02*
X116147619Y-42642857D01*
X116147619Y-42880952D01*
X116195238Y-42976190D01*
X116242857Y-43023809D01*
X116338095Y-43071428D01*
X116433333Y-43071428D01*
X116528571Y-43023809D01*
X116576190Y-42976190D01*
X116623809Y-42880952D01*
X116671428Y-42690476D01*
X116719047Y-42595238D01*
X116766666Y-42547619D01*
X116861904Y-42500000D01*
X116957142Y-42500000D01*
X117052380Y-42547619D01*
X117100000Y-42595238D01*
X117147619Y-42690476D01*
X117147619Y-42928571D01*
X117100000Y-43071428D01*
X116147619Y-43500000D02*
X117147619Y-43500000D01*
X117147619Y-43880952D01*
X117100000Y-43976190D01*
X117052380Y-44023809D01*
X116957142Y-44071428D01*
X116814285Y-44071428D01*
X116719047Y-44023809D01*
X116671428Y-43976190D01*
X116623809Y-43880952D01*
X116623809Y-43500000D01*
X116147619Y-44500000D02*
X117147619Y-44500000D01*
X117052380Y-44928571D02*
X117100000Y-44976190D01*
X117147619Y-45071428D01*
X117147619Y-45309523D01*
X117100000Y-45404761D01*
X117052380Y-45452380D01*
X116957142Y-45500000D01*
X116861904Y-45500000D01*
X116719047Y-45452380D01*
X116147619Y-44880952D01*
X116147619Y-45500000D01*
X108800000Y-34404761D02*
X108942857Y-34452380D01*
X109180952Y-34452380D01*
X109276190Y-34404761D01*
X109323809Y-34357142D01*
X109371428Y-34261904D01*
X109371428Y-34166666D01*
X109323809Y-34071428D01*
X109276190Y-34023809D01*
X109180952Y-33976190D01*
X108990476Y-33928571D01*
X108895238Y-33880952D01*
X108847619Y-33833333D01*
X108800000Y-33738095D01*
X108800000Y-33642857D01*
X108847619Y-33547619D01*
X108895238Y-33500000D01*
X108990476Y-33452380D01*
X109228571Y-33452380D01*
X109371428Y-33500000D01*
X109800000Y-34452380D02*
X109800000Y-33452380D01*
X110180952Y-33452380D01*
X110276190Y-33500000D01*
X110323809Y-33547619D01*
X110371428Y-33642857D01*
X110371428Y-33785714D01*
X110323809Y-33880952D01*
X110276190Y-33928571D01*
X110180952Y-33976190D01*
X109800000Y-33976190D01*
X110800000Y-34452380D02*
X110800000Y-33452380D01*
X111800000Y-34452380D02*
X111228571Y-34452380D01*
X111514285Y-34452380D02*
X111514285Y-33452380D01*
X111419047Y-33595238D01*
X111323809Y-33690476D01*
X111228571Y-33738095D01*
X98957142Y-34552380D02*
X98957142Y-33552380D01*
X99385714Y-33647619D02*
X99433333Y-33600000D01*
X99528571Y-33552380D01*
X99766666Y-33552380D01*
X99861904Y-33600000D01*
X99909523Y-33647619D01*
X99957142Y-33742857D01*
X99957142Y-33838095D01*
X99909523Y-33980952D01*
X99338095Y-34552380D01*
X99957142Y-34552380D01*
X100957142Y-34457142D02*
X100909523Y-34504761D01*
X100766666Y-34552380D01*
X100671428Y-34552380D01*
X100528571Y-34504761D01*
X100433333Y-34409523D01*
X100385714Y-34314285D01*
X100338095Y-34123809D01*
X100338095Y-33980952D01*
X100385714Y-33790476D01*
X100433333Y-33695238D01*
X100528571Y-33600000D01*
X100671428Y-33552380D01*
X100766666Y-33552380D01*
X100909523Y-33600000D01*
X100957142Y-33647619D01*
X101385714Y-34552380D02*
X101385714Y-33885714D01*
X101385714Y-33980952D02*
X101433333Y-33933333D01*
X101528571Y-33885714D01*
X101671428Y-33885714D01*
X101766666Y-33933333D01*
X101814285Y-34028571D01*
X101814285Y-34552380D01*
X101814285Y-34028571D02*
X101861904Y-33933333D01*
X101957142Y-33885714D01*
X102100000Y-33885714D01*
X102195238Y-33933333D01*
X102242857Y-34028571D01*
X102242857Y-34552380D01*
X90719047Y-34652380D02*
X90719047Y-33652380D01*
X91147619Y-33747619D02*
X91195238Y-33700000D01*
X91290476Y-33652380D01*
X91528571Y-33652380D01*
X91623809Y-33700000D01*
X91671428Y-33747619D01*
X91719047Y-33842857D01*
X91719047Y-33938095D01*
X91671428Y-34080952D01*
X91100000Y-34652380D01*
X91719047Y-34652380D01*
X92719047Y-34557142D02*
X92671428Y-34604761D01*
X92528571Y-34652380D01*
X92433333Y-34652380D01*
X92290476Y-34604761D01*
X92195238Y-34509523D01*
X92147619Y-34414285D01*
X92100000Y-34223809D01*
X92100000Y-34080952D01*
X92147619Y-33890476D01*
X92195238Y-33795238D01*
X92290476Y-33700000D01*
X92433333Y-33652380D01*
X92528571Y-33652380D01*
X92671428Y-33700000D01*
X92719047Y-33747619D01*
X93100000Y-34604761D02*
X93195238Y-34652380D01*
X93385714Y-34652380D01*
X93480952Y-34604761D01*
X93528571Y-34509523D01*
X93528571Y-34461904D01*
X93480952Y-34366666D01*
X93385714Y-34319047D01*
X93242857Y-34319047D01*
X93147619Y-34271428D01*
X93100000Y-34176190D01*
X93100000Y-34128571D01*
X93147619Y-34033333D01*
X93242857Y-33985714D01*
X93385714Y-33985714D01*
X93480952Y-34033333D01*
X81528571Y-33752380D02*
X81528571Y-34561904D01*
X81576190Y-34657142D01*
X81623809Y-34704761D01*
X81719047Y-34752380D01*
X81909523Y-34752380D01*
X82004761Y-34704761D01*
X82052380Y-34657142D01*
X82100000Y-34561904D01*
X82100000Y-33752380D01*
X82528571Y-34466666D02*
X83004761Y-34466666D01*
X82433333Y-34752380D02*
X82766666Y-33752380D01*
X83100000Y-34752380D01*
X84004761Y-34752380D02*
X83671428Y-34276190D01*
X83433333Y-34752380D02*
X83433333Y-33752380D01*
X83814285Y-33752380D01*
X83909523Y-33800000D01*
X83957142Y-33847619D01*
X84004761Y-33942857D01*
X84004761Y-34085714D01*
X83957142Y-34180952D01*
X83909523Y-34228571D01*
X83814285Y-34276190D01*
X83433333Y-34276190D01*
X84290476Y-33752380D02*
X84861904Y-33752380D01*
X84576190Y-34752380D02*
X84576190Y-33752380D01*
X85147619Y-33847619D02*
X85195238Y-33800000D01*
X85290476Y-33752380D01*
X85528571Y-33752380D01*
X85623809Y-33800000D01*
X85671428Y-33847619D01*
X85719047Y-33942857D01*
X85719047Y-34038095D01*
X85671428Y-34180952D01*
X85100000Y-34752380D01*
X85719047Y-34752380D01*
X73861904Y-33852380D02*
X74480952Y-33852380D01*
X74147619Y-34233333D01*
X74290476Y-34233333D01*
X74385714Y-34280952D01*
X74433333Y-34328571D01*
X74480952Y-34423809D01*
X74480952Y-34661904D01*
X74433333Y-34757142D01*
X74385714Y-34804761D01*
X74290476Y-34852380D01*
X74004761Y-34852380D01*
X73909523Y-34804761D01*
X73861904Y-34757142D01*
X74766666Y-33852380D02*
X75100000Y-34852380D01*
X75433333Y-33852380D01*
X75671428Y-33852380D02*
X76290476Y-33852380D01*
X75957142Y-34233333D01*
X76100000Y-34233333D01*
X76195238Y-34280952D01*
X76242857Y-34328571D01*
X76290476Y-34423809D01*
X76290476Y-34661904D01*
X76242857Y-34757142D01*
X76195238Y-34804761D01*
X76100000Y-34852380D01*
X75814285Y-34852380D01*
X75719047Y-34804761D01*
X75671428Y-34757142D01*
X66409523Y-33852380D02*
X65933333Y-33852380D01*
X65885714Y-34328571D01*
X65933333Y-34280952D01*
X66028571Y-34233333D01*
X66266666Y-34233333D01*
X66361904Y-34280952D01*
X66409523Y-34328571D01*
X66457142Y-34423809D01*
X66457142Y-34661904D01*
X66409523Y-34757142D01*
X66361904Y-34804761D01*
X66266666Y-34852380D01*
X66028571Y-34852380D01*
X65933333Y-34804761D01*
X65885714Y-34757142D01*
X66742857Y-33852380D02*
X67076190Y-34852380D01*
X67409523Y-33852380D01*
X63125714Y-99735714D02*
X63125714Y-100402380D01*
X62697142Y-99735714D02*
X62697142Y-100259523D01*
X62744761Y-100354761D01*
X62840000Y-100402380D01*
X62982857Y-100402380D01*
X63078095Y-100354761D01*
X63125714Y-100307142D01*
X63554285Y-100354761D02*
X63697142Y-100402380D01*
X63935238Y-100402380D01*
X64030476Y-100354761D01*
X64078095Y-100307142D01*
X64125714Y-100211904D01*
X64125714Y-100116666D01*
X64078095Y-100021428D01*
X64030476Y-99973809D01*
X63935238Y-99926190D01*
X63744761Y-99878571D01*
X63649523Y-99830952D01*
X63601904Y-99783333D01*
X63554285Y-99688095D01*
X63554285Y-99592857D01*
X63601904Y-99497619D01*
X63649523Y-99450000D01*
X63744761Y-99402380D01*
X63982857Y-99402380D01*
X64125714Y-99450000D01*
X64554285Y-100402380D02*
X64554285Y-99402380D01*
X64792380Y-99402380D01*
X64935238Y-99450000D01*
X65030476Y-99545238D01*
X65078095Y-99640476D01*
X65125714Y-99830952D01*
X65125714Y-99973809D01*
X65078095Y-100164285D01*
X65030476Y-100259523D01*
X64935238Y-100354761D01*
X64792380Y-100402380D01*
X64554285Y-100402380D01*
X66887619Y-100307142D02*
X66840000Y-100354761D01*
X66697142Y-100402380D01*
X66601904Y-100402380D01*
X66459047Y-100354761D01*
X66363809Y-100259523D01*
X66316190Y-100164285D01*
X66268571Y-99973809D01*
X66268571Y-99830952D01*
X66316190Y-99640476D01*
X66363809Y-99545238D01*
X66459047Y-99450000D01*
X66601904Y-99402380D01*
X66697142Y-99402380D01*
X66840000Y-99450000D01*
X66887619Y-99497619D01*
X67744761Y-100402380D02*
X67744761Y-99878571D01*
X67697142Y-99783333D01*
X67601904Y-99735714D01*
X67411428Y-99735714D01*
X67316190Y-99783333D01*
X67744761Y-100354761D02*
X67649523Y-100402380D01*
X67411428Y-100402380D01*
X67316190Y-100354761D01*
X67268571Y-100259523D01*
X67268571Y-100164285D01*
X67316190Y-100069047D01*
X67411428Y-100021428D01*
X67649523Y-100021428D01*
X67744761Y-99973809D01*
X68220952Y-100402380D02*
X68220952Y-99735714D01*
X68220952Y-99926190D02*
X68268571Y-99830952D01*
X68316190Y-99783333D01*
X68411428Y-99735714D01*
X68506666Y-99735714D01*
X69268571Y-100402380D02*
X69268571Y-99402380D01*
X69268571Y-100354761D02*
X69173333Y-100402380D01*
X68982857Y-100402380D01*
X68887619Y-100354761D01*
X68840000Y-100307142D01*
X68792380Y-100211904D01*
X68792380Y-99926190D01*
X68840000Y-99830952D01*
X68887619Y-99783333D01*
X68982857Y-99735714D01*
X69173333Y-99735714D01*
X69268571Y-99783333D01*
X70459047Y-100354761D02*
X70601904Y-100402380D01*
X70840000Y-100402380D01*
X70935238Y-100354761D01*
X70982857Y-100307142D01*
X71030476Y-100211904D01*
X71030476Y-100116666D01*
X70982857Y-100021428D01*
X70935238Y-99973809D01*
X70840000Y-99926190D01*
X70649523Y-99878571D01*
X70554285Y-99830952D01*
X70506666Y-99783333D01*
X70459047Y-99688095D01*
X70459047Y-99592857D01*
X70506666Y-99497619D01*
X70554285Y-99450000D01*
X70649523Y-99402380D01*
X70887619Y-99402380D01*
X71030476Y-99450000D01*
X71601904Y-100402380D02*
X71506666Y-100354761D01*
X71459047Y-100259523D01*
X71459047Y-99402380D01*
X72125714Y-100402380D02*
X72030476Y-100354761D01*
X71982857Y-100307142D01*
X71935238Y-100211904D01*
X71935238Y-99926190D01*
X71982857Y-99830952D01*
X72030476Y-99783333D01*
X72125714Y-99735714D01*
X72268571Y-99735714D01*
X72363809Y-99783333D01*
X72411428Y-99830952D01*
X72459047Y-99926190D01*
X72459047Y-100211904D01*
X72411428Y-100307142D01*
X72363809Y-100354761D01*
X72268571Y-100402380D01*
X72125714Y-100402380D01*
X72744761Y-99735714D02*
X73125714Y-99735714D01*
X72887619Y-99402380D02*
X72887619Y-100259523D01*
X72935238Y-100354761D01*
X73030476Y-100402380D01*
X73125714Y-100402380D01*
D11*
X59226190Y-38095238D02*
X59226190Y-38333333D01*
X59464285Y-38357142D01*
X59440476Y-38333333D01*
X59416666Y-38285714D01*
X59416666Y-38166666D01*
X59440476Y-38119047D01*
X59464285Y-38095238D01*
X59511904Y-38071428D01*
X59630952Y-38071428D01*
X59678571Y-38095238D01*
X59702380Y-38119047D01*
X59726190Y-38166666D01*
X59726190Y-38285714D01*
X59702380Y-38333333D01*
X59678571Y-38357142D01*
X59226190Y-37928571D02*
X59726190Y-37761904D01*
X59226190Y-37595238D01*
X84226190Y-33095238D02*
X84226190Y-33333333D01*
X84464285Y-33357142D01*
X84440476Y-33333333D01*
X84416666Y-33285714D01*
X84416666Y-33166666D01*
X84440476Y-33119047D01*
X84464285Y-33095238D01*
X84511904Y-33071428D01*
X84630952Y-33071428D01*
X84678571Y-33095238D01*
X84702380Y-33119047D01*
X84726190Y-33166666D01*
X84726190Y-33285714D01*
X84702380Y-33333333D01*
X84678571Y-33357142D01*
X84226190Y-32928571D02*
X84726190Y-32761904D01*
X84226190Y-32595238D01*
X64726190Y-33095238D02*
X64726190Y-33333333D01*
X64964285Y-33357142D01*
X64940476Y-33333333D01*
X64916666Y-33285714D01*
X64916666Y-33166666D01*
X64940476Y-33119047D01*
X64964285Y-33095238D01*
X65011904Y-33071428D01*
X65130952Y-33071428D01*
X65178571Y-33095238D01*
X65202380Y-33119047D01*
X65226190Y-33166666D01*
X65226190Y-33285714D01*
X65202380Y-33333333D01*
X65178571Y-33357142D01*
X64726190Y-32928571D02*
X65226190Y-32761904D01*
X64726190Y-32595238D01*
X65726190Y-33095238D02*
X65726190Y-33333333D01*
X65964285Y-33357142D01*
X65940476Y-33333333D01*
X65916666Y-33285714D01*
X65916666Y-33166666D01*
X65940476Y-33119047D01*
X65964285Y-33095238D01*
X66011904Y-33071428D01*
X66130952Y-33071428D01*
X66178571Y-33095238D01*
X66202380Y-33119047D01*
X66226190Y-33166666D01*
X66226190Y-33285714D01*
X66202380Y-33333333D01*
X66178571Y-33357142D01*
X65726190Y-32928571D02*
X66226190Y-32761904D01*
X65726190Y-32595238D01*
X104726190Y-38119047D02*
X104726190Y-37809523D01*
X104916666Y-37976190D01*
X104916666Y-37904761D01*
X104940476Y-37857142D01*
X104964285Y-37833333D01*
X105011904Y-37809523D01*
X105130952Y-37809523D01*
X105178571Y-37833333D01*
X105202380Y-37857142D01*
X105226190Y-37904761D01*
X105226190Y-38047619D01*
X105202380Y-38095238D01*
X105178571Y-38119047D01*
X104726190Y-37666666D02*
X105226190Y-37500000D01*
X104726190Y-37333333D01*
X104726190Y-37214285D02*
X104726190Y-36904761D01*
X104916666Y-37071428D01*
X104916666Y-37000000D01*
X104940476Y-36952380D01*
X104964285Y-36928571D01*
X105011904Y-36904761D01*
X105130952Y-36904761D01*
X105178571Y-36928571D01*
X105202380Y-36952380D01*
X105226190Y-37000000D01*
X105226190Y-37142857D01*
X105202380Y-37190476D01*
X105178571Y-37214285D01*
X112726190Y-100619047D02*
X112726190Y-100309523D01*
X112916666Y-100476190D01*
X112916666Y-100404761D01*
X112940476Y-100357142D01*
X112964285Y-100333333D01*
X113011904Y-100309523D01*
X113130952Y-100309523D01*
X113178571Y-100333333D01*
X113202380Y-100357142D01*
X113226190Y-100404761D01*
X113226190Y-100547619D01*
X113202380Y-100595238D01*
X113178571Y-100619047D01*
X112726190Y-100166666D02*
X113226190Y-100000000D01*
X112726190Y-99833333D01*
X112726190Y-99714285D02*
X112726190Y-99404761D01*
X112916666Y-99571428D01*
X112916666Y-99500000D01*
X112940476Y-99452380D01*
X112964285Y-99428571D01*
X113011904Y-99404761D01*
X113130952Y-99404761D01*
X113178571Y-99428571D01*
X113202380Y-99452380D01*
X113226190Y-99500000D01*
X113226190Y-99642857D01*
X113202380Y-99690476D01*
X113178571Y-99714285D01*
X117380952Y-88726190D02*
X117690476Y-88726190D01*
X117523809Y-88916666D01*
X117595238Y-88916666D01*
X117642857Y-88940476D01*
X117666666Y-88964285D01*
X117690476Y-89011904D01*
X117690476Y-89130952D01*
X117666666Y-89178571D01*
X117642857Y-89202380D01*
X117595238Y-89226190D01*
X117452380Y-89226190D01*
X117404761Y-89202380D01*
X117380952Y-89178571D01*
X117833333Y-88726190D02*
X118000000Y-89226190D01*
X118166666Y-88726190D01*
X118285714Y-88726190D02*
X118595238Y-88726190D01*
X118428571Y-88916666D01*
X118500000Y-88916666D01*
X118547619Y-88940476D01*
X118571428Y-88964285D01*
X118595238Y-89011904D01*
X118595238Y-89130952D01*
X118571428Y-89178571D01*
X118547619Y-89202380D01*
X118500000Y-89226190D01*
X118357142Y-89226190D01*
X118309523Y-89202380D01*
X118285714Y-89178571D01*
X117619047Y-72250000D02*
X117571428Y-72226190D01*
X117500000Y-72226190D01*
X117428571Y-72250000D01*
X117380952Y-72297619D01*
X117357142Y-72345238D01*
X117333333Y-72440476D01*
X117333333Y-72511904D01*
X117357142Y-72607142D01*
X117380952Y-72654761D01*
X117428571Y-72702380D01*
X117500000Y-72726190D01*
X117547619Y-72726190D01*
X117619047Y-72702380D01*
X117642857Y-72678571D01*
X117642857Y-72511904D01*
X117547619Y-72511904D01*
X117857142Y-72726190D02*
X117857142Y-72226190D01*
X118142857Y-72726190D01*
X118142857Y-72226190D01*
X118380952Y-72726190D02*
X118380952Y-72226190D01*
X118500000Y-72226190D01*
X118571428Y-72250000D01*
X118619047Y-72297619D01*
X118642857Y-72345238D01*
X118666666Y-72440476D01*
X118666666Y-72511904D01*
X118642857Y-72607142D01*
X118619047Y-72654761D01*
X118571428Y-72702380D01*
X118500000Y-72726190D01*
X118380952Y-72726190D01*
X117380952Y-73226190D02*
X117690476Y-73226190D01*
X117523809Y-73416666D01*
X117595238Y-73416666D01*
X117642857Y-73440476D01*
X117666666Y-73464285D01*
X117690476Y-73511904D01*
X117690476Y-73630952D01*
X117666666Y-73678571D01*
X117642857Y-73702380D01*
X117595238Y-73726190D01*
X117452380Y-73726190D01*
X117404761Y-73702380D01*
X117380952Y-73678571D01*
X117833333Y-73226190D02*
X118000000Y-73726190D01*
X118166666Y-73226190D01*
X118285714Y-73226190D02*
X118595238Y-73226190D01*
X118428571Y-73416666D01*
X118500000Y-73416666D01*
X118547619Y-73440476D01*
X118571428Y-73464285D01*
X118595238Y-73511904D01*
X118595238Y-73630952D01*
X118571428Y-73678571D01*
X118547619Y-73702380D01*
X118500000Y-73726190D01*
X118357142Y-73726190D01*
X118309523Y-73702380D01*
X118285714Y-73678571D01*
X116880952Y-63726190D02*
X117190476Y-63726190D01*
X117023809Y-63916666D01*
X117095238Y-63916666D01*
X117142857Y-63940476D01*
X117166666Y-63964285D01*
X117190476Y-64011904D01*
X117190476Y-64130952D01*
X117166666Y-64178571D01*
X117142857Y-64202380D01*
X117095238Y-64226190D01*
X116952380Y-64226190D01*
X116904761Y-64202380D01*
X116880952Y-64178571D01*
X117333333Y-63726190D02*
X117500000Y-64226190D01*
X117666666Y-63726190D01*
X117785714Y-63726190D02*
X118095238Y-63726190D01*
X117928571Y-63916666D01*
X118000000Y-63916666D01*
X118047619Y-63940476D01*
X118071428Y-63964285D01*
X118095238Y-64011904D01*
X118095238Y-64130952D01*
X118071428Y-64178571D01*
X118047619Y-64202380D01*
X118000000Y-64226190D01*
X117857142Y-64226190D01*
X117809523Y-64202380D01*
X117785714Y-64178571D01*
X116880952Y-54726190D02*
X117190476Y-54726190D01*
X117023809Y-54916666D01*
X117095238Y-54916666D01*
X117142857Y-54940476D01*
X117166666Y-54964285D01*
X117190476Y-55011904D01*
X117190476Y-55130952D01*
X117166666Y-55178571D01*
X117142857Y-55202380D01*
X117095238Y-55226190D01*
X116952380Y-55226190D01*
X116904761Y-55202380D01*
X116880952Y-55178571D01*
X117333333Y-54726190D02*
X117500000Y-55226190D01*
X117666666Y-54726190D01*
X117785714Y-54726190D02*
X118095238Y-54726190D01*
X117928571Y-54916666D01*
X118000000Y-54916666D01*
X118047619Y-54940476D01*
X118071428Y-54964285D01*
X118095238Y-55011904D01*
X118095238Y-55130952D01*
X118071428Y-55178571D01*
X118047619Y-55202380D01*
X118000000Y-55226190D01*
X117857142Y-55226190D01*
X117809523Y-55202380D01*
X117785714Y-55178571D01*
X117380952Y-41726190D02*
X117690476Y-41726190D01*
X117523809Y-41916666D01*
X117595238Y-41916666D01*
X117642857Y-41940476D01*
X117666666Y-41964285D01*
X117690476Y-42011904D01*
X117690476Y-42130952D01*
X117666666Y-42178571D01*
X117642857Y-42202380D01*
X117595238Y-42226190D01*
X117452380Y-42226190D01*
X117404761Y-42202380D01*
X117380952Y-42178571D01*
X117833333Y-41726190D02*
X118000000Y-42226190D01*
X118166666Y-41726190D01*
X118285714Y-41726190D02*
X118595238Y-41726190D01*
X118428571Y-41916666D01*
X118500000Y-41916666D01*
X118547619Y-41940476D01*
X118571428Y-41964285D01*
X118595238Y-42011904D01*
X118595238Y-42130952D01*
X118571428Y-42178571D01*
X118547619Y-42202380D01*
X118500000Y-42226190D01*
X118357142Y-42226190D01*
X118309523Y-42202380D01*
X118285714Y-42178571D01*
X108226190Y-33619047D02*
X108226190Y-33309523D01*
X108416666Y-33476190D01*
X108416666Y-33404761D01*
X108440476Y-33357142D01*
X108464285Y-33333333D01*
X108511904Y-33309523D01*
X108630952Y-33309523D01*
X108678571Y-33333333D01*
X108702380Y-33357142D01*
X108726190Y-33404761D01*
X108726190Y-33547619D01*
X108702380Y-33595238D01*
X108678571Y-33619047D01*
X108226190Y-33166666D02*
X108726190Y-33000000D01*
X108226190Y-32833333D01*
X108226190Y-32714285D02*
X108226190Y-32404761D01*
X108416666Y-32571428D01*
X108416666Y-32500000D01*
X108440476Y-32452380D01*
X108464285Y-32428571D01*
X108511904Y-32404761D01*
X108630952Y-32404761D01*
X108678571Y-32428571D01*
X108702380Y-32452380D01*
X108726190Y-32500000D01*
X108726190Y-32642857D01*
X108702380Y-32690476D01*
X108678571Y-32714285D01*
X101226190Y-33619047D02*
X101226190Y-33309523D01*
X101416666Y-33476190D01*
X101416666Y-33404761D01*
X101440476Y-33357142D01*
X101464285Y-33333333D01*
X101511904Y-33309523D01*
X101630952Y-33309523D01*
X101678571Y-33333333D01*
X101702380Y-33357142D01*
X101726190Y-33404761D01*
X101726190Y-33547619D01*
X101702380Y-33595238D01*
X101678571Y-33619047D01*
X101226190Y-33166666D02*
X101726190Y-33000000D01*
X101226190Y-32833333D01*
X101226190Y-32714285D02*
X101226190Y-32404761D01*
X101416666Y-32571428D01*
X101416666Y-32500000D01*
X101440476Y-32452380D01*
X101464285Y-32428571D01*
X101511904Y-32404761D01*
X101630952Y-32404761D01*
X101678571Y-32428571D01*
X101702380Y-32452380D01*
X101726190Y-32500000D01*
X101726190Y-32642857D01*
X101702380Y-32690476D01*
X101678571Y-32714285D01*
X92726190Y-33619047D02*
X92726190Y-33309523D01*
X92916666Y-33476190D01*
X92916666Y-33404761D01*
X92940476Y-33357142D01*
X92964285Y-33333333D01*
X93011904Y-33309523D01*
X93130952Y-33309523D01*
X93178571Y-33333333D01*
X93202380Y-33357142D01*
X93226190Y-33404761D01*
X93226190Y-33547619D01*
X93202380Y-33595238D01*
X93178571Y-33619047D01*
X92726190Y-33166666D02*
X93226190Y-33000000D01*
X92726190Y-32833333D01*
X92726190Y-32714285D02*
X92726190Y-32404761D01*
X92916666Y-32571428D01*
X92916666Y-32500000D01*
X92940476Y-32452380D01*
X92964285Y-32428571D01*
X93011904Y-32404761D01*
X93130952Y-32404761D01*
X93178571Y-32428571D01*
X93202380Y-32452380D01*
X93226190Y-32500000D01*
X93226190Y-32642857D01*
X93202380Y-32690476D01*
X93178571Y-32714285D01*
X67250000Y-33380952D02*
X67226190Y-33428571D01*
X67226190Y-33500000D01*
X67250000Y-33571428D01*
X67297619Y-33619047D01*
X67345238Y-33642857D01*
X67440476Y-33666666D01*
X67511904Y-33666666D01*
X67607142Y-33642857D01*
X67654761Y-33619047D01*
X67702380Y-33571428D01*
X67726190Y-33500000D01*
X67726190Y-33452380D01*
X67702380Y-33380952D01*
X67678571Y-33357142D01*
X67511904Y-33357142D01*
X67511904Y-33452380D01*
X67726190Y-33142857D02*
X67226190Y-33142857D01*
X67726190Y-32857142D01*
X67226190Y-32857142D01*
X67726190Y-32619047D02*
X67226190Y-32619047D01*
X67226190Y-32500000D01*
X67250000Y-32428571D01*
X67297619Y-32380952D01*
X67345238Y-32357142D01*
X67440476Y-32333333D01*
X67511904Y-32333333D01*
X67607142Y-32357142D01*
X67654761Y-32380952D01*
X67702380Y-32428571D01*
X67726190Y-32500000D01*
X67726190Y-32619047D01*
X75750000Y-33380952D02*
X75726190Y-33428571D01*
X75726190Y-33500000D01*
X75750000Y-33571428D01*
X75797619Y-33619047D01*
X75845238Y-33642857D01*
X75940476Y-33666666D01*
X76011904Y-33666666D01*
X76107142Y-33642857D01*
X76154761Y-33619047D01*
X76202380Y-33571428D01*
X76226190Y-33500000D01*
X76226190Y-33452380D01*
X76202380Y-33380952D01*
X76178571Y-33357142D01*
X76011904Y-33357142D01*
X76011904Y-33452380D01*
X76226190Y-33142857D02*
X75726190Y-33142857D01*
X76226190Y-32857142D01*
X75726190Y-32857142D01*
X76226190Y-32619047D02*
X75726190Y-32619047D01*
X75726190Y-32500000D01*
X75750000Y-32428571D01*
X75797619Y-32380952D01*
X75845238Y-32357142D01*
X75940476Y-32333333D01*
X76011904Y-32333333D01*
X76107142Y-32357142D01*
X76154761Y-32380952D01*
X76202380Y-32428571D01*
X76226190Y-32500000D01*
X76226190Y-32619047D01*
X74226190Y-33619047D02*
X74226190Y-33309523D01*
X74416666Y-33476190D01*
X74416666Y-33404761D01*
X74440476Y-33357142D01*
X74464285Y-33333333D01*
X74511904Y-33309523D01*
X74630952Y-33309523D01*
X74678571Y-33333333D01*
X74702380Y-33357142D01*
X74726190Y-33404761D01*
X74726190Y-33547619D01*
X74702380Y-33595238D01*
X74678571Y-33619047D01*
X74226190Y-33166666D02*
X74726190Y-33000000D01*
X74226190Y-32833333D01*
X74226190Y-32714285D02*
X74226190Y-32404761D01*
X74416666Y-32571428D01*
X74416666Y-32500000D01*
X74440476Y-32452380D01*
X74464285Y-32428571D01*
X74511904Y-32404761D01*
X74630952Y-32404761D01*
X74678571Y-32428571D01*
X74702380Y-32452380D01*
X74726190Y-32500000D01*
X74726190Y-32642857D01*
X74702380Y-32690476D01*
X74678571Y-32714285D01*
X72726190Y-33619047D02*
X72726190Y-33309523D01*
X72916666Y-33476190D01*
X72916666Y-33404761D01*
X72940476Y-33357142D01*
X72964285Y-33333333D01*
X73011904Y-33309523D01*
X73130952Y-33309523D01*
X73178571Y-33333333D01*
X73202380Y-33357142D01*
X73226190Y-33404761D01*
X73226190Y-33547619D01*
X73202380Y-33595238D01*
X73178571Y-33619047D01*
X72726190Y-33166666D02*
X73226190Y-33000000D01*
X72726190Y-32833333D01*
X72726190Y-32714285D02*
X72726190Y-32404761D01*
X72916666Y-32571428D01*
X72916666Y-32500000D01*
X72940476Y-32452380D01*
X72964285Y-32428571D01*
X73011904Y-32404761D01*
X73130952Y-32404761D01*
X73178571Y-32428571D01*
X73202380Y-32452380D01*
X73226190Y-32500000D01*
X73226190Y-32642857D01*
X73202380Y-32690476D01*
X73178571Y-32714285D01*
X114250000Y-38380952D02*
X114226190Y-38428571D01*
X114226190Y-38500000D01*
X114250000Y-38571428D01*
X114297619Y-38619047D01*
X114345238Y-38642857D01*
X114440476Y-38666666D01*
X114511904Y-38666666D01*
X114607142Y-38642857D01*
X114654761Y-38619047D01*
X114702380Y-38571428D01*
X114726190Y-38500000D01*
X114726190Y-38452380D01*
X114702380Y-38380952D01*
X114678571Y-38357142D01*
X114511904Y-38357142D01*
X114511904Y-38452380D01*
X114726190Y-38142857D02*
X114226190Y-38142857D01*
X114726190Y-37857142D01*
X114226190Y-37857142D01*
X114726190Y-37619047D02*
X114226190Y-37619047D01*
X114226190Y-37500000D01*
X114250000Y-37428571D01*
X114297619Y-37380952D01*
X114345238Y-37357142D01*
X114440476Y-37333333D01*
X114511904Y-37333333D01*
X114607142Y-37357142D01*
X114654761Y-37380952D01*
X114702380Y-37428571D01*
X114726190Y-37500000D01*
X114726190Y-37619047D01*
X117619047Y-40750000D02*
X117571428Y-40726190D01*
X117500000Y-40726190D01*
X117428571Y-40750000D01*
X117380952Y-40797619D01*
X117357142Y-40845238D01*
X117333333Y-40940476D01*
X117333333Y-41011904D01*
X117357142Y-41107142D01*
X117380952Y-41154761D01*
X117428571Y-41202380D01*
X117500000Y-41226190D01*
X117547619Y-41226190D01*
X117619047Y-41202380D01*
X117642857Y-41178571D01*
X117642857Y-41011904D01*
X117547619Y-41011904D01*
X117857142Y-41226190D02*
X117857142Y-40726190D01*
X118142857Y-41226190D01*
X118142857Y-40726190D01*
X118380952Y-41226190D02*
X118380952Y-40726190D01*
X118500000Y-40726190D01*
X118571428Y-40750000D01*
X118619047Y-40797619D01*
X118642857Y-40845238D01*
X118666666Y-40940476D01*
X118666666Y-41011904D01*
X118642857Y-41107142D01*
X118619047Y-41154761D01*
X118571428Y-41202380D01*
X118500000Y-41226190D01*
X118380952Y-41226190D01*
X117119047Y-55750000D02*
X117071428Y-55726190D01*
X117000000Y-55726190D01*
X116928571Y-55750000D01*
X116880952Y-55797619D01*
X116857142Y-55845238D01*
X116833333Y-55940476D01*
X116833333Y-56011904D01*
X116857142Y-56107142D01*
X116880952Y-56154761D01*
X116928571Y-56202380D01*
X117000000Y-56226190D01*
X117047619Y-56226190D01*
X117119047Y-56202380D01*
X117142857Y-56178571D01*
X117142857Y-56011904D01*
X117047619Y-56011904D01*
X117357142Y-56226190D02*
X117357142Y-55726190D01*
X117642857Y-56226190D01*
X117642857Y-55726190D01*
X117880952Y-56226190D02*
X117880952Y-55726190D01*
X118000000Y-55726190D01*
X118071428Y-55750000D01*
X118119047Y-55797619D01*
X118142857Y-55845238D01*
X118166666Y-55940476D01*
X118166666Y-56011904D01*
X118142857Y-56107142D01*
X118119047Y-56154761D01*
X118071428Y-56202380D01*
X118000000Y-56226190D01*
X117880952Y-56226190D01*
X117119047Y-64750000D02*
X117071428Y-64726190D01*
X117000000Y-64726190D01*
X116928571Y-64750000D01*
X116880952Y-64797619D01*
X116857142Y-64845238D01*
X116833333Y-64940476D01*
X116833333Y-65011904D01*
X116857142Y-65107142D01*
X116880952Y-65154761D01*
X116928571Y-65202380D01*
X117000000Y-65226190D01*
X117047619Y-65226190D01*
X117119047Y-65202380D01*
X117142857Y-65178571D01*
X117142857Y-65011904D01*
X117047619Y-65011904D01*
X117357142Y-65226190D02*
X117357142Y-64726190D01*
X117642857Y-65226190D01*
X117642857Y-64726190D01*
X117880952Y-65226190D02*
X117880952Y-64726190D01*
X118000000Y-64726190D01*
X118071428Y-64750000D01*
X118119047Y-64797619D01*
X118142857Y-64845238D01*
X118166666Y-64940476D01*
X118166666Y-65011904D01*
X118142857Y-65107142D01*
X118119047Y-65154761D01*
X118071428Y-65202380D01*
X118000000Y-65226190D01*
X117880952Y-65226190D01*
X117619047Y-82750000D02*
X117571428Y-82726190D01*
X117500000Y-82726190D01*
X117428571Y-82750000D01*
X117380952Y-82797619D01*
X117357142Y-82845238D01*
X117333333Y-82940476D01*
X117333333Y-83011904D01*
X117357142Y-83107142D01*
X117380952Y-83154761D01*
X117428571Y-83202380D01*
X117500000Y-83226190D01*
X117547619Y-83226190D01*
X117619047Y-83202380D01*
X117642857Y-83178571D01*
X117642857Y-83011904D01*
X117547619Y-83011904D01*
X117857142Y-83226190D02*
X117857142Y-82726190D01*
X118142857Y-83226190D01*
X118142857Y-82726190D01*
X118380952Y-83226190D02*
X118380952Y-82726190D01*
X118500000Y-82726190D01*
X118571428Y-82750000D01*
X118619047Y-82797619D01*
X118642857Y-82845238D01*
X118666666Y-82940476D01*
X118666666Y-83011904D01*
X118642857Y-83107142D01*
X118619047Y-83154761D01*
X118571428Y-83202380D01*
X118500000Y-83226190D01*
X118380952Y-83226190D01*
X117619047Y-87750000D02*
X117571428Y-87726190D01*
X117500000Y-87726190D01*
X117428571Y-87750000D01*
X117380952Y-87797619D01*
X117357142Y-87845238D01*
X117333333Y-87940476D01*
X117333333Y-88011904D01*
X117357142Y-88107142D01*
X117380952Y-88154761D01*
X117428571Y-88202380D01*
X117500000Y-88226190D01*
X117547619Y-88226190D01*
X117619047Y-88202380D01*
X117642857Y-88178571D01*
X117642857Y-88011904D01*
X117547619Y-88011904D01*
X117857142Y-88226190D02*
X117857142Y-87726190D01*
X118142857Y-88226190D01*
X118142857Y-87726190D01*
X118380952Y-88226190D02*
X118380952Y-87726190D01*
X118500000Y-87726190D01*
X118571428Y-87750000D01*
X118619047Y-87797619D01*
X118642857Y-87845238D01*
X118666666Y-87940476D01*
X118666666Y-88011904D01*
X118642857Y-88107142D01*
X118619047Y-88154761D01*
X118571428Y-88202380D01*
X118500000Y-88226190D01*
X118380952Y-88226190D01*
X114250000Y-100380952D02*
X114226190Y-100428571D01*
X114226190Y-100500000D01*
X114250000Y-100571428D01*
X114297619Y-100619047D01*
X114345238Y-100642857D01*
X114440476Y-100666666D01*
X114511904Y-100666666D01*
X114607142Y-100642857D01*
X114654761Y-100619047D01*
X114702380Y-100571428D01*
X114726190Y-100500000D01*
X114726190Y-100452380D01*
X114702380Y-100380952D01*
X114678571Y-100357142D01*
X114511904Y-100357142D01*
X114511904Y-100452380D01*
X114726190Y-100142857D02*
X114226190Y-100142857D01*
X114726190Y-99857142D01*
X114226190Y-99857142D01*
X114726190Y-99619047D02*
X114226190Y-99619047D01*
X114226190Y-99500000D01*
X114250000Y-99428571D01*
X114297619Y-99380952D01*
X114345238Y-99357142D01*
X114440476Y-99333333D01*
X114511904Y-99333333D01*
X114607142Y-99357142D01*
X114654761Y-99380952D01*
X114702380Y-99428571D01*
X114726190Y-99500000D01*
X114726190Y-99619047D01*
X86619047Y-101750000D02*
X86571428Y-101726190D01*
X86500000Y-101726190D01*
X86428571Y-101750000D01*
X86380952Y-101797619D01*
X86357142Y-101845238D01*
X86333333Y-101940476D01*
X86333333Y-102011904D01*
X86357142Y-102107142D01*
X86380952Y-102154761D01*
X86428571Y-102202380D01*
X86500000Y-102226190D01*
X86547619Y-102226190D01*
X86619047Y-102202380D01*
X86642857Y-102178571D01*
X86642857Y-102011904D01*
X86547619Y-102011904D01*
X86857142Y-102226190D02*
X86857142Y-101726190D01*
X87142857Y-102226190D01*
X87142857Y-101726190D01*
X87380952Y-102226190D02*
X87380952Y-101726190D01*
X87500000Y-101726190D01*
X87571428Y-101750000D01*
X87619047Y-101797619D01*
X87642857Y-101845238D01*
X87666666Y-101940476D01*
X87666666Y-102011904D01*
X87642857Y-102107142D01*
X87619047Y-102154761D01*
X87571428Y-102202380D01*
X87500000Y-102226190D01*
X87380952Y-102226190D01*
X54619047Y-101750000D02*
X54571428Y-101726190D01*
X54500000Y-101726190D01*
X54428571Y-101750000D01*
X54380952Y-101797619D01*
X54357142Y-101845238D01*
X54333333Y-101940476D01*
X54333333Y-102011904D01*
X54357142Y-102107142D01*
X54380952Y-102154761D01*
X54428571Y-102202380D01*
X54500000Y-102226190D01*
X54547619Y-102226190D01*
X54619047Y-102202380D01*
X54642857Y-102178571D01*
X54642857Y-102011904D01*
X54547619Y-102011904D01*
X54857142Y-102226190D02*
X54857142Y-101726190D01*
X55142857Y-102226190D01*
X55142857Y-101726190D01*
X55380952Y-102226190D02*
X55380952Y-101726190D01*
X55500000Y-101726190D01*
X55571428Y-101750000D01*
X55619047Y-101797619D01*
X55642857Y-101845238D01*
X55666666Y-101940476D01*
X55666666Y-102011904D01*
X55642857Y-102107142D01*
X55619047Y-102154761D01*
X55571428Y-102202380D01*
X55500000Y-102226190D01*
X55380952Y-102226190D01*
X89750000Y-67880952D02*
X89726190Y-67928571D01*
X89726190Y-68000000D01*
X89750000Y-68071428D01*
X89797619Y-68119047D01*
X89845238Y-68142857D01*
X89940476Y-68166666D01*
X90011904Y-68166666D01*
X90107142Y-68142857D01*
X90154761Y-68119047D01*
X90202380Y-68071428D01*
X90226190Y-68000000D01*
X90226190Y-67952380D01*
X90202380Y-67880952D01*
X90178571Y-67857142D01*
X90011904Y-67857142D01*
X90011904Y-67952380D01*
X90226190Y-67642857D02*
X89726190Y-67642857D01*
X90226190Y-67357142D01*
X89726190Y-67357142D01*
X90226190Y-67119047D02*
X89726190Y-67119047D01*
X89726190Y-67000000D01*
X89750000Y-66928571D01*
X89797619Y-66880952D01*
X89845238Y-66857142D01*
X89940476Y-66833333D01*
X90011904Y-66833333D01*
X90107142Y-66857142D01*
X90154761Y-66880952D01*
X90202380Y-66928571D01*
X90226190Y-67000000D01*
X90226190Y-67119047D01*
X105250000Y-67880952D02*
X105226190Y-67928571D01*
X105226190Y-68000000D01*
X105250000Y-68071428D01*
X105297619Y-68119047D01*
X105345238Y-68142857D01*
X105440476Y-68166666D01*
X105511904Y-68166666D01*
X105607142Y-68142857D01*
X105654761Y-68119047D01*
X105702380Y-68071428D01*
X105726190Y-68000000D01*
X105726190Y-67952380D01*
X105702380Y-67880952D01*
X105678571Y-67857142D01*
X105511904Y-67857142D01*
X105511904Y-67952380D01*
X105726190Y-67642857D02*
X105226190Y-67642857D01*
X105726190Y-67357142D01*
X105226190Y-67357142D01*
X105726190Y-67119047D02*
X105226190Y-67119047D01*
X105226190Y-67000000D01*
X105250000Y-66928571D01*
X105297619Y-66880952D01*
X105345238Y-66857142D01*
X105440476Y-66833333D01*
X105511904Y-66833333D01*
X105607142Y-66857142D01*
X105654761Y-66880952D01*
X105702380Y-66928571D01*
X105726190Y-67000000D01*
X105726190Y-67119047D01*
X71750000Y-37880952D02*
X71726190Y-37928571D01*
X71726190Y-38000000D01*
X71750000Y-38071428D01*
X71797619Y-38119047D01*
X71845238Y-38142857D01*
X71940476Y-38166666D01*
X72011904Y-38166666D01*
X72107142Y-38142857D01*
X72154761Y-38119047D01*
X72202380Y-38071428D01*
X72226190Y-38000000D01*
X72226190Y-37952380D01*
X72202380Y-37880952D01*
X72178571Y-37857142D01*
X72011904Y-37857142D01*
X72011904Y-37952380D01*
X72226190Y-37642857D02*
X71726190Y-37642857D01*
X72226190Y-37357142D01*
X71726190Y-37357142D01*
X72226190Y-37119047D02*
X71726190Y-37119047D01*
X71726190Y-37000000D01*
X71750000Y-36928571D01*
X71797619Y-36880952D01*
X71845238Y-36857142D01*
X71940476Y-36833333D01*
X72011904Y-36833333D01*
X72107142Y-36857142D01*
X72154761Y-36880952D01*
X72202380Y-36928571D01*
X72226190Y-37000000D01*
X72226190Y-37119047D01*
X68250000Y-33380952D02*
X68226190Y-33428571D01*
X68226190Y-33500000D01*
X68250000Y-33571428D01*
X68297619Y-33619047D01*
X68345238Y-33642857D01*
X68440476Y-33666666D01*
X68511904Y-33666666D01*
X68607142Y-33642857D01*
X68654761Y-33619047D01*
X68702380Y-33571428D01*
X68726190Y-33500000D01*
X68726190Y-33452380D01*
X68702380Y-33380952D01*
X68678571Y-33357142D01*
X68511904Y-33357142D01*
X68511904Y-33452380D01*
X68726190Y-33142857D02*
X68226190Y-33142857D01*
X68726190Y-32857142D01*
X68226190Y-32857142D01*
X68726190Y-32619047D02*
X68226190Y-32619047D01*
X68226190Y-32500000D01*
X68250000Y-32428571D01*
X68297619Y-32380952D01*
X68345238Y-32357142D01*
X68440476Y-32333333D01*
X68511904Y-32333333D01*
X68607142Y-32357142D01*
X68654761Y-32380952D01*
X68702380Y-32428571D01*
X68726190Y-32500000D01*
X68726190Y-32619047D01*
X76750000Y-33380952D02*
X76726190Y-33428571D01*
X76726190Y-33500000D01*
X76750000Y-33571428D01*
X76797619Y-33619047D01*
X76845238Y-33642857D01*
X76940476Y-33666666D01*
X77011904Y-33666666D01*
X77107142Y-33642857D01*
X77154761Y-33619047D01*
X77202380Y-33571428D01*
X77226190Y-33500000D01*
X77226190Y-33452380D01*
X77202380Y-33380952D01*
X77178571Y-33357142D01*
X77011904Y-33357142D01*
X77011904Y-33452380D01*
X77226190Y-33142857D02*
X76726190Y-33142857D01*
X77226190Y-32857142D01*
X76726190Y-32857142D01*
X77226190Y-32619047D02*
X76726190Y-32619047D01*
X76726190Y-32500000D01*
X76750000Y-32428571D01*
X76797619Y-32380952D01*
X76845238Y-32357142D01*
X76940476Y-32333333D01*
X77011904Y-32333333D01*
X77107142Y-32357142D01*
X77154761Y-32380952D01*
X77202380Y-32428571D01*
X77226190Y-32500000D01*
X77226190Y-32619047D01*
X85250000Y-33380952D02*
X85226190Y-33428571D01*
X85226190Y-33500000D01*
X85250000Y-33571428D01*
X85297619Y-33619047D01*
X85345238Y-33642857D01*
X85440476Y-33666666D01*
X85511904Y-33666666D01*
X85607142Y-33642857D01*
X85654761Y-33619047D01*
X85702380Y-33571428D01*
X85726190Y-33500000D01*
X85726190Y-33452380D01*
X85702380Y-33380952D01*
X85678571Y-33357142D01*
X85511904Y-33357142D01*
X85511904Y-33452380D01*
X85726190Y-33142857D02*
X85226190Y-33142857D01*
X85726190Y-32857142D01*
X85226190Y-32857142D01*
X85726190Y-32619047D02*
X85226190Y-32619047D01*
X85226190Y-32500000D01*
X85250000Y-32428571D01*
X85297619Y-32380952D01*
X85345238Y-32357142D01*
X85440476Y-32333333D01*
X85511904Y-32333333D01*
X85607142Y-32357142D01*
X85654761Y-32380952D01*
X85702380Y-32428571D01*
X85726190Y-32500000D01*
X85726190Y-32619047D01*
X93750000Y-33380952D02*
X93726190Y-33428571D01*
X93726190Y-33500000D01*
X93750000Y-33571428D01*
X93797619Y-33619047D01*
X93845238Y-33642857D01*
X93940476Y-33666666D01*
X94011904Y-33666666D01*
X94107142Y-33642857D01*
X94154761Y-33619047D01*
X94202380Y-33571428D01*
X94226190Y-33500000D01*
X94226190Y-33452380D01*
X94202380Y-33380952D01*
X94178571Y-33357142D01*
X94011904Y-33357142D01*
X94011904Y-33452380D01*
X94226190Y-33142857D02*
X93726190Y-33142857D01*
X94226190Y-32857142D01*
X93726190Y-32857142D01*
X94226190Y-32619047D02*
X93726190Y-32619047D01*
X93726190Y-32500000D01*
X93750000Y-32428571D01*
X93797619Y-32380952D01*
X93845238Y-32357142D01*
X93940476Y-32333333D01*
X94011904Y-32333333D01*
X94107142Y-32357142D01*
X94154761Y-32380952D01*
X94202380Y-32428571D01*
X94226190Y-32500000D01*
X94226190Y-32619047D01*
X102250000Y-33380952D02*
X102226190Y-33428571D01*
X102226190Y-33500000D01*
X102250000Y-33571428D01*
X102297619Y-33619047D01*
X102345238Y-33642857D01*
X102440476Y-33666666D01*
X102511904Y-33666666D01*
X102607142Y-33642857D01*
X102654761Y-33619047D01*
X102702380Y-33571428D01*
X102726190Y-33500000D01*
X102726190Y-33452380D01*
X102702380Y-33380952D01*
X102678571Y-33357142D01*
X102511904Y-33357142D01*
X102511904Y-33452380D01*
X102726190Y-33142857D02*
X102226190Y-33142857D01*
X102726190Y-32857142D01*
X102226190Y-32857142D01*
X102726190Y-32619047D02*
X102226190Y-32619047D01*
X102226190Y-32500000D01*
X102250000Y-32428571D01*
X102297619Y-32380952D01*
X102345238Y-32357142D01*
X102440476Y-32333333D01*
X102511904Y-32333333D01*
X102607142Y-32357142D01*
X102654761Y-32380952D01*
X102702380Y-32428571D01*
X102726190Y-32500000D01*
X102726190Y-32619047D01*
X106750000Y-33380952D02*
X106726190Y-33428571D01*
X106726190Y-33500000D01*
X106750000Y-33571428D01*
X106797619Y-33619047D01*
X106845238Y-33642857D01*
X106940476Y-33666666D01*
X107011904Y-33666666D01*
X107107142Y-33642857D01*
X107154761Y-33619047D01*
X107202380Y-33571428D01*
X107226190Y-33500000D01*
X107226190Y-33452380D01*
X107202380Y-33380952D01*
X107178571Y-33357142D01*
X107011904Y-33357142D01*
X107011904Y-33452380D01*
X107226190Y-33142857D02*
X106726190Y-33142857D01*
X107226190Y-32857142D01*
X106726190Y-32857142D01*
X107226190Y-32619047D02*
X106726190Y-32619047D01*
X106726190Y-32500000D01*
X106750000Y-32428571D01*
X106797619Y-32380952D01*
X106845238Y-32357142D01*
X106940476Y-32333333D01*
X107011904Y-32333333D01*
X107107142Y-32357142D01*
X107154761Y-32380952D01*
X107202380Y-32428571D01*
X107226190Y-32500000D01*
X107226190Y-32619047D01*
D10*
X55308571Y-54902857D02*
X55308571Y-54569523D01*
X55832380Y-54426666D02*
X55832380Y-54902857D01*
X54832380Y-54902857D01*
X54832380Y-54426666D01*
X55784761Y-54045714D02*
X55832380Y-53902857D01*
X55832380Y-53664761D01*
X55784761Y-53569523D01*
X55737142Y-53521904D01*
X55641904Y-53474285D01*
X55546666Y-53474285D01*
X55451428Y-53521904D01*
X55403809Y-53569523D01*
X55356190Y-53664761D01*
X55308571Y-53855238D01*
X55260952Y-53950476D01*
X55213333Y-53998095D01*
X55118095Y-54045714D01*
X55022857Y-54045714D01*
X54927619Y-53998095D01*
X54880000Y-53950476D01*
X54832380Y-53855238D01*
X54832380Y-53617142D01*
X54880000Y-53474285D01*
X55832380Y-53045714D02*
X54832380Y-53045714D01*
X54832380Y-52664761D01*
X54880000Y-52569523D01*
X54927619Y-52521904D01*
X55022857Y-52474285D01*
X55165714Y-52474285D01*
X55260952Y-52521904D01*
X55308571Y-52569523D01*
X55356190Y-52664761D01*
X55356190Y-53045714D01*
X54832380Y-52140952D02*
X54832380Y-51521904D01*
X55213333Y-51855238D01*
X55213333Y-51712380D01*
X55260952Y-51617142D01*
X55308571Y-51569523D01*
X55403809Y-51521904D01*
X55641904Y-51521904D01*
X55737142Y-51569523D01*
X55784761Y-51617142D01*
X55832380Y-51712380D01*
X55832380Y-51998095D01*
X55784761Y-52093333D01*
X55737142Y-52140952D01*
X54927619Y-51140952D02*
X54880000Y-51093333D01*
X54832380Y-50998095D01*
X54832380Y-50760000D01*
X54880000Y-50664761D01*
X54927619Y-50617142D01*
X55022857Y-50569523D01*
X55118095Y-50569523D01*
X55260952Y-50617142D01*
X55832380Y-51188571D01*
X55832380Y-50569523D01*
D12*
X55940000Y-88600000D02*
X79940000Y-88600000D01*
X55940000Y-110600000D02*
X55940000Y-88600000D01*
X80140000Y-110600000D02*
X79940000Y-88600000D01*
X55940000Y-110600000D02*
X80140000Y-110600000D01*
X104375000Y-66710000D02*
X49375000Y-66710000D01*
X49375000Y-38710000D02*
X49375000Y-66710000D01*
X49375000Y-38710000D02*
X104375000Y-38710000D01*
X104375000Y-66710000D02*
X104375000Y-38710000D01*
D13*
X108375119Y-79865848D02*
G75*
G03X108375119Y-79865848I-13061045J0D01*
G01*
X81375119Y-79865848D02*
G75*
G03X81375119Y-79865848I-13061045J0D01*
G01*
X108375119Y-52865848D02*
G75*
G03X108375119Y-52865848I-13061045J0D01*
G01*
X81375119Y-52865848D02*
G75*
G03X81375119Y-52865848I-13061045J0D01*
G01*
D12*
X53000000Y-64700000D02*
G75*
G03X53000000Y-64700000I-1100000J0D01*
G01*
X53000000Y-40700000D02*
G75*
G03X53000000Y-40700000I-1100000J0D01*
G01*
X104000000Y-64700000D02*
G75*
G03X104000000Y-64700000I-1100000J0D01*
G01*
X104000000Y-40700000D02*
G75*
G03X104000000Y-40700000I-1100000J0D01*
G01*
X124800000Y-59600000D02*
X124800000Y-63125000D01*
X119000000Y-59600000D02*
X124800000Y-59600000D01*
X119000000Y-60750000D02*
X119000000Y-59600000D01*
X119300000Y-60750000D02*
X119000000Y-60750000D01*
X119300000Y-63125000D02*
X119300000Y-60750000D01*
X124800000Y-66650000D02*
X124800000Y-63125000D01*
X119000000Y-66650000D02*
X124800000Y-66650000D01*
X119000000Y-65500000D02*
X119000000Y-66650000D01*
X119300000Y-65500000D02*
X119000000Y-65500000D01*
X119300000Y-63125000D02*
X119300000Y-65500000D01*
X118750000Y-65250000D02*
X118750000Y-65750000D01*
X119050000Y-65250000D02*
X118750000Y-65250000D01*
X118675000Y-86050000D02*
X118675000Y-87050000D01*
X118675000Y-86050000D02*
X119675000Y-86050000D01*
X121875000Y-92800000D02*
X121875000Y-89825000D01*
X121000000Y-92800000D02*
X121875000Y-92800000D01*
X121000000Y-93000000D02*
X121000000Y-92800000D01*
X120200000Y-93000000D02*
X121000000Y-93000000D01*
X120200000Y-92800000D02*
X120200000Y-93000000D01*
X119475000Y-92800000D02*
X120200000Y-92800000D01*
X119475000Y-89825000D02*
X119475000Y-92800000D01*
X121875000Y-86850000D02*
X121875000Y-89825000D01*
X121000000Y-86850000D02*
X121875000Y-86850000D01*
X121000000Y-86650000D02*
X121000000Y-86850000D01*
X120200000Y-86650000D02*
X121000000Y-86650000D01*
X120200000Y-86850000D02*
X120200000Y-86650000D01*
X119475000Y-86850000D02*
X120200000Y-86850000D01*
X119475000Y-89825000D02*
X119475000Y-86850000D01*
X122425000Y-93350000D02*
X122425000Y-86300000D01*
X118925000Y-93350000D02*
X122425000Y-93350000D01*
X118925000Y-86300000D02*
X118925000Y-93350000D01*
X122425000Y-86300000D02*
X118925000Y-86300000D01*
X94250000Y-31750000D02*
X94250000Y-32050000D01*
X94250000Y-32050000D02*
X94750000Y-32050000D01*
X92125000Y-31500000D02*
X94500000Y-31500000D01*
X94500000Y-31500000D02*
X94500000Y-31800000D01*
X94500000Y-31800000D02*
X95650000Y-31800000D01*
X95650000Y-31800000D02*
X95650000Y-26000000D01*
X95650000Y-26000000D02*
X92125000Y-26000000D01*
X92125000Y-31500000D02*
X89750000Y-31500000D01*
X89750000Y-31500000D02*
X89750000Y-31800000D01*
X89750000Y-31800000D02*
X88600000Y-31800000D01*
X88600000Y-31800000D02*
X88600000Y-26000000D01*
X88600000Y-26000000D02*
X92125000Y-26000000D01*
X106440353Y-85365848D02*
G75*
G03X106440353Y-85365848I-1600000J0D01*
G01*
X87387794Y-85365848D02*
G75*
G03X87387794Y-85365848I-1600000J0D01*
G01*
X87387794Y-74365848D02*
G75*
G03X87387794Y-74365848I-1600000J0D01*
G01*
X79440353Y-74365848D02*
G75*
G03X79440353Y-74365848I-1600000J0D01*
G01*
X79440353Y-85365848D02*
G75*
G03X79440353Y-85365848I-1600000J0D01*
G01*
X60387794Y-85365848D02*
G75*
G03X60387794Y-85365848I-1600000J0D01*
G01*
X60387794Y-74365848D02*
G75*
G03X60387794Y-74365848I-1600000J0D01*
G01*
X106440353Y-47365848D02*
G75*
G03X106440353Y-47365848I-1600000J0D01*
G01*
X106440353Y-58365848D02*
G75*
G03X106440353Y-58365848I-1600000J0D01*
G01*
X87387794Y-58365848D02*
G75*
G03X87387794Y-58365848I-1600000J0D01*
G01*
X87387794Y-47365848D02*
G75*
G03X87387794Y-47365848I-1600000J0D01*
G01*
X79440353Y-47365848D02*
G75*
G03X79440353Y-47365848I-1600000J0D01*
G01*
X79440353Y-58365848D02*
G75*
G03X79440353Y-58365848I-1600000J0D01*
G01*
X60387794Y-58365848D02*
G75*
G03X60387794Y-58365848I-1600000J0D01*
G01*
X60387794Y-47365848D02*
G75*
G03X60387794Y-47365848I-1600000J0D01*
G01*
X106440353Y-74365848D02*
G75*
G03X106440353Y-74365848I-1600000J0D01*
G01*
X110350000Y-43250000D02*
X111350000Y-43250000D01*
X111350000Y-41550000D02*
X110350000Y-41550000D01*
X119050000Y-74250000D02*
X118750000Y-74250000D01*
X118750000Y-74250000D02*
X118750000Y-74750000D01*
X119300000Y-72125000D02*
X119300000Y-74500000D01*
X119300000Y-74500000D02*
X119000000Y-74500000D01*
X119000000Y-74500000D02*
X119000000Y-75650000D01*
X119000000Y-75650000D02*
X124800000Y-75650000D01*
X124800000Y-75650000D02*
X124800000Y-72125000D01*
X119300000Y-72125000D02*
X119300000Y-69750000D01*
X119300000Y-69750000D02*
X119000000Y-69750000D01*
X119000000Y-69750000D02*
X119000000Y-68600000D01*
X119000000Y-68600000D02*
X124800000Y-68600000D01*
X124800000Y-68600000D02*
X124800000Y-72125000D01*
X42140000Y-29650000D02*
G75*
G03X42140000Y-29650000I-3200000J0D01*
G01*
X42140000Y-103310000D02*
G75*
G03X42140000Y-103310000I-3200000J0D01*
G01*
X127870000Y-27090000D02*
G75*
G03X127870000Y-27090000I-3200000J0D01*
G01*
X127860000Y-107100000D02*
G75*
G03X127860000Y-107100000I-3200000J0D01*
G01*
X53110000Y-38920000D02*
X53110000Y-41580000D01*
X98890000Y-38920000D02*
X53110000Y-38920000D01*
X98890000Y-41580000D02*
X53110000Y-41580000D01*
X98890000Y-38920000D02*
X98890000Y-41580000D01*
X100160000Y-38920000D02*
X101490000Y-38920000D01*
X101490000Y-38920000D02*
X101490000Y-40250000D01*
X53170000Y-66580000D02*
X53170000Y-65250000D01*
X54500000Y-66580000D02*
X53170000Y-66580000D01*
X55770000Y-66580000D02*
X55770000Y-63920000D01*
X55770000Y-63920000D02*
X101550000Y-63920000D01*
X55770000Y-66580000D02*
X101550000Y-66580000D01*
X101550000Y-66580000D02*
X101550000Y-63920000D01*
X52900000Y-105875000D02*
X51900000Y-105875000D01*
X52900000Y-105875000D02*
X52900000Y-106875000D01*
X43650000Y-109075000D02*
X47875000Y-109075000D01*
X43650000Y-108200000D02*
X43650000Y-109075000D01*
X43450000Y-108200000D02*
X43650000Y-108200000D01*
X43450000Y-107400000D02*
X43450000Y-108200000D01*
X43650000Y-107400000D02*
X43450000Y-107400000D01*
X43650000Y-106675000D02*
X43650000Y-107400000D01*
X47875000Y-106675000D02*
X43650000Y-106675000D01*
X52100000Y-109075000D02*
X47875000Y-109075000D01*
X52100000Y-108200000D02*
X52100000Y-109075000D01*
X52300000Y-108200000D02*
X52100000Y-108200000D01*
X52300000Y-107400000D02*
X52300000Y-108200000D01*
X52100000Y-107400000D02*
X52300000Y-107400000D01*
X52100000Y-106675000D02*
X52100000Y-107400000D01*
X47875000Y-106675000D02*
X52100000Y-106675000D01*
X43100000Y-109625000D02*
X52650000Y-109625000D01*
X43100000Y-106125000D02*
X43100000Y-109625000D01*
X52650000Y-106125000D02*
X43100000Y-106125000D01*
X52650000Y-109625000D02*
X52650000Y-106125000D01*
X59080000Y-88930000D02*
X56420000Y-88930000D01*
X59080000Y-104230000D02*
X59080000Y-88930000D01*
X56420000Y-104230000D02*
X56420000Y-88930000D01*
X59080000Y-104230000D02*
X56420000Y-104230000D01*
X59080000Y-105500000D02*
X59080000Y-106830000D01*
X59080000Y-106830000D02*
X57750000Y-106830000D01*
X82275000Y-104650000D02*
X85775000Y-104650000D01*
X85775000Y-104650000D02*
X85775000Y-95100000D01*
X85775000Y-95100000D02*
X82275000Y-95100000D01*
X82275000Y-95100000D02*
X82275000Y-104650000D01*
X85225000Y-99875000D02*
X85225000Y-104100000D01*
X85225000Y-104100000D02*
X84500000Y-104100000D01*
X84500000Y-104100000D02*
X84500000Y-104300000D01*
X84500000Y-104300000D02*
X83700000Y-104300000D01*
X83700000Y-104300000D02*
X83700000Y-104100000D01*
X83700000Y-104100000D02*
X82825000Y-104100000D01*
X82825000Y-104100000D02*
X82825000Y-99875000D01*
X85225000Y-99875000D02*
X85225000Y-95650000D01*
X85225000Y-95650000D02*
X84500000Y-95650000D01*
X84500000Y-95650000D02*
X84500000Y-95450000D01*
X84500000Y-95450000D02*
X83700000Y-95450000D01*
X83700000Y-95450000D02*
X83700000Y-95650000D01*
X83700000Y-95650000D02*
X82825000Y-95650000D01*
X82825000Y-95650000D02*
X82825000Y-99875000D01*
X86025000Y-104900000D02*
X85025000Y-104900000D01*
X86025000Y-104900000D02*
X86025000Y-103900000D01*
X97100000Y-26000000D02*
X100625000Y-26000000D01*
X97100000Y-31800000D02*
X97100000Y-26000000D01*
X98250000Y-31800000D02*
X97100000Y-31800000D01*
X98250000Y-31500000D02*
X98250000Y-31800000D01*
X100625000Y-31500000D02*
X98250000Y-31500000D01*
X104150000Y-26000000D02*
X100625000Y-26000000D01*
X104150000Y-31800000D02*
X104150000Y-26000000D01*
X103000000Y-31800000D02*
X104150000Y-31800000D01*
X103000000Y-31500000D02*
X103000000Y-31800000D01*
X100625000Y-31500000D02*
X103000000Y-31500000D01*
X102750000Y-32050000D02*
X103250000Y-32050000D01*
X102750000Y-31750000D02*
X102750000Y-32050000D01*
X119050000Y-56250000D02*
X118750000Y-56250000D01*
X118750000Y-56250000D02*
X118750000Y-56750000D01*
X119300000Y-54125000D02*
X119300000Y-56500000D01*
X119300000Y-56500000D02*
X119000000Y-56500000D01*
X119000000Y-56500000D02*
X119000000Y-57650000D01*
X119000000Y-57650000D02*
X124800000Y-57650000D01*
X124800000Y-57650000D02*
X124800000Y-54125000D01*
X119300000Y-54125000D02*
X119300000Y-51750000D01*
X119300000Y-51750000D02*
X119000000Y-51750000D01*
X119000000Y-51750000D02*
X119000000Y-50600000D01*
X119000000Y-50600000D02*
X124800000Y-50600000D01*
X124800000Y-50600000D02*
X124800000Y-54125000D01*
X113750000Y-31750000D02*
X113750000Y-32050000D01*
X113750000Y-32050000D02*
X114250000Y-32050000D01*
X110375000Y-31500000D02*
X114000000Y-31500000D01*
X114000000Y-31500000D02*
X114000000Y-31800000D01*
X114000000Y-31800000D02*
X115150000Y-31800000D01*
X115150000Y-31800000D02*
X115150000Y-26000000D01*
X115150000Y-26000000D02*
X110375000Y-26000000D01*
X110375000Y-31500000D02*
X106750000Y-31500000D01*
X106750000Y-31500000D02*
X106750000Y-31800000D01*
X106750000Y-31800000D02*
X105600000Y-31800000D01*
X105600000Y-31800000D02*
X105600000Y-26000000D01*
X105600000Y-26000000D02*
X110375000Y-26000000D01*
X124800000Y-39100000D02*
X124800000Y-43875000D01*
X119000000Y-39100000D02*
X124800000Y-39100000D01*
X119000000Y-40250000D02*
X119000000Y-39100000D01*
X119300000Y-40250000D02*
X119000000Y-40250000D01*
X119300000Y-43875000D02*
X119300000Y-40250000D01*
X124800000Y-48650000D02*
X124800000Y-43875000D01*
X119000000Y-48650000D02*
X124800000Y-48650000D01*
X119000000Y-47500000D02*
X119000000Y-48650000D01*
X119300000Y-47500000D02*
X119000000Y-47500000D01*
X119300000Y-43875000D02*
X119300000Y-47500000D01*
X118750000Y-47250000D02*
X118750000Y-47750000D01*
X119050000Y-47250000D02*
X118750000Y-47250000D01*
X118400000Y-107200000D02*
X114875000Y-107200000D01*
X118400000Y-101400000D02*
X118400000Y-107200000D01*
X117250000Y-101400000D02*
X118400000Y-101400000D01*
X117250000Y-101700000D02*
X117250000Y-101400000D01*
X114875000Y-101700000D02*
X117250000Y-101700000D01*
X111350000Y-107200000D02*
X114875000Y-107200000D01*
X111350000Y-101400000D02*
X111350000Y-107200000D01*
X112500000Y-101400000D02*
X111350000Y-101400000D01*
X112500000Y-101700000D02*
X112500000Y-101400000D01*
X114875000Y-101700000D02*
X112500000Y-101700000D01*
X112750000Y-101150000D02*
X112250000Y-101150000D01*
X112750000Y-101450000D02*
X112750000Y-101150000D01*
X85750000Y-31750000D02*
X85750000Y-32050000D01*
X85750000Y-32050000D02*
X86250000Y-32050000D01*
X83625000Y-31500000D02*
X86000000Y-31500000D01*
X86000000Y-31500000D02*
X86000000Y-31800000D01*
X86000000Y-31800000D02*
X87150000Y-31800000D01*
X87150000Y-31800000D02*
X87150000Y-26000000D01*
X87150000Y-26000000D02*
X83625000Y-26000000D01*
X83625000Y-31500000D02*
X81250000Y-31500000D01*
X81250000Y-31500000D02*
X81250000Y-31800000D01*
X81250000Y-31800000D02*
X80100000Y-31800000D01*
X80100000Y-31800000D02*
X80100000Y-26000000D01*
X80100000Y-26000000D02*
X83625000Y-26000000D01*
X124800000Y-77600000D02*
X124800000Y-81125000D01*
X119000000Y-77600000D02*
X124800000Y-77600000D01*
X119000000Y-78750000D02*
X119000000Y-77600000D01*
X119300000Y-78750000D02*
X119000000Y-78750000D01*
X119300000Y-81125000D02*
X119300000Y-78750000D01*
X124800000Y-84650000D02*
X124800000Y-81125000D01*
X119000000Y-84650000D02*
X124800000Y-84650000D01*
X119000000Y-83500000D02*
X119000000Y-84650000D01*
X119300000Y-83500000D02*
X119000000Y-83500000D01*
X119300000Y-81125000D02*
X119300000Y-83500000D01*
X118750000Y-83250000D02*
X118750000Y-83750000D01*
X119050000Y-83250000D02*
X118750000Y-83250000D01*
X68750000Y-31750000D02*
X68750000Y-32050000D01*
X68750000Y-32050000D02*
X69250000Y-32050000D01*
X66625000Y-31500000D02*
X69000000Y-31500000D01*
X69000000Y-31500000D02*
X69000000Y-31800000D01*
X69000000Y-31800000D02*
X70150000Y-31800000D01*
X70150000Y-31800000D02*
X70150000Y-26000000D01*
X70150000Y-26000000D02*
X66625000Y-26000000D01*
X66625000Y-31500000D02*
X64250000Y-31500000D01*
X64250000Y-31500000D02*
X64250000Y-31800000D01*
X64250000Y-31800000D02*
X63100000Y-31800000D01*
X63100000Y-31800000D02*
X63100000Y-26000000D01*
X63100000Y-26000000D02*
X66625000Y-26000000D01*
X71600000Y-26000000D02*
X75125000Y-26000000D01*
X71600000Y-31800000D02*
X71600000Y-26000000D01*
X72750000Y-31800000D02*
X71600000Y-31800000D01*
X72750000Y-31500000D02*
X72750000Y-31800000D01*
X75125000Y-31500000D02*
X72750000Y-31500000D01*
X78650000Y-26000000D02*
X75125000Y-26000000D01*
X78650000Y-31800000D02*
X78650000Y-26000000D01*
X77500000Y-31800000D02*
X78650000Y-31800000D01*
X77500000Y-31500000D02*
X77500000Y-31800000D01*
X75125000Y-31500000D02*
X77500000Y-31500000D01*
X77250000Y-32050000D02*
X77750000Y-32050000D01*
X77250000Y-31750000D02*
X77250000Y-32050000D01*
D10*
X122652380Y-63909523D02*
X123366666Y-63909523D01*
X123509523Y-63957142D01*
X123604761Y-64052380D01*
X123652380Y-64195238D01*
X123652380Y-64290476D01*
X122985714Y-63004761D02*
X123652380Y-63004761D01*
X122604761Y-63242857D02*
X123319047Y-63480952D01*
X123319047Y-62861904D01*
X122747619Y-62528571D02*
X122700000Y-62480952D01*
X122652380Y-62385714D01*
X122652380Y-62147619D01*
X122700000Y-62052380D01*
X122747619Y-62004761D01*
X122842857Y-61957142D01*
X122938095Y-61957142D01*
X123080952Y-62004761D01*
X123652380Y-62576190D01*
X123652380Y-61957142D01*
X120952380Y-90634523D02*
X121666666Y-90634523D01*
X121809523Y-90682142D01*
X121904761Y-90777380D01*
X121952380Y-90920238D01*
X121952380Y-91015476D01*
X120952380Y-90253571D02*
X120952380Y-89634523D01*
X121333333Y-89967857D01*
X121333333Y-89825000D01*
X121380952Y-89729761D01*
X121428571Y-89682142D01*
X121523809Y-89634523D01*
X121761904Y-89634523D01*
X121857142Y-89682142D01*
X121904761Y-89729761D01*
X121952380Y-89825000D01*
X121952380Y-90110714D01*
X121904761Y-90205952D01*
X121857142Y-90253571D01*
X120952380Y-88729761D02*
X120952380Y-89205952D01*
X121428571Y-89253571D01*
X121380952Y-89205952D01*
X121333333Y-89110714D01*
X121333333Y-88872619D01*
X121380952Y-88777380D01*
X121428571Y-88729761D01*
X121523809Y-88682142D01*
X121761904Y-88682142D01*
X121857142Y-88729761D01*
X121904761Y-88777380D01*
X121952380Y-88872619D01*
X121952380Y-89110714D01*
X121904761Y-89205952D01*
X121857142Y-89253571D01*
X91315476Y-27052380D02*
X91315476Y-27766666D01*
X91267857Y-27909523D01*
X91172619Y-28004761D01*
X91029761Y-28052380D01*
X90934523Y-28052380D01*
X91696428Y-27052380D02*
X92315476Y-27052380D01*
X91982142Y-27433333D01*
X92125000Y-27433333D01*
X92220238Y-27480952D01*
X92267857Y-27528571D01*
X92315476Y-27623809D01*
X92315476Y-27861904D01*
X92267857Y-27957142D01*
X92220238Y-28004761D01*
X92125000Y-28052380D01*
X91839285Y-28052380D01*
X91744047Y-28004761D01*
X91696428Y-27957142D01*
X92791666Y-28052380D02*
X92982142Y-28052380D01*
X93077380Y-28004761D01*
X93125000Y-27957142D01*
X93220238Y-27814285D01*
X93267857Y-27623809D01*
X93267857Y-27242857D01*
X93220238Y-27147619D01*
X93172619Y-27100000D01*
X93077380Y-27052380D01*
X92886904Y-27052380D01*
X92791666Y-27100000D01*
X92744047Y-27147619D01*
X92696428Y-27242857D01*
X92696428Y-27480952D01*
X92744047Y-27576190D01*
X92791666Y-27623809D01*
X92886904Y-27671428D01*
X93077380Y-27671428D01*
X93172619Y-27623809D01*
X93220238Y-27576190D01*
X93267857Y-27480952D01*
X110683333Y-41007142D02*
X110635714Y-41054761D01*
X110492857Y-41102380D01*
X110397619Y-41102380D01*
X110254761Y-41054761D01*
X110159523Y-40959523D01*
X110111904Y-40864285D01*
X110064285Y-40673809D01*
X110064285Y-40530952D01*
X110111904Y-40340476D01*
X110159523Y-40245238D01*
X110254761Y-40150000D01*
X110397619Y-40102380D01*
X110492857Y-40102380D01*
X110635714Y-40150000D01*
X110683333Y-40197619D01*
X111635714Y-41102380D02*
X111064285Y-41102380D01*
X111350000Y-41102380D02*
X111350000Y-40102380D01*
X111254761Y-40245238D01*
X111159523Y-40340476D01*
X111064285Y-40388095D01*
X122652380Y-72909523D02*
X123366666Y-72909523D01*
X123509523Y-72957142D01*
X123604761Y-73052380D01*
X123652380Y-73195238D01*
X123652380Y-73290476D01*
X122985714Y-72004761D02*
X123652380Y-72004761D01*
X122604761Y-72242857D02*
X123319047Y-72480952D01*
X123319047Y-71861904D01*
X122652380Y-71576190D02*
X122652380Y-70957142D01*
X123033333Y-71290476D01*
X123033333Y-71147619D01*
X123080952Y-71052380D01*
X123128571Y-71004761D01*
X123223809Y-70957142D01*
X123461904Y-70957142D01*
X123557142Y-71004761D01*
X123604761Y-71052380D01*
X123652380Y-71147619D01*
X123652380Y-71433333D01*
X123604761Y-71528571D01*
X123557142Y-71576190D01*
X101942380Y-40583333D02*
X102656666Y-40583333D01*
X102799523Y-40630952D01*
X102894761Y-40726190D01*
X102942380Y-40869047D01*
X102942380Y-40964285D01*
X101942380Y-40202380D02*
X101942380Y-39583333D01*
X102323333Y-39916666D01*
X102323333Y-39773809D01*
X102370952Y-39678571D01*
X102418571Y-39630952D01*
X102513809Y-39583333D01*
X102751904Y-39583333D01*
X102847142Y-39630952D01*
X102894761Y-39678571D01*
X102942380Y-39773809D01*
X102942380Y-40059523D01*
X102894761Y-40154761D01*
X102847142Y-40202380D01*
X51622380Y-65583333D02*
X52336666Y-65583333D01*
X52479523Y-65630952D01*
X52574761Y-65726190D01*
X52622380Y-65869047D01*
X52622380Y-65964285D01*
X51622380Y-64678571D02*
X51622380Y-64869047D01*
X51670000Y-64964285D01*
X51717619Y-65011904D01*
X51860476Y-65107142D01*
X52050952Y-65154761D01*
X52431904Y-65154761D01*
X52527142Y-65107142D01*
X52574761Y-65059523D01*
X52622380Y-64964285D01*
X52622380Y-64773809D01*
X52574761Y-64678571D01*
X52527142Y-64630952D01*
X52431904Y-64583333D01*
X52193809Y-64583333D01*
X52098571Y-64630952D01*
X52050952Y-64678571D01*
X52003333Y-64773809D01*
X52003333Y-64964285D01*
X52050952Y-65059523D01*
X52098571Y-65107142D01*
X52193809Y-65154761D01*
X47090476Y-108152380D02*
X47090476Y-108866666D01*
X47042857Y-109009523D01*
X46947619Y-109104761D01*
X46804761Y-109152380D01*
X46709523Y-109152380D01*
X47995238Y-108485714D02*
X47995238Y-109152380D01*
X47757142Y-108104761D02*
X47519047Y-108819047D01*
X48138095Y-108819047D01*
X48947619Y-108152380D02*
X48757142Y-108152380D01*
X48661904Y-108200000D01*
X48614285Y-108247619D01*
X48519047Y-108390476D01*
X48471428Y-108580952D01*
X48471428Y-108961904D01*
X48519047Y-109057142D01*
X48566666Y-109104761D01*
X48661904Y-109152380D01*
X48852380Y-109152380D01*
X48947619Y-109104761D01*
X48995238Y-109057142D01*
X49042857Y-108961904D01*
X49042857Y-108723809D01*
X48995238Y-108628571D01*
X48947619Y-108580952D01*
X48852380Y-108533333D01*
X48661904Y-108533333D01*
X48566666Y-108580952D01*
X48519047Y-108628571D01*
X48471428Y-108723809D01*
X56940476Y-107282380D02*
X56940476Y-107996666D01*
X56892857Y-108139523D01*
X56797619Y-108234761D01*
X56654761Y-108282380D01*
X56559523Y-108282380D01*
X57845238Y-107615714D02*
X57845238Y-108282380D01*
X57607142Y-107234761D02*
X57369047Y-107949047D01*
X57988095Y-107949047D01*
X58273809Y-107282380D02*
X58940476Y-107282380D01*
X58511904Y-108282380D01*
X82652380Y-100684523D02*
X83366666Y-100684523D01*
X83509523Y-100732142D01*
X83604761Y-100827380D01*
X83652380Y-100970238D01*
X83652380Y-101065476D01*
X82985714Y-99779761D02*
X83652380Y-99779761D01*
X82604761Y-100017857D02*
X83319047Y-100255952D01*
X83319047Y-99636904D01*
X83080952Y-99113095D02*
X83033333Y-99208333D01*
X82985714Y-99255952D01*
X82890476Y-99303571D01*
X82842857Y-99303571D01*
X82747619Y-99255952D01*
X82700000Y-99208333D01*
X82652380Y-99113095D01*
X82652380Y-98922619D01*
X82700000Y-98827380D01*
X82747619Y-98779761D01*
X82842857Y-98732142D01*
X82890476Y-98732142D01*
X82985714Y-98779761D01*
X83033333Y-98827380D01*
X83080952Y-98922619D01*
X83080952Y-99113095D01*
X83128571Y-99208333D01*
X83176190Y-99255952D01*
X83271428Y-99303571D01*
X83461904Y-99303571D01*
X83557142Y-99255952D01*
X83604761Y-99208333D01*
X83652380Y-99113095D01*
X83652380Y-98922619D01*
X83604761Y-98827380D01*
X83557142Y-98779761D01*
X83461904Y-98732142D01*
X83271428Y-98732142D01*
X83176190Y-98779761D01*
X83128571Y-98827380D01*
X83080952Y-98922619D01*
X99815476Y-27052380D02*
X99815476Y-27766666D01*
X99767857Y-27909523D01*
X99672619Y-28004761D01*
X99529761Y-28052380D01*
X99434523Y-28052380D01*
X100720238Y-27385714D02*
X100720238Y-28052380D01*
X100482142Y-27004761D02*
X100244047Y-27719047D01*
X100863095Y-27719047D01*
X101434523Y-27052380D02*
X101529761Y-27052380D01*
X101625000Y-27100000D01*
X101672619Y-27147619D01*
X101720238Y-27242857D01*
X101767857Y-27433333D01*
X101767857Y-27671428D01*
X101720238Y-27861904D01*
X101672619Y-27957142D01*
X101625000Y-28004761D01*
X101529761Y-28052380D01*
X101434523Y-28052380D01*
X101339285Y-28004761D01*
X101291666Y-27957142D01*
X101244047Y-27861904D01*
X101196428Y-27671428D01*
X101196428Y-27433333D01*
X101244047Y-27242857D01*
X101291666Y-27147619D01*
X101339285Y-27100000D01*
X101434523Y-27052380D01*
X122652380Y-54934523D02*
X123366666Y-54934523D01*
X123509523Y-54982142D01*
X123604761Y-55077380D01*
X123652380Y-55220238D01*
X123652380Y-55315476D01*
X122985714Y-54029761D02*
X123652380Y-54029761D01*
X122604761Y-54267857D02*
X123319047Y-54505952D01*
X123319047Y-53886904D01*
X123652380Y-52982142D02*
X123652380Y-53553571D01*
X123652380Y-53267857D02*
X122652380Y-53267857D01*
X122795238Y-53363095D01*
X122890476Y-53458333D01*
X122938095Y-53553571D01*
X109565476Y-27052380D02*
X109565476Y-27766666D01*
X109517857Y-27909523D01*
X109422619Y-28004761D01*
X109279761Y-28052380D01*
X109184523Y-28052380D01*
X109994047Y-27147619D02*
X110041666Y-27100000D01*
X110136904Y-27052380D01*
X110375000Y-27052380D01*
X110470238Y-27100000D01*
X110517857Y-27147619D01*
X110565476Y-27242857D01*
X110565476Y-27338095D01*
X110517857Y-27480952D01*
X109946428Y-28052380D01*
X110565476Y-28052380D01*
X111136904Y-27480952D02*
X111041666Y-27433333D01*
X110994047Y-27385714D01*
X110946428Y-27290476D01*
X110946428Y-27242857D01*
X110994047Y-27147619D01*
X111041666Y-27100000D01*
X111136904Y-27052380D01*
X111327380Y-27052380D01*
X111422619Y-27100000D01*
X111470238Y-27147619D01*
X111517857Y-27242857D01*
X111517857Y-27290476D01*
X111470238Y-27385714D01*
X111422619Y-27433333D01*
X111327380Y-27480952D01*
X111136904Y-27480952D01*
X111041666Y-27528571D01*
X110994047Y-27576190D01*
X110946428Y-27671428D01*
X110946428Y-27861904D01*
X110994047Y-27957142D01*
X111041666Y-28004761D01*
X111136904Y-28052380D01*
X111327380Y-28052380D01*
X111422619Y-28004761D01*
X111470238Y-27957142D01*
X111517857Y-27861904D01*
X111517857Y-27671428D01*
X111470238Y-27576190D01*
X111422619Y-27528571D01*
X111327380Y-27480952D01*
X122652380Y-44684523D02*
X123366666Y-44684523D01*
X123509523Y-44732142D01*
X123604761Y-44827380D01*
X123652380Y-44970238D01*
X123652380Y-45065476D01*
X122652380Y-44303571D02*
X122652380Y-43684523D01*
X123033333Y-44017857D01*
X123033333Y-43875000D01*
X123080952Y-43779761D01*
X123128571Y-43732142D01*
X123223809Y-43684523D01*
X123461904Y-43684523D01*
X123557142Y-43732142D01*
X123604761Y-43779761D01*
X123652380Y-43875000D01*
X123652380Y-44160714D01*
X123604761Y-44255952D01*
X123557142Y-44303571D01*
X123652380Y-42732142D02*
X123652380Y-43303571D01*
X123652380Y-43017857D02*
X122652380Y-43017857D01*
X122795238Y-43113095D01*
X122890476Y-43208333D01*
X122938095Y-43303571D01*
X114090476Y-105052380D02*
X114090476Y-105766666D01*
X114042857Y-105909523D01*
X113947619Y-106004761D01*
X113804761Y-106052380D01*
X113709523Y-106052380D01*
X114995238Y-105385714D02*
X114995238Y-106052380D01*
X114757142Y-105004761D02*
X114519047Y-105719047D01*
X115138095Y-105719047D01*
X115947619Y-105385714D02*
X115947619Y-106052380D01*
X115709523Y-105004761D02*
X115471428Y-105719047D01*
X116090476Y-105719047D01*
X82815476Y-27052380D02*
X82815476Y-27766666D01*
X82767857Y-27909523D01*
X82672619Y-28004761D01*
X82529761Y-28052380D01*
X82434523Y-28052380D01*
X83767857Y-27052380D02*
X83291666Y-27052380D01*
X83244047Y-27528571D01*
X83291666Y-27480952D01*
X83386904Y-27433333D01*
X83625000Y-27433333D01*
X83720238Y-27480952D01*
X83767857Y-27528571D01*
X83815476Y-27623809D01*
X83815476Y-27861904D01*
X83767857Y-27957142D01*
X83720238Y-28004761D01*
X83625000Y-28052380D01*
X83386904Y-28052380D01*
X83291666Y-28004761D01*
X83244047Y-27957142D01*
X84434523Y-27052380D02*
X84529761Y-27052380D01*
X84625000Y-27100000D01*
X84672619Y-27147619D01*
X84720238Y-27242857D01*
X84767857Y-27433333D01*
X84767857Y-27671428D01*
X84720238Y-27861904D01*
X84672619Y-27957142D01*
X84625000Y-28004761D01*
X84529761Y-28052380D01*
X84434523Y-28052380D01*
X84339285Y-28004761D01*
X84291666Y-27957142D01*
X84244047Y-27861904D01*
X84196428Y-27671428D01*
X84196428Y-27433333D01*
X84244047Y-27242857D01*
X84291666Y-27147619D01*
X84339285Y-27100000D01*
X84434523Y-27052380D01*
X122652380Y-81934523D02*
X123366666Y-81934523D01*
X123509523Y-81982142D01*
X123604761Y-82077380D01*
X123652380Y-82220238D01*
X123652380Y-82315476D01*
X122652380Y-80982142D02*
X122652380Y-81458333D01*
X123128571Y-81505952D01*
X123080952Y-81458333D01*
X123033333Y-81363095D01*
X123033333Y-81125000D01*
X123080952Y-81029761D01*
X123128571Y-80982142D01*
X123223809Y-80934523D01*
X123461904Y-80934523D01*
X123557142Y-80982142D01*
X123604761Y-81029761D01*
X123652380Y-81125000D01*
X123652380Y-81363095D01*
X123604761Y-81458333D01*
X123557142Y-81505952D01*
X123652380Y-79982142D02*
X123652380Y-80553571D01*
X123652380Y-80267857D02*
X122652380Y-80267857D01*
X122795238Y-80363095D01*
X122890476Y-80458333D01*
X122938095Y-80553571D01*
X65790476Y-27052380D02*
X65790476Y-27766666D01*
X65742857Y-27909523D01*
X65647619Y-28004761D01*
X65504761Y-28052380D01*
X65409523Y-28052380D01*
X66742857Y-27052380D02*
X66266666Y-27052380D01*
X66219047Y-27528571D01*
X66266666Y-27480952D01*
X66361904Y-27433333D01*
X66600000Y-27433333D01*
X66695238Y-27480952D01*
X66742857Y-27528571D01*
X66790476Y-27623809D01*
X66790476Y-27861904D01*
X66742857Y-27957142D01*
X66695238Y-28004761D01*
X66600000Y-28052380D01*
X66361904Y-28052380D01*
X66266666Y-28004761D01*
X66219047Y-27957142D01*
X67171428Y-27147619D02*
X67219047Y-27100000D01*
X67314285Y-27052380D01*
X67552380Y-27052380D01*
X67647619Y-27100000D01*
X67695238Y-27147619D01*
X67742857Y-27242857D01*
X67742857Y-27338095D01*
X67695238Y-27480952D01*
X67123809Y-28052380D01*
X67742857Y-28052380D01*
X74290476Y-27052380D02*
X74290476Y-27766666D01*
X74242857Y-27909523D01*
X74147619Y-28004761D01*
X74004761Y-28052380D01*
X73909523Y-28052380D01*
X75242857Y-27052380D02*
X74766666Y-27052380D01*
X74719047Y-27528571D01*
X74766666Y-27480952D01*
X74861904Y-27433333D01*
X75100000Y-27433333D01*
X75195238Y-27480952D01*
X75242857Y-27528571D01*
X75290476Y-27623809D01*
X75290476Y-27861904D01*
X75242857Y-27957142D01*
X75195238Y-28004761D01*
X75100000Y-28052380D01*
X74861904Y-28052380D01*
X74766666Y-28004761D01*
X74719047Y-27957142D01*
X75623809Y-27052380D02*
X76242857Y-27052380D01*
X75909523Y-27433333D01*
X76052380Y-27433333D01*
X76147619Y-27480952D01*
X76195238Y-27528571D01*
X76242857Y-27623809D01*
X76242857Y-27861904D01*
X76195238Y-27957142D01*
X76147619Y-28004761D01*
X76052380Y-28052380D01*
X75766666Y-28052380D01*
X75671428Y-28004761D01*
X75623809Y-27957142D01*
M02*
